<svg width="159" height="155" viewBox="0 0 159 155" fill="none" xmlns="http://www.w3.org/2000/svg">
<path d="M78.745 144.713C114.967 144.713 144.33 115.35 144.33 79.1283C144.33 42.9068 114.967 13.5435 78.745 13.5435C42.5235 13.5435 13.1602 42.9068 13.1602 79.1283C13.1602 115.35 42.5235 144.713 78.745 144.713Z" fill="#FAFAFA"/>
<path d="M114.127 28.8042H41.4733C36.9446 28.8042 33.2734 32.4754 33.2734 37.004H122.327C122.327 32.4754 118.656 28.8042 114.127 28.8042Z" fill="#00A82D"/>
<path d="M33.2734 36.7803H122.327V104.605C122.327 107.621 121.129 110.513 118.997 112.645C116.865 114.777 113.973 115.975 110.957 115.975H44.6435C41.628 115.975 38.736 114.777 36.6037 112.645C34.4714 110.513 33.2734 107.621 33.2734 104.605V36.7803Z" fill="#FAFAFA"/>
<path d="M107.014 45.3472H48.6049C47.3884 45.3472 46.4023 46.3322 46.4023 47.5473C46.4023 48.7624 47.3884 49.7474 48.6049 49.7474H107.014C108.231 49.7474 109.217 48.7624 109.217 47.5473C109.217 46.3322 108.231 45.3472 107.014 45.3472Z" fill="#00A82D"/>
<path d="M107.014 64.042H48.6049C47.3884 64.042 46.4023 65.027 46.4023 66.2421C46.4023 67.4572 47.3884 68.4422 48.6049 68.4422H107.014C108.231 68.4422 109.217 67.4572 109.217 66.2421C109.217 65.027 108.231 64.042 107.014 64.042Z" fill="#00A82D"/>
<path d="M107.014 82.7373H48.6049C47.3884 82.7373 46.4023 83.7223 46.4023 84.9374C46.4023 86.1525 47.3884 87.1376 48.6049 87.1376H107.014C108.231 87.1376 109.217 86.1525 109.217 84.9374C109.217 83.7223 108.231 82.7373 107.014 82.7373Z" fill="#00A82D"/>
<path d="M107.014 101.432H48.6049C47.3884 101.432 46.4023 102.417 46.4023 103.632C46.4023 104.847 47.3884 105.832 48.6049 105.832H107.014C108.231 105.832 109.217 104.847 109.217 103.632C109.217 102.417 108.231 101.432 107.014 101.432Z" fill="#00A82D"/>
<g filter="url(#filter0_d_218_22632)">
<path d="M48.2083 78.7271H17.1062C14.6076 78.7271 12.582 80.7526 12.582 83.2513V127.707C12.582 130.205 14.6076 132.231 17.1062 132.231H48.2083C50.707 132.231 52.7325 130.205 52.7325 127.707V83.2513C52.7325 80.7526 50.707 78.7271 48.2083 78.7271Z" fill="white"/>
</g>
<g filter="url(#filter1_d_218_22632)">
<path d="M136.748 9.28711H102.395C100.794 9.28711 99.4961 10.5848 99.4961 12.1856V28.3326C99.4961 29.9334 100.794 31.2312 102.395 31.2312H136.748C138.349 31.2312 139.647 29.9334 139.647 28.3326V12.1856C139.647 10.5848 138.349 9.28711 136.748 9.28711Z" fill="#FAFAFA"/>
</g>
<path d="M44.7316 100.967H20.5708C19.7572 100.967 19.0977 101.626 19.0977 102.44V102.445C19.0977 103.258 19.7572 103.918 20.5708 103.918H44.7316C45.5452 103.918 46.2047 103.258 46.2047 102.445V102.44C46.2047 101.626 45.5452 100.967 44.7316 100.967Z" fill="#00A82D"/>
<path d="M44.7457 121.731H20.7925C19.9859 121.731 19.332 122.37 19.332 123.159V123.163C19.332 123.951 19.9859 124.59 20.7925 124.59H44.7457C45.5523 124.59 46.2061 123.951 46.2061 123.163V123.159C46.2061 122.37 45.5523 121.731 44.7457 121.731Z" fill="#00A82D"/>
<path d="M44.7457 110.867H20.7925C19.9859 110.867 19.332 111.506 19.332 112.294V112.299C19.332 113.087 19.9859 113.726 20.7925 113.726H44.7457C45.5523 113.726 46.2061 113.087 46.2061 112.299V112.294C46.2061 111.506 45.5523 110.867 44.7457 110.867Z" fill="#00A82D"/>
<path d="M29.4078 85.5923H22.3474C20.7835 85.5923 19.5156 86.8601 19.5156 88.4241V90.3835C19.5156 91.9474 20.7835 93.2153 22.3474 93.2153H29.4078C30.9718 93.2153 32.2396 91.9474 32.2396 90.3835V88.4241C32.2396 86.8601 30.9718 85.5923 29.4078 85.5923Z" fill="#FAFAFA"/>
<path d="M107.957 23.5891C109.798 23.5891 111.29 22.0971 111.29 20.2567C111.29 18.4163 109.798 16.9243 107.957 16.9243C106.117 16.9243 104.625 18.4163 104.625 20.2567C104.625 22.0971 106.117 23.5891 107.957 23.5891Z" fill="url(#paint0_linear_218_22632)"/>
<path d="M119.86 23.5891C121.7 23.5891 123.192 22.0971 123.192 20.2567C123.192 18.4163 121.7 16.9243 119.86 16.9243C118.019 16.9243 116.527 18.4163 116.527 20.2567C116.527 22.0971 118.019 23.5891 119.86 23.5891Z" fill="url(#paint1_linear_218_22632)"/>
<path d="M131.778 23.5891C133.618 23.5891 135.11 22.0971 135.11 20.2567C135.11 18.4163 133.618 16.9243 131.778 16.9243C129.937 16.9243 128.445 18.4163 128.445 20.2567C128.445 22.0971 129.937 23.5891 131.778 23.5891Z" fill="url(#paint2_linear_218_22632)"/>
<path d="M122.748 103.07L114.309 112.375L138.098 133.953L146.537 124.648L122.748 103.07Z" fill="#00A82D"/>
<path fill-rule="evenodd" clip-rule="evenodd" d="M131.677 87.6697C131.677 107.135 115.898 122.915 96.4324 122.915C76.9672 122.915 61.1875 107.135 61.1875 87.6697C61.1875 68.2045 76.9672 52.4248 96.4324 52.4248C115.898 52.4248 131.677 68.2045 131.677 87.6697ZM126.265 87.6699C126.265 104.149 112.906 117.509 96.4265 117.509C79.9471 117.509 66.5878 104.149 66.5878 87.6699C66.5878 71.1904 79.9471 57.8312 96.4265 57.8312C112.906 57.8312 126.265 71.1904 126.265 87.6699Z" fill="#00A82D"/>
<g filter="url(#filter2_b_218_22632)">
<path d="M96.4247 117.509C112.904 117.509 126.263 104.149 126.263 87.6698C126.263 71.1903 112.904 57.8311 96.4247 57.8311C79.9452 57.8311 66.5859 71.1903 66.5859 87.6698C66.5859 104.149 79.9452 117.509 96.4247 117.509Z" fill="url(#paint3_linear_218_22632)" fill-opacity="0.2"/>
</g>
<g filter="url(#filter3_f_218_22632)">
<ellipse cx="97.406" cy="104.15" rx="20.9763" ry="3.09877" fill="url(#paint4_linear_218_22632)"/>
</g>
<path d="M72.302 128.329C72.8178 126.192 75.8576 126.192 76.3735 128.329C76.5579 129.093 77.1542 129.689 77.9179 129.874C80.055 130.39 80.055 133.429 77.9179 133.945C77.1542 134.13 76.5579 134.726 76.3735 135.49C75.8576 137.627 72.8178 137.627 72.302 135.49C72.1176 134.726 71.5213 134.13 70.7576 133.945C68.6205 133.429 68.6205 130.39 70.7576 129.874C71.5213 129.689 72.1176 129.093 72.302 128.329Z" fill="#00A82D"/>
<path d="M24.8449 18.5462C25.3608 16.4091 28.4006 16.4091 28.9165 18.5462C29.1008 19.3099 29.6971 19.9062 30.4608 20.0905C32.5979 20.6064 32.5979 23.6462 30.4608 24.1621C29.6971 24.3464 29.1008 24.9427 28.9165 25.7064C28.4006 27.8435 25.3608 27.8435 24.8449 25.7064C24.6606 24.9427 24.0643 24.3464 23.3006 24.1621C21.1635 23.6462 21.1635 20.6064 23.3006 20.0905C24.0643 19.9062 24.6606 19.3099 24.8449 18.5462Z" fill="#00A82D"/>
<path fill-rule="evenodd" clip-rule="evenodd" d="M76.125 15.619C77.2309 15.619 78.1273 14.7225 78.1273 13.6167C78.1273 12.5109 77.2309 11.6145 76.125 11.6145C75.0192 11.6145 74.1228 12.5109 74.1228 13.6167C74.1228 14.7225 75.0192 15.619 76.125 15.619ZM76.125 17.1207C78.0602 17.1207 79.629 15.5519 79.629 13.6167C79.629 11.6816 78.0602 10.1128 76.125 10.1128C74.1899 10.1128 72.6211 11.6816 72.6211 13.6167C72.6211 15.5519 74.1899 17.1207 76.125 17.1207Z" fill="#00A82D"/>
<path d="M138.691 72.0117C138.358 70.7056 139.564 69.5289 140.861 69.8935L143.369 70.5982C144.666 70.9628 145.083 72.5954 144.118 73.5368L142.254 75.3562C141.289 76.2976 139.667 75.8418 139.334 74.5357L138.691 72.0117Z" fill="#00A82D"/>
<path d="M19.7239 62.4753C21.0304 62.144 22.2056 63.3512 21.8393 64.6483L21.1313 67.1551C20.765 68.4522 19.132 68.8663 18.1918 67.9005L16.3748 66.034C15.4347 65.0682 15.8926 63.4469 17.199 63.1156L19.7239 62.4753Z" fill="#00A82D"/>
<path d="M115.22 131.662C116.527 131.331 117.702 132.538 117.335 133.835L116.627 136.342C116.261 137.639 114.628 138.053 113.688 137.087L111.871 135.221C110.931 134.255 111.389 132.633 112.695 132.302L115.22 131.662Z" fill="#00A82D"/>
<path fill-rule="evenodd" clip-rule="evenodd" d="M143.027 44.7796C144.133 44.7796 145.03 43.8832 145.03 42.7774C145.03 41.6716 144.133 40.7751 143.027 40.7751C141.922 40.7751 141.025 41.6716 141.025 42.7774C141.025 43.8832 141.922 44.7796 143.027 44.7796ZM143.027 46.2813C144.963 46.2813 146.531 44.7126 146.531 42.7774C146.531 40.8422 144.963 39.2734 143.027 39.2734C141.092 39.2734 139.523 40.8422 139.523 42.7774C139.523 44.7126 141.092 46.2813 143.027 46.2813Z" fill="#00A82D"/>
<path d="M138.102 133.954L146.541 124.65L147.812 125.803C149.046 126.921 149.784 128.484 149.865 130.148C149.946 131.811 149.363 133.438 148.245 134.671C147.126 135.905 145.563 136.643 143.9 136.724C142.237 136.805 140.609 136.222 139.376 135.104L138.105 133.951L138.102 133.954Z" fill="#00A82D"/>
<defs>
<filter id="filter0_d_218_22632" x="0.582031" y="70.7271" width="70.1523" height="83.5039" filterUnits="userSpaceOnUse" color-interpolation-filters="sRGB">
<feFlood flood-opacity="0" result="BackgroundImageFix"/>
<feColorMatrix in="SourceAlpha" type="matrix" values="0 0 0 0 0 0 0 0 0 0 0 0 0 0 0 0 0 0 127 0" result="hardAlpha"/>
<feOffset dx="3" dy="7"/>
<feGaussianBlur stdDeviation="7.5"/>
<feComposite in2="hardAlpha" operator="out"/>
<feColorMatrix type="matrix" values="0 0 0 0 0.104618 0 0 0 0 0.465612 0 0 0 0 0.545833 0 0 0 0.15 0"/>
<feBlend mode="normal" in2="BackgroundImageFix" result="effect1_dropShadow_218_22632"/>
<feBlend mode="normal" in="SourceGraphic" in2="effect1_dropShadow_218_22632" result="shape"/>
</filter>
<filter id="filter1_d_218_22632" x="92.4961" y="0.287109" width="66.1523" height="47.9438" filterUnits="userSpaceOnUse" color-interpolation-filters="sRGB">
<feFlood flood-opacity="0" result="BackgroundImageFix"/>
<feColorMatrix in="SourceAlpha" type="matrix" values="0 0 0 0 0 0 0 0 0 0 0 0 0 0 0 0 0 0 127 0" result="hardAlpha"/>
<feOffset dx="6" dy="4"/>
<feGaussianBlur stdDeviation="6.5"/>
<feComposite in2="hardAlpha" operator="out"/>
<feColorMatrix type="matrix" values="0 0 0 0 0.104618 0 0 0 0 0.465612 0 0 0 0 0.545833 0 0 0 0.09 0"/>
<feBlend mode="normal" in2="BackgroundImageFix" result="effect1_dropShadow_218_22632"/>
<feBlend mode="normal" in="SourceGraphic" in2="effect1_dropShadow_218_22632" result="shape"/>
</filter>
<filter id="filter2_b_218_22632" x="49.9108" y="41.1559" width="93.0261" height="93.028" filterUnits="userSpaceOnUse" color-interpolation-filters="sRGB">
<feFlood flood-opacity="0" result="BackgroundImageFix"/>
<feGaussianBlur in="BackgroundImageFix" stdDeviation="8.33757"/>
<feComposite in2="SourceAlpha" operator="in" result="effect1_backgroundBlur_218_22632"/>
<feBlend mode="normal" in="SourceGraphic" in2="effect1_backgroundBlur_218_22632" result="shape"/>
</filter>
<filter id="filter3_f_218_22632" x="55.5858" y="80.2073" width="83.641" height="47.8856" filterUnits="userSpaceOnUse" color-interpolation-filters="sRGB">
<feFlood flood-opacity="0" result="BackgroundImageFix"/>
<feBlend mode="normal" in="SourceGraphic" in2="BackgroundImageFix" result="shape"/>
<feGaussianBlur stdDeviation="10.422" result="effect1_foregroundBlur_218_22632"/>
</filter>
<linearGradient id="paint0_linear_218_22632" x1="104.796" y1="16.9243" x2="111.669" y2="17.2731" gradientUnits="userSpaceOnUse">
<stop stop-color="#00A82D"/>
<stop offset="0.5" stop-color="#1FB247"/>
<stop offset="1" stop-color="#0CBC8B"/>
</linearGradient>
<linearGradient id="paint1_linear_218_22632" x1="116.698" y1="16.9243" x2="123.572" y2="17.2731" gradientUnits="userSpaceOnUse">
<stop stop-color="#00A82D"/>
<stop offset="0.5" stop-color="#1FB247"/>
<stop offset="1" stop-color="#0CBC8B"/>
</linearGradient>
<linearGradient id="paint2_linear_218_22632" x1="128.616" y1="16.9243" x2="135.49" y2="17.2731" gradientUnits="userSpaceOnUse">
<stop stop-color="#00A82D"/>
<stop offset="0.5" stop-color="#1FB247"/>
<stop offset="1" stop-color="#0CBC8B"/>
</linearGradient>
<linearGradient id="paint3_linear_218_22632" x1="96.4247" y1="57.8311" x2="126.492" y2="135.853" gradientUnits="userSpaceOnUse">
<stop stop-color="white"/>
<stop offset="1" stop-color="#D2F7FF"/>
</linearGradient>
<linearGradient id="paint4_linear_218_22632" x1="75.9899" y1="101.351" x2="118.381" y2="101.145" gradientUnits="userSpaceOnUse">
<stop stop-color="#00A82D"/>
<stop offset="1" stop-color="#F3F5FD"/>
</linearGradient>
</defs>
</svg>
