<svg width="72" height="76" viewBox="0 0 72 76" fill="none" xmlns="http://www.w3.org/2000/svg">
<g clip-path="url(#clip0_585_374)">
<path d="M57.7686 26.8121L56.4129 21.6719C47.9878 23.8848 42.7149 31.5866 39.5154 38.9024C33.2717 15.6386 20.0957 12.7271 19.3521 12.5864L18.3564 17.8064C18.5511 17.8447 37.7447 22.0916 37.4376 68.2672C37.4376 68.2672 37.4387 68.2627 37.4556 68.2604C37.4674 68.9536 37.751 69.6143 38.2452 70.1004C38.7395 70.5865 39.405 70.859 40.0982 70.8592C40.8007 70.8592 41.4744 70.5802 41.9712 70.0836C42.468 69.587 42.7473 68.9134 42.7476 68.2109C42.7476 68.0512 42.7273 67.9016 42.7014 67.7508L42.7476 67.7418C42.7678 60.6689 42.3223 54.5276 41.5618 49.1456C43.1571 43.2371 47.8967 29.3996 57.7652 26.8121" fill="#78B153"/>
<path d="M40.6911 68.2604C40.6866 68.2627 40.69 68.2649 40.69 68.2649C40.9903 22.0949 21.7967 17.8436 21.6021 17.8064L22.3918 13.6934C20.7201 12.8789 19.5726 12.6258 19.3667 12.5864L18.3711 17.8064C18.5657 17.8447 37.7593 22.0916 37.4522 68.2672C37.4522 68.2672 37.4533 68.2627 37.4702 68.2604C37.482 68.9536 37.7656 69.6143 38.2599 70.1004C38.7542 70.5865 39.4196 70.859 40.1128 70.8592C40.726 70.8592 41.2806 70.6432 41.7317 70.2933C41.4182 70.0537 41.1628 69.7464 40.9844 69.3945C40.806 69.0426 40.7092 68.6549 40.7012 68.2604" fill="#00A82D"/>
<path d="M51.5769 25.327C51.5769 25.327 49.0996 21.1612 53.2284 18.3835C57.3605 15.607 67.8984 16.7433 71.6109 18.3835V19.2115C71.6109 19.2115 69.7557 19.3769 68.5149 24.3708C67.2729 29.3658 56.7406 27.7233 56.7406 27.7233L53.7459 27.982H50.8355L51.5769 25.327ZM26.4556 18.1923C26.4556 18.1923 29.7024 12.736 24.2934 9.10229C18.8832 5.46404 5.08962 6.95242 0.213867 9.10229V10.1868C0.213867 10.1868 2.64724 10.4028 4.27399 16.948C5.90187 23.4888 19.6932 21.3389 19.6932 21.3389L23.6184 21.6775H27.422L26.4556 18.199" fill="#78B153"/>
<path d="M28.8788 15.0415C24.6016 16.2565 18.2375 17.2375 16.0572 13.2145C12.6597 6.95163 10.1116 7.37351 10.1116 7.37351L10.0632 7.19238C6.62634 7.57601 3.52809 8.29038 1.69434 9.09926V10.1838C1.69434 10.1838 4.12771 10.3998 5.75446 16.945C7.38234 23.4869 21.1737 21.337 21.1737 21.337L25.0988 21.6745H28.9025L27.9361 18.1971C27.9361 18.1971 28.7393 16.8483 28.8788 15.046M39.923 46.2828C39.923 46.2828 47.9262 26.6954 55.3332 24.8178C55.3332 24.8178 68.1616 26.3005 70.6242 22.3428C70.6242 22.3428 71.9438 19.0263 73.7337 19.1973C73.7337 19.1973 66.4088 13.7466 56.825 17.7494C56.825 17.7494 51.4812 18.2016 52.5353 24.0269C52.5353 24.0269 47.3615 26.5053 41.0018 38.9039L38.4717 43.1283L39.9185 46.2794" fill="#00A82D"/>
</g>
<path d="M40.3612 60.875C37.0828 60.875 33.9387 62.1773 31.6205 64.4955C29.3023 66.8137 28 69.9578 28 73.2362H52.7362C52.7362 66.4094 47.2019 60.875 40.3612 60.875Z" fill="#6D4534"/>
<defs>
<clipPath id="clip0_585_374">
<rect width="72" height="72" fill="white"/>
</clipPath>
</defs>
</svg>
