<svg width="173" height="660" viewBox="0 0 173 660" fill="none" xmlns="http://www.w3.org/2000/svg">
<path opacity="0.05" fill-rule="evenodd" clip-rule="evenodd" d="M170.084 4.02239C170.424 5.83382 171.108 7.31589 171.602 7.31589C172.097 7.31589 172.503 7.95107 172.503 8.7274C172.503 9.50372 172.078 10.1389 171.56 10.1389C170.94 10.1389 170.617 33.9773 170.617 79.773C170.617 121.562 170.964 149.407 171.485 149.407C171.962 149.407 172.624 150.642 172.957 152.151C173.289 153.661 174.171 155.129 174.917 155.415C175.662 155.702 176.273 156.583 176.273 157.376C176.273 158.19 177.094 158.817 178.158 158.817C179.195 158.817 180.044 159.407 180.044 160.128C180.044 160.849 180.68 161.683 181.458 161.981C182.235 162.278 182.872 163.17 182.872 163.964C182.872 164.756 183.508 165.404 184.286 165.404C185.063 165.404 185.7 166.039 185.7 166.816C185.7 167.6 186.538 168.227 187.585 168.227C188.632 168.227 189.47 168.855 189.47 169.639C189.47 170.415 190.106 171.05 190.884 171.05C191.669 171.05 192.298 171.887 192.298 172.932C192.298 173.978 192.927 174.814 193.712 174.814C194.49 174.814 195.126 175.449 195.126 176.226C195.126 177.002 195.596 177.637 196.171 177.637C197.619 177.637 201.689 181.614 201.708 183.048C201.717 183.695 202.361 184.224 203.138 184.224C203.916 184.224 204.552 184.859 204.552 185.636C204.552 186.412 205.023 187.047 205.598 187.047C207.046 187.047 211.115 191.024 211.135 192.458C211.143 193.105 211.787 193.634 212.565 193.634C213.342 193.634 213.979 194.269 213.979 195.046C213.979 195.822 214.449 196.457 215.024 196.457C216.472 196.457 220.541 200.434 220.561 201.868C220.57 202.515 221.213 203.044 221.991 203.044C222.769 203.044 223.405 203.63 223.405 204.346C223.405 205.062 224.253 205.869 225.29 206.14C226.327 206.41 227.176 207.307 227.176 208.131C227.176 208.957 227.812 209.631 228.59 209.631C229.367 209.631 230.003 210.266 230.003 211.043C230.003 211.819 230.64 212.454 231.417 212.454C232.195 212.454 232.831 213.04 232.831 213.756C232.831 214.472 233.68 215.279 234.717 215.55C235.754 215.82 236.602 216.717 236.602 217.541C236.602 218.367 237.238 219.041 238.016 219.041C238.794 219.041 239.43 219.676 239.43 220.453C239.43 221.229 240.066 221.864 240.844 221.864C241.621 221.864 242.258 222.451 242.258 223.166C242.258 223.882 243.106 224.689 244.143 224.96C245.18 225.23 246.028 226.127 246.028 226.951C246.028 227.777 246.665 228.451 247.442 228.451C248.22 228.451 248.856 229.086 248.856 229.863C248.856 230.639 249.327 231.274 249.902 231.274C251.349 231.274 255.419 235.251 255.439 236.685C255.447 237.332 256.091 237.861 256.869 237.861C257.646 237.861 258.283 238.496 258.283 239.273C258.283 240.049 258.87 240.684 259.586 240.684C260.304 240.684 261.112 241.531 261.384 242.566C261.654 243.601 262.553 244.448 263.378 244.448C264.205 244.448 264.881 245.083 264.881 245.86C264.881 246.636 265.517 247.271 266.295 247.271C267.073 247.271 267.709 247.906 267.709 248.683C267.709 249.459 268.345 250.094 269.123 250.094C269.908 250.094 270.537 250.931 270.537 251.976C270.537 253.231 271.166 253.858 272.422 253.858C273.469 253.858 274.307 254.486 274.307 255.27C274.307 256.046 274.944 256.681 275.721 256.681C276.499 256.681 277.135 257.317 277.135 258.093C277.135 258.869 277.772 259.504 278.549 259.504C279.335 259.504 279.963 260.341 279.963 261.386C279.963 262.641 280.592 263.268 281.849 263.268C282.896 263.268 283.734 263.896 283.734 264.68C283.734 265.456 284.37 266.091 285.148 266.091C285.925 266.091 286.562 266.727 286.562 267.503C286.562 268.279 287.238 268.914 288.064 268.914C288.89 268.914 289.788 269.761 290.059 270.796C290.33 271.831 291.139 272.678 291.857 272.678C292.573 272.678 293.16 273.314 293.16 274.09C293.16 274.866 293.796 275.501 294.574 275.501C295.359 275.501 295.988 276.338 295.988 277.383C295.988 278.638 296.617 279.265 297.873 279.265C298.921 279.265 299.759 279.893 299.759 280.677C299.759 281.453 300.395 282.088 301.173 282.088C301.95 282.088 302.587 282.724 302.587 283.5C302.587 284.276 303.223 284.911 304.001 284.911C304.786 284.911 305.414 285.748 305.414 286.793C305.414 288.241 306.043 288.675 308.132 288.675C311.554 288.675 311.983 290.111 312 301.614C312.01 308.597 311.742 310.318 310.646 310.318C309.894 310.318 308.864 311.059 308.356 311.965C307.606 313.303 305.82 313.674 298.82 313.943C290.72 314.255 290.175 314.157 289.687 312.296C289.403 311.209 288.583 310.318 287.865 310.318C287.149 310.318 286.562 309.683 286.562 308.907C286.562 308.123 285.724 307.495 284.676 307.495C283.629 307.495 282.791 306.868 282.791 306.084C282.791 305.308 282.155 304.672 281.377 304.672C280.592 304.672 279.963 303.836 279.963 302.79C279.963 301.745 279.335 300.908 278.549 300.908C277.772 300.908 277.135 300.273 277.135 299.497C277.135 298.713 276.297 298.085 275.25 298.085C274.213 298.085 273.365 297.495 273.365 296.775C273.365 296.054 272.729 295.22 271.951 294.922C271.173 294.624 270.537 293.732 270.537 292.939C270.537 292.147 269.901 291.498 269.123 291.498C268.345 291.498 267.709 290.863 267.709 290.087C267.709 289.311 267.073 288.675 266.295 288.675C265.517 288.675 264.881 288.04 264.881 287.264C264.881 286.488 264.205 285.852 263.378 285.852C262.553 285.852 261.654 285.005 261.384 283.97C261.112 282.935 260.304 282.088 259.586 282.088C258.87 282.088 258.283 281.453 258.283 280.677C258.283 279.893 257.445 279.265 256.397 279.265C255.141 279.265 254.512 278.638 254.512 277.383C254.512 276.338 253.883 275.501 253.098 275.501C252.32 275.501 251.684 274.866 251.684 274.09C251.684 273.314 251.048 272.678 250.27 272.678C249.493 272.678 248.856 272.043 248.856 271.267C248.856 270.491 248.269 269.855 247.553 269.855C246.835 269.855 246.026 269.008 245.755 267.973C245.484 266.938 244.586 266.091 243.76 266.091C242.934 266.091 242.258 265.456 242.258 264.68C242.258 263.904 241.621 263.268 240.844 263.268C240.066 263.268 239.43 262.633 239.43 261.857C239.43 261.081 238.754 260.445 237.927 260.445C237.102 260.445 236.203 259.598 235.933 258.563C235.661 257.528 234.852 256.681 234.135 256.681C233.419 256.681 232.831 256.046 232.831 255.27C232.831 254.494 232.195 253.858 231.417 253.858C230.64 253.858 230.003 253.272 230.003 252.557C230.003 251.841 229.155 251.033 228.118 250.762C227.081 250.492 226.233 249.596 226.233 248.771C226.233 247.946 225.597 247.271 224.819 247.271C224.041 247.271 223.405 246.636 223.405 245.86C223.405 245.083 222.818 244.448 222.101 244.448C221.384 244.448 220.575 243.601 220.304 242.566C220.033 241.531 219.135 240.684 218.309 240.684C217.482 240.684 216.807 240.049 216.807 239.273C216.807 238.496 216.17 237.861 215.393 237.861C214.615 237.861 213.979 237.226 213.979 236.45C213.979 235.673 213.342 235.038 212.565 235.038C211.787 235.038 211.151 234.452 211.151 233.737C211.151 233.021 210.302 232.213 209.265 231.942C208.229 231.672 207.38 230.776 207.38 229.951C207.38 229.126 206.744 228.451 205.966 228.451C205.189 228.451 204.552 227.816 204.552 227.04C204.552 226.263 203.916 225.628 203.138 225.628C202.361 225.628 201.724 225.042 201.724 224.327C201.724 223.611 200.876 222.803 199.839 222.532C198.802 222.262 197.954 221.366 197.954 220.541C197.954 219.716 197.318 219.041 196.54 219.041C195.762 219.041 195.126 218.406 195.126 217.63C195.126 216.853 194.49 216.218 193.712 216.218C192.934 216.218 192.298 215.544 192.298 214.718C192.298 213.894 191.45 212.997 190.413 212.727C189.376 212.456 188.527 211.649 188.527 210.933C188.527 210.217 187.891 209.631 187.113 209.631C186.336 209.631 185.7 209.045 185.7 208.33C185.7 207.614 184.851 206.806 183.814 206.535C182.777 206.265 181.929 205.369 181.929 204.544C181.929 203.719 181.293 203.044 180.515 203.044C179.737 203.044 179.101 202.409 179.101 201.633C179.101 200.856 178.465 200.221 177.687 200.221C176.909 200.221 176.266 199.692 176.257 199.045C176.237 197.611 172.168 193.634 170.72 193.634C170.145 193.634 169.675 192.999 169.675 192.223C169.675 191.446 169.038 190.811 168.261 190.811C167.483 190.811 166.847 190.163 166.847 189.371C166.847 188.577 166.211 187.685 165.433 187.388C164.655 187.09 164.019 186.256 164.019 185.535C164.019 184.814 163.171 184.224 162.134 184.224C161.086 184.224 160.248 183.597 160.248 182.813C160.248 182.036 159.612 181.401 158.834 181.401C158.049 181.401 157.42 180.565 157.42 179.519C157.42 178.474 156.792 177.637 156.006 177.637C155.229 177.637 154.592 177.002 154.592 176.226C154.592 175.442 153.755 174.814 152.707 174.814C151.66 174.814 150.822 174.187 150.822 173.403C150.822 172.16 141.972 171.991 76.8249 171.991C3.45667 171.991 2.82791 171.975 2.82791 170.109C2.82791 169.064 2.19919 168.227 1.41397 168.227C0.235687 168.227 0 166.345 0 156.935C0 147.525 0.235687 145.643 1.41397 145.643C2.19165 145.643 2.82791 145.008 2.82791 144.232C2.82791 142.99 11.1542 142.82 72.1117 142.82H141.396V73.186C141.396 11.9165 141.565 3.55189 142.81 3.55189C143.587 3.55189 144.223 2.91671 144.223 2.14038C144.223 0.955663 146.254 0.728882 156.844 0.728882H169.464L170.084 4.02239ZM122.543 54.366C122.543 101.416 122.369 108.003 121.129 108.003C120.351 108.003 119.715 107.368 119.715 106.592C119.715 105.808 118.877 105.18 117.83 105.18C116.793 105.18 115.944 104.579 115.944 103.843C115.944 103.108 114.699 102.234 113.178 101.9C111.1 101.444 110.26 100.606 109.804 98.5319C109.469 97.0131 108.594 95.7701 107.857 95.7701C107.12 95.7701 106.518 95.1349 106.518 94.3586C106.518 93.5822 105.882 92.947 105.104 92.947C104.319 92.947 103.69 92.1105 103.69 91.065C103.69 89.8107 103.061 89.183 101.805 89.183C100.758 89.183 99.9195 88.5554 99.9195 87.7715C99.9195 86.9952 99.2833 86.36 98.5056 86.36C97.7279 86.36 97.0916 85.7249 97.0916 84.9485C97.0916 84.1722 96.4554 83.537 95.6777 83.537C94.4428 83.537 94.2637 78.466 94.2637 43.5445C94.2637 8.62295 94.4428 3.55189 95.6777 3.55189C96.4554 3.55189 97.0916 2.91671 97.0916 2.14038C97.0916 0.955663 99.1343 0.728882 109.817 0.728882H122.543V54.366ZM75.411 2.61089C75.411 3.65634 76.0397 4.49289 76.8249 4.49289C77.6026 4.49289 78.2389 5.12806 78.2389 5.90439C78.2389 6.68072 77.6026 7.31589 76.8249 7.31589C76.0473 7.31589 75.411 7.95107 75.411 8.7274C75.411 9.50372 76.0473 10.1389 76.8249 10.1389C77.6102 10.1389 78.2389 10.9754 78.2389 12.0209C78.2389 13.0664 77.6102 13.9029 76.8249 13.9029C75.5967 13.9029 75.411 18.033 75.411 45.4265V76.95L39.8264 76.9368C20.2554 76.9303 3.28793 76.6687 2.12094 76.3572C0.0603333 75.8058 0 75.4435 0 63.6659C0 53.5172 0.230011 51.543 1.41397 51.543C2.19919 51.543 2.82791 50.7064 2.82791 49.661C2.82791 47.8335 3.45667 47.779 24.3983 47.779H45.9696L46.538 45.6617C46.85 44.4968 47.1121 34.5466 47.1187 23.5482C47.13 6.40689 47.3336 3.55189 48.5458 3.55189C49.3235 3.55189 49.9598 2.91671 49.9598 2.14038C49.9598 0.955663 52.0025 0.728882 62.6854 0.728882C74.7822 0.728882 75.411 0.822041 75.411 2.61089ZM27.8078 3.55189C28.149 5.10454 29.0313 6.37489 29.7675 6.37489C30.8063 6.37489 31.107 7.96142 31.107 13.4324C31.107 19.0784 30.8242 20.4899 29.6931 20.4899C28.6515 20.4899 28.2791 21.5758 28.2791 24.6143C28.2791 29.7221 27.8634 29.8698 13.4326 29.8868C3.45193 29.899 2.82791 29.7889 2.82791 28.0179C2.82791 26.9725 2.19919 26.1359 1.41397 26.1359C0.235687 26.1359 0 24.2539 0 14.8439C0 5.43389 0.235687 3.55189 1.41397 3.55189C2.19165 3.55189 2.82791 2.91671 2.82791 2.14038C2.82791 0.958486 4.80933 0.728882 15.0077 0.728882H27.1866L27.8078 3.55189ZM201.489 7.05524C203.347 7.28578 204.552 7.96707 204.552 8.78668C204.552 9.78226 205.797 10.1389 209.265 10.1389C212.827 10.1389 213.979 10.4842 213.979 11.5504C213.979 12.3267 214.562 12.9619 215.275 12.9619C215.987 12.9619 216.836 14.285 217.16 15.9025C217.916 19.675 217.911 163.294 217.155 166.11C216.732 167.685 215.89 168.227 213.868 168.227C212.081 168.227 211.151 167.744 211.151 166.816C211.151 166.039 210.475 165.404 209.648 165.404C208.822 165.404 207.924 164.557 207.654 163.522C207.382 162.487 206.573 161.64 205.856 161.64C205.14 161.64 204.552 161.005 204.552 160.229C204.552 159.452 203.916 158.817 203.138 158.817C202.361 158.817 201.724 158.182 201.724 157.406C201.724 156.629 201.048 155.994 200.222 155.994C199.396 155.994 198.498 155.147 198.227 154.112C197.956 153.077 197.147 152.23 196.43 152.23C195.713 152.23 195.126 151.595 195.126 150.819C195.126 150.042 194.49 149.407 193.712 149.407C192.934 149.407 192.298 148.793 192.298 148.043C192.298 147.292 191.555 146.263 190.648 145.756C189.104 144.894 188.983 140.435 188.745 76.1897L188.492 7.54455L190.63 6.97243C192.85 6.37866 196.236 6.405 201.489 7.05524ZM245.086 27.5474C245.086 28.3238 245.762 28.9589 246.588 28.9589C247.414 28.9589 248.312 29.8058 248.583 30.8409C248.854 31.876 249.663 32.7229 250.38 32.7229C251.097 32.7229 251.684 33.3581 251.684 34.1344C251.684 34.9183 252.522 35.5459 253.569 35.5459C254.606 35.5459 255.455 36.1473 255.455 36.8831C255.455 37.618 256.727 38.4988 258.283 38.8395C259.838 39.1801 261.111 40.0609 261.111 40.7958C261.111 41.5317 261.698 42.133 262.414 42.133C263.132 42.133 263.974 43.0853 264.287 44.2502C265.03 47.0168 265.03 210.393 264.287 213.16C263.864 214.735 263.022 215.277 261 215.277C259.213 215.277 258.283 214.795 258.283 213.866C258.283 213.089 257.646 212.454 256.869 212.454C256.091 212.454 255.455 211.819 255.455 211.043C255.455 210.259 254.617 209.631 253.569 209.631C252.313 209.631 251.684 209.004 251.684 207.749C251.684 206.704 251.055 205.867 250.27 205.867C249.493 205.867 248.856 205.232 248.856 204.456C248.856 203.679 248.22 203.044 247.442 203.044C246.665 203.044 246.028 202.37 246.028 201.544C246.028 200.72 245.18 199.823 244.143 199.553C243.106 199.282 242.258 198.475 242.258 197.759C242.258 197.043 241.655 196.457 240.918 196.457C240.182 196.457 239.3 195.187 238.959 193.634C238.617 192.082 237.735 190.811 236.999 190.811C235.852 190.811 235.661 179.282 235.673 110.591C235.679 66.4691 235.941 29.4181 236.253 28.2532C236.733 26.4662 237.465 26.1359 240.954 26.1359C243.998 26.1359 245.086 26.5076 245.086 27.5474ZM289.799 76.4795C290.169 78.4509 290.969 79.773 291.789 79.773C292.543 79.773 293.16 80.4383 293.16 81.2513C293.16 82.0653 293.796 83.3658 294.574 84.1421C295.352 84.9184 295.988 87.0056 295.988 88.7794C295.988 90.9051 296.435 92.0061 297.297 92.0061C298.04 92.0061 298.867 93.3921 299.208 95.2083C299.539 96.9698 300.434 98.6505 301.198 98.9431C301.998 99.2499 302.587 100.683 302.587 102.328C302.587 104.236 303.055 105.18 304.001 105.18C305.069 105.18 305.414 106.33 305.414 109.885C305.414 113.213 305.788 114.59 306.69 114.59C307.599 114.59 308.142 116.673 308.579 121.829C308.93 125.98 309.693 129.378 310.367 129.793C311.281 130.358 311.603 144.537 311.821 193.835C311.973 228.659 311.848 258.528 311.542 260.21C311.062 262.845 310.599 263.268 308.2 263.268C306.547 263.268 305.414 262.772 305.414 262.048C305.414 261.377 304.16 259.789 302.626 258.519C301.093 257.25 299.821 255.682 299.798 255.035C299.777 254.388 298.91 253.858 297.873 253.858C296.809 253.858 295.988 253.231 295.988 252.418C295.988 251.624 295.352 250.732 294.574 250.435C293.796 250.137 293.16 249.303 293.16 248.582C293.16 247.861 292.312 247.271 291.275 247.271C290.228 247.271 289.39 246.644 289.39 245.86C289.39 245.083 288.753 244.448 287.976 244.448C287.188 244.448 286.562 243.611 286.562 242.557C286.562 241.517 285.713 239.941 284.676 239.055C282.819 237.467 282.791 236.279 282.791 158.255C282.791 114.702 283.056 77.7442 283.38 76.1266C283.87 73.6847 284.411 73.186 286.575 73.186C288.805 73.186 289.269 73.6593 289.799 76.4795ZM84.8374 97.1816C84.8374 97.9579 85.4736 98.5931 86.2513 98.5931C87.029 98.5931 87.6653 99.2414 87.6653 100.034C87.6653 100.827 88.3015 101.719 89.0792 102.016C89.8569 102.315 90.4932 103.148 90.4932 103.869C90.4932 104.59 91.3416 105.18 92.3784 105.18C93.4257 105.18 94.2637 105.808 94.2637 106.592C94.2637 107.368 94.9 108.003 95.6777 108.003C96.4629 108.003 97.0916 108.84 97.0916 109.885C97.0916 110.931 97.7204 111.767 98.5056 111.767C99.2833 111.767 99.9195 112.402 99.9195 113.179C99.9195 113.962 100.758 114.59 101.805 114.59C103.061 114.59 103.69 115.218 103.69 116.472C103.69 117.518 104.319 118.354 105.104 118.354C106.047 118.354 106.518 119.295 106.518 121.177V124H54.673C9.21713 124 2.82791 123.826 2.82791 122.589C2.82791 121.812 2.19165 121.177 1.41397 121.177C0.235687 121.177 0 119.295 0 109.885C0 100.475 0.235687 98.5931 1.41397 98.5931C2.19165 98.5931 2.82791 97.9579 2.82791 97.1816C2.82791 95.9488 8.01242 95.7701 43.8326 95.7701C79.6529 95.7701 84.8374 95.9488 84.8374 97.1816ZM142.574 190.519C143.481 190.756 144.223 191.554 144.223 192.291C144.223 193.03 145.072 193.634 146.109 193.634C147.156 193.634 147.994 194.262 147.994 195.046C147.994 195.822 148.581 196.457 149.298 196.457C150.015 196.457 150.824 197.304 151.095 198.339C151.366 199.374 152.264 200.221 153.09 200.221C153.917 200.221 154.592 200.856 154.592 201.633C154.592 202.409 155.229 203.044 156.006 203.044C156.784 203.044 157.42 203.679 157.42 204.456C157.42 205.232 158.057 205.867 158.834 205.867C159.62 205.867 160.248 206.704 160.248 207.749C160.248 209.004 160.877 209.631 162.134 209.631C163.181 209.631 164.019 210.259 164.019 211.043C164.019 211.819 164.655 212.454 165.433 212.454C166.421 212.454 166.847 213.448 166.847 215.748V219.041H89.5505H12.2543V216.218C12.2543 214.45 11.7698 213.395 10.9582 213.395C9.6658 213.395 8.48373 209.518 8.48373 205.279C8.48373 203.92 7.92947 203.044 7.06979 203.044C5.96124 203.044 5.65582 201.752 5.65582 197.059V191.074L10.6047 190.48C16.1719 189.813 140.006 189.849 142.574 190.519ZM192.298 239.273C192.298 240.049 192.934 240.684 193.712 240.684C194.497 240.684 195.126 241.521 195.126 242.566C195.126 243.612 195.755 244.448 196.54 244.448C197.318 244.448 197.954 245.083 197.954 245.86C197.954 246.644 198.792 247.271 199.839 247.271C200.886 247.271 201.724 247.899 201.724 248.683C201.724 249.459 202.361 250.094 203.138 250.094C203.924 250.094 204.552 250.931 204.552 251.976C204.552 253.231 205.181 253.858 206.438 253.858C207.485 253.858 208.323 254.486 208.323 255.27C208.323 256.046 208.959 256.681 209.737 256.681C210.522 256.681 211.151 257.518 211.151 258.563C211.151 259.609 211.779 260.445 212.565 260.445C213.491 260.445 213.979 261.371 213.979 263.13C213.979 265.796 213.927 265.819 206.767 266.424C197.481 267.207 54.8464 267.206 48.3102 266.423C45.0562 266.032 43.3613 265.39 43.3613 264.549C43.3613 263.844 42.725 263.268 41.9474 263.268C41.1697 263.268 40.5334 262.633 40.5334 261.857C40.5334 261.081 40.0027 260.438 39.3551 260.429C37.9185 260.41 33.9349 256.347 33.9349 254.902C33.9349 254.328 33.2987 253.858 32.521 253.858C31.5784 253.858 31.107 252.917 31.107 251.035C31.107 249.267 30.6225 248.212 29.8109 248.212C28.5186 248.212 27.3365 244.335 27.3365 240.096V237.861H109.817C182.505 237.861 192.298 238.029 192.298 239.273ZM237.309 285.576C238.476 285.8 239.43 286.589 239.43 287.33C239.43 288.069 240.066 288.675 240.844 288.675C241.621 288.675 242.258 289.311 242.258 290.087C242.258 290.863 242.788 291.506 243.436 291.514C244.873 291.534 248.856 295.596 248.856 297.042C248.856 297.616 249.493 298.085 250.27 298.085C251.048 298.085 251.684 298.672 251.684 299.387C251.684 300.103 252.533 300.91 253.569 301.181C254.606 301.451 255.455 302.348 255.455 303.172C255.455 303.998 256.091 304.672 256.869 304.672C257.646 304.672 258.283 305.308 258.283 306.084C258.283 306.86 258.919 307.495 259.697 307.495C260.684 307.495 261.111 308.489 261.111 310.789V314.082H198.472C146.836 314.082 135.701 313.859 135.08 312.81C134.581 311.969 131.466 311.342 125.898 310.961C119.747 310.541 117.252 309.995 116.661 308.94C116.103 307.944 114.399 307.495 111.184 307.495C107.665 307.495 106.518 307.148 106.518 306.084C106.518 305.037 105.415 304.672 102.247 304.672C99.4001 304.672 97.8015 304.221 97.4546 303.318C97.168 302.574 95.6975 301.693 94.1845 301.362C92.6725 301.03 91.4358 300.158 91.4358 299.423C91.4358 298.522 90.3584 298.085 88.1366 298.085C85.9497 298.085 84.8374 297.645 84.8374 296.778C84.8374 296.03 83.4281 295.208 81.5381 294.854C79.7235 294.514 78.2389 293.866 78.2389 293.412C78.2389 292.96 76.9663 292.31 75.411 291.969C73.0949 291.461 72.5831 290.875 72.5831 288.728C72.5831 286.325 72.9441 286.058 76.9569 285.51C81.7502 284.854 233.88 284.916 237.309 285.576Z" fill="url(#paint0_linear_195_2280)"/>
<path opacity="0.05" fill-rule="evenodd" clip-rule="evenodd" d="M141.916 349.515C141.576 351.326 140.892 352.808 140.398 352.808C139.903 352.808 139.497 353.444 139.497 354.22C139.497 354.996 139.922 355.631 140.44 355.631C141.06 355.631 141.383 379.47 141.383 425.265C141.383 467.054 141.036 494.9 140.515 494.9C140.038 494.9 139.376 496.134 139.043 497.644C138.711 499.154 137.829 500.622 137.083 500.908C136.338 501.194 135.727 502.076 135.727 502.869C135.727 503.682 134.906 504.31 133.842 504.31C132.805 504.31 131.956 504.9 131.956 505.62C131.956 506.341 131.32 507.175 130.542 507.473C129.765 507.771 129.128 508.663 129.128 509.456C129.128 510.248 128.492 510.897 127.714 510.897C126.937 510.897 126.3 511.532 126.3 512.308C126.3 513.092 125.462 513.72 124.415 513.72C123.368 513.72 122.53 514.347 122.53 515.131C122.53 515.907 121.894 516.543 121.116 516.543C120.331 516.543 119.702 517.379 119.702 518.425C119.702 519.47 119.073 520.307 118.288 520.307C117.51 520.307 116.874 520.942 116.874 521.718C116.874 522.494 116.404 523.13 115.829 523.13C114.381 523.13 110.311 527.106 110.292 528.54C110.283 529.188 109.639 529.717 108.862 529.717C108.084 529.717 107.448 530.352 107.448 531.128C107.448 531.904 106.977 532.54 106.402 532.54C104.954 532.54 100.885 536.516 100.865 537.95C100.857 538.598 100.213 539.127 99.4353 539.127C98.6576 539.127 98.0214 539.762 98.0214 540.538C98.0214 541.314 97.551 541.95 96.976 541.95C95.5281 541.95 91.4587 545.926 91.4389 547.36C91.4304 548.008 90.7866 548.537 90.0089 548.537C89.2313 548.537 88.595 549.123 88.595 549.838C88.595 550.554 87.7466 551.362 86.7097 551.633C85.6728 551.903 84.8244 552.799 84.8244 553.624C84.8244 554.449 84.1881 555.124 83.4105 555.124C82.6328 555.124 81.9965 555.759 81.9965 556.535C81.9965 557.312 81.3602 557.947 80.5826 557.947C79.8049 557.947 79.1686 558.533 79.1686 559.248C79.1686 559.964 78.3202 560.772 77.2833 561.043C76.2464 561.313 75.3981 562.209 75.3981 563.034C75.3981 563.859 74.7618 564.534 73.9841 564.534C73.2064 564.534 72.5701 565.169 72.5701 565.945C72.5701 566.722 71.9339 567.357 71.1562 567.357C70.3785 567.357 69.7422 567.943 69.7422 568.658C69.7422 569.374 68.8939 570.182 67.857 570.453C66.8201 570.723 65.9717 571.619 65.9717 572.444C65.9717 573.269 65.3354 573.944 64.5577 573.944C63.7801 573.944 63.1438 574.579 63.1438 575.355C63.1438 576.132 62.6734 576.767 62.0984 576.767C60.6505 576.767 56.5811 580.743 56.5613 582.177C56.5529 582.825 55.909 583.354 55.1314 583.354C54.3537 583.354 53.7174 583.989 53.7174 584.765C53.7174 585.542 53.1301 586.177 52.4137 586.177C51.6964 586.177 50.8876 587.024 50.6161 588.059C50.3456 589.094 49.4473 589.941 48.6215 589.941C47.7948 589.941 47.1189 590.576 47.1189 591.352C47.1189 592.129 46.4827 592.764 45.705 592.764C44.9273 592.764 44.291 593.399 44.291 594.175C44.291 594.952 43.6548 595.587 42.8771 595.587C42.0919 595.587 41.4631 596.423 41.4631 597.469C41.4631 598.723 40.8344 599.351 39.5778 599.351C38.5306 599.351 37.6926 599.978 37.6926 600.762C37.6926 601.539 37.0563 602.174 36.2786 602.174C35.5009 602.174 34.8647 602.809 34.8647 603.585C34.8647 604.362 34.2284 604.997 33.4507 604.997C32.6655 604.997 32.0367 605.833 32.0367 606.879C32.0367 608.133 31.408 608.761 30.1515 608.761C29.1042 608.761 28.2662 609.388 28.2662 610.172C28.2662 610.949 27.6299 611.584 26.8522 611.584C26.0746 611.584 25.4383 612.219 25.4383 612.995C25.4383 613.772 24.7624 614.407 23.9357 614.407C23.11 614.407 22.2116 615.254 21.9411 616.289C21.6696 617.324 20.8608 618.171 20.1435 618.171C19.4271 618.171 18.8398 618.806 18.8398 619.582C18.8398 620.359 18.2035 620.994 17.4259 620.994C16.6407 620.994 16.0119 621.83 16.0119 622.876C16.0119 624.13 15.3832 624.758 14.1266 624.758C13.0794 624.758 12.2414 625.385 12.2414 626.169C12.2414 626.946 11.6051 627.581 10.8274 627.581C10.0497 627.581 9.41346 628.216 9.41346 628.992C9.41346 629.769 8.77717 630.404 7.9995 630.404C7.21428 630.404 6.58554 631.24 6.58554 632.286C6.58554 633.733 5.95681 634.168 3.86792 634.168C0.446151 634.168 0.017254 635.604 0.000286518 647.107C-0.0100825 654.09 0.257616 655.811 1.3539 655.811C2.10613 655.811 3.13643 656.551 3.64357 657.458C4.39391 658.796 6.18021 659.166 13.1802 659.436C21.2803 659.747 21.8252 659.649 22.3125 657.789C22.5972 656.701 23.4173 655.811 24.1346 655.811C24.851 655.811 25.4383 655.176 25.4383 654.399C25.4383 653.616 26.2763 652.988 27.3236 652.988C28.3708 652.988 29.2088 652.36 29.2088 651.576C29.2088 650.8 29.8451 650.165 30.6228 650.165C31.408 650.165 32.0367 649.328 32.0367 648.283C32.0367 647.237 32.6655 646.401 33.4507 646.401C34.2284 646.401 34.8647 645.766 34.8647 644.989C34.8647 644.206 35.7027 643.578 36.7499 643.578C37.7868 643.578 38.6352 642.988 38.6352 642.267C38.6352 641.546 39.2715 640.712 40.0492 640.414C40.8268 640.117 41.4631 639.225 41.4631 638.432C41.4631 637.639 42.0994 636.991 42.8771 636.991C43.6548 636.991 44.291 636.356 44.291 635.579C44.291 634.803 44.9273 634.168 45.705 634.168C46.4827 634.168 47.1189 633.533 47.1189 632.756C47.1189 631.98 47.7948 631.345 48.6215 631.345C49.4473 631.345 50.3456 630.498 50.6161 629.463C50.8876 628.428 51.6964 627.581 52.4137 627.581C53.1301 627.581 53.7174 626.946 53.7174 626.169C53.7174 625.385 54.5554 624.758 55.6027 624.758C56.8592 624.758 57.488 624.13 57.488 622.876C57.488 621.83 58.1167 620.994 58.9019 620.994C59.6796 620.994 60.3159 620.359 60.3159 619.582C60.3159 618.806 60.9521 618.171 61.7298 618.171C62.5075 618.171 63.1438 617.536 63.1438 616.759C63.1438 615.983 63.731 615.348 64.4474 615.348C65.1648 615.348 65.9736 614.501 66.245 613.466C66.5156 612.431 67.4139 611.584 68.2397 611.584C69.0664 611.584 69.7422 610.949 69.7422 610.172C69.7422 609.396 70.3785 608.761 71.1562 608.761C71.9339 608.761 72.5701 608.126 72.5701 607.349C72.5701 606.573 73.246 605.938 74.0727 605.938C74.8985 605.938 75.7968 605.091 76.0673 604.056C76.3388 603.021 77.1476 602.174 77.8649 602.174C78.5814 602.174 79.1686 601.539 79.1686 600.762C79.1686 599.986 79.8049 599.351 80.5826 599.351C81.3602 599.351 81.9965 598.765 81.9965 598.049C81.9965 597.333 82.8449 596.526 83.8818 596.255C84.9187 595.985 85.7671 595.088 85.7671 594.264C85.7671 593.438 86.4034 592.764 87.181 592.764C87.9587 592.764 88.595 592.129 88.595 591.352C88.595 590.576 89.1822 589.941 89.8986 589.941C90.616 589.941 91.4248 589.094 91.6963 588.059C91.9668 587.024 92.8651 586.177 93.6909 586.177C94.5176 586.177 95.1934 585.542 95.1934 584.765C95.1934 583.989 95.8297 583.354 96.6074 583.354C97.3851 583.354 98.0214 582.719 98.0214 581.942C98.0214 581.166 98.6576 580.531 99.4353 580.531C100.213 580.531 100.849 579.945 100.849 579.229C100.849 578.513 101.698 577.706 102.735 577.435C103.771 577.165 104.62 576.268 104.62 575.444C104.62 574.618 105.256 573.944 106.034 573.944C106.811 573.944 107.448 573.309 107.448 572.532C107.448 571.756 108.084 571.121 108.862 571.121C109.639 571.121 110.276 570.534 110.276 569.819C110.276 569.103 111.124 568.296 112.161 568.025C113.198 567.755 114.046 566.858 114.046 566.034C114.046 565.208 114.682 564.534 115.46 564.534C116.238 564.534 116.874 563.899 116.874 563.122C116.874 562.346 117.51 561.711 118.288 561.711C119.066 561.711 119.702 561.036 119.702 560.211C119.702 559.386 120.55 558.49 121.587 558.22C122.624 557.949 123.473 557.141 123.473 556.425C123.473 555.71 124.109 555.124 124.887 555.124C125.664 555.124 126.3 554.537 126.3 553.822C126.3 553.106 127.149 552.299 128.186 552.028C129.223 551.758 130.071 550.861 130.071 550.037C130.071 549.211 130.707 548.537 131.485 548.537C132.263 548.537 132.899 547.902 132.899 547.125C132.899 546.349 133.535 545.714 134.313 545.714C135.091 545.714 135.734 545.185 135.743 544.537C135.763 543.103 139.832 539.127 141.28 539.127C141.855 539.127 142.325 538.491 142.325 537.715C142.325 536.939 142.962 536.304 143.739 536.304C144.517 536.304 145.153 535.655 145.153 534.863C145.153 534.07 145.789 533.178 146.567 532.88C147.345 532.582 147.981 531.748 147.981 531.027C147.981 530.307 148.829 529.717 149.866 529.717C150.914 529.717 151.752 529.089 151.752 528.305C151.752 527.529 152.388 526.894 153.166 526.894C153.951 526.894 154.58 526.057 154.58 525.012C154.58 523.966 155.208 523.13 155.994 523.13C156.771 523.13 157.408 522.494 157.408 521.718C157.408 520.934 158.245 520.307 159.293 520.307C160.34 520.307 161.178 519.679 161.178 518.895C161.178 517.652 170.028 517.484 235.175 517.484C308.543 517.484 309.172 517.468 309.172 515.602C309.172 514.556 309.801 513.72 310.586 513.72C311.764 513.72 312 511.838 312 502.428C312 493.018 311.764 491.136 310.586 491.136C309.808 491.136 309.172 490.5 309.172 489.724C309.172 488.482 300.846 488.313 239.888 488.313H170.604V418.678C170.604 357.409 170.435 349.044 169.19 349.044C168.413 349.044 167.777 348.409 167.777 347.633C167.777 346.448 165.746 346.221 155.156 346.221H142.536L141.916 349.515ZM189.457 399.858C189.457 446.908 189.631 453.496 190.871 453.496C191.649 453.496 192.285 452.86 192.285 452.084C192.285 451.3 193.123 450.673 194.17 450.673C195.207 450.673 196.056 450.071 196.056 449.335C196.056 448.6 197.301 447.726 198.822 447.392C200.9 446.937 201.74 446.098 202.196 444.024C202.531 442.506 203.406 441.262 204.143 441.262C204.88 441.262 205.482 440.627 205.482 439.851C205.482 439.075 206.118 438.439 206.896 438.439C207.681 438.439 208.31 437.603 208.31 436.557C208.31 435.303 208.939 434.675 210.195 434.675C211.242 434.675 212.08 434.048 212.08 433.264C212.08 432.488 212.717 431.852 213.494 431.852C214.272 431.852 214.908 431.217 214.908 430.441C214.908 429.665 215.545 429.029 216.322 429.029C217.557 429.029 217.736 423.958 217.736 389.037C217.736 354.115 217.557 349.044 216.322 349.044C215.545 349.044 214.908 348.409 214.908 347.633C214.908 346.448 212.866 346.221 202.183 346.221H189.457V399.858ZM236.589 348.103C236.589 349.149 235.96 349.985 235.175 349.985C234.397 349.985 233.761 350.62 233.761 351.397C233.761 352.173 234.397 352.808 235.175 352.808C235.953 352.808 236.589 353.444 236.589 354.22C236.589 354.996 235.953 355.631 235.175 355.631C234.39 355.631 233.761 356.468 233.761 357.513C233.761 358.559 234.39 359.395 235.175 359.395C236.403 359.395 236.589 363.525 236.589 390.919V422.442L272.174 422.429C291.745 422.423 308.712 422.161 309.879 421.85C311.94 421.298 312 420.936 312 409.158C312 399.01 311.77 397.035 310.586 397.035C309.801 397.035 309.172 396.199 309.172 395.153C309.172 393.326 308.543 393.271 287.602 393.271H266.03L265.462 391.154C265.15 389.989 264.888 380.039 264.881 369.041C264.87 351.899 264.666 349.044 263.454 349.044C262.677 349.044 262.04 348.409 262.04 347.633C262.04 346.448 259.998 346.221 249.315 346.221C237.218 346.221 236.589 346.314 236.589 348.103ZM284.192 349.044C283.851 350.597 282.969 351.867 282.232 351.867C281.194 351.867 280.893 353.454 280.893 358.925C280.893 364.571 281.176 365.982 282.307 365.982C283.349 365.982 283.721 367.068 283.721 370.107C283.721 375.215 284.137 375.362 298.567 375.379C308.548 375.391 309.172 375.281 309.172 373.51C309.172 372.465 309.801 371.628 310.586 371.628C311.764 371.628 312 369.746 312 360.336C312 350.926 311.764 349.044 310.586 349.044C309.808 349.044 309.172 348.409 309.172 347.633C309.172 346.451 307.191 346.221 296.992 346.221H284.813L284.192 349.044ZM110.511 352.548C108.653 352.778 107.448 353.46 107.448 354.279C107.448 355.275 106.203 355.631 102.735 355.631C99.1733 355.631 98.0214 355.977 98.0214 357.043C98.0214 357.819 97.4379 358.454 96.7252 358.454C96.0126 358.454 95.1642 359.777 94.84 361.395C94.084 365.167 94.0887 508.786 94.8447 511.602C95.2679 513.178 96.1097 513.72 98.1316 513.72C99.9189 513.72 100.849 513.237 100.849 512.308C100.849 511.532 101.525 510.897 102.352 510.897C103.178 510.897 104.076 510.05 104.346 509.015C104.618 507.98 105.427 507.133 106.144 507.133C106.86 507.133 107.448 506.497 107.448 505.721C107.448 504.945 108.084 504.31 108.862 504.31C109.639 504.31 110.276 503.674 110.276 502.898C110.276 502.122 110.951 501.487 111.778 501.487C112.604 501.487 113.502 500.64 113.773 499.605C114.044 498.569 114.853 497.723 115.57 497.723C116.287 497.723 116.874 497.087 116.874 496.311C116.874 495.535 117.51 494.9 118.288 494.9C119.066 494.9 119.702 494.285 119.702 493.535C119.702 492.784 120.445 491.756 121.352 491.248C122.896 490.387 123.017 485.927 123.255 421.682L123.508 353.037L121.37 352.465C119.15 351.871 115.764 351.897 110.511 352.548ZM66.9143 373.04C66.9143 373.816 66.2385 374.451 65.4118 374.451C64.586 374.451 63.6877 375.298 63.4171 376.333C63.1457 377.368 62.3369 378.215 61.6195 378.215C60.9031 378.215 60.3159 378.851 60.3159 379.627C60.3159 380.411 59.4779 381.038 58.4306 381.038C57.3937 381.038 56.5453 381.64 56.5453 382.376C56.5453 383.11 55.2728 383.991 53.7174 384.332C52.1621 384.673 50.8895 385.553 50.8895 386.288C50.8895 387.024 50.3022 387.625 49.5858 387.625C48.8685 387.625 48.0258 388.578 47.7128 389.743C46.97 392.509 46.97 555.886 47.7128 558.652C48.1361 560.228 48.9778 560.77 50.9998 560.77C52.787 560.77 53.7174 560.287 53.7174 559.358C53.7174 558.582 54.3537 557.947 55.1314 557.947C55.909 557.947 56.5453 557.312 56.5453 556.535C56.5453 555.751 57.3833 555.124 58.4306 555.124C59.6871 555.124 60.3159 554.496 60.3159 553.242C60.3159 552.196 60.9446 551.36 61.7298 551.36C62.5075 551.36 63.1438 550.725 63.1438 549.948C63.1438 549.172 63.7801 548.537 64.5577 548.537C65.3354 548.537 65.9717 547.862 65.9717 547.037C65.9717 546.212 66.8201 545.316 67.857 545.046C68.8939 544.775 69.7422 543.967 69.7422 543.251C69.7422 542.536 70.3446 541.95 71.0817 541.95C71.8179 541.95 72.7002 540.679 73.0415 539.127C73.3827 537.574 74.265 536.304 75.0012 536.304C76.1484 536.304 76.3388 524.775 76.3275 456.083C76.3209 411.962 76.0588 374.911 75.7468 373.746C75.267 371.959 74.5346 371.628 71.0459 371.628C68.0021 371.628 66.9143 372 66.9143 373.04ZM22.2013 421.972C21.8308 423.943 21.0315 425.265 20.2114 425.265C19.4573 425.265 18.8398 425.931 18.8398 426.744C18.8398 427.558 18.2035 428.858 17.4259 429.635C16.6482 430.411 16.0119 432.498 16.0119 434.272C16.0119 436.398 15.5651 437.498 14.7026 437.498C13.9598 437.498 13.1331 438.885 12.7919 440.701C12.461 442.462 11.5655 444.143 10.802 444.436C10.0017 444.742 9.41346 446.175 9.41346 447.82C9.41346 449.729 8.94496 450.673 7.9995 450.673C6.93149 450.673 6.58554 451.822 6.58554 455.378C6.58554 458.706 6.21226 460.083 5.31016 460.083C4.40146 460.083 3.85756 462.165 3.42111 467.322C3.06951 471.472 2.30691 474.87 1.63293 475.285C0.718571 475.85 0.397125 490.03 0.179375 539.327C0.0266683 574.152 0.152044 604.02 0.458401 605.703C0.938203 608.337 1.40104 608.761 3.80005 608.761C5.45343 608.761 6.58554 608.265 6.58554 607.54C6.58554 606.869 7.84019 605.281 9.37386 604.012C10.9066 602.742 12.1791 601.174 12.2018 600.527C12.2234 599.881 13.0897 599.351 14.1266 599.351C15.1909 599.351 16.0119 598.723 16.0119 597.91C16.0119 597.117 16.6482 596.225 17.4259 595.927C18.2035 595.629 18.8398 594.795 18.8398 594.075C18.8398 593.354 19.6882 592.764 20.7251 592.764C21.7724 592.764 22.6104 592.136 22.6104 591.352C22.6104 590.576 23.2467 589.941 24.0243 589.941C24.8124 589.941 25.4383 589.103 25.4383 588.049C25.4383 587.01 26.2867 585.433 27.3236 584.547C29.1815 582.959 29.2088 581.771 29.2088 503.748C29.2088 460.195 28.944 423.237 28.6197 421.619C28.1305 419.177 27.5894 418.678 25.4251 418.678C23.1948 418.678 22.731 419.152 22.2013 421.972ZM227.163 442.674C227.163 443.45 226.526 444.085 225.749 444.085C224.971 444.085 224.335 444.734 224.335 445.526C224.335 446.319 223.698 447.212 222.921 447.509C222.143 447.807 221.507 448.641 221.507 449.362C221.507 450.082 220.658 450.673 219.622 450.673C218.574 450.673 217.736 451.3 217.736 452.084C217.736 452.86 217.1 453.496 216.322 453.496C215.537 453.496 214.908 454.332 214.908 455.378C214.908 456.423 214.28 457.26 213.494 457.26C212.717 457.26 212.08 457.895 212.08 458.671C212.08 459.455 211.242 460.083 210.195 460.083C208.939 460.083 208.31 460.71 208.31 461.965C208.31 463.01 207.681 463.847 206.896 463.847C205.953 463.847 205.482 464.788 205.482 466.67V469.493H257.327C302.783 469.493 309.172 469.318 309.172 468.081C309.172 467.305 309.808 466.67 310.586 466.67C311.764 466.67 312 464.788 312 455.378C312 445.967 311.764 444.085 310.586 444.085C309.808 444.085 309.172 443.45 309.172 442.674C309.172 441.441 303.988 441.262 268.167 441.262C232.347 441.262 227.163 441.441 227.163 442.674ZM169.426 536.011C168.519 536.248 167.777 537.046 167.777 537.784C167.777 538.523 166.928 539.127 165.891 539.127C164.844 539.127 164.006 539.754 164.006 540.538C164.006 541.314 163.419 541.95 162.702 541.95C161.985 541.95 161.176 542.797 160.905 543.832C160.634 544.867 159.736 545.714 158.91 545.714C158.083 545.714 157.408 546.349 157.408 547.125C157.408 547.902 156.771 548.537 155.994 548.537C155.216 548.537 154.58 549.172 154.58 549.948C154.58 550.725 153.943 551.36 153.166 551.36C152.38 551.36 151.752 552.196 151.752 553.242C151.752 554.496 151.123 555.124 149.866 555.124C148.819 555.124 147.981 555.751 147.981 556.535C147.981 557.312 147.345 557.947 146.567 557.947C145.579 557.947 145.153 558.94 145.153 561.24V564.534H222.449H299.746V561.711C299.746 559.943 300.23 558.888 301.042 558.888C302.334 558.888 303.516 555.011 303.516 550.772C303.516 549.413 304.071 548.537 304.93 548.537C306.039 548.537 306.344 547.245 306.344 542.551V536.566L301.395 535.972C295.828 535.305 171.994 535.341 169.426 536.011ZM119.702 584.765C119.702 585.542 119.066 586.177 118.288 586.177C117.503 586.177 116.874 587.013 116.874 588.059C116.874 589.104 116.245 589.941 115.46 589.941C114.682 589.941 114.046 590.576 114.046 591.352C114.046 592.136 113.208 592.764 112.161 592.764C111.114 592.764 110.276 593.391 110.276 594.175C110.276 594.952 109.639 595.587 108.862 595.587C108.076 595.587 107.448 596.423 107.448 597.469C107.448 598.723 106.819 599.351 105.562 599.351C104.515 599.351 103.677 599.978 103.677 600.762C103.677 601.539 103.041 602.174 102.263 602.174C101.478 602.174 100.849 603.01 100.849 604.056C100.849 605.101 100.221 605.938 99.4353 605.938C98.5087 605.938 98.0214 606.864 98.0214 608.622C98.0214 611.288 98.0732 611.312 105.233 611.916C114.519 612.7 257.154 612.699 263.69 611.915C266.944 611.525 268.639 610.883 268.639 610.041C268.639 609.337 269.275 608.761 270.053 608.761C270.83 608.761 271.467 608.126 271.467 607.349C271.467 606.573 271.997 605.93 272.645 605.922C274.081 605.902 278.065 601.84 278.065 600.394C278.065 599.82 278.701 599.351 279.479 599.351C280.422 599.351 280.893 598.41 280.893 596.528C280.893 594.76 281.377 593.705 282.189 593.705C283.481 593.705 284.664 589.828 284.664 585.589V583.354H202.183C129.495 583.354 119.702 583.521 119.702 584.765ZM74.6911 631.068C73.5241 631.292 72.5701 632.082 72.5701 632.822C72.5701 633.562 71.9339 634.168 71.1562 634.168C70.3785 634.168 69.7422 634.803 69.7422 635.579C69.7422 636.356 69.2125 636.998 68.5639 637.007C67.1274 637.027 63.1438 641.089 63.1438 642.534C63.1438 643.108 62.5075 643.578 61.7298 643.578C60.9521 643.578 60.3159 644.164 60.3159 644.879C60.3159 645.595 59.4675 646.403 58.4306 646.674C57.3937 646.944 56.5453 647.841 56.5453 648.665C56.5453 649.49 55.909 650.165 55.1314 650.165C54.3537 650.165 53.7174 650.8 53.7174 651.576C53.7174 652.353 53.0811 652.988 52.3034 652.988C51.3156 652.988 50.8895 653.982 50.8895 656.281V659.575H113.528C165.164 659.575 176.299 659.351 176.92 658.303C177.419 657.461 180.534 656.835 186.102 656.454C192.253 656.033 194.748 655.487 195.339 654.432C195.897 653.437 197.601 652.988 200.816 652.988C204.335 652.988 205.482 652.641 205.482 651.576C205.482 650.529 206.585 650.165 209.753 650.165C212.6 650.165 214.199 649.713 214.545 648.811C214.832 648.066 216.303 647.186 217.815 646.854C219.327 646.522 220.564 645.65 220.564 644.915C220.564 644.014 221.642 643.578 223.863 643.578C226.05 643.578 227.163 643.137 227.163 642.271C227.163 641.523 228.572 640.7 230.462 640.346C232.276 640.007 233.761 639.358 233.761 638.905C233.761 638.452 235.034 637.802 236.589 637.461C238.905 636.953 239.417 636.367 239.417 634.221C239.417 631.817 239.056 631.551 235.043 631.002C230.25 630.346 78.1204 630.409 74.6911 631.068Z" fill="url(#paint1_linear_195_2280)"/>
<defs>
<linearGradient id="paint0_linear_195_2280" x1="321.371" y1="44.7942" x2="-123.061" y2="84.7445" gradientUnits="userSpaceOnUse">
<stop stop-color="#FE5E0A"/>
<stop offset="1" stop-color="#FE5E0A" stop-opacity="0.47"/>
</linearGradient>
<linearGradient id="paint1_linear_195_2280" x1="-9.37103" y1="390.287" x2="435.061" y2="430.237" gradientUnits="userSpaceOnUse">
<stop stop-color="#FE5E0A"/>
<stop offset="1" stop-color="#FE5E0A" stop-opacity="0.47"/>
</linearGradient>
</defs>
</svg>
