<svg width="854" height="656" viewBox="0 0 854 656" fill="none" xmlns="http://www.w3.org/2000/svg">
<path opacity="0.05" fill-rule="evenodd" clip-rule="evenodd" d="M2.9162 3.27928C2.57591 5.08288 1.89249 6.55856 1.3976 6.55856C0.90271 6.55856 0.497391 7.19099 0.497391 7.96396C0.497391 8.73694 0.92157 9.36937 1.44003 9.36937C2.06029 9.36937 2.38266 33.1048 2.38266 78.7027C2.38266 120.311 2.03578 148.036 1.51451 148.036C1.03754 148.036 0.375793 149.265 0.043045 150.768C-0.288757 152.272 -1.17108 153.734 -1.9167 154.018C-2.66234 154.303 -3.27316 155.181 -3.27316 155.971C-3.27316 156.78 -4.09419 157.405 -5.15843 157.405C-6.19533 157.405 -7.0437 157.993 -7.0437 158.711C-7.0437 159.428 -7.67999 160.258 -8.45766 160.555C-9.23534 160.851 -9.87161 161.74 -9.87161 162.53C-9.87161 163.318 -10.5079 163.964 -11.2856 163.964C-12.0632 163.964 -12.6995 164.596 -12.6995 165.369C-12.6995 166.15 -13.5375 166.775 -14.5848 166.775C-15.6321 166.775 -16.4701 167.4 -16.4701 168.18C-16.4701 168.953 -17.1064 169.586 -17.884 169.586C-18.6693 169.586 -19.298 170.419 -19.298 171.459C-19.298 172.5 -19.9267 173.333 -20.7119 173.333C-21.4896 173.333 -22.1259 173.966 -22.1259 174.739C-22.1259 175.512 -22.5963 176.144 -23.1713 176.144C-24.6192 176.144 -28.6885 180.104 -28.7083 181.532C-28.7168 182.176 -29.3606 182.703 -30.1383 182.703C-30.916 182.703 -31.5523 183.335 -31.5523 184.108C-31.5523 184.881 -32.0226 185.514 -32.5977 185.514C-34.0455 185.514 -38.1149 189.473 -38.1347 190.901C-38.1432 191.546 -38.787 192.072 -39.5647 192.072C-40.3424 192.072 -40.9786 192.704 -40.9786 193.477C-40.9786 194.25 -41.449 194.883 -42.024 194.883C-43.4719 194.883 -47.5413 198.842 -47.5611 200.27C-47.5696 200.915 -48.2134 201.441 -48.9911 201.441C-49.7687 201.441 -50.405 202.025 -50.405 202.737C-50.405 203.45 -51.2534 204.254 -52.2903 204.524C-53.3272 204.793 -54.1756 205.686 -54.1756 206.507C-54.1756 207.328 -54.8119 208 -55.5895 208C-56.3672 208 -57.0035 208.632 -57.0035 209.405C-57.0035 210.178 -57.6398 210.811 -58.4174 210.811C-59.1951 210.811 -59.8314 211.395 -59.8314 212.107C-59.8314 212.82 -60.6798 213.624 -61.7167 213.893C-62.7536 214.162 -63.6019 215.055 -63.6019 215.876C-63.6019 216.698 -64.2382 217.369 -65.0159 217.369C-65.7936 217.369 -66.4299 218.002 -66.4299 218.775C-66.4299 219.548 -67.0661 220.18 -67.8438 220.18C-68.6215 220.18 -69.2578 220.764 -69.2578 221.476C-69.2578 222.189 -70.1061 222.993 -71.143 223.263C-72.1799 223.532 -73.0283 224.424 -73.0283 225.245C-73.0283 226.067 -73.6646 226.739 -74.4423 226.739C-75.2199 226.739 -75.8562 227.371 -75.8562 228.144C-75.8562 228.917 -76.3266 229.55 -76.9016 229.55C-78.3495 229.55 -82.4189 233.509 -82.4387 234.937C-82.4471 235.582 -83.091 236.108 -83.8686 236.108C-84.6463 236.108 -85.2826 236.741 -85.2826 237.514C-85.2826 238.286 -85.8699 238.919 -86.5863 238.919C-87.3036 238.919 -88.1124 239.762 -88.3839 240.793C-88.6544 241.823 -89.5527 242.667 -90.3785 242.667C-91.2052 242.667 -91.8811 243.299 -91.8811 244.072C-91.8811 244.845 -92.5173 245.477 -93.295 245.477C-94.0727 245.477 -94.709 246.11 -94.709 246.883C-94.709 247.656 -95.3452 248.288 -96.1229 248.288C-96.9081 248.288 -97.5369 249.121 -97.5369 250.162C-97.5369 251.411 -98.1656 252.036 -99.4222 252.036C-100.469 252.036 -101.307 252.661 -101.307 253.441C-101.307 254.214 -101.944 254.847 -102.721 254.847C-103.499 254.847 -104.135 255.479 -104.135 256.252C-104.135 257.025 -104.772 257.658 -105.549 257.658C-106.335 257.658 -106.963 258.491 -106.963 259.532C-106.963 260.78 -107.592 261.405 -108.849 261.405C-109.896 261.405 -110.734 262.03 -110.734 262.811C-110.734 263.584 -111.37 264.216 -112.148 264.216C-112.925 264.216 -113.562 264.849 -113.562 265.622C-113.562 266.395 -114.238 267.027 -115.064 267.027C-115.89 267.027 -116.788 267.87 -117.059 268.901C-117.33 269.932 -118.139 270.775 -118.857 270.775C-119.573 270.775 -120.16 271.407 -120.16 272.18C-120.16 272.953 -120.796 273.586 -121.574 273.586C-122.359 273.586 -122.988 274.419 -122.988 275.459C-122.988 276.708 -123.617 277.333 -124.873 277.333C-125.921 277.333 -126.759 277.958 -126.759 278.739C-126.759 279.512 -127.395 280.144 -128.173 280.144C-128.95 280.144 -129.587 280.777 -129.587 281.55C-129.587 282.323 -130.223 282.955 -131.001 282.955C-131.786 282.955 -132.414 283.788 -132.414 284.829C-132.414 286.27 -133.043 286.703 -135.132 286.703C-138.554 286.703 -138.983 288.132 -139 299.586C-139.01 306.539 -138.742 308.252 -137.646 308.252C-136.894 308.252 -135.864 308.99 -135.356 309.892C-134.606 311.224 -132.82 311.593 -125.82 311.861C-117.72 312.171 -117.175 312.074 -116.687 310.222C-116.403 309.139 -115.583 308.252 -114.865 308.252C-114.149 308.252 -113.562 307.62 -113.562 306.847C-113.562 306.066 -112.724 305.441 -111.676 305.441C-110.629 305.441 -109.791 304.816 -109.791 304.036C-109.791 303.263 -109.155 302.631 -108.377 302.631C-107.592 302.631 -106.963 301.798 -106.963 300.757C-106.963 299.716 -106.335 298.883 -105.549 298.883C-104.772 298.883 -104.135 298.25 -104.135 297.477C-104.135 296.697 -103.297 296.072 -102.25 296.072C-101.213 296.072 -100.365 295.485 -100.365 294.767C-100.365 294.049 -99.7285 293.219 -98.9508 292.922C-98.1732 292.626 -97.5369 291.738 -97.5369 290.948C-97.5369 290.159 -96.9006 289.514 -96.1229 289.514C-95.3452 289.514 -94.709 288.881 -94.709 288.108C-94.709 287.335 -94.0727 286.703 -93.295 286.703C-92.5173 286.703 -91.8811 286.07 -91.8811 285.297C-91.8811 284.524 -91.2052 283.892 -90.3785 283.892C-89.5527 283.892 -88.6544 283.049 -88.3839 282.018C-88.1124 280.987 -87.3036 280.144 -86.5863 280.144C-85.8699 280.144 -85.2826 279.512 -85.2826 278.739C-85.2826 277.958 -84.4446 277.333 -83.3973 277.333C-82.1408 277.333 -81.512 276.708 -81.512 275.459C-81.512 274.419 -80.8833 273.586 -80.0981 273.586C-79.3204 273.586 -78.6841 272.953 -78.6841 272.18C-78.6841 271.407 -78.0479 270.775 -77.2702 270.775C-76.4925 270.775 -75.8562 270.142 -75.8562 269.369C-75.8562 268.596 -75.269 267.964 -74.5526 267.964C-73.8352 267.964 -73.0264 267.121 -72.755 266.09C-72.4844 265.059 -71.5861 264.216 -70.7603 264.216C-69.9336 264.216 -69.2578 263.584 -69.2578 262.811C-69.2578 262.038 -68.6215 261.405 -67.8438 261.405C-67.0661 261.405 -66.4299 260.773 -66.4299 260C-66.4299 259.227 -65.754 258.595 -64.9273 258.595C-64.1015 258.595 -63.2032 257.751 -62.9327 256.721C-62.6612 255.69 -61.8524 254.847 -61.1351 254.847C-60.4186 254.847 -59.8314 254.214 -59.8314 253.441C-59.8314 252.668 -59.1951 252.036 -58.4174 252.036C-57.6398 252.036 -57.0035 251.452 -57.0035 250.74C-57.0035 250.027 -56.1551 249.223 -55.1182 248.954C-54.0813 248.685 -53.2329 247.792 -53.2329 246.971C-53.2329 246.149 -52.5966 245.477 -51.819 245.477C-51.0413 245.477 -50.405 244.845 -50.405 244.072C-50.405 243.299 -49.8178 242.667 -49.1014 242.667C-48.384 242.667 -47.5752 241.823 -47.3037 240.793C-47.0332 239.762 -46.1349 238.919 -45.3091 238.919C-44.4824 238.919 -43.8066 238.286 -43.8066 237.514C-43.8066 236.741 -43.1703 236.108 -42.3926 236.108C-41.6149 236.108 -40.9786 235.476 -40.9786 234.703C-40.9786 233.93 -40.3424 233.297 -39.5647 233.297C-38.787 233.297 -38.1507 232.714 -38.1507 232.002C-38.1507 231.288 -37.3024 230.485 -36.2655 230.215C-35.2286 229.946 -34.3802 229.053 -34.3802 228.232C-34.3802 227.411 -33.7439 226.739 -32.9662 226.739C-32.1886 226.739 -31.5523 226.106 -31.5523 225.333C-31.5523 224.56 -30.916 223.928 -30.1383 223.928C-29.3606 223.928 -28.7244 223.344 -28.7244 222.632C-28.7244 221.919 -27.876 221.115 -26.8391 220.845C-25.8022 220.576 -24.9538 219.684 -24.9538 218.863C-24.9538 218.041 -24.3175 217.369 -23.5399 217.369C-22.7622 217.369 -22.1259 216.737 -22.1259 215.964C-22.1259 215.191 -21.4896 214.559 -20.7119 214.559C-19.9343 214.559 -19.298 213.887 -19.298 213.065C-19.298 212.244 -18.4496 211.351 -17.4127 211.083C-16.3758 210.813 -15.5274 210.009 -15.5274 209.296C-15.5274 208.584 -14.8912 208 -14.1135 208C-13.3358 208 -12.6995 207.416 -12.6995 206.704C-12.6995 205.991 -11.8512 205.187 -10.8143 204.917C-9.77736 204.649 -8.92899 203.756 -8.92899 202.935C-8.92899 202.113 -8.29271 201.441 -7.51503 201.441C-6.73735 201.441 -6.10107 200.809 -6.10107 200.036C-6.10107 199.263 -5.46478 198.631 -4.68712 198.631C-3.90944 198.631 -3.26562 198.104 -3.25714 197.459C-3.23734 196.032 0.832016 192.072 2.27991 192.072C2.85492 192.072 3.3253 191.44 3.3253 190.667C3.3253 189.894 3.96158 189.261 4.73926 189.261C5.51694 189.261 6.15321 188.616 6.15321 187.827C6.15321 187.037 6.78949 186.149 7.56717 185.853C8.34485 185.556 8.98112 184.726 8.98112 184.008C8.98112 183.29 9.8295 182.703 10.8664 182.703C11.9137 182.703 12.7517 182.078 12.7517 181.297C12.7517 180.524 13.388 179.892 14.1656 179.892C14.9509 179.892 15.5796 179.059 15.5796 178.018C15.5796 176.977 16.2083 176.144 16.9935 176.144C17.7712 176.144 18.4075 175.512 18.4075 174.739C18.4075 173.958 19.2455 173.333 20.2928 173.333C21.34 173.333 22.178 172.708 22.178 171.928C22.178 170.69 31.0285 170.523 96.1751 170.523C169.543 170.523 170.172 170.507 170.172 168.649C170.172 167.608 170.801 166.775 171.586 166.775C172.764 166.775 173 164.901 173 155.532C173 146.162 172.764 144.288 171.586 144.288C170.808 144.288 170.172 143.656 170.172 142.883C170.172 141.646 161.846 141.477 100.888 141.477H31.6044V72.1441C31.6044 11.1392 31.4347 2.81081 30.1905 2.81081C29.4128 2.81081 28.7765 2.17838 28.7765 1.40541C28.7765 0.225802 26.7461 0 16.1555 0H3.53551L2.9162 3.27928ZM50.4572 53.4054C50.4572 100.252 50.6306 106.811 51.8711 106.811C52.6488 106.811 53.2851 106.178 53.2851 105.405C53.2851 104.625 54.1231 104 55.1703 104C56.2072 104 57.0556 103.401 57.0556 102.669C57.0556 101.937 58.3008 101.066 59.8223 100.734C61.8998 100.28 62.7397 99.4455 63.196 97.3805C63.5306 95.8683 64.4063 94.6306 65.1425 94.6306C65.8797 94.6306 66.482 93.9982 66.482 93.2252C66.482 92.4522 67.1183 91.8198 67.896 91.8198C68.6812 91.8198 69.3099 90.9869 69.3099 89.9459C69.3099 88.697 69.9386 88.0721 71.1952 88.0721C72.2424 88.0721 73.0805 87.4471 73.0805 86.6667C73.0805 85.8937 73.7167 85.2613 74.4944 85.2613C75.2721 85.2613 75.9084 84.6288 75.9084 83.8559C75.9084 83.0829 76.5446 82.4504 77.3223 82.4504C78.5572 82.4504 78.7363 77.4013 78.7363 42.6306C78.7363 7.85996 78.5572 2.81081 77.3223 2.81081C76.5446 2.81081 75.9084 2.17838 75.9084 1.40541C75.9084 0.225802 73.8657 0 63.1828 0H50.4572V53.4054ZM97.589 1.87387C97.589 2.91481 96.9603 3.74775 96.1751 3.74775C95.3974 3.74775 94.7611 4.38018 94.7611 5.15315C94.7611 5.92613 95.3974 6.55856 96.1751 6.55856C96.9527 6.55856 97.589 7.19099 97.589 7.96396C97.589 8.73694 96.9527 9.36937 96.1751 9.36937C95.3898 9.36937 94.7611 10.2023 94.7611 11.2432C94.7611 12.2842 95.3898 13.1171 96.1751 13.1171C97.4033 13.1171 97.589 17.2293 97.589 44.5045V75.8919L133.174 75.8788C152.745 75.8722 169.712 75.6117 170.879 75.3016C172.94 74.7526 173 74.3919 173 62.6651C173 52.5603 172.77 50.5946 171.586 50.5946C170.801 50.5946 170.172 49.7617 170.172 48.7207C170.172 46.9012 169.543 46.8468 148.602 46.8468H127.03L126.462 44.7387C126.15 43.5788 125.888 33.6716 125.881 22.7207C125.87 5.65348 125.666 2.81081 124.454 2.81081C123.677 2.81081 123.04 2.17838 123.04 1.40541C123.04 0.225802 120.998 0 110.315 0C98.2178 0 97.589 0.0927567 97.589 1.87387ZM145.192 2.81081C144.851 4.35676 143.969 5.62162 143.232 5.62162C142.194 5.62162 141.893 7.2013 141.893 12.6486C141.893 18.2703 142.176 19.6757 143.307 19.6757C144.349 19.6757 144.721 20.7569 144.721 23.7823C144.721 28.868 145.137 29.0151 159.567 29.0319C169.548 29.0441 170.172 28.9345 170.172 27.1712C170.172 26.1302 170.801 25.2973 171.586 25.2973C172.764 25.2973 173 23.4234 173 14.0541C173 4.68468 172.764 2.81081 171.586 2.81081C170.808 2.81081 170.172 2.17838 170.172 1.40541C170.172 0.228613 168.191 0 157.992 0H145.813L145.192 2.81081ZM-28.4887 6.29903C-30.3466 6.52858 -31.5523 7.20692 -31.5523 8.02299C-31.5523 9.01427 -32.7966 9.36937 -36.2655 9.36937C-39.8267 9.36937 -40.9786 9.71323 -40.9786 10.7748C-40.9786 11.5477 -41.5621 12.1802 -42.2748 12.1802C-42.9874 12.1802 -43.8358 13.4975 -44.16 15.1081C-44.916 18.8643 -44.9113 161.862 -44.1553 164.667C-43.7321 166.235 -42.8903 166.775 -40.8684 166.775C-39.0811 166.775 -38.1507 166.294 -38.1507 165.369C-38.1507 164.596 -37.4749 163.964 -36.6482 163.964C-35.8224 163.964 -34.9241 163.121 -34.6535 162.09C-34.3821 161.059 -33.5733 160.216 -32.8559 160.216C-32.1395 160.216 -31.5523 159.584 -31.5523 158.811C-31.5523 158.038 -30.916 157.405 -30.1383 157.405C-29.3606 157.405 -28.7244 156.773 -28.7244 156C-28.7244 155.227 -28.0485 154.595 -27.2218 154.595C-26.3961 154.595 -25.4977 153.751 -25.2272 152.721C-24.9557 151.69 -24.1469 150.847 -23.4296 150.847C-22.7132 150.847 -22.1259 150.214 -22.1259 149.441C-22.1259 148.668 -21.4896 148.036 -20.7119 148.036C-19.9343 148.036 -19.298 147.424 -19.298 146.677C-19.298 145.93 -18.5552 144.906 -17.6484 144.401C-16.1043 143.542 -15.9827 139.102 -15.7452 75.1348L-15.4916 6.78623L-17.6305 6.21658C-19.8504 5.62537 -23.2363 5.6516 -28.4887 6.29903ZM-72.0857 26.7027C-72.0857 27.4757 -72.7615 28.1081 -73.5882 28.1081C-74.414 28.1081 -75.3123 28.9514 -75.5829 29.982C-75.8543 31.0126 -76.6631 31.8559 -77.3805 31.8559C-78.0969 31.8559 -78.6841 32.4883 -78.6841 33.2613C-78.6841 34.0417 -79.5221 34.6667 -80.5694 34.6667C-81.6063 34.6667 -82.4547 35.2654 -82.4547 35.9981C-82.4547 36.7298 -83.7272 37.6068 -85.2826 37.9459C-86.8379 38.2851 -88.1105 39.1621 -88.1105 39.8938C-88.1105 40.6265 -88.6978 41.2252 -89.4142 41.2252C-90.1315 41.2252 -90.9742 42.1734 -91.2872 43.3333C-92.03 46.0879 -92.03 208.759 -91.2872 211.514C-90.8639 213.082 -90.0222 213.622 -88.0002 213.622C-86.213 213.622 -85.2826 213.141 -85.2826 212.216C-85.2826 211.443 -84.6463 210.811 -83.8686 210.811C-83.091 210.811 -82.4547 210.178 -82.4547 209.405C-82.4547 208.625 -81.6167 208 -80.5694 208C-79.3129 208 -78.6841 207.375 -78.6841 206.126C-78.6841 205.085 -78.0554 204.252 -77.2702 204.252C-76.4925 204.252 -75.8562 203.62 -75.8562 202.847C-75.8562 202.074 -75.2199 201.441 -74.4423 201.441C-73.6646 201.441 -73.0283 200.77 -73.0283 199.948C-73.0283 199.127 -72.1799 198.234 -71.143 197.965C-70.1061 197.696 -69.2578 196.892 -69.2578 196.179C-69.2578 195.467 -68.6554 194.883 -67.9183 194.883C-67.1821 194.883 -66.2998 193.618 -65.9585 192.072C-65.6173 190.526 -64.735 189.261 -63.9988 189.261C-62.8516 189.261 -62.6612 177.782 -62.6725 109.387C-62.6791 65.4563 -62.9412 28.5653 -63.2532 27.4054C-63.733 25.6262 -64.4654 25.2973 -67.9541 25.2973C-70.9979 25.2973 -72.0857 25.6674 -72.0857 26.7027ZM-116.799 75.4234C-117.169 77.3863 -117.969 78.7027 -118.789 78.7027C-119.543 78.7027 -120.16 79.3651 -120.16 80.1746C-120.16 80.9851 -120.796 82.2799 -121.574 83.0529C-122.352 83.8259 -122.988 85.904 -122.988 87.6701C-122.988 89.7867 -123.435 90.8829 -124.297 90.8829C-125.04 90.8829 -125.867 92.263 -126.208 94.0713C-126.539 95.8252 -127.434 97.4986 -128.198 97.79C-128.998 98.0954 -129.587 99.5224 -129.587 101.16C-129.587 103.06 -130.055 104 -131.001 104C-132.069 104 -132.414 105.145 -132.414 108.685C-132.414 111.999 -132.788 113.369 -133.69 113.369C-134.599 113.369 -135.142 115.443 -135.579 120.577C-135.93 124.71 -136.693 128.093 -137.367 128.507C-138.281 129.069 -138.603 143.187 -138.821 192.272C-138.973 226.946 -138.848 256.685 -138.542 258.36C-138.062 260.984 -137.599 261.405 -135.2 261.405C-133.547 261.405 -132.414 260.912 -132.414 260.19C-132.414 259.522 -131.16 257.941 -129.626 256.677C-128.093 255.413 -126.821 253.852 -126.798 253.207C-126.777 252.564 -125.91 252.036 -124.873 252.036C-123.809 252.036 -122.988 251.411 -122.988 250.602C-122.988 249.812 -122.352 248.924 -121.574 248.627C-120.796 248.33 -120.16 247.5 -120.16 246.783C-120.16 246.065 -119.312 245.477 -118.275 245.477C-117.228 245.477 -116.39 244.853 -116.39 244.072C-116.39 243.299 -115.753 242.667 -114.976 242.667C-114.188 242.667 -113.562 241.833 -113.562 240.783C-113.562 239.748 -112.713 238.179 -111.676 237.296C-109.819 235.716 -109.791 234.532 -109.791 156.846C-109.791 113.481 -110.056 76.6827 -110.38 75.0721C-110.87 72.6407 -111.411 72.1441 -113.575 72.1441C-115.805 72.1441 -116.269 72.6154 -116.799 75.4234ZM88.1626 96.036C88.1626 96.809 87.5264 97.4414 86.7487 97.4414C85.971 97.4414 85.3347 98.087 85.3347 98.8759C85.3347 99.6657 84.6985 100.554 83.9208 100.85C83.1431 101.147 82.5068 101.977 82.5068 102.695C82.5068 103.413 81.6584 104 80.6216 104C79.5743 104 78.7363 104.625 78.7363 105.405C78.7363 106.178 78.1 106.811 77.3223 106.811C76.5371 106.811 75.9084 107.644 75.9084 108.685C75.9084 109.726 75.2796 110.559 74.4944 110.559C73.7167 110.559 73.0805 111.191 73.0805 111.964C73.0805 112.744 72.2424 113.369 71.1952 113.369C69.9386 113.369 69.3099 113.994 69.3099 115.243C69.3099 116.284 68.6812 117.117 67.896 117.117C66.9533 117.117 66.482 118.054 66.482 119.928V122.739H118.327C163.783 122.739 170.172 122.565 170.172 121.333C170.172 120.56 170.808 119.928 171.586 119.928C172.764 119.928 173 118.054 173 108.685C173 99.3153 172.764 97.4414 171.586 97.4414C170.808 97.4414 170.172 96.809 170.172 96.036C170.172 94.8086 164.988 94.6306 129.167 94.6306C93.3472 94.6306 88.1626 94.8086 88.1626 96.036ZM30.4261 188.97C29.5193 189.206 28.7765 190.001 28.7765 190.735C28.7765 191.471 27.9281 192.072 26.8912 192.072C25.844 192.072 25.006 192.697 25.006 193.477C25.006 194.25 24.4187 194.883 23.7023 194.883C22.985 194.883 22.1761 195.726 21.9047 196.757C21.6341 197.787 20.7358 198.631 19.91 198.631C19.0834 198.631 18.4075 199.263 18.4075 200.036C18.4075 200.809 17.7712 201.441 16.9935 201.441C16.2159 201.441 15.5796 202.074 15.5796 202.847C15.5796 203.62 14.9433 204.252 14.1656 204.252C13.3804 204.252 12.7517 205.085 12.7517 206.126C12.7517 207.375 12.1229 208 10.8664 208C9.81912 208 8.98112 208.625 8.98112 209.405C8.98112 210.178 8.34485 210.811 7.56717 210.811C6.57928 210.811 6.15321 211.8 6.15321 214.09V217.369H83.4495H160.746V214.559C160.746 212.798 161.23 211.748 162.042 211.748C163.334 211.748 164.516 207.888 164.516 203.667C164.516 202.314 165.071 201.441 165.93 201.441C167.039 201.441 167.344 200.155 167.344 195.482V189.523L162.395 188.931C156.828 188.267 32.9939 188.303 30.4261 188.97ZM-19.298 237.514C-19.298 238.286 -19.9343 238.919 -20.7119 238.919C-21.4972 238.919 -22.1259 239.752 -22.1259 240.793C-22.1259 241.834 -22.7546 242.667 -23.5399 242.667C-24.3175 242.667 -24.9538 243.299 -24.9538 244.072C-24.9538 244.853 -25.7918 245.477 -26.8391 245.477C-27.8864 245.477 -28.7244 246.102 -28.7244 246.883C-28.7244 247.656 -29.3606 248.288 -30.1383 248.288C-30.9235 248.288 -31.5523 249.121 -31.5523 250.162C-31.5523 251.411 -32.181 252.036 -33.4375 252.036C-34.4848 252.036 -35.3228 252.661 -35.3228 253.441C-35.3228 254.214 -35.9591 254.847 -36.7368 254.847C-37.522 254.847 -38.1507 255.68 -38.1507 256.721C-38.1507 257.762 -38.7795 258.595 -39.5647 258.595C-40.4913 258.595 -40.9786 259.517 -40.9786 261.268C-40.9786 263.922 -40.9268 263.945 -33.7665 264.547C-24.4806 265.327 118.154 265.326 124.69 264.546C127.944 264.157 129.639 263.518 129.639 262.681C129.639 261.979 130.275 261.405 131.053 261.405C131.83 261.405 132.467 260.773 132.467 260C132.467 259.227 132.997 258.587 133.645 258.579C135.081 258.559 139.065 254.514 139.065 253.075C139.065 252.504 139.701 252.036 140.479 252.036C141.422 252.036 141.893 251.099 141.893 249.225C141.893 247.465 142.377 246.414 143.189 246.414C144.481 246.414 145.664 242.554 145.664 238.333V236.108H63.1828C-9.50493 236.108 -19.298 236.275 -19.298 237.514ZM-64.3089 283.616C-65.4759 283.839 -66.4299 284.626 -66.4299 285.363C-66.4299 286.099 -67.0661 286.703 -67.8438 286.703C-68.6215 286.703 -69.2578 287.335 -69.2578 288.108C-69.2578 288.881 -69.7875 289.521 -70.4361 289.529C-71.8726 289.549 -75.8562 293.594 -75.8562 295.033C-75.8562 295.605 -76.4925 296.072 -77.2702 296.072C-78.0479 296.072 -78.6841 296.656 -78.6841 297.368C-78.6841 298.081 -79.5325 298.885 -80.5694 299.155C-81.6063 299.423 -82.4547 300.316 -82.4547 301.137C-82.4547 301.959 -83.091 302.631 -83.8686 302.631C-84.6463 302.631 -85.2826 303.263 -85.2826 304.036C-85.2826 304.809 -85.9189 305.441 -86.6966 305.441C-87.6844 305.441 -88.1105 306.431 -88.1105 308.721V312H-25.4723C26.1645 312 37.2989 311.777 37.9201 310.733C38.4187 309.896 41.5342 309.272 47.1023 308.892C53.253 308.473 55.7482 307.93 56.3392 306.88C56.8972 305.888 58.6006 305.441 61.8159 305.441C65.3348 305.441 66.482 305.096 66.482 304.036C66.482 302.993 67.5849 302.631 70.7531 302.631C73.5999 302.631 75.1985 302.181 75.5454 301.282C75.832 300.541 77.3025 299.664 78.8155 299.334C80.3275 299.004 81.5642 298.135 81.5642 297.403C81.5642 296.507 82.6416 296.072 84.8634 296.072C87.0503 296.072 88.1626 295.634 88.1626 294.771C88.1626 294.026 89.5719 293.207 91.4619 292.855C93.2765 292.516 94.7611 291.871 94.7611 291.419C94.7611 290.969 96.0337 290.321 97.589 289.982C99.9051 289.476 100.417 288.892 100.417 286.755C100.417 284.362 100.056 284.097 96.0431 283.551C91.2498 282.898 -60.8796 282.96 -64.3089 283.616Z" fill="url(#paint0_linear_644_2161)"/>
<path opacity="0.05" fill-rule="evenodd" clip-rule="evenodd" d="M31.0838 347.279C31.4241 349.083 32.1075 350.559 32.6024 350.559C33.0973 350.559 33.5026 351.191 33.5026 351.964C33.5026 352.737 33.0784 353.369 32.56 353.369C31.9397 353.369 31.6173 377.105 31.6173 422.703C31.6173 464.311 31.9642 492.036 32.4855 492.036C32.9625 492.036 33.6242 493.265 33.957 494.768C34.2888 496.272 35.1711 497.734 35.9167 498.018C36.6623 498.303 37.2732 499.181 37.2732 499.971C37.2732 500.78 38.0942 501.405 39.1584 501.405C40.1953 501.405 41.0437 501.993 41.0437 502.711C41.0437 503.428 41.68 504.258 42.4577 504.555C43.2353 504.851 43.8716 505.74 43.8716 506.53C43.8716 507.318 44.5079 507.964 45.2856 507.964C46.0632 507.964 46.6995 508.596 46.6995 509.369C46.6995 510.15 47.5375 510.775 48.5848 510.775C49.6321 510.775 50.4701 511.4 50.4701 512.18C50.4701 512.953 51.1064 513.586 51.884 513.586C52.6693 513.586 53.298 514.419 53.298 515.459C53.298 516.5 53.9267 517.333 54.7119 517.333C55.4896 517.333 56.1259 517.966 56.1259 518.739C56.1259 519.512 56.5963 520.144 57.1713 520.144C58.6192 520.144 62.6885 524.104 62.7083 525.532C62.7168 526.176 63.3606 526.703 64.1383 526.703C64.916 526.703 65.5523 527.335 65.5523 528.108C65.5523 528.881 66.0226 529.514 66.5977 529.514C68.0455 529.514 72.1149 533.473 72.1347 534.901C72.1432 535.546 72.787 536.072 73.5647 536.072C74.3424 536.072 74.9786 536.704 74.9786 537.477C74.9786 538.25 75.449 538.883 76.024 538.883C77.4719 538.883 81.5413 542.842 81.5611 544.27C81.5696 544.915 82.2134 545.441 82.9911 545.441C83.7687 545.441 84.405 546.025 84.405 546.737C84.405 547.45 85.2534 548.254 86.2903 548.524C87.3272 548.793 88.1756 549.686 88.1756 550.507C88.1756 551.328 88.8119 552 89.5895 552C90.3672 552 91.0035 552.632 91.0035 553.405C91.0035 554.178 91.6398 554.811 92.4174 554.811C93.1951 554.811 93.8314 555.395 93.8314 556.107C93.8314 556.82 94.6798 557.624 95.7167 557.893C96.7536 558.162 97.6019 559.055 97.6019 559.876C97.6019 560.698 98.2382 561.369 99.0159 561.369C99.7936 561.369 100.43 562.002 100.43 562.775C100.43 563.548 101.066 564.18 101.844 564.18C102.621 564.18 103.258 564.764 103.258 565.476C103.258 566.189 104.106 566.993 105.143 567.263C106.18 567.532 107.028 568.424 107.028 569.245C107.028 570.067 107.665 570.739 108.442 570.739C109.22 570.739 109.856 571.371 109.856 572.144C109.856 572.917 110.327 573.55 110.902 573.55C112.349 573.55 116.419 577.509 116.439 578.937C116.447 579.582 117.091 580.108 117.869 580.108C118.646 580.108 119.283 580.741 119.283 581.514C119.283 582.286 119.87 582.919 120.586 582.919C121.304 582.919 122.112 583.762 122.384 584.793C122.654 585.823 123.553 586.667 124.378 586.667C125.205 586.667 125.881 587.299 125.881 588.072C125.881 588.845 126.517 589.477 127.295 589.477C128.073 589.477 128.709 590.11 128.709 590.883C128.709 591.656 129.345 592.288 130.123 592.288C130.908 592.288 131.537 593.121 131.537 594.162C131.537 595.411 132.166 596.036 133.422 596.036C134.469 596.036 135.307 596.661 135.307 597.441C135.307 598.214 135.944 598.847 136.721 598.847C137.499 598.847 138.135 599.479 138.135 600.252C138.135 601.025 138.772 601.658 139.549 601.658C140.335 601.658 140.963 602.491 140.963 603.532C140.963 604.78 141.592 605.405 142.849 605.405C143.896 605.405 144.734 606.03 144.734 606.811C144.734 607.584 145.37 608.216 146.148 608.216C146.925 608.216 147.562 608.849 147.562 609.622C147.562 610.395 148.238 611.027 149.064 611.027C149.89 611.027 150.788 611.87 151.059 612.901C151.33 613.932 152.139 614.775 152.857 614.775C153.573 614.775 154.16 615.407 154.16 616.18C154.16 616.953 154.796 617.586 155.574 617.586C156.359 617.586 156.988 618.419 156.988 619.459C156.988 620.708 157.617 621.333 158.873 621.333C159.921 621.333 160.759 621.958 160.759 622.739C160.759 623.512 161.395 624.144 162.173 624.144C162.95 624.144 163.587 624.777 163.587 625.55C163.587 626.323 164.223 626.955 165.001 626.955C165.786 626.955 166.414 627.788 166.414 628.829C166.414 630.27 167.043 630.703 169.132 630.703C172.554 630.703 172.983 632.132 173 643.586C173.01 650.539 172.742 652.252 171.646 652.252C170.894 652.252 169.864 652.99 169.356 653.892C168.606 655.224 166.82 655.593 159.82 655.861C151.72 656.171 151.175 656.074 150.687 654.222C150.403 653.139 149.583 652.252 148.865 652.252C148.149 652.252 147.562 651.62 147.562 650.847C147.562 650.066 146.724 649.441 145.676 649.441C144.629 649.441 143.791 648.816 143.791 648.036C143.791 647.263 143.155 646.631 142.377 646.631C141.592 646.631 140.963 645.798 140.963 644.757C140.963 643.716 140.335 642.883 139.549 642.883C138.772 642.883 138.135 642.25 138.135 641.477C138.135 640.697 137.297 640.072 136.25 640.072C135.213 640.072 134.365 639.485 134.365 638.767C134.365 638.049 133.729 637.219 132.951 636.922C132.173 636.626 131.537 635.738 131.537 634.948C131.537 634.159 130.901 633.514 130.123 633.514C129.345 633.514 128.709 632.881 128.709 632.108C128.709 631.335 128.073 630.703 127.295 630.703C126.517 630.703 125.881 630.07 125.881 629.297C125.881 628.524 125.205 627.892 124.378 627.892C123.553 627.892 122.654 627.049 122.384 626.018C122.112 624.987 121.304 624.144 120.586 624.144C119.87 624.144 119.283 623.512 119.283 622.739C119.283 621.958 118.445 621.333 117.397 621.333C116.141 621.333 115.512 620.708 115.512 619.459C115.512 618.419 114.883 617.586 114.098 617.586C113.32 617.586 112.684 616.953 112.684 616.18C112.684 615.407 112.048 614.775 111.27 614.775C110.493 614.775 109.856 614.142 109.856 613.369C109.856 612.596 109.269 611.964 108.553 611.964C107.835 611.964 107.026 611.121 106.755 610.09C106.484 609.059 105.586 608.216 104.76 608.216C103.934 608.216 103.258 607.584 103.258 606.811C103.258 606.038 102.621 605.405 101.844 605.405C101.066 605.405 100.43 604.773 100.43 604C100.43 603.227 99.754 602.595 98.9273 602.595C98.1015 602.595 97.2032 601.751 96.9327 600.721C96.6612 599.69 95.8524 598.847 95.1351 598.847C94.4186 598.847 93.8314 598.214 93.8314 597.441C93.8314 596.668 93.1951 596.036 92.4174 596.036C91.6398 596.036 91.0035 595.452 91.0035 594.74C91.0035 594.027 90.1551 593.223 89.1182 592.954C88.0813 592.685 87.2329 591.792 87.2329 590.971C87.2329 590.149 86.5966 589.477 85.819 589.477C85.0413 589.477 84.405 588.845 84.405 588.072C84.405 587.299 83.8178 586.667 83.1014 586.667C82.384 586.667 81.5752 585.823 81.3037 584.793C81.0332 583.762 80.1349 582.919 79.3091 582.919C78.4824 582.919 77.8066 582.286 77.8066 581.514C77.8066 580.741 77.1703 580.108 76.3926 580.108C75.6149 580.108 74.9786 579.476 74.9786 578.703C74.9786 577.93 74.3424 577.297 73.5647 577.297C72.787 577.297 72.1507 576.714 72.1507 576.002C72.1507 575.288 71.3024 574.485 70.2655 574.215C69.2286 573.946 68.3802 573.053 68.3802 572.232C68.3802 571.411 67.7439 570.739 66.9662 570.739C66.1886 570.739 65.5523 570.106 65.5523 569.333C65.5523 568.56 64.916 567.928 64.1383 567.928C63.3606 567.928 62.7244 567.344 62.7244 566.632C62.7244 565.919 61.876 565.115 60.8391 564.845C59.8022 564.576 58.9538 563.684 58.9538 562.863C58.9538 562.041 58.3175 561.369 57.5399 561.369C56.7622 561.369 56.1259 560.737 56.1259 559.964C56.1259 559.191 55.4896 558.559 54.7119 558.559C53.9343 558.559 53.298 557.887 53.298 557.065C53.298 556.244 52.4496 555.351 51.4127 555.083C50.3758 554.813 49.5274 554.009 49.5274 553.296C49.5274 552.584 48.8912 552 48.1135 552C47.3358 552 46.6995 551.416 46.6995 550.704C46.6995 549.991 45.8512 549.187 44.8143 548.917C43.7774 548.649 42.929 547.756 42.929 546.935C42.929 546.113 42.2927 545.441 41.515 545.441C40.7374 545.441 40.1011 544.809 40.1011 544.036C40.1011 543.263 39.4648 542.631 38.6871 542.631C37.9094 542.631 37.2656 542.104 37.2571 541.459C37.2373 540.032 33.168 536.072 31.7201 536.072C31.1451 536.072 30.6747 535.44 30.6747 534.667C30.6747 533.894 30.0384 533.261 29.2607 533.261C28.4831 533.261 27.8468 532.616 27.8468 531.827C27.8468 531.037 27.2105 530.149 26.4328 529.853C25.6552 529.556 25.0189 528.726 25.0189 528.008C25.0189 527.29 24.1705 526.703 23.1336 526.703C22.0863 526.703 21.2483 526.078 21.2483 525.297C21.2483 524.524 20.612 523.892 19.8344 523.892C19.0491 523.892 18.4204 523.059 18.4204 522.018C18.4204 520.977 17.7917 520.144 17.0065 520.144C16.2288 520.144 15.5925 519.512 15.5925 518.739C15.5925 517.958 14.7545 517.333 13.7072 517.333C12.66 517.333 11.822 516.708 11.822 515.928C11.822 514.69 2.97153 514.523 -62.1751 514.523C-135.543 514.523 -136.172 514.507 -136.172 512.649C-136.172 511.608 -136.801 510.775 -137.586 510.775C-138.764 510.775 -139 508.901 -139 499.532C-139 490.162 -138.764 488.288 -137.586 488.288C-136.808 488.288 -136.172 487.656 -136.172 486.883C-136.172 485.646 -127.846 485.477 -66.8883 485.477H2.39558V416.144C2.39558 355.139 2.56526 346.811 3.80954 346.811C4.58722 346.811 5.2235 346.178 5.2235 345.405C5.2235 344.226 7.25394 344 17.8445 344H30.4645L31.0838 347.279ZM-16.4572 397.405C-16.4572 444.252 -16.6306 450.811 -17.8711 450.811C-18.6488 450.811 -19.2851 450.178 -19.2851 449.405C-19.2851 448.625 -20.1231 448 -21.1703 448C-22.2072 448 -23.0556 447.401 -23.0556 446.669C-23.0556 445.937 -24.3008 445.066 -25.8223 444.734C-27.8998 444.28 -28.7397 443.446 -29.196 441.381C-29.5306 439.868 -30.4063 438.631 -31.1425 438.631C-31.8797 438.631 -32.482 437.998 -32.482 437.225C-32.482 436.452 -33.1183 435.82 -33.896 435.82C-34.6812 435.82 -35.3099 434.987 -35.3099 433.946C-35.3099 432.697 -35.9386 432.072 -37.1952 432.072C-38.2424 432.072 -39.0805 431.447 -39.0805 430.667C-39.0805 429.894 -39.7167 429.261 -40.4944 429.261C-41.2721 429.261 -41.9084 428.629 -41.9084 427.856C-41.9084 427.083 -42.5446 426.45 -43.3223 426.45C-44.5572 426.45 -44.7363 421.401 -44.7363 386.631C-44.7363 351.86 -44.5572 346.811 -43.3223 346.811C-42.5446 346.811 -41.9084 346.178 -41.9084 345.405C-41.9084 344.226 -39.8657 344 -29.1828 344H-16.4572V397.405ZM-63.589 345.874C-63.589 346.915 -62.9603 347.748 -62.1751 347.748C-61.3974 347.748 -60.7611 348.38 -60.7611 349.153C-60.7611 349.926 -61.3974 350.559 -62.1751 350.559C-62.9527 350.559 -63.589 351.191 -63.589 351.964C-63.589 352.737 -62.9527 353.369 -62.1751 353.369C-61.3898 353.369 -60.7611 354.202 -60.7611 355.243C-60.7611 356.284 -61.3898 357.117 -62.1751 357.117C-63.4033 357.117 -63.589 361.229 -63.589 388.505V419.892L-99.1736 419.879C-118.745 419.872 -135.712 419.612 -136.879 419.302C-138.94 418.753 -139 418.392 -139 406.665C-139 396.56 -138.77 394.595 -137.586 394.595C-136.801 394.595 -136.172 393.762 -136.172 392.721C-136.172 390.901 -135.543 390.847 -114.602 390.847H-93.0304L-92.462 388.739C-92.15 387.579 -91.8879 377.672 -91.8813 366.721C-91.87 349.653 -91.6664 346.811 -90.4542 346.811C-89.6765 346.811 -89.0402 346.178 -89.0402 345.405C-89.0402 344.226 -86.9975 344 -76.3146 344C-64.2178 344 -63.589 344.093 -63.589 345.874ZM-111.192 346.811C-110.851 348.357 -109.969 349.622 -109.232 349.622C-108.194 349.622 -107.893 351.201 -107.893 356.649C-107.893 362.27 -108.176 363.676 -109.307 363.676C-110.349 363.676 -110.721 364.757 -110.721 367.782C-110.721 372.868 -111.137 373.015 -125.567 373.032C-135.548 373.044 -136.172 372.934 -136.172 371.171C-136.172 370.13 -136.801 369.297 -137.586 369.297C-138.764 369.297 -139 367.423 -139 358.054C-139 348.685 -138.764 346.811 -137.586 346.811C-136.808 346.811 -136.172 346.178 -136.172 345.405C-136.172 344.229 -134.191 344 -123.992 344H-111.813L-111.192 346.811ZM62.4887 350.299C64.3466 350.529 65.5523 351.207 65.5523 352.023C65.5523 353.014 66.7966 353.369 70.2655 353.369C73.8267 353.369 74.9786 353.713 74.9786 354.775C74.9786 355.548 75.5621 356.18 76.2748 356.18C76.9874 356.18 77.8358 357.498 78.16 359.108C78.916 362.864 78.9113 505.862 78.1553 508.667C77.7321 510.235 76.8903 510.775 74.8684 510.775C73.0811 510.775 72.1507 510.294 72.1507 509.369C72.1507 508.596 71.4749 507.964 70.6482 507.964C69.8224 507.964 68.9241 507.121 68.6535 506.09C68.3821 505.059 67.5733 504.216 66.8559 504.216C66.1395 504.216 65.5523 503.584 65.5523 502.811C65.5523 502.038 64.916 501.405 64.1383 501.405C63.3606 501.405 62.7244 500.773 62.7244 500C62.7244 499.227 62.0485 498.595 61.2218 498.595C60.3961 498.595 59.4977 497.751 59.2272 496.721C58.9557 495.69 58.1469 494.847 57.4296 494.847C56.7132 494.847 56.1259 494.214 56.1259 493.441C56.1259 492.668 55.4896 492.036 54.7119 492.036C53.9343 492.036 53.298 491.424 53.298 490.677C53.298 489.93 52.5552 488.906 51.6484 488.401C50.1043 487.542 49.9827 483.102 49.7452 419.135L49.4916 350.786L51.6305 350.217C53.8504 349.625 57.2363 349.652 62.4887 350.299ZM106.086 370.703C106.086 371.476 106.762 372.108 107.588 372.108C108.414 372.108 109.312 372.951 109.583 373.982C109.854 375.013 110.663 375.856 111.38 375.856C112.097 375.856 112.684 376.488 112.684 377.261C112.684 378.042 113.522 378.667 114.569 378.667C115.606 378.667 116.455 379.265 116.455 379.998C116.455 380.73 117.727 381.607 119.283 381.946C120.838 382.285 122.111 383.162 122.111 383.894C122.111 384.627 122.698 385.225 123.414 385.225C124.132 385.225 124.974 386.173 125.287 387.333C126.03 390.088 126.03 552.759 125.287 555.514C124.864 557.082 124.022 557.622 122 557.622C120.213 557.622 119.283 557.141 119.283 556.216C119.283 555.443 118.646 554.811 117.869 554.811C117.091 554.811 116.455 554.178 116.455 553.405C116.455 552.625 115.617 552 114.569 552C113.313 552 112.684 551.375 112.684 550.126C112.684 549.085 112.055 548.252 111.27 548.252C110.493 548.252 109.856 547.62 109.856 546.847C109.856 546.074 109.22 545.441 108.442 545.441C107.665 545.441 107.028 544.77 107.028 543.948C107.028 543.127 106.18 542.234 105.143 541.965C104.106 541.696 103.258 540.892 103.258 540.179C103.258 539.467 102.655 538.883 101.918 538.883C101.182 538.883 100.3 537.618 99.9585 536.072C99.6173 534.526 98.735 533.261 97.9988 533.261C96.8516 533.261 96.6612 521.782 96.6725 453.387C96.6791 409.456 96.9412 372.565 97.2532 371.405C97.733 369.626 98.4654 369.297 101.954 369.297C104.998 369.297 106.086 369.667 106.086 370.703ZM150.799 419.423C151.169 421.386 151.969 422.703 152.789 422.703C153.543 422.703 154.16 423.365 154.16 424.175C154.16 424.985 154.796 426.28 155.574 427.053C156.352 427.826 156.988 429.904 156.988 431.67C156.988 433.787 157.435 434.883 158.297 434.883C159.04 434.883 159.867 436.263 160.208 438.071C160.539 439.825 161.434 441.499 162.198 441.79C162.998 442.095 163.587 443.522 163.587 445.16C163.587 447.06 164.055 448 165.001 448C166.069 448 166.414 449.145 166.414 452.685C166.414 455.999 166.788 457.369 167.69 457.369C168.599 457.369 169.142 459.443 169.579 464.577C169.93 468.71 170.693 472.093 171.367 472.507C172.281 473.069 172.603 487.187 172.821 536.272C172.973 570.946 172.848 600.685 172.542 602.36C172.062 604.984 171.599 605.405 169.2 605.405C167.547 605.405 166.414 604.912 166.414 604.19C166.414 603.522 165.16 601.941 163.626 600.677C162.093 599.413 160.821 597.852 160.798 597.207C160.777 596.564 159.91 596.036 158.873 596.036C157.809 596.036 156.988 595.411 156.988 594.602C156.988 593.812 156.352 592.924 155.574 592.627C154.796 592.33 154.16 591.5 154.16 590.783C154.16 590.065 153.312 589.477 152.275 589.477C151.228 589.477 150.39 588.853 150.39 588.072C150.39 587.299 149.753 586.667 148.976 586.667C148.188 586.667 147.562 585.833 147.562 584.783C147.562 583.748 146.713 582.179 145.676 581.296C143.819 579.716 143.791 578.532 143.791 500.846C143.791 457.481 144.056 420.683 144.38 419.072C144.87 416.641 145.411 416.144 147.575 416.144C149.805 416.144 150.269 416.615 150.799 419.423ZM-54.1626 440.036C-54.1626 440.809 -53.5264 441.441 -52.7487 441.441C-51.971 441.441 -51.3347 442.087 -51.3347 442.876C-51.3347 443.666 -50.6985 444.554 -49.9208 444.85C-49.1431 445.147 -48.5068 445.977 -48.5068 446.695C-48.5068 447.413 -47.6584 448 -46.6216 448C-45.5743 448 -44.7363 448.625 -44.7363 449.405C-44.7363 450.178 -44.1 450.811 -43.3223 450.811C-42.5371 450.811 -41.9084 451.644 -41.9084 452.685C-41.9084 453.726 -41.2796 454.559 -40.4944 454.559C-39.7167 454.559 -39.0805 455.191 -39.0805 455.964C-39.0805 456.744 -38.2424 457.369 -37.1952 457.369C-35.9386 457.369 -35.3099 457.994 -35.3099 459.243C-35.3099 460.284 -34.6812 461.117 -33.896 461.117C-32.9533 461.117 -32.482 462.054 -32.482 463.928V466.739H-84.327C-129.783 466.739 -136.172 466.565 -136.172 465.333C-136.172 464.56 -136.808 463.928 -137.586 463.928C-138.764 463.928 -139 462.054 -139 452.685C-139 443.315 -138.764 441.441 -137.586 441.441C-136.808 441.441 -136.172 440.809 -136.172 440.036C-136.172 438.809 -130.988 438.631 -95.1674 438.631C-59.3472 438.631 -54.1626 438.809 -54.1626 440.036ZM3.57388 532.97C4.4807 533.206 5.2235 534.001 5.2235 534.735C5.2235 535.471 6.07187 536.072 7.10876 536.072C8.15604 536.072 8.99405 536.697 8.99405 537.477C8.99405 538.25 9.5813 538.883 10.2977 538.883C11.015 538.883 11.8239 539.726 12.0953 540.757C12.3659 541.787 13.2642 542.631 14.09 542.631C14.9166 542.631 15.5925 543.263 15.5925 544.036C15.5925 544.809 16.2288 545.441 17.0065 545.441C17.7841 545.441 18.4204 546.074 18.4204 546.847C18.4204 547.62 19.0567 548.252 19.8344 548.252C20.6196 548.252 21.2483 549.085 21.2483 550.126C21.2483 551.375 21.8771 552 23.1336 552C24.1809 552 25.0189 552.625 25.0189 553.405C25.0189 554.178 25.6552 554.811 26.4328 554.811C27.4207 554.811 27.8468 555.8 27.8468 558.09V561.369H-49.4495H-126.746V558.559C-126.746 556.798 -127.23 555.748 -128.042 555.748C-129.334 555.748 -130.516 551.888 -130.516 547.667C-130.516 546.314 -131.071 545.441 -131.93 545.441C-133.039 545.441 -133.344 544.155 -133.344 539.482V533.523L-128.395 532.931C-122.828 532.267 1.00613 532.303 3.57388 532.97ZM53.298 581.514C53.298 582.286 53.9343 582.919 54.7119 582.919C55.4972 582.919 56.1259 583.752 56.1259 584.793C56.1259 585.834 56.7546 586.667 57.5399 586.667C58.3175 586.667 58.9538 587.299 58.9538 588.072C58.9538 588.853 59.7918 589.477 60.8391 589.477C61.8864 589.477 62.7244 590.102 62.7244 590.883C62.7244 591.656 63.3606 592.288 64.1383 592.288C64.9235 592.288 65.5523 593.121 65.5523 594.162C65.5523 595.411 66.181 596.036 67.4375 596.036C68.4848 596.036 69.3228 596.661 69.3228 597.441C69.3228 598.214 69.9591 598.847 70.7368 598.847C71.522 598.847 72.1507 599.68 72.1507 600.721C72.1507 601.762 72.7795 602.595 73.5647 602.595C74.4913 602.595 74.9786 603.517 74.9786 605.268C74.9786 607.922 74.9268 607.945 67.7665 608.547C58.4806 609.327 -84.1536 609.326 -90.6898 608.546C-93.9438 608.157 -95.6387 607.518 -95.6387 606.681C-95.6387 605.979 -96.275 605.405 -97.0526 605.405C-97.8303 605.405 -98.4666 604.773 -98.4666 604C-98.4666 603.227 -98.9973 602.587 -99.6449 602.579C-101.081 602.559 -105.065 598.514 -105.065 597.075C-105.065 596.504 -105.701 596.036 -106.479 596.036C-107.422 596.036 -107.893 595.099 -107.893 593.225C-107.893 591.465 -108.377 590.414 -109.189 590.414C-110.481 590.414 -111.664 586.554 -111.664 582.333V580.108H-29.1828C43.5049 580.108 53.298 580.275 53.298 581.514ZM98.3089 627.616C99.4759 627.839 100.43 628.626 100.43 629.363C100.43 630.099 101.066 630.703 101.844 630.703C102.621 630.703 103.258 631.335 103.258 632.108C103.258 632.881 103.788 633.521 104.436 633.529C105.873 633.549 109.856 637.594 109.856 639.033C109.856 639.605 110.493 640.072 111.27 640.072C112.048 640.072 112.684 640.656 112.684 641.368C112.684 642.081 113.533 642.885 114.569 643.155C115.606 643.423 116.455 644.316 116.455 645.137C116.455 645.959 117.091 646.631 117.869 646.631C118.646 646.631 119.283 647.263 119.283 648.036C119.283 648.809 119.919 649.441 120.697 649.441C121.684 649.441 122.111 650.431 122.111 652.721V656H59.4723C7.83554 656 -3.2989 655.777 -3.9201 654.733C-4.41875 653.896 -7.53416 653.272 -13.1023 652.892C-19.253 652.473 -21.7482 651.93 -22.3392 650.88C-22.8972 649.888 -24.6006 649.441 -27.8159 649.441C-31.3348 649.441 -32.482 649.096 -32.482 648.036C-32.482 646.993 -33.5849 646.631 -36.7531 646.631C-39.5999 646.631 -41.1985 646.181 -41.5454 645.282C-41.832 644.541 -43.3025 643.664 -44.8155 643.334C-46.3275 643.004 -47.5642 642.135 -47.5642 641.403C-47.5642 640.507 -48.6416 640.072 -50.8634 640.072C-53.0503 640.072 -54.1626 639.634 -54.1626 638.771C-54.1626 638.026 -55.5719 637.207 -57.4619 636.855C-59.2765 636.516 -60.7611 635.871 -60.7611 635.419C-60.7611 634.969 -62.0337 634.321 -63.589 633.982C-65.9051 633.476 -66.4169 632.892 -66.4169 630.755C-66.4169 628.362 -66.0559 628.097 -62.0431 627.551C-57.2498 626.898 94.8796 626.96 98.3089 627.616Z" fill="url(#paint1_linear_644_2161)"/>
<g opacity="0.6">
<circle cx="546" cy="344" r="308" fill="#FFA06E" fill-opacity="0.1"/>
<circle cx="530.277" cy="281.413" r="240.48" fill="#FFA06E" fill-opacity="0.1"/>
</g>
<defs>
<linearGradient id="paint0_linear_644_2161" x1="-148.371" y1="43.875" x2="296.03" y2="83.9958" gradientUnits="userSpaceOnUse">
<stop stop-color="#FE5E0A"/>
<stop offset="1" stop-color="#FE5E0A" stop-opacity="0.47"/>
</linearGradient>
<linearGradient id="paint1_linear_644_2161" x1="182.371" y1="387.875" x2="-262.03" y2="427.996" gradientUnits="userSpaceOnUse">
<stop stop-color="#FE5E0A"/>
<stop offset="1" stop-color="#FE5E0A" stop-opacity="0.47"/>
</linearGradient>
</defs>
</svg>
