<?xml version="1.0" encoding="UTF-8" standalone="no"?>
<svg
   xmlns:dc="http://purl.org/dc/elements/1.1/"
   xmlns:cc="http://creativecommons.org/ns#"
   xmlns:rdf="http://www.w3.org/1999/02/22-rdf-syntax-ns#"
   xmlns:svg="http://www.w3.org/2000/svg"
   xmlns="http://www.w3.org/2000/svg"
   viewBox="0 0 1600 1600"
   height="1600"
   width="1600"
   xml:space="preserve"
   id="svg2"
   version="1.1"><metadata
     id="metadata8"><rdf:RDF><cc:Work
         rdf:about=""><dc:format>image/svg+xml</dc:format><dc:type
           rdf:resource="http://purl.org/dc/dcmitype/StillImage" /></cc:Work></rdf:RDF></metadata><defs
     id="defs6"><clipPath
       id="clipPath18"
       clipPathUnits="userSpaceOnUse"><path
         id="path16"
         d="M 0,1200 H 1200 V 0 H 0 Z" /></clipPath></defs><g
     transform="matrix(1.3333333,0,0,-1.3333333,0,1600)"
     id="g10"><g
       id="g12"><g
         clip-path="url(#clipPath18)"
         id="g14"><g
           transform="translate(815.4531,745.9379)"
           id="g20"><path
             id="path22"
             style="fill:#ed7128;fill-opacity:1;fill-rule:nonzero;stroke:none"
             d="m 0,0 -196.194,-113.224 v 76.938 L 18.655,84.491 c 0.397,0.229 0.77,0.487 1.16,0.723 V 34.319 C 19.815,20.208 12.223,7.057 0,0 m 0,-117.885 -195.645,-112.954 c -0.178,-0.103 -0.37,-0.17 -0.549,-0.27 v 78.027 L 19.815,-31.583 v -51.984 c 0,-14.111 -7.592,-27.262 -19.815,-34.318 m -430.906,0 c -12.226,7.056 -19.817,20.207 -19.817,34.318 v 51.984 l 216.002,-121.498 v -78.024 c -0.176,0.098 -0.366,0.165 -0.543,0.266 z M -450.723,85.214 -234.721,-36.285 V -113.22 L -430.906,0 c -12.226,7.057 -19.817,20.208 -19.817,34.319 z m 19.817,91.443 15.902,9.181 180.283,-110.853 V 3.577 c -0.176,0.098 -0.366,0.165 -0.543,0.266 l -195.642,112.954 c -10.944,6.318 -18.128,17.527 -19.523,29.93 1.395,12.403 8.579,23.612 19.523,29.93 m 195.642,112.954 c 0.177,0.101 0.367,0.168 0.543,0.266 V 120.214 l -142.346,87.527 z m 19.817,5.29 h -0.017 c 0.002,0 0.007,10e-4 0.009,10e-4 0.002,0 0.006,-10e-4 0.008,-10e-4 m 161.752,-87.244 -142.499,-87.478 v 169.702 c 0.179,-0.1 0.371,-0.167 0.549,-0.27 z m 73.218,-60.93 C 18.128,134.324 10.944,123.115 0,116.797 L -195.645,3.843 c -0.178,-0.103 -0.37,-0.17 -0.549,-0.27 V 74.971 L -15.741,185.745 0,176.657 c 10.944,-6.318 18.128,-17.527 19.523,-29.93 m 37.055,4.386 c -2.774,23.982 -16.754,45.629 -37.923,57.85 l -195.642,112.954 c -23.725,13.697 -53.198,13.701 -76.932,0 L -449.561,208.963 c -21.169,-12.221 -35.151,-33.868 -37.926,-57.85 0,0 -0.538,-7.303 -0.538,-8.772 V -83.567 c 0,-27.394 14.738,-52.922 38.464,-66.624 l 195.642,-112.954 c 11.866,-6.85 25.164,-10.272 38.464,-10.272 13.302,0 26.602,3.422 38.468,10.272 l 195.642,112.954 c 23.725,13.702 38.464,39.23 38.464,66.624 v 225.908 c 0,1.469 -0.541,8.772 -0.541,8.772" /></g><g
           transform="translate(108.4023,325.8825)"
           id="g24"><path
             id="path26"
             style="fill:#ed7128;fill-opacity:1;fill-rule:nonzero;stroke:none"
             d="m 0,0 h 24.654 c 6.038,0 10.853,1.543 14.433,4.636 3.583,3.087 5.375,7.795 5.375,14.116 0,5.338 -1.547,9.833 -4.636,13.487 -3.093,3.651 -8.149,5.478 -15.172,5.478 H 0 Z m -33.293,-80.494 c -1.547,0 -2.811,0.49 -3.792,1.476 -0.986,0.981 -1.476,2.245 -1.476,3.792 V 61.739 c 0,1.544 0.49,2.809 1.476,3.793 0.981,0.981 2.245,1.475 3.792,1.475 h 59.001 c 11.659,0 21.808,-1.79 30.449,-5.373 8.638,-3.582 15.381,-8.955 20.228,-16.12 4.846,-7.163 7.27,-16.226 7.27,-27.181 0,-10.82 -2.424,-19.738 -7.27,-26.762 -4.847,-7.027 -11.59,-12.221 -20.228,-15.593 -8.641,-3.371 -18.79,-5.056 -30.449,-5.056 H 0.632 v -46.148 c 0,-1.547 -0.527,-2.811 -1.581,-3.792 -1.053,-0.986 -2.354,-1.476 -3.897,-1.476 z" /></g><g
           transform="translate(250.4277,267.3039)"
           id="g28"><path
             id="path30"
             style="fill:#ed7128;fill-opacity:1;fill-rule:nonzero;stroke:none"
             d="m 0,0 c 4.072,0 7.76,0.875 11.063,2.634 3.298,1.753 5.899,4.494 7.796,8.217 1.896,3.72 2.844,8.393 2.844,14.013 v 2.949 L 3.792,24.652 c -6.605,-1.125 -11.414,-2.844 -14.433,-5.161 -3.023,-2.319 -4.531,-5.025 -4.531,-8.114 0,-2.389 0.702,-4.424 2.107,-6.109 1.404,-1.687 3.231,-2.988 5.478,-3.9 C -5.34,0.453 -2.813,0 0,0 m -9.904,-24.022 c -7.585,0 -14.365,1.442 -20.335,4.319 -5.972,2.879 -10.713,6.776 -14.223,11.694 -3.513,4.916 -5.268,10.464 -5.268,16.648 0,9.972 4.074,17.873 12.223,23.705 8.145,5.828 18.964,9.799 32.449,11.906 l 26.339,4.003 v 2.951 c 0,5.055 -1.053,8.918 -3.16,11.589 -2.107,2.667 -5.972,4.002 -11.59,4.002 -3.934,0 -7.13,-0.773 -9.587,-2.317 -2.459,-1.547 -4.391,-3.654 -5.794,-6.321 -1.264,-1.828 -3.023,-2.739 -5.268,-2.739 h -23.601 c -1.547,0 -2.739,0.455 -3.583,1.368 -0.841,0.914 -1.193,2.003 -1.053,3.268 0,2.527 0.949,5.441 2.846,8.744 1.895,3.298 4.809,6.566 8.743,9.799 3.933,3.228 8.989,5.899 15.172,8.006 6.18,2.108 13.625,3.161 22.337,3.161 9.129,0 16.926,-1.053 23.389,-3.161 6.459,-2.107 11.694,-5.058 15.699,-8.85 4.002,-3.793 6.986,-8.254 8.955,-13.38 1.965,-5.13 2.949,-10.782 2.949,-16.962 v -64.058 c 0,-1.548 -0.527,-2.811 -1.58,-3.793 -1.054,-0.986 -2.285,-1.475 -3.688,-1.475 H 28.025 c -1.548,0 -2.811,0.489 -3.793,1.475 -0.985,0.982 -1.475,2.245 -1.475,3.793 v 7.375 c -1.827,-2.671 -4.286,-5.13 -7.375,-7.375 -3.091,-2.25 -6.711,-4.04 -10.853,-5.373 -4.144,-1.334 -8.955,-2.002 -14.433,-2.002" /></g><g
           transform="translate(337.243,245.3886)"
           id="g32"><path
             id="path34"
             style="fill:#ed7128;fill-opacity:1;fill-rule:nonzero;stroke:none"
             d="M 0,0 C -1.547,0 -2.813,0.49 -3.795,1.475 -4.778,2.457 -5.268,3.72 -5.268,5.268 V 144.34 c 0,1.544 0.49,2.809 1.473,3.793 0.982,0.981 2.248,1.475 3.795,1.475 h 24.864 c 1.543,0 2.809,-0.494 3.793,-1.475 0.981,-0.984 1.475,-2.249 1.475,-3.793 V 5.268 C 30.132,3.72 29.638,2.457 28.657,1.475 27.673,0.49 26.407,0 24.864,0 Z" /></g><g
           transform="translate(397.5049,245.3886)"
           id="g36"><path
             id="path38"
             style="fill:#ed7128;fill-opacity:1;fill-rule:nonzero;stroke:none"
             d="M 0,0 C -1.547,0 -2.813,0.49 -3.795,1.475 -4.778,2.457 -5.268,3.72 -5.268,5.268 v 99.036 c 0,1.544 0.49,2.809 1.473,3.793 0.982,0.981 2.248,1.475 3.795,1.475 h 22.967 c 1.545,0 2.809,-0.494 3.792,-1.475 0.982,-0.984 1.476,-2.249 1.476,-3.793 v -7.165 c 2.809,3.795 6.743,7.128 11.801,10.009 5.056,2.879 11.026,4.389 17.911,4.531 16.151,0.28 27.251,-5.831 33.293,-18.332 3.228,5.338 7.864,9.727 13.906,13.169 6.04,3.441 12.643,5.163 19.808,5.163 7.303,0 13.872,-1.652 19.701,-4.951 5.828,-3.302 10.501,-8.36 14.014,-15.172 3.508,-6.815 5.268,-15.628 5.268,-26.444 V 5.268 c 0,-1.548 -0.527,-2.811 -1.581,-3.793 C 161.303,0.49 160.07,0 158.669,0 h -24.445 c -1.547,0 -2.843,0.49 -3.897,1.475 -1.054,0.982 -1.58,2.245 -1.58,3.793 v 58.369 c 0,4.916 -0.704,8.813 -2.108,11.694 -1.405,2.877 -3.302,4.951 -5.689,6.216 -2.389,1.264 -5.13,1.896 -8.217,1.896 -2.529,0 -5.025,-0.632 -7.482,-1.896 -2.459,-1.265 -4.424,-3.339 -5.9,-6.216 C 97.876,72.45 97.139,68.553 97.139,63.637 V 5.268 C 97.139,3.72 96.645,2.457 95.664,1.475 94.68,0.49 93.415,0 91.871,0 H 67.429 C 65.882,0 64.616,0.49 63.635,1.475 62.651,2.457 62.161,3.72 62.161,5.268 v 58.369 c 0,4.916 -0.774,8.813 -2.319,11.694 -1.547,2.877 -3.513,4.951 -5.9,6.216 -2.391,1.264 -5.058,1.896 -8.006,1.896 -2.529,0 -5.025,-0.632 -7.48,-1.896 -2.461,-1.265 -4.427,-3.339 -5.902,-6.216 -1.473,-2.881 -2.212,-6.71 -2.212,-11.485 V 5.268 C 30.342,3.72 29.815,2.457 28.762,1.475 27.708,0.49 26.407,0 24.864,0 Z" /></g><g
           transform="translate(683.2349,243.2814)"
           id="g40"><path
             id="path42"
             style="fill:#ed7128;fill-opacity:1;fill-rule:nonzero;stroke:none"
             d="m 0,0 c -8.007,0 -15.629,1.021 -22.864,3.056 -7.235,2.035 -13.664,5.089 -19.279,9.165 -5.62,4.072 -10.081,9.13 -13.382,15.172 -3.301,6.038 -5.093,13.065 -5.373,21.072 0,1.263 0.422,2.35 1.266,3.265 0.841,0.912 1.965,1.371 3.37,1.371 h 28.447 c 1.965,0 3.478,-0.494 4.531,-1.476 1.054,-0.983 1.928,-2.459 2.634,-4.424 0.7,-3.934 2.033,-7.132 4.003,-9.589 1.965,-2.459 4.459,-4.286 7.48,-5.478 3.02,-1.195 6.428,-1.79 10.221,-1.79 7.023,0 12.431,2.28 16.225,6.848 3.793,4.562 5.688,11.273 5.688,20.123 v 60.896 h -68.271 c -1.405,0 -2.634,0.492 -3.687,1.475 -1.054,0.982 -1.581,2.245 -1.581,3.793 v 20.861 c 0,1.544 0.527,2.809 1.581,3.793 1.053,0.981 2.282,1.475 3.687,1.475 H 56.681 c 1.546,0 2.846,-0.494 3.9,-1.475 1.053,-0.984 1.58,-2.249 1.58,-3.793 V 56.262 C 62.161,44.04 59.49,33.747 54.154,25.391 48.812,17.032 41.511,10.711 32.239,6.426 22.967,2.14 12.221,0 0,0" /></g><g
           transform="translate(822.9391,268.9892)"
           id="g44"><path
             id="path46"
             style="fill:#ed7128;fill-opacity:1;fill-rule:nonzero;stroke:none"
             d="m 0,0 c 6.321,0 10.921,1.895 13.801,5.69 2.879,3.792 4.532,9.482 4.954,17.067 0.137,2.107 0.209,4.916 0.209,8.429 0,3.51 -0.072,6.321 -0.209,8.428 -0.422,7.445 -2.075,13.098 -4.954,16.962 -2.88,3.863 -7.48,5.795 -13.801,5.795 -6.184,0 -10.746,-1.932 -13.697,-5.795 -2.95,-3.864 -4.566,-9.517 -4.846,-16.962 -0.142,-2.107 -0.212,-4.918 -0.212,-8.428 0,-3.513 0.07,-6.322 0.212,-8.429 0.28,-7.585 1.896,-13.275 4.846,-17.067 C -10.746,1.895 -6.184,0 0,0 m 0,-25.708 c -11.799,0 -21.74,1.898 -29.817,5.69 -8.079,3.792 -14.258,9.235 -18.543,16.33 -4.286,7.092 -6.71,15.557 -7.27,25.391 -0.14,2.809 -0.21,6.005 -0.21,9.587 0,3.583 0.07,6.707 0.21,9.378 0.56,9.972 3.089,18.47 7.587,25.496 4.494,7.023 10.779,12.433 18.86,16.225 8.074,3.793 17.803,5.69 29.183,5.69 11.517,0 21.314,-1.897 29.395,-5.69 8.077,-3.792 14.361,-9.202 18.86,-16.225 4.494,-7.026 7.021,-15.524 7.585,-25.496 0.138,-2.671 0.21,-5.795 0.21,-9.378 0,-3.582 -0.072,-6.778 -0.21,-9.587 C 55.276,11.869 52.854,3.404 48.57,-3.688 44.283,-10.783 38.104,-16.226 30.027,-20.018 21.948,-23.81 11.939,-25.708 0,-25.708" /></g><g
           transform="translate(955.2642,271.5182)"
           id="g48"><path
             id="path50"
             style="fill:#ed7128;fill-opacity:1;fill-rule:nonzero;stroke:none"
             d="m 0,0 c 4.774,0 8.499,0.979 11.168,2.949 2.666,1.965 4.601,4.636 5.794,8.007 1.194,3.372 1.93,7.093 2.214,11.169 0.28,4.352 0.28,8.709 0,13.063 -0.284,4.074 -1.02,7.797 -2.214,11.169 -1.193,3.371 -3.128,6.038 -5.794,8.007 C 8.499,56.329 4.774,57.313 0,57.313 c -4.356,0 -7.937,-0.947 -10.746,-2.844 -2.813,-1.897 -4.92,-4.356 -6.321,-7.375 -1.406,-3.023 -2.179,-6.288 -2.319,-9.799 -0.14,-2.669 -0.21,-5.268 -0.21,-7.795 0,-2.529 0.07,-5.2 0.21,-8.009 0.14,-3.792 0.843,-7.305 2.107,-10.535 1.265,-3.233 3.301,-5.867 6.111,-7.902 C -8.359,1.017 -4.636,0 0,0 m 11.379,-28.237 c -7.868,0 -14.435,1.338 -19.703,4.005 -5.268,2.667 -9.587,6.037 -12.957,10.114 v -6.744 c 0,-1.547 -0.527,-2.811 -1.581,-3.792 -1.053,-0.986 -2.286,-1.476 -3.687,-1.476 H -50.36 c -1.547,0 -2.813,0.49 -3.794,1.476 -0.984,0.981 -1.474,2.245 -1.474,3.792 v 139.073 c 0,1.543 0.49,2.809 1.474,3.792 0.981,0.982 2.247,1.476 3.794,1.476 h 25.706 c 1.545,0 2.809,-0.494 3.794,-1.476 0.98,-0.983 1.474,-2.249 1.474,-3.792 V 73.117 c 3.372,3.652 7.62,6.638 12.75,8.955 5.126,2.319 11.13,3.478 18.015,3.478 7.024,0 13.238,-1.159 18.648,-3.478 5.406,-2.317 10.009,-5.655 13.801,-10.009 3.795,-4.354 6.744,-9.554 8.851,-15.592 2.107,-6.041 3.299,-12.854 3.583,-20.439 0.137,-2.671 0.209,-5.093 0.209,-7.271 0,-2.179 -0.072,-4.671 -0.209,-7.48 -0.284,-7.868 -1.511,-14.855 -3.688,-20.966 -2.179,-6.11 -5.163,-11.31 -8.955,-15.592 -3.793,-4.288 -8.359,-7.517 -13.697,-9.694 -5.34,-2.175 -11.519,-3.266 -18.543,-3.266" /></g><g
           transform="translate(1077.6892,243.2814)"
           id="g52"><path
             id="path54"
             style="fill:#ed7128;fill-opacity:1;fill-rule:nonzero;stroke:none"
             d="m 0,0 c -9.132,0 -16.892,1.021 -23.284,3.056 -6.393,2.035 -11.589,4.529 -15.593,7.48 -4.003,2.951 -6.989,6.004 -8.956,9.165 -1.967,3.161 -3.021,5.865 -3.161,8.114 -0.14,1.543 0.35,2.844 1.476,3.897 1.123,1.054 2.319,1.581 3.582,1.581 h 24.023 c 0.42,0 0.769,-0.072 1.053,-0.21 0.28,-0.142 0.7,-0.422 1.264,-0.844 1.823,-0.983 3.65,-2.212 5.478,-3.687 1.825,-1.476 3.932,-2.776 6.321,-3.898 2.387,-1.125 5.268,-1.685 8.641,-1.685 3.93,0 7.233,0.769 9.904,2.317 2.667,1.543 4.002,3.862 4.002,6.953 0,2.245 -0.632,4.109 -1.895,5.585 -1.266,1.475 -3.83,2.914 -7.692,4.319 -3.865,1.404 -9.659,2.809 -17.384,4.214 -7.305,1.686 -13.697,3.898 -19.174,6.639 -5.48,2.739 -9.695,6.321 -12.643,10.746 -2.951,4.424 -4.427,9.799 -4.427,16.12 0,5.616 1.826,11.026 5.48,16.224 3.651,5.196 8.989,9.447 16.014,12.75 7.023,3.298 15.662,4.951 25.918,4.951 8.146,0 15.204,-0.949 21.176,-2.844 5.97,-1.898 11.028,-4.322 15.172,-7.27 4.142,-2.951 7.27,-5.974 9.377,-9.061 2.107,-3.093 3.231,-5.901 3.371,-8.428 0.14,-1.408 -0.282,-2.634 -1.264,-3.688 -0.983,-1.053 -2.107,-1.58 -3.37,-1.58 H 21.494 c -0.564,0 -1.126,0.105 -1.686,0.315 -0.564,0.212 -1.053,0.454 -1.475,0.738 -1.686,0.842 -3.371,1.965 -5.058,3.371 -1.686,1.403 -3.655,2.667 -5.9,3.792 -2.249,1.124 -5.056,1.686 -8.428,1.686 -3.793,0 -6.744,-0.842 -8.851,-2.527 -2.107,-1.688 -3.161,-3.867 -3.161,-6.534 0,-1.827 0.597,-3.512 1.793,-5.056 1.191,-1.547 3.65,-2.95 7.375,-4.214 3.72,-1.265 9.515,-2.671 17.384,-4.214 9.692,-1.548 17.417,-4.042 23.178,-7.482 5.758,-3.443 9.83,-7.447 12.222,-12.009 2.387,-4.569 3.582,-9.378 3.582,-14.436 0,-6.743 -2.002,-12.715 -6.006,-17.911 C 42.46,11.238 36.523,7.198 28.659,4.319 20.79,1.443 11.238,0 0,0" /></g><g
           transform="translate(94.8971,121.8708)"
           id="g56"><path
             id="path58"
             style="fill:#ed7128;fill-opacity:1;fill-rule:nonzero;stroke:none"
             d="m 0,0 c -4.937,0 -9.077,0.751 -12.423,2.253 -3.348,1.502 -5.914,3.459 -7.7,5.871 -1.788,2.412 -2.737,4.978 -2.85,7.7 0,0.455 0.183,0.865 0.552,1.235 0.368,0.368 0.808,0.553 1.319,0.553 h 4.339 c 0.682,0 1.192,-0.17 1.531,-0.512 0.342,-0.339 0.568,-0.737 0.681,-1.189 0.284,-1.363 0.98,-2.71 2.085,-4.042 1.107,-1.333 2.665,-2.44 4.679,-3.319 C -5.774,7.669 -3.179,7.231 0,7.231 c 4.877,0 8.466,0.864 10.762,2.595 2.297,1.73 3.447,4.041 3.447,6.935 0,1.985 -0.611,3.586 -1.829,4.807 -1.221,1.22 -3.079,2.31 -5.575,3.275 -2.496,0.966 -5.729,2.013 -9.698,3.149 -4.143,1.191 -7.573,2.496 -10.295,3.914 -2.725,1.418 -4.752,3.175 -6.085,5.276 -1.334,2.097 -1.998,4.764 -1.998,7.996 0,3.064 0.821,5.799 2.467,8.211 1.644,2.412 4.011,4.325 7.104,5.743 3.09,1.418 6.85,2.128 11.274,2.128 3.517,0 6.593,-0.467 9.231,-1.404 2.638,-0.936 4.836,-2.185 6.595,-3.743 1.758,-1.561 3.091,-3.234 3.999,-5.021 0.907,-1.786 1.389,-3.531 1.446,-5.232 0,-0.398 -0.142,-0.78 -0.426,-1.149 -0.284,-0.37 -0.736,-0.553 -1.36,-0.553 h -4.511 c -0.397,0 -0.808,0.113 -1.232,0.341 -0.426,0.225 -0.753,0.651 -0.98,1.276 -0.339,2.325 -1.646,4.282 -3.914,5.871 -2.269,1.587 -5.218,2.381 -8.848,2.381 -3.687,0 -6.679,-0.71 -8.976,-2.126 -2.298,-1.42 -3.447,-3.632 -3.447,-6.636 0,-1.93 0.539,-3.531 1.618,-4.809 1.076,-1.276 2.778,-2.395 5.105,-3.361 2.323,-0.965 5.358,-1.985 9.104,-3.062 4.537,-1.249 8.253,-2.568 11.144,-3.957 2.894,-1.391 5.034,-3.119 6.425,-5.189 1.389,-2.072 2.084,-4.723 2.084,-7.956 0,-3.574 -0.936,-6.624 -2.806,-9.146 C 17.952,5.26 15.328,3.332 11.954,1.998 8.579,0.667 4.593,0 0,0" /></g><g
           transform="translate(201.0823,129.1018)"
           id="g60"><path
             id="path62"
             style="fill:#ed7128;fill-opacity:1;fill-rule:nonzero;stroke:none"
             d="m 0,0 c 4.367,0 7.924,1.305 10.678,3.914 2.749,2.609 4.239,6.836 4.467,12.678 0.111,2.551 0.169,4.836 0.169,6.848 0,2.015 -0.058,4.268 -0.169,6.766 -0.115,3.914 -0.837,7.089 -2.171,9.53 -1.333,2.436 -3.105,4.224 -5.317,5.36 -2.212,1.134 -4.766,1.7 -7.657,1.7 -2.78,0 -5.276,-0.566 -7.488,-1.7 -2.212,-1.136 -3.986,-2.924 -5.318,-5.36 -1.333,-2.441 -2.084,-5.616 -2.255,-9.53 -0.057,-2.498 -0.084,-4.751 -0.084,-6.766 0,-2.012 0.027,-4.297 0.084,-6.848 C -14.834,10.75 -13.33,6.523 -10.552,3.914 -7.772,1.305 -4.255,0 0,0 m 0,-7.231 c -4.823,0 -8.964,0.838 -12.423,2.508 -3.461,1.673 -6.126,4.256 -7.998,7.744 -1.873,3.488 -2.922,7.871 -3.149,13.145 -0.057,2.496 -0.084,4.893 -0.084,7.19 0,2.298 0.027,4.693 0.084,7.19 0.227,5.218 1.319,9.572 3.276,13.06 1.957,3.488 4.68,6.097 8.17,7.828 3.488,1.729 7.529,2.595 12.124,2.595 4.651,0 8.721,-0.866 12.209,-2.595 3.488,-1.731 6.225,-4.34 8.21,-7.828 1.986,-3.488 3.064,-7.842 3.233,-13.06 0.113,-2.497 0.171,-4.892 0.171,-7.19 0,-2.297 -0.058,-4.694 -0.171,-7.19 C 23.483,10.892 22.446,6.509 20.547,3.021 18.645,-0.467 15.966,-3.05 12.507,-4.723 9.046,-6.393 4.877,-7.231 0,-7.231" /></g><g
           transform="translate(296.888,143.5659)"
           id="g64"><path
             id="path66"
             style="fill:#ed7128;fill-opacity:1;fill-rule:nonzero;stroke:none"
             d="M 0,0 H 22.973 L 11.487,30.206 Z m -13.614,-20.845 c -0.455,0 -0.852,0.171 -1.192,0.51 -0.339,0.34 -0.51,0.737 -0.51,1.192 0,0.284 0.029,0.594 0.084,0.936 L 5.871,36.842 c 0.224,0.566 0.537,1.021 0.934,1.363 0.397,0.339 0.992,0.51 1.788,0.51 h 5.785 c 0.736,0 1.319,-0.171 1.745,-0.51 0.426,-0.342 0.751,-0.797 0.979,-1.363 l 21.014,-55.049 c 0.113,-0.342 0.171,-0.652 0.171,-0.936 0,-0.455 -0.171,-0.852 -0.51,-1.192 -0.34,-0.339 -0.737,-0.51 -1.192,-0.51 h -4.34 c -0.679,0 -1.177,0.171 -1.487,0.51 -0.313,0.34 -0.525,0.652 -0.638,0.936 L 25.44,-7.317 H -2.467 l -4.682,-12.082 c -0.055,-0.284 -0.255,-0.596 -0.594,-0.936 -0.34,-0.339 -0.852,-0.51 -1.531,-0.51 z" /></g><g
           transform="translate(403.6679,153.8609)"
           id="g68"><path
             id="path70"
             style="fill:#ed7128;fill-opacity:1;fill-rule:nonzero;stroke:none"
             d="m 0,0 h 14.04 c 4.254,0 7.431,0.895 9.53,2.681 2.097,1.786 3.148,4.437 3.148,7.956 0,3.459 -1.037,6.097 -3.107,7.912 -2.07,1.815 -5.262,2.722 -9.571,2.722 H 0 Z m -6.381,-31.14 c -0.624,0 -1.105,0.183 -1.447,0.553 -0.339,0.369 -0.51,0.836 -0.51,1.404 v 55.56 c 0,0.623 0.171,1.119 0.51,1.489 0.342,0.369 0.823,0.554 1.447,0.554 H 14.38 c 6.41,0 11.486,-1.504 15.229,-4.511 3.745,-3.006 5.616,-7.459 5.616,-13.357 0,-4.368 -1.093,-7.928 -3.274,-10.68 -2.185,-2.751 -5.149,-4.665 -8.892,-5.743 l 13.102,-22.631 c 0.171,-0.342 0.255,-0.653 0.255,-0.936 0,-0.455 -0.183,-0.852 -0.551,-1.192 -0.37,-0.339 -0.782,-0.51 -1.235,-0.51 h -4.084 c -0.965,0 -1.673,0.255 -2.126,0.765 -0.455,0.511 -0.852,1.021 -1.192,1.531 L 14.89,-7.231 H 0 v -21.952 c 0,-0.568 -0.183,-1.035 -0.551,-1.404 -0.371,-0.37 -0.867,-0.553 -1.49,-0.553 z" /></g><g
           transform="translate(575.9631,122.7206)"
           id="g72"><path
             id="path74"
             style="fill:#ed7128;fill-opacity:1;fill-rule:nonzero;stroke:none"
             d="m 0,0 c -0.623,0 -1.105,0.183 -1.447,0.554 -0.339,0.368 -0.51,0.835 -0.51,1.403 v 55.56 c 0,0.623 0.171,1.119 0.51,1.49 0.342,0.368 0.824,0.553 1.447,0.553 h 4.34 c 0.623,0 1.119,-0.185 1.49,-0.553 0.368,-0.371 0.551,-0.867 0.551,-1.49 V 34.034 h 29.27 v 23.483 c 0,0.623 0.183,1.119 0.553,1.49 0.369,0.368 0.836,0.553 1.404,0.553 h 4.34 c 0.623,0 1.119,-0.185 1.487,-0.553 0.369,-0.371 0.554,-0.867 0.554,-1.49 V 1.957 C 43.989,1.389 43.804,0.922 43.435,0.554 43.067,0.183 42.571,0 41.948,0 h -4.34 c -0.568,0 -1.035,0.183 -1.404,0.554 -0.37,0.368 -0.553,0.835 -0.553,1.403 v 24.42 H 6.381 V 1.957 C 6.381,1.389 6.198,0.922 5.83,0.554 5.459,0.183 4.963,0 4.34,0 Z" /></g><g
           transform="translate(687.6796,122.7206)"
           id="g76"><path
             id="path78"
             style="fill:#ed7128;fill-opacity:1;fill-rule:nonzero;stroke:none"
             d="m 0,0 c -0.623,0 -1.105,0.183 -1.447,0.554 -0.339,0.368 -0.51,0.835 -0.51,1.403 v 55.646 c 0,0.566 0.171,1.033 0.51,1.404 0.342,0.368 0.824,0.553 1.447,0.553 h 4.511 c 0.566,0 1.033,-0.185 1.403,-0.553 0.368,-0.371 0.554,-0.838 0.554,-1.404 V 1.957 C 6.468,1.389 6.282,0.922 5.914,0.554 5.544,0.183 5.077,0 4.511,0 Z" /></g><g
           transform="translate(781.6149,121.8708)"
           id="g80"><path
             id="path82"
             style="fill:#ed7128;fill-opacity:1;fill-rule:nonzero;stroke:none"
             d="m 0,0 c -4.992,0 -9.233,0.934 -12.721,2.807 -3.488,1.872 -6.155,4.508 -7.999,7.912 -1.843,3.403 -2.879,7.404 -3.105,11.997 -0.058,2.496 -0.084,5.148 -0.084,7.955 0,2.809 0.026,5.488 0.084,8.042 0.226,4.595 1.262,8.564 3.105,11.912 1.844,3.346 4.523,5.956 8.042,7.828 3.517,1.871 7.741,2.807 12.678,2.807 4.027,0 7.515,-0.568 10.464,-1.702 2.949,-1.136 5.375,-2.566 7.276,-4.297 1.899,-1.73 3.317,-3.531 4.253,-5.403 0.937,-1.871 1.433,-3.517 1.49,-4.935 0.056,-0.51 -0.086,-0.922 -0.426,-1.232 -0.339,-0.313 -0.794,-0.47 -1.362,-0.47 h -5.019 c -0.568,0 -0.979,0.114 -1.234,0.342 -0.256,0.226 -0.496,0.624 -0.723,1.191 -0.51,1.474 -1.348,2.92 -2.51,4.338 -1.163,1.418 -2.723,2.595 -4.68,3.531 C 5.572,53.56 3.062,54.027 0,54.027 c -4.482,0 -8.099,-1.22 -10.849,-3.657 -2.753,-2.44 -4.241,-6.467 -4.467,-12.083 -0.171,-5.05 -0.171,-10.098 0,-15.145 0.226,-5.674 1.731,-9.742 4.509,-12.209 2.78,-2.467 6.41,-3.702 10.891,-3.702 3.007,0 5.686,0.554 8.04,1.659 2.354,1.107 4.212,2.821 5.575,5.148 1.36,2.325 2.041,5.276 2.041,8.849 v 3.574 H 2.978 c -0.568,0 -1.035,0.183 -1.404,0.553 -0.37,0.367 -0.553,0.863 -0.553,1.488 v 2.723 c 0,0.623 0.183,1.119 0.553,1.489 0.369,0.369 0.836,0.554 1.404,0.554 h 19.227 c 0.624,0 1.107,-0.185 1.447,-0.554 0.342,-0.37 0.51,-0.866 0.51,-1.489 v -8.168 c 0,-4.652 -0.948,-8.708 -2.85,-12.167 C 19.411,7.429 16.647,4.749 13.018,2.85 9.388,0.949 5.048,0 0,0" /></g><g
           transform="translate(870.951,122.7206)"
           id="g84"><path
             id="path86"
             style="fill:#ed7128;fill-opacity:1;fill-rule:nonzero;stroke:none"
             d="m 0,0 c -0.624,0 -1.105,0.183 -1.447,0.554 -0.339,0.368 -0.51,0.835 -0.51,1.403 v 55.56 c 0,0.623 0.171,1.119 0.51,1.49 0.342,0.368 0.823,0.553 1.447,0.553 h 4.34 c 0.623,0 1.119,-0.185 1.49,-0.553 0.368,-0.371 0.551,-0.867 0.551,-1.49 V 34.034 h 29.27 v 23.483 c 0,0.623 0.183,1.119 0.553,1.49 0.369,0.368 0.836,0.553 1.404,0.553 h 4.34 c 0.623,0 1.119,-0.185 1.487,-0.553 0.369,-0.371 0.554,-0.867 0.554,-1.49 V 1.957 C 43.989,1.389 43.804,0.922 43.435,0.554 43.067,0.183 42.571,0 41.948,0 h -4.34 c -0.568,0 -1.035,0.183 -1.404,0.554 -0.37,0.368 -0.553,0.835 -0.553,1.403 v 24.42 H 6.381 V 1.957 C 6.381,1.389 6.198,0.922 5.83,0.554 5.459,0.183 4.963,0 4.34,0 Z" /></g><g
           transform="translate(982.6675,122.7206)"
           id="g88"><path
             id="path90"
             style="fill:#ed7128;fill-opacity:1;fill-rule:nonzero;stroke:none"
             d="m 0,0 c -0.623,0 -1.105,0.183 -1.447,0.554 -0.339,0.368 -0.51,0.835 -0.51,1.403 v 55.56 c 0,0.623 0.171,1.119 0.51,1.49 0.342,0.368 0.824,0.553 1.447,0.553 h 35.141 c 0.623,0 1.107,-0.185 1.446,-0.553 0.34,-0.371 0.511,-0.867 0.511,-1.49 v -3.233 c 0,-0.626 -0.171,-1.107 -0.511,-1.447 -0.339,-0.339 -0.823,-0.51 -1.446,-0.51 H 6.212 V 33.694 h 27.056 c 0.624,0 1.107,-0.185 1.447,-0.554 0.341,-0.37 0.51,-0.866 0.51,-1.489 v -3.147 c 0,-0.568 -0.169,-1.037 -0.51,-1.405 -0.34,-0.369 -0.823,-0.552 -1.447,-0.552 H 6.212 V 7.233 h 29.61 c 0.623,0 1.105,-0.171 1.446,-0.512 0.34,-0.34 0.511,-0.821 0.511,-1.445 V 1.957 C 37.779,1.389 37.608,0.922 37.268,0.554 36.927,0.183 36.445,0 35.822,0 Z" /></g><g
           transform="translate(1091.6594,153.8609)"
           id="g92"><path
             id="path94"
             style="fill:#ed7128;fill-opacity:1;fill-rule:nonzero;stroke:none"
             d="m 0,0 h 14.04 c 4.254,0 7.431,0.895 9.53,2.681 2.097,1.786 3.148,4.437 3.148,7.956 0,3.459 -1.037,6.097 -3.107,7.912 -2.07,1.815 -5.262,2.722 -9.571,2.722 H 0 Z m -6.381,-31.14 c -0.624,0 -1.105,0.183 -1.447,0.553 -0.339,0.369 -0.51,0.836 -0.51,1.404 v 55.56 c 0,0.623 0.171,1.119 0.51,1.489 0.342,0.369 0.823,0.554 1.447,0.554 H 14.38 c 6.41,0 11.486,-1.504 15.229,-4.511 3.745,-3.006 5.616,-7.459 5.616,-13.357 0,-4.368 -1.093,-7.928 -3.274,-10.68 -2.185,-2.751 -5.149,-4.665 -8.892,-5.743 l 13.102,-22.631 c 0.171,-0.342 0.256,-0.653 0.256,-0.936 0,-0.455 -0.184,-0.852 -0.552,-1.192 -0.37,-0.339 -0.782,-0.51 -1.235,-0.51 h -4.084 c -0.965,0 -1.673,0.255 -2.126,0.765 -0.455,0.511 -0.852,1.021 -1.191,1.531 L 14.89,-7.231 H 0 v -21.952 c 0,-0.568 -0.183,-1.035 -0.551,-1.404 -0.371,-0.37 -0.867,-0.553 -1.49,-0.553 z" /></g></g></g></g></svg>