<svg width="338" height="153" viewBox="0 0 338 153" fill="none" xmlns="http://www.w3.org/2000/svg">
<path d="M112.682 60.528L90.9972 98.0705L83.6344 85.3178L107.688 44.7381C107.713 44.6944 107.736 44.65 107.759 44.6056C107.776 44.5727 107.793 44.5398 107.811 44.5072L112.682 52.9432C114.032 55.2822 114.032 58.1885 112.682 60.528ZM123.963 80.0678L102.344 117.513C102.333 117.531 102.322 117.547 102.31 117.564C102.299 117.579 102.288 117.594 102.279 117.61L94.8115 104.677L118.989 63.8667L123.963 72.4832C125.314 74.8222 125.314 77.7285 123.963 80.0678ZM52.5389 121.305C49.8372 121.305 47.3204 119.852 45.97 117.513L40.9953 108.896L88.4254 108.364L95.8921 121.297C95.8735 121.297 95.855 121.299 95.8365 121.301C95.8167 121.302 95.7968 121.304 95.7767 121.305L52.5389 121.305ZM29.8181 89.5366L77.2483 89.0046L84.6108 101.757L41.2576 101.765C38.5558 101.765 36.039 100.312 34.6886 97.9726L29.8181 89.5366ZM24.3519 72.4832L26.1091 69.4396L66.6 70.5612L73.4336 82.3973C73.415 82.3976 73.3965 82.3994 73.3779 82.4012C73.3581 82.4032 73.3383 82.4051 73.3181 82.4052L30.0804 82.4052C27.6618 82.4053 25.3983 81.2349 23.9802 79.3125C23.0244 77.1232 23.1425 74.5778 24.3519 72.4832ZM45.9708 35.0382C45.981 35.0208 45.9926 35.0046 46.0041 34.9884C46.015 34.9733 46.0258 34.9581 46.0353 34.9422L62.2717 63.0644L30.3013 62.1787L45.9708 35.0382ZM48.7493 32.2649L48.7465 32.2666L48.7479 32.2655L48.7493 32.2649ZM83.9093 31.2466L68.661 59.3832L52.4209 31.2545C52.4397 31.2543 52.4583 31.2525 52.4769 31.2507C52.4971 31.2487 52.5173 31.2467 52.5378 31.2468L83.9093 31.2466ZM101.876 34.3392C102.832 36.5285 102.714 39.0739 101.504 41.1685L79.8851 78.6138C79.8749 78.6315 79.8631 78.6481 79.8513 78.6646C79.8404 78.6797 79.8296 78.6949 79.82 78.7111L72.9873 66.8766L92.2972 31.2465L95.776 31.2465C98.1947 31.2464 100.458 32.4168 101.876 34.3392ZM107.599 30.0661C104.844 26.3565 100.455 24.1063 95.7765 24.1064L52.5388 24.1064C47.2955 24.1065 42.4099 26.9264 39.7871 31.4686L18.1682 68.9136C15.8289 72.9651 15.5829 77.8912 17.4179 82.1319C17.4179 82.1319 18.0276 83.3939 18.1682 83.6374L39.7871 121.082C42.4087 125.623 47.2945 128.444 52.5384 128.445L95.7762 128.445C98.3985 128.444 100.93 127.739 103.135 126.466C105.34 125.193 107.217 123.353 108.528 121.082L130.147 83.6374C132.768 79.0958 132.768 73.454 130.147 68.9133L108.528 31.4683C108.387 31.2248 107.599 30.0661 107.599 30.0661Z" fill="#00A82D"/>
<path d="M112.682 60.528L90.9972 98.0705L83.6344 85.3178L107.688 44.7381C107.713 44.6944 107.736 44.65 107.759 44.6056C107.776 44.5727 107.793 44.5398 107.811 44.5072L112.682 52.9432C114.032 55.2822 114.032 58.1885 112.682 60.528ZM123.963 80.0678L102.344 117.513C102.333 117.531 102.322 117.547 102.31 117.564C102.299 117.579 102.288 117.594 102.279 117.61L94.8115 104.677L118.989 63.8667L123.963 72.4832C125.314 74.8222 125.314 77.7285 123.963 80.0678ZM52.5389 121.305C49.8372 121.305 47.3204 119.852 45.97 117.513L40.9953 108.896L88.4254 108.364L95.8921 121.297C95.8735 121.297 95.855 121.299 95.8365 121.301C95.8167 121.302 95.7968 121.304 95.7767 121.305L52.5389 121.305ZM29.8181 89.5366L77.2483 89.0046L84.6108 101.757L41.2576 101.765C38.5558 101.765 36.039 100.312 34.6886 97.9726L29.8181 89.5366ZM24.3519 72.4832L26.1091 69.4396L66.6 70.5612L73.4336 82.3973C73.415 82.3976 73.3965 82.3994 73.3779 82.4012C73.3581 82.4032 73.3383 82.4051 73.3181 82.4052L30.0804 82.4052C27.6618 82.4053 25.3983 81.2349 23.9802 79.3125C23.0244 77.1232 23.1425 74.5778 24.3519 72.4832ZM45.9708 35.0382C45.981 35.0208 45.9926 35.0046 46.0041 34.9884C46.015 34.9733 46.0258 34.9581 46.0353 34.9422L62.2717 63.0644L30.3013 62.1787L45.9708 35.0382ZM48.7493 32.2649L48.7465 32.2666L48.7479 32.2655L48.7493 32.2649ZM83.9093 31.2466L68.661 59.3832L52.4209 31.2545C52.4397 31.2543 52.4583 31.2525 52.4769 31.2507C52.4971 31.2487 52.5173 31.2467 52.5378 31.2468L83.9093 31.2466ZM101.876 34.3392C102.832 36.5285 102.714 39.0739 101.504 41.1685L79.8851 78.6138C79.8749 78.6315 79.8631 78.6481 79.8513 78.6646C79.8404 78.6797 79.8296 78.6949 79.82 78.7111L72.9873 66.8766L92.2972 31.2465L95.776 31.2465C98.1947 31.2464 100.458 32.4168 101.876 34.3392ZM107.599 30.0661C104.844 26.3565 100.455 24.1063 95.7765 24.1064L52.5388 24.1064C47.2955 24.1065 42.4099 26.9264 39.7871 31.4686L18.1682 68.9136C15.8289 72.9651 15.5829 77.8912 17.4179 82.1319C17.4179 82.1319 18.0276 83.3939 18.1682 83.6374L39.7871 121.082C42.4087 125.623 47.2945 128.444 52.5384 128.445L95.7762 128.445C98.3985 128.444 100.93 127.739 103.135 126.466C105.34 125.193 107.217 123.353 108.528 121.082L130.147 83.6374C132.768 79.0958 132.768 73.454 130.147 68.9133L108.528 31.4683C108.387 31.2248 107.599 30.0661 107.599 30.0661Z" stroke="#00A82D"/>
<path d="M159.175 64.56V56.06H174.05C176.09 56.06 177.875 55.6633 179.405 54.87C180.992 54.02 182.238 52.8583 183.145 51.385C184.052 49.855 184.505 48.07 184.505 46.03C184.505 43.99 184.052 42.2333 183.145 40.76C182.238 39.23 180.992 38.0683 179.405 37.275C177.875 36.425 176.09 36 174.05 36H159.175V27.5H174.56C178.3 27.5 181.643 28.265 184.59 29.795C187.593 31.325 189.945 33.4783 191.645 36.255C193.402 39.0317 194.28 42.29 194.28 46.03C194.28 49.77 193.402 53.0283 191.645 55.805C189.945 58.5817 187.593 60.735 184.59 62.265C181.643 63.795 178.3 64.56 174.56 64.56H159.175ZM152.46 87V27.5H162.235V87H152.46ZM217.577 87.85C213.893 87.85 210.55 86.915 207.547 85.045C204.6 83.175 202.248 80.6533 200.492 77.48C198.792 74.25 197.942 70.6517 197.942 66.685C197.942 62.6617 198.792 59.0633 200.492 55.89C202.248 52.66 204.6 50.11 207.547 48.24C210.55 46.3133 213.893 45.35 217.577 45.35C220.693 45.35 223.442 46.03 225.822 47.39C228.258 48.6933 230.185 50.5067 231.602 52.83C233.018 55.1533 233.727 57.7883 233.727 60.735V72.465C233.727 75.4117 233.018 78.0467 231.602 80.37C230.242 82.6933 228.343 84.535 225.907 85.895C223.47 87.1983 220.693 87.85 217.577 87.85ZM219.107 79.01C222.563 79.01 225.34 77.8483 227.437 75.525C229.59 73.2017 230.667 70.2267 230.667 66.6C230.667 64.1633 230.185 62.01 229.222 60.14C228.258 58.27 226.898 56.825 225.142 55.805C223.442 54.7283 221.43 54.19 219.107 54.19C216.84 54.19 214.828 54.7283 213.072 55.805C211.372 56.825 210.012 58.27 208.992 60.14C208.028 62.01 207.547 64.1633 207.547 66.6C207.547 69.0367 208.028 71.19 208.992 73.06C210.012 74.93 211.372 76.4033 213.072 77.48C214.828 78.5 216.84 79.01 219.107 79.01ZM230.072 87V76.035L231.687 66.09L230.072 56.23V46.2H239.422V87H230.072ZM249.798 87V25.8H259.148V87H249.798ZM269.554 87V46.2H278.904V87H269.554ZM296.669 87V62.69C296.669 59.97 295.819 57.8733 294.119 56.4C292.419 54.87 290.322 54.105 287.829 54.105C286.129 54.105 284.599 54.445 283.239 55.125C281.936 55.805 280.887 56.7967 280.094 58.1C279.301 59.3467 278.904 60.8767 278.904 62.69L275.249 60.65C275.249 57.5333 275.929 54.8417 277.289 52.575C278.649 50.3083 280.491 48.5517 282.814 47.305C285.137 46.0017 287.744 45.35 290.634 45.35C293.524 45.35 296.131 45.9733 298.454 47.22C300.777 48.4667 302.619 50.2233 303.979 52.49C305.339 54.7567 306.019 57.4767 306.019 60.65V87H296.669ZM323.784 87V62.69C323.784 59.97 322.934 57.8733 321.234 56.4C319.534 54.87 317.437 54.105 314.944 54.105C313.301 54.105 311.799 54.445 310.439 55.125C309.079 55.805 308.002 56.7967 307.209 58.1C306.416 59.3467 306.019 60.8767 306.019 62.69L300.749 60.65C301.032 57.5333 301.939 54.8417 303.469 52.575C304.999 50.3083 306.954 48.5517 309.334 47.305C311.771 46.0017 314.434 45.35 317.324 45.35C320.271 45.35 322.934 45.9733 325.314 47.22C327.694 48.4667 329.592 50.2233 331.009 52.49C332.426 54.7567 333.134 57.4767 333.134 60.65V87H323.784Z" fill="#00A82D"/>
<path d="M162.544 130.37C161.138 130.37 159.794 130.197 158.511 129.852C157.253 129.482 156.131 128.939 155.144 128.224C154.157 127.509 153.368 126.621 152.776 125.56C152.209 124.499 151.9 123.266 151.851 121.86C151.851 121.638 151.925 121.453 152.073 121.305C152.221 121.132 152.418 121.046 152.665 121.046H157.66C158.005 121.046 158.264 121.132 158.437 121.305C158.634 121.478 158.795 121.737 158.918 122.082C159.041 122.773 159.276 123.34 159.621 123.784C159.966 124.203 160.398 124.524 160.916 124.746C161.459 124.943 162.063 125.042 162.729 125.042C163.962 125.042 164.912 124.647 165.578 123.858C166.244 123.044 166.577 121.86 166.577 120.306V109.613H154.589C154.342 109.613 154.12 109.527 153.923 109.354C153.75 109.181 153.664 108.959 153.664 108.688V105.025C153.664 104.754 153.75 104.532 153.923 104.359C154.12 104.186 154.342 104.1 154.589 104.1H172.497C172.768 104.1 172.99 104.186 173.163 104.359C173.36 104.532 173.459 104.754 173.459 105.025V120.491C173.459 122.637 172.99 124.45 172.053 125.93C171.116 127.385 169.833 128.495 168.205 129.26C166.577 130 164.69 130.37 162.544 130.37ZM188.959 130.37C186.69 130.37 184.716 130 183.039 129.26C181.362 128.52 180.054 127.41 179.117 125.93C178.18 124.425 177.662 122.551 177.563 120.306C177.538 119.245 177.526 118.185 177.526 117.124C177.526 116.063 177.538 114.99 177.563 113.905C177.662 111.685 178.18 109.823 179.117 108.318C180.079 106.789 181.399 105.642 183.076 104.877C184.753 104.112 186.714 103.73 188.959 103.73C191.179 103.73 193.128 104.112 194.805 104.877C196.507 105.642 197.839 106.789 198.801 108.318C199.763 109.823 200.281 111.685 200.355 113.905C200.404 114.99 200.429 116.063 200.429 117.124C200.429 118.185 200.404 119.245 200.355 120.306C200.256 122.551 199.738 124.425 198.801 125.93C197.864 127.41 196.556 128.52 194.879 129.26C193.202 130 191.228 130.37 188.959 130.37ZM188.959 125.042C190.266 125.042 191.327 124.647 192.141 123.858C192.98 123.069 193.424 121.811 193.473 120.084C193.522 118.999 193.547 117.975 193.547 117.013C193.547 116.051 193.522 115.052 193.473 114.016C193.424 112.857 193.202 111.919 192.807 111.204C192.437 110.464 191.919 109.921 191.253 109.576C190.587 109.231 189.822 109.058 188.959 109.058C188.12 109.058 187.368 109.231 186.702 109.576C186.036 109.921 185.506 110.464 185.111 111.204C184.716 111.919 184.494 112.857 184.445 114.016C184.42 115.052 184.408 116.051 184.408 117.013C184.408 117.975 184.42 118.999 184.445 120.084C184.519 121.811 184.963 123.069 185.777 123.858C186.591 124.647 187.652 125.042 188.959 125.042ZM205.643 130C205.372 130 205.15 129.914 204.977 129.741C204.804 129.568 204.718 129.346 204.718 129.075V105.025C204.718 104.754 204.804 104.532 204.977 104.359C205.15 104.186 205.372 104.1 205.643 104.1H216.928C219.049 104.1 220.788 104.396 222.145 104.988C223.502 105.58 224.501 106.431 225.142 107.541C225.808 108.626 226.141 109.921 226.141 111.426C226.141 112.314 225.968 113.103 225.623 113.794C225.302 114.46 224.895 115.015 224.402 115.459C223.933 115.903 223.489 116.224 223.07 116.421C224.007 116.865 224.834 117.593 225.549 118.604C226.289 119.615 226.659 120.799 226.659 122.156C226.659 123.784 226.289 125.19 225.549 126.374C224.834 127.533 223.773 128.434 222.367 129.075C220.986 129.692 219.284 130 217.261 130H205.643ZM211.341 125.19H216.521C217.582 125.19 218.383 124.882 218.926 124.265C219.469 123.648 219.74 122.945 219.74 122.156C219.74 121.293 219.456 120.565 218.889 119.973C218.346 119.381 217.557 119.085 216.521 119.085H211.341V125.19ZM211.341 114.386H216.188C217.199 114.386 217.952 114.127 218.445 113.609C218.963 113.091 219.222 112.425 219.222 111.611C219.222 110.822 218.963 110.18 218.445 109.687C217.952 109.169 217.199 108.91 216.188 108.91H211.341V114.386ZM240.427 130.37C237.96 130.37 235.913 130.025 234.285 129.334C232.657 128.619 231.423 127.694 230.585 126.559C229.746 125.424 229.302 124.216 229.253 122.933C229.253 122.736 229.327 122.563 229.475 122.415C229.647 122.242 229.845 122.156 230.067 122.156H234.729C235.074 122.156 235.333 122.218 235.506 122.341C235.703 122.464 235.876 122.625 236.024 122.822C236.221 123.192 236.492 123.55 236.838 123.895C237.208 124.24 237.676 124.524 238.244 124.746C238.836 124.943 239.563 125.042 240.427 125.042C241.857 125.042 242.93 124.82 243.646 124.376C244.386 123.932 244.756 123.328 244.756 122.563C244.756 122.02 244.558 121.576 244.164 121.231C243.769 120.861 243.128 120.54 242.24 120.269C241.376 119.973 240.217 119.677 238.762 119.381C236.887 118.986 235.284 118.481 233.952 117.864C232.644 117.223 231.645 116.396 230.955 115.385C230.264 114.349 229.919 113.066 229.919 111.537C229.919 110.032 230.338 108.688 231.177 107.504C232.04 106.32 233.236 105.395 234.766 104.729C236.295 104.063 238.108 103.73 240.205 103.73C241.907 103.73 243.399 103.952 244.682 104.396C245.989 104.84 247.087 105.432 247.975 106.172C248.863 106.912 249.529 107.701 249.973 108.54C250.441 109.354 250.688 110.156 250.713 110.945C250.713 111.142 250.639 111.327 250.491 111.5C250.343 111.648 250.158 111.722 249.936 111.722H245.052C244.78 111.722 244.546 111.673 244.349 111.574C244.151 111.475 243.979 111.315 243.831 111.093C243.683 110.55 243.288 110.082 242.647 109.687C242.03 109.268 241.216 109.058 240.205 109.058C239.119 109.058 238.268 109.255 237.652 109.65C237.06 110.02 236.764 110.6 236.764 111.389C236.764 111.882 236.924 112.314 237.245 112.684C237.59 113.054 238.145 113.375 238.91 113.646C239.699 113.917 240.772 114.201 242.129 114.497C244.373 114.916 246.186 115.447 247.568 116.088C248.949 116.705 249.96 117.519 250.602 118.53C251.243 119.517 251.564 120.762 251.564 122.267C251.564 123.944 251.083 125.4 250.121 126.633C249.183 127.842 247.876 128.767 246.199 129.408C244.521 130.049 242.597 130.37 240.427 130.37Z" fill="#00A82D"/>
</svg>
