<svg width="835" height="419" viewBox="0 0 835 419" fill="none" xmlns="http://www.w3.org/2000/svg">
<mask id="mask0_345_538" style="mask-type:alpha" maskUnits="userSpaceOnUse" x="0" y="0" width="835" height="419">
<rect width="835" height="419" fill="#D9D9D9"/>
</mask>
<g mask="url(#mask0_345_538)">
<g opacity="0.6">
<circle cx="337.32" cy="453.558" r="353.585" transform="rotate(-37.1167 337.32 453.558)" fill="#00A82D" fill-opacity="0.1"/>
<circle cx="279.569" cy="407.157" r="276.073" transform="rotate(-37.1167 279.569 407.157)" fill="#00A82D" fill-opacity="0.1"/>
</g>
<path d="M788.001 309.606H784.133V379.824H788.001V309.606Z" fill="#F3F5FD"/>
<path d="M783.899 262.222C796.362 262.222 806.466 252.107 806.466 239.63C806.466 227.153 796.362 217.038 783.899 217.038C771.436 217.038 761.332 227.153 761.332 239.63C761.332 252.107 771.436 262.222 783.899 262.222Z" fill="#F3F5FD"/>
<path d="M797.079 325.229C808.209 325.229 817.232 316.196 817.232 305.054C817.232 293.912 808.209 284.879 797.079 284.879C785.949 284.879 776.926 293.912 776.926 305.054C776.926 316.196 785.949 325.229 797.079 325.229Z" fill="#F3F5FD"/>
<path d="M773.061 326.593C784.944 326.593 794.577 316.949 794.577 305.053C794.577 293.157 784.944 283.514 773.061 283.514C761.178 283.514 751.545 293.157 751.545 305.053C751.545 316.949 761.178 326.593 773.061 326.593Z" fill="#F3F5FD"/>
<path d="M799.875 280.329C809.864 280.329 817.962 272.222 817.962 262.222C817.962 252.222 809.864 244.115 799.875 244.115C789.886 244.115 781.788 252.222 781.788 262.222C781.788 272.222 789.886 280.329 799.875 280.329Z" fill="#F3F5FD"/>
<path d="M786.066 291.206C796.056 291.206 804.153 283.1 804.153 273.099C804.153 263.099 796.056 254.993 786.066 254.993C776.077 254.993 767.979 263.099 767.979 273.099C767.979 283.1 776.077 291.206 786.066 291.206Z" fill="#F3F5FD"/>
<path d="M807.613 298.435C817.602 298.435 825.7 290.329 825.7 280.328C825.7 270.328 817.602 262.222 807.613 262.222C797.624 262.222 789.526 270.328 789.526 280.328C789.526 290.329 797.624 298.435 807.613 298.435Z" fill="#F3F5FD"/>
<path d="M763.7 279.684C773.689 279.684 781.787 271.578 781.787 261.577C781.787 251.577 773.689 243.471 763.7 243.471C753.711 243.471 745.613 251.577 745.613 261.577C745.613 271.578 753.711 279.684 763.7 279.684Z" fill="#F3F5FD"/>
<path d="M763.7 302.15C773.689 302.15 781.787 294.044 781.787 284.044C781.787 274.043 773.689 265.937 763.7 265.937C753.711 265.937 745.613 274.043 745.613 284.044C745.613 294.044 753.711 302.15 763.7 302.15Z" fill="#F3F5FD"/>
<path d="M504.909 332.688H501.041V402.907H504.909V332.688Z" fill="#F3F5FD"/>
<path d="M500.807 285.305C513.271 285.305 523.374 275.19 523.374 262.713C523.374 250.236 513.271 240.121 500.807 240.121C488.344 240.121 478.24 250.236 478.24 262.713C478.24 275.19 488.344 285.305 500.807 285.305Z" fill="#F3F5FD"/>
<path d="M513.988 348.313C525.118 348.313 534.141 339.28 534.141 328.138C534.141 316.995 525.118 307.963 513.988 307.963C502.858 307.963 493.835 316.995 493.835 328.138C493.835 339.28 502.858 348.313 513.988 348.313Z" fill="#F3F5FD"/>
<path d="M489.969 349.677C501.852 349.677 511.485 340.034 511.485 328.138C511.485 316.242 501.852 306.598 489.969 306.598C478.086 306.598 468.453 316.242 468.453 328.138C468.453 340.034 478.086 349.677 489.969 349.677Z" fill="#F3F5FD"/>
<path d="M516.783 303.412C526.772 303.412 534.87 295.305 534.87 285.305C534.87 275.305 526.772 267.198 516.783 267.198C506.794 267.198 498.696 275.305 498.696 285.305C498.696 295.305 506.794 303.412 516.783 303.412Z" fill="#F3F5FD"/>
<path d="M502.976 314.289C512.965 314.289 521.063 306.183 521.063 296.182C521.063 286.182 512.965 278.076 502.976 278.076C492.986 278.076 484.889 286.182 484.889 296.182C484.889 306.183 492.986 314.289 502.976 314.289Z" fill="#F3F5FD"/>
<path d="M524.522 321.519C534.511 321.519 542.608 313.413 542.608 303.412C542.608 293.412 534.511 285.306 524.522 285.306C514.532 285.306 506.435 293.412 506.435 303.412C506.435 313.413 514.532 321.519 524.522 321.519Z" fill="#F3F5FD"/>
<path d="M480.608 302.767C490.598 302.767 498.695 294.661 498.695 284.661C498.695 274.66 490.598 266.554 480.608 266.554C470.619 266.554 462.521 274.66 462.521 284.661C462.521 294.661 470.619 302.767 480.608 302.767Z" fill="#F3F5FD"/>
<path d="M480.608 325.233C490.598 325.233 498.695 317.127 498.695 307.127C498.695 297.126 490.598 289.02 480.608 289.02C470.619 289.02 462.521 297.126 462.521 307.127C462.521 317.127 470.619 325.233 480.608 325.233Z" fill="#F3F5FD"/>
<path d="M640.617 284.355H634.5V395.373H640.617V284.355Z" fill="#DEE8F5"/>
<path d="M634.13 209.437C653.835 209.437 669.809 193.446 669.809 173.719C669.809 153.992 653.835 138 634.13 138C614.424 138 598.45 153.992 598.45 173.719C598.45 193.446 614.424 209.437 634.13 209.437Z" fill="#00A82D"/>
<path d="M654.968 309.055C672.565 309.055 686.83 294.774 686.83 277.158C686.83 259.541 672.565 245.26 654.968 245.26C637.371 245.26 623.105 259.541 623.105 277.158C623.105 294.774 637.371 309.055 654.968 309.055Z" fill="#00A82D"/>
<path d="M616.995 311.213C635.783 311.213 651.013 295.966 651.013 277.158C651.013 258.35 635.783 243.103 616.995 243.103C598.208 243.103 582.978 258.35 582.978 277.158C582.978 295.966 598.208 311.213 616.995 311.213Z" fill="#00A82D"/>
<path d="M659.389 238.066C675.183 238.066 687.986 225.248 687.986 209.437C687.986 193.626 675.183 180.809 659.389 180.809C643.595 180.809 630.792 193.626 630.792 209.437C630.792 225.248 643.595 238.066 659.389 238.066Z" fill="#00A82D"/>
<path d="M637.557 255.264C653.351 255.264 666.154 242.447 666.154 226.636C666.154 210.825 653.351 198.007 637.557 198.007C621.763 198.007 608.96 210.825 608.96 226.636C608.96 242.447 621.763 255.264 637.557 255.264Z" fill="#00A82D"/>
<path d="M671.622 266.694C687.415 266.694 700.219 253.877 700.219 238.066C700.219 222.255 687.415 209.437 671.622 209.437C655.828 209.437 643.024 222.255 643.024 238.066C643.024 253.877 655.828 266.694 671.622 266.694Z" fill="#00A82D"/>
<path d="M602.195 237.048C617.989 237.048 630.792 224.231 630.792 208.42C630.792 192.608 617.989 179.791 602.195 179.791C586.401 179.791 573.598 192.608 573.598 208.42C573.598 224.231 586.401 237.048 602.195 237.048Z" fill="#00A82D"/>
<path d="M602.195 272.569C617.989 272.569 630.792 259.751 630.792 243.94C630.792 228.129 617.989 215.311 602.195 215.311C586.401 215.311 573.598 228.129 573.598 243.94C573.598 259.751 586.401 272.569 602.195 272.569Z" fill="#00A82D"/>
<path d="M286.151 279.924H281.568V363.104H286.151V279.924Z" fill="#DEE8F5"/>
<path d="M281.291 223.793C296.055 223.793 308.023 211.811 308.023 197.031C308.023 182.251 296.055 170.269 281.291 170.269C266.527 170.269 254.559 182.251 254.559 197.031C254.559 211.811 266.527 223.793 281.291 223.793Z" fill="#00A82D"/>
<path d="M296.904 298.431C310.089 298.431 320.778 287.731 320.778 274.532C320.778 261.333 310.089 250.633 296.904 250.633C283.72 250.633 273.031 261.333 273.031 274.532C273.031 287.731 283.72 298.431 296.904 298.431Z" fill="#00A82D"/>
<path d="M268.452 300.048C282.529 300.048 293.94 288.624 293.94 274.532C293.94 260.44 282.529 249.017 268.452 249.017C254.376 249.017 242.965 260.44 242.965 274.532C242.965 288.624 254.376 300.048 268.452 300.048Z" fill="#00A82D"/>
<path d="M300.217 245.243C312.05 245.243 321.643 235.639 321.643 223.793C321.643 211.946 312.05 202.343 300.217 202.343C288.383 202.343 278.79 211.946 278.79 223.793C278.79 235.639 288.383 245.243 300.217 245.243Z" fill="#00A82D"/>
<path d="M283.859 258.13C295.693 258.13 305.286 248.526 305.286 236.68C305.286 224.833 295.693 215.229 283.859 215.229C272.026 215.229 262.433 224.833 262.433 236.68C262.433 248.526 272.026 258.13 283.859 258.13Z" fill="#00A82D"/>
<path d="M309.382 266.693C321.215 266.693 330.808 257.09 330.808 245.243C330.808 233.396 321.215 223.793 309.382 223.793C297.548 223.793 287.955 233.396 287.955 245.243C287.955 257.09 297.548 266.693 309.382 266.693Z" fill="#00A82D"/>
<path d="M257.364 244.48C269.198 244.48 278.79 234.877 278.79 223.03C278.79 211.184 269.198 201.58 257.364 201.58C245.53 201.58 235.938 211.184 235.938 223.03C235.938 234.877 245.53 244.48 257.364 244.48Z" fill="#00A82D"/>
<path d="M257.364 271.094C269.198 271.094 278.79 261.49 278.79 249.644C278.79 237.797 269.198 228.194 257.364 228.194C245.53 228.194 235.938 237.797 235.938 249.644C235.938 261.49 245.53 271.094 257.364 271.094Z" fill="#00A82D"/>
<path d="M607.571 417.878H827.182C850.182 398.5 816.305 365.92 804.022 388.471C811.351 375.018 813.301 357.969 798.076 346.995C782.121 338.294 762.912 348.241 759.972 363.978C763.882 343.022 745.251 322.138 724.515 317.389C671.293 305.21 659.427 359.789 664.25 368.372C650.192 343.363 592.074 374.224 607.571 417.878Z" fill="#C1D8ED"/>
<path d="M184.682 417.879H421.812C434.675 383.081 396.023 365.92 383.734 388.471C391.064 375.019 393.013 357.969 377.789 346.995C361.833 338.294 342.625 348.241 339.685 363.979C343.596 343.023 324.964 322.138 304.228 317.389C251.006 305.21 239.14 359.789 243.963 368.372C213.72 352.497 184.682 373.1 184.682 417.879Z" fill="#C1D8ED"/>
<path d="M524.376 417.879H666.298C676.709 409.561 677.427 390.821 666.636 382.454C658.318 376.004 645.745 377.729 637.928 384.437C639.389 379.443 639.418 374.139 638.011 369.129C635.469 360.107 629.818 350.941 621.191 347.292C599.175 337.992 583.531 357.478 580.396 368.373C574.759 360.078 562.148 355.688 554.234 361.275C544.208 368.35 544.661 379.505 552.66 387.512C542.003 385.523 533.977 387.057 526.591 394.999C520.96 401.044 520.099 411.346 524.376 417.879Z" fill="#C1D8ED"/>
<path d="M536.541 417.879H392.95C385.075 396.573 408.738 386.066 416.261 399.873C411.774 391.637 410.582 381.198 419.901 374.477C429.67 369.15 441.43 375.24 443.231 384.876C440.835 372.045 452.243 359.259 464.94 356.355C497.525 348.899 504.787 382.315 501.838 387.568C510.445 372.256 546.029 391.149 536.541 417.879Z" fill="#C1D8ED"/>
</g>
</svg>
