<svg width="413" height="138" viewBox="0 0 413 138" fill="none" xmlns="http://www.w3.org/2000/svg">
<path d="M377.084 86.1594C382.968 86.0587 398.052 85.8069 403.735 85.7465L412.511 85.7062L412.047 86.1695L412.007 74.901L412.511 75.4045C406.626 75.3843 391.623 75.334 385.941 75.2534L377.084 75.1426L377.326 74.901L377.084 86.1594ZM377.084 86.1594L376.842 74.8909L376.832 74.6593H377.074C381.497 74.5988 390.364 74.4981 394.787 74.4679L412.501 74.3975H413.004V74.901L412.964 86.1695V86.6327H412.511L403.573 86.5924C397.921 86.5119 382.908 86.2601 377.084 86.1594Z" fill="#EBEBEB"/>
<path d="M286.749 112.332H404.396L408.184 37.7222H282.961L286.749 112.332Z" fill="#EBEBEB"/>
<path d="M291.223 46.4329H396.949L395.347 71.4169H292.593L291.223 46.4329Z" stroke="#DBDBDB" stroke-miterlimit="10"/>
<path d="M294.457 78.748L295.575 101.215H393.946L395.347 78.748H294.457Z" stroke="#DBDBDB" stroke-miterlimit="10"/>
<path d="M355.487 61.2762H334.328L333.633 55.939H356.173L355.487 61.2762Z" stroke="#DBDBDB" stroke-miterlimit="10"/>
<path d="M355.487 92.6445H334.328L333.633 87.3174H356.173L355.487 92.6445Z" stroke="#DBDBDB" stroke-miterlimit="10"/>
<path d="M303.063 112.332L301.924 120.459L299.627 136.792H295.133V112.332H303.063Z" fill="#EBEBEB"/>
<path d="M303.063 112.332L301.924 120.459H295.133V112.332H303.063Z" fill="#DBDBDB"/>
<path d="M388.082 112.332L389.231 120.459L391.528 136.792H396.022V112.332H388.082Z" fill="#EBEBEB"/>
<path d="M388.082 112.332L389.231 120.459H396.022V112.332H388.082Z" fill="#DBDBDB"/>
<path d="M357.081 25.0237C357.907 30.6629 357.595 36.4835 356.225 42.0019C355.58 44.59 354.693 47.0773 353.625 49.5042C352.275 52.6058 350.864 55.647 351.197 59.0407C351.529 59.2622 350.401 59.2219 350.36 58.8896C341.272 53.7236 329.614 52.7669 322.622 44.3181C319.307 40.3101 317.634 35.2348 316.848 30.1594C315.992 24.6309 315.75 18.5082 317.181 13.0703C318.38 8.4582 321.08 4.01727 325.413 1.76156C329.886 -0.564651 335.74 -0.373322 340.446 1.09692C350.592 4.24889 355.64 15.2052 357.081 25.0237Z" fill="#00A82D"/>
<path d="M361.747 92.2623C360.508 88.1336 359.269 83.9947 357.999 79.876C355.5 71.7997 352.911 63.7637 350.039 55.8083C348.316 51.0451 346.503 46.3323 344.598 41.6597C344.921 38.7293 345.052 35.7989 345.686 32.8786C346.442 29.354 347.55 25.9604 348.578 22.5063C348.639 22.2948 348.296 22.184 348.215 22.3854C346.17 27.1285 343.51 33.2109 343.45 38.83C341.233 33.5432 338.855 28.3369 336.306 23.2011C336.165 18.8307 336.003 14.5911 336.709 10.1905C336.739 9.98907 336.437 9.92865 336.406 10.1301C335.721 13.8258 335.248 17.7935 335.52 21.6201C333.565 17.7632 331.51 13.9567 329.323 10.2106C329.122 9.86821 328.658 10.2207 328.829 10.553C332.245 17.1288 335.409 23.8355 338.381 30.6329C334.26 26.9875 329.283 24.2182 324.134 22.3854C323.912 22.3049 323.741 22.6271 323.963 22.7278C329.817 25.1749 334.734 28.6289 339.379 32.9289C341.515 37.9036 343.55 42.9286 345.485 47.9838C339.802 42.415 332.013 38.7495 324.487 36.7858C324.235 36.7153 324.164 37.108 324.406 37.1886C333.122 39.8068 339.883 44.7412 346.513 50.6725C347.278 52.7168 348.034 54.7711 348.78 56.8153C351.591 64.5996 354.251 72.4342 356.8 80.309C358.019 84.0854 359.228 87.8616 360.407 91.648C361.677 95.7264 362.674 100.026 364.327 103.954C364.488 104.326 365.163 104.246 365.072 103.793C364.307 99.9056 362.886 96.0689 361.747 92.2623Z" fill="#263238"/>
<path d="M346.674 17.0784C345.041 19.5758 343.963 22.3149 343.399 25.2352C343.389 25.3057 343.5 25.3561 343.53 25.2755C344.548 22.5264 345.737 19.8779 347.077 17.2697C347.208 17.0079 346.825 16.8367 346.674 17.0784Z" fill="#263238"/>
<path d="M330.462 36.0001C328.114 34.6607 324.991 33.6033 322.3 33.2509C322.23 33.2408 322.179 33.3516 322.26 33.3818C323.57 33.9256 324.95 34.3082 326.28 34.8118C327.61 35.3253 328.91 35.9497 330.26 36.4129C330.532 36.5136 330.724 36.1511 330.462 36.0001Z" fill="#263238"/>
<path d="M325.885 13.2315C325.059 12.6877 324.182 11.9828 323.265 11.6102C323.124 11.5498 322.993 11.731 323.114 11.8418C323.84 12.5165 324.857 13.0099 325.704 13.5134C325.865 13.6242 326.046 13.3422 325.885 13.2315Z" fill="#263238"/>
<path d="M387.718 55.8787C381.168 57.8223 374.589 59.6147 368.05 61.5381C367.485 61.7093 356.412 40.5217 360.412 29.5956C364.11 19.4952 372.574 11.9325 382.66 8.49858C387.335 6.9075 393.078 5.57823 398.015 6.6658C402.408 7.63254 405.502 11.2276 406.932 15.3564C408.877 20.9654 408.232 27.652 407.174 33.382C406.197 38.6889 404.252 43.9254 400.736 48.0945C397.25 52.2132 392.816 54.3682 387.718 55.8787Z" fill="#00A82D"/>
<path d="M397.198 35.7382C393.027 37.8429 388.805 39.3635 384.362 40.7834C381.581 41.6796 378.457 42.4852 375.797 43.8849C378.558 37.722 381.591 31.7 384.815 25.7184C389.047 24.4999 393.49 22.5865 396.684 19.5957C396.856 19.4346 396.634 19.1828 396.443 19.3238C392.956 21.791 389.107 23.2713 385.248 24.9329C386.125 23.3217 386.991 21.7205 387.888 20.1193C388.14 19.6763 387.525 19.2332 387.223 19.6662C383.797 24.6107 380.704 29.8572 377.923 35.275C377.228 30.4916 376.986 25.8392 377.248 20.9753C377.258 20.8545 377.077 20.8444 377.057 20.9652C376.251 26.1111 376.281 31.549 377.218 36.6848C374.921 41.2667 372.835 45.9594 370.951 50.7025C370.205 47.8526 369.238 45.043 368.583 42.163C367.656 38.0241 367.213 33.8047 367.646 29.5652C367.656 29.4443 367.474 29.4343 367.454 29.5551C366.185 37.0675 367.344 45.5365 370.205 52.6762C369.107 55.5361 368.069 58.4062 367.112 61.2761C362.225 75.9987 359.212 91.1745 358.426 106.662C358.406 107.025 358.94 107.055 358.98 106.703C360.764 91.5068 363.898 76.3713 368.734 61.8501C370.628 56.1504 372.815 50.6118 375.213 45.1739C379.082 44.036 382.931 42.4852 386.73 41.166C390.437 39.8871 394.236 38.3967 397.339 35.9698C397.47 35.859 397.339 35.6677 397.198 35.7382Z" fill="#263238"/>
<path d="M403.305 29.5751C399.305 30.995 395.506 32.9889 391.506 34.429C391.314 34.4994 391.425 34.7915 391.617 34.7512C395.849 33.8751 400.05 32.566 403.456 29.7967C403.587 29.706 403.446 29.5348 403.305 29.5751Z" fill="#263238"/>
<path d="M370.62 20.9454C370.67 20.7339 370.358 20.6131 370.297 20.8346C369.199 24.5203 368.443 28.4376 369.511 32.2038C369.552 32.3549 369.783 32.3549 369.793 32.1837C369.985 28.3872 369.773 24.6915 370.62 20.9454Z" fill="#263238"/>
<path d="M387.166 12.426C385.825 14.1379 385.342 16.5648 385.432 18.6997C385.443 18.8407 385.664 18.9212 385.705 18.7601C386.188 16.6454 387.004 14.732 387.659 12.6777C387.74 12.3756 387.357 12.1843 387.166 12.426Z" fill="#263238"/>
<path d="M309.853 65.2238C311.768 71.3062 316.332 79.7248 323.557 79.7953C328.242 79.8356 332.957 79.2817 337.643 79.2213C342.671 79.1407 347.709 79.1508 352.716 79.4529C353.129 79.4731 352.112 64.4182 340.041 57.077C336.655 55.0227 332.524 54.3681 328.685 53.5424C324.292 52.5857 319.768 51.9412 315.264 52.1426C312.493 52.2534 310.186 52.8375 309.198 55.6772C308.161 58.6479 308.936 62.3336 309.853 65.2238Z" fill="#00A82D"/>
<path d="M315.055 57.6108C317.987 58.3661 320.949 59.2321 323.892 60.1686C323.106 59.353 322.34 58.5272 321.453 57.7921C320.184 56.7448 318.793 55.8989 317.443 54.9825C317.332 54.902 317.393 54.6905 317.544 54.7408C320.224 55.7881 323.005 57.9935 324.667 60.4002C328.335 61.5885 331.972 62.8977 335.469 64.3276C337.947 65.3447 340.245 66.5632 342.391 67.973C341.625 66.4826 340.92 64.952 339.892 63.6227C338.29 61.5483 336.124 60.3902 334.018 58.9199C333.816 58.7789 333.988 58.497 334.209 58.5977C338.945 60.7024 341.827 64.1161 343.63 68.8088C346.109 70.5711 348.376 72.6355 350.482 75.0221C358.472 84.0954 364.769 96.1594 364.79 108.475C364.79 108.767 364.316 108.848 364.266 108.546C361.999 96.3105 357.162 85.3239 349.031 75.8277C348.457 75.1631 347.872 74.5287 347.278 73.9144C345.081 73.6828 342.905 73.3908 340.678 73.421C338.109 73.4613 335.559 73.8036 333 74.005C328.788 74.3474 324.123 74.3978 320.315 72.273C320.143 72.1823 320.264 71.8903 320.446 71.9608C328.919 75.0423 337.816 71.135 346.31 72.9678C342.683 69.4936 338.562 66.8754 333.776 64.8916C333.514 64.7808 333.252 64.6801 333 64.5794C327.559 65.2339 321.816 66.6538 316.516 64.8815C316.355 64.8311 316.425 64.5894 316.587 64.6297C321.705 65.9086 326.622 64.2974 331.67 64.0457C326.169 61.9007 320.567 60.1988 315.045 58.074C314.561 57.9028 314.551 57.4799 315.055 57.6108Z" fill="#263238"/>
<path d="M312.657 62.9579C315.317 63.3909 317.907 63.411 320.577 63.5621C320.637 63.5621 320.657 63.6628 320.587 63.6728C317.987 64.2569 315.136 63.8944 312.597 63.1593C312.466 63.119 312.526 62.9377 312.657 62.9579Z" fill="#263238"/>
<path d="M330.54 57.742C331.981 58.2455 333.331 59.464 334.46 60.471C334.601 60.5918 334.409 60.8436 334.258 60.7328C333.593 60.2494 332.908 59.7963 332.223 59.3532C331.598 58.9504 330.893 58.6281 330.318 58.1448C330.137 57.9836 330.329 57.6614 330.54 57.742Z" fill="#263238"/>
<path d="M344.488 96.9856L345.284 106.079L348.005 136.793H372.076L375.472 106.079L376.479 96.9856H344.488Z" fill="#37474F"/>
<path d="M344.488 96.9856L345.284 106.079H375.472L376.479 96.9856H344.488Z" fill="#263238"/>
<path d="M342.103 101.881H378.859V94.4994H342.103V101.881Z" fill="#37474F"/>
<path d="M0 136.792L51.0142 136.551L102.039 136.46L204.087 136.289L306.136 136.46L357.16 136.541L408.184 136.792L357.16 137.034L306.136 137.125L204.087 137.296L102.039 137.125L51.0142 137.034L0 136.792Z" fill="#263238"/>
</svg>
