<svg width="268" height="256" viewBox="0 0 268 256" fill="none" xmlns="http://www.w3.org/2000/svg">
<path d="M132.728 256C198.792 256 252.347 202.445 252.347 136.382C252.347 70.3183 198.792 16.7632 132.728 16.7632C66.6645 16.7632 13.1094 70.3183 13.1094 136.382C13.1094 202.445 66.6645 256 132.728 256Z" fill="#FAFAFA"/>
<path d="M197.265 44.5972H64.7523C56.4927 44.5972 49.7969 51.2929 49.7969 59.5526H212.22C212.22 51.2929 205.524 44.5972 197.265 44.5972Z" fill="#00A82D"/>
<path d="M49.7969 59.144H212.22V182.848C212.22 188.348 210.035 193.623 206.146 197.512C202.257 201.401 196.982 203.586 191.482 203.586H70.5345C65.0346 203.586 59.7599 201.401 55.8708 197.512C51.9817 193.623 49.7969 188.348 49.7969 182.848V59.144Z" fill="#FAFAFA"/>
<path d="M184.291 74.769H77.7593C75.5407 74.769 73.7422 76.5656 73.7422 78.7818C73.7422 80.998 75.5407 82.7946 77.7593 82.7946H184.291C186.509 82.7946 188.308 80.998 188.308 78.7818C188.308 76.5656 186.509 74.769 184.291 74.769Z" fill="#00A82D"/>
<path d="M184.291 108.867H77.7593C75.5407 108.867 73.7422 110.663 73.7422 112.879C73.7422 115.096 75.5407 116.892 77.7593 116.892H184.291C186.509 116.892 188.308 115.096 188.308 112.879C188.308 110.663 186.509 108.867 184.291 108.867Z" fill="#00A82D"/>
<path d="M184.291 142.964H77.7593C75.5407 142.964 73.7422 144.76 73.7422 146.977C73.7422 149.193 75.5407 150.989 77.7593 150.989H184.291C186.509 150.989 188.308 149.193 188.308 146.977C188.308 144.76 186.509 142.964 184.291 142.964Z" fill="#00A82D"/>
<path d="M184.291 177.061H77.7593C75.5407 177.061 73.7422 178.857 73.7422 181.073C73.7422 183.289 75.5407 185.086 77.7593 185.086H184.291C186.509 185.086 188.308 183.289 188.308 181.073C188.308 178.857 186.509 177.061 184.291 177.061Z" fill="#00A82D"/>
<g filter="url(#filter0_d_156_2009)">
<path d="M77.0326 135.65H20.3063C15.749 135.65 12.0547 139.344 12.0547 143.901V224.983C12.0547 229.54 15.749 233.234 20.3063 233.234H77.0326C81.5899 233.234 85.2842 229.54 85.2842 224.983V143.901C85.2842 139.344 81.5899 135.65 77.0326 135.65Z" fill="white"/>
</g>
<g filter="url(#filter1_d_156_2009)">
<path d="M238.513 9H175.857C172.937 9 170.57 11.3669 170.57 14.2866V43.7366C170.57 46.6563 172.937 49.0232 175.857 49.0232H238.513C241.433 49.0232 243.8 46.6563 243.8 43.7366V14.2866C243.8 11.3669 241.433 9 238.513 9Z" fill="#FAFAFA"/>
</g>
<path d="M70.6907 176.213H26.6243C25.1404 176.213 23.9375 177.416 23.9375 178.9V178.908C23.9375 180.392 25.1404 181.595 26.6243 181.595H70.6907C72.1745 181.595 73.3774 180.392 73.3774 178.908V178.9C73.3774 177.416 72.1745 176.213 70.6907 176.213Z" fill="#00A82D"/>
<path d="M70.7186 214.085H27.0309C25.5598 214.085 24.3672 215.25 24.3672 216.688V216.696C24.3672 218.134 25.5598 219.299 27.0309 219.299H70.7186C72.1897 219.299 73.3822 218.134 73.3822 216.696V216.688C73.3822 215.25 72.1897 214.085 70.7186 214.085Z" fill="#00A82D"/>
<path d="M70.7186 194.27H27.0309C25.5598 194.27 24.3672 195.435 24.3672 196.873V196.881C24.3672 198.319 25.5598 199.484 27.0309 199.484H70.7186C72.1897 199.484 73.3822 198.319 73.3822 196.881V196.873C73.3822 195.435 72.1897 194.27 70.7186 194.27Z" fill="#00A82D"/>
<path d="M42.7531 148.171H29.8758C27.0233 148.171 24.7109 150.483 24.7109 153.336V156.909C24.7109 159.762 27.0233 162.074 29.8758 162.074H42.7531C45.6056 162.074 47.918 159.762 47.918 156.909V153.336C47.918 150.483 45.6056 148.171 42.7531 148.171Z" fill="#FAFAFA"/>
<path d="M186.008 35.0853C189.364 35.0853 192.085 32.3642 192.085 29.0075C192.085 25.6508 189.364 22.9297 186.008 22.9297C182.651 22.9297 179.93 25.6508 179.93 29.0075C179.93 32.3642 182.651 35.0853 186.008 35.0853Z" fill="url(#paint0_linear_156_2009)"/>
<path d="M207.718 35.0853C211.075 35.0853 213.796 32.3642 213.796 29.0075C213.796 25.6508 211.075 22.9297 207.718 22.9297C204.362 22.9297 201.641 25.6508 201.641 29.0075C201.641 32.3642 204.362 35.0853 207.718 35.0853Z" fill="url(#paint1_linear_156_2009)"/>
<path d="M229.445 35.0853C232.802 35.0853 235.523 32.3642 235.523 29.0075C235.523 25.6508 232.802 22.9297 229.445 22.9297C226.088 22.9297 223.367 25.6508 223.367 29.0075C223.367 32.3642 226.088 35.0853 229.445 35.0853Z" fill="url(#paint2_linear_156_2009)"/>
<path d="M212.987 180.049L197.594 197.019L240.982 236.375L256.375 219.405L212.987 180.049Z" fill="#00A82D"/>
<path fill-rule="evenodd" clip-rule="evenodd" d="M229.268 151.961C229.268 187.463 200.488 216.243 164.985 216.243C129.483 216.243 100.703 187.463 100.703 151.961C100.703 116.459 129.483 87.6787 164.985 87.6787C200.488 87.6787 229.268 116.459 229.268 151.961ZM219.393 151.961C219.393 182.018 195.028 206.383 164.971 206.383C134.915 206.383 110.549 182.018 110.549 151.961C110.549 121.905 134.915 97.5391 164.971 97.5391C195.028 97.5391 219.393 121.905 219.393 151.961Z" fill="#00A82D"/>
<g filter="url(#filter2_b_156_2009)">
<path d="M164.977 206.383C195.033 206.383 219.399 182.017 219.399 151.961C219.399 121.904 195.033 97.5386 164.977 97.5386C134.92 97.5386 110.555 121.904 110.555 151.961C110.555 182.017 134.92 206.383 164.977 206.383Z" fill="url(#paint3_linear_156_2009)" fill-opacity="0.2"/>
</g>
<g filter="url(#filter3_f_156_2009)">
<ellipse cx="166.766" cy="182.018" rx="38.2581" ry="5.65177" fill="url(#paint4_linear_156_2009)"/>
</g>
<path d="M122.65 219.198C123.168 217.054 126.217 217.054 126.735 219.198L128.652 227.139C128.837 227.905 129.435 228.504 130.201 228.689L138.143 230.606C140.287 231.123 140.287 234.173 138.143 234.69L130.201 236.607C129.435 236.792 128.837 237.391 128.652 238.157L126.735 246.098C126.217 248.242 123.168 248.242 122.65 246.098L120.733 238.157C120.548 237.391 119.95 236.792 119.184 236.607L111.242 234.69C109.098 234.173 109.098 231.123 111.242 230.606L119.184 228.689C119.95 228.504 120.548 227.905 120.733 227.139L122.65 219.198Z" fill="#00A82D"/>
<path d="M36.0875 18.9661C36.6051 16.8221 39.6547 16.8221 40.1723 18.9661L42.0894 26.9077C42.2743 27.6739 42.8725 28.2721 43.6387 28.4571L51.5804 30.3742C53.7244 30.8917 53.7244 33.9414 51.5804 34.4589L43.6387 36.376C42.8725 36.5609 42.2743 37.1592 42.0894 37.9253L40.1723 45.867C39.6547 48.011 36.6051 48.011 36.0875 45.867L34.1705 37.9253C33.9855 37.1592 33.3873 36.5609 32.6211 36.376L24.6795 34.4589C22.5355 33.9414 22.5355 30.8917 24.6795 30.3742L32.6211 28.4571C33.3873 28.2721 33.9855 27.6739 34.1705 26.9077L36.0875 18.9661Z" fill="#00A82D"/>
<path fill-rule="evenodd" clip-rule="evenodd" d="M127.953 20.548C129.97 20.548 131.605 18.913 131.605 16.8961C131.605 14.8793 129.97 13.2443 127.953 13.2443C125.936 13.2443 124.301 14.8793 124.301 16.8961C124.301 18.913 125.936 20.548 127.953 20.548ZM127.953 23.2869C131.483 23.2869 134.344 20.4256 134.344 16.8961C134.344 13.3666 131.483 10.5054 127.953 10.5054C124.424 10.5054 121.562 13.3666 121.562 16.8961C121.562 20.4256 124.424 23.2869 127.953 23.2869Z" fill="#00A82D"/>
<path d="M241.455 120.98C241.122 119.674 242.327 118.498 243.625 118.862L253.009 121.499C254.307 121.864 254.723 123.496 253.759 124.438L246.783 131.246C245.818 132.188 244.196 131.732 243.863 130.426L241.455 120.98Z" fill="#00A82D"/>
<path d="M27.5147 105.395C28.8211 105.063 29.9963 106.271 29.63 107.568L26.9807 116.949C26.6144 118.246 24.9813 118.66 24.0412 117.694L17.2417 110.709C16.3015 109.743 16.7594 108.122 18.0659 107.791L27.5147 105.395Z" fill="#00A82D"/>
<path d="M201.679 231.582C202.985 231.251 204.16 232.458 203.794 233.755L201.145 243.136C200.778 244.433 199.145 244.847 198.205 243.882L191.406 236.897C190.466 235.931 190.923 234.31 192.23 233.978L201.679 231.582Z" fill="#00A82D"/>
<path fill-rule="evenodd" clip-rule="evenodd" d="M249.977 73.734C251.994 73.734 253.629 72.099 253.629 70.0822C253.629 68.0653 251.994 66.4303 249.977 66.4303C247.96 66.4303 246.325 68.0653 246.325 70.0822C246.325 72.099 247.96 73.734 249.977 73.734ZM249.977 76.4729C253.506 76.4729 256.367 73.6117 256.367 70.0822C256.367 66.5526 253.506 63.6914 249.977 63.6914C246.447 63.6914 243.586 66.5526 243.586 70.0822C243.586 73.6117 246.447 76.4729 249.977 76.4729Z" fill="#00A82D"/>
<path d="M240.992 236.376L256.385 219.406L258.704 221.509C260.953 223.55 262.3 226.4 262.448 229.434C262.596 232.467 261.532 235.435 259.492 237.685C257.452 239.934 254.601 241.281 251.568 241.429C248.534 241.577 245.566 240.514 243.317 238.473L240.998 236.37L240.992 236.376Z" fill="#00A82D"/>
<defs>
<filter id="filter0_d_156_2009" x="0.0546875" y="127.65" width="103.227" height="127.584" filterUnits="userSpaceOnUse" color-interpolation-filters="sRGB">
<feFlood flood-opacity="0" result="BackgroundImageFix"/>
<feColorMatrix in="SourceAlpha" type="matrix" values="0 0 0 0 0 0 0 0 0 0 0 0 0 0 0 0 0 0 127 0" result="hardAlpha"/>
<feOffset dx="3" dy="7"/>
<feGaussianBlur stdDeviation="7.5"/>
<feComposite in2="hardAlpha" operator="out"/>
<feColorMatrix type="matrix" values="0 0 0 0 0.104618 0 0 0 0 0.465612 0 0 0 0 0.545833 0 0 0 0.15 0"/>
<feBlend mode="normal" in2="BackgroundImageFix" result="effect1_dropShadow_156_2009"/>
<feBlend mode="normal" in="SourceGraphic" in2="effect1_dropShadow_156_2009" result="shape"/>
</filter>
<filter id="filter1_d_156_2009" x="163.57" y="0" width="99.2266" height="66.0234" filterUnits="userSpaceOnUse" color-interpolation-filters="sRGB">
<feFlood flood-opacity="0" result="BackgroundImageFix"/>
<feColorMatrix in="SourceAlpha" type="matrix" values="0 0 0 0 0 0 0 0 0 0 0 0 0 0 0 0 0 0 127 0" result="hardAlpha"/>
<feOffset dx="6" dy="4"/>
<feGaussianBlur stdDeviation="6.5"/>
<feComposite in2="hardAlpha" operator="out"/>
<feColorMatrix type="matrix" values="0 0 0 0 0.104618 0 0 0 0 0.465612 0 0 0 0 0.545833 0 0 0 0.09 0"/>
<feBlend mode="normal" in2="BackgroundImageFix" result="effect1_dropShadow_156_2009"/>
<feBlend mode="normal" in="SourceGraphic" in2="effect1_dropShadow_156_2009" result="shape"/>
</filter>
<filter id="filter2_b_156_2009" x="93.8795" y="80.8634" width="142.194" height="142.195" filterUnits="userSpaceOnUse" color-interpolation-filters="sRGB">
<feFlood flood-opacity="0" result="BackgroundImageFix"/>
<feGaussianBlur in="BackgroundImageFix" stdDeviation="8.33757"/>
<feComposite in2="SourceAlpha" operator="in" result="effect1_backgroundBlur_156_2009"/>
<feBlend mode="normal" in="SourceGraphic" in2="effect1_backgroundBlur_156_2009" result="shape"/>
</filter>
<filter id="filter3_f_156_2009" x="107.664" y="155.523" width="118.203" height="52.9916" filterUnits="userSpaceOnUse" color-interpolation-filters="sRGB">
<feFlood flood-opacity="0" result="BackgroundImageFix"/>
<feBlend mode="normal" in="SourceGraphic" in2="BackgroundImageFix" result="shape"/>
<feGaussianBlur stdDeviation="10.422" result="effect1_foregroundBlur_156_2009"/>
</filter>
<linearGradient id="paint0_linear_156_2009" x1="180.241" y1="22.9297" x2="192.778" y2="23.5658" gradientUnits="userSpaceOnUse">
<stop stop-color="#00A82D"/>
<stop offset="0.5" stop-color="#1FB247"/>
<stop offset="1" stop-color="#0CBC8B"/>
</linearGradient>
<linearGradient id="paint1_linear_156_2009" x1="201.952" y1="22.9297" x2="214.489" y2="23.5658" gradientUnits="userSpaceOnUse">
<stop stop-color="#00A82D"/>
<stop offset="0.5" stop-color="#1FB247"/>
<stop offset="1" stop-color="#0CBC8B"/>
</linearGradient>
<linearGradient id="paint2_linear_156_2009" x1="223.679" y1="22.9297" x2="236.215" y2="23.5658" gradientUnits="userSpaceOnUse">
<stop stop-color="#00A82D"/>
<stop offset="0.5" stop-color="#1FB247"/>
<stop offset="1" stop-color="#0CBC8B"/>
</linearGradient>
<linearGradient id="paint3_linear_156_2009" x1="164.977" y1="97.5386" x2="219.816" y2="239.841" gradientUnits="userSpaceOnUse">
<stop stop-color="white"/>
<stop offset="1" stop-color="#D2F7FF"/>
</linearGradient>
<linearGradient id="paint4_linear_156_2009" x1="127.706" y1="176.914" x2="205.023" y2="176.538" gradientUnits="userSpaceOnUse">
<stop stop-color="#00A82D"/>
<stop offset="1" stop-color="#F3F5FD"/>
</linearGradient>
</defs>
</svg>
