<svg width="68" height="68" viewBox="0 0 68 68" fill="none" xmlns="http://www.w3.org/2000/svg">
<path d="M19.125 34C18.5614 34 18.0209 34.2239 17.6224 34.6224C17.2239 35.0209 17 35.5614 17 36.125V46.75C17 47.3136 17.2239 47.8541 17.6224 48.2526C18.0209 48.6511 18.5614 48.875 19.125 48.875C19.6886 48.875 20.2291 48.6511 20.6276 48.2526C21.0261 47.8541 21.25 47.3136 21.25 46.75V44.625H22.3125C23.7215 44.625 25.0727 44.0653 26.069 43.069C27.0653 42.0727 27.625 40.7215 27.625 39.3125C27.625 37.9035 27.0653 36.5523 26.069 35.556C25.0727 34.5597 23.7215 34 22.3125 34H19.125ZM22.3125 40.375H21.25V38.25H22.3125C22.5943 38.25 22.8645 38.3619 23.0638 38.5612C23.2631 38.7605 23.375 39.0307 23.375 39.3125C23.375 39.5943 23.2631 39.8645 23.0638 40.0638C22.8645 40.2631 22.5943 40.375 22.3125 40.375ZM29.75 36.125C29.75 35.5614 29.9739 35.0209 30.3724 34.6224C30.7709 34.2239 31.3114 34 31.875 34H32.9375C34.91 34 36.8018 34.7836 38.1966 36.1784C39.5914 37.5732 40.375 39.465 40.375 41.4375C40.375 43.41 39.5914 45.3018 38.1966 46.6966C36.8018 48.0914 34.91 48.875 32.9375 48.875H31.875C31.3114 48.875 30.7709 48.6511 30.3724 48.2526C29.9739 47.8541 29.75 47.3136 29.75 46.75V36.125ZM34 44.4444C34.6226 44.2254 35.1619 43.8185 35.5434 43.2799C35.9249 42.7413 36.1297 42.0975 36.1297 41.4375C36.1297 40.7775 35.9249 40.1337 35.5434 39.5951C35.1619 39.0565 34.6226 38.6496 34 38.4306V44.4444ZM42.5 46.75V36.125C42.5 35.5614 42.7239 35.0209 43.1224 34.6224C43.5209 34.2239 44.0614 34 44.625 34H51C51.5636 34 52.1041 34.2239 52.5026 34.6224C52.9011 35.0209 53.125 35.5614 53.125 36.125C53.125 36.6886 52.9011 37.2291 52.5026 37.6276C52.1041 38.0261 51.5636 38.25 51 38.25H46.75V40.375H51C51.5636 40.375 52.1041 40.5989 52.5026 40.9974C52.9011 41.3959 53.125 41.9364 53.125 42.5C53.125 43.0636 52.9011 43.6041 52.5026 44.0026C52.1041 44.4011 51.5636 44.625 51 44.625H46.75V46.75C46.75 47.3136 46.5261 47.8541 46.1276 48.2526C45.7291 48.6511 45.1886 48.875 44.625 48.875C44.0614 48.875 43.5209 48.6511 43.1224 48.2526C42.7239 47.8541 42.5 47.3136 42.5 46.75ZM36.125 19.125V4.25H17C15.3092 4.25 13.6877 4.92165 12.4922 6.11719C11.2966 7.31274 10.625 8.93425 10.625 10.625V27.625C9.49783 27.625 8.41683 28.0728 7.6198 28.8698C6.82277 29.6668 6.375 30.7478 6.375 31.875V51C6.375 52.1272 6.82277 53.2082 7.6198 54.0052C8.41683 54.8022 9.49783 55.25 10.625 55.25V57.375C10.625 59.0658 11.2966 60.6873 12.4922 61.8828C13.6877 63.0784 15.3092 63.75 17 63.75H51C52.6908 63.75 54.3123 63.0784 55.5078 61.8828C56.7034 60.6873 57.375 59.0658 57.375 57.375V55.25C58.5022 55.25 59.5832 54.8022 60.3802 54.0052C61.1772 53.2082 61.625 52.1272 61.625 51V31.875C61.625 30.7478 61.1772 29.6668 60.3802 28.8698C59.5832 28.0728 58.5022 27.625 57.375 27.625V25.5H42.5C40.8092 25.5 39.1877 24.8284 37.9922 23.6328C36.7966 22.4373 36.125 20.8158 36.125 19.125ZM57.375 31.875V51H10.625V31.875H57.375ZM40.375 19.125V4.49863C41.4133 4.79686 42.3587 5.35405 43.1226 6.11787L55.5071 18.5024C56.271 19.2663 56.8281 20.2117 57.1264 21.25H42.5C41.9364 21.25 41.3959 21.0261 40.9974 20.6276C40.5989 20.2291 40.375 19.6886 40.375 19.125Z" fill="white"/>
</svg>
