<svg width="47" height="47" viewBox="0 0 47 47" fill="none" xmlns="http://www.w3.org/2000/svg">
<path d="M35.3988 3.04321L43.5709 11.562V43.9567H13.043V44.0625H43.6752V11.6692L35.3988 3.04321Z" fill="#909090"/>
<path d="M35.2963 2.9375H12.9375V43.9567H43.5698V11.5635L35.2963 2.9375Z" fill="#F4F4F4"/>
<path d="M12.7134 5.14062H3.32812V15.1678H32.85V5.14062H12.7134Z" fill="#7A7B7C"/>
<path d="M33.0076 14.9974H3.51953V4.96289H33.0076V14.9974Z" fill="#DD2025"/>
<path d="M13.2947 6.6592H11.375V13.7092H12.8849V11.3313L13.2183 11.3504C13.5422 11.3448 13.8632 11.2868 14.1686 11.1785C14.4363 11.0865 14.6826 10.9411 14.8927 10.7511C15.1064 10.5702 15.2748 10.3419 15.3847 10.0843C15.532 9.65618 15.5846 9.20117 15.5389 8.7507C15.5297 8.42891 15.4733 8.11021 15.3715 7.80483C15.2788 7.58438 15.1412 7.38565 14.9674 7.22128C14.7937 7.05692 14.5877 6.93052 14.3624 6.85014C14.1677 6.77964 13.9665 6.72847 13.7617 6.69739C13.6067 6.67346 13.4501 6.6607 13.2932 6.6592M13.0156 10.0285H12.8849V7.85476H13.1683C13.2935 7.84574 13.419 7.86495 13.5357 7.91096C13.6524 7.95698 13.7572 8.02862 13.8425 8.12061C14.0192 8.3571 14.1136 8.64496 14.1113 8.94017C14.1113 9.30148 14.1113 9.62901 13.7852 9.85961C13.5503 9.98881 13.2829 10.0484 13.0156 10.0285ZM18.4074 6.64011C18.2443 6.64011 18.0857 6.65186 17.9741 6.65626L17.6245 6.66508H16.4789V13.7151H17.8272C18.3425 13.7292 18.8555 13.6419 19.3371 13.458C19.7247 13.3043 20.068 13.0565 20.3358 12.7369C20.5963 12.4144 20.7833 12.039 20.8837 11.6368C20.9991 11.1813 21.0554 10.7128 21.0511 10.243C21.0796 9.688 21.0367 9.13168 20.9233 8.58767C20.8158 8.18724 20.6144 7.81818 20.3358 7.51108C20.1173 7.2631 19.8497 7.06306 19.5501 6.92358C19.2927 6.80449 19.022 6.71671 18.7437 6.66214C18.6331 6.64386 18.521 6.6355 18.4088 6.63717M18.1415 12.4196H17.9947V7.91939H18.0138C18.3165 7.88455 18.6229 7.93919 18.895 8.07655C19.0943 8.23565 19.2566 8.4361 19.3709 8.66405C19.4942 8.90394 19.5653 9.16725 19.5794 9.43661C19.5927 9.75973 19.5794 10.0241 19.5794 10.243C19.5854 10.495 19.5692 10.7472 19.531 10.9964C19.4857 11.2523 19.402 11.4999 19.2827 11.7308C19.1478 11.9455 18.9654 12.1263 18.7496 12.2595C18.5684 12.3767 18.3538 12.4314 18.1386 12.4152M25.5998 6.66508H22.0308V13.7151H23.5407V10.9186H25.45V9.60845H23.5407V7.9752H25.5969V6.66508" fill="#464648"/>
<path d="M31.9895 29.7496C31.9895 29.7496 36.6719 28.9007 36.6719 30.5001C36.6719 32.0996 33.7711 31.4489 31.9895 29.7496ZM28.5277 29.8715C27.7838 30.0359 27.0588 30.2766 26.3642 30.5897L26.9517 29.2678C27.5392 27.946 28.1488 26.1438 28.1488 26.1438C28.8498 27.3237 29.6655 28.4316 30.5839 29.4514C29.8913 29.5547 29.2049 29.6959 28.5277 29.8744V29.8715ZM26.6741 20.3246C26.6741 18.9308 27.125 18.5504 27.4761 18.5504C27.8271 18.5504 28.2222 18.7193 28.2354 19.9295C28.121 21.1465 27.8662 22.3461 27.4761 23.5045C26.9416 22.5319 26.665 21.4387 26.6727 20.329L26.6741 20.3246ZM19.8459 35.77C18.4095 34.9108 22.8583 32.2656 23.6647 32.1804C23.6603 32.1818 21.3499 36.6689 19.8459 35.77ZM38.0393 30.6896C38.0246 30.5427 37.8924 28.9168 34.999 28.9858C33.793 28.9664 32.5875 29.0514 31.3962 29.2399C30.2421 28.0773 29.2483 26.7659 28.441 25.3404C28.9496 23.8708 29.2574 22.3393 29.3561 20.7873C29.3135 19.0248 28.8919 18.0143 27.5407 18.029C26.1894 18.0437 25.9926 19.226 26.1703 20.9856C26.3444 22.168 26.6728 23.3225 27.1471 24.4195C27.1471 24.4195 26.5228 26.3627 25.6974 28.2955C24.872 30.2284 24.308 31.2418 24.308 31.2418C22.8726 31.7091 21.5214 32.4033 20.3056 33.2981C19.0954 34.4246 18.6033 35.2897 19.2408 36.1548C19.7901 36.9009 21.7127 37.0698 23.4311 34.8182C24.3442 33.6553 25.1783 32.4325 25.928 31.1581C25.928 31.1581 28.5483 30.4399 29.3634 30.2431C30.1786 30.0463 31.1641 29.8906 31.1641 29.8906C31.1641 29.8906 33.5567 32.2979 35.8641 32.2127C38.1715 32.1275 38.0599 30.8335 38.0452 30.6925" fill="#DD2025"/>
<path d="M35.1836 3.05054V11.6765H43.4571L35.1836 3.05054Z" fill="#909090"/>
<path d="M35.2969 2.9375V11.5635H43.5703L35.2969 2.9375Z" fill="#F4F4F4"/>
<path d="M13.1814 6.54616H11.2617V13.5962H12.7775V11.2197L13.1123 11.2388C13.4363 11.2332 13.7572 11.1752 14.0626 11.067C14.3304 10.9748 14.5767 10.8295 14.7867 10.6396C14.9988 10.4582 15.1658 10.2299 15.2743 9.97276C15.4217 9.54462 15.4743 9.0896 15.4286 8.63913C15.4194 8.31734 15.363 7.99865 15.2611 7.69326C15.1684 7.47281 15.0308 7.27408 14.8571 7.10971C14.6834 6.94535 14.4773 6.81895 14.2521 6.73857C14.0565 6.66738 13.8542 6.61572 13.6484 6.58435C13.4934 6.56043 13.3368 6.54767 13.1799 6.54616M12.9023 9.91548H12.7716V7.74173H13.0565C13.1816 7.73271 13.3072 7.75191 13.4239 7.79793C13.5406 7.84394 13.6454 7.91559 13.7307 8.00757C13.9074 8.24406 14.0018 8.53192 13.9995 8.82713C13.9995 9.18845 13.9995 9.51598 13.6734 9.74657C13.4385 9.87577 13.1711 9.93394 12.9038 9.91401M18.2941 6.52707C18.1311 6.52707 17.9724 6.53882 17.8608 6.54323L17.5157 6.55204H16.37V13.602H17.7183C18.2336 13.6162 18.7466 13.5288 19.2282 13.345C19.6158 13.1913 19.9591 12.9434 20.227 12.6239C20.4875 12.3014 20.6744 11.926 20.7748 11.5238C20.8902 11.0683 20.9465 10.5998 20.9422 10.1299C20.9707 9.57496 20.9278 9.01864 20.8145 8.47463C20.7069 8.0742 20.5055 7.70515 20.227 7.39804C20.0084 7.15006 19.7409 6.95003 19.4412 6.81054C19.1838 6.69145 18.9131 6.60368 18.6348 6.5491C18.5242 6.53082 18.4121 6.52247 18.3 6.52413M18.0327 12.3066H17.8858V7.80635H17.9049C18.2077 7.77151 18.514 7.82615 18.7861 7.96351C18.9854 8.12261 19.1477 8.32306 19.262 8.55101C19.3853 8.79091 19.4564 9.05421 19.4706 9.32357C19.4838 9.6467 19.4706 9.91107 19.4706 10.1299C19.4765 10.382 19.4603 10.6341 19.4221 10.8834C19.3768 11.1393 19.2931 11.3869 19.1739 11.6178C19.0389 11.8324 18.8565 12.0133 18.6407 12.1465C18.4595 12.2637 18.2449 12.3184 18.0297 12.3022M25.4866 6.55204H21.9175V13.602H23.4274V10.8055H25.3367V9.49542H23.4274V7.86217H25.4836V6.55204" fill="white"/>
</svg>
