<svg width="700" height="550" viewBox="0 0 700 550" fill="none" xmlns="http://www.w3.org/2000/svg">
<path d="M567.752 297.79C567.102 296.939 566.532 296.04 565.962 295.129C554.972 277.85 506.952 286.04 506.952 286.04C501.522 327.699 492.072 322.79 490.322 320.169C488.572 317.55 485.412 291.82 483.322 288.32C477.282 287.79 464.942 287.879 464.942 287.879C453.032 288.16 441.832 298.64 430.812 315.709C419.792 332.77 400.362 347.209 400.362 347.209C400.362 347.209 406.132 347.739 408.232 360.34C409.522 360.739 413.392 359.03 416.212 357.649C418.728 356.419 421.534 355.903 424.322 356.16C428.862 356.58 435.392 358.03 440.612 362.969C441.254 363.568 441.936 364.123 442.652 364.629C443.312 364.26 443.682 364.01 443.682 364.01C454.442 359.55 460.742 344.06 460.742 344.06C459.87 342.112 459.361 340.021 459.242 337.89C459.072 335.768 459.102 333.635 459.332 331.52C459.562 329.449 459.722 327.399 459.782 325.34C459.887 323.262 459.797 321.18 459.513 319.12C460.37 321.077 460.858 323.175 460.952 325.31C461.099 327.429 461.056 329.558 460.822 331.669C460.592 333.73 460.462 335.78 460.412 337.85C460.338 339.925 460.449 342.003 460.743 344.06C461.346 349.587 462.653 355.014 464.632 360.21C467.475 361.152 470.407 361.798 473.382 362.14C474.846 362.306 476.321 362.353 477.792 362.28C479.3 362.196 480.801 362.035 482.292 361.8C480.947 362.606 479.466 363.161 477.922 363.439C477.15 363.589 476.368 363.682 475.582 363.719C474.795 363.73 474.007 363.7 473.222 363.629C471.661 363.46 470.129 363.09 468.662 362.53C467.2 361.985 465.838 361.201 464.632 360.209C465.475 362.522 466.593 364.725 467.962 366.77C475.38 367.197 482.65 369.019 489.392 372.14C491.102 372.93 492.672 373.99 494.252 374.77C495.861 375.572 497.546 376.212 499.282 376.68C502.778 377.631 506.38 378.141 510.002 378.199C511.842 378.26 513.592 378.16 515.492 378.1C517.36 378.079 519.226 378.169 521.082 378.37C524.763 378.75 528.432 379.169 532.072 379.81C533.462 380.05 534.842 380.31 536.222 380.58C535.583 379.711 535.033 378.78 534.582 377.8C533.88 376.323 533.353 374.769 533.013 373.169C532.663 371.571 532.452 369.945 532.382 368.31C532.292 366.661 532.355 365.007 532.572 363.37L532.582 363.32L532.602 363.25C533.151 361.475 533.49 359.643 533.612 357.79C533.767 355.91 533.787 354.022 533.672 352.14C533.542 350.255 533.312 348.379 532.982 346.52C532.622 344.689 532.142 342.78 531.882 340.85C531.358 337.003 531.238 333.112 531.523 329.24C531.622 327.31 531.822 325.379 532.112 323.48C532.379 321.572 532.743 319.68 533.202 317.81C532.728 321.612 532.468 325.438 532.422 329.27C532.367 333.073 532.645 336.874 533.253 340.629C533.382 341.57 533.612 342.49 533.802 343.41L534.422 346.25C534.791 348.168 535.035 350.109 535.152 352.06C535.448 355.969 534.997 359.899 533.822 363.64C533.574 365.177 533.447 366.732 533.442 368.29C533.431 369.874 533.555 371.456 533.812 373.02C534.064 374.588 534.466 376.128 535.013 377.62C535.398 378.667 535.883 379.675 536.463 380.629C538.632 381.07 540.782 381.57 542.912 382.16C546.494 383.096 549.936 384.498 553.152 386.33C549.829 384.766 546.331 383.605 542.733 382.87C540.882 382.439 539.019 382.066 537.142 381.75C537.137 381.744 537.13 381.741 537.122 381.74C535.393 381.44 533.652 381.18 531.902 380.95C528.263 380.48 524.612 380.07 520.963 379.78C519.154 379.61 517.338 379.54 515.523 379.57C513.753 379.629 511.813 379.76 509.973 379.7C506.223 379.623 502.5 379.065 498.893 378.04C497.082 377.51 495.327 376.807 493.652 375.939C492.812 375.53 491.993 374.979 491.223 374.53C490.453 374.06 489.683 373.57 488.872 373.169C485.639 371.472 482.233 370.124 478.713 369.149C475.192 368.095 471.599 367.299 467.963 366.77L459.693 367.56C459.948 367.911 460.135 368.308 460.243 368.73C462.372 375.62 459.303 402.61 459.303 402.61C471.112 411.27 536.483 424.66 536.483 424.66C578.622 431.75 579.013 394.33 579.013 394.33C586.552 327.18 571.732 302.949 567.752 297.79ZM515.022 366.24C514.25 366.389 513.468 366.482 512.682 366.52C511.895 366.53 511.107 366.5 510.322 366.43C508.761 366.26 507.229 365.89 505.762 365.33C504.3 364.785 502.938 364.001 501.732 363.01C504.575 363.952 507.507 364.598 510.482 364.939C511.946 365.106 513.421 365.153 514.892 365.08C516.399 364.996 517.901 364.835 519.392 364.6C518.047 365.406 516.566 365.961 515.022 366.24V366.24Z" fill="#00A82D"/>
<path d="M483.234 288.367C482.946 287.933 482.626 287.521 482.276 287.135C481.927 286.755 481.544 286.409 481.132 286.099C480.722 285.797 480.281 285.541 479.815 285.336C479.366 285.135 478.888 285.006 478.399 284.953L478.556 284.923C477.552 285.406 476.491 285.76 475.398 285.978C474.289 286.217 473.146 286.254 472.023 286.088C470.857 285.916 469.758 285.436 468.839 284.697C467.995 283.941 467.254 283.076 466.635 282.126C465.428 280.296 464.355 278.382 463.423 276.398C462.485 274.428 461.64 272.436 460.853 270.389L461.662 270.923C460.73 271.018 459.79 270.875 458.928 270.508C458.426 270.272 458.003 269.897 457.709 269.427C457.438 268.973 457.276 268.462 457.237 267.935C457.19 267.031 457.318 266.126 457.615 265.271C457.876 264.455 458.22 263.668 458.641 262.923C459.432 261.766 459.803 260.374 459.692 258.978C459.629 258.298 459.442 257.635 459.14 257.023L458.595 256.002C458.407 255.64 458.224 255.272 458.053 254.896C457.7 254.143 457.418 253.359 457.211 252.553C456.986 251.768 456.803 250.972 456.665 250.167C456.491 249.369 456.437 248.551 456.337 247.742C456.305 246.926 456.255 246.111 456.298 245.296C456.366 242.016 457.169 238.794 458.647 235.866C458.699 235.767 458.777 235.685 458.873 235.63C458.969 235.574 459.079 235.546 459.19 235.551C459.301 235.555 459.408 235.591 459.5 235.654C459.591 235.717 459.663 235.804 459.707 235.906L459.716 235.929C460.936 238.747 462.494 241.407 464.355 243.85C466.208 246.317 468.433 248.48 470.952 250.263C473.463 252.049 476.332 253.271 479.361 253.843C482.384 254.4 485.491 254.317 488.481 253.598L488.502 253.594C488.572 253.578 488.646 253.582 488.714 253.606C488.782 253.631 488.841 253.674 488.886 253.731C490.092 255.391 490.932 257.289 491.351 259.298C491.797 261.261 492.024 263.267 492.03 265.28C492.041 267.283 491.898 269.284 491.603 271.266C491.251 273.147 491.118 275.062 491.208 276.974C491.298 278.822 491.798 280.626 492.671 282.257C493.542 283.828 494.873 285.094 496.486 285.886C498.129 286.653 499.945 286.976 501.752 286.823C503.604 286.673 505.416 286.207 507.11 285.444C507.273 285.373 507.452 285.346 507.629 285.367C507.805 285.387 507.973 285.454 508.116 285.56C508.259 285.666 508.371 285.808 508.441 285.972C508.511 286.135 508.537 286.314 508.516 286.491L508.514 286.504C507.78 292.878 506.638 299.198 505.096 305.425C504.297 308.569 503.247 311.643 501.956 314.618C501.292 316.138 500.478 317.587 499.524 318.943C499.025 319.643 498.46 320.291 497.835 320.881C497.186 321.516 496.424 322.025 495.588 322.379C494.692 322.763 493.702 322.873 492.743 322.692C491.795 322.498 490.922 322.032 490.232 321.353C489.864 321.003 489.57 320.583 489.368 320.117C489.207 319.715 489.07 319.303 488.958 318.884C488.734 318.084 488.564 317.298 488.396 316.509C487.736 313.361 487.282 310.206 486.778 307.058L485.297 297.623C485.043 296.052 484.778 294.484 484.471 292.926C484.221 291.367 483.807 289.838 483.234 288.367L483.228 288.353C483.217 288.329 483.216 288.302 483.224 288.278C483.233 288.254 483.251 288.234 483.274 288.222C483.297 288.211 483.323 288.208 483.348 288.216C483.373 288.224 483.393 288.241 483.405 288.264C484.102 289.714 484.626 291.241 484.967 292.814C485.364 294.362 485.718 295.919 486.061 297.477C486.755 300.592 487.339 303.726 487.965 306.848C488.581 309.971 489.218 313.094 489.919 316.169C490.102 316.933 490.289 317.7 490.514 318.429C490.616 318.777 490.738 319.119 490.879 319.453C491.003 319.716 491.179 319.95 491.398 320.142C491.852 320.581 492.429 320.872 493.052 320.976C493.676 321.079 494.316 320.989 494.887 320.719C496.147 320.046 497.206 319.051 497.955 317.835C498.794 316.558 499.516 315.206 500.111 313.798C501.322 310.912 502.3 307.934 503.035 304.891C504.522 298.741 505.681 292.516 506.507 286.242L507.911 287.303C505.995 288.132 503.95 288.626 501.867 288.762C499.728 288.908 497.588 288.492 495.659 287.554C493.721 286.578 492.136 285.022 491.123 283.103C490.17 281.229 489.646 279.167 489.589 277.065C489.537 275.039 489.726 273.014 490.152 271.033C490.509 269.131 490.72 267.204 490.782 265.27C490.853 263.343 490.705 261.414 490.34 259.521C490.012 257.653 489.302 255.872 488.255 254.291L488.66 254.422C485.553 255.066 482.35 255.093 479.232 254.502C477.68 254.199 476.168 253.719 474.725 253.071C473.278 252.442 471.895 251.675 470.595 250.78C468.007 248.978 465.691 246.814 463.718 244.354C461.699 241.916 459.986 239.241 458.617 236.387L459.685 236.45C458.431 239.234 457.808 242.262 457.86 245.315C457.866 246.839 458.025 248.358 458.336 249.849C458.481 250.596 458.667 251.335 458.893 252.062C459.093 252.781 459.353 253.481 459.67 254.157C459.827 254.498 459.996 254.836 460.174 255.172C460.351 255.518 460.534 255.813 460.746 256.237C461.146 257.041 461.396 257.912 461.483 258.806C461.619 260.585 461.147 262.356 460.144 263.831C459.405 265.023 458.99 266.387 458.939 267.789C458.935 268.042 459.002 268.29 459.133 268.506C459.264 268.723 459.453 268.897 459.679 269.011C460.277 269.26 460.926 269.36 461.572 269.302L461.582 269.302C461.755 269.294 461.926 269.342 462.069 269.438C462.213 269.534 462.321 269.674 462.38 269.836C463.095 271.834 463.903 273.83 464.765 275.781C465.594 277.737 466.564 279.631 467.665 281.448C468.191 282.33 468.829 283.139 469.564 283.856C470.315 284.501 471.224 284.936 472.198 285.115C474.257 285.442 476.367 285.179 478.282 284.357L478.323 284.34C478.36 284.326 478.4 284.321 478.439 284.326C478.998 284.412 479.539 284.589 480.041 284.851C480.528 285.1 480.986 285.402 481.407 285.753C481.816 286.107 482.189 286.5 482.522 286.926C482.85 287.349 483.145 287.796 483.405 288.264C483.412 288.275 483.416 288.288 483.418 288.301C483.42 288.314 483.419 288.327 483.415 288.34C483.412 288.352 483.406 288.364 483.398 288.375C483.39 288.385 483.38 288.394 483.369 288.4C483.346 288.412 483.32 288.415 483.295 288.409C483.27 288.403 483.248 288.388 483.234 288.367Z" fill="black"/>
<path d="M459.566 269.876C459.362 271.467 459.149 273.045 458.983 274.625C458.826 276.205 458.674 277.782 458.626 279.359C458.548 280.926 458.613 282.498 458.82 284.053C458.923 284.824 459.129 285.577 459.435 286.291C459.722 287.025 460.2 287.668 460.82 288.155C460.087 287.778 459.482 287.192 459.082 286.471C458.686 285.75 458.392 284.977 458.21 284.174C457.867 282.584 457.736 280.955 457.818 279.33C457.883 277.72 458.068 276.118 458.369 274.535C458.651 272.954 459.051 271.397 459.566 269.876Z" fill="black"/>
<mask id="path-4-inside-1_781_3515" fill="white">
<path d="M459.085 236.216C458.879 235.856 458.749 235.459 458.702 235.048C458.654 234.636 458.691 234.22 458.811 233.823L458.976 233.228L459.234 232.676C459.324 232.494 459.405 232.304 459.504 232.126L459.843 231.626C460.294 230.958 460.805 230.333 461.371 229.759C461.943 229.203 462.553 228.69 463.15 228.158C465.672 226.251 468.373 224.593 471.215 223.207C472.634 222.534 474.067 221.89 475.5 221.25C476.95 220.655 478.408 220.081 479.87 219.516C481.335 218.98 482.822 218.517 484.302 218.026C485.05 217.8 485.771 217.545 486.572 217.324C487.347 217.115 488.133 216.948 488.926 216.823C492.076 216.304 495.299 216.436 498.396 217.208C501.481 217.986 504.333 219.497 506.709 221.612C509.053 223.761 510.985 226.32 512.408 229.163C513.838 231.995 514.93 234.984 515.664 238.07L515.678 238.153C516.45 242.388 517.809 246.495 519.716 250.355C520.656 252.281 521.746 254.131 522.974 255.888C524.182 257.648 525.546 259.296 527.049 260.812L529.427 263.015C530.282 263.763 531.087 264.569 531.834 265.425C533.363 267.115 534.625 269.029 535.575 271.101C537.544 275.194 538.037 279.842 536.969 284.257C536.963 284.282 536.947 284.303 536.926 284.317C536.904 284.33 536.878 284.335 536.853 284.33C536.828 284.325 536.806 284.31 536.792 284.29C536.777 284.269 536.771 284.244 536.774 284.218L536.776 284.207C537.057 282.051 536.97 279.864 536.519 277.737C536.11 275.631 535.369 273.603 534.323 271.729C533.809 270.798 533.237 269.9 532.611 269.04C531.968 268.192 531.271 267.388 530.525 266.63C529.795 265.856 529.013 265.131 528.185 264.463L525.645 262.263C522.381 259.111 519.732 255.38 517.831 251.26C516.885 249.22 516.085 247.116 515.436 244.963C514.762 242.808 514.273 240.601 513.972 238.364L513.986 238.446C513.388 235.444 512.496 232.508 511.321 229.681C510.146 226.849 508.42 224.279 506.245 222.119C505.125 221.074 503.879 220.174 502.536 219.439C501.183 218.721 499.737 218.195 498.239 217.876C495.239 217.278 492.144 217.352 489.176 218.092C488.441 218.262 487.715 218.471 487.002 218.717C486.316 218.959 485.587 219.273 484.862 219.549L480.495 221.183C479.061 221.761 477.624 222.328 476.178 222.876L471.927 224.703C469.127 225.959 466.427 227.428 463.852 229.097C463.251 229.555 462.628 229.999 462.045 230.481C461.472 230.97 460.938 231.502 460.448 232.073L460.083 232.503C459.976 232.655 459.887 232.816 459.788 232.973L459.496 233.451L459.295 233.964C459.006 234.643 458.99 235.408 459.249 236.1L459.258 236.121C459.269 236.144 459.27 236.17 459.262 236.193C459.254 236.217 459.238 236.237 459.216 236.249C459.194 236.261 459.168 236.264 459.144 236.258C459.12 236.252 459.099 236.237 459.085 236.216Z"/>
</mask>
<path d="M459.085 236.216C458.879 235.856 458.749 235.459 458.702 235.048C458.654 234.636 458.691 234.22 458.811 233.823L458.976 233.228L459.234 232.676C459.324 232.494 459.405 232.304 459.504 232.126L459.843 231.626C460.294 230.958 460.805 230.333 461.371 229.759C461.943 229.203 462.553 228.69 463.15 228.158C465.672 226.251 468.373 224.593 471.215 223.207C472.634 222.534 474.067 221.89 475.5 221.25C476.95 220.655 478.408 220.081 479.87 219.516C481.335 218.98 482.822 218.517 484.302 218.026C485.05 217.8 485.771 217.545 486.572 217.324C487.347 217.115 488.133 216.948 488.926 216.823C492.076 216.304 495.299 216.436 498.396 217.208C501.481 217.986 504.333 219.497 506.709 221.612C509.053 223.761 510.985 226.32 512.408 229.163C513.838 231.995 514.93 234.984 515.664 238.07L515.678 238.153C516.45 242.388 517.809 246.495 519.716 250.355C520.656 252.281 521.746 254.131 522.974 255.888C524.182 257.648 525.546 259.296 527.049 260.812L529.427 263.015C530.282 263.763 531.087 264.569 531.834 265.425C533.363 267.115 534.625 269.029 535.575 271.101C537.544 275.194 538.037 279.842 536.969 284.257C536.963 284.282 536.947 284.303 536.926 284.317C536.904 284.33 536.878 284.335 536.853 284.33C536.828 284.325 536.806 284.31 536.792 284.29C536.777 284.269 536.771 284.244 536.774 284.218L536.776 284.207C537.057 282.051 536.97 279.864 536.519 277.737C536.11 275.631 535.369 273.603 534.323 271.729C533.809 270.798 533.237 269.9 532.611 269.04C531.968 268.192 531.271 267.388 530.525 266.63C529.795 265.856 529.013 265.131 528.185 264.463L525.645 262.263C522.381 259.111 519.732 255.38 517.831 251.26C516.885 249.22 516.085 247.116 515.436 244.963C514.762 242.808 514.273 240.601 513.972 238.364L513.986 238.446C513.388 235.444 512.496 232.508 511.321 229.681C510.146 226.849 508.42 224.279 506.245 222.119C505.125 221.074 503.879 220.174 502.536 219.439C501.183 218.721 499.737 218.195 498.239 217.876C495.239 217.278 492.144 217.352 489.176 218.092C488.441 218.262 487.715 218.471 487.002 218.717C486.316 218.959 485.587 219.273 484.862 219.549L480.495 221.183C479.061 221.761 477.624 222.328 476.178 222.876L471.927 224.703C469.127 225.959 466.427 227.428 463.852 229.097C463.251 229.555 462.628 229.999 462.045 230.481C461.472 230.97 460.938 231.502 460.448 232.073L460.083 232.503C459.976 232.655 459.887 232.816 459.788 232.973L459.496 233.451L459.295 233.964C459.006 234.643 458.99 235.408 459.249 236.1L459.258 236.121C459.269 236.144 459.27 236.17 459.262 236.193C459.254 236.217 459.238 236.237 459.216 236.249C459.194 236.261 459.168 236.264 459.144 236.258C459.12 236.252 459.099 236.237 459.085 236.216Z" fill="black"/>
<path d="M459.085 236.216L407.038 266.067L407.783 267.366L408.593 268.627L459.085 236.216ZM458.811 233.823L516.27 251.097L516.457 250.475L516.631 249.85L458.811 233.823ZM458.976 233.228L404.635 207.789L402.5 212.349L401.156 217.202L458.976 233.228ZM459.234 232.676L405.396 206.19L405.14 206.711L404.894 207.237L459.234 232.676ZM459.504 232.126L409.838 198.462L408.322 200.699L407.013 203.063L459.504 232.126ZM459.843 231.626L509.509 265.29L509.536 265.251L509.562 265.211L459.843 231.626ZM461.371 229.759L419.573 186.712L419.082 187.189L418.602 187.678L461.371 229.759ZM463.15 228.158L426.961 180.3L425.038 181.755L423.238 183.359L463.15 228.158ZM471.215 223.207L445.49 169.002L445.207 169.137L444.925 169.274L471.215 223.207ZM475.5 221.25L452.714 165.746L451.868 166.093L451.032 166.466L475.5 221.25ZM479.87 219.516L459.243 163.173L458.742 163.356L458.245 163.548L479.87 219.516ZM484.302 218.026L467.02 160.568L466.204 160.814L465.394 161.082L484.302 218.026ZM486.572 217.324L471.005 159.378L470.795 159.435L470.585 159.493L486.572 217.324ZM488.926 216.823L498.299 276.086L498.483 276.057L498.667 276.027L488.926 216.823ZM498.396 217.208L513.057 159.027L512.988 159.01L512.92 158.993L498.396 217.208ZM506.709 221.612L547.246 177.377L546.93 177.088L546.611 176.803L506.709 221.612ZM512.408 229.163L458.755 256.021L458.801 256.112L458.846 256.202L512.408 229.163ZM515.664 238.07L574.795 227.894L574.474 226.033L574.038 224.195L515.664 238.07ZM515.678 238.153L456.547 248.329L456.598 248.624L456.652 248.918L515.678 238.153ZM519.716 250.355L573.63 224.024L573.571 223.905L573.513 223.787L519.716 250.355ZM522.974 255.888L572.44 221.931L572.296 221.721L572.151 221.513L522.974 255.888ZM527.049 260.812L484.435 303.051L485.337 303.961L486.277 304.831L527.049 260.812ZM529.427 263.015L488.655 307.034L489.28 307.613L489.922 308.174L529.427 263.015ZM531.834 265.425L486.621 304.869L486.98 305.28L487.347 305.686L531.834 265.425ZM535.575 271.101L481.038 296.115L481.268 296.616L481.507 297.114L535.575 271.101ZM536.969 284.257L594.989 299.544L595.145 298.954L595.288 298.36L536.969 284.257ZM536.774 284.218L477.364 275.823L477.352 275.912L477.339 276.001L536.774 284.218ZM536.776 284.207L596.185 292.602L596.231 292.283L596.272 291.964L536.776 284.207ZM536.519 277.737L477.618 289.17L477.717 289.678L477.824 290.186L536.519 277.737ZM534.323 271.729L481.787 300.711L481.859 300.843L481.933 300.974L534.323 271.729ZM532.611 269.04L581.097 233.698L580.768 233.246L580.43 232.801L532.611 269.04ZM530.525 266.63L486.847 307.767L487.321 308.271L487.808 308.764L530.525 266.63ZM528.185 264.463L488.912 309.823L489.689 310.497L490.49 311.143L528.185 264.463ZM525.645 262.263L483.962 305.42L485.137 306.555L486.371 307.624L525.645 262.263ZM517.831 251.26L572.314 226.129L572.288 226.071L572.261 226.014L517.831 251.26ZM515.436 244.963L572.885 227.652L572.795 227.356L572.703 227.061L515.436 244.963ZM513.972 238.364L573.078 228.046L454.508 246.366L513.972 238.364ZM513.986 238.446L455.141 250.162L573.092 228.129L513.986 238.446ZM511.321 229.681L455.909 252.69L455.911 252.696L511.321 229.681ZM506.245 222.119L548.521 179.542L547.861 178.887L547.182 178.253L506.245 222.119ZM502.536 219.439L531.325 166.797L530.997 166.618L530.666 166.442L502.536 219.439ZM498.239 217.876L510.734 159.192L510.352 159.11L509.968 159.034L498.239 217.876ZM489.176 218.092L502.692 276.55L503.194 276.434L503.693 276.309L489.176 218.092ZM487.002 218.717L467.411 162.005L467.246 162.063L467.081 162.121L487.002 218.717ZM484.862 219.549L505.891 275.743L506.036 275.688L506.182 275.633L484.862 219.549ZM480.495 221.183L459.467 164.988L458.768 165.25L458.076 165.529L480.495 221.183ZM476.178 222.876L454.938 166.761L453.7 167.23L452.483 167.753L476.178 222.876ZM471.927 224.703L448.232 169.58L447.8 169.766L447.372 169.958L471.927 224.703ZM463.852 229.097L431.218 178.748L429.303 179.989L427.487 181.373L463.852 229.097ZM462.045 230.481L423.817 184.236L423.469 184.523L423.125 184.816L462.045 230.481ZM460.448 232.073L414.897 193.021L414.824 193.106L414.752 193.191L460.448 232.073ZM460.083 232.503L414.386 193.621L412.543 195.786L410.914 198.116L460.083 232.503ZM459.788 232.973L409.126 200.826L408.847 201.267L408.575 201.712L459.788 232.973ZM459.496 233.451L408.284 202.189L405.559 206.653L403.647 211.521L459.496 233.451ZM459.295 233.964L514.519 257.423L514.842 256.662L515.144 255.893L459.295 233.964ZM459.249 236.1L403.064 257.153L403.772 259.043L404.605 260.88L459.249 236.1ZM459.258 236.121L404.615 260.901L404.666 261.014L404.718 261.127L459.258 236.121ZM511.133 206.365C514.984 213.079 517.426 220.509 518.31 228.201L399.093 241.894C400.071 250.409 402.775 258.634 407.038 266.067L511.133 206.365ZM518.31 228.201C519.193 235.893 518.499 243.684 516.27 251.097L401.351 216.55C398.884 224.756 398.115 233.379 399.093 241.894L518.31 228.201ZM516.631 249.85L516.796 249.254L401.156 217.202L400.991 217.797L516.631 249.85ZM513.316 258.667L513.574 258.115L404.894 207.237L404.635 207.789L513.316 258.667ZM513.071 259.163C513.308 258.681 513.492 258.292 513.559 258.151C513.587 258.092 513.629 258.001 513.617 258.027C513.617 258.027 513.616 258.03 513.613 258.035C513.611 258.04 513.607 258.049 513.602 258.059C513.592 258.08 513.576 258.114 513.556 258.156C513.484 258.307 513.304 258.685 513.059 259.172C512.811 259.668 512.452 260.365 511.995 261.19L407.013 203.063C406.049 204.803 405.371 206.23 405.175 206.643C405.116 206.768 405.067 206.871 405.048 206.911C405.014 206.983 405.035 206.939 405.041 206.926C405.065 206.877 405.204 206.58 405.396 206.19L513.071 259.163ZM509.17 265.79L509.509 265.29L410.177 197.962L409.838 198.462L509.17 265.79ZM509.562 265.211C507.961 267.582 506.146 269.801 504.14 271.84L418.602 187.678C415.465 190.866 412.627 194.334 410.124 198.04L509.562 265.211ZM503.168 272.805C502.804 273.159 502.508 273.433 502.317 273.608C502.219 273.697 502.142 273.767 502.091 273.813C502.04 273.859 502.008 273.887 502.003 273.891C502 273.894 502.013 273.882 502.057 273.844C502.079 273.825 502.104 273.803 502.137 273.774C502.154 273.759 502.17 273.745 502.19 273.727C502.209 273.711 502.23 273.692 502.252 273.673C502.337 273.598 502.457 273.494 502.588 273.378C502.722 273.26 502.884 273.117 503.063 272.957L423.238 183.359C423.283 183.318 423.29 183.312 423.149 183.436C423.059 183.515 422.776 183.763 422.499 184.008C421.928 184.512 420.837 185.486 419.573 186.712L503.168 272.805ZM499.339 276.015C498.766 276.449 498.152 276.826 497.506 277.141L444.925 169.274C438.595 172.36 432.578 176.053 426.961 180.3L499.339 276.015ZM496.941 277.412C497.67 277.067 498.538 276.673 499.969 276.034L451.032 166.466C449.596 167.108 447.597 168.002 445.49 169.002L496.941 277.412ZM498.287 276.755C499.22 276.372 500.262 275.96 501.494 275.484L458.245 163.548C456.554 164.202 454.68 164.938 452.714 165.746L498.287 276.755ZM500.497 275.859C500.35 275.913 500.394 275.893 500.887 275.73C501.138 275.647 501.394 275.564 501.807 275.429C502.177 275.308 502.678 275.145 503.209 274.969L465.394 161.082C465.343 161.099 461.84 162.222 459.243 163.173L500.497 275.859ZM501.583 275.483C502.209 275.295 502.738 275.128 503.077 275.02C503.247 274.965 503.402 274.916 503.5 274.884C503.618 274.846 503.661 274.832 503.708 274.817C503.793 274.79 503.69 274.823 503.508 274.879C503.314 274.938 502.984 275.037 502.558 275.155L470.585 159.493C468.985 159.935 467.674 160.354 467.126 160.529C466.987 160.574 466.843 160.62 466.776 160.642C466.688 160.67 466.657 160.68 466.642 160.684C466.61 160.695 466.768 160.644 467.02 160.568L501.583 275.483ZM502.138 275.269C500.873 275.609 499.592 275.882 498.299 276.086L479.554 157.559C476.675 158.014 473.821 158.622 471.005 159.378L502.138 275.269ZM498.667 276.027C493.746 276.836 488.711 276.631 483.873 275.424L512.92 158.993C501.886 156.24 490.406 155.772 479.185 157.619L498.667 276.027ZM483.735 275.39C477.453 273.807 471.646 270.73 466.808 266.422L546.611 176.803C537.02 168.263 525.509 162.165 513.057 159.027L483.735 275.39ZM466.172 265.848C463.121 263.052 460.608 259.722 458.755 256.021L566.061 202.305C561.362 192.918 554.985 184.469 547.246 177.377L466.172 265.848ZM458.846 256.202C458.163 254.849 457.641 253.42 457.29 251.945L574.038 224.195C572.22 216.548 569.512 209.14 565.97 202.124L458.846 256.202ZM456.533 248.246L456.547 248.329L574.809 227.977L574.795 227.894L456.533 248.246ZM456.652 248.918C458.424 258.638 461.544 268.064 465.919 276.924L573.513 223.787C574.075 224.926 574.476 226.138 574.704 227.388L456.652 248.918ZM465.802 276.686C468.11 281.412 470.783 285.951 473.797 290.262L572.151 221.513C572.708 222.31 573.203 223.15 573.63 224.024L465.802 276.686ZM473.507 289.844C476.747 294.564 480.405 298.984 484.435 303.051L569.662 218.574C570.687 219.608 571.617 220.731 572.44 221.931L473.507 289.844ZM486.277 304.831L488.655 307.034L570.199 218.996L567.821 216.793L486.277 304.831ZM489.922 308.174C488.748 307.148 487.646 306.043 486.621 304.869L577.047 225.982C574.528 223.094 571.816 220.379 568.932 217.856L489.922 308.174ZM487.347 305.686C484.768 302.836 482.64 299.609 481.038 296.115L590.112 246.087C586.609 238.45 581.958 231.394 576.321 225.165L487.347 305.686ZM481.507 297.114C477.472 288.726 476.463 279.201 478.65 270.154L595.288 298.36C599.611 280.483 597.617 261.661 589.643 245.088L481.507 297.114ZM478.949 268.971C482.843 254.191 492.232 241.481 505.164 233.413L568.687 335.221C581.662 327.125 591.082 314.373 594.989 299.544L478.949 268.971ZM505.164 233.413C518.116 225.331 533.662 222.502 548.627 225.496L525.08 343.163C540.094 346.168 555.692 343.329 568.687 335.221L505.164 233.413ZM548.627 225.496C563.6 228.493 576.856 237.092 585.696 249.528L487.887 319.052C496.756 331.529 510.057 340.157 525.08 343.163L548.627 225.496ZM585.696 249.528C594.578 262.024 598.29 277.383 596.209 292.436L477.339 276.001C475.251 291.104 478.976 306.514 487.887 319.052L585.696 249.528ZM596.184 292.613L596.185 292.602L477.366 275.812L477.364 275.823L596.184 292.613ZM596.272 291.964C597.431 283.076 597.073 274.056 595.213 265.289L477.824 290.186C476.867 285.671 476.683 281.027 477.279 276.45L596.272 291.964ZM595.42 266.305C593.798 257.952 590.859 249.912 586.713 242.484L481.933 300.974C479.878 297.294 478.422 293.309 477.618 289.17L595.42 266.305ZM586.859 242.747C585.131 239.615 583.207 236.593 581.097 233.698L484.124 304.382C483.267 303.207 482.487 301.98 481.787 300.711L586.859 242.747ZM580.43 232.801C578.216 229.878 575.814 227.105 573.242 224.497L487.808 308.764C486.729 307.67 485.721 306.507 484.791 305.279L580.43 232.801ZM574.203 225.494C571.607 222.738 568.827 220.161 565.881 217.783L490.49 311.143C489.2 310.101 487.983 308.973 486.847 307.767L574.203 225.494ZM567.459 219.102L564.918 216.902L486.371 307.624L488.912 309.823L567.459 219.102ZM567.327 219.105C569.41 221.117 571.101 223.499 572.314 226.129L463.348 276.391C468.362 287.261 475.352 297.104 483.962 305.42L567.327 219.105ZM572.261 226.014C572.508 226.545 572.716 227.092 572.885 227.652L457.987 262.273C459.454 267.139 461.263 271.896 463.401 276.506L572.261 226.014ZM572.703 227.061C573.04 228.139 573.285 229.243 573.436 230.362L454.508 246.366C455.26 251.959 456.485 257.478 458.169 262.864L572.703 227.061ZM454.865 248.681L454.88 248.764L573.092 228.129L573.078 228.046L454.865 248.681ZM572.831 226.73C571.463 219.858 569.42 213.137 566.732 206.666L455.911 252.696C455.572 251.878 455.314 251.03 455.141 250.162L572.831 226.73ZM566.734 206.672C562.516 196.513 556.326 187.292 548.521 179.542L463.969 264.695C460.515 261.265 457.775 257.185 455.909 252.69L566.734 206.672ZM547.182 178.253C542.395 173.787 537.068 169.938 531.325 166.797L473.747 272.082C470.69 270.41 467.855 268.361 465.308 265.984L547.182 178.253ZM530.666 166.442C524.391 163.112 517.683 160.671 510.734 159.192L485.743 276.561C481.791 275.719 477.976 274.331 474.407 272.437L530.666 166.442ZM509.968 159.034C498.281 156.704 486.222 156.991 474.659 159.875L503.693 276.309C498.066 277.713 492.197 277.852 486.51 276.719L509.968 159.034ZM475.66 159.634C472.871 160.279 470.117 161.071 467.411 162.005L506.593 275.429C505.313 275.871 504.011 276.245 502.692 276.55L475.66 159.634ZM467.081 162.121C466.216 162.425 465.479 162.702 464.937 162.911C464.402 163.117 463.944 163.299 463.684 163.403C463.556 163.454 463.419 163.509 463.357 163.534C463.274 163.567 463.241 163.58 463.223 163.588C463.182 163.604 463.318 163.549 463.543 163.464L506.182 275.633C506.769 275.41 507.268 275.213 507.589 275.085C507.752 275.02 507.899 274.961 507.997 274.922C508.115 274.875 508.158 274.857 508.21 274.837C508.308 274.798 508.206 274.839 508.023 274.909C507.833 274.982 507.444 275.13 506.923 275.313L467.081 162.121ZM463.834 163.354L459.467 164.988L501.523 277.377L505.891 275.743L463.834 163.354ZM458.076 165.529C456.873 166.013 455.856 166.414 454.938 166.761L497.417 278.991C499.392 278.243 501.249 277.508 502.914 276.837L458.076 165.529ZM452.483 167.753L448.232 169.58L495.622 279.826L499.873 277.999L452.483 167.753ZM447.372 169.958C441.77 172.47 436.37 175.409 431.218 178.748L496.486 279.446C496.485 279.447 496.483 279.448 496.482 279.448L447.372 169.958ZM427.487 181.373C427.576 181.305 427.614 181.277 427.494 181.367C427.44 181.407 427.134 181.635 426.874 181.831C426.317 182.25 425.163 183.124 423.817 184.236L500.272 276.727C500.067 276.896 499.885 277.044 499.729 277.169C499.574 277.293 499.441 277.397 499.336 277.479C499.232 277.56 499.149 277.623 499.096 277.664C499.043 277.704 499.011 277.728 499.01 277.729C499.008 277.73 499.013 277.727 499.025 277.718C499.037 277.709 499.054 277.696 499.079 277.678C499.104 277.658 499.132 277.637 499.171 277.608C499.207 277.582 499.254 277.546 499.303 277.51C499.4 277.437 499.534 277.338 499.682 277.226C499.833 277.112 500.015 276.975 500.217 276.821L427.487 181.373ZM423.125 184.816C420.173 187.332 417.422 190.075 414.897 193.021L506 271.125C504.454 272.928 502.77 274.607 500.964 276.146L423.125 184.816ZM414.752 193.191L414.386 193.621L505.779 271.385L506.145 270.955L414.752 193.191ZM410.914 198.116C410.289 199.01 409.784 199.781 409.419 200.353C409.062 200.914 408.785 201.368 408.658 201.577C408.593 201.683 408.539 201.774 408.529 201.79C408.505 201.829 408.532 201.784 408.563 201.734C408.626 201.629 408.839 201.279 409.126 200.826L510.449 265.12C510.787 264.588 511.047 264.159 511.159 263.976C511.214 263.886 511.264 263.801 511.265 263.801C511.279 263.777 511.248 263.828 511.208 263.895C511.128 264.026 510.9 264.4 510.592 264.883C510.277 265.377 509.823 266.072 509.251 266.89L410.914 198.116ZM408.575 201.712L408.284 202.189L510.709 264.712L511 264.235L408.575 201.712ZM403.647 211.521L403.446 212.034L515.144 255.893L515.345 255.38L403.647 211.521ZM404.071 210.505C397.765 225.349 397.404 242.05 403.064 257.153L515.434 215.047C520.575 228.767 520.247 243.938 514.519 257.423L404.071 210.505ZM404.605 260.88L404.615 260.901L513.902 211.341L513.892 211.32L404.605 260.88ZM404.718 261.127C398.382 247.308 397.556 231.645 402.314 217.301L516.21 255.085C520.985 240.694 520.156 224.979 513.799 211.115L404.718 261.127ZM402.314 217.301C407.09 202.906 417.144 190.868 430.436 183.602L487.996 288.896C501.331 281.606 511.419 269.528 516.21 255.085L402.314 217.301ZM430.436 183.602C443.734 176.332 459.295 174.372 473.984 178.122L444.304 294.394C459.041 298.156 474.654 296.189 487.996 288.896L430.436 183.602ZM473.984 178.122C488.595 181.852 501.348 190.983 509.578 203.805L408.593 268.627C416.85 281.49 429.644 290.652 444.304 294.394L473.984 178.122Z" fill="black" mask="url(#path-4-inside-1_781_3515)"/>
<path d="M461.559 255.537C462.942 254.542 464.451 253.736 466.047 253.139C466.845 252.832 467.664 252.586 468.499 252.403C469.338 252.19 470.213 252.15 471.068 252.285C470.251 252.461 469.449 252.704 468.671 253.011L466.335 253.895C464.772 254.482 463.212 255.087 461.559 255.537Z" fill="black"/>
<path d="M465.934 261.126C466.249 261.116 466.547 260.983 466.766 260.756C466.985 260.53 467.107 260.227 467.107 259.912C467.107 259.598 466.985 259.295 466.766 259.068C466.547 258.842 466.249 258.709 465.934 258.698C465.62 258.709 465.322 258.842 465.103 259.068C464.884 259.295 464.762 259.598 464.762 259.912C464.762 260.227 464.884 260.53 465.103 260.756C465.322 260.983 465.62 261.116 465.934 261.126Z" fill="black"/>
<path d="M463.977 275.833C464.585 275.852 465.194 275.835 465.801 275.783C466.393 275.729 466.976 275.657 467.555 275.547C468.133 275.434 468.71 275.305 469.288 275.147C469.868 274.99 470.45 274.818 471.068 274.663C470.608 275.1 470.083 275.463 469.511 275.738C468.937 276.017 468.329 276.221 467.702 276.342C466.439 276.615 465.12 276.434 463.977 275.833Z" fill="black"/>
<path d="M459.473 399.024C456.466 397.917 453.374 397.054 450.228 396.446C447.132 395.815 443.951 395.714 440.82 396.146L439.667 396.34L438.542 396.646C437.795 396.854 437.061 397.107 436.344 397.403C434.911 398.02 433.537 398.766 432.24 399.632C430.917 400.499 429.663 401.492 428.186 402.349C426.708 403.179 425.116 403.79 423.462 404.163C421.82 404.553 420.133 404.723 418.446 404.669C416.679 404.671 414.937 404.248 413.367 403.437C412.934 403.173 412.547 402.838 412.224 402.447C411.934 402.091 411.755 401.831 411.501 401.54C411.025 400.991 410.474 400.513 409.864 400.119C408.523 399.34 407.106 398.697 405.636 398.201C404.051 397.698 402.53 397.008 401.106 396.146C400.385 395.659 399.751 395.053 399.232 394.355C398.976 394.026 398.747 393.711 398.502 393.42C398.381 393.269 398.254 393.14 398.125 392.994C397.984 392.827 397.821 392.66 397.702 392.492C396.746 391.167 395.869 389.788 395.076 388.361C394.272 386.957 393.472 385.559 392.706 384.136L392.94 384.309L390.881 383.86C390.169 383.738 389.471 383.547 388.797 383.289C387.444 382.724 386.257 381.826 385.346 380.678C384.847 380.104 384.504 379.411 384.351 378.665C384.293 378.273 384.318 377.872 384.425 377.49C384.532 377.108 384.718 376.752 384.972 376.447C385.458 375.874 386.053 375.403 386.723 375.061C387.392 374.719 388.122 374.513 388.872 374.455C389.596 374.414 390.323 374.443 391.041 374.544L393.137 374.695C394.535 374.783 395.934 374.849 397.333 374.892C400.131 374.978 402.931 374.958 405.711 374.784C408.472 374.641 411.216 374.257 413.91 373.635C415.213 373.326 416.475 372.864 417.669 372.259C418.229 371.967 418.75 371.605 419.22 371.183C419.692 370.751 420.121 370.273 420.5 369.757C420.817 369.399 421.014 368.95 421.066 368.475C421.049 368.372 421.032 368.332 420.901 368.218C420.704 368.093 420.49 367.997 420.264 367.936C419.014 367.682 417.727 367.665 416.471 367.884C415.828 367.974 415.193 368.113 414.572 368.301C414.319 368.376 414.075 368.479 413.844 368.608L413.629 368.748C413.534 368.813 413.439 368.866 413.344 368.92C413.158 369.024 412.966 369.117 412.769 369.198C412.036 369.49 411.269 369.689 410.486 369.791C410.11 369.844 409.736 369.882 409.363 369.908C408.931 369.947 408.496 369.931 408.068 369.86C407.163 369.707 406.326 369.283 405.665 368.646C405.037 368.015 404.581 367.234 404.341 366.376C403.923 364.732 404.144 362.99 404.96 361.503C405.365 360.674 406.005 359.982 406.8 359.515C407.066 359.375 407.353 359.281 407.65 359.24C407.824 359.217 408 359.215 408.174 359.235C408.265 359.245 408.355 359.262 408.443 359.284L408.556 359.314L408.569 359.312C408.773 359.332 408.979 359.319 409.179 359.273C410.466 358.978 411.72 358.556 412.923 358.014C413.556 357.745 414.186 357.464 414.814 357.17L415.754 356.725C416.091 356.564 416.434 356.413 416.782 356.27C418.176 355.712 419.641 355.351 421.134 355.199C422.611 355.066 424.098 355.117 425.562 355.352C426.994 355.548 428.411 355.835 429.805 356.212C432.614 356.952 435.285 358.141 437.714 359.733C438.918 360.541 440.046 361.458 441.083 362.472C442.083 363.393 443.154 364.236 444.284 364.992C449.105 367.803 454.67 369.072 460.233 368.629L460.242 368.628C460.268 368.627 460.293 368.635 460.313 368.652C460.333 368.669 460.345 368.693 460.348 368.718C460.35 368.744 460.343 368.77 460.326 368.79C460.31 368.81 460.287 368.824 460.262 368.827C454.574 369.7 448.757 368.708 443.681 365.998C442.439 365.248 441.258 364.4 440.149 363.463C437.079 360.736 433.37 358.829 429.366 357.918C428.037 357.598 426.689 357.363 425.331 357.215C424.011 357.036 422.674 357.024 421.352 357.18C420.047 357.333 418.77 357.666 417.556 358.168C417.254 358.296 416.957 358.432 416.662 358.577L415.703 359.046C415.061 359.355 414.411 359.655 413.755 359.945C412.405 360.58 410.988 361.063 409.531 361.386C409.043 361.489 408.538 361.489 408.049 361.388L407.933 361.361C407.894 361.352 407.925 361.36 407.918 361.358L407.928 361.36C407.933 361.361 407.935 361.359 407.926 361.36C407.875 361.37 407.826 361.389 407.781 361.414C407.374 361.689 407.049 362.069 406.839 362.512C406.285 363.514 406.124 364.687 406.388 365.802C406.525 366.305 406.783 366.768 407.138 367.15C407.492 367.501 407.943 367.736 408.432 367.826C408.698 367.874 408.969 367.886 409.238 367.861C409.566 367.844 409.892 367.816 410.212 367.775C410.826 367.707 411.428 367.563 412.007 367.346C412.136 367.297 412.261 367.238 412.383 367.172C412.441 367.143 412.497 367.111 412.551 367.075L412.779 366.931C413.159 366.712 413.565 366.54 413.988 366.42C414.715 366.21 415.457 366.058 416.209 365.964C417.732 365.725 419.288 365.784 420.789 366.138C421.241 366.269 421.666 366.478 422.045 366.756C422.282 366.939 422.48 367.168 422.626 367.429C422.772 367.691 422.864 367.979 422.896 368.276C422.936 368.789 422.836 369.303 422.606 369.764C422.432 370.143 422.214 370.5 421.957 370.828C421.495 371.438 420.969 371.998 420.388 372.497C419.799 373.001 419.149 373.428 418.453 373.77C417.122 374.404 415.721 374.878 414.278 375.181C411.477 375.758 408.626 376.059 405.765 376.078C402.93 376.137 400.103 376.041 397.287 375.861C395.879 375.769 394.473 375.653 393.07 375.513L390.968 375.288C390.295 375.184 389.615 375.145 388.935 375.173C388.278 375.214 387.637 375.385 387.046 375.674C386.456 375.964 385.928 376.367 385.493 376.86C385.291 377.093 385.141 377.365 385.053 377.66C384.965 377.955 384.94 378.265 384.982 378.57C385.111 379.208 385.401 379.803 385.823 380.298C386.663 381.367 387.769 382.197 389.031 382.703C389.672 382.941 390.336 383.115 391.011 383.222L393.081 383.626C393.128 383.635 393.173 383.654 393.212 383.682C393.251 383.709 393.284 383.745 393.309 383.787L393.315 383.798C394.864 386.59 396.603 389.272 398.52 391.824C398.641 391.98 398.77 392.093 398.892 392.23C399.036 392.379 399.198 392.531 399.336 392.689C399.623 393.001 399.883 393.327 400.134 393.623C400.601 394.201 401.163 394.695 401.797 395.084C403.167 395.827 404.619 396.407 406.123 396.812C407.729 397.274 409.279 397.911 410.746 398.71C411.501 399.173 412.187 399.741 412.784 400.396C413.068 400.703 413.361 401.097 413.588 401.356C413.789 401.576 414.022 401.765 414.278 401.917C415.594 402.561 417.042 402.888 418.506 402.875C420.041 402.923 421.575 402.78 423.074 402.448C424.569 402.129 426.009 401.595 427.35 400.862C428.665 400.113 429.983 399.155 431.368 398.282C432.77 397.392 434.251 396.633 435.792 396.014C436.575 395.728 437.375 395.488 438.187 395.296L439.405 395.02L440.64 394.862C443.914 394.528 447.221 394.775 450.408 395.591C453.55 396.386 456.61 397.474 459.549 398.839C459.573 398.849 459.591 398.868 459.601 398.892C459.611 398.915 459.612 398.942 459.603 398.966C459.593 398.99 459.575 399.009 459.552 399.021C459.529 399.032 459.503 399.033 459.478 399.025L459.473 399.024Z" fill="black"/>
<path d="M393.007 383.966C394.954 383.799 396.901 383.721 398.849 383.656C400.796 383.582 402.743 383.572 404.691 383.562L407.612 383.583C408.615 383.583 409.614 383.72 410.58 383.993C412.43 384.65 414.234 385.43 415.979 386.329C415.039 386.06 414.117 385.742 413.186 385.449C412.288 385.104 411.368 384.819 410.432 384.597C409.505 384.406 408.558 384.323 407.612 384.349L404.691 384.371C402.743 384.36 400.796 384.35 398.849 384.276C396.901 384.211 394.954 384.133 393.007 383.966Z" fill="black"/>
<path d="M393.997 385.708C395.306 386.717 396.557 387.794 397.8 388.881C398.443 389.404 399.014 390.02 399.64 390.455C400.271 390.909 400.979 391.247 401.729 391.452C402.452 391.669 403.289 391.702 404.114 391.855C404.935 391.991 405.75 392.169 406.553 392.388C408.197 392.733 409.725 393.494 410.991 394.599C410.311 394.146 409.564 393.803 408.778 393.58C408.003 393.332 407.213 393.137 406.412 392.995C405.61 392.856 404.809 392.711 403.999 392.613C403.163 392.533 402.332 392.406 401.511 392.231C400.671 391.991 399.883 391.597 399.187 391.07C398.545 390.527 397.938 389.945 397.369 389.327C396.22 388.15 395.08 386.962 393.997 385.708Z" fill="black"/>
<path d="M375.594 359.818C374.949 358.51 374.161 357.279 373.244 356.145L373.398 356.246C371.864 356.004 370.435 355.319 369.287 354.273C368.688 353.668 368.319 352.873 368.244 352.025C368.207 351.604 368.226 351.18 368.3 350.764C368.402 350.368 368.526 349.978 368.671 349.595C369.372 348.104 370.605 346.928 372.128 346.3C372.89 345.938 373.719 345.739 374.563 345.717C375.471 345.712 376.359 345.991 377.101 346.515L375.786 346.935C375.987 346.39 376.262 345.876 376.603 345.406C376.927 344.946 377.307 344.528 377.733 344.16C378.593 343.425 379.615 342.902 380.714 342.635C381.777 342.38 382.877 342.323 383.959 342.467L384.732 342.566C385.034 342.611 385.33 342.684 385.618 342.785C386.152 342.967 386.663 343.209 387.143 343.506C388.956 344.677 390.405 346.331 391.328 348.281C392.234 350.127 392.894 352.085 393.29 354.103L391.403 354.219C391.567 352.935 391.953 351.689 392.545 350.538C393.136 349.352 394.015 348.334 395.103 347.578C396.214 346.85 397.507 346.449 398.835 346.421C399.152 346.408 399.47 346.417 399.786 346.449L400.258 346.479C400.443 346.487 400.627 346.517 400.805 346.568C401.443 346.758 402.046 347.052 402.588 347.438C404.536 348.968 405.976 351.051 406.719 353.414C407.504 355.651 408.013 357.975 408.234 360.335C407.714 358.06 406.97 355.842 406.011 353.713C405.138 351.638 403.7 349.85 401.861 348.552C401.427 348.285 400.955 348.084 400.462 347.956C400.356 347.93 400.247 347.92 400.139 347.926L399.732 347.922C398.429 347.857 397.141 348.225 396.069 348.969C395.267 349.637 394.608 350.46 394.133 351.39C393.658 352.319 393.377 353.336 393.307 354.377L393.306 354.384C393.282 354.609 393.178 354.819 393.014 354.975C392.85 355.131 392.635 355.224 392.409 355.237C392.183 355.251 391.959 355.183 391.778 355.046C391.597 354.91 391.47 354.714 391.42 354.493C391.037 352.654 390.418 350.872 389.578 349.192C388.794 347.577 387.6 346.195 386.116 345.184C385.762 344.959 385.384 344.774 384.989 344.634C384.814 344.568 384.633 344.52 384.448 344.49L383.76 344.394C382.892 344.269 382.007 344.297 381.149 344.479C380.325 344.65 379.554 345.013 378.898 345.538C378.256 346.06 377.746 346.726 377.41 347.482L377.37 347.578C377.284 347.78 377.121 347.939 376.918 348.021C376.714 348.103 376.486 348.101 376.284 348.015C376.216 347.986 376.153 347.948 376.094 347.902C375.603 347.568 375.03 347.372 374.437 347.335C373.843 347.297 373.251 347.42 372.721 347.69C371.486 348.126 370.451 348.995 369.808 350.136C369.475 350.67 369.313 351.294 369.345 351.923C369.376 352.552 369.6 353.156 369.985 353.655C370.932 354.675 372.152 355.402 373.501 355.75L373.534 355.76C373.584 355.774 373.627 355.806 373.655 355.85C374.48 357.078 375.132 358.413 375.594 359.818Z" fill="black"/>
<path d="M368.847 359.138C368.311 358.034 367.359 357.188 366.2 356.784C365.075 356.461 363.871 356.552 362.806 357.039C362.294 357.197 361.833 357.49 361.474 357.888C361.114 358.286 360.868 358.773 360.762 359.299C360.714 360.399 361.013 361.487 361.619 362.408C362.228 363.424 362.953 364.367 363.779 365.217C363.98 365.437 364.191 365.638 364.4 365.844L365.078 366.436C365.562 366.854 366.029 367.281 366.492 367.71C368.347 369.427 370.081 371.229 371.81 373.058C371.94 373.195 372.025 373.368 372.055 373.555L372.065 373.619C372.179 374.2 372.369 374.764 372.63 375.297C373.177 376.439 373.956 377.456 374.916 378.282C375.404 378.724 375.891 379.02 376.544 379.52C377.739 380.458 378.747 381.612 379.516 382.922C380.291 384.21 380.864 385.607 381.217 387.068L381.172 386.925C381.628 388.187 382.484 389.265 383.609 389.996C384.811 390.697 386.175 391.072 387.567 391.083C389.026 391.115 390.484 390.964 391.906 390.634C393.361 390.317 394.788 389.883 396.173 389.337C394.872 390.102 393.497 390.732 392.07 391.22C390.62 391.728 389.108 392.038 387.575 392.139C385.963 392.256 384.35 391.934 382.906 391.21C382.176 390.805 381.52 390.278 380.966 389.653C380.431 389.023 379.985 388.323 379.64 387.571L379.622 387.525L379.594 387.428C379.225 386.176 378.679 384.982 377.972 383.884C377.273 382.799 376.393 381.842 375.37 381.054C374.911 380.702 374.198 380.26 373.64 379.764C373.053 379.271 372.519 378.717 372.047 378.113C371.566 377.507 371.155 376.847 370.825 376.147C370.474 375.415 370.233 374.637 370.106 373.836L370.362 374.396C368.688 372.575 366.959 370.78 365.226 369.026C364.79 368.591 364.349 368.161 363.903 367.748L363.195 367.083C362.966 366.843 362.734 366.604 362.523 366.356C361.659 365.366 360.915 364.277 360.31 363.111C359.603 361.887 359.336 360.458 359.553 359.062C359.631 358.695 359.769 358.343 359.962 358.021C360.168 357.717 360.403 357.432 360.662 357.171L361.531 356.573L362.463 356.19C363.739 355.739 365.137 355.779 366.384 356.303C366.967 356.581 367.487 356.976 367.911 357.464C368.335 357.951 368.654 358.522 368.847 359.138Z" fill="black"/>
<path d="M371.085 373.727C370.78 372.621 370.801 371.449 371.146 370.354C371.312 369.783 371.606 369.256 372.005 368.815C372.201 368.589 372.443 368.407 372.714 368.281C372.985 368.155 373.28 368.087 373.579 368.083C373.135 368.361 372.766 368.745 372.506 369.2C372.253 369.64 372.055 370.11 371.917 370.599C371.597 371.588 371.402 372.635 371.085 373.727Z" fill="black"/>
<path d="M373.448 356C374.136 355.831 374.697 355.713 375.293 355.596C375.916 355.456 376.551 355.374 377.189 355.35C376.756 355.899 376.136 356.269 375.447 356.39C375.105 356.47 374.75 356.477 374.406 356.41C374.061 356.342 373.735 356.203 373.448 356Z" fill="black"/>
<path d="M377.099 347.207C377.087 348.076 377.201 348.941 377.438 349.777C377.647 350.611 378.092 351.368 378.72 351.956C379.052 352.236 379.437 352.445 379.853 352.571C380.268 352.697 380.705 352.736 381.136 352.687C381.585 352.65 382.03 352.577 382.467 352.467L383.753 352.002L382.506 352.586C382.068 352.739 381.618 352.856 381.161 352.935C380.688 353.029 380.2 353.026 379.727 352.925C379.255 352.825 378.808 352.63 378.413 352.351C377.639 351.753 377.055 350.944 376.729 350.021C376.382 349.122 376.17 348.176 376.099 347.215C376.093 347.149 376.1 347.082 376.12 347.019C376.14 346.956 376.172 346.897 376.215 346.846C376.258 346.796 376.31 346.754 376.369 346.724C376.428 346.694 376.493 346.675 376.559 346.67C376.625 346.665 376.692 346.673 376.755 346.694C376.818 346.715 376.876 346.748 376.926 346.791C376.976 346.835 377.017 346.888 377.047 346.947C377.076 347.007 377.093 347.071 377.098 347.137C377.099 347.153 377.099 347.168 377.099 347.183L377.099 347.207Z" fill="black"/>
<path d="M381.128 352.856C381.822 353.913 382.435 355.021 382.962 356.171C383.552 357.328 383.955 358.571 384.157 359.854C384.214 360.093 384.328 360.314 384.489 360.499C384.65 360.684 384.853 360.828 385.082 360.917C385.605 361.18 386.166 361.359 386.744 361.449C387.336 361.557 387.941 361.563 388.534 361.465C389.146 361.413 389.714 361.127 390.12 360.666C389.967 360.956 389.755 361.211 389.499 361.415C389.242 361.619 388.945 361.767 388.628 361.85C387.996 362.037 387.336 362.111 386.679 362.068C386.007 362.039 385.347 361.88 384.736 361.601C384.379 361.461 384.064 361.232 383.822 360.935C383.579 360.639 383.417 360.285 383.35 359.907C383.149 358.71 382.827 357.536 382.388 356.404L381.128 352.856Z" fill="black"/>
<path d="M393.338 354.138C393.559 355.699 394.055 357.209 394.802 358.598C394.99 358.93 395.202 359.247 395.438 359.546C395.739 359.906 396.005 360.293 396.232 360.703C396.462 361.118 396.645 361.557 396.78 362.011C396.917 362.49 396.981 362.887 397.077 363.283C397.125 363.636 397.221 363.981 397.364 364.307C397.559 364.602 397.806 364.859 398.092 365.066C398.374 365.287 398.697 365.45 399.043 365.545C399.389 365.64 399.75 365.665 400.105 365.62C400.854 365.464 401.528 365.058 402.015 364.468C402.562 363.86 403.029 363.184 403.402 362.456L403.381 362.521C403.63 361.343 403.797 360.15 403.878 358.95C403.987 357.745 403.907 356.53 403.64 355.35C403.994 356.519 404.163 357.736 404.142 358.957C404.148 360.181 404.067 361.405 403.899 362.618C403.897 362.637 403.892 362.654 403.884 362.671L403.878 362.683C403.536 363.489 403.089 364.247 402.549 364.938C401.994 365.7 401.195 366.25 400.285 366.497C399.806 366.598 399.311 366.601 398.831 366.509C398.35 366.417 397.892 366.23 397.484 365.959C397.064 365.698 396.695 365.362 396.396 364.968C396.232 364.75 396.113 364.502 396.044 364.238L395.857 363.614C395.688 362.847 395.394 362.113 394.987 361.442C394.78 361.126 394.542 360.83 394.279 360.559C393.964 360.216 393.676 359.85 393.418 359.462C392.438 357.933 391.742 356.239 391.364 354.462C391.335 354.334 391.331 354.201 391.353 354.071C391.375 353.942 391.422 353.817 391.491 353.706C391.561 353.595 391.652 353.498 391.759 353.422C391.867 353.345 391.988 353.291 392.116 353.262C392.244 353.232 392.377 353.228 392.506 353.25C392.636 353.272 392.76 353.319 392.872 353.389C392.983 353.459 393.08 353.55 393.156 353.657C393.232 353.764 393.287 353.885 393.316 354.013C393.321 354.037 393.326 354.061 393.33 354.085L393.338 354.138Z" fill="black"/>
<path d="M391.492 371.66C391.532 371.66 391.562 371.669 391.602 371.669L391.692 371.73L391.492 371.66Z" fill="black"/>
<path d="M411.782 370.31C394.602 367.699 378.412 361.04 374.392 359.31C373.696 359.005 372.951 358.825 372.192 358.78C368.532 358.59 367.272 359.78 366.932 361.01C366.78 361.604 366.823 362.231 367.055 362.798C367.288 363.366 367.697 363.843 368.222 364.16L386.092 375.399L386.102 375.39C387.002 374.307 388.045 373.352 389.202 372.55C388.78 373.438 388.26 374.276 387.652 375.05C389.316 374.593 391.073 374.6 392.732 375.07C413.422 377.03 418.622 372.71 418.622 372.71C416.402 370.64 411.782 370.31 411.782 370.31ZM396.692 368.6L400.892 371.66L391.262 370.219L382.592 364.41L396.692 368.6ZM402.092 373.79C398.512 373.46 394.942 373.05 391.372 372.649C391.302 372.637 391.235 372.613 391.172 372.58C387.872 370.59 384.582 368.58 381.322 366.52L376.432 363.41C374.832 362.34 373.202 361.31 371.612 360.21C373.322 361.11 375.002 362.06 376.692 362.98L381.722 365.85C385.042 367.74 388.322 369.7 391.602 371.669C395.122 372.1 398.662 372.54 402.182 373.04C405.732 373.54 409.292 374.06 412.832 374.68C409.242 374.459 405.662 374.129 402.092 373.79H402.092Z" fill="black"/>
<path d="M391.692 371.73L391.492 371.66C391.532 371.66 391.562 371.669 391.602 371.669L391.692 371.73Z" fill="white"/>
<path d="M269.871 228.279C269.871 228.279 267.303 226.738 264.907 229.477C264.907 229.477 260.627 223.396 242.482 228.662C242.482 228.662 244.878 233.243 246.59 233.243C248.302 233.243 243.338 241.118 238.716 240.776C238.716 240.776 230.841 252.245 236.833 263.372C242.738 274.339 246.98 277.822 252.838 270.709C253.017 270.488 253.218 270.285 253.436 270.103C255.121 268.714 262.578 262.938 265.221 267.245C265.784 268.201 265.945 269.342 265.669 270.417C264.463 275.47 258.821 294.08 242.482 286.653C242.482 286.653 223.44 279.512 227.931 262.596C228.412 260.875 229.108 259.223 230.004 257.677C230.868 256.099 231.4 254.36 231.569 252.569C231.737 250.777 231.538 248.97 230.983 247.258C230.294 244.817 228.742 242.711 226.614 241.331C224.551 240.044 221.832 239.469 219.773 243.067C218.92 244.563 218.471 246.256 218.468 247.978C218.465 249.555 218.758 251.488 220.057 252.416L218.468 255.497C217.605 253.74 216.5 252.111 215.187 250.659C212.987 248.431 211.574 245.547 211.162 242.443C210.58 237.52 211.281 230.169 217.147 221.603C217.147 221.603 225.021 205.854 239.743 206.196C254.465 206.539 267.132 210.476 269.871 228.279Z" fill="black"/>
<path d="M245.221 248.821C247.778 248.236 250.405 248.02 253.024 248.178C254.343 248.244 255.651 248.442 256.93 248.771C258.236 249.051 259.449 249.657 260.456 250.533C259.293 249.993 258.051 249.643 256.777 249.497C255.519 249.316 254.249 249.184 252.968 249.127C250.408 248.968 247.835 248.956 245.221 248.821Z" fill="black"/>
<path d="M269.872 248.577C268.935 248.861 268.069 249.339 267.328 249.978C266.977 250.268 266.691 250.629 266.488 251.036C266.286 251.444 266.172 251.89 266.153 252.345C266.222 253.278 266.467 254.19 266.874 255.032L267.994 257.784C268.829 259.647 269.314 261.646 269.425 263.684C269.424 264.221 269.325 264.753 269.134 265.255C268.93 265.763 268.595 266.208 268.163 266.546C267.287 267.097 266.253 267.343 265.222 267.245C266.188 267.162 267.108 266.794 267.865 266.187C268.175 265.856 268.41 265.461 268.551 265.029C268.692 264.598 268.738 264.141 268.683 263.69C268.609 262.737 268.416 261.797 268.107 260.892C267.82 259.965 267.476 259.047 267.109 258.132C266.757 257.21 266.377 256.294 266.034 255.35C265.87 254.873 265.704 254.398 265.576 253.896C265.415 253.376 265.361 252.83 265.416 252.289C265.473 251.752 265.649 251.233 265.929 250.771C266.21 250.308 266.589 249.914 267.04 249.615C267.888 249.048 268.859 248.692 269.872 248.577Z" fill="black"/>
<path d="M269.871 228.279C270.192 230.198 270.43 232.127 270.586 234.066C270.765 236.003 270.875 237.945 270.917 239.893C270.947 241.84 270.918 243.791 270.766 245.744C270.677 247.734 270.232 249.693 269.453 251.526C269.442 251.549 269.428 251.57 269.41 251.589C268.81 252.236 268.246 252.916 267.721 253.626C267.461 253.982 267.229 254.358 267.029 254.75C266.806 255.132 266.716 255.578 266.775 256.017C266.638 255.575 266.663 255.1 266.845 254.675C267.003 254.247 267.194 253.832 267.418 253.434C267.865 252.641 268.382 251.89 268.962 251.189L268.919 251.251C269.251 250.375 269.472 249.462 269.577 248.531C269.725 247.592 269.785 246.633 269.856 245.678C269.969 243.76 269.989 241.831 270 239.901C270 236.038 269.915 232.167 269.871 228.279Z" fill="black"/>
<path d="M259.6 261.831C259.42 262.203 259.274 262.59 259.164 262.989C259.053 263.357 259.029 263.745 259.093 264.125C259.146 264.5 259.31 264.851 259.565 265.133C259.833 265.444 260.132 265.728 260.456 265.981C260.249 265.919 260.045 265.846 259.846 265.762C259.652 265.655 259.469 265.529 259.301 265.386C258.947 265.08 258.709 264.663 258.625 264.204C258.565 263.748 258.633 263.285 258.821 262.867C258.997 262.466 259.264 262.111 259.6 261.831Z" fill="black"/>
<path d="M220.057 252.416C220.649 253.16 221.122 253.991 221.458 254.881C221.638 255.335 221.768 255.807 221.846 256.289C221.888 256.542 221.905 256.798 221.896 257.054L221.891 257.251L221.903 257.358C221.898 257.428 221.914 257.497 221.947 257.559C222.094 257.872 222.353 258.118 222.673 258.249C223.053 258.443 223.454 258.595 223.867 258.701C224.747 258.938 225.651 259.07 226.562 259.092C225.662 259.445 224.688 259.561 223.731 259.431C223.231 259.38 222.742 259.255 222.28 259.059C222.008 258.954 221.759 258.795 221.549 258.593C221.338 258.391 221.17 258.149 221.053 257.882C220.991 257.731 220.961 257.57 220.965 257.407L220.961 257.167L220.969 257.017C220.979 256.81 220.974 256.602 220.955 256.396C220.917 255.957 220.848 255.522 220.75 255.093C220.556 254.213 220.3 253.329 220.057 252.416Z" fill="black"/>
<path d="M218.469 255.497C218.087 256.882 217.548 258.218 216.863 259.481C216.193 260.762 215.384 261.966 214.45 263.07C213.516 264.195 212.409 265.163 211.169 265.939C209.926 266.709 208.503 267.142 207.042 267.194C208.38 266.792 209.636 266.159 210.755 265.323C211.85 264.481 212.846 263.518 213.726 262.454C214.63 261.39 215.466 260.271 216.228 259.102C216.996 257.928 217.758 256.738 218.469 255.497Z" fill="black"/>
<path d="M231.013 295.554C232.094 295.08 233.117 294.481 234.061 293.771C234.997 293.072 235.884 292.311 236.718 291.492C237.578 290.698 238.349 289.811 239.15 288.942L240.315 287.596C240.695 287.137 241.073 286.674 241.491 286.231C241.252 286.786 240.975 287.323 240.699 287.862C240.386 288.377 240.078 288.901 239.734 289.399C239.04 290.399 238.25 291.329 237.377 292.177C236.5 293.032 235.521 293.776 234.462 294.391C233.412 295.029 232.234 295.426 231.013 295.554Z" fill="black"/>
<path d="M213.886 262.761C213.035 261.499 211.981 260.385 210.768 259.465C210.515 259.242 210.209 259.088 209.879 259.018C209.55 258.948 209.208 258.964 208.886 259.066C208.318 259.452 207.911 260.031 207.74 260.696C207.506 261.405 207.338 262.134 207.237 262.873C207.186 263.241 207.141 263.624 207.107 263.978C207.109 264.315 207.139 264.711 207.173 265.079C207.32 266.588 207.6 268.082 208.009 269.543C208.762 272.514 209.933 275.365 211.485 278.008C213.058 280.651 214.94 283.097 217.091 285.295C218.17 286.386 219.291 287.436 220.428 288.46C221.61 289.434 222.739 290.481 223.968 291.376C224.562 291.856 225.216 292.245 225.835 292.683C226.491 293.06 227.121 293.488 227.804 293.809C229.124 294.526 230.529 295.076 231.985 295.447C234.893 296.219 237.983 295.894 240.667 294.536C243.365 293.096 245.631 290.964 247.232 288.359C247.238 288.348 247.248 288.34 247.26 288.336C247.272 288.332 247.285 288.333 247.296 288.339C247.307 288.345 247.315 288.355 247.318 288.367C247.322 288.378 247.322 288.391 247.317 288.402C245.924 291.231 243.735 293.591 241.018 295.191C239.627 295.98 238.097 296.494 236.511 296.703C234.92 296.891 233.308 296.788 231.754 296.4C230.211 296.034 228.726 295.456 227.341 294.685C226.633 294.333 225.991 293.879 225.32 293.472C224.69 293.008 224.023 292.59 223.426 292.087C222.173 291.146 221.076 290.047 219.917 289.015C219.326 288.512 218.825 287.912 218.282 287.358C217.759 286.785 217.193 286.254 216.707 285.647C214.681 283.304 212.84 280.807 211.203 278.177C209.536 275.548 208.208 272.719 207.251 269.756C206.784 268.258 206.478 266.713 206.341 265.149C206.315 264.748 206.291 264.375 206.3 263.94C206.345 263.528 206.401 263.145 206.464 262.751C206.59 261.965 206.788 261.191 207.056 260.442C207.177 260.028 207.379 259.642 207.65 259.307C207.921 258.972 208.256 258.694 208.636 258.49C209.063 258.323 209.536 258.313 209.969 258.463C210.363 258.598 210.731 258.799 211.057 259.059C212.253 260.078 213.241 261.318 213.968 262.712C213.971 262.717 213.973 262.723 213.974 262.73C213.974 262.736 213.974 262.742 213.972 262.748C213.971 262.754 213.968 262.76 213.964 262.765C213.96 262.77 213.955 262.774 213.95 262.777C213.939 262.782 213.927 262.784 213.915 262.781C213.904 262.778 213.893 262.771 213.886 262.761Z" fill="black"/>
<path d="M216.779 258.73C215.25 257.789 213.546 257.171 211.769 256.913C210.019 256.594 208.213 256.917 206.683 257.824C205.961 258.326 205.354 258.975 204.903 259.728L203.35 261.959C202.322 263.475 201.171 264.904 199.908 266.231C199.879 266.26 199.844 266.283 199.805 266.297C199.766 266.312 199.725 266.318 199.684 266.316L199.661 266.315C193.263 265.936 186.844 265.784 180.442 265.827C177.24 265.854 174.042 265.982 170.861 266.232C167.706 266.406 164.582 266.949 161.552 267.848L161.498 267.862L161.425 267.878C159.748 268.307 158.151 269.003 156.694 269.937C155.936 270.397 155.207 270.901 154.51 271.449L153.455 272.261C153.114 272.546 152.793 272.857 152.462 273.154C149.818 275.57 147.47 278.289 145.465 281.257C141.442 287.241 138.153 293.687 135.671 300.457C135.057 302.156 134.385 303.833 133.819 305.549L132.199 310.724C131.65 312.428 131.16 314.234 130.521 315.96C129.9 317.703 129.174 319.388 128.478 321.061L126.337 326.089L125.221 328.594C124.841 329.461 124.418 330.308 123.952 331.131C123.857 331.285 123.75 331.431 123.631 331.566C123.699 331.569 123.705 331.413 123.709 331.476C123.698 331.573 123.702 331.672 123.721 331.769C123.792 332.122 123.914 332.464 124.083 332.783C124.457 333.497 124.956 334.137 125.556 334.675C126.782 335.776 128.316 336.477 129.951 336.684L129.308 338.244C128.3 337.456 127.345 336.602 126.451 335.686C125.961 335.192 125.533 334.64 125.178 334.042C125.071 333.848 124.986 333.642 124.925 333.428C124.893 333.287 124.871 333.145 124.86 333.001C124.86 332.812 124.892 332.625 124.955 332.447C125.026 332.256 125.142 332.084 125.291 331.946C125.361 331.881 125.434 331.82 125.51 331.764C125.577 331.725 125.641 331.695 125.708 331.663C125.933 331.56 126.174 331.493 126.42 331.465C127.123 331.415 127.831 331.465 128.52 331.613C129.164 331.73 129.781 331.886 130.395 332.048L132.227 332.63L133.998 333.341C138.625 335.428 142.729 338.2 147.001 340.639C151.246 343.118 155.635 345.339 160.146 347.29C164.673 349.217 169.298 350.901 174.004 352.335L174.01 352.336C174.139 352.376 174.25 352.459 174.326 352.571C174.402 352.683 174.437 352.817 174.426 352.952C174.018 357.55 173.853 362.166 173.931 366.782C173.963 369.077 174.159 371.367 174.518 373.634C174.688 374.74 175.006 375.819 175.463 376.841C175.675 377.301 175.993 377.704 176.391 378.019C176.493 378.063 176.592 378.11 176.69 378.163C176.794 378.195 176.905 378.193 177.011 378.217C177.25 378.246 177.577 378.229 177.855 378.236L205.675 378.312C214.948 378.358 224.221 378.307 233.493 378.297L261.312 378.203L260.992 378.344C262.886 376.349 264.959 374.532 267.185 372.916C269.406 371.276 271.819 369.913 274.37 368.856C276.949 367.771 279.719 367.215 282.516 367.221C283.935 367.247 285.346 367.451 286.714 367.83L290.568 369.122C291.856 369.54 293.148 369.947 294.442 370.324C295.687 370.744 296.974 371.022 298.281 371.153C299.732 371.317 301.136 371.772 302.406 372.492C303.075 372.849 303.679 373.315 304.193 373.872C304.481 374.18 304.704 374.542 304.848 374.938C304.993 375.334 305.056 375.754 305.035 376.175C305.071 376.892 305.046 377.611 304.962 378.324C304.873 379.151 304.524 379.93 303.963 380.546C303.36 381.141 302.565 381.503 301.72 381.569C300.977 381.649 300.226 381.625 299.488 381.499C298.786 381.389 298.091 381.23 297.41 381.025L295.465 380.437C294.843 380.259 294.211 380.121 293.572 380.024C293.042 379.915 292.496 379.921 291.968 380.04L292.161 378.716C294.734 380.518 297.756 381.573 300.892 381.763C302.477 381.847 304.066 381.756 305.631 381.491C307.247 381.27 308.85 380.999 310.478 380.727C311.298 380.598 312.113 380.455 313.014 380.397C313.508 380.356 314.006 380.385 314.492 380.484C315.078 380.609 315.608 380.922 316.002 381.374C316.341 381.777 316.6 382.24 316.767 382.74C317.244 384.08 317.316 385.531 316.972 386.912C316.73 387.829 316.299 388.684 315.706 389.425C315.114 390.165 314.373 390.773 313.532 391.21C311.956 392.02 310.24 392.523 308.476 392.693L309.246 392.114C308.834 393.053 308.323 393.947 307.722 394.778C307.124 395.617 306.428 396.382 305.649 397.057C304.83 397.742 303.898 398.281 302.895 398.649C301.863 398.997 300.772 399.135 299.686 399.056L300.509 398.718C298.838 400.665 297.198 402.576 295.316 404.417C295.076 404.646 294.822 404.876 294.539 405.105C294.248 405.326 293.944 405.529 293.627 405.712C293.033 406.047 292.416 406.338 291.78 406.585C290.54 407.067 289.259 407.434 287.952 407.682C285.364 408.165 282.721 408.286 280.1 408.043C279.446 407.998 278.801 407.892 278.151 407.818L276.225 407.481L274.42 407.185L272.582 406.994C267.581 406.736 262.567 406.898 257.592 407.478C252.583 407.986 247.588 408.741 242.618 409.622C240.152 410.06 237.71 410.639 235.222 411.187C232.744 411.738 230.258 412.274 227.766 412.777C222.778 413.773 217.769 414.681 212.73 415.402C202.654 416.898 192.487 417.702 182.302 417.809C181.029 417.814 179.756 417.861 178.483 417.831L174.664 417.745C172.118 417.727 169.577 417.546 167.035 417.395C164.49 417.287 161.959 416.992 159.425 416.745C158.152 416.604 156.906 416.527 155.608 416.325C154.322 416.126 153.05 415.851 151.797 415.503C146.736 414.137 142.145 411.413 138.523 407.625C134.895 403.816 132.601 398.932 131.985 393.708C130.87 383.583 130.422 373.444 130.169 363.3C129.947 353.156 129.919 343.013 130.085 332.871C130.086 332.845 130.096 332.82 130.115 332.801C130.134 332.782 130.16 332.772 130.186 332.772C130.213 332.773 130.238 332.784 130.257 332.802C130.275 332.821 130.286 332.847 130.285 332.873C130.328 343.011 130.561 353.144 130.986 363.273C131.434 373.391 131.988 383.527 133.245 393.545C133.891 398.47 136.12 403.052 139.596 406.6C143.059 410.151 147.426 412.689 152.226 413.94C153.418 414.261 154.629 414.511 155.851 414.69C157.06 414.869 158.347 414.942 159.595 415.068C162.108 415.291 164.618 415.562 167.141 415.648C169.662 415.775 172.18 415.934 174.705 415.929L178.49 415.982C179.751 416.001 181.013 415.943 182.275 415.927L186.059 415.85L189.84 415.655C192.362 415.555 194.877 415.334 197.393 415.131C199.912 414.968 202.416 414.632 204.928 414.388C207.432 414.076 209.939 413.767 212.435 413.393C217.433 412.668 222.403 411.759 227.355 410.76C229.831 410.255 232.3 409.718 234.771 409.164C237.232 408.617 239.724 408.021 242.249 407.568C247.261 406.671 252.297 405.899 257.376 405.374C262.477 404.769 267.622 404.618 272.75 404.922L274.693 405.134L276.638 405.463L278.456 405.79C279.065 405.861 279.671 405.965 280.282 406.01C282.715 406.248 285.169 406.147 287.575 405.712C288.76 405.493 289.924 405.167 291.051 404.737C291.598 404.528 292.13 404.281 292.642 403.996C292.875 403.863 293.099 403.716 293.315 403.557C293.526 403.388 293.743 403.194 293.963 402.987C295.716 401.291 297.397 399.361 299.034 397.469C299.13 397.359 299.249 397.271 299.382 397.212C299.516 397.153 299.662 397.125 299.808 397.129L299.856 397.131C300.671 397.191 301.49 397.091 302.266 396.836C303.051 396.549 303.782 396.129 304.426 395.596C305.087 395.026 305.678 394.381 306.187 393.672C306.704 392.964 307.146 392.205 307.507 391.406L307.509 391.401C307.577 391.247 307.683 391.113 307.817 391.013C307.952 390.912 308.11 390.848 308.277 390.826C309.791 390.689 311.265 390.27 312.626 389.593C313.252 389.282 313.804 388.842 314.248 388.302C314.691 387.762 315.015 387.134 315.198 386.459C315.378 385.779 315.416 385.069 315.309 384.373C315.242 383.73 315.017 383.113 314.653 382.577C314.51 382.398 314.307 382.277 314.081 382.237C313.76 382.176 313.432 382.158 313.107 382.184C312.367 382.222 311.558 382.349 310.755 382.469C309.139 382.721 307.499 382.981 305.857 383.188C304.176 383.451 302.471 383.529 300.773 383.419C297.31 383.177 293.985 381.966 291.177 379.925L291.162 379.914C291.052 379.832 290.966 379.722 290.914 379.595C290.862 379.469 290.846 379.33 290.867 379.195C290.889 379.059 290.947 378.932 291.035 378.828C291.124 378.723 291.239 378.645 291.369 378.601C292.158 378.365 292.993 378.332 293.798 378.504C294.501 378.618 295.197 378.776 295.879 378.979L297.829 379.591C298.447 379.784 299.077 379.935 299.715 380.043C300.945 380.253 302.284 380.23 302.941 379.544C303.635 378.867 303.678 377.53 303.646 376.194C303.652 376.042 303.646 375.889 303.628 375.738C303.626 375.628 303.602 375.519 303.556 375.418C303.468 375.178 303.333 374.957 303.16 374.768C302.751 374.324 302.272 373.951 301.743 373.663C300.647 373.03 299.438 372.619 298.183 372.454C296.786 372.302 295.411 371.994 294.083 371.534C292.773 371.137 291.477 370.713 290.185 370.279L286.324 368.94C285.074 368.589 283.786 368.392 282.489 368.355C279.839 368.326 277.211 368.826 274.759 369.828C269.804 371.925 265.335 375.023 261.633 378.927L261.619 378.941C261.579 378.981 261.531 379.014 261.478 379.036C261.425 379.058 261.369 379.069 261.312 379.069L233.495 378.975C224.223 378.964 214.951 378.914 205.679 378.959L177.864 379.035C177.563 379.03 177.308 379.053 176.971 379.027C176.791 379.011 176.613 378.981 176.438 378.939L175.95 378.713C175.42 378.326 174.994 377.815 174.709 377.224C174.199 376.136 173.839 374.983 173.639 373.798C173.24 371.489 173.007 369.155 172.942 366.813C172.798 362.157 172.901 357.496 173.249 352.85L173.67 353.468C168.898 352.085 164.204 350.447 159.609 348.56C155.018 346.647 150.547 344.459 146.22 342.009C141.873 339.621 137.736 336.846 133.328 334.888L131.656 334.226L129.953 333.692C129.371 333.542 128.789 333.397 128.216 333.297C127.696 333.185 127.164 333.142 126.632 333.17C126.561 333.188 126.437 333.203 126.455 333.213L126.443 333.21C126.461 333.205 126.477 333.196 126.489 333.182C126.497 333.155 126.555 333.115 126.566 333.055C126.596 332.818 126.565 333.04 126.697 333.222C126.982 333.681 127.321 334.106 127.704 334.488C128.542 335.337 129.435 336.129 130.377 336.859L130.385 336.865C130.536 336.984 130.643 337.148 130.691 337.333C130.739 337.518 130.725 337.714 130.651 337.89C130.577 338.067 130.448 338.214 130.282 338.31C130.116 338.405 129.924 338.444 129.734 338.42C127.736 338.175 125.861 337.325 124.361 335.983C123.602 335.307 122.97 334.499 122.497 333.599C122.239 333.115 122.056 332.594 121.954 332.054C121.888 331.704 121.897 331.344 121.981 330.997C122.05 330.739 122.179 330.502 122.357 330.303C122.377 330.247 122.364 330.298 122.428 330.182C122.821 329.504 123.219 328.645 123.595 327.844L124.709 325.374L126.867 320.382C127.575 318.703 128.297 317.052 128.904 315.373C129.536 313.691 130.006 311.988 130.579 310.235L132.244 305.014C132.826 303.282 133.515 301.585 134.146 299.869C136.71 292.992 140.093 286.448 144.222 280.38C145.275 278.868 146.403 277.41 147.603 276.013C148.826 274.625 150.135 273.316 151.522 272.093C151.871 271.788 152.208 271.471 152.567 271.178L153.683 270.341C154.423 269.775 155.196 269.255 155.999 268.782C157.618 267.77 159.395 267.036 161.256 266.611L161.13 266.642C164.272 265.744 167.508 265.22 170.773 265.081C173.996 264.869 177.218 264.782 180.437 264.796C186.876 264.81 193.298 265.136 199.711 265.647L199.464 265.73C200.719 264.46 201.869 263.09 202.904 261.634L204.498 259.447C204.999 258.656 205.662 257.98 206.442 257.462C207.231 256.953 208.13 256.639 209.064 256.545C209.979 256.436 210.905 256.454 211.815 256.599C213.623 256.9 215.351 257.569 216.891 258.565C216.913 258.579 216.929 258.601 216.935 258.627C216.941 258.653 216.936 258.679 216.922 258.702C216.908 258.724 216.886 258.74 216.86 258.746C216.835 258.752 216.808 258.748 216.785 258.734L216.779 258.73Z" fill="black"/>
<path d="M169.817 275.697C171.064 276.051 172.195 276.727 173.097 277.658C174.026 278.574 174.769 279.661 175.285 280.859C175.803 282.051 176.093 283.328 176.143 284.626C176.168 285.265 176.135 285.905 176.045 286.538C175.936 287.166 175.77 287.783 175.549 288.381C175.327 287.762 175.227 287.165 175.064 286.582C174.889 286.002 174.784 285.425 174.59 284.873C174.28 283.777 173.899 282.703 173.451 281.656C173.002 280.614 172.476 279.608 171.879 278.644C171.254 277.62 170.565 276.636 169.817 275.697Z" fill="black"/>
<path d="M174.179 299.663C174.565 304.102 174.753 308.54 174.871 312.977C175.002 317.415 175.016 321.852 175.008 326.288C174.962 330.725 174.891 335.161 174.703 339.596C174.528 344.032 174.282 348.467 173.837 352.901C173.449 348.462 173.26 344.024 173.142 339.586C173.012 335.149 172.998 330.712 173.009 326.275C173.057 321.839 173.128 317.403 173.317 312.967C173.492 308.532 173.737 304.097 174.179 299.663Z" fill="black"/>
<path d="M265.729 270.337C269.391 272.628 272.986 275.015 276.514 277.497C278.28 278.736 280.031 279.998 281.768 281.282L284.353 283.256C284.806 283.596 285.233 283.969 285.63 284.374L286.244 285.015L286.762 285.671C288.101 287.398 289.323 289.214 290.42 291.106C291.524 292.969 292.599 294.845 293.645 296.734C295.711 300.527 297.838 304.279 300.027 307.988C301.122 309.844 302.238 311.688 303.375 313.519L305.076 316.265C305.58 317.163 306.179 318.004 306.862 318.774C307.587 319.484 308.45 320.189 309.2 321.073C310.089 322 310.625 323.209 310.713 324.49C310.646 325.803 310.073 327.039 309.116 327.941C308.707 328.354 308.277 328.746 307.827 329.116C307.425 329.44 307.034 329.781 306.651 330.132C305.881 330.839 305.173 331.581 304.453 332.38C303.72 333.19 302.961 333.976 302.191 334.753C300.636 336.305 298.985 337.759 297.247 339.104C295.476 340.476 293.548 341.632 291.503 342.547C290.431 343.001 289.304 343.313 288.151 343.475C286.94 343.655 285.704 343.547 284.542 343.161C284.357 343.106 284.199 342.983 284.099 342.817L284.092 342.807C283.342 341.563 282.52 340.323 281.689 339.11C280.858 337.891 279.988 336.701 279.079 335.54C278.167 334.389 277.192 333.288 276.158 332.244C275.163 331.169 273.944 330.326 272.588 329.774L272.581 329.772C272.557 329.763 272.537 329.746 272.525 329.724C272.514 329.702 272.511 329.676 272.518 329.651C272.524 329.627 272.54 329.606 272.561 329.593C272.583 329.579 272.609 329.575 272.633 329.58C274.115 329.962 275.486 330.69 276.632 331.705C277.807 332.655 278.909 333.694 279.927 334.812C281.973 337.027 283.853 339.391 285.551 341.882L285.102 341.528C287.006 341.916 288.986 341.628 290.701 340.713C292.573 339.821 294.333 338.71 295.943 337.403C297.612 336.108 299.208 334.721 300.723 333.249C301.49 332.516 302.248 331.772 302.982 331.003C303.725 330.221 304.526 329.423 305.365 328.695C305.786 328.329 306.217 327.973 306.663 327.633C307.066 327.296 307.45 327.008 307.788 326.665C308.443 326.101 308.87 325.318 308.991 324.462C308.939 323.574 308.585 322.73 307.988 322.071C307.375 321.283 306.602 320.569 305.851 319.712C305.653 319.488 305.468 319.253 305.296 319.008L304.862 318.275L304.082 316.843L302.558 313.988C301.552 312.08 300.524 310.186 299.475 308.306C297.371 304.547 295.153 300.851 292.75 297.276C290.369 293.707 287.953 290.093 285.373 286.795L284.885 286.185L284.376 285.665C284.027 285.292 283.649 284.947 283.245 284.635L280.731 282.638L275.655 278.652C272.263 275.998 268.915 273.28 265.611 270.498C265.592 270.482 265.579 270.459 265.576 270.434C265.573 270.409 265.579 270.383 265.594 270.363C265.609 270.342 265.631 270.328 265.656 270.323C265.681 270.318 265.707 270.323 265.729 270.337L265.729 270.337Z" fill="black"/>
<path d="M279.115 302.63C277.364 309.209 275.712 315.803 274.331 322.424C273.621 325.705 273.125 329.03 272.846 332.376C272.751 333.985 272.742 335.761 272.601 337.483C272.463 339.239 272.169 340.979 271.723 342.683C270.672 346.05 268.988 349.186 266.761 351.923C265.733 353.295 264.642 354.622 263.622 355.955C263.131 356.616 262.633 357.273 262.192 357.982C261.719 358.665 261.292 359.384 260.866 360.104C259.192 363.031 257.694 366.056 256.383 369.163C254.999 372.257 253.805 375.436 252.639 378.635C254.124 371.948 256.429 365.469 259.502 359.347C260.296 357.799 261.204 356.313 262.221 354.902C263.229 353.508 264.262 352.177 265.236 350.801C267.283 348.227 268.831 345.291 269.797 342.146C270.226 340.563 270.514 338.945 270.656 337.311C270.815 335.645 270.81 334.018 270.963 332.235C271.32 328.809 271.939 325.414 272.814 322.082C274.493 315.469 276.598 308.971 279.115 302.63Z" fill="black"/>
<path d="M308.377 327.395C310.577 329.104 312.662 330.924 314.78 332.619C315.315 333.032 315.849 333.438 316.372 333.794L317.244 334.313C317.565 334.516 317.87 334.729 318.161 334.952C319.284 335.857 320.317 336.868 321.245 337.971C323.09 340.155 324.541 342.643 325.533 345.324C326.571 347.98 326.864 350.869 326.381 353.679C326.089 350.98 325.318 348.354 324.104 345.926C322.921 343.531 321.449 341.292 319.719 339.258C318.886 338.236 317.963 337.291 316.963 336.433C316.721 336.218 316.471 336.02 316.221 335.837L315.354 335.235C314.784 334.793 314.244 334.315 313.737 333.802C311.757 331.836 309.962 329.691 308.377 327.395Z" fill="black"/>
<path d="M286.298 342.643C288.264 345.28 289.608 348.329 290.228 351.56C290.298 351.972 290.357 352.388 290.413 352.805C290.451 353.209 290.456 353.686 290.506 354.033C290.584 354.74 290.752 355.434 291.008 356.097C291.565 357.515 292.28 358.865 293.139 360.124C293.989 361.426 294.925 362.671 295.94 363.851C296.43 364.458 296.972 365.023 297.492 365.607C298.057 366.144 298.572 366.742 299.154 367.263C301.373 369.516 304.029 371.289 306.961 372.473C305.328 372.307 303.74 371.844 302.274 371.107C300.809 370.361 299.423 369.469 298.136 368.446C295.545 366.404 293.294 363.964 291.467 361.218C290.538 359.813 289.785 358.299 289.222 356.712C288.951 355.861 288.795 354.978 288.76 354.086C288.733 353.635 288.745 353.31 288.745 352.914L288.688 351.768C288.329 348.628 287.524 345.555 286.298 342.643Z" fill="black"/>
<path d="M308.377 368.307C308.577 367.019 309.023 365.781 309.692 364.662C310.349 363.531 311.146 362.487 312.065 361.556C312.994 360.642 314.026 359.838 315.139 359.159C315.692 358.822 316.263 358.516 316.85 358.243C317.45 357.997 318.049 357.758 318.659 357.558C317.598 358.294 316.552 359.001 315.559 359.771C314.569 360.531 313.626 361.352 312.737 362.228C311.86 363.111 311.05 364.058 310.314 365.062C309.563 366.077 308.914 367.164 308.377 368.307Z" fill="black"/>
<path d="M311.985 370.59C314.207 367.038 316.641 363.623 319.274 360.364C320.591 358.73 321.959 357.135 323.378 355.577C324.823 354.028 326.352 352.561 327.96 351.182C329.599 349.743 331.444 348.556 333.433 347.661C334.508 347.208 335.666 346.986 336.833 347.01C338.028 347.041 339.197 347.375 340.228 347.981C342.148 349.218 343.617 351.042 344.417 353.181C344.834 354.199 345.135 355.26 345.315 356.346C345.538 357.469 345.515 358.626 345.249 359.74L344.929 359.039C347.178 360.186 349.345 361.43 351.493 362.723C353.637 364.018 355.753 365.361 357.792 366.821C359.876 368.24 361.806 369.873 363.552 371.691C364.436 372.629 365.185 373.685 365.779 374.828C366.432 376.046 366.587 377.47 366.211 378.799L366.222 378.763C365.938 379.863 365.33 380.853 364.475 381.603C364.01 381.975 363.47 382.241 362.891 382.382C362.313 382.523 361.711 382.535 361.127 382.419C360.044 382.198 359.014 381.768 358.096 381.154C357.213 380.577 356.379 379.928 355.603 379.215L356.942 378.636C356.905 380.007 356.612 381.359 356.077 382.622C355.553 383.898 354.77 385.051 353.776 386.007C352.78 386.948 351.613 387.69 350.339 388.194C349.799 388.427 349.274 388.691 348.765 388.984C348.531 389.118 348.306 389.268 348.091 389.431C348.011 389.493 347.935 389.561 347.865 389.635C347.812 389.681 347.827 389.736 347.874 389.557L347.535 388.6C348.158 389.141 348.673 389.795 349.054 390.527C349.459 391.279 349.671 392.12 349.671 392.975C349.672 393.829 349.459 394.67 349.054 395.422C348.685 396.137 348.199 396.784 347.617 397.339C346.447 398.44 344.962 399.147 343.369 399.36C342.63 399.449 341.885 399.484 341.141 399.464C340.34 399.463 339.544 399.336 338.782 399.089L339.489 399.091C337.16 399.812 334.767 400.306 332.342 400.564C329.924 400.811 327.486 400.798 325.07 400.525C323.812 400.405 322.578 400.114 321.4 399.658C320.745 399.405 320.152 399.014 319.662 398.511C319.172 398.008 318.797 397.405 318.561 396.744C318.215 395.419 318.375 394.014 319.008 392.801C319.291 392.213 319.657 391.67 320.096 391.187C320.563 390.604 321.234 390.219 321.974 390.11L321.891 390.119C322.24 390.067 322.591 390.038 322.944 390.031C323.29 390.024 323.637 390.036 323.982 390.069C324.688 390.126 325.377 390.31 326.017 390.613L325.502 391.215C325.184 390.651 324.936 390.05 324.762 389.426C324.583 388.805 324.503 388.16 324.525 387.514C324.548 386.862 324.732 386.226 325.061 385.662C325.395 385.119 325.849 384.659 326.389 384.317C326.411 384.303 326.438 384.298 326.464 384.303C326.49 384.308 326.513 384.323 326.527 384.346C326.541 384.367 326.546 384.392 326.542 384.417C326.538 384.442 326.525 384.464 326.505 384.48C326.037 384.844 325.658 385.31 325.397 385.842C325.15 386.366 325.034 386.942 325.058 387.52C325.085 388.102 325.204 388.675 325.409 389.219C325.609 389.763 325.872 390.282 326.194 390.764C326.242 390.836 326.267 390.921 326.264 391.008C326.261 391.095 326.23 391.179 326.177 391.247C326.123 391.316 326.049 391.365 325.965 391.389C325.881 391.412 325.792 391.409 325.711 391.378L325.678 391.366C325.113 391.159 324.517 391.045 323.915 391.028C323.608 391.017 323.301 391.024 322.995 391.049C322.695 391.072 322.397 391.114 322.102 391.174L322.062 391.181L322.018 391.184C321.599 391.33 321.236 391.603 320.981 391.966C320.649 392.379 320.378 392.838 320.176 393.329C319.749 394.253 319.677 395.301 319.974 396.275C320.16 396.719 320.44 397.118 320.795 397.444C321.149 397.771 321.57 398.017 322.028 398.166C323.07 398.517 324.155 398.727 325.253 398.789C327.54 398.964 329.839 398.893 332.11 398.579C334.379 398.298 336.615 397.801 338.788 397.096C339.01 397.022 339.249 397.02 339.471 397.09L339.496 397.098C340.671 397.357 341.883 397.406 343.075 397.243C344.225 397.095 345.301 396.59 346.15 395.799C346.983 395.074 347.505 394.056 347.609 392.956C347.613 392.43 347.49 391.911 347.251 391.442C347.004 390.95 346.673 390.504 346.272 390.126L346.201 390.06C346.08 389.949 345.991 389.808 345.944 389.651C345.897 389.494 345.893 389.328 345.932 389.169C346.011 388.838 346.18 388.535 346.421 388.294C346.568 388.141 346.727 388.001 346.898 387.875C347.185 387.662 347.487 387.469 347.801 387.297C348.385 386.976 348.988 386.688 349.605 386.435C350.682 386.042 351.672 385.444 352.521 384.674C353.355 383.9 354.028 382.967 354.5 381.932C354.981 380.893 355.27 379.777 355.352 378.636L355.356 378.576C355.365 378.426 355.417 378.281 355.506 378.159C355.595 378.037 355.717 377.944 355.858 377.889C355.998 377.834 356.152 377.821 356.299 377.851C356.447 377.88 356.584 377.952 356.692 378.057C357.383 378.735 358.126 379.358 358.913 379.921C359.649 380.477 360.486 380.886 361.377 381.125C361.781 381.234 362.205 381.252 362.618 381.178C363.03 381.103 363.421 380.937 363.761 380.692C364.461 380.128 364.978 379.368 365.245 378.509L365.257 378.472C365.607 377.383 365.522 376.201 365.018 375.174C364.518 374.072 363.843 373.058 363.019 372.17C361.341 370.355 359.47 368.727 357.441 367.315C353.348 364.496 348.99 362.085 344.428 360.115C344.305 360.06 344.205 359.965 344.145 359.844C344.084 359.724 344.068 359.587 344.098 359.455L344.107 359.414C344.258 358.476 344.214 357.518 343.977 356.598C343.761 355.632 343.437 354.694 343.012 353.8C342.25 352.035 340.971 350.542 339.344 349.518C338.541 349.082 337.649 348.837 336.736 348.801C335.823 348.766 334.914 348.941 334.079 349.314C332.251 350.121 330.548 351.188 329.024 352.482C327.425 353.775 325.897 355.154 324.449 356.615C322.974 358.064 321.546 359.57 320.16 361.117C317.404 364.225 314.722 367.418 312.15 370.704C312.142 370.714 312.132 370.723 312.121 370.73C312.11 370.736 312.097 370.741 312.084 370.743C312.071 370.744 312.058 370.744 312.045 370.74C312.032 370.737 312.02 370.731 312.01 370.723C311.99 370.708 311.977 370.686 311.972 370.662C311.968 370.637 311.972 370.612 311.985 370.59Z" fill="black"/>
<path d="M332.069 355.354C332.079 357.206 332.315 359.049 332.77 360.843C333.007 361.692 333.382 362.495 333.882 363.22C334.354 363.902 335.066 364.381 335.875 364.564C336.709 364.764 337.581 364.754 338.411 364.536C339.272 364.336 340.088 363.977 340.817 363.476C342.332 362.424 343.641 361.102 344.679 359.577C343.944 361.352 342.771 362.912 341.271 364.111C340.497 364.755 339.589 365.218 338.614 365.464C337.638 365.71 336.619 365.734 335.633 365.534C334.603 365.283 333.704 364.654 333.116 363.771C332.579 362.934 332.206 362.003 332.015 361.027C331.673 359.15 331.691 357.225 332.069 355.354Z" fill="black"/>
<path d="M346.79 373.043C348.691 373.112 350.54 373.682 352.15 374.696C352.961 375.187 353.713 375.77 354.391 376.434C355.069 377.089 355.66 377.829 356.148 378.635C355.437 378.019 354.753 377.408 354.025 376.853C353.309 376.292 352.56 375.775 351.781 375.306C351.005 374.831 350.2 374.406 349.37 374.034C348.532 373.65 347.67 373.319 346.79 373.043Z" fill="black"/>
<path d="M325.849 390.989C326.29 391.435 326.798 391.809 327.355 392.097C327.896 392.411 328.446 392.706 329.002 392.994C330.114 393.566 331.242 394.113 332.377 394.651C334.638 395.749 336.928 396.798 339.14 398.094C336.654 397.515 334.241 396.662 331.943 395.552C330.787 395.002 329.671 394.37 328.604 393.662C327.483 393.007 326.538 392.09 325.849 390.989Z" fill="black"/>
<path d="M343.481 377.38C343.872 377.594 344.214 377.888 344.484 378.243C344.64 378.432 344.753 378.652 344.813 378.89C344.874 379.127 344.882 379.374 344.837 379.615C344.695 380.092 344.398 380.508 343.992 380.797C343.626 381.078 343.226 381.311 342.801 381.491C342.606 381.573 342.418 381.669 342.237 381.778C342.065 381.862 341.899 381.958 341.741 382.064L341.309 382.443C341.179 382.584 341.06 382.735 340.952 382.893C340.495 383.528 340.222 384.276 340.162 385.055C340.048 385.824 340.164 386.61 340.494 387.313C340.825 388.017 341.356 388.607 342.021 389.01C342.185 389.121 342.366 389.204 342.557 389.254C342.746 389.316 342.93 389.4 343.125 389.452C343.53 389.53 343.94 389.58 344.351 389.6C344.775 389.611 345.199 389.597 345.621 389.556C346.041 389.482 346.468 389.419 346.904 389.363C346.502 389.522 346.091 389.675 345.673 389.816C345.244 389.934 344.809 390.026 344.369 390.09C343.917 390.128 343.462 390.131 343.008 390.097C342.78 390.057 342.553 390.005 342.33 389.94C342.099 389.896 341.875 389.817 341.667 389.706C340.784 389.305 340.069 388.608 339.645 387.736C339.236 386.87 339.071 385.908 339.168 384.955C339.264 384.002 339.62 383.094 340.195 382.328C340.342 382.137 340.502 381.958 340.675 381.791L341.246 381.344C341.647 381.113 342.07 380.921 342.508 380.771C343.272 380.596 343.939 380.132 344.369 379.477C344.433 379.298 344.457 379.107 344.438 378.918C344.419 378.728 344.359 378.546 344.261 378.383C344.057 378.009 343.793 377.67 343.481 377.38Z" fill="black"/>
<path d="M335.377 358.208C335.494 358.733 335.654 359.248 335.857 359.747C336.025 360.221 336.325 360.637 336.72 360.947C336.918 361.088 337.143 361.184 337.382 361.229C337.62 361.274 337.865 361.267 338.1 361.208C338.358 361.161 338.612 361.096 338.86 361.013C339.111 360.917 339.357 360.806 339.623 360.718C339.414 360.897 339.185 361.052 338.96 361.223C338.71 361.357 338.45 361.471 338.181 361.565C337.893 361.663 337.587 361.693 337.285 361.653C336.984 361.612 336.696 361.503 336.443 361.333C335.984 360.957 335.657 360.443 335.514 359.867C335.362 359.328 335.315 358.764 335.377 358.208Z" fill="black"/>
<path d="M336.291 357.558C336.828 357.406 337.383 357.331 337.941 357.336C338.509 357.339 339.073 357.429 339.614 357.603C340.178 357.788 340.669 358.144 341.02 358.622C341.324 359.118 341.428 359.711 341.312 360.281C341.248 359.758 341.046 359.261 340.728 358.841C340.385 358.465 339.945 358.192 339.456 358.051C338.429 357.741 337.364 357.575 336.291 357.558Z" fill="black"/>
<path d="M343.937 387.651C344.134 387.245 344.436 386.898 344.811 386.647C345.011 386.508 345.236 386.411 345.474 386.362C345.712 386.313 345.957 386.312 346.196 386.36C346.651 386.506 347.05 386.788 347.339 387.169C347.458 387.362 347.582 387.548 347.684 387.744C347.761 387.954 347.849 388.155 347.909 388.366C347.616 388.033 347.357 387.701 347.065 387.411C346.794 387.134 346.457 386.932 346.085 386.822C345.715 386.735 345.325 386.785 344.989 386.964C344.61 387.148 344.257 387.379 343.937 387.651Z" fill="black"/>
<path d="M326.381 389.867C326.407 389.084 326.607 388.317 326.966 387.62C327.061 387.425 327.195 387.251 327.359 387.109C327.524 386.967 327.716 386.861 327.923 386.796C328.142 386.754 328.368 386.762 328.583 386.819C328.799 386.876 328.998 386.981 329.167 387.126C329.497 387.375 329.776 387.683 329.992 388.035C330.212 388.408 330.286 388.849 330.2 389.273C330.083 389.656 329.882 390.008 329.613 390.304C329.344 390.601 329.014 390.835 328.645 390.989C329.241 390.557 329.665 389.926 329.84 389.21C329.871 388.877 329.794 388.542 329.619 388.256C329.423 387.965 329.175 387.712 328.888 387.51C328.775 387.399 328.638 387.315 328.488 387.264C328.338 387.213 328.179 387.197 328.021 387.216C327.709 387.32 327.444 387.532 327.274 387.814C326.881 388.453 326.58 389.144 326.381 389.867Z" fill="black"/>
<path d="M314.182 384.073C314.135 384.855 313.916 385.617 313.539 386.304C313.439 386.497 313.3 386.667 313.132 386.805C312.964 386.942 312.769 387.044 312.56 387.103C312.34 387.139 312.115 387.126 311.901 387.063C311.687 387 311.49 386.89 311.325 386.74C311.002 386.483 310.731 386.168 310.524 385.81C310.314 385.432 310.251 384.989 310.348 384.567C310.476 384.188 310.686 383.841 310.962 383.552C311.239 383.262 311.575 383.037 311.949 382.892C311.341 383.309 310.9 383.928 310.707 384.639C310.667 384.972 310.736 385.309 310.903 385.6C311.092 385.896 311.333 386.154 311.615 386.364C311.724 386.478 311.859 386.566 312.007 386.621C312.156 386.676 312.315 386.696 312.473 386.68C312.788 386.584 313.058 386.38 313.236 386.102C313.645 385.474 313.964 384.791 314.182 384.073Z" fill="black"/>
<path d="M321.341 397.009C321.545 396.469 321.832 395.965 322.192 395.513C322.376 395.274 322.596 395.065 322.844 394.894C322.987 394.787 323.154 394.717 323.33 394.69C323.505 394.662 323.685 394.678 323.854 394.736C324.152 394.906 324.376 395.18 324.482 395.506C324.589 395.785 324.657 396.077 324.683 396.374C324.753 396.947 324.728 397.528 324.608 398.094C324.546 397.537 324.451 396.984 324.323 396.439C324.263 396.179 324.183 395.924 324.084 395.676C323.97 395.458 323.834 395.222 323.662 395.171C323.337 394.993 322.831 395.395 322.461 395.758C322.067 396.156 321.693 396.574 321.341 397.009Z" fill="black"/>
<path d="M308.372 370.649L304.332 375.1C304.332 375.1 304.362 380.79 301.482 381.03C301.482 381.03 300.022 382.35 301.062 382.62C301.992 382.85 305.342 382.02 306.792 382.19C306.792 382.19 313.662 380.83 314.832 381.57C315.184 381.808 315.48 382.12 315.7 382.485C315.919 382.849 316.056 383.257 316.102 383.68L316.662 383.62L338.332 384.91L347.732 370.649L308.372 370.649ZM336.292 380.629L305.882 380.12L309.852 373.73H340.322L336.292 380.629Z" fill="black"/>
<path d="M283.452 381.032C284.624 380.178 285.949 379.557 287.356 379.204C288.785 378.836 290.266 378.708 291.737 378.825C291.869 378.836 291.992 378.898 292.078 378.999C292.164 379.099 292.207 379.23 292.197 379.362C292.187 379.494 292.125 379.617 292.025 379.703C291.925 379.79 291.794 379.833 291.662 379.824C291.641 379.822 291.621 379.819 291.601 379.815C290.235 379.546 288.834 379.505 287.455 379.694C286.047 379.879 284.688 380.333 283.452 381.032Z" fill="black"/>
<path d="M291.669 391.362C294.483 391.414 297.296 391.512 300.11 391.78C300.806 391.842 301.535 391.955 302.207 392.034C302.886 392.108 303.571 392.121 304.252 392.075C305.602 391.983 306.927 391.665 308.172 391.134L308.205 391.119C308.326 391.066 308.464 391.063 308.588 391.111C308.712 391.159 308.811 391.254 308.865 391.375C308.918 391.497 308.922 391.635 308.874 391.758C308.826 391.882 308.73 391.982 308.609 392.035L308.581 392.047C307.203 392.549 305.749 392.812 304.282 392.824C303.558 392.831 302.834 392.773 302.12 392.653C301.401 392.525 300.746 392.381 300.046 392.275C297.278 391.846 294.473 391.58 291.669 391.362Z" fill="black"/>
<path d="M293.837 399.122C294.791 398.779 295.755 398.458 296.729 398.162C297.714 397.851 298.719 397.605 299.736 397.425C299.868 397.404 300.002 397.436 300.11 397.514C300.218 397.592 300.291 397.71 300.312 397.841C300.333 397.972 300.301 398.107 300.223 398.215C300.145 398.323 300.028 398.395 299.896 398.417C299.87 398.421 299.843 398.423 299.816 398.423H299.806C298.812 398.434 297.819 398.511 296.834 398.651C295.834 398.78 294.834 398.94 293.837 399.122Z" fill="black"/>
<path d="M297.604 373.854C298.115 374.385 298.717 374.821 299.381 375.143C300.053 375.453 300.759 375.687 301.484 375.84C301.101 375.929 300.705 375.949 300.314 375.9C299.919 375.847 299.534 375.736 299.171 375.569C298.816 375.385 298.492 375.146 298.211 374.86C297.931 374.578 297.723 374.233 297.604 373.854Z" fill="black"/>
<path d="M312.867 391.537C312.602 391.539 312.347 391.434 312.158 391.248C311.97 391.061 311.864 390.807 311.862 390.542C311.861 390.277 311.965 390.022 312.152 389.833C312.339 389.645 312.592 389.539 312.858 389.537L325.525 389.418C325.657 389.414 325.789 389.437 325.912 389.485C326.035 389.533 326.146 389.606 326.241 389.698C326.335 389.791 326.41 389.901 326.46 390.023C326.511 390.145 326.536 390.276 326.534 390.408C326.536 390.54 326.511 390.67 326.462 390.792C326.413 390.914 326.34 391.025 326.248 391.119C326.156 391.212 326.047 391.287 325.926 391.338C325.805 391.39 325.675 391.417 325.544 391.418L312.876 391.537H312.867Z" fill="black"/>
<path d="M347.676 391.213C347.41 391.213 347.156 391.108 346.968 390.921C346.781 390.733 346.675 390.479 346.675 390.214C346.675 389.949 346.78 389.694 346.967 389.507C347.155 389.319 347.409 389.213 347.674 389.213L382.592 389.167H382.594C382.859 389.167 383.113 389.272 383.301 389.46C383.489 389.647 383.594 389.901 383.594 390.167C383.594 390.432 383.489 390.686 383.302 390.874C383.115 391.062 382.86 391.167 382.595 391.167L347.677 391.213H347.676Z" fill="black"/>
<path d="M579.489 390.905C579.224 390.905 578.969 390.799 578.782 390.612C578.594 390.425 578.488 390.17 578.488 389.905C578.488 389.64 578.593 389.385 578.781 389.198C578.968 389.01 579.223 388.905 579.488 388.905L611.583 388.865H611.584C611.849 388.865 612.104 388.971 612.291 389.158C612.479 389.345 612.584 389.6 612.585 389.865C612.585 390.13 612.479 390.385 612.292 390.572C612.105 390.76 611.85 390.865 611.585 390.865L579.49 390.905H579.489Z" fill="black"/>
<path d="M396.693 390.389H394.319C394.255 390.389 394.195 390.364 394.149 390.32C394.104 390.275 394.078 390.215 394.077 390.152C394.077 390.121 394.083 390.09 394.094 390.061C394.106 390.032 394.123 390.006 394.145 389.984C394.166 389.962 394.192 389.945 394.221 389.933C394.249 389.921 394.28 389.914 394.311 389.914H396.693C396.724 389.914 396.755 389.92 396.784 389.932C396.813 389.944 396.839 389.961 396.862 389.983C396.884 390.005 396.902 390.032 396.914 390.06C396.926 390.089 396.932 390.12 396.932 390.152C396.932 390.183 396.926 390.214 396.914 390.243C396.902 390.272 396.884 390.298 396.862 390.32C396.839 390.342 396.813 390.359 396.784 390.371C396.755 390.383 396.724 390.389 396.693 390.389Z" fill="black"/>
<path d="M88.4168 393.63C88.1515 393.631 87.8967 393.527 87.7083 393.341C87.5199 393.154 87.4134 392.9 87.4121 392.635C87.4109 392.37 87.5151 392.115 87.7017 391.926C87.8884 391.738 88.1423 391.631 88.4075 391.63L132.435 391.221C132.698 391.225 132.949 391.331 133.137 391.515C133.325 391.699 133.435 391.948 133.444 392.211C133.445 392.343 133.421 392.473 133.372 392.595C133.323 392.717 133.25 392.827 133.158 392.921C133.066 393.015 132.956 393.09 132.835 393.141C132.715 393.193 132.585 393.22 132.453 393.221L88.426 393.63H88.4168Z" fill="black"/>
<path d="M254.465 255.212C254.835 255.199 255.185 255.043 255.442 254.777C255.699 254.511 255.843 254.155 255.843 253.785C255.843 253.415 255.699 253.06 255.442 252.794C255.185 252.528 254.835 252.372 254.465 252.359C254.095 252.372 253.745 252.528 253.488 252.794C253.231 253.06 253.087 253.415 253.087 253.785C253.087 254.155 253.231 254.511 253.488 254.777C253.745 255.043 254.095 255.199 254.465 255.212Z" fill="black"/>
<path d="M326.578 227.542L314.899 227.977C311.068 228.094 307.279 228.186 303.512 228.257C299.751 228.309 296.002 228.368 292.269 228.326C288.533 228.298 284.799 228.131 281.026 228.027L281.582 227.472C281.522 229.627 281.424 231.782 281.395 233.937C281.342 236.092 281.34 238.247 281.327 240.402C281.324 244.712 281.415 249.023 281.537 253.333L281.026 252.823L290.346 252.564C290.441 252.561 290.536 252.577 290.624 252.611C290.713 252.645 290.794 252.697 290.862 252.763L290.89 252.789L294.449 256.212H293.226L296.667 252.672C296.75 252.586 296.849 252.518 296.959 252.471C297.068 252.424 297.186 252.399 297.305 252.398L297.329 252.398C302.215 252.357 307.102 252.257 311.988 252.266C314.432 252.254 316.875 252.264 319.318 252.296L326.648 252.389L325.704 253.333C325.772 249.132 325.893 244.931 326.066 240.643L326.578 227.542ZM326.719 227.401L327.23 240.161C327.404 244.494 327.525 248.913 327.592 253.333C327.596 253.579 327.502 253.817 327.33 253.994C327.158 254.171 326.923 254.273 326.677 254.277H326.674L326.648 254.277L319.318 254.37C316.875 254.399 314.432 254.409 311.988 254.4C307.102 254.409 302.215 254.308 297.329 254.268L297.99 253.994L294.449 257.436L294.429 257.456C294.349 257.534 294.254 257.595 294.151 257.636C294.047 257.678 293.937 257.698 293.825 257.696C293.714 257.695 293.604 257.671 293.501 257.627C293.399 257.583 293.306 257.519 293.229 257.439L293.225 257.436L289.802 253.877L290.346 254.102L281.026 253.843L280.998 253.843C280.866 253.839 280.742 253.783 280.651 253.688C280.561 253.592 280.512 253.465 280.516 253.333V253.333C280.638 249.023 280.728 244.712 280.725 240.402C280.712 238.247 280.711 236.092 280.658 233.937C280.629 231.782 280.531 229.627 280.471 227.472C280.469 227.401 280.481 227.33 280.506 227.264C280.532 227.198 280.57 227.137 280.618 227.086C280.667 227.034 280.725 226.993 280.79 226.964C280.855 226.935 280.925 226.919 280.996 226.917H280.996L281.026 226.916C284.858 226.812 288.726 226.645 292.595 226.617C296.465 226.575 300.32 226.635 304.163 226.687C307.999 226.757 311.814 226.85 315.587 226.966L326.719 227.401Z" fill="black"/>
<path d="M460.747 179.704L443.559 180.002L426.516 180.217L392.667 180.454L375.827 180.395L358.997 180.182C347.766 180.01 336.478 179.928 325.196 179.956L325.518 179.634L325.578 192.564L325.727 205.495L325.196 204.964C335.139 204.829 345.083 204.7 355.026 204.632L384.856 204.467C394.799 204.39 404.743 204.479 414.686 204.476C424.629 204.464 434.572 204.595 444.516 204.674L444.53 204.675C444.743 204.676 444.947 204.763 445.096 204.915L448.556 208.437H447.458L450.988 204.985L451.001 204.972C451.067 204.908 451.145 204.857 451.23 204.823C451.315 204.789 451.407 204.772 451.499 204.773L460.818 204.909L460.232 205.495C460.3 201.251 460.356 197.007 460.474 192.707L460.747 179.704ZM460.889 179.563L461.163 192.421C461.28 196.741 461.336 201.118 461.404 205.495C461.406 205.648 461.348 205.795 461.241 205.905C461.135 206.015 460.989 206.078 460.836 206.081H460.836L460.818 206.081L451.498 206.216L452.008 206.005L448.556 209.535C448.414 209.681 448.219 209.764 448.016 209.766C447.812 209.768 447.616 209.69 447.47 209.547L447.469 209.546L447.458 209.535L443.936 206.075L444.516 206.315C434.572 206.395 424.629 206.526 414.686 206.513C404.743 206.511 394.799 206.6 384.856 206.523L355.026 206.358C345.083 206.289 335.139 206.161 325.196 206.026H325.183C325.114 206.025 325.046 206.01 324.983 205.983C324.919 205.956 324.862 205.917 324.814 205.868C324.766 205.818 324.728 205.76 324.702 205.696C324.677 205.632 324.664 205.564 324.665 205.495L324.814 192.564L324.874 179.634C324.874 179.548 324.908 179.466 324.968 179.406C325.029 179.345 325.111 179.311 325.196 179.311C336.517 179.34 347.833 179.258 359.206 179.085L376.281 178.872L393.347 178.813L427.309 179.051L444.172 179.265L460.889 179.563Z" fill="black"/>
<path d="M366.577 124.517C359.244 124.726 352.036 124.871 344.869 124.996C337.687 125.146 330.59 125.212 323.497 125.267C316.406 125.323 309.362 125.278 302.303 125.12C295.24 124.999 288.145 124.802 281.026 124.767L281.346 124.447C281.343 126.602 281.312 128.757 281.336 130.912L281.376 137.377C281.381 141.688 281.486 145.998 281.549 150.308L281.026 149.785L290.345 149.61C290.433 149.608 290.52 149.624 290.601 149.656C290.683 149.688 290.757 149.735 290.82 149.796L290.839 149.815L294.386 153.25H293.287L296.735 149.715C296.809 149.638 296.898 149.577 296.997 149.535C297.095 149.492 297.201 149.47 297.308 149.469L297.328 149.469L314.658 149.318C320.435 149.272 326.211 149.23 331.988 149.239C343.541 149.234 355.094 149.403 366.648 149.556L365.896 150.308L366.203 137.561L366.577 124.517ZM366.718 124.376L367.092 137.193L367.399 150.308C367.404 150.503 367.331 150.691 367.196 150.832C367.062 150.973 366.877 151.054 366.683 151.059L366.675 151.059L366.648 151.059C355.094 151.213 343.541 151.382 331.988 151.377C326.211 151.386 320.435 151.344 314.658 151.298L297.328 151.147L297.921 150.901L294.386 154.348L294.37 154.364C294.225 154.505 294.03 154.584 293.827 154.581C293.624 154.579 293.431 154.496 293.289 154.35L293.287 154.348L289.852 150.802L290.345 151.006L281.026 150.831L281.008 150.831C280.941 150.83 280.874 150.816 280.812 150.789C280.75 150.762 280.694 150.723 280.647 150.675C280.6 150.626 280.563 150.569 280.538 150.506C280.513 150.443 280.501 150.376 280.502 150.308C280.565 145.998 280.67 141.688 280.675 137.377L280.715 130.912C280.739 128.757 280.708 126.602 280.705 124.447C280.705 124.362 280.739 124.28 280.799 124.22C280.859 124.16 280.941 124.126 281.026 124.126C288.177 124.091 295.352 123.894 302.56 123.773C309.771 123.615 316.998 123.571 324.176 123.626C331.353 123.681 338.527 123.748 345.616 123.897C352.719 124.022 359.781 124.167 366.718 124.376V124.376Z" fill="black"/>
</svg>
