<svg width="700" height="550" viewBox="0 0 700 550" fill="none" xmlns="http://www.w3.org/2000/svg">
<path d="M301.441 341.34H288.262C288.235 341.34 288.209 341.335 288.184 341.324C288.159 341.314 288.136 341.299 288.117 341.28C288.098 341.261 288.083 341.238 288.073 341.213C288.062 341.189 288.057 341.162 288.057 341.135V335.172C287.297 334.957 286.489 334.981 285.743 335.24L285.662 335.293C284.715 335.765 283.666 335.996 282.608 335.966C280.36 335.966 278.599 335.107 278.599 334.01C278.599 332.912 280.36 332.053 282.608 332.053C283.67 332.026 284.721 332.259 285.672 332.731L285.767 332.793C286.506 333.045 287.305 333.065 288.057 332.853V331.326C288.057 331.299 288.062 331.273 288.072 331.247C288.083 331.222 288.098 331.2 288.117 331.18C288.136 331.161 288.158 331.146 288.183 331.136C288.208 331.125 288.235 331.12 288.262 331.12C288.289 331.12 288.316 331.125 288.341 331.136C288.366 331.146 288.389 331.161 288.408 331.18C288.427 331.2 288.442 331.222 288.452 331.247C288.462 331.273 288.467 331.299 288.467 331.326V332.98C288.467 333.016 288.457 333.052 288.439 333.084C288.42 333.116 288.393 333.142 288.361 333.159C287.474 333.482 286.503 333.487 285.612 333.174C285.595 333.168 285.579 333.16 285.564 333.151L285.458 333.08C284.572 332.647 283.594 332.435 282.608 332.463C280.455 332.463 279.009 333.263 279.009 334.01C279.009 334.757 280.455 335.556 282.608 335.556C283.594 335.586 284.572 335.374 285.457 334.938L285.573 334.869C286.473 334.535 287.462 334.534 288.362 334.867C288.394 334.885 288.421 334.911 288.439 334.942C288.458 334.974 288.467 335.01 288.467 335.046V340.93H301.441C301.496 340.93 301.548 340.952 301.586 340.99C301.625 341.028 301.647 341.081 301.647 341.135C301.647 341.189 301.625 341.242 301.586 341.28C301.548 341.318 301.496 341.34 301.441 341.34L301.441 341.34Z" fill="black"/>
<path d="M319.259 341.34H305.688C305.633 341.34 305.581 341.318 305.542 341.28C305.504 341.242 305.482 341.189 305.482 341.135C305.482 341.081 305.504 341.028 305.542 340.99C305.581 340.952 305.633 340.93 305.688 340.93H319.054V327.089H310.249C310.194 327.089 310.142 327.068 310.104 327.029C310.065 326.991 310.043 326.938 310.043 326.884C310.043 326.83 310.065 326.777 310.104 326.739C310.142 326.701 310.194 326.679 310.249 326.679H319.259C319.286 326.679 319.312 326.684 319.337 326.695C319.362 326.705 319.385 326.72 319.404 326.739C319.423 326.758 319.438 326.781 319.448 326.806C319.459 326.83 319.464 326.857 319.464 326.884V341.135C319.464 341.162 319.459 341.189 319.448 341.214C319.438 341.238 319.423 341.261 319.404 341.28C319.385 341.299 319.362 341.314 319.337 341.324C319.312 341.335 319.286 341.34 319.259 341.34Z" fill="black"/>
<path d="M340.824 334.009C340.824 334.979 342.534 335.759 344.634 335.759C345.655 335.788 346.667 335.569 347.584 335.119L347.704 335.049C348.528 334.761 349.425 334.754 350.254 335.029V341.139H319.254V335.049C318.42 334.751 317.508 334.751 316.674 335.049L316.554 335.119C315.637 335.569 314.625 335.788 313.604 335.759C311.504 335.759 309.794 334.979 309.794 334.009C309.794 333.049 311.504 332.259 313.604 332.259C314.629 332.232 315.645 332.455 316.564 332.909L316.674 332.979C317.509 333.272 318.419 333.272 319.254 332.979V326.889H332.514C333.684 326.439 332.514 325.699 332.514 325.699L332.354 325.639C331.494 325.319 330.954 324.829 330.954 324.289C330.954 323.319 332.654 322.539 334.754 322.539C336.854 322.539 338.564 323.319 338.564 324.289C338.564 324.839 338.014 325.329 337.144 325.649L337.004 325.699C337.004 325.699 335.824 326.439 337.004 326.889H350.254V332.989C349.427 333.271 348.529 333.267 347.704 332.979L347.594 332.909C346.674 332.456 345.659 332.233 344.634 332.259C342.534 332.259 340.824 333.039 340.824 334.009Z" fill="black"/>
<path d="M319.254 341.239V355.489H305.944C304.864 355.039 306.004 354.329 306.004 354.329L306.154 354.279C307.014 353.959 307.564 353.469 307.564 352.919C307.564 351.949 305.864 351.169 303.764 351.169C301.664 351.169 299.954 351.949 299.954 352.919C299.954 353.469 300.504 353.949 301.354 354.279L301.514 354.329C301.514 354.329 302.644 355.039 301.584 355.489H288.264V349.399C287.425 349.106 286.512 349.106 285.674 349.399L285.564 349.469C284.647 349.919 283.634 350.138 282.614 350.109C280.504 350.109 278.804 349.329 278.804 348.359C278.804 347.399 280.504 346.609 282.614 346.609C283.64 346.581 284.657 346.808 285.574 347.269L285.674 347.329C286.512 347.622 287.425 347.622 288.264 347.329V341.239H301.514L301.614 341.199C302.564 341.649 301.474 342.329 301.474 342.329L301.334 342.379C300.474 342.699 299.924 343.189 299.924 343.739C299.924 344.709 301.624 345.489 303.724 345.489C305.824 345.489 307.534 344.709 307.534 343.739C307.534 343.189 306.984 342.699 306.134 342.379L305.974 342.329C305.974 342.329 304.864 341.629 305.874 341.179L306.004 341.239H319.254Z" fill="black"/>
<path d="M367.901 341.179C366.886 341.63 367.997 342.327 367.997 342.327L368.155 342.382C369.012 342.702 369.556 343.191 369.556 343.738C369.556 344.705 367.852 345.488 365.75 345.488C363.647 345.488 361.944 344.705 361.944 343.738C361.944 343.188 362.493 342.696 363.357 342.377L363.502 342.327C363.502 342.327 364.59 341.649 363.635 341.196L363.54 341.238H350.289V347.332C349.452 347.626 348.539 347.626 347.702 347.332L347.596 347.264C346.677 346.807 345.66 346.583 344.634 346.614C342.532 346.614 340.828 347.397 340.828 348.364C340.828 349.33 342.532 350.114 344.634 350.114C345.656 350.144 346.669 349.922 347.585 349.469L347.702 349.397C348.539 349.103 349.452 349.103 350.289 349.397V355.49H381.283V341.238H368.031L367.901 341.179Z" fill="black"/>
<path d="M319.254 369.974H288.265C288.238 369.974 288.211 369.969 288.186 369.958C288.161 369.948 288.139 369.933 288.12 369.914C288.101 369.895 288.085 369.872 288.075 369.847C288.065 369.822 288.06 369.796 288.06 369.769V363.806C287.297 363.592 286.488 363.615 285.74 363.873L285.674 363.922C284.724 364.391 283.674 364.622 282.615 364.594C280.363 364.594 278.6 363.735 278.6 362.639C278.6 361.543 280.363 360.684 282.615 360.684C283.674 360.658 284.725 360.89 285.674 361.361L285.766 361.422C286.507 361.674 287.307 361.695 288.06 361.482V355.519C288.06 355.492 288.065 355.465 288.075 355.44C288.085 355.416 288.101 355.393 288.12 355.374C288.139 355.355 288.161 355.34 288.186 355.329C288.211 355.319 288.238 355.314 288.265 355.314H301.475C301.525 355.293 301.582 355.292 301.634 355.31C301.686 355.329 301.728 355.366 301.754 355.414C301.766 355.437 301.774 355.461 301.776 355.486C301.779 355.511 301.776 355.537 301.769 355.561C301.761 355.585 301.749 355.608 301.733 355.627C301.717 355.647 301.697 355.663 301.674 355.674L301.625 355.695C301.589 355.709 301.552 355.719 301.515 355.724H288.47V361.609C288.47 361.645 288.46 361.681 288.441 361.713C288.422 361.745 288.395 361.771 288.363 361.788C287.475 362.112 286.502 362.117 285.61 361.803C285.591 361.797 285.574 361.788 285.558 361.777L285.458 361.707C284.573 361.278 283.598 361.067 282.615 361.094C280.458 361.094 279.01 361.893 279.01 362.639C279.01 363.385 280.458 364.184 282.615 364.184C283.6 364.212 284.578 364.002 285.465 363.571L285.565 363.506C286.467 363.172 287.459 363.17 288.363 363.499C288.395 363.517 288.422 363.543 288.441 363.575C288.46 363.606 288.47 363.642 288.47 363.679V369.564H319.049V355.724H306.004C305.973 355.724 305.943 355.717 305.915 355.703L305.853 355.673C305.804 355.649 305.767 355.606 305.75 355.554C305.733 355.503 305.737 355.447 305.761 355.398C305.786 355.349 305.828 355.312 305.88 355.295C305.932 355.278 305.988 355.282 306.037 355.306L306.052 355.314H319.254C319.281 355.314 319.308 355.319 319.333 355.329C319.358 355.34 319.38 355.355 319.399 355.374C319.418 355.393 319.434 355.415 319.444 355.44C319.454 355.465 319.459 355.492 319.459 355.519V369.769C319.459 369.796 319.454 369.822 319.444 369.847C319.434 369.872 319.418 369.895 319.399 369.914C319.38 369.933 319.358 369.948 319.333 369.958C319.308 369.969 319.281 369.974 319.254 369.974Z" fill="black"/>
<path d="M340.824 362.669C340.824 363.639 342.534 364.429 344.634 364.429C345.655 364.455 346.668 364.232 347.584 363.779L347.704 363.709C348.529 363.422 349.427 363.418 350.254 363.699V369.769H319.254V363.679C318.419 363.387 317.509 363.387 316.674 363.679L316.554 363.749C315.637 364.199 314.625 364.418 313.604 364.389C311.504 364.389 309.794 363.609 309.794 362.639C309.794 361.679 311.504 360.889 313.604 360.889C314.629 360.862 315.645 361.085 316.564 361.539L316.674 361.609C317.509 361.902 318.419 361.902 319.254 361.609V355.519H332.514C333.684 355.069 332.514 354.329 332.514 354.329L332.354 354.279C331.494 353.949 330.954 353.469 330.954 352.919C330.954 351.949 332.654 351.169 334.754 351.169C336.854 351.169 338.564 351.949 338.564 352.919C338.564 353.469 338.014 353.959 337.144 354.279L337.004 354.329C337.004 354.329 335.824 355.069 337.004 355.519H350.254V361.649C349.427 361.93 348.529 361.927 347.704 361.639L347.594 361.579C346.677 361.117 345.66 360.89 344.634 360.919C342.534 360.919 340.824 361.709 340.824 362.669Z" fill="black"/>
<path d="M381.284 370.004H350.284C350.257 370.004 350.231 369.999 350.206 369.989C350.181 369.978 350.158 369.963 350.139 369.944C350.12 369.925 350.105 369.902 350.095 369.878C350.084 369.853 350.079 369.826 350.079 369.799V363.804C350.06 363.772 350.05 363.736 350.05 363.699C350.05 363.644 350.072 363.593 350.11 363.554C350.148 363.516 350.2 363.495 350.254 363.494C350.317 363.498 350.377 363.521 350.425 363.561C350.445 363.58 350.461 363.603 350.472 363.629C350.483 363.654 350.489 363.681 350.489 363.709V369.594H381.079V355.754H350.489V361.639C350.489 361.667 350.483 361.694 350.472 361.72C350.461 361.745 350.445 361.768 350.425 361.787C350.377 361.827 350.317 361.85 350.254 361.854C350.217 361.854 350.182 361.844 350.15 361.826C350.119 361.807 350.093 361.781 350.075 361.749C350.057 361.717 350.048 361.681 350.049 361.644C350.05 361.608 350.06 361.572 350.079 361.541V355.549C350.079 355.522 350.084 355.495 350.095 355.471C350.105 355.446 350.12 355.423 350.139 355.404C350.158 355.385 350.181 355.37 350.206 355.36C350.231 355.349 350.257 355.344 350.284 355.344H381.284C381.311 355.344 381.338 355.349 381.363 355.36C381.388 355.37 381.41 355.385 381.429 355.404C381.448 355.423 381.463 355.446 381.474 355.471C381.484 355.495 381.489 355.522 381.489 355.549V369.799C381.489 369.826 381.484 369.853 381.474 369.878C381.463 369.902 381.448 369.925 381.429 369.944C381.41 369.963 381.388 369.978 381.363 369.989C381.338 369.999 381.311 370.004 381.284 370.004V370.004Z" fill="black"/>
<path d="M363.464 341.344H350.294C350.267 341.344 350.24 341.339 350.215 341.328C350.191 341.318 350.168 341.303 350.149 341.284C350.13 341.265 350.115 341.242 350.104 341.217C350.094 341.192 350.089 341.166 350.089 341.139V335.179C349.327 334.968 348.519 334.991 347.77 335.243L347.688 335.296C346.739 335.763 345.691 335.992 344.634 335.964C342.383 335.964 340.619 335.105 340.619 334.009C340.619 332.913 342.383 332.054 344.634 332.054C345.694 332.027 346.744 332.26 347.694 332.731L347.813 332.805C348.551 333.043 349.343 333.057 350.089 332.843V326.889C350.089 326.862 350.094 326.835 350.104 326.81C350.115 326.786 350.13 326.763 350.149 326.744C350.168 326.725 350.191 326.71 350.215 326.699C350.24 326.689 350.267 326.684 350.294 326.684H359.724C359.751 326.684 359.778 326.689 359.803 326.699C359.828 326.709 359.85 326.724 359.87 326.743C359.889 326.762 359.904 326.785 359.914 326.81C359.925 326.835 359.93 326.862 359.93 326.889C359.93 326.916 359.925 326.943 359.914 326.968C359.904 326.993 359.889 327.015 359.87 327.034C359.85 327.053 359.828 327.069 359.803 327.079C359.778 327.089 359.751 327.094 359.724 327.094H350.499V332.979C350.499 333.016 350.489 333.052 350.47 333.084C350.451 333.116 350.423 333.142 350.391 333.159C350.371 333.169 350.35 333.177 350.329 333.182C349.457 333.482 348.509 333.479 347.639 333.173L347.485 333.082C346.598 332.649 345.62 332.437 344.634 332.464C342.68 332.464 341.029 333.171 341.029 334.009C341.029 334.847 342.68 335.554 344.634 335.554C345.62 335.582 346.598 335.372 347.484 334.941L347.6 334.872C348.485 334.549 349.454 334.54 350.345 334.845C350.359 334.85 350.372 334.857 350.384 334.865C350.419 334.882 350.448 334.908 350.468 334.941C350.488 334.973 350.499 335.011 350.499 335.049V340.934H363.464C363.491 340.934 363.518 340.939 363.543 340.949C363.568 340.959 363.591 340.974 363.61 340.993C363.629 341.012 363.644 341.035 363.655 341.06C363.665 341.085 363.67 341.112 363.67 341.139C363.67 341.166 363.665 341.193 363.655 341.218C363.644 341.243 363.629 341.265 363.61 341.284C363.591 341.303 363.568 341.319 363.543 341.329C363.518 341.339 363.491 341.344 363.464 341.344V341.344Z" fill="black"/>
<path d="M380.508 341.34H367.707C367.653 341.34 367.6 341.318 367.562 341.28C367.524 341.242 367.502 341.189 367.502 341.135C367.502 341.081 367.524 341.028 367.562 340.99C367.6 340.952 367.653 340.93 367.707 340.93H380.508C380.562 340.93 380.614 340.952 380.653 340.99C380.691 341.028 380.713 341.081 380.713 341.135C380.713 341.189 380.691 341.242 380.653 341.28C380.614 341.318 380.562 341.34 380.508 341.34H380.508Z" fill="black"/>
<path d="M315.697 312.032C320.9 311.874 326.104 311.806 331.307 311.691L346.916 311.496C357.323 311.38 367.729 311.391 378.135 311.332C388.542 311.387 398.948 311.382 409.354 311.493L424.964 311.689C430.167 311.805 435.37 311.873 440.573 312.032C435.37 312.191 430.167 312.259 424.964 312.375L409.354 312.571C398.948 312.683 388.542 312.677 378.135 312.732C367.729 312.673 357.323 312.684 346.916 312.569L331.307 312.374C326.104 312.258 320.9 312.19 315.697 312.032Z" fill="black"/>
<path d="M227.278 226.126C224.995 226.112 222.716 225.944 220.455 225.621C220.391 225.613 220.329 225.591 220.273 225.559C219.184 224.929 213.717 221.712 213.013 220.305C212.109 219.223 210.886 218.454 209.519 218.109C206.879 217.246 202.456 216.88 196.37 220.021C196.29 220.062 196.2 220.081 196.109 220.076C196.019 220.07 195.932 220.04 195.857 219.989C195.783 219.937 195.723 219.867 195.686 219.784C195.648 219.702 195.634 219.611 195.644 219.521C195.694 219.08 196.956 208.727 205.268 206.649C205.36 206.634 208.229 206.197 209.783 200.445C211.454 194.262 214.641 192.224 216.968 190.737L217.226 190.571C219.353 189.203 221.881 183.328 222.382 179.658C222.932 175.624 229.278 165.122 241.001 164.26C251.003 163.527 264.36 170.673 266.142 175.084C266.359 175.518 266.426 176.011 266.332 176.487C266.238 176.963 265.988 177.393 265.622 177.711C259.477 185.76 252.084 192.774 243.723 198.488V213.692C243.831 215.205 243.611 216.725 243.076 218.145C242.542 219.565 241.706 220.853 240.627 221.92C237.795 224.72 233.319 226.126 227.278 226.126ZM220.689 224.644C229.885 225.891 236.357 224.735 239.924 221.209C240.894 220.237 241.646 219.07 242.13 217.784C242.613 216.499 242.817 215.125 242.727 213.754L242.723 198.222C242.723 198.14 242.743 198.06 242.782 197.987C242.82 197.915 242.876 197.854 242.944 197.808C251.315 192.128 258.711 185.129 264.842 177.082C264.868 177.046 264.897 177.014 264.931 176.987C265.156 176.81 265.309 176.557 265.361 176.276C265.413 175.995 265.361 175.704 265.215 175.458C263.571 171.391 250.528 164.566 241.074 165.258C230.078 166.067 223.875 176.111 223.373 179.792C222.896 183.29 220.417 189.708 217.767 191.412L217.507 191.578C215.195 193.057 212.319 194.897 210.749 200.706C208.998 207.184 205.586 207.616 205.442 207.631C199.26 209.181 197.31 216.142 196.798 218.694C202.739 215.871 207.14 216.282 209.829 217.158C211.454 217.573 212.891 218.524 213.908 219.858C214.344 220.73 218.26 223.233 220.689 224.644H220.689Z" fill="black"/>
<path d="M257.913 311.397L257.9 311.407C257.781 311.616 257.67 311.822 257.547 312.032L257.913 311.397Z" fill="black"/>
<path d="M289.714 268.759C288.454 266.999 287.704 254.129 287.704 254.129C285.934 223.609 264.084 218.649 264.084 218.649C263.76 219.042 263.391 219.394 262.984 219.699C258.564 222.979 249.864 221.469 249.864 221.469C249.864 221.469 245.834 222.729 244.444 228.279C243.054 233.829 245.454 249.969 242.174 249.089C238.894 248.209 231.564 248.319 231.004 225.619C231.004 225.619 231.014 225.539 231.044 225.399C227.54 225.755 224.005 225.665 220.524 225.129C220.524 225.129 214.134 221.429 213.464 220.079C212.784 218.739 206.564 214.199 196.144 219.579C196.144 219.579 185.554 220.549 174.324 232.779C163.094 245.009 151.244 268.509 148.724 313.569L157.444 316.139C157.484 311.439 157.734 306.749 158.114 302.069C158.622 295.704 159.537 289.378 160.854 283.129C162.244 276.929 163.954 270.649 167.224 265.149C165.862 268.016 164.777 271.006 163.984 274.079C163.134 277.129 162.464 280.229 161.904 283.339C160.804 289.579 160.034 295.879 159.504 302.189C158.954 308.509 158.654 314.849 158.544 321.189C158.494 324.359 158.524 327.529 158.694 330.699C158.764 332.279 158.854 333.859 159.054 335.429C159.146 336.215 159.28 336.996 159.454 337.769C159.537 338.154 159.65 338.532 159.794 338.899C159.878 339.104 159.978 339.301 160.094 339.489L160.144 339.539C160.248 339.644 160.366 339.734 160.494 339.809C160.494 339.809 191.034 327.649 212.954 316.939C212.904 314.429 212.934 311.929 212.924 309.439L212.814 301.949C212.624 296.959 212.484 291.979 212.034 287.019C211.674 282.059 211.074 277.109 210.254 272.199C209.854 269.749 209.357 267.312 208.764 264.889C208.214 262.456 207.479 260.069 206.564 257.749C208.779 262.264 210.376 267.057 211.314 271.999C211.874 274.449 212.244 276.939 212.634 279.419C212.934 281.909 213.254 284.409 213.434 286.909C213.654 289.409 213.744 291.919 213.844 294.419C213.924 296.929 213.914 299.439 213.894 301.939L213.604 309.449C213.384 311.949 213.214 314.449 212.954 316.939C212.954 316.939 215.274 320.679 239.744 316.059C239.744 316.059 257.414 311.999 257.904 311.409C268.864 292.229 264.084 278.349 264.084 278.349C263.622 275.942 263.288 273.512 263.084 271.069C262.844 268.629 262.734 266.189 262.674 263.739C262.634 261.289 262.674 258.839 262.864 256.389C262.994 253.927 263.403 251.488 264.084 249.119C263.924 251.569 263.944 253.989 263.954 256.419C263.984 258.849 264.014 261.279 264.074 263.709C264.144 268.579 264.264 273.439 264.084 278.349C270.734 279.609 289.714 268.759 289.714 268.759ZM201.064 245.069C200.711 244.634 200.316 244.235 199.884 243.879L198.634 242.789C198.194 242.449 197.714 242.169 197.254 241.859C195.391 240.671 193.311 239.865 191.134 239.489C188.954 239.086 186.727 239.001 184.524 239.239C182.301 239.453 180.108 239.909 177.984 240.599C180.039 239.651 182.222 239.011 184.464 238.699C186.722 238.382 189.016 238.416 191.264 238.799C193.522 239.218 195.666 240.111 197.554 241.419C199.413 242.721 200.991 244.384 202.194 246.309L201.064 245.069Z" fill="#00A82D"/>
<path d="M231.047 225.4L233.353 224.943C234.099 224.706 234.856 224.504 235.581 224.227C237.028 223.671 238.37 222.877 239.553 221.876C240.691 220.854 241.577 219.583 242.141 218.161C242.699 216.76 242.921 215.248 242.791 213.745C242.789 213.729 242.788 213.707 242.787 213.691C242.672 208.535 242.641 203.378 242.564 198.222C242.562 198.119 242.585 198.016 242.632 197.924C242.678 197.832 242.746 197.752 242.829 197.692L242.855 197.674C244.906 196.211 246.936 194.718 248.864 193.095C250.816 191.504 252.671 189.798 254.494 188.063C256.323 186.335 258.07 184.52 259.753 182.651C261.436 180.798 263.022 178.86 264.506 176.844C264.526 176.818 264.547 176.792 264.57 176.768L264.667 176.67C264.746 176.605 264.81 176.525 264.856 176.435C264.902 176.344 264.93 176.246 264.936 176.144C264.916 175.846 264.824 175.557 264.667 175.303C264.228 174.608 263.686 173.982 263.061 173.448C261.708 172.292 260.236 171.283 258.67 170.437C255.505 168.698 252.126 167.379 248.62 166.514C246.887 166.08 245.118 165.808 243.334 165.702C242.456 165.653 241.575 165.674 240.7 165.767C239.825 165.843 238.957 165.987 238.104 166.2C237.248 166.4 236.407 166.659 235.586 166.974C234.772 167.31 233.979 167.697 233.215 168.135C231.668 169.003 230.246 170.077 228.987 171.327C227.709 172.566 226.582 173.95 225.629 175.453C224.652 176.893 223.981 178.518 223.657 180.228C223.304 182.11 222.733 183.945 221.954 185.695C221.226 187.49 220.22 189.159 218.972 190.641C218.801 190.828 218.601 191.003 218.416 191.181C218.208 191.339 217.965 191.528 217.771 191.648L216.616 192.381C215.871 192.858 215.174 193.405 214.532 194.015C213.269 195.257 212.274 196.746 211.61 198.389C211.263 199.223 210.965 200.077 210.718 200.945C210.451 201.862 210.106 202.755 209.689 203.614C209.256 204.486 208.698 205.289 208.032 205.999C207.346 206.766 206.436 207.299 205.431 207.52L205.484 207.51C204.196 207.826 202.979 208.383 201.897 209.15C200.824 209.957 199.888 210.931 199.124 212.035C198.373 213.166 197.745 214.374 197.253 215.639C196.749 216.91 196.377 218.23 196.142 219.577C196.301 218.211 196.6 216.865 197.033 215.56C197.461 214.243 198.043 212.981 198.766 211.8C199.514 210.615 200.448 209.558 201.533 208.67C202.655 207.8 203.932 207.151 205.296 206.757L205.349 206.747C206.145 206.503 206.851 206.03 207.379 205.387C207.95 204.72 208.422 203.975 208.783 203.174C209.152 202.36 209.452 201.516 209.68 200.651C209.916 199.736 210.204 198.835 210.544 197.952C211.228 196.139 212.275 194.486 213.622 193.093C214.305 192.41 215.05 191.793 215.848 191.25L217.013 190.468C217.209 190.339 217.322 190.23 217.483 190.111C217.623 189.962 217.772 189.831 217.908 189.673C219.002 188.286 219.875 186.738 220.495 185.084C221.169 183.431 221.666 181.712 221.979 179.954C222.05 179.461 222.154 178.974 222.29 178.494C222.429 178.018 222.599 177.552 222.801 177.099C223.185 176.211 223.634 175.352 224.145 174.529C225.159 172.899 226.363 171.394 227.73 170.045C229.087 168.676 230.623 167.496 232.295 166.537C233.131 166.05 233.997 165.618 234.888 165.242C235.79 164.886 236.715 164.593 237.656 164.363C238.596 164.122 239.552 163.954 240.518 163.861C241.481 163.753 242.451 163.721 243.419 163.766C245.329 163.861 247.226 164.135 249.085 164.584C252.768 165.49 256.309 166.896 259.61 168.763C261.291 169.691 262.869 170.795 264.316 172.057C265.09 172.734 265.755 173.527 266.286 174.409C266.603 174.953 266.771 175.57 266.773 176.2C266.755 176.56 266.662 176.912 266.501 177.234C266.34 177.556 266.113 177.842 265.836 178.072L265.998 177.897C264.455 179.96 262.806 181.941 261.059 183.833C259.328 185.722 257.535 187.553 255.659 189.296C253.783 191.039 251.835 192.699 249.816 194.277C247.815 195.874 245.714 197.339 243.594 198.769L243.885 198.222C243.807 203.378 243.776 208.535 243.661 213.691L243.657 213.638C243.742 215.28 243.436 216.919 242.765 218.42C242.105 219.899 241.112 221.206 239.863 222.238C238.607 223.223 237.188 223.98 235.672 224.477C234.919 224.717 234.143 224.877 233.382 225.073L231.047 225.4Z" fill="black"/>
<path d="M265.254 177.441C265.251 177.543 265.121 177.671 265.04 177.806L264.766 178.197L264.207 178.971C263.836 179.489 263.437 179.984 263.05 180.489C262.258 181.485 261.452 182.472 260.619 183.435C258.963 185.371 257.198 187.214 255.372 188.993C253.539 190.764 251.672 192.51 249.677 194.104C247.713 195.737 245.644 197.239 243.554 198.71L243.813 198.222C243.822 200.8 243.868 203.378 243.846 205.957L243.803 213.691L243.799 213.621C243.899 215.289 243.597 216.957 242.918 218.484C242.254 219.991 241.249 221.324 239.983 222.378C238.71 223.38 237.276 224.155 235.741 224.67C234.982 224.921 234.2 225.092 233.432 225.297L231.079 225.667L231.311 225.453L231.266 225.673L231.271 225.617L231.412 229.3C231.489 230.525 231.614 231.747 231.712 232.972C231.986 235.407 232.484 237.813 233.201 240.156C233.843 242.496 235.074 244.633 236.776 246.362C237.658 247.155 238.703 247.747 239.838 248.094C240.415 248.271 241.001 248.417 241.594 248.531L242.055 248.635L242.284 248.686C242.326 248.685 242.369 248.688 242.411 248.695C242.553 248.69 242.666 248.605 242.802 248.418C243.233 247.346 243.447 246.199 243.432 245.044C243.484 243.833 243.484 242.609 243.472 241.383C243.442 238.929 243.343 236.465 243.338 233.984C243.34 232.742 243.37 231.496 243.479 230.236C243.57 228.943 243.856 227.67 244.326 226.462C244.773 225.199 245.477 224.042 246.393 223.064C247.31 222.086 248.419 221.309 249.651 220.781C249.735 220.747 249.827 220.736 249.917 220.749L249.989 220.759C252.228 221.08 254.496 221.152 256.75 220.974C258.938 220.89 261.053 220.16 262.828 218.877C263.629 218.171 264.27 217.3 264.705 216.325C265.191 215.321 265.569 214.269 265.835 213.185C266.394 210.984 266.715 208.729 266.791 206.459C266.795 206.323 266.842 206.191 266.923 206.082C267.005 205.974 267.119 205.892 267.248 205.85L267.262 205.846C267.588 205.785 267.883 205.611 268.094 205.356C268.306 205.1 268.421 204.778 268.419 204.447C268.461 203.639 268.319 202.833 268.004 202.089L267.991 202.056C267.959 201.973 267.947 201.884 267.957 201.796L268.697 195.468C269.039 193.399 269.195 191.305 269.164 189.208C269.049 187.117 268.652 185.051 267.985 183.065C267.644 182.069 267.243 181.094 266.787 180.146C266.55 179.675 266.308 179.206 266.044 178.749L265.636 178.07L265.421 177.738L265.31 177.575L265.254 177.494C265.246 177.484 265.255 177.47 265.254 177.441ZM265.25 177.301C267.901 180.729 269.521 184.842 269.919 189.157C270.029 191.302 269.949 193.452 269.678 195.583L269.104 201.915L269.058 201.622C269.253 202.077 269.404 202.549 269.509 203.033C269.624 203.532 269.664 204.046 269.628 204.557C269.616 205.142 269.409 205.707 269.041 206.163C268.673 206.619 268.164 206.94 267.594 207.076L268.065 206.463C268.051 208.846 267.76 211.22 267.198 213.536C266.914 214.714 266.507 215.858 265.984 216.951C265.468 218.106 264.711 219.136 263.763 219.973C261.77 221.463 259.376 222.323 256.89 222.442C254.506 222.653 252.105 222.564 249.743 222.178L250.081 222.156C249.051 222.574 248.13 223.221 247.387 224.046C246.611 224.899 245.999 225.886 245.58 226.959C244.664 229.099 244.67 231.551 244.59 233.996C244.542 236.443 244.587 238.907 244.563 241.382C244.551 242.62 244.522 243.861 244.422 245.109C244.365 245.734 244.304 246.36 244.186 246.991C244.088 247.664 243.863 248.313 243.524 248.903C243.403 249.092 243.238 249.248 243.042 249.358C242.847 249.468 242.628 249.529 242.404 249.534C242.293 249.524 242.181 249.509 242.072 249.49L241.851 249.433L241.414 249.32C240.801 249.179 240.196 249.008 239.601 248.806C238.382 248.393 237.269 247.72 236.337 246.833C234.624 244.982 233.388 242.741 232.734 240.305C232.041 237.924 231.556 235.487 231.284 233.022C231.167 231.792 231.024 230.563 230.929 229.331L230.735 225.63C230.734 225.613 230.735 225.597 230.738 225.581L230.739 225.573L230.782 225.347C230.792 225.294 230.818 225.246 230.856 225.208C230.894 225.17 230.942 225.145 230.995 225.135L231.015 225.132L233.304 224.719C234.041 224.491 234.792 224.3 235.512 224.033C236.94 223.497 238.266 222.72 239.433 221.737C240.548 220.745 241.418 219.51 241.976 218.126C242.534 216.743 242.764 215.25 242.649 213.762L242.646 213.732L242.645 213.691L242.602 205.957C242.58 203.378 242.626 200.8 242.635 198.222C242.636 198.125 242.66 198.031 242.705 197.946C242.75 197.861 242.815 197.788 242.895 197.733C244.976 196.311 247.039 194.855 249.003 193.268C250.98 191.699 252.915 190.073 254.78 188.367C256.66 186.674 258.436 184.872 260.193 183.049C261.069 182.136 261.921 181.198 262.759 180.248C263.61 179.276 264.361 178.359 265.25 177.301V177.301Z" fill="black"/>
<path d="M251.488 191.916C253.444 191.601 255.433 191.56 257.4 191.793C259.378 191.977 261.309 192.502 263.108 193.345C261.162 192.99 259.258 192.695 257.323 192.489C255.391 192.269 253.455 192.121 251.488 191.916Z" fill="black"/>
<path d="M258.189 198.558C258.461 198.549 258.72 198.434 258.909 198.238C259.098 198.042 259.204 197.78 259.204 197.507C259.204 197.234 259.098 196.972 258.909 196.776C258.72 196.58 258.461 196.465 258.189 196.456C257.917 196.465 257.658 196.58 257.469 196.776C257.28 196.972 257.174 197.234 257.174 197.507C257.174 197.78 257.28 198.042 257.469 198.238C257.658 198.434 257.917 198.549 258.189 198.558V198.558Z" fill="black"/>
<path d="M271.179 193.345C270.392 193.331 269.603 193.358 268.818 193.424L266.468 193.598L266.733 193.421C266.462 194.131 266.296 194.876 266.24 195.634C266.174 196.396 266.219 197.163 266.372 197.911C266.552 198.668 266.808 199.404 267.137 200.108C267.295 200.466 267.475 200.814 267.676 201.149C267.89 201.45 268.123 201.849 268.531 201.855C268.101 201.959 267.757 201.567 267.487 201.296C267.213 200.99 266.97 200.658 266.763 200.304C266.324 199.607 265.986 198.851 265.759 198.059C265.547 197.249 265.474 196.41 265.543 195.576C265.609 194.738 265.821 193.917 266.167 193.151L266.17 193.145C266.194 193.095 266.23 193.052 266.277 193.022C266.323 192.992 266.377 192.975 266.432 192.973C267.23 192.949 268.022 192.961 268.817 193.008C269.614 193.038 270.406 193.151 271.179 193.345V193.345Z" fill="black"/>
<path d="M267.963 198.747C268.236 198.738 268.494 198.623 268.683 198.427C268.873 198.231 268.979 197.969 268.979 197.696C268.979 197.424 268.873 197.162 268.683 196.966C268.494 196.77 268.236 196.655 267.963 196.645C267.691 196.655 267.433 196.77 267.243 196.966C267.054 197.162 266.948 197.424 266.948 197.696C266.948 197.969 267.054 198.231 267.243 198.427C267.433 198.623 267.691 198.738 267.963 198.747V198.747Z" fill="black"/>
<path d="M258.693 209.992L260.902 211.184C261.617 211.569 262.364 211.89 263.136 212.143C263.46 212.298 263.82 212.364 264.178 212.334C264.537 212.304 264.881 212.18 265.175 211.973C265.624 211.315 265.864 210.537 265.863 209.74C266.003 210.166 266.051 210.617 266.004 211.062C265.957 211.508 265.817 211.939 265.592 212.327C265.434 212.522 265.236 212.681 265.013 212.795C264.789 212.909 264.544 212.975 264.293 212.988C263.834 213.01 263.374 212.951 262.935 212.813C262.111 212.542 261.332 212.151 260.623 211.651C259.918 211.174 259.271 210.617 258.693 209.992V209.992Z" fill="black"/>
<path d="M261.027 202.993C260.991 203.539 260.995 204.087 261.038 204.633C261.112 205.162 261.279 205.674 261.531 206.146C261.214 206.067 260.931 205.886 260.727 205.631C260.513 205.37 260.379 205.052 260.343 204.716C260.302 204.394 260.343 204.067 260.462 203.766C260.582 203.465 260.776 203.199 261.027 202.993V202.993Z" fill="black"/>
<path d="M243.224 213.691C243.86 214.298 244.444 214.958 244.97 215.663L245.749 216.682C246.008 217.033 246.288 217.367 246.587 217.685C246.132 217.587 245.71 217.374 245.36 217.067C245.009 216.78 244.692 216.453 244.416 216.093C243.854 215.385 243.448 214.567 243.224 213.691V213.691Z" fill="black"/>
<path d="M268.52 205.813C268.986 208.593 269.26 211.359 269.61 214.109C269.784 215.482 269.956 216.857 270.204 218.209C270.322 218.885 270.474 219.554 270.66 220.214C270.818 220.886 271.101 221.522 271.494 222.09C270.465 221.083 269.753 219.797 269.445 218.39C269.062 217.028 268.785 215.638 268.619 214.233C268.264 211.439 268.231 208.614 268.52 205.813Z" fill="black"/>
<path d="M151.782 314.473C151.8 316.416 151.686 318.359 151.441 320.286C151.227 322.218 150.881 324.133 150.405 326.017C150.385 324.073 150.499 322.131 150.746 320.203C150.961 318.272 151.307 316.358 151.782 314.473V314.473Z" fill="black"/>
<path d="M158.152 327.364C154.992 327.031 151.838 326.66 148.689 326.252L148.931 326.131C147.628 328.805 146.467 331.545 145.453 334.34C144.445 337.141 143.517 339.971 142.696 342.834C141.911 345.705 141.167 348.592 140.564 351.511C139.936 354.426 139.446 357.368 138.97 360.32C139.229 357.344 139.568 354.367 140.114 351.424C140.595 348.468 141.303 345.554 142.072 342.66C142.848 339.765 143.772 336.912 144.841 334.112C145.875 331.294 147.102 328.551 148.514 325.902C148.538 325.86 148.573 325.826 148.616 325.804C148.66 325.783 148.708 325.775 148.756 325.782C151.893 326.276 155.024 326.804 158.152 327.364Z" fill="black"/>
<path d="M162.364 339.577C162.846 342.264 163.534 344.91 164.423 347.491C165.251 350.081 166.376 352.567 167.776 354.899C169.18 357.212 170.91 359.311 172.911 361.133C174.919 362.936 177.16 364.461 179.573 365.669C184.441 368.021 189.874 368.954 195.248 368.361C195.911 368.261 196.586 368.241 197.238 368.076L199.204 367.649L203.147 366.566C205.767 365.807 208.376 365.011 210.966 364.156C216.143 362.437 221.26 360.551 226.319 358.498C231.373 356.439 236.339 354.171 241.273 351.831C246.205 349.487 251.06 346.977 255.861 344.367C260.673 341.775 265.404 339.033 270.091 336.219L270.069 336.234C273.047 334.273 276.359 332.876 279.841 332.11C283.297 331.31 286.847 330.999 290.39 331.187C293.93 331.36 297.434 331.989 300.814 333.057C301.637 333.333 302.478 333.553 303.33 333.717C304.161 333.852 305.012 333.806 305.823 333.582C306.206 333.467 306.558 333.268 306.854 332.998C307.15 332.729 307.381 332.397 307.532 332.027C307.806 331.24 307.901 330.402 307.811 329.574L307.811 329.564C307.81 329.518 307.818 329.472 307.835 329.429C307.853 329.386 307.878 329.347 307.911 329.314C308.478 328.747 308.994 328.131 309.453 327.474C309.919 326.828 310.305 326.127 310.602 325.387C310.901 324.672 311.051 323.904 311.043 323.13C310.996 322.378 310.751 321.653 310.331 321.028C310.273 320.938 310.253 320.83 310.275 320.725C310.297 320.621 310.36 320.53 310.449 320.472L310.486 320.45C311.505 319.933 312.448 319.28 313.289 318.509C314.13 317.786 314.76 316.849 315.113 315.798C315.181 315.543 315.227 315.283 315.252 315.02C315.241 314.749 315.266 314.519 315.228 314.205C315.173 313.611 315.137 313.014 315.109 312.416C315.037 311.198 315.079 309.976 315.235 308.766C315.247 308.689 315.281 308.617 315.333 308.559L315.365 308.523C317.412 306.342 318.911 303.706 319.742 300.833C320.129 299.43 320.175 297.955 319.873 296.531C319.823 296.176 319.725 295.83 319.583 295.501C319.464 295.164 319.328 294.833 319.173 294.51C318.857 293.889 318.458 293.314 317.987 292.801C317.507 292.355 316.914 292.051 316.272 291.922C315.63 291.794 314.965 291.846 314.35 292.072C313.741 292.306 313.21 292.705 312.816 293.225C312.389 293.824 312 294.449 311.65 295.096C310.926 296.427 310.27 297.795 309.685 299.192C309.04 300.782 307.825 302.073 306.278 302.814C304.739 303.471 303.044 303.676 301.393 303.405C299.769 303.203 298.205 302.664 296.8 301.824C293.985 300.109 291.947 297.367 291.116 294.178C291.011 293.784 290.948 293.381 290.864 292.982L290.729 291.768L290.57 289.49C290.444 287.976 290.279 286.466 290.035 284.979C289.823 283.512 289.458 282.072 288.949 280.68C288.735 280.063 288.386 279.501 287.929 279.034C287.755 278.872 287.529 278.777 287.291 278.766C287.053 278.755 286.819 278.829 286.631 278.975L286.415 279.057C286.287 279.104 286.164 279.163 286.046 279.232C285.894 279.322 285.747 279.421 285.606 279.529C285.315 279.771 285.045 280.037 284.799 280.324C284.297 280.942 283.865 281.613 283.511 282.326C282.795 283.814 282.26 285.382 281.916 286.997C281.544 288.632 281.268 290.287 281.088 291.953C280.922 292.824 280.81 293.71 280.592 294.569L280.187 295.837C280.068 296.264 279.91 296.679 279.713 297.077C278.244 300.283 276.058 303.108 273.325 305.337C270.656 307.576 267.661 309.394 264.443 310.729C264.427 310.736 264.41 310.741 264.393 310.746C255.92 313.007 247.394 315.014 238.778 316.627C234.469 317.421 230.135 318.117 225.762 318.49C223.575 318.692 221.378 318.761 219.183 318.699C218.633 318.683 218.085 318.65 217.538 318.581C216.989 318.532 216.443 318.449 215.904 318.335C214.799 318.171 213.762 317.704 212.906 316.986C212.893 316.973 212.886 316.955 212.886 316.937C212.886 316.918 212.893 316.9 212.906 316.887C212.92 316.874 212.938 316.867 212.956 316.867C212.975 316.867 212.993 316.875 213.006 316.888C213.856 317.559 214.874 317.983 215.948 318.113C216.482 318.211 217.021 318.278 217.563 318.312C218.104 318.365 218.647 318.384 219.192 318.385C221.372 318.39 223.55 318.263 225.714 318.005C230.049 317.5 234.353 316.745 238.637 315.9C247.199 314.171 255.691 312.045 264.092 309.676L264.042 309.692C267.116 308.36 269.97 306.57 272.507 304.382C275.054 302.25 277.078 299.563 278.425 296.526C278.607 296.16 278.752 295.776 278.859 295.38L279.23 294.211C279.429 293.42 279.526 292.605 279.683 291.803C279.865 290.078 280.147 288.365 280.527 286.672C280.893 284.947 281.462 283.272 282.225 281.681C282.628 280.865 283.123 280.096 283.698 279.39C284.005 279.028 284.343 278.695 284.71 278.393C285.127 278.049 285.608 277.792 286.125 277.635L285.91 277.717C286.358 277.45 286.872 277.312 287.394 277.317C287.942 277.346 288.465 277.561 288.875 277.927C289.515 278.541 290.004 279.295 290.303 280.13C290.858 281.62 291.255 283.165 291.488 284.738C291.745 286.279 291.917 287.823 292.049 289.366C292.114 290.138 292.17 290.91 292.215 291.682L292.328 292.755C292.402 293.107 292.453 293.464 292.544 293.813C293.263 296.639 295.05 299.076 297.531 300.61C298.764 301.359 300.141 301.842 301.572 302.029C302.966 302.274 304.401 302.118 305.71 301.579C306.966 300.984 307.951 299.939 308.471 298.65C309.081 297.22 309.763 295.822 310.515 294.461C310.899 293.76 311.327 293.084 311.798 292.438C312.203 291.909 312.714 291.472 313.3 291.155C313.885 290.838 314.531 290.648 315.195 290.599C315.859 290.549 316.526 290.641 317.152 290.867C317.778 291.093 318.349 291.45 318.827 291.912C319.91 293.152 320.659 294.646 321.005 296.254C321.351 297.863 321.282 299.533 320.805 301.107C319.892 304.147 318.264 306.924 316.059 309.207L316.189 308.965C316.035 310.098 315.983 311.242 316.034 312.383C316.054 312.966 316.081 313.548 316.127 314.131C316.147 314.449 316.151 314.767 316.14 315.085C316.106 315.409 316.045 315.73 315.956 316.044C315.546 317.241 314.818 318.305 313.85 319.121C312.938 319.936 311.918 320.621 310.818 321.158L310.973 320.581C311.468 321.334 311.75 322.206 311.79 323.106C311.79 323.982 311.61 324.849 311.262 325.653C310.934 326.439 310.512 327.182 310.004 327.866C309.51 328.552 308.956 329.193 308.349 329.782L308.449 329.522C308.537 330.452 308.412 331.389 308.085 332.264C307.896 332.709 307.61 333.106 307.248 333.427C306.886 333.748 306.458 333.985 305.994 334.12C305.1 334.357 304.164 334.397 303.253 334.237C302.377 334.065 301.514 333.834 300.668 333.547C297.33 332.472 293.867 331.831 290.366 331.641C286.867 331.422 283.355 331.728 279.946 332.547C276.536 333.322 273.297 334.712 270.387 336.651L270.371 336.662L270.364 336.666C261.026 342.376 251.558 347.904 241.734 352.775C231.938 357.722 221.777 361.912 211.341 365.308C208.73 366.15 206.101 366.933 203.461 367.678L199.484 368.741L197.438 369.172C196.759 369.337 196.057 369.356 195.367 369.454C192.594 369.765 189.789 369.66 187.047 369.142C184.313 368.614 181.663 367.717 179.171 366.476C174.2 363.942 170.064 360.029 167.258 355.207C165.905 352.805 164.836 350.254 164.07 347.606C163.25 344.987 162.633 342.309 162.225 339.596C162.223 339.577 162.227 339.559 162.239 339.544C162.25 339.529 162.266 339.519 162.285 339.517C162.303 339.515 162.322 339.52 162.336 339.531C162.351 339.542 162.361 339.559 162.364 339.577V339.577Z" fill="black"/>
<path d="M308.635 312.649C309.929 312.253 311.182 311.732 312.375 311.094C313.557 310.502 314.6 309.669 315.438 308.647L315.445 308.638C315.473 308.601 315.508 308.57 315.547 308.547C315.587 308.523 315.631 308.508 315.677 308.501C315.722 308.495 315.769 308.497 315.813 308.509C315.858 308.52 315.9 308.541 315.937 308.568C315.973 308.596 316.005 308.631 316.028 308.67C316.051 308.71 316.067 308.754 316.073 308.8C316.08 308.845 316.077 308.892 316.066 308.936C316.054 308.981 316.034 309.023 316.006 309.06L315.986 309.084C315.012 310.095 313.833 310.888 312.529 311.409C311.274 311.948 309.97 312.363 308.635 312.649Z" fill="black"/>
<path d="M263.771 296.012C264.13 297.044 264.541 298.042 264.964 299.027C265.392 300.005 265.871 300.96 266.401 301.888C266.936 302.804 267.543 303.677 268.215 304.499C268.917 305.311 269.7 306.049 270.553 306.702C269.535 306.266 268.607 305.645 267.815 304.871C267.035 304.082 266.356 303.197 265.795 302.24C264.692 300.328 264.002 298.207 263.771 296.012V296.012Z" fill="black"/>
<path d="M288.324 269.529C289.004 270.779 289.644 272.039 290.314 273.289L289.904 273.449C289.354 272.149 288.824 270.849 288.324 269.529Z" fill="black"/>
<path d="M305.964 302.219C305.294 301.805 304.712 301.261 304.254 300.619C303.764 300.019 303.304 299.379 302.854 298.739C302.334 297.969 301.844 297.189 301.364 296.399L301.974 296.149C302.394 296.929 302.824 297.709 303.274 298.479C303.654 299.149 304.044 299.819 304.464 300.469C304.861 301.134 305.368 301.726 305.964 302.219Z" fill="black"/>
<path d="M444.053 247.962C443.5 245.104 442.441 242.369 440.927 239.884C440.286 238.661 439.215 237.718 437.92 237.239C436.573 236.902 435.166 236.882 433.809 237.18C432.396 237.412 430.978 237.794 429.507 238.071C428.756 238.226 427.994 238.319 427.228 238.351C426.388 238.403 425.548 238.231 424.796 237.854C424.034 237.449 423.412 236.824 423.009 236.061C422.643 235.351 422.392 234.586 422.265 233.797C422.197 233.43 422.148 233.026 422.086 232.74C422.005 232.446 421.881 232.165 421.716 231.907C421.355 231.324 420.926 230.784 420.438 230.301L420.791 229.398C420.789 229.395 420.785 229.393 420.782 229.392C420.778 229.39 420.774 229.39 420.77 229.39C420.767 229.39 420.763 229.391 420.76 229.393C420.756 229.395 420.753 229.397 420.751 229.4C420.757 229.4 420.795 229.375 420.816 229.366C420.882 229.33 420.945 229.288 421.003 229.24C421.148 229.127 421.287 229.005 421.418 228.875C421.694 228.609 421.964 228.317 422.226 228.018C422.751 227.42 423.258 226.788 423.744 226.154L424.311 226.708C424.222 226.759 424.128 226.801 424.03 226.833L423.833 226.87C423.7 226.895 423.593 226.895 423.473 226.907C423.243 226.919 423.019 226.923 422.798 226.92C422.355 226.916 421.917 226.898 421.482 226.871C420.609 226.822 419.746 226.741 418.878 226.66C418.826 226.656 418.777 226.637 418.736 226.606C418.695 226.575 418.663 226.533 418.644 226.485C418.512 226.133 418.36 225.788 418.189 225.453C418.019 225.137 417.817 224.769 417.589 224.68C416.914 224.421 416.128 224.252 415.389 224.045C414.619 223.858 413.86 223.626 413.117 223.351C413.005 223.293 412.907 223.211 412.831 223.11C412.754 223.01 412.701 222.893 412.675 222.77C412.63 222.551 412.629 222.326 412.672 222.107C412.749 221.708 412.875 221.319 413.048 220.951C413.741 219.547 414.552 218.205 415.471 216.937C415.908 216.33 416.25 215.66 416.487 214.951C416.721 214.282 416.78 213.564 416.658 212.866L416.669 212.899C416.192 211.638 415.857 210.329 415.67 208.994C415.466 207.677 415.34 206.35 415.292 205.018C415.186 202.364 415.249 199.705 415.482 197.059C415.495 196.915 415.556 196.779 415.656 196.674C415.755 196.568 415.888 196.5 416.031 196.479C416.175 196.458 416.321 196.487 416.446 196.559C416.572 196.632 416.669 196.745 416.722 196.88L416.733 196.909C417.51 198.867 418.431 200.766 419.49 202.588C420.533 204.405 421.752 206.116 423.129 207.695C424.446 209.256 426.079 210.519 427.921 211.402C429.739 212.22 431.797 212.328 433.69 211.706L433.239 212.248C433.4 211.354 433.659 210.48 434.011 209.642C434.357 208.743 434.923 207.945 435.658 207.321C435.874 207.17 436.101 207.037 436.337 206.92C436.592 206.832 436.853 206.764 437.119 206.716C437.382 206.707 437.646 206.718 437.908 206.748C438.155 206.792 438.397 206.863 438.628 206.959C438.86 207.028 439.078 207.134 439.276 207.273L439.875 207.643C440.226 207.931 440.562 208.233 440.9 208.531C440.949 208.575 440.988 208.63 441.013 208.692C441.458 209.808 441.826 210.953 442.114 212.12C442.418 213.289 442.584 214.489 442.61 215.696C442.654 216.32 442.571 216.946 442.364 217.536C442.158 218.125 441.832 218.667 441.409 219.126C440.918 219.494 440.351 219.747 439.75 219.866C439.148 219.985 438.528 219.967 437.934 219.815C437.925 219.813 437.916 219.81 437.908 219.805C437.9 219.8 437.894 219.794 437.888 219.786C437.883 219.779 437.879 219.77 437.877 219.761C437.875 219.752 437.875 219.743 437.876 219.734C437.879 219.717 437.889 219.701 437.903 219.69C437.917 219.68 437.934 219.674 437.952 219.676C438.51 219.77 439.082 219.744 439.629 219.597C440.176 219.45 440.685 219.188 441.122 218.827C441.462 218.39 441.712 217.889 441.855 217.354C441.998 216.819 442.032 216.261 441.955 215.712C441.871 214.567 441.653 213.435 441.307 212.339C440.974 211.235 440.566 210.155 440.085 209.107L440.198 209.267L439.255 208.515L438.754 208.23C438.601 208.123 438.429 208.046 438.248 208.002C437.947 207.862 437.613 207.811 437.284 207.857C436.955 207.902 436.646 208.041 436.394 208.257C435.845 208.772 435.43 209.414 435.186 210.126C434.9 210.875 434.695 211.652 434.576 212.445C434.557 212.566 434.506 212.68 434.428 212.775C434.35 212.87 434.248 212.942 434.133 212.983L434.124 212.986C431.915 213.775 429.489 213.692 427.34 212.754C425.283 211.813 423.463 210.423 422.013 208.686C420.575 207.025 419.319 205.214 418.269 203.284C417.204 201.377 416.285 199.393 415.517 197.349L416.768 197.198C416.487 199.786 416.352 202.387 416.366 204.99C416.368 206.288 416.435 207.584 416.567 208.875C416.682 210.154 416.944 211.415 417.347 212.634L417.356 212.661L417.358 212.668C417.44 213.49 417.354 214.319 417.106 215.107C416.857 215.894 416.451 216.623 415.911 217.248C414.984 218.47 414.166 219.773 413.468 221.14C413.306 221.47 413.185 221.82 413.109 222.181C413.037 222.531 413.08 222.862 413.326 222.98C414.037 223.236 414.764 223.449 415.5 223.618C416.255 223.818 416.99 223.975 417.773 224.239C418.159 224.462 418.462 224.802 418.641 225.21C418.833 225.559 419.005 225.919 419.155 226.288L418.922 226.114C419.78 226.165 420.646 226.191 421.504 226.2C421.934 226.204 422.363 226.201 422.785 226.183C422.997 226.176 423.205 226.16 423.408 226.14C423.501 226.125 423.612 226.118 423.691 226.097L423.812 226.069C423.825 226.059 423.818 226.059 423.829 226.066L424.345 226.378C424.383 226.402 424.411 226.44 424.422 226.483C424.433 226.527 424.425 226.574 424.402 226.612L424.397 226.62C423.929 227.301 423.45 227.961 422.934 228.61C422.676 228.934 422.41 229.253 422.117 229.566C421.966 229.729 421.806 229.883 421.638 230.028C421.542 230.112 421.439 230.188 421.33 230.254C421.171 230.364 420.985 230.428 420.791 230.439L421.145 229.536C421.728 230.059 422.246 230.65 422.689 231.296C422.93 231.652 423.113 232.044 423.231 232.457C423.334 232.886 423.375 233.213 423.452 233.565C423.513 234.205 423.717 234.823 424.051 235.372C424.384 235.922 424.838 236.388 425.377 236.738C426.634 237.205 428.007 237.263 429.299 236.903C430.719 236.666 432.148 236.309 433.638 236.091C435.166 235.779 436.748 235.857 438.238 236.318C438.616 236.457 438.979 236.633 439.321 236.845C439.652 237.071 439.958 237.332 440.234 237.622C440.506 237.9 440.751 238.204 440.967 238.528C441.195 238.832 441.384 239.159 441.58 239.481C442.329 240.776 442.912 242.159 443.318 243.599C443.745 245.017 444.037 246.471 444.192 247.943C444.193 247.953 444.192 247.962 444.189 247.971C444.186 247.979 444.182 247.988 444.176 247.995C444.17 248.002 444.163 248.008 444.155 248.012C444.147 248.016 444.138 248.019 444.129 248.02C444.111 248.021 444.094 248.015 444.08 248.005C444.066 247.994 444.057 247.979 444.053 247.962V247.962Z" fill="black"/>
<path d="M471.994 215.159C470.854 211.879 462.784 202.929 460.394 201.859C460.394 201.859 460.144 191.829 456.484 189.309C456.484 189.309 465.314 181.869 455.224 175.559C455.224 175.559 446.514 171.529 446.264 182.499C446.264 182.499 425.584 180.229 416.124 197.129C416.124 197.129 422.134 215.829 433.904 212.349C433.904 212.349 435.084 203.979 440.554 208.899C440.554 208.899 445.424 218.819 439.034 220.419C437.897 222.527 437.57 224.977 438.114 227.309C439.034 231.179 463.5 234.5 463.5 234.5C463.5 234.5 497.15 245.9 508.5 243.5C519.85 241.11 509.35 253.99 512.5 241.5C512.5 241.5 473.124 218.439 471.994 215.159ZM451.934 184.389C452.496 184.734 453.01 185.151 453.464 185.629C453.969 186.095 454.28 186.734 454.334 187.419C453.948 186.941 453.481 186.535 452.954 186.219C452.444 185.889 451.944 185.559 451.414 185.249C450.323 184.615 449.277 183.907 448.284 183.129C449.578 183.276 450.824 183.706 451.934 184.389ZM458.674 206.609C457.658 208.254 456.397 209.735 454.934 210.999C453.476 212.244 451.883 213.321 450.184 214.209C448.505 215.111 446.726 215.812 444.884 216.299C446.584 215.469 448.204 214.519 449.794 213.539C451.37 212.555 452.871 211.455 454.284 210.249C455.675 209.039 456.926 207.677 458.014 206.189C459.052 204.642 459.842 202.941 460.354 201.149C460.21 203.072 459.636 204.938 458.674 206.609Z" fill="black"/>
<path d="M417.639 212.388C418.178 211.573 418.929 210.92 419.812 210.5C420.257 210.283 420.733 210.138 421.223 210.067C421.717 209.998 422.22 210.059 422.683 210.244C421.79 210.416 420.926 210.714 420.117 211.13C419.303 211.518 418.521 211.976 417.639 212.388Z" fill="black"/>
<path d="M420.792 216.088C421.064 216.078 421.322 215.963 421.512 215.767C421.701 215.571 421.807 215.309 421.807 215.037C421.807 214.764 421.701 214.502 421.512 214.306C421.322 214.11 421.064 213.995 420.792 213.986C420.519 213.995 420.261 214.11 420.072 214.306C419.882 214.502 419.776 214.764 419.776 215.037C419.776 215.309 419.882 215.571 420.072 215.767C420.261 215.963 420.519 216.078 420.792 216.088V216.088Z" fill="black"/>
<path d="M477.418 226.856C482.244 227.171 486.987 228.264 491.463 230.094C495.964 231.866 500.236 234.172 504.188 236.963C512.013 242.669 518.633 249.866 523.668 258.139L525.538 261.231L527.275 264.399C527.883 265.441 528.391 266.533 528.928 267.612C529.443 268.7 530.032 269.755 530.488 270.871C531.454 273.077 532.437 275.279 533.258 277.545C534.165 279.78 534.911 282.072 535.672 284.359C536.074 285.497 536.407 286.655 536.735 287.814L537.736 291.29C538.342 293.624 538.883 295.979 539.438 298.327L541.717 312.592C541.732 312.683 541.71 312.777 541.658 312.854C541.606 312.931 541.526 312.985 541.435 313.005L531.154 315.261L520.857 317.447L510.56 319.633L500.251 321.763C500.242 321.765 500.233 321.763 500.225 321.758C500.217 321.753 500.212 321.745 500.21 321.736C500.208 321.727 500.21 321.718 500.214 321.71C500.219 321.702 500.227 321.697 500.236 321.695L510.483 319.284L520.743 316.93L531.003 314.577L541.278 312.292L540.996 312.706L538.772 298.451C538.239 296.114 537.711 293.775 537.137 291.446L536.194 287.97C535.886 286.809 535.572 285.65 535.19 284.511C532.484 275.276 528.526 266.454 523.428 258.291C520.827 254.254 517.881 250.449 514.625 246.92C511.356 243.41 507.744 240.238 503.842 237.45C499.959 234.633 495.751 232.292 491.31 230.479C489.088 229.577 486.811 228.816 484.492 228.201C482.178 227.557 479.809 227.13 477.416 226.926C477.407 226.926 477.398 226.923 477.391 226.916C477.385 226.91 477.381 226.901 477.381 226.892C477.381 226.882 477.386 226.873 477.392 226.867C477.399 226.86 477.408 226.857 477.418 226.856V226.856Z" fill="black"/>
<path d="M537.59 313.481C538.204 314.997 538.695 316.56 539.057 318.155C539.45 319.742 539.713 321.359 539.843 322.99C539.228 321.475 538.737 319.911 538.376 318.316C537.984 316.728 537.721 315.111 537.59 313.481V313.481Z" fill="black"/>
<path d="M474.517 255.645C475.39 253.664 476.477 251.784 477.759 250.039C479.036 248.275 480.508 246.662 482.148 245.23C483.809 243.798 485.707 242.667 487.756 241.887C488.791 241.531 489.86 241.287 490.946 241.156C492.028 241.063 493.117 241.101 494.19 241.268C492.054 241.194 489.926 241.576 487.949 242.389C485.997 243.22 484.191 244.359 482.601 245.763C480.98 247.146 479.5 248.687 478.185 250.364C476.844 252.039 475.618 253.804 474.517 255.645V255.645Z" fill="black"/>
<path d="M512.098 251.105C513.302 252.006 514.389 253.052 515.335 254.221C516.297 255.386 517.128 256.654 517.813 258C518.51 259.345 519.025 260.777 519.345 262.258C519.676 263.729 519.783 265.241 519.665 266.743C519.526 266.002 519.527 265.259 519.334 264.539L519.125 263.454L518.823 262.392C518.409 260.985 517.862 259.62 517.189 258.317C516.521 257.007 515.759 255.747 514.909 254.548C514.048 253.34 513.109 252.19 512.098 251.105V251.105Z" fill="black"/>
<path d="M472.562 263.242C471.525 265.778 470.47 268.305 469.372 270.812C468.265 273.315 467.205 275.84 466.056 278.324L462.662 285.799C461.513 288.282 460.342 290.756 459.125 293.208L458.945 292.526L467.676 299.066C470.592 301.238 473.566 303.329 476.55 305.405C479.526 307.493 482.551 309.511 485.562 311.551C488.582 313.575 491.57 315.647 494.562 317.712L493.717 317.801C496.362 314.742 498.842 311.546 501.147 308.224C503.465 304.91 505.677 301.519 507.663 297.999C509.659 294.485 511.398 290.831 512.867 287.067C514.292 283.274 515.28 279.331 515.812 275.315C515.812 275.305 515.815 275.297 515.819 275.288C515.824 275.28 515.829 275.273 515.837 275.267C515.844 275.261 515.852 275.257 515.861 275.254C515.869 275.251 515.879 275.25 515.888 275.251C515.905 275.253 515.921 275.262 515.933 275.275C515.945 275.288 515.951 275.305 515.952 275.323C515.766 279.422 515.027 283.477 513.755 287.378C512.433 291.265 510.8 295.039 508.872 298.664C506.924 302.271 504.75 305.752 502.363 309.087C499.978 312.423 497.407 315.622 494.663 318.67C494.557 318.785 494.413 318.858 494.257 318.875C494.102 318.891 493.945 318.85 493.818 318.759C490.883 316.614 487.943 314.475 485.036 312.29C482.119 310.119 479.218 307.927 476.266 305.805C473.323 303.671 470.369 301.553 467.358 299.514L458.307 293.424C458.204 293.354 458.128 293.25 458.093 293.13C458.058 293.011 458.066 292.882 458.116 292.768L458.127 292.742C459.222 290.233 460.363 287.746 461.526 285.27L465.068 277.863C466.231 275.386 467.484 272.951 468.689 270.494C469.903 268.04 471.159 265.607 472.435 263.183C472.443 263.167 472.457 263.155 472.475 263.149C472.492 263.143 472.51 263.144 472.526 263.152C472.543 263.159 472.556 263.173 472.562 263.19C472.569 263.206 472.569 263.225 472.562 263.242V263.242Z" fill="black"/>
<path d="M430.424 237.303C429.457 242.803 428.426 248.292 427.333 253.768C426.23 259.242 425.112 264.714 423.839 270.155C423.197 272.871 422.514 275.592 421.667 278.258L419.104 286.233C418.235 288.882 417.545 291.586 417.036 294.327C416.786 295.693 416.658 297.078 416.654 298.467C416.67 299.841 416.935 301.202 417.436 302.482L417.084 302.486C418.396 299.702 420.237 297.2 422.504 295.119C424.752 293.012 427.371 291.339 430.228 290.185C430.938 289.892 431.683 289.691 432.409 289.44C432.776 289.328 433.135 289.183 433.51 289.1L434.639 288.868C435.394 288.73 436.139 288.522 436.903 288.443L439.197 288.242C439.961 288.167 440.729 288.153 441.495 288.202L443.793 288.265C445.316 288.411 446.83 288.651 448.348 288.841L447.936 289.267C446.879 284.267 446.053 279.23 445.327 274.176C444.538 269.13 444.123 264.032 444.088 258.924C444.088 258.92 444.089 258.915 444.091 258.911C444.093 258.907 444.095 258.903 444.099 258.9C444.102 258.896 444.106 258.894 444.11 258.892C444.114 258.89 444.119 258.89 444.123 258.89C444.133 258.89 444.141 258.894 444.148 258.9C444.154 258.907 444.158 258.915 444.158 258.924C444.213 261.473 444.468 264.009 444.754 266.538C445.031 269.069 445.404 271.59 445.801 274.105C446.2 276.62 446.651 279.127 447.128 281.629C447.614 284.128 448.109 286.629 448.633 289.116C448.643 289.162 448.643 289.21 448.635 289.256C448.626 289.302 448.609 289.346 448.583 289.385C448.557 289.424 448.524 289.458 448.485 289.485C448.447 289.511 448.403 289.53 448.357 289.54C448.32 289.548 448.281 289.549 448.242 289.545L448.221 289.542C446.728 289.362 445.238 289.13 443.742 288.991L441.489 288.937C440.739 288.891 439.987 288.907 439.241 288.984L436.998 289.167C436.251 289.236 435.525 289.435 434.787 289.562L433.683 289.778C433.317 289.856 432.967 289.996 432.608 290.101C431.899 290.34 431.17 290.529 430.477 290.808C427.685 291.92 425.112 293.516 422.877 295.525C420.622 297.521 418.775 299.934 417.438 302.633L417.43 302.649C417.414 302.682 417.389 302.709 417.358 302.728C417.327 302.747 417.29 302.756 417.254 302.755C417.217 302.754 417.182 302.742 417.152 302.721C417.122 302.7 417.099 302.671 417.085 302.637C416.59 301.303 416.342 299.891 416.353 298.468C416.389 297.064 416.536 295.665 416.793 294.285C417.339 291.541 418.032 288.83 418.872 286.162C419.685 283.489 420.533 280.829 421.293 278.146C422.075 275.47 422.679 272.754 423.273 270.026L430.355 237.29C430.357 237.28 430.362 237.272 430.37 237.267C430.378 237.262 430.387 237.26 430.396 237.262C430.406 237.264 430.414 237.269 430.419 237.277C430.424 237.284 430.426 237.294 430.424 237.303H430.424Z" fill="black"/>
<path d="M418.285 300.635C418.536 301.722 418.838 302.783 419.154 303.832C419.467 304.875 419.854 305.894 420.314 306.881C420.746 307.866 421.315 308.785 422.002 309.613C422.706 310.442 423.584 311.106 424.575 311.556C423.449 311.344 422.413 310.797 421.603 309.987C420.795 309.177 420.142 308.224 419.679 307.177C419.205 306.152 418.852 305.075 418.627 303.969C418.388 302.874 418.273 301.756 418.285 300.635V300.635Z" fill="black"/>
<path d="M448.284 289.192C449.78 289.904 451.216 290.735 452.579 291.676C453.96 292.591 455.265 293.616 456.482 294.74C454.985 294.029 453.549 293.198 452.187 292.256C450.807 291.34 449.502 290.315 448.284 289.192Z" fill="black"/>
<path d="M368.665 332.743C369.15 332.237 369.711 331.809 370.326 331.475C370.957 331.098 371.704 330.967 372.425 331.106C373.148 331.333 373.753 331.835 374.11 332.503C374.28 332.824 374.433 333.156 374.572 333.491L374.893 334.52C374.921 334.609 374.912 334.706 374.869 334.788C374.826 334.87 374.752 334.932 374.663 334.96C374.574 334.988 374.478 334.979 374.395 334.936C374.313 334.892 374.251 334.818 374.223 334.729L374.216 334.702L374.208 334.665L373.99 333.683C373.888 333.369 373.775 333.056 373.647 332.753C373.396 332.16 372.922 331.69 372.327 331.443C371.684 331.269 370.999 331.337 370.402 331.633C369.769 331.911 369.183 332.286 368.665 332.743V332.743Z" fill="black"/>
<path d="M360.649 333.71C361.744 332.324 362.762 330.88 363.7 329.384C364.17 328.636 364.599 327.863 364.986 327.068C365.398 326.283 365.675 325.435 365.806 324.558C365.732 325.449 365.509 326.321 365.146 327.138C364.81 327.965 364.428 328.773 364.004 329.558C363.156 331.132 362.224 332.658 361.21 334.13C361.184 334.168 361.151 334.2 361.112 334.225C361.074 334.251 361.031 334.268 360.985 334.276C360.94 334.285 360.894 334.284 360.849 334.275C360.803 334.265 360.761 334.247 360.723 334.221C360.685 334.195 360.652 334.162 360.627 334.123C360.602 334.085 360.585 334.041 360.576 333.996C360.568 333.951 360.568 333.904 360.578 333.859C360.587 333.814 360.606 333.772 360.632 333.734L360.645 333.716L360.649 333.71Z" fill="black"/>
<path d="M359.123 331.008L365.806 319.789L359.734 331.35C359.691 331.432 359.617 331.493 359.528 331.521C359.44 331.548 359.344 331.539 359.262 331.496C359.18 331.453 359.118 331.379 359.09 331.291C359.063 331.202 359.071 331.106 359.114 331.024L359.123 331.008Z" fill="black"/>
<path d="M362.396 321.537L366.815 315.423L362.983 321.921C362.959 321.961 362.928 321.995 362.891 322.023C362.855 322.051 362.813 322.071 362.768 322.083C362.723 322.095 362.677 322.097 362.631 322.091C362.585 322.085 362.541 322.069 362.502 322.046C362.462 322.022 362.427 321.991 362.399 321.954C362.372 321.917 362.351 321.875 362.34 321.831C362.329 321.786 362.326 321.739 362.333 321.694C362.339 321.648 362.355 321.604 362.378 321.564L362.396 321.537Z" fill="black"/>
<path d="M164.549 348.39C155.708 352.999 146.807 357.486 137.934 362.032L124.583 368.762L111.222 375.473L110.719 373.3L125.674 373.113L140.629 372.998L170.538 372.836C190.478 372.752 210.418 372.774 230.359 373.057L260.269 373.396L275.224 373.568L290.179 373.668C310.119 373.76 330.059 373.628 349.999 373.489L409.818 372.785L439.728 372.524L469.638 372.36C509.517 372.073 549.397 372.066 589.278 372.342L588.471 375.319L564.808 361.206C556.91 356.52 549.06 351.751 541.192 347.013L517.612 332.759L494.101 318.386C494.062 318.363 494.034 318.324 494.023 318.28C494.011 318.235 494.018 318.188 494.041 318.148C494.064 318.109 494.102 318.08 494.147 318.068C494.191 318.056 494.238 318.062 494.278 318.084L518.312 331.564L542.277 345.162C550.257 349.709 558.255 354.224 566.206 358.821L590.087 372.561C590.39 372.735 590.628 373.005 590.763 373.327C590.898 373.65 590.923 374.008 590.835 374.346C590.747 374.685 590.549 374.985 590.274 375.2C589.998 375.416 589.66 375.534 589.31 375.538H589.281C549.401 375.917 509.522 375.995 469.641 375.772L439.731 375.671L409.821 375.473L350.001 374.896C330.06 374.798 310.12 374.709 290.181 374.843L275.226 374.974L260.271 375.178L230.361 375.579C210.422 375.905 190.482 375.969 170.542 375.926L140.632 375.828L125.677 375.744L110.721 375.589L110.695 375.589C110.437 375.586 110.187 375.496 109.987 375.333C109.786 375.17 109.647 374.944 109.592 374.692C109.537 374.44 109.568 374.176 109.682 373.944C109.796 373.713 109.985 373.526 110.219 373.416L123.733 367.02L137.258 360.645C146.303 356.453 155.319 352.202 164.395 348.075C164.437 348.056 164.484 348.054 164.527 348.069C164.57 348.085 164.605 348.116 164.625 348.157C164.645 348.199 164.649 348.246 164.634 348.289C164.62 348.333 164.589 348.369 164.549 348.39L164.549 348.39Z" fill="black"/>
<path d="M110.72 385.29L170.54 384.779L230.36 384.485L350 384.241L469.64 384.482L529.46 384.776L589.28 385.29L529.46 385.804L469.64 386.099L350 386.34L230.36 386.095L170.54 385.801L110.72 385.29Z" fill="black"/>
<path d="M459.239 293.41C455.674 298.994 451.304 304.02 446.271 308.326C441.279 312.771 435.476 316.211 429.18 318.458C426.011 319.541 422.732 320.275 419.403 320.646C417.739 320.821 416.067 320.91 414.393 320.911L411.905 320.833L409.436 320.841L389.686 320.918C389.589 320.918 389.492 320.898 389.402 320.859C384.072 318.53 378.735 316.204 373.382 313.938C372.057 313.386 370.674 312.786 369.395 312.315L369.18 312.24C369.147 312.244 369.164 312.262 369.153 312.247C369.049 312.268 368.948 312.304 368.853 312.352C368.576 312.487 368.315 312.654 368.077 312.85C367.546 313.274 367.062 313.753 366.632 314.279C364.832 316.41 363.702 319.025 363.386 321.797C363.374 321.909 363.337 322.016 363.276 322.111C362.671 323.055 362.075 324.002 361.516 324.964C360.96 325.902 360.478 326.882 360.077 327.896C359.897 328.365 359.774 328.853 359.712 329.351C359.681 329.8 359.763 330.249 359.948 330.658C360.542 331.63 361.087 332.632 361.58 333.659C361.634 333.802 361.643 333.958 361.605 334.107L361.603 334.112C361.446 334.748 361.378 335.403 361.4 336.057C361.412 336.685 361.558 337.302 361.828 337.869C362.088 338.402 362.517 338.835 363.048 339.099C363.614 339.384 364.229 339.559 364.86 339.612L364.721 339.613C365.654 339.486 366.575 339.287 367.477 339.018C368.381 338.758 369.26 338.416 370.101 337.996C370.923 337.586 371.687 337.07 372.373 336.46C373.016 335.854 373.536 335.129 373.902 334.325C373.961 334.194 374.059 334.083 374.182 334.009C374.305 333.935 374.448 333.899 374.591 333.908C374.735 333.917 374.873 333.969 374.986 334.058C375.099 334.147 375.182 334.269 375.224 334.406L375.229 334.423C375.659 335.802 376.387 337.07 377.363 338.136C378.342 339.204 379.557 340.029 380.911 340.545C382.303 341.012 383.767 341.226 385.234 341.178C385.975 341.161 386.718 341.032 387.46 340.967L389.665 340.475L389.69 340.47C389.813 340.442 389.941 340.447 390.062 340.482C394.484 341.757 398.977 342.772 403.517 343.525C408.061 344.302 412.641 344.85 417.24 345.166C426.433 345.844 435.675 345.39 444.756 343.814C449.273 342.966 453.714 341.76 458.038 340.205L461.245 338.958L464.377 337.536C465.446 337.111 466.437 336.531 467.465 336.022C468.499 335.521 469.505 334.968 470.481 334.363C474.464 332.048 478.174 329.292 481.542 326.149L484.036 323.748C484.819 322.901 485.575 322.027 486.347 321.166L487.499 319.869L488.549 318.488L490.65 315.721L488.661 318.572L487.664 319.999L486.562 321.346C485.823 322.24 485.098 323.149 484.344 324.034L481.932 326.553C478.65 329.872 475.006 332.812 471.068 335.319C467.149 337.881 462.936 339.963 458.52 341.521C454.122 343.103 449.604 344.33 445.011 345.191C435.814 346.79 426.455 347.25 417.145 346.563C412.499 346.244 407.872 345.691 403.281 344.906C398.678 344.143 394.124 343.113 389.641 341.819L390.038 341.826L387.69 342.349C386.885 342.425 386.087 342.56 385.275 342.579C383.628 342.633 381.985 342.389 380.424 341.859C378.86 341.264 377.457 340.313 376.327 339.08C375.193 337.844 374.353 336.368 373.87 334.762L375.197 334.86C374.754 335.851 374.118 336.744 373.326 337.487C372.544 338.186 371.672 338.778 370.733 339.246C369.816 339.705 368.859 340.078 367.874 340.362C366.892 340.655 365.888 340.871 364.873 341.006L364.858 341.008C364.817 341.013 364.775 341.013 364.733 341.007C363.911 340.937 363.111 340.707 362.378 340.329C361.6 339.929 360.97 339.291 360.581 338.509C360.217 337.76 360.019 336.942 360 336.11C359.971 335.308 360.057 334.505 360.256 333.728L360.279 334.181C359.905 333.188 359.258 332.415 358.671 331.233C358.389 330.609 358.267 329.924 358.315 329.241C358.387 328.616 358.536 328.003 358.761 327.415C359.189 326.326 359.704 325.272 360.301 324.265C360.878 323.272 361.486 322.306 362.102 321.347L361.992 321.661C362.334 318.607 363.576 315.723 365.56 313.377C366.053 312.776 366.608 312.229 367.216 311.745C367.541 311.48 367.896 311.255 368.275 311.075C368.507 310.963 368.754 310.888 369.009 310.853C369.182 310.845 369.355 310.855 369.526 310.882L369.827 310.982C371.28 311.515 372.566 312.081 373.927 312.647C379.294 314.919 384.628 317.244 389.965 319.576L389.681 319.517L409.472 319.44L411.945 319.433L414.397 319.51C416.018 319.509 417.639 319.423 419.252 319.253C422.478 318.898 425.655 318.183 428.722 317.121C434.894 314.976 440.65 311.781 445.736 307.679C448.303 305.636 450.723 303.413 452.977 301.028C455.255 298.652 457.349 296.105 459.239 293.41Z" fill="black"/>
<path d="M289.918 273.482C289.224 273.835 288.526 274.177 287.818 274.493L287.928 274.236C288.378 275.203 288.791 276.185 289.199 277.168C289.62 278.147 290.003 279.14 290.348 280.149C290.699 281.155 291.022 282.172 291.391 283.172C291.762 284.17 292.174 285.152 292.597 286.13C294.354 290.014 296.026 293.933 297.443 297.953L297.068 297.791C298.483 297.282 299.909 296.804 301.352 296.366C301.36 296.364 301.369 296.365 301.377 296.368C301.385 296.372 301.391 296.379 301.394 296.387C301.398 296.395 301.398 296.404 301.395 296.413C301.391 296.421 301.385 296.428 301.377 296.432C300.027 297.1 298.661 297.732 297.281 298.327C297.213 298.356 297.137 298.358 297.068 298.331C297 298.304 296.945 298.252 296.915 298.184L296.906 298.165C295.18 294.269 293.708 290.27 292.322 286.238C291.959 285.237 291.586 284.24 291.17 283.259C290.754 282.279 290.291 281.317 289.856 280.344C289.414 279.374 289.011 278.389 288.647 277.387C288.27 276.392 287.897 275.394 287.561 274.382L287.555 274.364C287.539 274.317 287.542 274.265 287.564 274.221C287.586 274.176 287.625 274.142 287.671 274.125C288.403 273.867 289.145 273.637 289.892 273.416C289.9 273.414 289.909 273.415 289.917 273.419C289.925 273.422 289.931 273.429 289.934 273.437C289.938 273.445 289.938 273.454 289.935 273.463C289.931 273.471 289.925 273.478 289.918 273.482V273.482Z" fill="black"/>
<path d="M301.961 296.117C303.944 295.276 305.915 294.408 307.907 293.59L313.878 291.13C317.866 289.506 321.859 287.897 325.885 286.369L325.734 286.718L323.475 280.744L321.17 274.789C319.598 270.832 317.968 266.899 316.343 262.963L316.638 263.09C312.555 264.78 308.464 266.449 304.364 268.096L304.35 268.103C304.288 268.127 304.219 268.131 304.155 268.112C303.897 268.056 303.657 267.938 303.454 267.769C303.249 267.586 303.101 267.347 303.027 267.082C302.965 266.842 302.945 266.594 302.969 266.347C302.988 266.111 303.035 265.878 303.11 265.653C303.12 265.621 303.136 265.591 303.157 265.564L303.164 265.555C303.558 265.055 303.777 264.438 303.786 263.801C303.784 263.492 303.718 263.188 303.593 262.906C303.467 262.624 303.286 262.371 303.058 262.162C302.553 261.753 301.945 261.491 301.301 261.406C300.656 261.321 300.001 261.415 299.407 261.679C298.791 261.895 298.245 262.275 297.828 262.778C297.411 263.28 297.138 263.887 297.039 264.532C297.012 264.848 297.049 265.165 297.149 265.466C297.249 265.767 297.409 266.044 297.62 266.28C298.069 266.761 298.667 267.078 299.318 267.178L299.331 267.181C299.353 267.184 299.374 267.192 299.393 267.203C299.804 267.418 300.146 267.745 300.378 268.146C300.495 268.371 300.544 268.624 300.519 268.876C300.487 269.118 300.397 269.349 300.256 269.549C300.233 269.587 300.199 269.616 300.158 269.631L300.15 269.634C296.887 270.891 293.613 272.12 290.327 273.322C290.319 273.324 290.31 273.324 290.302 273.32C290.293 273.316 290.287 273.31 290.284 273.301C290.28 273.293 290.28 273.284 290.284 273.275C290.287 273.267 290.293 273.26 290.302 273.257C293.514 271.873 296.74 270.522 299.979 269.204L299.873 269.289C299.97 269.16 300.028 269.005 300.04 268.844C300.052 268.682 300.017 268.521 299.94 268.379C299.747 268.077 299.476 267.834 299.156 267.675L299.231 267.7C298.455 267.597 297.735 267.237 297.189 266.676C296.916 266.384 296.704 266.04 296.569 265.665C296.433 265.289 296.375 264.889 296.398 264.49C296.483 263.712 296.786 262.973 297.272 262.359C297.758 261.745 298.407 261.28 299.145 261.019C299.864 260.701 300.658 260.59 301.437 260.697C302.215 260.805 302.949 261.127 303.555 261.628C303.856 261.904 304.097 262.238 304.264 262.61C304.431 262.982 304.52 263.385 304.525 263.792C304.525 264.597 304.25 265.376 303.745 266.003L303.799 265.905C303.685 266.221 303.658 266.562 303.721 266.892C303.758 267.028 303.834 267.151 303.939 267.246C304.044 267.341 304.174 267.403 304.313 267.426L304.105 267.441C308.217 265.826 312.339 264.234 316.471 262.668L316.476 262.666C316.532 262.644 316.594 262.646 316.648 262.67C316.702 262.695 316.745 262.74 316.766 262.795C318.284 266.773 319.797 270.753 321.369 274.71L323.779 280.624L326.235 286.52C326.262 286.584 326.262 286.657 326.235 286.722C326.208 286.787 326.157 286.839 326.092 286.866L326.092 286.866L326.084 286.869C322.106 288.518 318.096 290.085 314.08 291.638L308.047 293.943C306.037 294.714 304.007 295.434 301.987 296.182C301.979 296.185 301.969 296.185 301.961 296.181C301.953 296.177 301.946 296.17 301.943 296.162C301.939 296.153 301.939 296.144 301.943 296.135C301.946 296.127 301.953 296.12 301.962 296.116L301.961 296.117Z" fill="black"/>
<path d="M549.428 350.987L509.387 327.026L543.122 321.729C543.122 321.729 551.446 331.818 549.428 350.987Z" fill="black"/>
</svg>
