<svg width="868" height="168" viewBox="0 0 868 168" fill="none" xmlns="http://www.w3.org/2000/svg">
<path d="M0 12C0 5.37258 5.37258 0 12 0H846C852.627 0 858 5.37258 858 12V153C858 159.627 852.627 165 846 165H12C5.37256 165 0 159.627 0 153V12Z" fill="#E9FDF1"/>
<g opacity="0.2">
<mask id="mask0_218_22791" style="mask-type:alpha" maskUnits="userSpaceOnUse" x="473" y="37" width="395" height="131">
<rect width="394.031" height="130.064" transform="matrix(-1 0 0 1 867.031 37.9126)" fill="#D9D9D9"/>
</mask>
<g mask="url(#mask0_218_22791)">
<path d="M847.43 94.6174C838.549 81.6458 823.96 72.5008 808.134 69.9805C792.307 67.4602 775.474 71.6049 762.796 81.1371C750.535 90.3571 742.577 103.837 732.107 114.948C725.316 122.156 716.685 127.307 708.787 133.128C700.233 139.429 689.347 142.781 678.609 142.174C667.651 141.556 657.372 137.128 646.944 133.793C635.093 130 622.778 127.561 610.344 126.549C603.928 126.029 597.351 125.896 591.184 127.694C578.256 131.463 569.084 143.464 566.168 156.268C565.614 158.695 565.269 161.302 566.245 163.597C567.215 165.881 569.334 167.493 571.477 168.817C583.857 176.465 599.154 176.852 613.1 173.719C621.778 171.771 630.73 173.575 639.617 173.91C660.289 174.69 680.978 173.505 701.573 171.823C742.839 168.453 789.325 171.743 825.758 166.418C831.127 166.875 837.668 166.967 840.549 162.545C841.71 160.759 846.062 151.169 846.288 149.071C848.246 131.18 845.317 120.613 845.644 102.624" fill="#E9F9E6"/>
<path d="M712.584 109.176C707.459 110.604 710.174 120.905 710.507 124.466C710.793 127.5 711.275 130.524 711.953 133.495C712.102 134.154 713.977 140.512 714.394 141.784C714.435 141.929 714.471 142.01 714.477 142.01C714.608 141.946 714.745 141.882 714.882 141.819C722.346 138.246 730.012 135.119 737.536 131.761C739.125 131.05 741.178 130.188 742.095 128.656C743.059 127.044 743.273 124.882 740.946 124.535C739.536 124.327 738.101 124.616 736.696 124.899C737.107 124.176 739.625 123.379 740.405 122.974C741.815 122.24 743.315 121.575 744.678 120.754C746.875 119.425 749.285 118.402 751.487 117.026C753.517 115.76 758.017 112.078 756.326 109.297C755.297 107.609 752.315 108.118 750.636 108.234C747.845 108.43 745.16 109.32 742.535 110.193C745.589 108.569 748.654 106.927 751.392 104.852C754.136 102.771 756.565 100.204 757.993 97.1175C758.678 95.655 759.023 93.7069 757.803 92.6202C756.761 91.6895 755.124 91.9092 753.767 92.2965C749.886 93.4121 746.303 95.4642 743.434 98.2274C748.452 92.9265 753.636 87.3483 755.618 80.4115C755.862 79.5676 756.047 78.6831 755.916 77.8103C755.785 76.9432 755.279 76.0819 754.452 75.7293C753.112 75.157 751.618 76.0587 750.523 77.001C745.309 81.4752 742.565 87.4408 738.976 93.0537C739.762 89.9611 740.172 86.7702 740.184 83.5793C740.196 80.8798 739.827 77.9606 737.922 75.9952C737.69 75.7582 737.411 75.5212 737.071 75.4749C736.554 75.4055 736.095 75.7928 735.75 76.1744C733.417 78.712 732.351 82.111 731.589 85.4291C730.709 89.2443 730.131 93.1231 729.881 97.025C730.006 94.8284 730.066 92.7763 729.328 90.4525C728.738 88.6142 727.56 85.3597 724.989 86.0245C724.304 86.1979 723.739 86.643 723.274 87.25C721.822 89.1345 721.298 92.5739 720.893 94.337C720.066 97.8979 719.721 101.54 719.435 105.17C719.286 107.054 719.167 108.939 719.007 110.823C718.882 112.326 718.233 114.401 718.465 115.87C718.197 114.216 717.917 112.511 716.971 111.112C716.031 109.719 714.233 108.708 712.584 109.176Z" fill="#008855"/>
<path d="M725.675 121.107C725.675 121.153 725.693 121.199 725.716 121.24C723.139 125.581 720.508 130.043 718.104 134.581C717.348 127.76 716.133 120.927 714.479 114.262C714.449 114.147 714.33 114.072 714.199 114.101C714.08 114.129 714.003 114.245 714.032 114.372C715.735 121.234 716.979 128.275 717.723 135.298C716.592 137.443 715.479 139.61 714.389 141.79C714.431 141.934 714.467 142.015 714.473 142.015C714.604 141.951 714.741 141.888 714.877 141.824C715.901 139.778 716.955 137.737 718.014 135.72C718.05 135.72 718.086 135.708 718.109 135.691C723.931 131.749 730.704 129.026 737.692 127.835C737.823 127.818 737.9 127.696 737.882 127.575C737.859 127.454 737.746 127.373 737.615 127.39C730.788 128.564 724.169 131.171 718.425 134.951C720.943 130.188 723.716 125.494 726.425 120.939C729.186 118.436 732.942 117.147 736.871 115.945C741.109 114.65 745.269 113.465 749.572 113.083C749.697 113.072 749.787 112.962 749.781 112.84C749.769 112.719 749.656 112.632 749.531 112.638C745.18 113.02 740.995 114.222 736.734 115.517C733.198 116.598 729.799 117.754 727.103 119.794C728.335 117.708 729.591 115.592 730.829 113.447C737.787 106.875 745.662 101.296 754.239 96.8685C754.346 96.8107 754.388 96.6778 754.328 96.5737C754.269 96.4581 754.132 96.4176 754.019 96.4754C745.84 100.701 738.305 105.967 731.579 112.141C732.24 110.991 732.889 109.84 733.526 108.684C738.049 100.476 743.65 90.9203 750.882 82.3072C750.959 82.2147 750.947 82.0702 750.852 81.995C750.751 81.9199 750.608 81.9315 750.531 82.0239C743.269 90.6717 737.662 100.244 733.127 108.476C732.645 109.349 732.157 110.222 731.663 111.095C733.508 105.499 737.859 90.9087 736.359 81.654C736.341 81.5384 736.222 81.4517 736.103 81.469C735.972 81.4864 735.889 81.602 735.912 81.7234C737.734 92.9666 730.805 112.245 730.466 113.181C729.109 115.534 727.722 117.875 726.359 120.164C726.294 120.286 726.216 120.401 726.151 120.523C726.365 111.944 726.532 103.1 723.943 94.7066C723.907 94.5852 723.776 94.5158 723.657 94.5563C723.532 94.591 723.466 94.7181 723.502 94.8338C726.121 103.349 725.901 112.378 725.675 121.107Z" fill="#95BC8F"/>
<path d="M766.172 84.0707C766.791 84.2672 767.166 84.8395 767.13 85.4407C768.302 85.5563 769.505 85.2846 770.445 84.9666C771.034 84.7701 771.624 84.5331 772.189 84.3019C773.046 83.955 773.927 83.6082 774.844 83.3712C774.588 83.2961 774.326 83.2151 774.07 83.14C773.052 82.8509 771.999 82.5561 771.017 82.111C769.874 81.5966 768.951 80.9145 768.308 80.1341C767.993 80.2844 767.618 80.319 767.261 80.2034C766.523 79.9722 766.124 79.1976 766.362 78.4808C766.6 77.764 767.398 77.3767 768.136 77.6079C768.874 77.8392 769.273 78.6138 769.035 79.3306C768.969 79.5329 768.85 79.7063 768.707 79.8508C769.308 80.5734 770.159 81.1977 771.231 81.6775C771.886 81.9723 772.576 82.1977 773.272 82.4058C773.034 81.0127 772.278 79.7352 771.493 78.5791C771.326 78.5849 771.159 78.5675 770.993 78.5155C770.255 78.2843 769.856 77.5097 770.094 76.7929C770.332 76.0761 771.13 75.6888 771.862 75.92C772.594 76.1512 772.999 76.9258 772.761 77.6426C772.63 78.0242 772.344 78.3074 771.999 78.4577C772.82 79.6774 773.6 81.0358 773.796 82.5561C773.933 82.5966 774.076 82.6371 774.213 82.6775C774.731 82.822 775.243 82.9723 775.754 83.1342C777.248 83.6198 778.373 84.1921 779.219 84.9031C779.123 84.7007 779.028 84.4984 778.933 84.3019C777.742 81.8104 776.522 79.2381 775.612 76.6195C775.445 76.6252 775.272 76.6079 775.106 76.5559C774.368 76.3247 773.969 75.55 774.207 74.8333C774.445 74.1165 775.243 73.7291 775.975 73.9604C776.713 74.1916 777.112 74.9662 776.873 75.683C776.743 76.0703 776.445 76.3593 776.088 76.5096C776.993 79.0935 778.201 81.6312 779.379 84.0996C780.433 86.3077 781.498 88.5506 782.367 90.8629C782.296 89.2616 782.474 87.539 782.927 85.7008C783.088 85.0534 783.296 84.4233 783.534 83.8105C783.326 82.9666 782.718 81.0705 781.296 79.4404C780.957 79.6485 780.534 79.7121 780.123 79.5849C779.385 79.3537 778.986 78.5791 779.225 77.8681C779.463 77.1571 780.26 76.764 780.992 76.9952C781.73 77.2264 782.129 78.001 781.891 78.7178C781.844 78.8681 781.76 79.0011 781.671 79.1167C782.879 80.4982 783.522 82.059 783.843 83.0822C784.171 82.3249 784.528 81.585 784.885 80.8624C785.212 80.1976 785.54 79.5155 785.843 78.8276C785.677 78.0299 785.236 77.3247 784.76 76.5848C784.581 76.3015 784.403 76.0241 784.236 75.735C783.873 75.0992 783.593 74.4228 783.385 73.7292C783.213 73.7407 783.028 73.7234 782.855 73.6656C782.117 73.4344 781.719 72.6597 781.957 71.9429C782.195 71.2262 782.992 70.8388 783.73 71.0701C784.468 71.3013 784.867 72.0759 784.629 72.7927C784.504 73.1742 784.218 73.4575 783.867 73.6078C784.064 74.261 784.326 74.8968 784.671 75.498C784.831 75.7755 785.004 76.053 785.183 76.3247C785.546 76.8912 785.909 77.4692 786.147 78.0993C786.367 77.5386 786.57 76.9721 786.724 76.3882C787.04 75.209 787.278 73.5211 786.808 71.81C786.695 71.8042 786.575 71.7869 786.462 71.7522C785.724 71.521 785.326 70.7464 785.564 70.0296C785.802 69.3128 786.599 68.9255 787.337 69.1567C788.075 69.3879 788.474 70.1625 788.236 70.8735C788.087 71.3129 787.73 71.6308 787.302 71.758C787.766 73.5442 787.528 75.2841 787.2 76.5096C786.98 77.3305 786.683 78.1224 786.349 78.8912C786.343 78.9317 786.325 78.9664 786.302 78.9953C786.165 79.3132 786.016 79.6311 785.867 79.9433C786.075 79.8219 786.29 79.7236 786.48 79.6485C786.879 79.4982 787.296 79.3999 787.694 79.3017C787.938 79.2439 788.188 79.186 788.427 79.1167C788.528 79.0878 788.623 79.0531 788.718 79.0184C788.29 77.6426 788.587 76.3825 788.903 75.4287C788.915 75.3882 788.938 75.3188 788.986 75.2437C788.617 74.8911 788.456 74.3592 788.629 73.8448C788.867 73.128 789.665 72.7407 790.403 72.9719C791.141 73.2031 791.54 73.9777 791.301 74.6887C791.063 75.4055 790.266 75.7928 789.534 75.5616C789.486 75.5501 789.45 75.5269 789.409 75.5096C789.403 75.5211 789.397 75.5385 789.385 75.5732C788.95 76.8854 788.891 77.8681 789.188 78.845C790.081 78.475 790.897 77.9374 791.575 77.2669C791.486 77.001 791.474 76.7062 791.569 76.4229C791.807 75.7061 792.605 75.3188 793.337 75.55C794.075 75.7813 794.474 76.5559 794.236 77.2727C793.998 77.9895 793.2 78.3768 792.462 78.1455C792.194 78.0588 791.98 77.9085 791.813 77.712C790.903 78.5733 789.784 79.2207 788.563 79.5791C788.313 79.6543 788.058 79.7121 787.808 79.7699C787.403 79.8682 787.022 79.9549 786.653 80.0936C786.183 80.2728 785.564 80.6023 785.284 81.1861C785.266 81.2208 785.242 81.2439 785.218 81.2671C784.605 82.5272 783.986 83.8221 783.576 85.1979C783.695 85.0591 783.826 84.932 783.962 84.8106C784.504 84.3539 785.159 84.0533 785.784 83.7643C785.968 83.6776 786.153 83.5909 786.331 83.5042C786.058 83.1573 785.962 82.6949 786.111 82.2498C786.349 81.533 787.147 81.1457 787.879 81.3769C788.617 81.6081 789.016 82.3827 788.778 83.0937C788.54 83.8105 787.742 84.1978 787.01 83.9666C786.909 83.9319 786.814 83.8915 786.724 83.8394C786.48 83.9608 786.236 84.0764 785.992 84.192C785.367 84.4811 784.772 84.747 784.284 85.1632C783.582 85.7586 783.141 86.6546 783.099 87.5564C783.099 87.6142 783.07 87.6604 783.034 87.7009C782.647 90.2732 782.838 92.5913 783.617 94.5971C783.647 94.6665 783.635 94.7359 783.599 94.7995C783.921 96.1463 784.147 97.5163 784.23 98.921C784.236 99.054 784.135 99.1638 783.998 99.1754C783.968 99.1754 783.939 99.1754 783.909 99.1638C783.814 99.1349 783.748 99.054 783.742 98.9499C783.474 94.4064 781.701 90.175 779.784 86.0823C779.57 86.88 779.32 87.6662 779.016 88.435C779.522 88.7645 779.766 89.3946 779.57 89.9842C779.332 90.701 778.534 91.0883 777.802 90.8571C777.766 90.8455 777.742 90.8282 777.707 90.8166C777.701 90.8166 777.695 90.8166 777.695 90.8166C777.683 90.8108 777.671 90.805 777.659 90.7993C777.653 90.7993 777.647 90.7935 777.647 90.7877C777.016 90.4987 776.683 89.7992 776.909 89.1345C777.141 88.4523 777.867 88.0708 778.576 88.2385C778.897 87.4118 779.171 86.5679 779.385 85.7123C778.594 84.8626 777.457 84.2036 775.832 83.6545C775.731 83.8857 775.707 84.1689 775.701 84.4406C775.695 84.7412 775.695 85.0418 775.689 85.3482C775.689 86.0476 775.683 86.7702 775.594 87.487C775.546 87.8396 775.481 88.1691 775.397 88.4813C775.856 88.8223 776.07 89.4177 775.879 89.9842C775.641 90.701 774.844 91.0883 774.112 90.8571C773.374 90.6259 772.975 89.8513 773.213 89.1402C773.451 88.435 774.225 88.0477 774.951 88.2616C775.016 88.0015 775.07 87.724 775.106 87.435C775.195 86.7471 775.195 86.0418 775.195 85.354C775.195 85.0476 775.195 84.7412 775.207 84.4348C775.213 84.2094 775.231 83.9782 775.284 83.7527C774.29 83.9724 773.326 84.3539 772.392 84.7296C771.814 84.9609 771.219 85.2037 770.618 85.406C769.296 85.8511 768.082 86.0129 767.023 85.8973C766.737 86.5332 765.999 86.8685 765.308 86.6488C764.57 86.4176 764.172 85.643 764.41 84.9262C764.642 84.2267 765.433 83.8394 766.172 84.0707Z" fill="#95BC8F"/>
<path d="M549.439 73.1686C550.207 73.0761 550.909 73.6079 551.004 74.3594C551.082 74.9837 550.707 75.5618 550.129 75.7872C550.516 76.8624 551.284 77.8104 551.975 78.5041C552.409 78.9377 552.879 79.3539 553.332 79.7585C554.016 80.3655 554.713 80.9956 555.32 81.7008C555.284 81.4407 555.248 81.1805 555.207 80.9204C555.046 79.903 554.879 78.8509 554.873 77.7989C554.867 76.5792 555.111 75.4751 555.57 74.5733C555.296 74.3594 555.105 74.0473 555.058 73.6831C554.962 72.9374 555.51 72.2553 556.284 72.1628C557.052 72.0703 557.754 72.6021 557.849 73.3536C557.945 74.0993 557.397 74.7814 556.623 74.8739C556.403 74.897 556.195 74.8681 555.998 74.8045C555.582 75.6369 555.355 76.6543 555.361 77.7931C555.361 78.4925 555.445 79.1978 555.546 79.8972C556.748 79.0995 557.617 77.8914 558.361 76.7121C558.284 76.5734 558.23 76.4173 558.206 76.2497C558.111 75.504 558.659 74.8219 559.433 74.7294C560.2 74.6369 560.903 75.1687 560.998 75.9202C561.093 76.6659 560.546 77.348 559.772 77.4405C559.361 77.4867 558.974 77.3596 558.689 77.111C557.897 78.348 556.962 79.6082 555.629 80.4233C555.653 80.562 555.671 80.7007 555.695 80.8395C555.778 81.354 555.855 81.8742 555.921 82.3945C556.105 83.9148 556.046 85.146 555.736 86.1923C555.885 86.0247 556.034 85.8513 556.177 85.6836C557.998 83.5853 559.879 81.4233 561.938 79.5099C561.861 79.3654 561.802 79.2093 561.784 79.0417C561.688 78.296 562.236 77.6139 563.01 77.5214C563.778 77.4289 564.48 77.9607 564.575 78.7122C564.67 79.4579 564.123 80.14 563.349 80.2325C562.932 80.2845 562.54 80.1458 562.248 79.8915C560.879 81.169 559.605 82.5332 558.367 83.9263C557.76 84.6142 557.195 85.4061 556.528 86.0305C555.951 86.568 555.754 87.0767 555.635 87.8571C555.266 90.2965 554.897 92.736 554.528 95.1812C554.498 95.3893 554.367 95.6609 554.159 95.6031C553.998 95.5569 553.974 95.3488 553.986 95.1869C554.052 93.8689 554.165 92.551 554.32 91.2388C554.474 89.9381 554.796 88.6317 554.897 87.3369C554.611 87.3716 552.397 87.2617 552.355 87.5103C552.26 88.0999 551.784 88.5797 551.141 88.6548C550.373 88.7473 549.671 88.2155 549.576 87.464C549.57 87.4294 549.576 87.4005 549.57 87.3542C549.57 87.3427 549.57 87.3311 549.57 87.3137C549.57 87.308 549.576 87.3022 549.576 87.2964C549.576 86.6201 550.094 86.0305 550.802 85.9437C551.534 85.857 552.201 86.3368 552.344 87.0305C553.248 86.9669 554.153 86.8455 555.046 86.6721C555.504 85.62 555.635 84.3367 555.462 82.6777C555.201 82.6893 554.933 82.7875 554.677 82.8974C554.391 83.0188 554.111 83.1459 553.826 83.2731C553.171 83.5679 552.492 83.8743 551.79 84.094C551.439 84.2038 551.106 84.2847 550.778 84.3425C550.653 84.8917 550.189 85.331 549.582 85.4004C548.814 85.4929 548.112 84.961 548.016 84.2096C547.921 83.4639 548.469 82.7818 549.242 82.6893C550.004 82.5968 550.689 83.117 550.796 83.8454C551.07 83.7934 551.35 83.724 551.635 83.6315C552.314 83.4176 552.974 83.117 553.617 82.828C553.903 82.7008 554.189 82.5679 554.474 82.4465C554.689 82.354 554.909 82.2731 555.141 82.221C554.516 81.4407 553.748 80.7528 553.004 80.088C552.546 79.6776 552.064 79.2556 551.623 78.8105C550.653 77.8336 549.987 76.8393 549.647 75.8566C548.933 75.8739 548.308 75.3652 548.219 74.6658C548.118 73.9432 548.665 73.2611 549.439 73.1686Z" fill="#95BC8F"/>
<path d="M644.02 85.6776C644.782 85.8048 645.3 86.5042 645.169 87.2499C645.116 87.5447 644.967 87.8049 644.758 87.9956C645.044 88.8974 645.508 89.7414 646.122 90.4697C646.854 89.7414 647.27 88.8396 647.514 87.4869C647.52 87.458 647.52 87.4349 647.52 87.4233C647.473 87.4175 647.425 87.4233 647.383 87.4118C646.621 87.2846 646.104 86.5851 646.235 85.8394C646.366 85.0995 647.086 84.5966 647.854 84.7238C648.615 84.851 649.133 85.5504 649.002 86.2961C648.913 86.8279 648.514 87.2268 648.014 87.3713C648.02 87.4522 648.008 87.5274 647.996 87.5678C647.824 88.5505 647.485 89.8049 646.449 90.8281C646.52 90.9033 646.586 90.9784 646.663 91.0478C646.842 91.2212 647.032 91.383 647.223 91.5449C647.532 91.8108 647.854 92.0883 648.133 92.4004C648.27 92.5507 648.413 92.7299 648.538 92.938C648.556 92.597 648.58 92.2501 648.61 91.9033C648.604 91.8628 648.604 91.8281 648.621 91.7877C648.693 90.9553 648.806 90.1171 649.008 89.2905C649.3 88.0592 649.919 86.4059 651.187 85.0359C650.865 84.7353 650.699 84.2902 650.782 83.8336C650.913 83.0937 651.633 82.5907 652.401 82.7179C653.163 82.8451 653.681 83.5445 653.55 84.2902C653.419 85.0302 652.699 85.5331 651.931 85.4059C651.812 85.3886 651.705 85.3481 651.597 85.3018C650.365 86.6083 649.77 88.2095 649.484 89.3945C649.342 89.9783 649.246 90.5738 649.175 91.1692C649.687 90.7183 650.288 90.3714 650.877 90.0362C651.163 89.8743 651.449 89.7067 651.728 89.5332C652.324 89.1575 652.859 88.7124 653.341 88.221C653.103 87.932 652.99 87.5505 653.056 87.1574C653.187 86.4175 653.907 85.9146 654.675 86.0418C655.437 86.1689 655.954 86.8684 655.823 87.6141C655.693 88.354 654.972 88.8569 654.205 88.7297C654.02 88.7008 653.853 88.6372 653.705 88.5448C653.187 89.065 652.621 89.5332 651.996 89.9379C651.717 90.1171 651.419 90.2847 651.127 90.4524C650.353 90.8975 649.621 91.3195 649.098 91.9495C649.038 92.701 649.002 93.4467 648.973 94.1866C648.943 94.9901 648.907 95.8052 648.836 96.626C649.604 95.8688 650.925 94.7705 652.651 94.0941C652.627 93.9496 652.615 93.7935 652.645 93.6375C652.776 92.8976 653.496 92.3946 654.264 92.5218C655.026 92.649 655.544 93.3484 655.413 94.0941C655.282 94.8341 654.562 95.337 653.794 95.2098C653.365 95.1404 653.026 94.8861 652.824 94.5508C650.782 95.3543 649.336 96.759 648.752 97.4122C648.669 98.0596 648.556 98.7128 648.389 99.3603C648.199 100.1 647.967 100.829 647.693 101.54C647.568 101.869 647.443 102.21 647.27 102.522C647.104 102.823 646.985 103.118 646.717 103.355C646.657 103.407 646.58 103.459 646.508 103.43C646.169 103.314 646.669 102.516 646.735 102.366C646.979 101.794 647.229 101.233 647.467 100.655C647.77 99.9152 647.74 99.0134 647.443 98.2793C647.205 97.6897 646.812 97.181 646.395 96.6492C646.235 96.4411 646.068 96.2272 645.913 96.0075C645.812 96.0133 645.705 96.0075 645.598 95.9902C644.836 95.863 644.318 95.1636 644.449 94.4179C644.58 93.6779 645.3 93.175 646.068 93.3022C646.83 93.4294 647.348 94.1288 647.217 94.8745C647.139 95.337 646.83 95.7012 646.425 95.8861C646.544 96.0422 646.663 96.1983 646.788 96.3601C647.211 96.8977 647.645 97.4585 647.901 98.1059C647.967 98.2735 648.02 98.4469 648.062 98.6203C648.354 97.2157 648.425 95.7879 648.484 94.3947C648.473 94.3658 648.461 94.3311 648.467 94.2965C648.496 93.6548 648.11 93.0768 647.776 92.7068C647.514 92.4178 647.223 92.1634 646.907 91.8975C646.711 91.7299 646.514 91.5622 646.33 91.383C645.419 90.5217 644.741 89.4407 644.342 88.2673C644.104 88.3656 643.836 88.406 643.562 88.3598C642.8 88.2326 642.282 87.5331 642.413 86.7874C642.532 86.0533 643.259 85.5562 644.02 85.6776Z" fill="#95BC8F"/>
<path d="M640.181 108.806C638.842 112.731 636.711 114.349 634.319 117.384C631.646 120.772 630.224 125.558 629.789 129.743C629.307 134.344 630.015 139.015 629.414 143.605C628.194 152.9 621.825 160.681 615.7 167.924C617.516 160.438 620.623 150.854 617.867 143.362C614.492 134.171 619.605 124.864 625.087 117.644C630.497 110.522 625.742 100.563 631.14 93.6605C631.616 93.0477 632.206 92.4755 632.95 92.2327C633.688 91.9899 634.503 92.0939 635.247 92.3252C637.896 93.146 639.83 95.5218 640.574 98.1231C641.693 102.008 641.312 105.493 640.181 108.806Z" fill="#00A82D"/>
<path d="M617.923 160.378C618.06 160.378 618.185 160.302 618.244 160.175C620.357 155.794 622.536 151.256 623.405 146.371C623.911 143.516 623.953 140.567 623.994 137.718C624.048 134.111 624.101 130.382 625.107 126.879C626.054 123.59 627.839 120.532 629.559 117.572C631.327 114.537 633.155 111.399 634.113 107.982C634.863 105.317 635.125 102.375 634.922 98.9876C634.91 98.7969 634.738 98.6408 634.547 98.6639C634.351 98.6755 634.202 98.8373 634.214 99.0281C634.41 102.34 634.155 105.208 633.428 107.803C632.494 111.138 630.684 114.237 628.94 117.237C627.196 120.231 625.393 123.33 624.423 126.7C623.393 130.284 623.334 134.059 623.28 137.712C623.238 140.539 623.197 143.458 622.697 146.261C621.846 151.054 619.685 155.545 617.596 159.892C617.512 160.065 617.59 160.274 617.768 160.354C617.822 160.366 617.875 160.378 617.923 160.378Z" fill="#95BC8F"/>
<path d="M592.82 89.1859C591.897 93.3537 592.695 98.2556 593.153 101.984C594.04 109.216 595.975 116.43 599.909 122.696C602.605 126.985 606.159 130.72 608.796 135.038C615.974 146.801 615.599 161.478 613.319 174.97C613.641 173.051 615.712 170.571 616.563 168.75C617.629 166.473 618.587 164.143 619.432 161.779C620.872 157.761 622.182 153.79 623.724 149.848C626.896 141.726 623.289 129.812 619.349 122.494C615.551 115.441 611.474 109.054 610.581 100.92C610.248 97.851 610.296 94.741 609.73 91.7062C609.165 88.6714 607.897 85.6192 605.445 83.6538C602.992 81.6942 599.171 81.1393 596.629 82.9948C594.493 84.5498 593.362 86.7407 592.82 89.1859Z" fill="#95BC8F"/>
<path d="M606.474 151.75C609.736 154.478 610.438 157.386 611.849 161.189C612.992 164.259 615.432 169.635 614.872 172.936C616.622 162.513 615.991 150.062 608.92 141.587C606.492 138.68 603.534 136.229 600.938 133.466C596.659 128.911 593.361 123.488 591.326 117.644C590.85 116.268 590.421 114.846 589.546 113.673C588.665 112.499 587.207 111.609 585.731 111.84C584.499 112.031 583.517 112.95 582.808 113.95C579.463 118.679 580.85 125.199 583.517 130.321C586.338 135.737 590.445 140.512 595.427 144.177C599.022 146.825 603.057 148.888 606.474 151.75Z" fill="#95BC8F"/>
<path d="M614.299 171.502C614.43 171.502 614.555 171.432 614.615 171.317C616.317 168.132 617.103 164.808 617.698 161.692C617.972 160.253 618.365 158.802 618.745 157.397C619.198 155.726 619.662 153.998 619.948 152.246C621.108 145.05 620.364 138.437 617.793 133.118C616.728 130.916 615.222 128.979 613.769 127.107C612.549 125.534 611.287 123.91 610.317 122.158C608.478 118.84 607.216 114.898 606.669 110.747C606.514 109.568 606.389 108.36 606.27 107.187C606.026 104.765 605.77 102.262 605.192 99.8395C604.032 94.9664 602.454 89.9026 598.83 85.9314C598.699 85.7868 598.472 85.7753 598.324 85.9024C598.175 86.0296 598.163 86.2493 598.294 86.3938C601.812 90.2552 603.353 95.215 604.496 100.001C605.062 102.377 605.311 104.857 605.556 107.262C605.675 108.435 605.8 109.649 605.954 110.84C606.52 115.071 607.805 119.1 609.686 122.494C610.686 124.291 611.96 125.939 613.198 127.534C614.627 129.378 616.109 131.28 617.144 133.419C619.656 138.61 620.382 145.084 619.239 152.142C618.96 153.859 618.501 155.57 618.055 157.224C617.674 158.64 617.275 160.102 616.996 161.565C616.412 164.628 615.638 167.895 613.978 170.999C613.889 171.166 613.954 171.38 614.133 171.467C614.186 171.49 614.24 171.502 614.299 171.502Z" fill="#00A82D"/>
<path d="M614.636 171.472C614.802 171.472 614.957 171.357 614.987 171.189C616.243 164.582 615.356 158.177 612.481 153.16C609.886 148.633 605.743 145.229 601.737 141.928C599.392 139.997 596.964 138.003 594.869 135.8C590.059 130.742 586.696 124.135 585.393 117.198C585.357 117.008 585.167 116.886 584.976 116.921C584.78 116.956 584.655 117.135 584.691 117.326C586.018 124.389 589.446 131.118 594.345 136.274C596.464 138.506 598.91 140.517 601.273 142.46C605.231 145.714 609.326 149.078 611.856 153.495C614.654 158.368 615.511 164.605 614.285 171.056C614.249 171.247 614.374 171.426 614.57 171.461C614.594 171.473 614.612 171.472 614.636 171.472Z" fill="#00A82D"/>
<path d="M592.022 75.8043C592.016 75.8101 592.016 75.8159 592.016 75.8216C591.623 76.5211 591.32 77.2842 591.022 78.0241C590.605 79.0646 590.177 80.1398 589.498 81.082C588.141 82.9723 586.201 83.8509 584.32 84.7007C583.362 85.1342 582.368 85.5851 581.469 86.1689C581.35 86.2441 581.177 86.3424 580.975 86.4522C580.618 86.6487 580.017 86.984 579.749 87.2383C579.546 87.6025 579.344 87.9667 579.136 88.3367C579.136 88.3424 579.136 88.354 579.13 88.3598C579.118 88.4465 579.07 88.5216 578.999 88.5737C578.064 90.2558 577.142 91.9727 576.249 93.7184C577.398 92.7357 578.898 91.9553 580.82 91.3484C581.701 91.0709 582.612 90.8397 583.487 90.6142C585.272 90.1576 587.123 89.6893 588.742 88.8222C588.855 88.7644 588.992 88.7702 589.099 88.8396C589.207 88.9089 589.26 89.0303 589.242 89.1575C588.974 91.1287 587.355 92.5276 585.719 93.782C583.254 95.678 580.796 97.3949 577.862 97.5452C577.046 97.5856 576.225 97.5683 575.433 97.5452C575.076 97.5336 574.719 97.5278 574.368 97.5278C573.142 100.135 572.011 102.8 571.053 105.505C571.541 104.655 572.076 103.829 572.785 103.141C573.987 101.973 575.457 101.002 577.148 100.256C580.249 98.892 583.719 98.4065 586.736 98.0596C586.921 98.0423 587.094 98.1695 587.111 98.3487C587.129 98.499 587.04 98.6377 586.903 98.6955C586.736 98.8458 586.278 99.5684 586.058 99.921C585.844 100.262 585.719 100.453 585.641 100.551C585.123 101.175 584.552 101.771 583.939 102.326C582.695 103.459 581.284 104.424 579.761 105.193C578.225 105.968 576.6 106.528 574.939 106.858C574.547 106.939 574.172 106.996 573.808 107.06C572.547 107.268 571.457 107.447 570.285 108.216C570.243 108.245 570.195 108.257 570.148 108.262C569.707 109.696 569.326 111.135 569.005 112.586C570.695 112.245 572.433 112.216 574.445 112.517C576.344 112.8 578.136 113.534 579.636 114.627C580.6 115.332 582.195 116.806 582.088 118.76C582.082 118.864 582.028 118.962 581.939 119.02C581.868 119.066 581.63 119.061 581.29 119.02C579.88 118.841 576.737 118.055 576.701 118.043C575.017 117.534 573.374 116.87 571.82 116.072C570.57 115.425 569.576 114.598 568.749 113.818C567.547 119.939 567.493 126.228 569.356 132.558C569.41 132.732 569.303 132.917 569.124 132.969C569.076 132.98 569.035 132.986 568.987 132.98C568.856 132.963 568.743 132.876 568.701 132.743C566.243 124.361 567.059 116.089 569.475 108.158C568.922 108.933 568.291 109.742 567.463 110.338C566.696 110.893 565.725 111.291 564.422 111.598C562.416 112.066 560.339 112.17 558.327 112.274C558.309 112.274 558.285 112.274 558.267 112.274C558.16 112.263 558.059 112.199 558.011 112.101C557.952 111.985 557.964 111.846 558.041 111.748C559.619 109.754 561.488 108.008 563.612 106.563C564.47 105.979 565.487 105.384 566.612 105.274C565.225 103.985 564.059 102.511 563.386 100.511C562.577 98.1174 562.505 95.2965 563.16 91.8975C563.178 91.805 563.231 91.7241 563.315 91.6779C563.398 91.6316 563.493 91.6143 563.589 91.6432C564.874 92.0073 565.708 93.0941 566.452 94.1808C567.6 95.863 568.791 97.6781 569.559 99.7013C570.326 101.73 570.285 103.846 570.219 105.898C571.291 102.794 572.582 99.7476 573.999 96.7706C573.725 96.7359 573.451 96.6029 573.237 96.4815C572.279 95.9439 571.487 95.2098 570.773 94.493C569.832 93.5508 568.666 92.2675 567.94 90.7298C567.386 89.5564 567.112 88.3135 566.874 86.8048C566.565 84.8914 566.356 82.9376 566.255 81.0011C566.249 80.8566 566.339 80.7236 566.475 80.6774C566.612 80.6253 566.767 80.6658 566.862 80.7814L570.511 85.2036C571.416 86.2961 572.344 87.4291 573.076 88.6835C574.16 90.5391 574.779 92.6605 574.868 94.8167L574.874 94.967C576.011 92.6779 577.213 90.4292 578.427 88.2384C578.106 86.9609 577.404 85.984 576.665 84.9608C576.439 84.6486 576.207 84.3307 575.981 83.9954C574.91 82.4115 574.231 80.6427 574.023 78.8796C573.719 76.3361 574.404 73.7464 575.005 71.4573C575.041 71.3128 575.177 71.2087 575.332 71.2087C575.481 71.203 575.624 71.3128 575.66 71.4573C576.005 72.7406 576.665 73.9487 577.302 75.1222C577.773 75.9893 578.261 76.8795 578.636 77.816C579.255 79.3825 579.588 81.1282 579.653 83.163C579.683 84.1688 579.582 85.1805 579.451 86.1689C579.88 85.2787 580.338 84.3943 580.832 83.533C581.255 82.4405 581.576 81.371 581.897 80.2669C582.046 79.7525 582.207 79.2264 582.374 78.6946C582.374 78.0992 582.391 77.5096 582.421 76.9373C582.481 75.7003 582.534 74.5384 582.35 73.3071C582.255 72.6539 582.082 71.9949 581.915 71.3533C581.707 70.5497 581.493 69.7231 581.409 68.8734C581.32 68.0063 581.368 67.1912 581.546 66.3761C581.79 65.2721 582.189 64.1275 582.766 62.8731C583.004 62.3528 583.278 61.8095 583.606 61.2083C583.659 61.1158 583.754 60.9771 583.862 60.8152C584.004 60.6129 584.296 60.1967 584.308 60.058C584.296 59.8788 584.439 59.7227 584.623 59.7111C584.814 59.7053 584.975 59.8441 584.987 60.0233C585.076 61.295 585.379 62.5725 585.671 63.8038C585.879 64.6824 586.094 65.59 586.236 66.4976C586.814 70.2549 586.397 73.2551 584.915 75.9315C584.737 76.261 584.54 76.5847 584.344 76.9026C583.802 77.7986 583.29 78.6484 583.058 79.5964C583.022 79.7409 582.891 79.8392 582.737 79.845C582.677 80.0415 582.618 80.2496 582.558 80.4461C582.504 80.6369 582.445 80.8277 582.391 81.0184C582.725 80.5271 583.07 80.0704 583.463 79.6368C584.147 78.8796 584.879 78.29 585.701 77.8391C586.552 77.3709 587.427 77.1281 588.278 76.8968C588.635 76.7986 588.998 76.7003 589.361 76.5789C589.968 76.3824 591.278 75.7465 591.421 75.5095C591.51 75.3477 591.718 75.2898 591.885 75.3765C592.034 75.4575 592.099 75.6482 592.022 75.8043ZM574.344 113.182C572.6 112.916 571.076 112.922 569.606 113.159C572.053 113.419 574.308 114.5 576.487 115.552C577.624 116.101 578.802 116.673 579.993 117.113C580.124 117.159 580.189 117.303 580.142 117.43C580.1 117.54 579.987 117.604 579.868 117.586C579.85 117.586 579.826 117.581 579.808 117.569C578.594 117.118 577.409 116.546 576.255 115.991C574.118 114.956 571.904 113.904 569.547 113.65C570.273 114.309 571.118 114.968 572.136 115.494C573.654 116.274 575.255 116.922 576.898 117.419C577.32 117.546 580.386 118.222 581.403 118.396C581.29 116.847 579.862 115.633 579.225 115.164C577.826 114.135 576.136 113.448 574.344 113.182ZM583.016 73.203C583.201 74.4285 583.153 75.6193 583.1 76.7697C583.677 74.8563 584.016 73.0181 584.088 71.3012C584.118 70.5093 583.975 69.7058 583.832 68.9254C583.6 67.671 583.362 66.3761 583.82 65.0408C583.862 64.9079 584.01 64.8385 584.141 64.8848C584.278 64.9252 584.35 65.0697 584.302 65.1969C583.885 66.4166 584.1 67.5959 584.332 68.8387C584.481 69.6422 584.635 70.4804 584.6 71.3243C584.528 73.0296 584.207 74.8447 583.653 76.7292C583.683 76.6772 583.719 76.6194 583.748 76.5616C583.939 76.2436 584.129 75.9315 584.308 75.6078C585.719 73.0643 586.117 70.1971 585.558 66.5843C585.421 65.6998 585.207 64.8038 585.004 63.9425C584.79 63.035 584.57 62.1043 584.427 61.162C584.427 61.1678 584.421 61.1678 584.421 61.1736C584.332 61.3066 584.248 61.4222 584.201 61.5031C583.885 62.0927 583.612 62.6245 583.379 63.1332C582.826 64.3472 582.439 65.4455 582.207 66.5033C582.04 67.249 581.999 68.0005 582.082 68.7982C582.159 69.5959 582.368 70.4052 582.57 71.1798C582.743 71.8388 582.915 72.5151 583.016 73.203ZM577.219 84.5793C577.523 84.9955 577.808 85.4001 578.082 85.8221C577.814 84.0012 577.386 82.4578 576.725 80.9606C576.005 79.3305 575.338 77.5905 575.689 75.8679C575.719 75.7349 575.856 75.6482 575.987 75.6714C576.124 75.7003 576.213 75.8274 576.189 75.9604C575.862 77.5443 576.481 79.1339 577.195 80.7583C577.975 82.5387 578.445 84.3712 578.701 86.6256C578.868 85.4868 579.011 84.3191 578.975 83.1688C578.909 81.2092 578.594 79.5328 577.999 78.0356C577.642 77.1396 577.165 76.261 576.701 75.4112C576.225 74.5441 575.743 73.6539 575.368 72.7117C574.88 74.6482 574.451 76.7523 574.689 78.7813C574.886 80.4404 575.529 82.1109 576.54 83.6081C576.767 83.955 576.993 84.2671 577.219 84.5793ZM573.57 95.9035C573.672 95.9613 573.749 95.996 573.814 96.0249C573.529 95.4815 573.261 94.9266 573.011 94.389C572.576 93.4525 572.13 92.4813 571.535 91.5969L571.16 91.042C570.303 89.7934 569.416 88.5043 569.124 86.9724C569.1 86.8395 569.19 86.7065 569.332 86.6834C569.469 86.6603 569.606 86.747 569.63 86.8799C569.898 88.3078 570.755 89.5564 571.588 90.7645L571.969 91.3195C572.588 92.2328 573.047 93.2213 573.487 94.1808C573.719 94.6838 573.963 95.1924 574.225 95.6954C574.231 95.493 574.219 95.2618 574.207 95.0884L574.195 94.8341C574.106 92.7819 573.517 90.7645 572.487 89.0014C571.785 87.7933 570.868 86.6834 569.981 85.6082L567.005 82.0011C567.118 83.5734 567.303 85.1515 567.553 86.7007C567.785 88.1517 568.047 89.3425 568.565 90.4524C569.243 91.8975 570.362 93.123 571.267 94.0305C571.939 94.7127 572.683 95.4121 573.57 95.9035ZM569.041 106.418C567.648 103.586 566.469 100.638 565.559 97.6319C565.517 97.4989 565.594 97.366 565.731 97.3255C565.868 97.285 566.011 97.3602 566.047 97.4931C566.952 100.493 568.13 103.43 569.523 106.257C569.523 106.21 569.523 106.164 569.529 106.118C569.6 103.956 569.666 101.915 568.922 99.9326C568.184 97.9729 567.017 96.1983 565.892 94.5508C565.297 93.6837 564.642 92.8108 563.761 92.412C563.208 95.5219 563.297 98.1117 564.035 100.308C564.952 103.031 566.886 104.759 569.041 106.418ZM569.124 107.494C566.844 107.754 564.654 108.528 562.737 109.76C562.684 109.794 562.624 109.806 562.565 109.8C562.493 109.788 562.428 109.754 562.386 109.69C562.309 109.575 562.339 109.424 562.458 109.349C564.356 108.135 566.511 107.349 568.761 107.048C568.35 106.731 567.946 106.413 567.547 106.089C567.422 106.1 567.291 106.048 567.219 105.939C567.208 105.933 567.16 105.91 567.035 105.91C565.928 105.892 564.88 106.499 563.999 107.1C562.142 108.366 560.476 109.875 559.041 111.58C560.785 111.488 562.559 111.355 564.261 110.962C565.475 110.679 566.362 110.315 567.059 109.817C567.904 109.205 568.529 108.343 569.124 107.494ZM571.368 106.355C574.023 104.308 577.082 102.725 580.308 101.742C580.439 101.701 580.588 101.771 580.63 101.904C580.671 102.037 580.594 102.175 580.463 102.216C577.201 103.204 574.118 104.829 571.457 106.927C572.201 106.673 572.945 106.54 573.707 106.413C574.064 106.355 574.427 106.291 574.814 106.216C576.415 105.898 577.981 105.355 579.457 104.609C580.933 103.863 582.284 102.933 583.487 101.84C584.076 101.308 584.623 100.73 585.123 100.135C585.177 100.066 585.338 99.8169 585.492 99.5742C585.689 99.262 585.85 99.0134 585.981 98.8169C583.225 99.1522 580.171 99.6551 577.439 100.857C575.82 101.568 574.421 102.493 573.273 103.609C572.493 104.378 571.91 105.361 571.368 106.355ZM576.1 94.782C575.802 95.0942 575.57 95.4526 575.35 95.8225C575.838 95.5508 576.374 95.3485 576.915 95.1751C577.57 94.967 578.237 94.782 578.903 94.597C581.1 93.9785 583.368 93.3427 585.153 91.9842C585.266 91.8975 585.427 91.9206 585.51 92.0247C585.6 92.1345 585.576 92.2906 585.469 92.3715C583.606 93.7878 581.284 94.441 579.046 95.0653C578.386 95.2503 577.725 95.4352 577.076 95.6433C576.279 95.8977 575.392 96.2272 574.802 96.8631C575.023 96.8688 575.249 96.8746 575.469 96.8804C576.249 96.8977 577.058 96.9209 577.844 96.8804C580.576 96.7359 582.939 95.0884 585.314 93.2617C586.641 92.2386 587.957 91.1287 588.433 89.724C586.915 90.4235 585.272 90.8454 583.677 91.2501C582.808 91.4697 581.909 91.701 581.046 91.9727C578.844 92.6721 577.231 93.5854 576.1 94.782ZM590.849 76.6541C590.278 76.9431 589.695 77.1628 589.564 77.2032C589.189 77.3246 588.82 77.4287 588.451 77.5269C587.605 77.7639 586.802 77.9836 586.022 78.4114C585.266 78.8276 584.594 79.3709 583.963 80.0704C583.183 80.9375 582.57 81.9144 581.856 83.1052C581.713 83.348 581.576 83.5966 581.433 83.8394C581.29 84.2035 581.136 84.5735 580.963 84.9434C581.439 84.5041 581.969 84.111 582.487 83.7237L582.713 83.5503C584.576 82.1572 586.35 80.6195 587.98 78.9836C588.082 78.8854 588.242 78.8854 588.344 78.9779C588.445 79.0761 588.445 79.2322 588.349 79.3305C586.695 80.9837 584.909 82.5387 583.028 83.9434L582.802 84.111C582.13 84.614 581.445 85.1226 580.897 85.7296C580.969 85.6891 581.034 85.6487 581.088 85.614C582.028 85.007 583.046 84.5446 584.028 84.0995C585.909 83.2497 587.683 82.4404 588.933 80.7005C589.564 79.8218 589.963 78.8276 590.379 77.7813C590.534 77.4113 590.689 77.0298 590.849 76.6541Z" fill="#95BC8F"/>
<path d="M769.232 106.795C768.684 109.853 768.821 112.569 768.833 115.645C769.464 114.83 769.833 113.887 770.482 113.101C771.232 112.182 772.113 111.373 772.851 110.436C774.303 108.575 775.511 106.523 776.351 104.326C777.803 100.528 778.136 96.2854 776.958 92.4009C773.743 96.8635 770.458 101.476 769.232 106.795Z" fill="#6F9969"/>
<path d="M763.541 118.778C763.583 118.882 763.618 118.986 763.66 119.09C764.624 121.546 765.731 124.061 765.601 126.691C766.309 124.813 767.124 123.223 767.356 121.223C767.594 119.153 767.648 117.061 767.291 115.003C766.975 113.176 766.398 111.39 765.577 109.714C765.267 109.078 762.601 105.817 762.702 105.43C761.553 109.939 761.898 114.425 763.541 118.778Z" fill="#6F9969"/>
<path d="M772.438 116.749C775.319 114.304 778.991 112.61 781.074 109.5C779.604 114.656 776.229 119.5 771.241 121.772C768.432 123.05 766.396 124.437 764.974 127.252C766.462 123.345 769.2 119.495 772.438 116.749Z" fill="#6F9969"/>
<path d="M776.867 121.021C776.742 122.276 775.897 123.767 775.403 124.929C774.814 126.311 774.522 127.843 773.594 129.068C772.552 130.455 770.873 131.213 769.326 132.039C764.915 134.392 760.279 137.392 758.392 142.213C762.159 133.484 768.873 126.351 776.867 121.021Z" fill="#6F9969"/>
<path d="M756.416 122.061C754.589 125.599 754.065 129.726 754.815 133.611C755.125 135.218 755.559 136.807 755.892 138.403C756.083 139.328 756.529 140.212 756.88 141.085C757.095 141.617 758.095 143.241 757.958 143.761C759.16 140.021 759.541 136.108 759.202 132.206C759.053 130.489 758.642 128.824 758.148 127.165C757.904 126.35 756.077 122.714 756.416 122.061Z" fill="#6F9969"/>
<path d="M785.141 124.188C784.456 126.686 784.337 129.333 783.385 131.744C782.563 133.831 781.099 135.669 779.266 137.01C778.337 137.692 777.575 137.906 776.516 138.206C775.159 138.6 774.01 139.368 772.784 140.016C776.135 134.276 781.432 129.715 785.141 124.188Z" fill="#6F9969"/>
<path d="M769.881 113.737C768.78 118.049 767.673 122.39 765.763 126.443C764.781 128.524 763.596 130.506 762.572 132.564C761.59 134.541 760.757 136.582 760.025 138.657C758.519 142.906 757.102 147.27 756.823 151.779C756.549 156.178 757.007 160.577 756.852 164.976C756.698 169.427 755.912 173.977 753.358 177.763C753.085 178.173 752.448 177.728 752.721 177.318C757.584 170.098 755.698 160.959 755.983 152.86C756.061 150.6 756.311 148.351 756.882 146.154C757.442 144.004 758.114 141.865 758.816 139.755C759.513 137.669 760.293 135.605 761.209 133.605C762.144 131.57 763.269 129.634 764.298 127.645C766.62 123.159 767.911 118.321 769.149 113.465C769.268 112.991 770.001 113.269 769.881 113.737Z" fill="#6F9969"/>
<path d="M755.891 154.663C754.724 152.843 753.218 151.253 751.873 149.559C751.177 148.681 750.51 147.767 749.933 146.808C749.296 145.756 748.79 144.634 748.314 143.507C746.355 138.894 745.445 133.975 744.6 129.078C744.129 126.344 743.665 123.604 743.004 120.899C742.885 120.419 743.665 120.292 743.778 120.772C744.945 125.558 745.498 130.46 746.57 135.269C747.617 139.969 749.147 144.761 752.147 148.652C753.617 150.559 755.301 152.316 756.605 154.345C756.873 154.762 756.159 155.08 755.891 154.663Z" fill="#6F9969"/>
<path d="M756.206 161.473C756.623 159.369 757.046 157.236 757.909 155.253C758.796 153.224 760.224 151.588 761.694 149.946C763.153 148.316 764.623 146.692 766.266 145.235C767.974 143.72 769.95 142.541 771.7 141.085C773.521 139.57 775.045 137.726 776.182 135.674C776.42 135.246 777.152 135.512 776.914 135.946C775.932 137.72 774.706 139.333 773.23 140.749C771.622 142.293 769.7 143.443 767.956 144.819C766.218 146.189 764.688 147.778 763.212 149.409C761.742 151.033 760.135 152.652 759.099 154.576C757.939 156.744 757.456 159.172 756.986 161.548C756.897 162.022 756.111 161.952 756.206 161.473Z" fill="#6F9969"/>
<path d="M778.246 142.958C777.371 143.918 776.502 144.877 775.627 145.837C774.55 147.022 773.383 148.259 771.818 148.687C771.145 148.872 770.443 148.889 769.74 148.883C768.669 148.872 767.562 148.571 766.526 148.565C765.336 148.559 763.979 149.143 762.83 149.438C763.955 149.149 764.979 146.929 765.907 146.23C766.723 145.611 767.782 145.421 768.735 145.068C771.812 143.935 774.937 143.143 778.246 142.958Z" fill="#6F9969"/>
<path d="M762.446 143.085C761.6 144.455 760.571 146.039 760.297 147.623C760.059 148.993 760.648 151.166 760.077 152.421C761.315 149.715 762.856 147.143 764.666 144.756C765.666 143.432 766.791 142.097 767.368 140.536C767.648 139.779 767.719 139.027 767.779 138.235C767.802 137.917 767.666 136.403 767.82 136.247C765.779 138.328 763.969 140.623 762.446 143.085Z" fill="#6F9969"/>
<path d="M741.779 108.969C742.13 109.414 741.338 112.882 741.332 113.622C741.326 115.264 741.475 116.906 741.779 118.524C742.356 121.617 743.677 124.443 744.219 127.553C744.564 122.842 746.796 118.599 744.904 113.836C744.195 112.044 742.975 110.495 741.779 108.969Z" fill="#6F9969"/>
<path d="M751.711 128.818C751.402 130.495 750.8 132.593 749.568 133.871C748.318 135.171 747.348 135.963 746.574 137.721C746.295 131.188 748.586 124.841 750.854 118.685C750.622 119.309 751.199 120.078 751.378 120.616C751.646 121.419 751.759 122.257 751.848 123.107C752.056 125.003 752.062 126.934 751.711 128.818Z" fill="#6F9969"/>
<path d="M737.14 129.084C738.015 132.206 739.556 135.143 741.604 137.686C742.639 138.969 743.818 140.079 745.05 141.183C745.574 141.657 745.913 142.212 746.502 142.623C746.895 142.894 747.3 143.149 747.717 143.391C747.901 143.501 748.806 143.854 748.859 144.022C747.383 139.316 744.735 135.408 741.116 131.963C739.925 130.836 738.693 129.674 737.14 129.084Z" fill="#6F9969"/>
<path d="M696.088 174.711C705.647 177.145 715.254 179.388 723.194 184.937C723.522 178.283 728.045 172.341 731.17 166.612C734.361 160.745 737.396 154.733 739.075 148.271C740.086 144.392 740.378 139.721 737.414 136.941C735.807 135.438 733.396 134.796 731.224 135.299C729.057 135.802 727.2 137.432 726.468 139.478C727.123 135.657 728.254 131.703 727.956 127.825C727.897 127.021 727.766 126.166 727.23 125.553C726.45 124.663 725.01 124.576 723.897 125.033C722.79 125.489 721.932 126.368 721.111 127.223C723.718 122.767 725.337 117.425 723.903 112.489C722.813 108.743 718.837 104.35 714.463 104.488C709.665 104.639 705.802 108.436 704.058 112.5C703.445 104.922 699.314 97.673 693.023 93.1525C690.589 91.401 687.357 90.0194 684.589 91.2218C681.964 92.3664 680.827 95.3723 680.404 98.1354C679.369 104.899 681.089 112.02 685.113 117.628C683 115.726 676.696 112.662 675.202 116.552C674.726 117.784 674.899 119.165 675.238 120.437C676.893 126.68 682.095 131.345 687.053 135.634C685.839 134.929 684.565 134.212 683.154 134.114C681.744 134.016 680.16 134.75 679.821 136.085C679.625 136.848 679.857 137.646 680.119 138.392C681.839 143.236 685.053 147.571 689.237 150.693C687.077 149.08 680.113 145.901 679.994 150.508C679.893 154.438 683.916 159.231 686.916 161.41C685.363 161.121 683.755 160.826 682.202 161.127C675.863 162.352 680.089 168.081 683.107 170.329C686.624 172.96 691.898 173.642 696.088 174.711Z" fill="#00A82D"/>
<path d="M680.423 122.298C689.185 126.524 697.202 132.148 704.071 138.912C705.357 140.178 706.595 141.484 707.797 142.825C705.654 137.912 703.404 133.039 701.089 128.2C698.833 123.489 696.518 118.813 694.184 114.142C694.071 114.159 693.94 114.13 693.827 114.026C690.191 110.87 686.982 107.269 684.31 103.303C683.959 102.777 684.756 102.188 685.107 102.714C687.417 106.136 690.119 109.292 693.167 112.113C692.405 110.592 691.637 109.072 690.869 107.552C690.583 106.985 691.518 106.621 691.798 107.182C694.149 111.847 696.5 116.518 698.803 121.206C697.869 114.714 696.184 108.344 693.774 102.211C693.542 101.627 694.47 101.257 694.702 101.841C697.506 108.968 699.345 116.425 700.172 124.015C702.523 128.853 704.821 133.721 707.023 138.623C707.589 135.01 708.321 131.426 709.22 127.882C709.315 124.628 708.714 121.379 707.464 118.356C707.226 117.772 708.154 117.402 708.392 117.986C709.279 120.125 709.839 122.368 710.083 124.639C711.356 120.142 712.892 115.708 714.69 111.379C714.934 110.795 715.85 111.182 715.612 111.766C713.416 117.061 711.618 122.501 710.214 128.038C710.208 128.148 710.214 128.258 710.208 128.368C710.202 128.518 710.136 128.628 710.041 128.692C709.38 131.351 708.827 134.039 708.356 136.738C710.6 132.339 714.076 128.599 717.475 124.992C717.91 124.53 718.701 125.131 718.267 125.593C714.166 129.94 709.958 134.461 707.982 140.149C707.946 140.259 707.88 140.322 707.809 140.368C708.428 141.756 709.035 143.149 709.636 144.548C713.082 152.577 716.219 160.745 718.856 169.063C719.374 166.543 720.118 164.086 721.017 161.676C721.939 156.739 722.04 151.704 721.32 146.739C721.231 146.114 722.225 145.999 722.32 146.623C722.862 150.363 722.939 154.149 722.57 157.901C724.63 153.282 727.159 148.837 729.701 144.49C730.016 143.952 730.939 144.334 730.623 144.877C728.278 148.895 725.927 152.999 723.963 157.242C726.874 154.803 729.963 152.583 733.236 150.629C733.784 150.305 734.391 151.08 733.844 151.404C729.993 153.704 726.38 156.346 723.046 159.306C723.046 159.306 723.04 159.306 723.04 159.311C721.415 163.115 720.148 167.046 719.505 171.139C720.689 175.023 721.779 178.937 722.713 182.89C724.481 190.365 725.737 197.949 726.374 205.597C726.427 206.221 725.427 206.342 725.374 205.712C724.403 194.018 721.951 182.509 718.517 171.277C718.517 171.271 718.511 171.266 718.511 171.266C717.582 168.953 715.862 167.011 714.178 165.179C712.41 163.26 710.577 161.404 708.66 159.624C708.487 159.462 708.309 159.311 708.136 159.155C707.743 159.271 707.452 159.595 707.112 159.809C706.773 160.022 706.404 160.19 706.053 160.392C705.232 160.855 704.422 161.329 703.619 161.814C701.982 162.803 700.375 163.832 698.791 164.901C698.262 165.26 697.655 164.485 698.184 164.127C699.875 162.988 701.595 161.89 703.345 160.843C704.178 160.346 705.017 159.843 705.874 159.381C706.166 159.225 706.446 159.028 706.726 158.843C702.166 158.34 697.655 159.878 693.113 160.144C692.47 160.184 692.345 159.213 692.994 159.178C697.565 158.907 702.089 157.398 706.684 157.86C703.452 155.011 700.047 152.346 696.47 149.918C693.946 148.207 691.345 146.611 688.679 145.126C688.125 144.819 688.518 143.918 689.078 144.23C698.547 149.49 707.118 156.173 714.446 164.017C715.392 165.028 716.35 166.069 717.213 167.173C717.088 166.786 716.963 166.398 716.832 166.011C714.523 159.103 711.868 152.317 709.011 145.611C708.94 145.582 708.868 145.542 708.809 145.467C707.035 143.369 705.154 141.363 703.184 139.438C703.095 139.455 703 139.449 702.898 139.397C700.988 138.426 698.827 138.368 696.714 138.322C694.19 138.27 691.673 138.224 689.149 138.172C688.506 138.16 688.661 137.195 689.298 137.206C691.893 137.258 694.488 137.305 697.089 137.357C698.583 137.391 700.101 137.467 701.541 137.842C697.184 133.802 692.405 130.195 687.28 127.102C684.935 125.686 682.512 124.385 680.036 123.188C679.447 122.917 679.846 122.021 680.423 122.298Z" fill="#008855"/>
<path d="M665.106 105.782C663.993 107.505 662.69 109.1 661.202 110.534C660.976 110.753 660.529 110.667 660.458 110.343C659.809 107.401 658.833 104.354 659.773 101.366C659.94 100.834 660.803 101.059 660.636 101.597C659.744 104.429 660.708 107.331 661.321 110.112C661.071 110.048 660.821 109.985 660.577 109.921C662.011 108.534 663.267 107.008 664.339 105.343C664.636 104.869 665.41 105.302 665.106 105.782Z" fill="white"/>
<path d="M664.445 127.61C667.915 123.581 670.367 118.142 669.427 112.945C668.808 109.511 668.087 106.106 667.599 102.598C667.32 100.569 667.04 98.5338 666.76 96.5048C666.623 95.5047 665.617 92.3659 666.076 91.5161C661.754 99.5338 652.6 103.69 647.892 111.581C643.309 119.257 644.273 131.067 644.07 139.79C650.624 137.137 657.332 134.385 662.48 129.639C663.159 129.015 663.82 128.339 664.445 127.61Z" fill="#6F9969"/>
<path d="M664.135 100.071C663.206 102.476 662.456 104.938 661.825 107.436C661.206 109.858 660.802 112.349 660.111 114.748C659.486 116.922 658.474 118.956 657.32 120.91C656.522 122.269 655.659 123.587 654.826 124.922C654.409 125.593 653.98 126.252 653.516 126.887C648.433 133.865 642.154 139.928 637.124 146.946C634.267 150.935 631.85 155.235 630.398 159.9C630.291 160.241 629.737 160.126 629.839 159.785C632.434 151.455 637.963 144.536 643.636 137.957C646.505 134.628 649.433 131.344 652.094 127.853C652.992 126.674 653.814 125.448 654.6 124.205C656.248 121.587 658.004 118.945 659.087 116.02C659.575 114.713 659.861 113.361 660.159 112.002C660.462 110.632 660.772 109.268 661.105 107.91C661.784 105.17 662.593 102.459 663.617 99.8168C663.76 99.4873 664.266 99.7417 664.135 100.071Z" fill="#008855"/>
<path d="M655.756 131.535C652.369 133.027 648.976 134.512 645.589 136.004C645.399 136.091 645.161 135.877 645.22 135.686C646.703 130.911 647.685 126.003 648.137 121.038C648.167 120.685 648.726 120.801 648.697 121.153C648.244 126.119 647.262 131.027 645.78 135.802C645.655 135.697 645.536 135.588 645.411 135.484C648.798 133.998 652.19 132.507 655.577 131.021C655.91 130.859 656.089 131.385 655.756 131.535Z" fill="#008855"/>
<path d="M662.019 122.604C659.102 125.003 655.739 126.858 652.126 128.066C651.93 128.13 651.698 127.951 651.757 127.749C653.204 122.748 653.805 117.546 653.531 112.355C653.513 111.996 654.079 111.968 654.103 112.32C654.382 117.557 653.775 122.812 652.317 127.858C652.192 127.754 652.073 127.645 651.948 127.54C655.519 126.344 658.823 124.506 661.709 122.136C661.989 121.91 662.299 122.373 662.019 122.604Z" fill="#008855"/>
<path d="M666.239 110.465C665.721 112.28 664.733 113.98 663.34 115.304C662.043 116.535 660.251 117.09 658.597 117.703C658.412 117.772 658.222 117.639 658.222 117.454C658.234 113.275 657.835 109.101 657.007 105.003C656.936 104.656 657.478 104.482 657.549 104.829C658.388 108.98 658.805 113.194 658.793 117.425C658.668 117.344 658.543 117.263 658.418 117.177C659.977 116.604 661.698 116.09 662.924 114.934C664.245 113.685 665.198 112.078 665.686 110.355C665.775 110.009 666.334 110.118 666.239 110.465Z" fill="#008855"/>
<path d="M678.07 143.986C672.196 149.397 662.636 153.536 654.393 152.42C651.524 152.033 648.804 151.004 646.125 149.981C643.673 149.044 641.239 147.94 638.661 147.483C639.096 147.559 640.096 145.9 640.322 145.605C640.929 144.813 641.5 143.986 642.131 143.212C643.375 141.68 644.78 140.24 646.399 139.078C649.363 136.945 654.411 136.679 657.994 136.916C665.154 137.385 671.785 140.61 678.07 143.986Z" fill="#6F9969"/>
<path d="M634.908 148.987C638.735 146.958 642.741 145.212 646.937 144.044C649.091 143.443 651.324 142.964 653.544 142.651C655.782 142.333 658.049 142.305 660.305 142.357C662.93 142.414 665.549 142.576 668.174 142.553C668.537 142.553 668.573 143.102 668.21 143.108C663.668 143.143 659.115 142.611 654.585 143.085C652.401 143.316 650.205 143.773 648.086 144.316C645.967 144.86 643.889 145.553 641.86 146.362C639.586 147.264 637.384 148.316 635.229 149.455C634.896 149.623 634.586 149.16 634.908 148.987Z" fill="#008855"/>
<path d="M666.724 140.715C664.397 141.206 662.118 141.888 659.903 142.749C659.915 142.582 659.933 142.408 659.945 142.241C662.921 143.518 665.742 145.096 668.385 146.934C668.683 147.143 668.296 147.547 668.004 147.345C665.403 145.536 662.612 143.992 659.683 142.732C659.445 142.628 659.516 142.304 659.725 142.223C661.933 141.362 664.213 140.68 666.546 140.188C666.897 140.113 667.082 140.639 666.724 140.715Z" fill="#008855"/>
<path d="M660.505 148.345C658.172 146.113 655.356 144.402 652.261 143.356C652.065 143.292 651.952 143.067 652.112 142.899C653.761 141.142 655.767 139.749 657.999 138.778C658.332 138.633 658.511 139.159 658.178 139.304C656.029 140.235 654.112 141.587 652.529 143.269C652.481 143.119 652.428 142.963 652.38 142.813C655.571 143.888 658.481 145.628 660.892 147.934C661.148 148.183 660.767 148.593 660.505 148.345Z" fill="#008855"/>
<path d="M655.388 150.218C653.662 148.756 651.662 147.732 649.478 147.073C647.52 146.49 645.442 145.871 643.371 146.2C643.103 146.241 643.008 145.906 643.145 145.738C644.425 144.114 645.895 142.547 647.43 141.148C648.77 139.923 650.365 139.004 652.103 138.437C652.448 138.327 652.627 138.842 652.293 138.957C650.799 139.489 649.341 140.102 648.204 141.177C646.579 142.715 644.96 144.345 643.567 146.108C643.49 145.952 643.419 145.802 643.341 145.646C645.502 145.304 647.692 145.958 649.74 146.576C651.966 147.247 654.013 148.316 655.769 149.808C656.049 150.045 655.668 150.455 655.388 150.218Z" fill="#008855"/>
<path d="M637.222 132.796C636.853 134.466 637.954 136.114 639.674 136.472C641.395 136.831 643.091 135.761 643.46 134.091C643.829 132.42 642.728 130.773 641.008 130.414C639.282 130.056 637.585 131.119 637.222 132.796Z" fill="#00A82D"/>
<path d="M640.207 141.617C639.837 143.287 640.939 144.935 642.659 145.293C644.379 145.652 646.075 144.582 646.444 142.912C646.813 141.241 645.712 139.594 643.992 139.235C642.266 138.871 640.576 139.94 640.207 141.617Z" fill="#00A82D"/>
<path d="M628.199 135.963C627.83 137.633 628.931 139.281 630.651 139.639C632.371 139.997 634.068 138.928 634.437 137.257C634.806 135.587 633.704 133.939 631.984 133.581C630.258 133.223 628.568 134.292 628.199 135.963Z" fill="#00A82D"/>
<path d="M631.066 145.992C630.697 147.662 631.798 149.31 633.518 149.668C635.238 150.027 636.935 148.957 637.304 147.287C637.673 145.616 636.572 143.969 634.851 143.61C633.131 143.252 631.435 144.321 631.066 145.992Z" fill="#00A82D"/>
<path d="M828.65 121.321C829.597 123.911 830.787 126.992 830.972 129.761C831.144 132.351 828.763 133.316 826.71 134.189C825.692 134.622 823.311 135.894 822.853 136.992C822.359 138.189 824.079 138.542 825.121 138.374C825.716 138.276 829.62 137.42 829.656 136.727C829.281 143.507 827.377 150.155 824.204 156.184C822.93 158.606 821.293 158.623 818.936 157.941C816.187 157.144 813.526 156.213 811.08 154.733C807.913 152.82 804.901 150.664 802.098 148.276C800.413 146.837 786.896 133.171 789.616 131.692C790.128 131.414 790.765 131.536 791.342 131.651C792.604 131.9 793.89 132.056 795.181 132.119C795.61 132.142 796.056 132.148 796.455 131.981C796.848 131.813 797.181 131.431 797.14 131.015C797.104 130.68 796.842 130.408 796.568 130.194C794.437 128.541 791.045 128.934 789.194 126.986C788.563 126.321 788.206 125.46 787.908 124.599C786.801 121.391 786.426 117.997 786.057 114.639C785.86 112.847 785.664 111.055 785.468 109.263C785.444 109.049 785.42 108.829 785.473 108.615C785.616 108.032 786.319 107.714 786.938 107.771C787.557 107.829 788.098 108.165 788.622 108.488C790.086 109.402 791.551 110.315 793.009 111.228C793.461 111.512 793.943 111.801 794.479 111.841C795.015 111.881 795.622 111.581 795.717 111.061C795.777 110.737 795.622 110.413 795.455 110.13C793.128 106.292 787.842 104.529 787.759 99.5168C787.723 97.4184 788.592 95.4068 789.569 93.5396C790.372 92.0135 791.259 90.5279 792.205 89.0828C792.83 88.1232 793.765 86.0017 794.949 85.5855C796.116 85.1751 797.533 86.4468 798.431 87.0075C803.229 90.025 807.961 93.1061 812.008 97.0773C812.234 97.3028 812.472 97.5456 812.52 97.8577C812.574 98.1988 812.389 98.5225 812.21 98.8173C811.097 100.679 810.115 102.719 808.627 104.303C808.104 104.858 807.598 105.251 807.609 106.112C807.627 107.24 808.359 107.454 809.145 106.638C810.758 104.962 812.163 102.621 814.073 101.28C814.323 101.101 814.621 100.945 814.931 100.968C815.329 101.002 815.627 101.332 815.877 101.638C817.639 103.823 819.27 106.107 820.758 108.471C821.002 108.864 821.252 109.292 821.204 109.748C821.139 110.332 820.621 110.748 820.163 111.124C818.097 112.824 816.103 115.026 814.907 117.39C814.609 117.98 814.365 118.651 814.568 119.275C814.639 119.495 814.776 119.703 814.978 119.824C815.371 120.061 815.883 119.917 816.294 119.72C818.329 118.755 819.639 116.807 821.168 115.182C821.52 114.812 821.918 114.436 822.43 114.356C823.543 114.188 825.008 115.702 825.68 116.454C826.924 117.876 828.001 119.547 828.65 121.321Z" fill="#00A82D"/>
<path d="M803.351 98.3436C802.333 100.783 801.238 103.182 800.089 105.564C799.119 101.454 798.274 97.3147 797.518 93.1642C797.411 92.563 796.476 92.8405 796.584 93.4301C797.369 97.7367 798.256 102.026 799.274 106.292C798.083 105.801 797.06 104.847 796.066 104.09C794.703 103.049 793.334 102.009 791.971 100.968C791.483 100.598 790.81 101.28 791.304 101.656C792.774 102.777 794.25 103.899 795.72 105.02C796.893 105.91 798.072 106.974 799.536 107.379C800.679 112.049 801.982 116.685 803.5 121.258C800.369 119.431 797.375 117.385 794.566 115.113C794.09 114.726 793.417 115.414 793.899 115.801C797.03 118.327 800.369 120.599 803.893 122.593C803.917 122.605 803.94 122.605 803.964 122.611C804.101 123.004 804.226 123.397 804.363 123.784C805.357 126.611 806.44 129.409 807.619 132.166C807.571 132.264 807.524 132.362 807.476 132.461C804.393 131.154 801.31 129.848 798.232 128.541C797.661 128.299 797.203 129.131 797.78 129.374C801.018 130.744 804.256 132.12 807.494 133.49C807.714 133.582 807.994 133.536 808.125 133.328C809.601 136.704 811.22 140.022 813 143.259C812.708 143.155 812.369 143.005 812.267 142.97C811.595 142.75 810.922 142.525 810.256 142.288C808.672 141.739 807.101 141.149 805.547 140.53C802.643 139.369 799.786 138.091 796.988 136.704C796.435 136.426 795.976 137.259 796.536 137.536C801.268 139.883 806.166 141.912 811.19 143.6C811.809 143.808 812.434 144.028 813.065 144.213C813.244 144.265 813.422 144.311 813.595 144.311C814.827 146.502 816.136 148.658 817.523 150.768C817.499 150.768 817.476 150.774 817.452 150.768C817.053 150.756 816.618 150.623 816.226 150.554C815.404 150.415 814.589 150.271 813.767 150.132C812.029 149.831 810.285 149.531 808.547 149.236C807.934 149.132 807.708 150.051 808.327 150.155C810.321 150.496 812.321 150.843 814.315 151.184C815.285 151.352 816.255 151.537 817.231 151.687C817.553 151.733 817.862 151.751 818.142 151.693C818.255 151.855 818.362 152.022 818.47 152.184C821.832 157.115 825.63 161.757 829.868 166.006C830.302 166.445 830.969 165.751 830.534 165.318C826.201 160.976 822.35 156.213 818.946 151.161C819.41 150.594 819.725 149.837 820.053 149.196C820.446 148.421 820.821 147.635 821.16 146.837C821.862 145.201 822.446 143.525 822.922 141.814C823.082 141.23 822.136 141.016 821.975 141.6C821.154 144.548 819.993 147.404 818.481 150.08C818.44 150.149 818.404 150.213 818.362 150.277C816.958 148.144 815.63 145.958 814.374 143.733C814.47 143.513 814.529 143.27 814.589 143.051C814.773 142.369 814.958 141.687 815.142 141.004C815.827 138.421 816.458 135.825 817.041 133.218C817.702 130.264 818.297 127.299 818.833 124.327C818.94 123.732 817.993 123.512 817.886 124.114C816.779 130.264 815.404 136.368 813.761 142.403C813.749 142.45 813.738 142.507 813.726 142.565C813.184 141.571 812.648 140.571 812.136 139.559C810.904 137.137 809.762 134.675 808.69 132.189C810.363 128.663 811.708 124.998 812.696 121.235C812.851 120.645 811.904 120.431 811.75 121.021C810.851 124.437 809.66 127.761 808.19 130.975C806.934 127.963 805.78 124.917 804.738 121.83C805.791 118.05 806.422 114.171 806.619 110.257C806.649 109.65 805.678 109.679 805.649 110.286C805.482 113.61 804.982 116.905 804.184 120.136C803.125 116.888 802.161 113.604 801.298 110.304C801.012 109.223 800.75 108.136 800.482 107.049C801.821 104.327 803.077 101.569 804.238 98.7772C804.44 98.228 803.583 97.7771 803.351 98.3436Z" fill="#008855"/>
<path d="M517.549 102.869C517.221 104.927 516.787 107.384 517.055 109.465C517.305 111.413 519.215 111.8 520.876 112.17C521.697 112.35 523.656 112.968 524.156 113.72C524.697 114.54 523.471 115.043 522.667 115.061C522.209 115.072 519.185 114.974 519.055 114.465C520.328 119.454 522.715 124.136 525.959 128.183C527.263 129.807 528.483 129.599 530.137 128.761C532.066 127.79 533.905 126.726 535.512 125.287C537.584 123.425 539.512 121.408 541.244 119.246C542.286 117.945 550.339 105.916 548.101 105.187C547.678 105.049 547.226 105.234 546.809 105.396C545.905 105.754 544.976 106.049 544.024 106.274C543.708 106.349 543.375 106.419 543.059 106.349C542.744 106.28 542.44 106.043 542.411 105.725C542.387 105.471 542.542 105.234 542.714 105.037C544.053 103.517 546.637 103.338 547.726 101.632C548.095 101.049 548.238 100.361 548.333 99.6786C548.684 97.1409 548.47 94.5685 548.256 92.0135C548.143 90.655 548.024 89.2966 547.91 87.9324C547.899 87.7705 547.881 87.6029 547.809 87.4526C547.619 87.0364 547.047 86.8976 546.601 87.0248C546.149 87.152 545.792 87.4757 545.452 87.7879C544.5 88.6665 543.542 89.5509 542.589 90.4296C542.292 90.7013 541.982 90.9845 541.583 91.0886C541.191 91.1926 540.697 91.0539 540.548 90.6782C540.458 90.4469 540.524 90.1868 540.607 89.9498C541.774 86.7762 545.446 84.7299 544.774 80.9957C544.494 79.4291 543.554 78.0533 542.554 76.7989C541.732 75.7758 540.857 74.7931 539.941 73.845C539.333 73.2207 538.328 71.7698 537.387 71.6253C536.459 71.4808 535.59 72.6253 535.006 73.1629C531.875 76.0706 528.81 79.0129 526.382 82.5275C526.245 82.724 526.108 82.9379 526.114 83.1749C526.126 83.4351 526.31 83.6489 526.483 83.8455C527.584 85.0768 528.614 86.4583 529.953 87.4295C530.423 87.7705 530.858 87.9902 530.977 88.6318C531.131 89.4758 530.614 89.7301 529.911 89.233C528.465 88.2098 527.078 86.6606 525.465 85.9265C525.251 85.8282 525.007 85.7531 524.78 85.8167C524.489 85.8976 524.316 86.1866 524.179 86.4468C523.185 88.3139 522.31 90.2388 521.548 92.2042C521.423 92.528 521.298 92.8864 521.406 93.2159C521.537 93.6378 521.989 93.8806 522.382 94.0945C524.167 95.0714 525.971 96.4356 527.209 98.0311C527.518 98.4299 527.798 98.8924 527.739 99.3895C527.715 99.563 527.649 99.7364 527.513 99.8578C527.257 100.089 526.852 100.049 526.519 99.9618C524.864 99.5225 523.602 98.2565 522.227 97.2565C521.912 97.031 521.56 96.8056 521.168 96.8172C520.316 96.8461 519.447 98.1756 519.06 98.823C518.322 100.072 517.769 101.459 517.549 102.869Z" fill="#00A82D"/>
<path d="M532.985 82.2852C534.098 83.9558 535.264 85.5917 536.467 87.2045C536.586 84.0136 536.61 80.8227 536.568 77.6261C536.562 77.1636 537.294 77.2388 537.3 77.6954C537.348 81.0077 537.312 84.32 537.181 87.6323C537.996 87.1005 538.615 86.2507 539.246 85.5513C540.109 84.5917 540.972 83.6263 541.836 82.6668C542.145 82.3199 542.746 82.7361 542.431 83.083C541.502 84.1177 540.568 85.1582 539.639 86.1929C538.901 87.0195 538.175 87.9733 537.145 88.4763C536.979 92.1065 536.687 95.7367 536.229 99.3438C538.294 97.5518 540.217 95.6211 541.972 93.5401C542.27 93.1875 542.871 93.6037 542.568 93.9563C540.609 96.2685 538.455 98.4189 536.133 100.384C536.121 100.396 536.104 100.396 536.086 100.407C536.044 100.72 536.008 101.026 535.961 101.338C535.633 103.575 535.241 105.806 534.77 108.02C534.818 108.09 534.872 108.153 534.919 108.223C537.02 106.824 539.121 105.431 541.222 104.032C541.609 103.772 542.074 104.327 541.681 104.593C539.473 106.061 537.264 107.529 535.062 108.992C534.913 109.09 534.699 109.096 534.568 108.957C533.967 111.674 533.247 114.362 532.395 117.015C532.598 116.899 532.83 116.738 532.895 116.703C533.366 116.449 533.83 116.183 534.294 115.923C535.389 115.292 536.473 114.639 537.538 113.963C539.532 112.697 541.466 111.35 543.347 109.934C543.722 109.651 544.181 110.211 543.806 110.495C540.627 112.894 537.282 115.079 533.794 117.027C533.36 117.269 532.931 117.512 532.491 117.743C532.366 117.807 532.241 117.865 532.11 117.888C531.515 119.692 530.854 121.472 530.134 123.229C530.151 123.223 530.169 123.223 530.187 123.223C530.485 123.16 530.788 123.004 531.068 122.894C531.657 122.674 532.247 122.46 532.836 122.241C534.086 121.778 535.336 121.316 536.586 120.853C537.026 120.692 537.33 121.345 536.883 121.507C535.449 122.038 534.014 122.57 532.58 123.096C531.884 123.356 531.187 123.628 530.485 123.871C530.253 123.952 530.026 124.004 529.806 123.998C529.747 124.137 529.693 124.276 529.634 124.408C527.854 128.536 525.711 132.519 523.176 136.259C522.914 136.646 522.318 136.224 522.58 135.842C525.17 132.016 527.336 127.94 529.128 123.715C528.699 123.362 528.354 122.836 528.015 122.408C527.61 121.888 527.217 121.351 526.848 120.807C526.086 119.686 525.408 118.518 524.801 117.316C524.592 116.899 525.265 116.61 525.473 117.027C526.515 119.108 527.794 121.067 529.312 122.854C529.354 122.9 529.39 122.94 529.431 122.981C530.163 121.2 530.83 119.391 531.437 117.564C531.33 117.414 531.259 117.241 531.181 117.084C530.943 116.605 530.705 116.125 530.473 115.639C529.586 113.813 528.735 111.969 527.919 110.107C526.997 108.003 526.116 105.882 525.283 103.743C525.116 103.315 525.789 103.02 525.955 103.454C527.681 107.876 529.592 112.223 531.699 116.483C531.717 116.512 531.729 116.558 531.747 116.599C532.009 115.784 532.253 114.963 532.491 114.142C533.056 112.171 533.544 110.182 533.973 108.182C532.211 105.789 530.675 103.251 529.39 100.587C529.187 100.17 529.86 99.8814 530.062 100.298C531.229 102.714 532.604 105.02 534.163 107.211C534.657 104.801 535.068 102.373 535.395 99.9334C534.056 97.2686 533.026 94.4707 532.306 91.5862C532.193 91.1411 532.919 91.0255 533.032 91.4706C533.645 93.9158 534.497 96.2974 535.562 98.5923C535.871 96.0315 536.11 93.4534 536.27 90.881C536.324 90.037 536.36 89.193 536.401 88.3491C535.008 86.5108 533.669 84.6322 532.395 82.7188C532.157 82.3546 532.729 81.8979 532.985 82.2852Z" fill="#008855"/>
<path d="M531.192 145.778C525.704 147.304 528.609 158.339 528.966 162.16C529.269 165.414 529.787 168.646 530.513 171.837C530.674 172.548 532.68 179.351 533.126 180.716C533.174 180.872 533.21 180.953 533.216 180.959C533.358 180.889 533.501 180.82 533.65 180.756C541.65 176.929 549.858 173.582 557.917 169.981C559.619 169.218 561.821 168.299 562.804 166.652C563.833 164.923 564.065 162.611 561.572 162.235C560.066 162.01 558.518 162.322 557.018 162.622C557.459 161.848 560.155 160.998 560.994 160.565C562.506 159.778 564.113 159.067 565.571 158.189C567.922 156.767 570.506 155.668 572.863 154.194C575.035 152.836 579.856 148.894 578.041 145.916C576.94 144.113 573.744 144.656 571.946 144.778C568.958 144.992 566.083 145.945 563.268 146.882C566.536 145.142 569.821 143.385 572.756 141.159C575.696 138.928 578.297 136.182 579.833 132.875C580.565 131.309 580.934 129.222 579.63 128.06C578.511 127.066 576.761 127.297 575.309 127.713C571.154 128.904 567.315 131.112 564.238 134.066C569.613 128.39 575.166 122.413 577.291 114.979C577.547 114.071 577.749 113.129 577.612 112.192C577.476 111.262 576.928 110.343 576.041 109.961C574.607 109.348 573.006 110.314 571.833 111.325C566.25 116.117 563.304 122.511 559.464 128.523C560.31 125.21 560.744 121.794 560.756 118.378C560.774 115.482 560.375 112.354 558.334 110.25C558.084 109.996 557.786 109.741 557.423 109.695C556.863 109.626 556.375 110.036 556.006 110.441C553.506 113.164 552.364 116.8 551.548 120.36C550.602 124.447 549.989 128.604 549.715 132.783C549.852 130.43 549.911 128.234 549.12 125.742C548.489 123.771 547.227 120.285 544.471 121.002C543.739 121.193 543.132 121.667 542.632 122.314C541.078 124.337 540.513 128.02 540.078 129.904C539.191 133.719 538.822 137.621 538.519 141.512C538.364 143.529 538.227 145.552 538.061 147.57C537.924 149.183 537.233 151.402 537.483 152.98C537.198 151.212 536.894 149.379 535.882 147.882C534.882 146.362 532.96 145.275 531.192 145.778Z" fill="#008855"/>
<path d="M545.213 158.559C545.213 158.611 545.231 158.658 545.261 158.698C542.499 163.346 539.678 168.132 537.106 172.988C536.297 165.681 534.993 158.363 533.22 151.224C533.184 151.097 533.059 151.021 532.922 151.05C532.791 151.085 532.714 151.206 532.744 151.339C534.571 158.692 535.898 166.23 536.696 173.762C535.487 176.063 534.291 178.387 533.125 180.716C533.172 180.872 533.208 180.953 533.214 180.959C533.357 180.89 533.499 180.82 533.648 180.757C534.743 178.566 535.874 176.381 537.011 174.213C537.047 174.213 537.083 174.202 537.112 174.178C543.35 169.953 550.606 167.039 558.088 165.762C558.225 165.739 558.314 165.612 558.29 165.484C558.266 165.357 558.141 165.271 558.004 165.288C550.689 166.542 543.6 169.34 537.446 173.387C540.142 168.282 543.118 163.253 546.017 158.374C548.975 155.692 552.999 154.316 557.207 153.027C561.748 151.64 566.201 150.368 570.813 149.964C570.944 149.952 571.046 149.831 571.034 149.703C571.016 149.57 570.897 149.478 570.766 149.49C566.105 149.9 561.623 151.183 557.058 152.571C553.267 153.727 549.63 154.97 546.743 157.155C548.064 154.923 549.41 152.652 550.737 150.357C558.195 143.316 566.629 137.339 575.819 132.593C575.938 132.529 575.98 132.39 575.914 132.275C575.849 132.153 575.7 132.113 575.587 132.171C566.825 136.697 558.748 142.339 551.546 148.952C552.255 147.715 552.951 146.484 553.636 145.247C558.481 136.448 564.48 126.217 572.23 116.985C572.313 116.887 572.301 116.731 572.194 116.65C572.087 116.575 571.932 116.581 571.849 116.685C564.07 125.951 558.058 136.206 553.201 145.027C552.689 145.963 552.159 146.894 551.63 147.831C553.606 141.836 558.272 126.205 556.665 116.292C556.647 116.164 556.516 116.078 556.391 116.095C556.254 116.118 556.159 116.239 556.183 116.367C558.135 128.413 550.713 149.068 550.344 150.068C548.886 152.594 547.404 155.091 545.939 157.548C545.868 157.675 545.791 157.802 545.713 157.935C545.945 148.744 546.118 139.269 543.344 130.275C543.303 130.148 543.166 130.072 543.041 130.113C542.91 130.153 542.838 130.286 542.874 130.408C545.695 139.535 545.451 149.206 545.213 158.559Z" fill="#95BC8F"/>
<path d="M792.321 61.0355C792.458 60.9083 792.672 60.9141 792.803 61.0471C793.005 61.2436 794.44 61.5269 795.077 61.5616C795.458 61.5847 795.839 61.5905 796.208 61.5962C797.088 61.6078 798.005 61.6194 798.946 61.8564C799.862 62.0876 800.725 62.4691 801.588 63.0298C802.082 63.3478 802.535 63.7062 802.993 64.0935C802.886 63.9258 802.785 63.7524 802.678 63.5848C802.57 63.4113 802.451 63.2264 802.344 63.0529C802.195 63.0876 802.041 63.024 801.969 62.8911C801.493 62.0298 800.773 61.3419 800.011 60.6078C799.737 60.3476 799.463 60.0817 799.201 59.81C797.053 57.5961 795.844 54.8098 795.404 51.0351C795.297 50.1217 795.261 49.1911 795.225 48.2893C795.178 47.0233 795.13 45.7169 794.874 44.4683C794.839 44.2891 794.952 44.1157 795.142 44.0752C795.327 44.0405 795.505 44.1504 795.541 44.3296C795.589 44.4567 795.987 44.7862 796.172 44.9481C796.321 45.0695 796.452 45.1851 796.523 45.2602C796.999 45.7574 797.41 46.2198 797.779 46.6592C798.672 47.7286 799.362 48.7286 799.892 49.7344C800.285 50.4744 800.547 51.249 800.695 52.1103C800.838 52.9542 800.856 53.8098 800.868 54.6364C800.88 55.2954 800.892 55.9775 800.969 56.6365C801.124 57.8735 801.487 58.9834 801.874 60.1626C802.053 60.7118 802.225 61.2725 802.386 61.8506C802.689 62.3246 802.981 62.7928 803.267 63.2495C803.874 64.2322 804.469 65.186 805.171 66.134C805.88 66.8392 806.558 67.5734 807.207 68.3306C806.814 67.4057 806.445 66.4635 806.207 65.4808C805.725 63.4981 805.582 61.7234 805.761 60.0586C805.868 59.0643 806.1 58.0759 806.326 57.1221C806.63 55.833 806.945 54.4919 806.933 53.1681C806.933 53.0178 807.04 52.8791 807.183 52.8444C807.332 52.8039 807.493 52.8733 807.57 53.0005C808.761 55.0526 810.112 57.3822 810.505 59.9199C810.772 61.6714 810.594 63.5501 809.981 65.3536C809.85 65.7351 809.713 66.0993 809.576 66.4635C809.13 67.637 808.719 68.7526 808.749 70.0706C810.505 71.8799 812.266 73.7471 813.975 75.672L813.939 75.5275C813.451 73.4233 813.481 71.2152 814.034 69.1515C814.403 67.7526 815.004 66.4288 815.582 65.1455L817.921 59.9545C817.98 59.8216 818.123 59.7464 818.266 59.758C818.415 59.7696 818.534 59.8736 818.564 60.0181C818.986 61.9142 819.308 63.8507 819.522 65.7814C819.689 67.2959 819.76 68.5676 819.54 69.8394C819.254 71.5042 818.469 73.036 817.814 74.1864C817.32 75.0593 816.748 75.9668 815.969 76.7241C815.79 76.8975 815.564 77.094 815.308 77.1923C817.469 79.7069 819.534 82.3255 821.397 85.0539C820.784 83.0885 820.177 81.0537 820.373 78.9034C820.57 76.753 821.23 74.7008 821.897 72.7875C822.326 71.5504 822.837 70.2903 823.98 69.6139C824.064 69.5677 824.159 69.5561 824.254 69.5792C824.343 69.6081 824.421 69.6717 824.462 69.7527C826.004 72.8684 826.682 75.6084 826.546 78.123C826.427 80.2271 825.7 81.9439 824.706 83.5394C825.825 83.366 826.962 83.6781 827.95 84.0307C830.385 84.8921 832.658 86.106 834.718 87.6378C834.825 87.7188 834.873 87.846 834.843 87.9731C834.819 88.0772 834.742 88.1639 834.64 88.2043C834.623 88.2101 834.605 88.2159 834.581 88.2217C832.611 88.6263 830.575 89.0483 828.516 89.1061C827.171 89.1408 826.129 89.0021 825.242 88.6552C824.284 88.2853 823.462 87.661 822.718 87.054C827.171 94.1006 830.17 101.887 830.034 110.604C830.034 110.743 829.944 110.859 829.825 110.905C829.784 110.922 829.736 110.928 829.688 110.928C829.498 110.928 829.349 110.778 829.355 110.593C829.456 104.009 827.73 97.9562 824.933 92.3433C824.343 93.3028 823.611 94.3549 822.57 95.2914C821.284 96.459 819.873 97.5111 818.385 98.4244C818.349 98.4476 815.528 99.9968 814.213 100.523C813.897 100.65 813.665 100.714 813.588 100.69C813.487 100.656 813.409 100.575 813.374 100.477C812.749 98.6152 813.897 96.7885 814.635 95.8636C815.784 94.4301 817.326 93.2739 819.082 92.5225C820.939 91.7247 822.629 91.3143 824.355 91.216C823.653 89.8923 822.897 88.5974 822.093 87.3257C822.046 87.3315 821.998 87.3315 821.945 87.3141C820.605 86.8748 819.504 86.9731 818.23 87.0887C817.861 87.1234 817.486 87.1581 817.088 87.1812C815.391 87.2795 813.677 87.1465 811.987 86.7881C810.302 86.4297 808.689 85.8516 807.183 85.0713C806.445 84.6897 805.737 84.2562 805.064 83.788C804.963 83.7128 804.791 83.5567 804.493 83.285C804.183 83.0018 803.547 82.418 803.35 82.3139C803.201 82.2966 803.076 82.181 803.058 82.0307C803.029 81.8515 803.166 81.6838 803.344 81.6549C806.344 81.2272 809.832 80.8225 813.189 81.3601C815.022 81.6549 816.701 82.2214 818.177 83.0423C819.04 83.5278 819.784 84.1868 820.48 84.8863C818.832 82.5105 817.028 80.2271 815.147 78.0189C814.802 78.1114 814.463 78.2097 814.123 78.308C813.362 78.5276 812.576 78.7531 811.778 78.9207C808.903 79.5103 806.076 78.4756 803.189 77.2674C801.273 76.4639 799.332 75.5275 798.547 73.6893C798.499 73.5736 798.517 73.4407 798.6 73.3482C798.684 73.2499 798.815 73.2095 798.94 73.2441C800.737 73.6719 802.648 73.6604 804.499 73.6488C805.41 73.643 806.35 73.6372 807.273 73.6835C809.29 73.7817 810.951 74.1575 812.32 74.8165C810.993 73.3598 809.642 71.932 808.29 70.5446C808.213 70.5099 808.142 70.4521 808.106 70.3712C808.1 70.3654 808.1 70.3538 808.094 70.3481C807.802 70.0475 807.505 69.7411 807.213 69.4463C806.886 69.2671 806.213 69.0937 805.82 68.9954C805.6 68.9376 805.404 68.8914 805.267 68.8451C804.243 68.5098 803.166 68.3248 802.124 68.1456C800.082 67.7988 797.975 67.4346 796.154 65.9548C795.249 65.2149 794.547 64.2842 793.862 63.3824C793.38 62.7408 792.88 62.0818 792.315 61.5037C792.309 61.498 792.309 61.498 792.303 61.4922C792.184 61.3592 792.19 61.1569 792.321 61.0355ZM815.171 96.2741C814.677 96.8926 813.623 98.4187 813.927 99.9447C814.862 99.5285 817.641 98.1007 818.016 97.8695C819.474 96.9735 820.849 95.9446 822.099 94.8116C822.945 94.0485 823.575 93.193 824.105 92.3779C821.897 93.2161 820.04 94.7942 818.254 96.3319C817.29 97.1585 816.296 98.014 815.248 98.7539C815.231 98.7655 815.213 98.7771 815.195 98.7828C815.088 98.8233 814.963 98.7944 814.891 98.7019C814.808 98.5921 814.832 98.436 814.951 98.3551C815.981 97.6267 816.969 96.7828 817.921 95.9619C819.742 94.3954 821.635 92.7884 823.927 91.9213C822.445 92.06 820.974 92.4415 819.361 93.1352C817.701 93.8404 816.254 94.9272 815.171 96.2741ZM800.19 54.6422C800.178 53.8387 800.16 53.012 800.023 52.2143C799.886 51.4224 799.648 50.7056 799.285 50.0292C798.779 49.0697 798.112 48.0985 797.249 47.0696C796.892 46.6418 796.487 46.1909 796.023 45.7054C795.964 45.6418 795.85 45.5493 795.725 45.4452C795.719 45.4452 795.719 45.4394 795.714 45.4394C795.833 46.3875 795.868 47.3413 795.898 48.272C795.934 49.1564 795.964 50.0755 796.071 50.9657C796.499 54.5901 797.648 57.2608 799.69 59.3649C799.945 59.6308 800.213 59.8852 800.481 60.1453C800.529 60.1915 800.57 60.2378 800.618 60.2783C799.576 58.5961 798.779 56.9255 798.255 55.2954C797.993 54.4861 797.922 53.6479 797.85 52.8271C797.737 51.5669 797.63 50.3761 796.904 49.3009C796.827 49.1853 796.856 49.035 796.975 48.9598C797.088 48.8847 797.249 48.9136 797.327 49.0292C798.124 50.2085 798.243 51.5149 798.356 52.7866C798.428 53.5785 798.499 54.3936 798.743 55.1451C799.273 56.7868 800.088 58.4747 801.16 60.18C800.803 59.0817 800.44 57.9429 800.291 56.7116C800.213 56.0179 800.201 55.3185 800.19 54.6422ZM809.338 65.1455C809.915 63.4402 810.088 61.6656 809.838 60.0181C809.528 57.9949 808.552 56.0758 807.558 54.3242C807.451 55.3243 807.219 56.307 806.993 57.2666C806.773 58.203 806.546 59.1684 806.439 60.128C806.267 61.7176 806.41 63.4229 806.868 65.3305C807.142 66.4462 807.594 67.5387 808.058 68.5965C807.701 66.3537 807.665 64.4634 807.945 62.55C808.201 60.7985 808.368 59.1106 807.63 57.6654C807.57 57.544 807.618 57.3937 807.743 57.3359C807.868 57.2781 808.023 57.3244 808.082 57.4458C808.88 59.0181 808.701 60.8679 808.445 62.6252C808.207 64.238 808.207 65.8392 808.433 67.6659C808.582 67.1919 808.755 66.7236 808.933 66.2496C809.07 65.8797 809.207 65.5155 809.338 65.1455ZM817.219 73.8569C817.844 72.7528 818.599 71.2903 818.873 69.7238C819.076 68.5214 819.01 67.3075 818.849 65.845C818.677 64.2842 818.433 62.7119 818.117 61.1685L816.207 65.4056C815.635 66.6658 815.052 67.9665 814.695 69.3133C814.171 71.2787 814.141 73.3713 814.606 75.3772L814.659 75.6257C814.695 75.7992 814.748 76.0246 814.802 76.2211C814.921 75.672 815.022 75.1171 815.112 74.5737C815.284 73.539 815.463 72.4696 815.814 71.429L816.034 70.7932C816.51 69.4174 817.01 68.0011 816.885 66.5502C816.873 66.4115 816.98 66.2959 817.117 66.2843C817.26 66.2727 817.379 66.3768 817.391 66.5097C817.522 68.0589 817.01 69.5272 816.516 70.9492L816.302 71.5793C815.963 72.5794 815.79 73.6315 815.623 74.6431C815.528 75.2269 815.415 75.8281 815.284 76.4293C815.344 76.383 815.409 76.3252 815.487 76.2501C816.213 75.5506 816.748 74.6893 817.219 73.8569ZM825.873 78.0883C825.998 75.7818 825.397 73.2615 824.028 70.3943C823.284 71.0013 822.885 72.0071 822.546 72.9956C821.897 74.8743 821.248 76.8801 821.058 78.9612C820.867 81.0711 821.474 83.0191 822.123 85.0886C822.135 85.1348 822.153 85.1811 822.165 85.2215C822.754 82.1463 823.105 79.0074 823.177 75.8859C823.177 75.7471 823.296 75.6431 823.439 75.6431C823.581 75.6489 823.689 75.7587 823.689 75.8974C823.611 79.0305 823.266 82.1752 822.677 85.262C824.314 83.1116 825.712 80.9613 825.873 78.0883ZM825.492 88.0425C826.296 88.3489 827.248 88.4818 828.498 88.4471C830.248 88.4009 831.998 88.0772 833.7 87.7303C831.861 86.4413 829.849 85.4123 827.718 84.655C826.706 84.2966 825.534 83.9729 824.468 84.2678C824.349 84.2967 824.314 84.3313 824.302 84.3429C824.26 84.4643 824.153 84.551 824.028 84.5683C823.736 84.9845 823.427 85.395 823.117 85.7996C825.367 85.5279 827.659 85.736 829.819 86.4297C829.95 86.4759 830.028 86.6147 829.98 86.7419C829.956 86.8112 829.903 86.869 829.837 86.8922C829.784 86.9153 829.718 86.9153 829.659 86.8979C827.474 86.1927 825.153 86.0019 822.885 86.3199C823.683 86.9904 824.516 87.6667 825.492 88.0425ZM817.832 83.6203C816.427 82.8342 814.826 82.2966 813.076 82.0133C810.118 81.5393 807.034 81.8283 804.285 82.1925C804.469 82.3486 804.689 82.5509 804.957 82.7995C805.171 82.996 805.392 83.1983 805.463 83.2504C806.106 83.7012 806.79 84.1175 807.499 84.4874C808.951 85.2389 810.511 85.7938 812.13 86.1407C813.76 86.4875 815.415 86.6147 817.046 86.5222C817.439 86.4991 817.808 86.4644 818.171 86.4297C818.945 86.3603 819.689 86.2967 820.48 86.3603C817.355 85.0019 813.939 84.2157 810.528 84.0828C810.386 84.077 810.278 83.9614 810.284 83.8227C810.29 83.6839 810.409 83.5799 810.552 83.5856C813.927 83.7186 817.308 84.4759 820.421 85.7881C819.623 84.9672 818.796 84.1579 817.832 83.6203ZM807.225 74.3425C806.32 74.2962 805.392 74.302 804.487 74.3078C802.838 74.3193 801.142 74.3251 799.487 74.0303C800.32 75.2674 801.892 76.0073 803.445 76.6605C806.225 77.8282 808.945 78.8282 811.624 78.2733C812.391 78.1172 813.165 77.8918 813.915 77.6779C814.129 77.6143 814.344 77.5565 814.558 77.4929C813.82 77.0247 812.874 76.9264 812.034 76.8859C811.356 76.8512 810.665 76.8397 809.975 76.8281C807.642 76.7877 805.231 76.7414 803.052 75.8454C802.922 75.7934 802.862 75.6489 802.916 75.5217C802.969 75.3945 803.118 75.3367 803.249 75.3887C805.338 76.2501 807.701 76.2905 809.981 76.3368C810.677 76.3483 811.368 76.3599 812.058 76.3946C812.624 76.4235 813.201 76.4813 813.743 76.62C813.427 76.3136 813.106 76.0304 812.737 75.8049C811.332 74.9379 809.528 74.4581 807.225 74.3425ZM794.404 62.9894C795.089 63.8969 795.737 64.7582 796.583 65.4461C798.261 66.8161 800.19 67.1456 802.231 67.4925C803.297 67.6774 804.404 67.8624 805.475 68.215C805.535 68.2324 805.612 68.2555 805.689 68.2786C804.993 67.8335 804.201 67.5098 803.416 67.1976L803.148 67.0936C800.957 66.2092 798.809 65.1629 796.773 63.9778C796.654 63.9085 796.612 63.7582 796.684 63.6368C796.755 63.5212 796.91 63.4807 797.035 63.5501C799.053 64.7178 801.172 65.7525 803.344 66.6311L803.612 66.741C804.219 66.9838 804.832 67.2323 805.41 67.5387C805.142 67.2208 804.898 66.9028 804.666 66.5907C804.463 66.3883 804.267 66.186 804.064 65.9895C803.058 65.0241 802.207 64.2322 801.219 63.5905C800.422 63.0703 799.624 62.7177 798.785 62.5096C797.916 62.2957 797.083 62.2783 796.202 62.2668C795.821 62.261 795.434 62.2552 795.041 62.2321C794.904 62.2263 794.279 62.1569 793.654 62.024C793.916 62.3361 794.16 62.6656 794.404 62.9894Z" fill="#6F9969"/>
<path d="M706.354 98.4702C709.247 99.7073 712.044 100.823 712.086 100.609C712.544 98.106 713.342 95.632 714.229 93.233C715.044 91.0248 716.592 88.8166 715.532 86.4061C715.383 86.0651 715.157 85.7298 714.812 85.5564C714.354 85.3309 713.77 85.4523 713.354 85.7529C712.937 86.0535 712.657 86.4928 712.425 86.9437C711.854 88.042 711.491 89.2444 711.36 90.4699C711.413 88.6952 711.467 86.9206 711.372 85.1459C711.33 84.3598 711.253 83.5563 710.878 82.8568C710.556 82.2614 709.86 81.7354 709.205 81.9608C708.663 82.1458 708.407 82.7354 708.241 83.2672C707.824 84.6141 707.586 86.0188 707.532 87.4235C707.544 85.0939 706.848 82.7643 705.55 80.8047C705.056 80.059 704.437 79.3307 703.586 79.0069C702.717 78.6717 701.604 78.7353 701.098 79.637C700.64 80.4521 701.051 81.8452 701.259 82.7008C701.854 85.1055 703.181 87.3137 704.854 89.1635C703.783 88.5565 702.64 88.0825 701.449 87.7472C700.705 87.5391 699.729 87.464 699.324 88.1056C699.08 88.4929 699.164 89.0074 699.414 89.3889C699.664 89.7704 700.051 90.0479 700.432 90.3022C701.735 91.1693 703.104 91.9324 704.539 92.5798C703.628 92.3428 702.699 92.1 701.753 92.1231C700.807 92.1405 699.824 92.4584 699.217 93.1579C699.021 93.3891 698.86 93.6608 698.83 93.9614C698.753 94.6897 699.42 95.2851 700.074 95.6551C700.58 95.9326 703.515 97.2563 706.354 98.4702Z" fill="#6F9969"/>
<path d="M585.655 161.166C582.5 161.351 579.476 161.461 579.518 161.241C579.982 158.744 580.119 156.154 580.137 153.599C580.155 151.252 579.494 148.662 581.351 146.755C581.613 146.483 581.947 146.246 582.328 146.2C582.839 146.142 583.345 146.454 583.625 146.876C583.911 147.298 584.012 147.807 584.071 148.304C584.214 149.529 584.125 150.778 583.816 151.975C584.399 150.292 584.982 148.61 585.702 146.974C586.024 146.252 586.381 145.523 586.982 144.997C587.5 144.547 588.333 144.286 588.869 144.72C589.309 145.073 589.339 145.714 589.303 146.269C589.208 147.674 588.934 149.067 588.482 150.408C589.303 148.217 590.785 146.269 592.696 144.87C593.428 144.333 594.267 143.864 595.184 143.841C596.119 143.824 597.142 144.252 597.297 145.269C597.44 146.188 596.553 147.356 596.053 148.084C594.637 150.142 592.607 151.761 590.381 152.934C591.601 152.726 592.845 152.663 594.077 152.749C594.851 152.801 595.791 153.061 595.94 153.801C596.029 154.246 595.767 154.703 595.398 154.975C595.029 155.246 594.565 155.374 594.119 155.489C592.589 155.865 591.03 156.119 589.458 156.247C590.399 156.327 591.357 156.42 592.238 156.755C593.119 157.09 593.928 157.715 594.25 158.582C594.357 158.865 594.404 159.177 594.327 159.466C594.137 160.177 593.303 160.513 592.559 160.634C591.976 160.726 588.756 160.981 585.655 161.166Z" fill="#6F9969"/>
<path d="M623.221 93.6554C623.548 93.3028 623.989 93.1063 624.489 93.0774C624.977 93.0542 625.447 93.2161 625.81 93.5398C626.56 94.1988 626.613 95.326 625.935 96.0544C625.619 96.3897 625.191 96.5978 624.727 96.6324C624.709 96.6324 624.685 96.6324 624.667 96.6382C624.179 96.6613 623.709 96.4995 623.346 96.1758C622.983 95.8578 622.768 95.4185 622.75 94.9445C622.721 94.4589 622.887 94.008 623.221 93.6554Z" fill="#6F9969"/>
<path d="M615.459 94.5924C615.786 94.2398 616.233 94.0375 616.727 94.0144C617.215 93.9913 617.685 94.1531 618.048 94.4768C618.798 95.1358 618.852 96.2688 618.173 96.9914C617.858 97.3267 617.429 97.5348 616.965 97.5695C616.947 97.5695 616.923 97.5695 616.905 97.5752C616.417 97.5984 615.947 97.4365 615.584 97.1128C615.221 96.7949 615.007 96.3555 614.989 95.8815C614.959 95.4017 615.126 94.9451 615.459 94.5924Z" fill="#6F9969"/>
<path d="M621.481 99.8464C621.969 99.8233 622.439 99.9851 622.802 100.309C623.552 100.968 623.606 102.095 622.927 102.823C622.612 103.159 622.183 103.367 621.719 103.401C621.701 103.401 621.677 103.401 621.659 103.407C621.171 103.43 620.701 103.269 620.338 102.945C619.975 102.627 619.766 102.188 619.743 101.714C619.719 101.24 619.886 100.783 620.219 100.43C620.54 100.072 620.987 99.8753 621.481 99.8464Z" fill="#6F9969"/>
<path d="M792.042 141.812C792.53 141.806 792.982 141.986 793.339 142.327C793.69 142.662 793.881 143.107 793.887 143.581C793.893 144.564 793.077 145.367 792.065 145.373C791.595 145.379 791.155 145.211 790.809 144.899C790.798 144.887 790.78 144.87 790.768 144.859C790.417 144.523 790.226 144.078 790.22 143.604C790.214 143.13 790.405 142.679 790.75 142.344C791.089 142.003 791.547 141.818 792.042 141.812Z" fill="#6F9969"/>
<path d="M786.069 136.911C786.557 136.905 787.015 137.084 787.366 137.425C787.718 137.761 787.908 138.206 787.914 138.68C787.92 139.662 787.105 140.466 786.093 140.472C785.622 140.477 785.182 140.31 784.837 139.998C784.825 139.986 784.807 139.969 784.795 139.957C784.444 139.622 784.253 139.177 784.248 138.703C784.242 138.229 784.432 137.778 784.777 137.443C785.122 137.107 785.575 136.917 786.069 136.911Z" fill="#6F9969"/>
<path d="M786.183 144.778C786.534 145.113 786.724 145.559 786.73 146.033C786.736 147.015 785.921 147.819 784.909 147.825C784.439 147.83 783.998 147.663 783.653 147.351C783.641 147.339 783.623 147.322 783.612 147.31C783.26 146.975 783.07 146.53 783.064 146.056C783.058 145.582 783.248 145.131 783.594 144.796C783.939 144.454 784.397 144.269 784.885 144.264C785.373 144.264 785.82 144.449 786.183 144.778Z" fill="#6F9969"/>
</g>
</g>
</svg>
