<svg width="1140" height="191" viewBox="0 0 1140 191" fill="none" xmlns="http://www.w3.org/2000/svg">
<path d="M0 12C0 5.37258 5.37258 0 12 0H1128C1134.63 0 1140 5.37258 1140 12V179C1140 185.627 1134.63 191 1128 191H12C5.37256 191 0 185.627 0 179V12Z" fill="#E9FDF1"/>
<g opacity="0.8">
<g opacity="0.1">
<path d="M410.056 25.9321L400.342 12.3908C400.255 12.27 400.141 12.1716 400.008 12.1036C399.876 12.0357 399.729 12.0001 399.58 12H399.578C399.428 12.0003 399.281 12.0362 399.148 12.1047C399.015 12.1732 398.901 12.2723 398.814 12.3938L389.162 25.9351C389.063 26.0751 389.003 26.2398 388.991 26.4111C388.979 26.5825 389.015 26.7538 389.094 26.9063C389.173 27.059 389.292 27.1871 389.439 27.2764C389.587 27.3657 389.756 27.4127 389.928 27.4123H394.47L394.47 39.5745C394.47 39.6974 394.494 39.819 394.541 39.9325C394.588 40.046 394.657 40.1492 394.744 40.236C394.832 40.3229 394.935 40.3917 395.049 40.4387C395.163 40.4857 395.285 40.5098 395.408 40.5097L403.812 40.5093C403.935 40.5094 404.057 40.4852 404.171 40.4382C404.285 40.3912 404.388 40.3223 404.475 40.2354C404.563 40.1485 404.632 40.0454 404.679 39.9319C404.726 39.8183 404.75 39.6967 404.75 39.5738V27.4127H409.293C409.644 27.4127 409.966 27.2157 410.128 26.9044C410.207 26.7515 410.242 26.5798 410.229 26.4082C410.217 26.2366 410.157 26.0718 410.056 25.9321Z" fill="#4CD681"/>
<path d="M448.922 16.3994C445.606 11.7748 438.71 11.7792 435.402 16.4094C434.293 17.9622 433.754 19.8493 433.877 21.7522C434.001 23.655 434.779 25.4571 436.08 26.8543L448.63 40.3308C448.735 40.4425 448.861 40.5316 449.001 40.5926C449.141 40.6536 449.292 40.6851 449.445 40.6852C449.598 40.6853 449.749 40.654 449.889 40.5932C450.03 40.5324 450.156 40.4435 450.26 40.3319L462.803 26.902C464.117 25.4939 464.901 23.6741 465.02 21.7536C465.138 19.8331 464.584 17.9311 463.453 16.3728C460.102 11.7603 453.194 11.8058 449.905 16.4627L449.441 17.121L448.923 16.3994H448.922Z" fill="#4CD681"/>
<path fill-rule="evenodd" clip-rule="evenodd" d="M490.458 12.2463C492.793 12.2463 494.685 14.1334 494.685 16.4611V22.0401H500.279C502.613 22.0401 504.505 23.9271 504.505 26.2548C504.505 28.5826 502.613 30.4696 500.279 30.4696H494.685V36.0486C494.685 38.3763 492.793 40.2633 490.458 40.2633C488.124 40.2633 486.232 38.3763 486.232 36.0486V30.4696H480.638C478.304 30.4696 476.412 28.5826 476.412 26.2548C476.412 23.9271 478.304 22.0401 480.638 22.0401H486.232V16.4611C486.232 14.1334 488.124 12.2463 490.458 12.2463Z" fill="#4CD681"/>
<path d="M525.871 38.3723C525.871 39.4894 524.962 40.3919 523.836 40.3919H515.697C514.571 40.3919 513.662 39.4894 513.662 38.3723C513.662 37.2552 514.571 36.3527 515.697 36.3527H521.801V30.294C521.801 29.1769 522.711 28.2744 523.836 28.2744H529.941V22.2157C529.941 21.0986 530.85 20.1961 531.975 20.1961H538.08V14.1374C538.08 13.0203 538.989 12.1178 540.115 12.1178H548.254C549.38 12.1178 550.289 13.0203 550.289 14.1374C550.289 15.2545 549.38 16.157 548.254 16.157H542.15V22.2157C542.15 23.3328 541.24 24.2353 540.115 24.2353H534.01V30.294C534.01 31.4111 533.101 32.3136 531.975 32.3136H525.871V38.3723Z" fill="#4CD681"/>
<path d="M580.959 16.3994C577.643 11.7748 570.747 11.7792 567.439 16.4094C566.329 17.9622 565.791 19.8493 565.914 21.7522C566.038 23.655 566.816 25.4571 568.117 26.8543L580.667 40.3308C580.771 40.4425 580.897 40.5316 581.037 40.5926C581.178 40.6536 581.329 40.6851 581.482 40.6852C581.635 40.6853 581.786 40.654 581.926 40.5932C582.066 40.5324 582.192 40.4435 582.297 40.3319L594.839 26.902C596.154 25.4939 596.938 23.6741 597.056 21.7536C597.175 19.8331 596.621 17.9311 595.489 16.3728C592.139 11.7603 585.231 11.8058 581.942 16.4627L581.477 17.121L580.96 16.3994H580.959Z" fill="#4CD681"/>
<path fill-rule="evenodd" clip-rule="evenodd" d="M622.495 12.2463C624.829 12.2463 626.721 14.1334 626.721 16.4611V22.0401H632.315C634.65 22.0401 636.542 23.9271 636.542 26.2548C636.542 28.5826 634.65 30.4696 632.315 30.4696H626.721V36.0486C626.721 38.3763 624.829 40.2633 622.495 40.2633C620.161 40.2633 618.269 38.3763 618.269 36.0486V30.4696H612.675C610.341 30.4696 608.449 28.5826 608.449 26.2548C608.449 23.9271 610.341 22.0401 612.675 22.0401H618.269V16.4611C618.269 14.1334 620.161 12.2463 622.495 12.2463Z" fill="#4CD681"/>
<path d="M674.786 25.9321L665.072 12.3908C664.985 12.27 664.871 12.1716 664.738 12.1036C664.606 12.0357 664.459 12.0001 664.31 12H664.308C664.158 12.0003 664.011 12.0362 663.878 12.1047C663.745 12.1732 663.631 12.2723 663.544 12.3938L653.892 25.9351C653.793 26.0751 653.733 26.2398 653.721 26.4111C653.709 26.5825 653.745 26.7538 653.824 26.9063C653.903 27.059 654.022 27.1871 654.17 27.2764C654.317 27.3657 654.486 27.4127 654.658 27.4123H659.2L659.2 39.5745C659.2 39.6974 659.224 39.819 659.271 39.9325C659.318 40.046 659.387 40.1492 659.474 40.236C659.562 40.3229 659.665 40.3917 659.779 40.4387C659.893 40.4857 660.015 40.5098 660.138 40.5097L668.542 40.5093C668.665 40.5094 668.787 40.4852 668.901 40.4382C669.015 40.3912 669.118 40.3223 669.205 40.2354C669.293 40.1485 669.362 40.0454 669.409 39.9319C669.456 39.8183 669.48 39.6967 669.48 39.5738V27.4127H674.024C674.374 27.4127 674.696 27.2157 674.858 26.9044C674.937 26.7515 674.972 26.5798 674.959 26.4082C674.947 26.2366 674.887 26.0718 674.786 25.9321Z" fill="#4CD681"/>
<path d="M708.575 38.3723C708.575 39.4894 707.665 40.3919 706.54 40.3919H698.4C697.275 40.3919 696.366 39.4894 696.366 38.3723C696.366 37.2552 697.275 36.3527 698.4 36.3527H704.505V30.294C704.505 29.1769 705.414 28.2744 706.54 28.2744H712.644V22.2157C712.644 21.0986 713.554 20.1961 714.679 20.1961H720.784V14.1374C720.784 13.0203 721.693 12.1178 722.819 12.1178H730.958C732.084 12.1178 732.993 13.0203 732.993 14.1374C732.993 15.2545 732.084 16.157 730.958 16.157H724.853V22.2157C724.853 23.3328 723.944 24.2353 722.819 24.2353H716.714V30.294C716.714 31.4111 715.805 32.3136 714.679 32.3136H708.575V38.3723Z" fill="#4CD681"/>
<path fill-rule="evenodd" clip-rule="evenodd" d="M390.789 58.5613C388.455 58.5613 386.563 60.4483 386.563 62.7761V68.355H380.968C378.634 68.355 376.742 70.2421 376.742 72.5698C376.742 74.8976 378.634 76.7846 380.968 76.7846H386.563V82.3635C386.563 84.6913 388.455 86.5783 390.789 86.5783C393.123 86.5783 395.015 84.6913 395.015 82.3635V76.7846H400.609C402.943 76.7846 404.835 74.8976 404.835 72.5698C404.835 70.2421 402.943 68.355 400.609 68.355H395.015V62.7761C395.015 60.4483 393.123 58.5613 390.789 58.5613Z" fill="#4CD681"/>
<path d="M422.189 72.2471L431.903 58.7058C431.99 58.585 432.104 58.4865 432.237 58.4186C432.369 58.3506 432.516 58.3151 432.665 58.315H432.667C432.817 58.3153 432.964 58.3512 433.097 58.4197C433.229 58.4881 433.344 58.5872 433.431 58.7087L443.082 72.25C443.182 72.39 443.241 72.5547 443.253 72.7261C443.265 72.8974 443.23 73.0687 443.151 73.2213C443.072 73.374 442.952 73.5021 442.805 73.5914C442.658 73.6807 442.489 73.7277 442.317 73.7273H437.775L437.775 85.8895C437.775 86.0123 437.751 86.134 437.704 86.2475C437.656 86.361 437.587 86.4641 437.5 86.551C437.413 86.6378 437.31 86.7067 437.196 86.7537C437.082 86.8006 436.96 86.8247 436.837 86.8246L428.433 86.8243C428.309 86.8243 428.187 86.8002 428.074 86.7532C427.96 86.7062 427.856 86.6373 427.769 86.5504C427.682 86.4635 427.613 86.3603 427.566 86.2468C427.519 86.1333 427.495 86.0116 427.495 85.8888V73.7277H422.951C422.601 73.7277 422.279 73.5306 422.117 73.2194C422.038 73.0665 422.003 72.8948 422.015 72.7232C422.028 72.5516 422.088 72.3868 422.189 72.2471Z" fill="#4CD681"/>
<path d="M476.868 84.6873C476.868 85.8043 475.959 86.7068 474.833 86.7068H466.694C465.569 86.7068 464.659 85.8043 464.659 84.6873C464.659 83.5702 465.569 82.6677 466.694 82.6677H472.799V76.609C472.799 75.4919 473.708 74.5894 474.833 74.5894H480.938V68.5307C480.938 67.4136 481.847 66.5111 482.973 66.5111H489.077V60.4524C489.077 59.3353 489.987 58.4328 491.112 58.4328H499.252C500.377 58.4328 501.286 59.3353 501.286 60.4524C501.286 61.5694 500.377 62.4719 499.252 62.4719H493.147V68.5307C493.147 69.6477 492.238 70.5502 491.112 70.5502H485.008V76.609C485.008 77.726 484.098 78.6285 482.973 78.6285H476.868V84.6873Z" fill="#4CD681"/>
<path d="M533.002 62.7144C536.318 58.0897 543.214 58.0942 546.522 62.7244C547.632 64.2772 548.171 66.1643 548.047 68.0671C547.924 69.97 547.146 71.7721 545.844 73.1693L533.294 86.6458C533.19 86.7575 533.064 86.8466 532.924 86.9076C532.784 86.9685 532.632 87 532.48 87.0001C532.327 87.0002 532.175 86.9689 532.035 86.9082C531.895 86.8474 531.769 86.7585 531.665 86.6469L519.122 73.217C517.807 71.8089 517.023 69.989 516.905 68.0685C516.786 66.1481 517.34 64.2461 518.472 62.6877C521.822 58.0753 528.73 58.1208 532.02 62.7777L532.484 63.4359L533.001 62.7144H533.002Z" fill="#4CD681"/>
<path d="M571.869 72.2471L581.583 58.7058C581.67 58.585 581.784 58.4865 581.917 58.4186C582.049 58.3506 582.196 58.3151 582.345 58.315H582.347C582.496 58.3153 582.644 58.3512 582.777 58.4197C582.909 58.4881 583.024 58.5872 583.111 58.7087L592.762 72.25C592.862 72.39 592.921 72.5547 592.933 72.7261C592.945 72.8974 592.91 73.0687 592.83 73.2213C592.752 73.374 592.632 73.5021 592.485 73.5914C592.338 73.6807 592.169 73.7277 591.997 73.7273H587.455L587.455 85.8895C587.455 86.0123 587.431 86.134 587.384 86.2475C587.336 86.361 587.267 86.4641 587.18 86.551C587.093 86.6378 586.99 86.7067 586.876 86.7537C586.762 86.8006 586.64 86.8247 586.517 86.8246L578.113 86.8243C577.989 86.8243 577.867 86.8002 577.754 86.7532C577.64 86.7062 577.536 86.6373 577.449 86.5504C577.362 86.4635 577.293 86.3603 577.246 86.2468C577.199 86.1333 577.175 86.0116 577.175 85.8888V73.7277H572.631C572.281 73.7277 571.959 73.5306 571.797 73.2194C571.718 73.0665 571.683 72.8948 571.695 72.7232C571.708 72.5516 571.768 72.3868 571.869 72.2471Z" fill="#4CD681"/>
<path fill-rule="evenodd" clip-rule="evenodd" d="M624.16 58.5613C621.825 58.5613 619.933 60.4483 619.933 62.7761V68.355H614.339C612.005 68.355 610.113 70.2421 610.113 72.5698C610.113 74.8976 612.005 76.7846 614.339 76.7846H619.933V82.3635C619.933 84.6913 621.825 86.5783 624.16 86.5783C626.494 86.5783 628.386 84.6913 628.386 82.3635V76.7846H633.98C636.314 76.7846 638.206 74.8976 638.206 72.5698C638.206 70.2421 636.314 68.355 633.98 68.355H628.386V62.7761C628.386 60.4483 626.494 58.5613 624.16 58.5613Z" fill="#4CD681"/>
<path d="M659.572 84.6873C659.572 85.8043 658.663 86.7068 657.537 86.7068H649.398C648.272 86.7068 647.363 85.8043 647.363 84.6873C647.363 83.5702 648.272 82.6677 649.398 82.6677H655.502V76.609C655.502 75.4919 656.412 74.5894 657.537 74.5894H663.642V68.5307C663.642 67.4136 664.551 66.5111 665.677 66.5111H671.781V60.4524C671.781 59.3353 672.69 58.4328 673.816 58.4328H681.955C683.081 58.4328 683.99 59.3353 683.99 60.4524C683.99 61.5694 683.081 62.4719 681.955 62.4719H675.851V68.5307C675.851 69.6477 674.942 70.5502 673.816 70.5502H667.711V76.609C667.711 77.726 666.802 78.6285 665.677 78.6285H659.572V84.6873Z" fill="#4CD681"/>
<path d="M715.706 62.7144C719.022 58.0897 725.918 58.0942 729.226 62.7244C730.336 64.2772 730.874 66.1643 730.751 68.0671C730.627 69.97 729.849 71.7721 728.548 73.1693L715.998 86.6458C715.894 86.7575 715.768 86.8466 715.628 86.9076C715.487 86.9685 715.336 87 715.183 87.0001C715.03 87.0002 714.879 86.9689 714.739 86.9082C714.599 86.8474 714.472 86.7585 714.368 86.6469L701.826 73.217C700.511 71.8089 699.727 69.989 699.609 68.0685C699.49 66.1481 700.044 64.2461 701.176 62.6877C704.526 58.0753 711.434 58.1208 714.723 62.7777L715.188 63.4359L715.705 62.7144H715.706Z" fill="#4CD681"/>
</g>
<g opacity="0.1">
<path d="M785.314 25.9321L775.599 12.3908C775.513 12.27 775.398 12.1716 775.266 12.1036C775.133 12.0357 774.987 12.0001 774.838 12H774.835C774.686 12.0003 774.539 12.0362 774.406 12.1047C774.273 12.1732 774.159 12.2723 774.072 12.3938L764.42 25.9351C764.32 26.0751 764.261 26.2398 764.249 26.4111C764.237 26.5825 764.273 26.7538 764.352 26.9063C764.431 27.059 764.55 27.1871 764.697 27.2764C764.844 27.3657 765.013 27.4127 765.186 27.4123H769.728L769.728 39.5745C769.727 39.6974 769.752 39.819 769.799 39.9325C769.846 40.046 769.915 40.1492 770.002 40.236C770.089 40.3229 770.193 40.3917 770.307 40.4387C770.42 40.4857 770.542 40.5098 770.666 40.5097L779.07 40.5093C779.193 40.5094 779.315 40.4852 779.429 40.4382C779.543 40.3912 779.646 40.3223 779.733 40.2354C779.82 40.1485 779.889 40.0454 779.937 39.9319C779.984 39.8183 780.008 39.6967 780.008 39.5738V27.4127H784.551C784.902 27.4127 785.224 27.2157 785.385 26.9044C785.464 26.7515 785.5 26.5798 785.487 26.4082C785.474 26.2366 785.414 26.0718 785.314 25.9321Z" fill="#4CD681"/>
<path d="M824.18 16.3994C820.864 11.7748 813.968 11.7792 810.66 16.4094C809.55 17.9622 809.012 19.8493 809.135 21.7522C809.259 23.655 810.037 25.4571 811.338 26.8543L823.888 40.3308C823.992 40.4425 824.118 40.5316 824.259 40.5926C824.399 40.6536 824.55 40.6851 824.703 40.6852C824.856 40.6853 825.007 40.654 825.147 40.5932C825.287 40.5324 825.414 40.4435 825.518 40.3319L838.06 26.902C839.375 25.4939 840.159 23.6741 840.278 21.7536C840.396 19.8331 839.842 17.9311 838.711 16.3728C835.36 11.7603 828.452 11.8058 825.163 16.4627L824.699 17.121L824.181 16.3994H824.18Z" fill="#4CD681"/>
<path fill-rule="evenodd" clip-rule="evenodd" d="M865.716 12.2463C868.05 12.2463 869.943 14.1334 869.943 16.4611V22.0401H875.537C877.871 22.0401 879.763 23.9271 879.763 26.2548C879.763 28.5826 877.871 30.4696 875.537 30.4696H869.943V36.0486C869.943 38.3763 868.05 40.2633 865.716 40.2633C863.382 40.2633 861.49 38.3763 861.49 36.0486V30.4696H855.896C853.562 30.4696 851.67 28.5826 851.67 26.2548C851.67 23.9271 853.562 22.0401 855.896 22.0401H861.49V16.4611C861.49 14.1334 863.382 12.2463 865.716 12.2463Z" fill="#4CD681"/>
<path d="M901.129 38.3723C901.129 39.4894 900.219 40.3919 899.094 40.3919H890.955C889.829 40.3919 888.92 39.4894 888.92 38.3723C888.92 37.2552 889.829 36.3527 890.955 36.3527H897.059V30.294C897.059 29.1769 897.968 28.2744 899.094 28.2744H905.198V22.2157C905.198 21.0986 906.108 20.1961 907.233 20.1961H913.338V14.1374C913.338 13.0203 914.247 12.1178 915.373 12.1178H923.512C924.638 12.1178 925.547 13.0203 925.547 14.1374C925.547 15.2545 924.638 16.157 923.512 16.157H917.408V22.2157C917.408 23.3328 916.498 24.2353 915.373 24.2353H909.268V30.294C909.268 31.4111 908.359 32.3136 907.233 32.3136H901.129V38.3723Z" fill="#4CD681"/>
<path d="M956.217 16.3994C952.901 11.7748 946.005 11.7792 942.697 16.4094C941.587 17.9622 941.048 19.8493 941.172 21.7522C941.295 23.655 942.073 25.4571 943.375 26.8543L955.925 40.3308C956.029 40.4425 956.155 40.5316 956.295 40.5926C956.435 40.6536 956.587 40.6851 956.739 40.6852C956.892 40.6853 957.044 40.654 957.184 40.5932C957.324 40.5324 957.45 40.4435 957.555 40.3319L970.097 26.902C971.412 25.4939 972.196 23.6741 972.314 21.7536C972.433 19.8331 971.879 17.9311 970.747 16.3728C967.397 11.7603 960.489 11.8058 957.199 16.4627L956.735 17.121L956.218 16.3994H956.217Z" fill="#4CD681"/>
<path fill-rule="evenodd" clip-rule="evenodd" d="M997.753 12.2463C1000.09 12.2463 1001.98 14.1334 1001.98 16.4611V22.0401H1007.57C1009.91 22.0401 1011.8 23.9271 1011.8 26.2548C1011.8 28.5826 1009.91 30.4696 1007.57 30.4696H1001.98V36.0486C1001.98 38.3763 1000.09 40.2633 997.753 40.2633C995.419 40.2633 993.527 38.3763 993.527 36.0486V30.4696H987.933C985.598 30.4696 983.706 28.5826 983.706 26.2548C983.706 23.9271 985.598 22.0401 987.933 22.0401H993.527V16.4611C993.527 14.1334 995.419 12.2463 997.753 12.2463Z" fill="#4CD681"/>
<path d="M1050.04 25.9321L1040.33 12.3908C1040.24 12.27 1040.13 12.1716 1040 12.1036C1039.86 12.0357 1039.72 12.0001 1039.57 12H1039.57C1039.42 12.0003 1039.27 12.0362 1039.14 12.1047C1039 12.1732 1038.89 12.2723 1038.8 12.3938L1029.15 25.9351C1029.05 26.0751 1028.99 26.2398 1028.98 26.4111C1028.97 26.5825 1029 26.7538 1029.08 26.9063C1029.16 27.059 1029.28 27.1871 1029.43 27.2764C1029.57 27.3657 1029.74 27.4127 1029.92 27.4123H1034.46L1034.46 39.5745C1034.46 39.6974 1034.48 39.819 1034.53 39.9325C1034.58 40.046 1034.65 40.1492 1034.73 40.236C1034.82 40.3229 1034.92 40.3917 1035.04 40.4387C1035.15 40.4857 1035.27 40.5098 1035.4 40.5097L1043.8 40.5093C1043.92 40.5094 1044.05 40.4852 1044.16 40.4382C1044.27 40.3912 1044.38 40.3223 1044.46 40.2354C1044.55 40.1485 1044.62 40.0454 1044.67 39.9319C1044.71 39.8183 1044.74 39.6967 1044.74 39.5738V27.4127H1049.28C1049.63 27.4127 1049.95 27.2157 1050.12 26.9044C1050.19 26.7515 1050.23 26.5798 1050.22 26.4082C1050.2 26.2366 1050.14 26.0718 1050.04 25.9321Z" fill="#4CD681"/>
<path d="M1083.83 38.3723C1083.83 39.4894 1082.92 40.3919 1081.8 40.3919H1073.66C1072.53 40.3919 1071.62 39.4894 1071.62 38.3723C1071.62 37.2552 1072.53 36.3527 1073.66 36.3527H1079.76V30.294C1079.76 29.1769 1080.67 28.2744 1081.8 28.2744H1087.9V22.2157C1087.9 21.0986 1088.81 20.1961 1089.94 20.1961H1096.04V14.1374C1096.04 13.0203 1096.95 12.1178 1098.08 12.1178H1106.22C1107.34 12.1178 1108.25 13.0203 1108.25 14.1374C1108.25 15.2545 1107.34 16.157 1106.22 16.157H1100.11V22.2157C1100.11 23.3328 1099.2 24.2353 1098.08 24.2353H1091.97V30.294C1091.97 31.4111 1091.06 32.3136 1089.94 32.3136H1083.83V38.3723Z" fill="#4CD681"/>
<path fill-rule="evenodd" clip-rule="evenodd" d="M766.047 58.5613C763.712 58.5613 761.82 60.4483 761.82 62.7761V68.355H756.226C753.892 68.355 752 70.2421 752 72.5698C752 74.8976 753.892 76.7846 756.226 76.7846H761.82V82.3635C761.82 84.6913 763.712 86.5783 766.047 86.5783C768.381 86.5783 770.273 84.6913 770.273 82.3635V76.7846H775.867C778.201 76.7846 780.093 74.8976 780.093 72.5698C780.093 70.2421 778.201 68.355 775.867 68.355H770.273V62.7761C770.273 60.4483 768.381 58.5613 766.047 58.5613Z" fill="#4CD681"/>
<path d="M797.446 72.2471L807.161 58.7058C807.248 58.585 807.362 58.4865 807.494 58.4186C807.627 58.3506 807.774 58.3151 807.923 58.315H807.925C808.074 58.3153 808.222 58.3512 808.354 58.4197C808.487 58.4881 808.602 58.5872 808.688 58.7087L818.34 72.25C818.44 72.39 818.499 72.5547 818.511 72.7261C818.523 72.8974 818.488 73.0687 818.408 73.2213C818.33 73.374 818.21 73.5021 818.063 73.5914C817.916 73.6807 817.747 73.7277 817.575 73.7273H813.032L813.033 85.8895C813.033 86.0123 813.009 86.134 812.961 86.2475C812.914 86.361 812.845 86.4641 812.758 86.551C812.671 86.6378 812.567 86.7067 812.454 86.7537C812.34 86.8006 812.218 86.8247 812.095 86.8246L803.69 86.8243C803.567 86.8243 803.445 86.8002 803.331 86.7532C803.218 86.7062 803.114 86.6373 803.027 86.5504C802.94 86.4635 802.871 86.3603 802.824 86.2468C802.777 86.1333 802.752 86.0116 802.752 85.8888V73.7277H798.209C797.858 73.7277 797.537 73.5306 797.375 73.2194C797.296 73.0665 797.261 72.8948 797.273 72.7232C797.286 72.5516 797.346 72.3868 797.446 72.2471Z" fill="#4CD681"/>
<path d="M852.126 84.6873C852.126 85.8043 851.217 86.7068 850.091 86.7068H841.952C840.826 86.7068 839.917 85.8043 839.917 84.6873C839.917 83.5702 840.826 82.6677 841.952 82.6677H848.056V76.609C848.056 75.4919 848.966 74.5894 850.091 74.5894H856.196V68.5307C856.196 67.4136 857.105 66.5111 858.231 66.5111H864.335V60.4524C864.335 59.3353 865.245 58.4328 866.37 58.4328H874.509C875.635 58.4328 876.544 59.3353 876.544 60.4524C876.544 61.5694 875.635 62.4719 874.509 62.4719H868.405V68.5307C868.405 69.6477 867.496 70.5502 866.37 70.5502H860.266V76.609C860.266 77.726 859.356 78.6285 858.231 78.6285H852.126V84.6873Z" fill="#4CD681"/>
<path d="M908.26 62.7144C911.576 58.0897 918.472 58.0942 921.78 62.7244C922.89 64.2772 923.428 66.1643 923.305 68.0671C923.181 69.97 922.403 71.7721 921.102 73.1693L908.552 86.6458C908.448 86.7575 908.322 86.8466 908.182 86.9076C908.041 86.9685 907.89 87 907.737 87.0001C907.584 87.0002 907.433 86.9689 907.293 86.9082C907.153 86.8474 907.027 86.7585 906.922 86.6469L894.38 73.217C893.065 71.8089 892.281 69.989 892.163 68.0685C892.044 66.1481 892.598 64.2461 893.73 62.6877C897.08 58.0753 903.988 58.1208 907.277 62.7777L907.742 63.4359L908.259 62.7144H908.26Z" fill="#4CD681"/>
<path d="M947.126 72.2471L956.841 58.7058C956.928 58.585 957.042 58.4865 957.174 58.4186C957.307 58.3506 957.454 58.3151 957.603 58.315H957.605C957.754 58.3153 957.902 58.3512 958.034 58.4197C958.167 58.4881 958.282 58.5872 958.368 58.7087L968.02 72.25C968.12 72.39 968.179 72.5547 968.191 72.7261C968.203 72.8974 968.168 73.0687 968.088 73.2213C968.01 73.374 967.89 73.5021 967.743 73.5914C967.596 73.6807 967.427 73.7277 967.255 73.7273H962.712L962.713 85.8895C962.713 86.0123 962.689 86.134 962.641 86.2475C962.594 86.361 962.525 86.4641 962.438 86.551C962.351 86.6378 962.247 86.7067 962.134 86.7537C962.02 86.8006 961.898 86.8247 961.775 86.8246L953.37 86.8243C953.247 86.8243 953.125 86.8002 953.011 86.7532C952.898 86.7062 952.794 86.6373 952.707 86.5504C952.62 86.4635 952.551 86.3603 952.504 86.2468C952.457 86.1333 952.432 86.0116 952.432 85.8888V73.7277H947.889C947.538 73.7277 947.217 73.5306 947.055 73.2194C946.976 73.0665 946.941 72.8948 946.953 72.7232C946.966 72.5516 947.026 72.3868 947.126 72.2471Z" fill="#4CD681"/>
<path fill-rule="evenodd" clip-rule="evenodd" d="M999.417 58.5613C997.083 58.5613 995.191 60.4483 995.191 62.7761V68.355H989.597C987.263 68.355 985.371 70.2421 985.371 72.5698C985.371 74.8976 987.263 76.7846 989.597 76.7846H995.191V82.3635C995.191 84.6913 997.083 86.5783 999.417 86.5783C1001.75 86.5783 1003.64 84.6913 1003.64 82.3635V76.7846H1009.24C1011.57 76.7846 1013.46 74.8976 1013.46 72.5698C1013.46 70.2421 1011.57 68.355 1009.24 68.355H1003.64V62.7761C1003.64 60.4483 1001.75 58.5613 999.417 58.5613Z" fill="#4CD681"/>
<path d="M1034.83 84.6873C1034.83 85.8043 1033.92 86.7068 1032.8 86.7068H1024.66C1023.53 86.7068 1022.62 85.8043 1022.62 84.6873C1022.62 83.5702 1023.53 82.6677 1024.66 82.6677H1030.76V76.609C1030.76 75.4919 1031.67 74.5894 1032.8 74.5894H1038.9V68.5307C1038.9 67.4136 1039.81 66.5111 1040.93 66.5111H1047.04V60.4524C1047.04 59.3353 1047.95 58.4328 1049.07 58.4328H1057.21C1058.34 58.4328 1059.25 59.3353 1059.25 60.4524C1059.25 61.5694 1058.34 62.4719 1057.21 62.4719H1051.11V68.5307C1051.11 69.6477 1050.2 70.5502 1049.07 70.5502H1042.97V76.609C1042.97 77.726 1042.06 78.6285 1040.93 78.6285H1034.83V84.6873Z" fill="#4CD681"/>
<path d="M1090.96 62.7144C1094.28 58.0897 1101.18 58.0942 1104.48 62.7244C1105.59 64.2772 1106.13 66.1643 1106.01 68.0671C1105.89 69.97 1105.11 71.7721 1103.81 73.1693L1091.26 86.6458C1091.15 86.7575 1091.03 86.8466 1090.89 86.9076C1090.75 86.9685 1090.59 87 1090.44 87.0001C1090.29 87.0002 1090.14 86.9689 1090 86.9082C1089.86 86.8474 1089.73 86.7585 1089.63 86.6469L1077.08 73.217C1075.77 71.8089 1074.99 69.989 1074.87 68.0685C1074.75 66.1481 1075.3 64.2461 1076.43 62.6877C1079.78 58.0753 1086.69 58.1208 1089.98 62.7777L1090.45 63.4359L1090.96 62.7144H1090.96Z" fill="#4CD681"/>
</g>
<g opacity="0.1">
<path d="M410.056 115.932L400.342 102.391C400.255 102.27 400.141 102.172 400.008 102.104C399.876 102.036 399.729 102 399.58 102H399.578C399.428 102 399.281 102.036 399.148 102.105C399.015 102.173 398.901 102.272 398.814 102.394L389.162 115.935C389.063 116.075 389.003 116.24 388.991 116.411C388.979 116.582 389.015 116.754 389.094 116.906C389.173 117.059 389.292 117.187 389.439 117.276C389.587 117.366 389.756 117.413 389.928 117.412H394.47L394.47 129.575C394.47 129.697 394.494 129.819 394.541 129.933C394.588 130.046 394.657 130.149 394.744 130.236C394.832 130.323 394.935 130.392 395.049 130.439C395.163 130.486 395.285 130.51 395.408 130.51L403.812 130.509C403.935 130.509 404.057 130.485 404.171 130.438C404.285 130.391 404.388 130.322 404.475 130.235C404.563 130.149 404.632 130.045 404.679 129.932C404.726 129.818 404.75 129.697 404.75 129.574V117.413H409.293C409.644 117.413 409.966 117.216 410.128 116.904C410.207 116.752 410.242 116.58 410.229 116.408C410.217 116.237 410.157 116.072 410.056 115.932Z" fill="#4CD681"/>
<path d="M448.922 106.399C445.606 101.775 438.71 101.779 435.402 106.409C434.293 107.962 433.754 109.849 433.877 111.752C434.001 113.655 434.779 115.457 436.08 116.854L448.63 130.331C448.735 130.443 448.861 130.532 449.001 130.593C449.141 130.654 449.292 130.685 449.445 130.685C449.598 130.685 449.749 130.654 449.889 130.593C450.03 130.532 450.156 130.443 450.26 130.332L462.803 116.902C464.117 115.494 464.901 113.674 465.02 111.754C465.138 109.833 464.584 107.931 463.453 106.373C460.102 101.76 453.194 101.806 449.905 106.463L449.441 107.121L448.923 106.399H448.922Z" fill="#4CD681"/>
<path fill-rule="evenodd" clip-rule="evenodd" d="M490.458 102.246C492.793 102.246 494.685 104.133 494.685 106.461V112.04H500.279C502.613 112.04 504.505 113.927 504.505 116.255C504.505 118.583 502.613 120.47 500.279 120.47H494.685V126.049C494.685 128.376 492.793 130.263 490.458 130.263C488.124 130.263 486.232 128.376 486.232 126.049V120.47H480.638C478.304 120.47 476.412 118.583 476.412 116.255C476.412 113.927 478.304 112.04 480.638 112.04H486.232V106.461C486.232 104.133 488.124 102.246 490.458 102.246Z" fill="#4CD681"/>
<path d="M525.871 128.372C525.871 129.489 524.962 130.392 523.836 130.392H515.697C514.571 130.392 513.662 129.489 513.662 128.372C513.662 127.255 514.571 126.353 515.697 126.353H521.801V120.294C521.801 119.177 522.711 118.274 523.836 118.274H529.941V112.216C529.941 111.099 530.85 110.196 531.975 110.196H538.08V104.137C538.08 103.02 538.989 102.118 540.115 102.118H548.254C549.38 102.118 550.289 103.02 550.289 104.137C550.289 105.254 549.38 106.157 548.254 106.157H542.15V112.216C542.15 113.333 541.24 114.235 540.115 114.235H534.01V120.294C534.01 121.411 533.101 122.314 531.975 122.314H525.871V128.372Z" fill="#4CD681"/>
<path d="M580.959 106.399C577.643 101.775 570.747 101.779 567.439 106.409C566.329 107.962 565.791 109.849 565.914 111.752C566.038 113.655 566.816 115.457 568.117 116.854L580.667 130.331C580.771 130.443 580.897 130.532 581.037 130.593C581.178 130.654 581.329 130.685 581.482 130.685C581.635 130.685 581.786 130.654 581.926 130.593C582.066 130.532 582.192 130.443 582.297 130.332L594.839 116.902C596.154 115.494 596.938 113.674 597.056 111.754C597.175 109.833 596.621 107.931 595.489 106.373C592.139 101.76 585.231 101.806 581.942 106.463L581.477 107.121L580.96 106.399H580.959Z" fill="#4CD681"/>
<path fill-rule="evenodd" clip-rule="evenodd" d="M622.495 102.246C624.829 102.246 626.721 104.133 626.721 106.461V112.04H632.315C634.65 112.04 636.542 113.927 636.542 116.255C636.542 118.583 634.65 120.47 632.315 120.47H626.721V126.049C626.721 128.376 624.829 130.263 622.495 130.263C620.161 130.263 618.269 128.376 618.269 126.049V120.47H612.675C610.341 120.47 608.449 118.583 608.449 116.255C608.449 113.927 610.341 112.04 612.675 112.04H618.269V106.461C618.269 104.133 620.161 102.246 622.495 102.246Z" fill="#4CD681"/>
<path d="M674.786 115.932L665.072 102.391C664.985 102.27 664.871 102.172 664.738 102.104C664.606 102.036 664.459 102 664.31 102H664.308C664.158 102 664.011 102.036 663.878 102.105C663.745 102.173 663.631 102.272 663.544 102.394L653.892 115.935C653.793 116.075 653.733 116.24 653.721 116.411C653.709 116.582 653.745 116.754 653.824 116.906C653.903 117.059 654.022 117.187 654.17 117.276C654.317 117.366 654.486 117.413 654.658 117.412H659.2L659.2 129.575C659.2 129.697 659.224 129.819 659.271 129.933C659.318 130.046 659.387 130.149 659.474 130.236C659.562 130.323 659.665 130.392 659.779 130.439C659.893 130.486 660.015 130.51 660.138 130.51L668.542 130.509C668.665 130.509 668.787 130.485 668.901 130.438C669.015 130.391 669.118 130.322 669.205 130.235C669.293 130.149 669.362 130.045 669.409 129.932C669.456 129.818 669.48 129.697 669.48 129.574V117.413H674.024C674.374 117.413 674.696 117.216 674.858 116.904C674.937 116.752 674.972 116.58 674.959 116.408C674.947 116.237 674.887 116.072 674.786 115.932Z" fill="#4CD681"/>
<path d="M708.575 128.372C708.575 129.489 707.665 130.392 706.54 130.392H698.4C697.275 130.392 696.366 129.489 696.366 128.372C696.366 127.255 697.275 126.353 698.4 126.353H704.505V120.294C704.505 119.177 705.414 118.274 706.54 118.274H712.644V112.216C712.644 111.099 713.554 110.196 714.679 110.196H720.784V104.137C720.784 103.02 721.693 102.118 722.819 102.118H730.958C732.084 102.118 732.993 103.02 732.993 104.137C732.993 105.254 732.084 106.157 730.958 106.157H724.853V112.216C724.853 113.333 723.944 114.235 722.819 114.235H716.714V120.294C716.714 121.411 715.805 122.314 714.679 122.314H708.575V128.372Z" fill="#4CD681"/>
<path fill-rule="evenodd" clip-rule="evenodd" d="M390.789 148.561C388.455 148.561 386.563 150.448 386.563 152.776V158.355H380.968C378.634 158.355 376.742 160.242 376.742 162.57C376.742 164.898 378.634 166.785 380.968 166.785H386.563V172.364C386.563 174.691 388.455 176.578 390.789 176.578C393.123 176.578 395.015 174.691 395.015 172.364V166.785H400.609C402.943 166.785 404.835 164.898 404.835 162.57C404.835 160.242 402.943 158.355 400.609 158.355H395.015V152.776C395.015 150.448 393.123 148.561 390.789 148.561Z" fill="#4CD681"/>
<path d="M422.189 162.247L431.903 148.706C431.99 148.585 432.104 148.487 432.237 148.419C432.369 148.351 432.516 148.315 432.665 148.315H432.667C432.817 148.315 432.964 148.351 433.097 148.42C433.229 148.488 433.344 148.587 433.431 148.709L443.082 162.25C443.182 162.39 443.241 162.555 443.253 162.726C443.265 162.897 443.23 163.069 443.151 163.221C443.072 163.374 442.952 163.502 442.805 163.591C442.658 163.681 442.489 163.728 442.317 163.727H437.775L437.775 175.889C437.775 176.012 437.751 176.134 437.704 176.248C437.656 176.361 437.587 176.464 437.5 176.551C437.413 176.638 437.31 176.707 437.196 176.754C437.082 176.801 436.96 176.825 436.837 176.825L428.433 176.824C428.309 176.824 428.187 176.8 428.074 176.753C427.96 176.706 427.856 176.637 427.769 176.55C427.682 176.463 427.613 176.36 427.566 176.247C427.519 176.133 427.495 176.012 427.495 175.889V163.728H422.951C422.601 163.728 422.279 163.531 422.117 163.219C422.038 163.066 422.003 162.895 422.015 162.723C422.028 162.552 422.088 162.387 422.189 162.247Z" fill="#4CD681"/>
<path d="M476.868 174.687C476.868 175.804 475.959 176.707 474.833 176.707H466.694C465.569 176.707 464.659 175.804 464.659 174.687C464.659 173.57 465.569 172.668 466.694 172.668H472.799V166.609C472.799 165.492 473.708 164.589 474.833 164.589H480.938V158.531C480.938 157.414 481.847 156.511 482.973 156.511H489.077V150.452C489.077 149.335 489.987 148.433 491.112 148.433H499.252C500.377 148.433 501.286 149.335 501.286 150.452C501.286 151.569 500.377 152.472 499.252 152.472H493.147V158.531C493.147 159.648 492.238 160.55 491.112 160.55H485.008V166.609C485.008 167.726 484.098 168.629 482.973 168.629H476.868V174.687Z" fill="#4CD681"/>
<path d="M533.002 152.714C536.318 148.09 543.214 148.094 546.522 152.724C547.632 154.277 548.171 156.164 548.047 158.067C547.924 159.97 547.146 161.772 545.844 163.169L533.294 176.646C533.19 176.757 533.064 176.847 532.924 176.908C532.784 176.969 532.632 177 532.48 177C532.327 177 532.175 176.969 532.035 176.908C531.895 176.847 531.769 176.758 531.665 176.647L519.122 163.217C517.807 161.809 517.023 159.989 516.905 158.069C516.786 156.148 517.34 154.246 518.472 152.688C521.822 148.075 528.73 148.121 532.02 152.778L532.484 153.436L533.001 152.714H533.002Z" fill="#4CD681"/>
<path d="M571.869 162.247L581.583 148.706C581.67 148.585 581.784 148.487 581.917 148.419C582.049 148.351 582.196 148.315 582.345 148.315H582.347C582.496 148.315 582.644 148.351 582.777 148.42C582.909 148.488 583.024 148.587 583.111 148.709L592.762 162.25C592.862 162.39 592.921 162.555 592.933 162.726C592.945 162.897 592.91 163.069 592.83 163.221C592.752 163.374 592.632 163.502 592.485 163.591C592.338 163.681 592.169 163.728 591.997 163.727H587.455L587.455 175.889C587.455 176.012 587.431 176.134 587.384 176.248C587.336 176.361 587.267 176.464 587.18 176.551C587.093 176.638 586.99 176.707 586.876 176.754C586.762 176.801 586.64 176.825 586.517 176.825L578.113 176.824C577.989 176.824 577.867 176.8 577.754 176.753C577.64 176.706 577.536 176.637 577.449 176.55C577.362 176.463 577.293 176.36 577.246 176.247C577.199 176.133 577.175 176.012 577.175 175.889V163.728H572.631C572.281 163.728 571.959 163.531 571.797 163.219C571.718 163.066 571.683 162.895 571.695 162.723C571.708 162.552 571.768 162.387 571.869 162.247Z" fill="#4CD681"/>
<path fill-rule="evenodd" clip-rule="evenodd" d="M624.16 148.561C621.825 148.561 619.933 150.448 619.933 152.776V158.355H614.339C612.005 158.355 610.113 160.242 610.113 162.57C610.113 164.898 612.005 166.785 614.339 166.785H619.933V172.364C619.933 174.691 621.825 176.578 624.16 176.578C626.494 176.578 628.386 174.691 628.386 172.364V166.785H633.98C636.314 166.785 638.206 164.898 638.206 162.57C638.206 160.242 636.314 158.355 633.98 158.355H628.386V152.776C628.386 150.448 626.494 148.561 624.16 148.561Z" fill="#4CD681"/>
<path d="M659.572 174.687C659.572 175.804 658.663 176.707 657.537 176.707H649.398C648.272 176.707 647.363 175.804 647.363 174.687C647.363 173.57 648.272 172.668 649.398 172.668H655.502V166.609C655.502 165.492 656.412 164.589 657.537 164.589H663.642V158.531C663.642 157.414 664.551 156.511 665.677 156.511H671.781V150.452C671.781 149.335 672.69 148.433 673.816 148.433H681.955C683.081 148.433 683.99 149.335 683.99 150.452C683.99 151.569 683.081 152.472 681.955 152.472H675.851V158.531C675.851 159.648 674.942 160.55 673.816 160.55H667.711V166.609C667.711 167.726 666.802 168.629 665.677 168.629H659.572V174.687Z" fill="#4CD681"/>
<path d="M715.706 152.714C719.022 148.09 725.918 148.094 729.226 152.724C730.336 154.277 730.874 156.164 730.751 158.067C730.627 159.97 729.849 161.772 728.548 163.169L715.998 176.646C715.894 176.757 715.768 176.847 715.628 176.908C715.487 176.969 715.336 177 715.183 177C715.03 177 714.879 176.969 714.739 176.908C714.599 176.847 714.472 176.758 714.368 176.647L701.826 163.217C700.511 161.809 699.727 159.989 699.609 158.069C699.49 156.148 700.044 154.246 701.176 152.688C704.526 148.075 711.434 148.121 714.723 152.778L715.188 153.436L715.705 152.714H715.706Z" fill="#4CD681"/>
</g>
<g opacity="0.1">
<path d="M785.314 115.932L775.599 102.391C775.513 102.27 775.398 102.172 775.266 102.104C775.133 102.036 774.987 102 774.838 102H774.835C774.686 102 774.539 102.036 774.406 102.105C774.273 102.173 774.159 102.272 774.072 102.394L764.42 115.935C764.32 116.075 764.261 116.24 764.249 116.411C764.237 116.582 764.273 116.754 764.352 116.906C764.431 117.059 764.55 117.187 764.697 117.276C764.844 117.366 765.013 117.413 765.186 117.412H769.728L769.728 129.575C769.727 129.697 769.752 129.819 769.799 129.933C769.846 130.046 769.915 130.149 770.002 130.236C770.089 130.323 770.193 130.392 770.307 130.439C770.42 130.486 770.542 130.51 770.666 130.51L779.07 130.509C779.193 130.509 779.315 130.485 779.429 130.438C779.543 130.391 779.646 130.322 779.733 130.235C779.82 130.149 779.889 130.045 779.937 129.932C779.984 129.818 780.008 129.697 780.008 129.574V117.413H784.551C784.902 117.413 785.224 117.216 785.385 116.904C785.464 116.752 785.5 116.58 785.487 116.408C785.474 116.237 785.414 116.072 785.314 115.932Z" fill="#4CD681"/>
<path d="M824.18 106.399C820.864 101.775 813.968 101.779 810.66 106.409C809.55 107.962 809.012 109.849 809.135 111.752C809.259 113.655 810.037 115.457 811.338 116.854L823.888 130.331C823.992 130.443 824.118 130.532 824.259 130.593C824.399 130.654 824.55 130.685 824.703 130.685C824.856 130.685 825.007 130.654 825.147 130.593C825.287 130.532 825.414 130.443 825.518 130.332L838.06 116.902C839.375 115.494 840.159 113.674 840.278 111.754C840.396 109.833 839.842 107.931 838.711 106.373C835.36 101.76 828.452 101.806 825.163 106.463L824.699 107.121L824.181 106.399H824.18Z" fill="#4CD681"/>
<path fill-rule="evenodd" clip-rule="evenodd" d="M865.716 102.246C868.05 102.246 869.943 104.133 869.943 106.461V112.04H875.537C877.871 112.04 879.763 113.927 879.763 116.255C879.763 118.583 877.871 120.47 875.537 120.47H869.943V126.049C869.943 128.376 868.05 130.263 865.716 130.263C863.382 130.263 861.49 128.376 861.49 126.049V120.47H855.896C853.562 120.47 851.67 118.583 851.67 116.255C851.67 113.927 853.562 112.04 855.896 112.04H861.49V106.461C861.49 104.133 863.382 102.246 865.716 102.246Z" fill="#4CD681"/>
<path d="M901.129 128.372C901.129 129.489 900.219 130.392 899.094 130.392H890.955C889.829 130.392 888.92 129.489 888.92 128.372C888.92 127.255 889.829 126.353 890.955 126.353H897.059V120.294C897.059 119.177 897.968 118.274 899.094 118.274H905.198V112.216C905.198 111.099 906.108 110.196 907.233 110.196H913.338V104.137C913.338 103.02 914.247 102.118 915.373 102.118H923.512C924.638 102.118 925.547 103.02 925.547 104.137C925.547 105.254 924.638 106.157 923.512 106.157H917.408V112.216C917.408 113.333 916.498 114.235 915.373 114.235H909.268V120.294C909.268 121.411 908.359 122.314 907.233 122.314H901.129V128.372Z" fill="#4CD681"/>
<path d="M956.217 106.399C952.901 101.775 946.005 101.779 942.697 106.409C941.587 107.962 941.048 109.849 941.172 111.752C941.295 113.655 942.073 115.457 943.375 116.854L955.925 130.331C956.029 130.443 956.155 130.532 956.295 130.593C956.435 130.654 956.587 130.685 956.739 130.685C956.892 130.685 957.044 130.654 957.184 130.593C957.324 130.532 957.45 130.443 957.555 130.332L970.097 116.902C971.412 115.494 972.196 113.674 972.314 111.754C972.433 109.833 971.879 107.931 970.747 106.373C967.397 101.76 960.489 101.806 957.199 106.463L956.735 107.121L956.218 106.399H956.217Z" fill="#4CD681"/>
<path fill-rule="evenodd" clip-rule="evenodd" d="M997.753 102.246C1000.09 102.246 1001.98 104.133 1001.98 106.461V112.04H1007.57C1009.91 112.04 1011.8 113.927 1011.8 116.255C1011.8 118.583 1009.91 120.47 1007.57 120.47H1001.98V126.049C1001.98 128.376 1000.09 130.263 997.753 130.263C995.419 130.263 993.527 128.376 993.527 126.049V120.47H987.933C985.598 120.47 983.706 118.583 983.706 116.255C983.706 113.927 985.598 112.04 987.933 112.04H993.527V106.461C993.527 104.133 995.419 102.246 997.753 102.246Z" fill="#4CD681"/>
<path d="M1050.04 115.932L1040.33 102.391C1040.24 102.27 1040.13 102.172 1040 102.104C1039.86 102.036 1039.72 102 1039.57 102H1039.57C1039.42 102 1039.27 102.036 1039.14 102.105C1039 102.173 1038.89 102.272 1038.8 102.394L1029.15 115.935C1029.05 116.075 1028.99 116.24 1028.98 116.411C1028.97 116.582 1029 116.754 1029.08 116.906C1029.16 117.059 1029.28 117.187 1029.43 117.276C1029.57 117.366 1029.74 117.413 1029.92 117.412H1034.46L1034.46 129.575C1034.46 129.697 1034.48 129.819 1034.53 129.933C1034.58 130.046 1034.65 130.149 1034.73 130.236C1034.82 130.323 1034.92 130.392 1035.04 130.439C1035.15 130.486 1035.27 130.51 1035.4 130.51L1043.8 130.509C1043.92 130.509 1044.05 130.485 1044.16 130.438C1044.27 130.391 1044.38 130.322 1044.46 130.235C1044.55 130.149 1044.62 130.045 1044.67 129.932C1044.71 129.818 1044.74 129.697 1044.74 129.574V117.413H1049.28C1049.63 117.413 1049.95 117.216 1050.12 116.904C1050.19 116.752 1050.23 116.58 1050.22 116.408C1050.2 116.237 1050.14 116.072 1050.04 115.932Z" fill="#4CD681"/>
<path d="M1083.83 128.372C1083.83 129.489 1082.92 130.392 1081.8 130.392H1073.66C1072.53 130.392 1071.62 129.489 1071.62 128.372C1071.62 127.255 1072.53 126.353 1073.66 126.353H1079.76V120.294C1079.76 119.177 1080.67 118.274 1081.8 118.274H1087.9V112.216C1087.9 111.099 1088.81 110.196 1089.94 110.196H1096.04V104.137C1096.04 103.02 1096.95 102.118 1098.08 102.118H1106.22C1107.34 102.118 1108.25 103.02 1108.25 104.137C1108.25 105.254 1107.34 106.157 1106.22 106.157H1100.11V112.216C1100.11 113.333 1099.2 114.235 1098.08 114.235H1091.97V120.294C1091.97 121.411 1091.06 122.314 1089.94 122.314H1083.83V128.372Z" fill="#4CD681"/>
<path fill-rule="evenodd" clip-rule="evenodd" d="M766.047 148.561C763.712 148.561 761.82 150.448 761.82 152.776V158.355H756.226C753.892 158.355 752 160.242 752 162.57C752 164.898 753.892 166.785 756.226 166.785H761.82V172.364C761.82 174.691 763.712 176.578 766.047 176.578C768.381 176.578 770.273 174.691 770.273 172.364V166.785H775.867C778.201 166.785 780.093 164.898 780.093 162.57C780.093 160.242 778.201 158.355 775.867 158.355H770.273V152.776C770.273 150.448 768.381 148.561 766.047 148.561Z" fill="#4CD681"/>
<path d="M797.446 162.247L807.161 148.706C807.248 148.585 807.362 148.487 807.494 148.419C807.627 148.351 807.774 148.315 807.923 148.315H807.925C808.074 148.315 808.222 148.351 808.354 148.42C808.487 148.488 808.602 148.587 808.688 148.709L818.34 162.25C818.44 162.39 818.499 162.555 818.511 162.726C818.523 162.897 818.488 163.069 818.408 163.221C818.33 163.374 818.21 163.502 818.063 163.591C817.916 163.681 817.747 163.728 817.575 163.727H813.032L813.033 175.889C813.033 176.012 813.009 176.134 812.961 176.248C812.914 176.361 812.845 176.464 812.758 176.551C812.671 176.638 812.567 176.707 812.454 176.754C812.34 176.801 812.218 176.825 812.095 176.825L803.69 176.824C803.567 176.824 803.445 176.8 803.331 176.753C803.218 176.706 803.114 176.637 803.027 176.55C802.94 176.463 802.871 176.36 802.824 176.247C802.777 176.133 802.752 176.012 802.752 175.889V163.728H798.209C797.858 163.728 797.537 163.531 797.375 163.219C797.296 163.066 797.261 162.895 797.273 162.723C797.286 162.552 797.346 162.387 797.446 162.247Z" fill="#4CD681"/>
<path d="M852.126 174.687C852.126 175.804 851.217 176.707 850.091 176.707H841.952C840.826 176.707 839.917 175.804 839.917 174.687C839.917 173.57 840.826 172.668 841.952 172.668H848.056V166.609C848.056 165.492 848.966 164.589 850.091 164.589H856.196V158.531C856.196 157.414 857.105 156.511 858.231 156.511H864.335V150.452C864.335 149.335 865.245 148.433 866.37 148.433H874.509C875.635 148.433 876.544 149.335 876.544 150.452C876.544 151.569 875.635 152.472 874.509 152.472H868.405V158.531C868.405 159.648 867.496 160.55 866.37 160.55H860.266V166.609C860.266 167.726 859.356 168.629 858.231 168.629H852.126V174.687Z" fill="#4CD681"/>
<path d="M908.26 152.714C911.576 148.09 918.472 148.094 921.78 152.724C922.89 154.277 923.428 156.164 923.305 158.067C923.181 159.97 922.403 161.772 921.102 163.169L908.552 176.646C908.448 176.757 908.322 176.847 908.182 176.908C908.041 176.969 907.89 177 907.737 177C907.584 177 907.433 176.969 907.293 176.908C907.153 176.847 907.027 176.758 906.922 176.647L894.38 163.217C893.065 161.809 892.281 159.989 892.163 158.069C892.044 156.148 892.598 154.246 893.73 152.688C897.08 148.075 903.988 148.121 907.277 152.778L907.742 153.436L908.259 152.714H908.26Z" fill="#4CD681"/>
<path d="M947.126 162.247L956.841 148.706C956.928 148.585 957.042 148.487 957.174 148.419C957.307 148.351 957.454 148.315 957.603 148.315H957.605C957.754 148.315 957.902 148.351 958.034 148.42C958.167 148.488 958.282 148.587 958.368 148.709L968.02 162.25C968.12 162.39 968.179 162.555 968.191 162.726C968.203 162.897 968.168 163.069 968.088 163.221C968.01 163.374 967.89 163.502 967.743 163.591C967.596 163.681 967.427 163.728 967.255 163.727H962.712L962.713 175.889C962.713 176.012 962.689 176.134 962.641 176.248C962.594 176.361 962.525 176.464 962.438 176.551C962.351 176.638 962.247 176.707 962.134 176.754C962.02 176.801 961.898 176.825 961.775 176.825L953.37 176.824C953.247 176.824 953.125 176.8 953.011 176.753C952.898 176.706 952.794 176.637 952.707 176.55C952.62 176.463 952.551 176.36 952.504 176.247C952.457 176.133 952.432 176.012 952.432 175.889V163.728H947.889C947.538 163.728 947.217 163.531 947.055 163.219C946.976 163.066 946.941 162.895 946.953 162.723C946.966 162.552 947.026 162.387 947.126 162.247Z" fill="#4CD681"/>
<path fill-rule="evenodd" clip-rule="evenodd" d="M999.417 148.561C997.083 148.561 995.191 150.448 995.191 152.776V158.355H989.597C987.263 158.355 985.371 160.242 985.371 162.57C985.371 164.898 987.263 166.785 989.597 166.785H995.191V172.364C995.191 174.691 997.083 176.578 999.417 176.578C1001.75 176.578 1003.64 174.691 1003.64 172.364V166.785H1009.24C1011.57 166.785 1013.46 164.898 1013.46 162.57C1013.46 160.242 1011.57 158.355 1009.24 158.355H1003.64V152.776C1003.64 150.448 1001.75 148.561 999.417 148.561Z" fill="#4CD681"/>
<path d="M1034.83 174.687C1034.83 175.804 1033.92 176.707 1032.8 176.707H1024.66C1023.53 176.707 1022.62 175.804 1022.62 174.687C1022.62 173.57 1023.53 172.668 1024.66 172.668H1030.76V166.609C1030.76 165.492 1031.67 164.589 1032.8 164.589H1038.9V158.531C1038.9 157.414 1039.81 156.511 1040.93 156.511H1047.04V150.452C1047.04 149.335 1047.95 148.433 1049.07 148.433H1057.21C1058.34 148.433 1059.25 149.335 1059.25 150.452C1059.25 151.569 1058.34 152.472 1057.21 152.472H1051.11V158.531C1051.11 159.648 1050.2 160.55 1049.07 160.55H1042.97V166.609C1042.97 167.726 1042.06 168.629 1040.93 168.629H1034.83V174.687Z" fill="#4CD681"/>
<path d="M1090.96 152.714C1094.28 148.09 1101.18 148.094 1104.48 152.724C1105.59 154.277 1106.13 156.164 1106.01 158.067C1105.89 159.97 1105.11 161.772 1103.81 163.169L1091.26 176.646C1091.15 176.757 1091.03 176.847 1090.89 176.908C1090.75 176.969 1090.59 177 1090.44 177C1090.29 177 1090.14 176.969 1090 176.908C1089.86 176.847 1089.73 176.758 1089.63 176.647L1077.08 163.217C1075.77 161.809 1074.99 159.989 1074.87 158.069C1074.75 156.148 1075.3 154.246 1076.43 152.688C1079.78 148.075 1086.69 148.121 1089.98 152.778L1090.45 153.436L1090.96 152.714H1090.96Z" fill="#4CD681"/>
</g>
<g opacity="0.1">
<path d="M46.3138 25.9321L36.5994 12.3908C36.5127 12.27 36.3983 12.1716 36.2659 12.1036C36.1334 12.0357 35.9866 12.0001 35.8377 12H35.8354C35.6859 12.0003 35.5387 12.0362 35.4058 12.1047C35.273 12.1732 35.1585 12.2723 35.0719 12.3938L25.4201 25.9351C25.3204 26.0751 25.2612 26.2398 25.2492 26.4111C25.2371 26.5825 25.2727 26.7538 25.3519 26.9063C25.4307 27.059 25.5502 27.1871 25.6973 27.2764C25.8444 27.3657 26.0134 27.4127 26.1856 27.4123H30.7279L30.7275 39.5745C30.7275 39.6974 30.7517 39.819 30.7988 39.9325C30.846 40.046 30.9151 40.1492 31.0022 40.236C31.0893 40.3229 31.1927 40.3917 31.3066 40.4387C31.4204 40.4857 31.5424 40.5098 31.6656 40.5097L40.0698 40.5093C40.193 40.5094 40.315 40.4852 40.4288 40.4382C40.5427 40.3912 40.6461 40.3223 40.7332 40.2354C40.8203 40.1485 40.8894 40.0454 40.9366 39.9319C40.9837 39.8183 41.0079 39.6967 41.0079 39.5738V27.4127H45.5513C45.9018 27.4127 46.2235 27.2157 46.3853 26.9044C46.4644 26.7515 46.4996 26.5798 46.487 26.4082C46.4743 26.2366 46.4144 26.0718 46.3138 25.9321Z" fill="#4CD681"/>
<path d="M85.1799 16.3994C81.864 11.7748 74.9682 11.7792 71.6601 16.4094C70.5504 17.9622 70.0118 19.8493 70.1353 21.7522C70.2588 23.655 71.0368 25.4571 72.338 26.8543L84.8883 40.3308C84.9924 40.4425 85.1184 40.5316 85.2586 40.5926C85.3987 40.6536 85.55 40.6851 85.7029 40.6852C85.8558 40.6853 86.007 40.654 86.1473 40.5932C86.2875 40.5324 86.4137 40.4435 86.5179 40.3319L99.0605 26.902C100.375 25.4939 101.159 23.6741 101.278 21.7536C101.396 19.8331 100.842 17.9311 99.7105 16.3728C96.36 11.7603 89.4521 11.8058 86.1628 16.4627L85.6987 17.121L85.1811 16.3994H85.1799Z" fill="#4CD681"/>
<path fill-rule="evenodd" clip-rule="evenodd" d="M126.716 12.2463C129.05 12.2463 130.943 14.1334 130.943 16.4611V22.0401H136.537C138.871 22.0401 140.763 23.9271 140.763 26.2548C140.763 28.5826 138.871 30.4696 136.537 30.4696H130.943V36.0486C130.943 38.3763 129.05 40.2633 126.716 40.2633C124.382 40.2633 122.49 38.3763 122.49 36.0486V30.4696H116.896C114.562 30.4696 112.67 28.5826 112.67 26.2548C112.67 23.9271 114.562 22.0401 116.896 22.0401H122.49V16.4611C122.49 14.1334 124.382 12.2463 126.716 12.2463Z" fill="#4CD681"/>
<path d="M162.129 38.3723C162.129 39.4894 161.219 40.3919 160.094 40.3919H151.955C150.829 40.3919 149.92 39.4894 149.92 38.3723C149.92 37.2552 150.829 36.3527 151.955 36.3527H158.059V30.294C158.059 29.1769 158.968 28.2744 160.094 28.2744H166.198V22.2157C166.198 21.0986 167.108 20.1961 168.233 20.1961H174.338V14.1374C174.338 13.0203 175.247 12.1178 176.373 12.1178H184.512C185.638 12.1178 186.547 13.0203 186.547 14.1374C186.547 15.2545 185.638 16.157 184.512 16.157H178.408V22.2157C178.408 23.3328 177.498 24.2353 176.373 24.2353H170.268V30.294C170.268 31.4111 169.359 32.3136 168.233 32.3136H162.129V38.3723Z" fill="#4CD681"/>
<path d="M217.217 16.3994C213.901 11.7748 207.005 11.7792 203.697 16.4094C202.587 17.9622 202.048 19.8493 202.172 21.7522C202.295 23.655 203.073 25.4571 204.375 26.8543L216.925 40.3308C217.029 40.4425 217.155 40.5316 217.295 40.5926C217.435 40.6536 217.587 40.6851 217.739 40.6852C217.892 40.6853 218.044 40.654 218.184 40.5932C218.324 40.5324 218.45 40.4435 218.555 40.3319L231.097 26.902C232.412 25.4939 233.196 23.6741 233.314 21.7536C233.433 19.8331 232.879 17.9311 231.747 16.3728C228.397 11.7603 221.489 11.8058 218.199 16.4627L217.735 17.121L217.218 16.3994H217.217Z" fill="#4CD681"/>
<path fill-rule="evenodd" clip-rule="evenodd" d="M258.753 12.2463C261.087 12.2463 262.979 14.1334 262.979 16.4611V22.0401H268.573C270.907 22.0401 272.8 23.9271 272.8 26.2548C272.8 28.5826 270.907 30.4696 268.573 30.4696H262.979V36.0486C262.979 38.3763 261.087 40.2633 258.753 40.2633C256.419 40.2633 254.527 38.3763 254.527 36.0486V30.4696H248.933C246.598 30.4696 244.706 28.5826 244.706 26.2548C244.706 23.9271 246.598 22.0401 248.933 22.0401H254.527V16.4611C254.527 14.1334 256.419 12.2463 258.753 12.2463Z" fill="#4CD681"/>
<path d="M311.044 25.9321L301.329 12.3908C301.243 12.27 301.128 12.1716 300.996 12.1036C300.864 12.0357 300.717 12.0001 300.568 12H300.566C300.416 12.0003 300.269 12.0362 300.136 12.1047C300.003 12.1732 299.889 12.2723 299.802 12.3938L290.15 25.9351C290.05 26.0751 289.991 26.2398 289.979 26.4111C289.967 26.5825 290.003 26.7538 290.082 26.9063C290.161 27.059 290.28 27.1871 290.427 27.2764C290.574 27.3657 290.743 27.4127 290.916 27.4123H295.458L295.458 39.5745C295.458 39.6974 295.482 39.819 295.529 39.9325C295.576 40.046 295.645 40.1492 295.732 40.236C295.819 40.3229 295.923 40.3917 296.037 40.4387C296.151 40.4857 296.272 40.5098 296.396 40.5097L304.8 40.5093C304.923 40.5094 305.045 40.4852 305.159 40.4382C305.273 40.3912 305.376 40.3223 305.463 40.2354C305.55 40.1485 305.62 40.0454 305.667 39.9319C305.714 39.8183 305.738 39.6967 305.738 39.5738V27.4127H310.281C310.632 27.4127 310.954 27.2157 311.115 26.9044C311.195 26.7515 311.23 26.5798 311.217 26.4082C311.204 26.2366 311.144 26.0718 311.044 25.9321Z" fill="#4CD681"/>
<path d="M344.832 38.3723C344.832 39.4894 343.923 40.3919 342.798 40.3919H334.658C333.533 40.3919 332.623 39.4894 332.623 38.3723C332.623 37.2552 333.533 36.3527 334.658 36.3527H340.763V30.294C340.763 29.1769 341.672 28.2744 342.798 28.2744H348.902V22.2157C348.902 21.0986 349.811 20.1961 350.937 20.1961H357.042V14.1374C357.042 13.0203 357.951 12.1178 359.076 12.1178H367.216C368.341 12.1178 369.251 13.0203 369.251 14.1374C369.251 15.2545 368.341 16.157 367.216 16.157H361.111V22.2157C361.111 23.3328 360.202 24.2353 359.076 24.2353H352.972V30.294C352.972 31.4111 352.063 32.3136 350.937 32.3136H344.832V38.3723Z" fill="#4CD681"/>
<path fill-rule="evenodd" clip-rule="evenodd" d="M27.0466 58.5613C24.7125 58.5613 22.8204 60.4483 22.8204 62.7761V68.355H17.2262C14.8921 68.355 13 70.2421 13 72.5698C13 74.8976 14.8921 76.7846 17.2262 76.7846H22.8204V82.3635C22.8204 84.6913 24.7125 86.5783 27.0466 86.5783C29.3807 86.5783 31.2728 84.6913 31.2728 82.3635V76.7846H36.8669C39.201 76.7846 41.0932 74.8976 41.0932 72.5698C41.0932 70.2421 39.201 68.355 36.8669 68.355H31.2728V62.7761C31.2728 60.4483 29.3807 58.5613 27.0466 58.5613Z" fill="#4CD681"/>
<path d="M58.4465 72.2471L68.1609 58.7058C68.2476 58.585 68.3619 58.4865 68.4944 58.4186C68.6268 58.3506 68.7736 58.3151 68.9226 58.315H68.9248C69.0743 58.3153 69.2216 58.3512 69.3544 58.4197C69.4872 58.4881 69.6017 58.5872 69.6884 58.7087L79.3401 72.25C79.4399 72.39 79.499 72.5547 79.5111 72.7261C79.5231 72.8974 79.4876 73.0687 79.4083 73.2213C79.3296 73.374 79.2101 73.5021 79.063 73.5914C78.9158 73.6807 78.7469 73.7277 78.5747 73.7273H74.0323L74.0327 85.8895C74.0328 86.0123 74.0085 86.134 73.9614 86.2475C73.9143 86.361 73.8452 86.4641 73.7581 86.551C73.6709 86.6378 73.5675 86.7067 73.4537 86.7537C73.3398 86.8006 73.2178 86.8247 73.0947 86.8246L64.6905 86.8243C64.5673 86.8243 64.4452 86.8002 64.3314 86.7532C64.2176 86.7062 64.1141 86.6373 64.027 86.5504C63.9399 86.4635 63.8708 86.3603 63.8237 86.2468C63.7766 86.1333 63.7523 86.0116 63.7524 85.8888V73.7277H59.2089C58.8585 73.7277 58.5367 73.5306 58.3749 73.2194C58.2958 73.0665 58.2606 72.8948 58.2733 72.7232C58.2859 72.5516 58.3459 72.3868 58.4465 72.2471Z" fill="#4CD681"/>
<path d="M113.126 84.6873C113.126 85.8043 112.217 86.7068 111.091 86.7068H102.952C101.826 86.7068 100.917 85.8043 100.917 84.6873C100.917 83.5702 101.826 82.6677 102.952 82.6677H109.056V76.609C109.056 75.4919 109.966 74.5894 111.091 74.5894H117.196V68.5307C117.196 67.4136 118.105 66.5111 119.231 66.5111H125.335V60.4524C125.335 59.3353 126.245 58.4328 127.37 58.4328H135.509C136.635 58.4328 137.544 59.3353 137.544 60.4524C137.544 61.5694 136.635 62.4719 135.509 62.4719H129.405V68.5307C129.405 69.6477 128.496 70.5502 127.37 70.5502H121.266V76.609C121.266 77.726 120.356 78.6285 119.231 78.6285H113.126V84.6873Z" fill="#4CD681"/>
<path d="M169.26 62.7144C172.576 58.0897 179.472 58.0942 182.78 62.7244C183.89 64.2772 184.428 66.1643 184.305 68.0671C184.181 69.97 183.403 71.7721 182.102 73.1693L169.552 86.6458C169.448 86.7575 169.322 86.8466 169.182 86.9076C169.041 86.9685 168.89 87 168.737 87.0001C168.584 87.0002 168.433 86.9689 168.293 86.9082C168.153 86.8474 168.027 86.7585 167.922 86.6469L155.38 73.217C154.065 71.8089 153.281 69.989 153.163 68.0685C153.044 66.1481 153.598 64.2461 154.73 62.6877C158.08 58.0753 164.988 58.1208 168.277 62.7777L168.742 63.4359L169.259 62.7144H169.26Z" fill="#4CD681"/>
<path d="M208.126 72.2471L217.841 58.7058C217.928 58.585 218.042 58.4865 218.174 58.4186C218.307 58.3506 218.454 58.3151 218.603 58.315H218.605C218.754 58.3153 218.902 58.3512 219.034 58.4197C219.167 58.4881 219.282 58.5872 219.368 58.7087L229.02 72.25C229.12 72.39 229.179 72.5547 229.191 72.7261C229.203 72.8974 229.168 73.0687 229.088 73.2213C229.01 73.374 228.89 73.5021 228.743 73.5914C228.596 73.6807 228.427 73.7277 228.255 73.7273H223.712L223.713 85.8895C223.713 86.0123 223.689 86.134 223.641 86.2475C223.594 86.361 223.525 86.4641 223.438 86.551C223.351 86.6378 223.247 86.7067 223.134 86.7537C223.02 86.8006 222.898 86.8247 222.775 86.8246L214.37 86.8243C214.247 86.8243 214.125 86.8002 214.011 86.7532C213.898 86.7062 213.794 86.6373 213.707 86.5504C213.62 86.4635 213.551 86.3603 213.504 86.2468C213.457 86.1333 213.432 86.0116 213.432 85.8888V73.7277H208.889C208.538 73.7277 208.217 73.5306 208.055 73.2194C207.976 73.0665 207.941 72.8948 207.953 72.7232C207.966 72.5516 208.026 72.3868 208.126 72.2471Z" fill="#4CD681"/>
<path fill-rule="evenodd" clip-rule="evenodd" d="M260.417 58.5613C258.083 58.5613 256.191 60.4483 256.191 62.7761V68.355H250.597C248.263 68.355 246.371 70.2421 246.371 72.5698C246.371 74.8976 248.263 76.7846 250.597 76.7846H256.191V82.3635C256.191 84.6913 258.083 86.5783 260.417 86.5783C262.751 86.5783 264.644 84.6913 264.644 82.3635V76.7846H270.238C272.572 76.7846 274.464 74.8976 274.464 72.5698C274.464 70.2421 272.572 68.355 270.238 68.355H264.644V62.7761C264.644 60.4483 262.751 58.5613 260.417 58.5613Z" fill="#4CD681"/>
<path d="M295.83 84.6873C295.83 85.8043 294.921 86.7068 293.795 86.7068H285.656C284.53 86.7068 283.621 85.8043 283.621 84.6873C283.621 83.5702 284.53 82.6677 285.656 82.6677H291.76V76.609C291.76 75.4919 292.67 74.5894 293.795 74.5894H299.9V68.5307C299.9 67.4136 300.809 66.5111 301.934 66.5111H308.039V60.4524C308.039 59.3353 308.948 58.4328 310.074 58.4328H318.213C319.339 58.4328 320.248 59.3353 320.248 60.4524C320.248 61.5694 319.339 62.4719 318.213 62.4719H312.109V68.5307C312.109 69.6477 311.199 70.5502 310.074 70.5502H303.969V76.609C303.969 77.726 303.06 78.6285 301.934 78.6285H295.83V84.6873Z" fill="#4CD681"/>
<path d="M351.964 62.7144C355.28 58.0897 362.176 58.0942 365.484 62.7244C366.594 64.2772 367.132 66.1643 367.009 68.0671C366.885 69.97 366.107 71.7721 364.806 73.1693L352.256 86.6458C352.152 86.7575 352.026 86.8466 351.885 86.9076C351.745 86.9685 351.594 87 351.441 87.0001C351.288 87.0002 351.137 86.9689 350.997 86.9082C350.856 86.8474 350.73 86.7585 350.626 86.6469L338.084 73.217C336.769 71.8089 335.985 69.989 335.866 68.0685C335.748 66.1481 336.302 64.2461 337.433 62.6877C340.784 58.0753 347.692 58.1208 350.981 62.7777L351.445 63.4359L351.963 62.7144H351.964Z" fill="#4CD681"/>
</g>
<g opacity="0.1">
<path d="M46.3138 115.932L36.5994 102.391C36.5127 102.27 36.3983 102.172 36.2659 102.104C36.1334 102.036 35.9866 102 35.8377 102H35.8354C35.6859 102 35.5387 102.036 35.4058 102.105C35.273 102.173 35.1585 102.272 35.0719 102.394L25.4201 115.935C25.3204 116.075 25.2612 116.24 25.2492 116.411C25.2371 116.582 25.2727 116.754 25.3519 116.906C25.4307 117.059 25.5502 117.187 25.6973 117.276C25.8444 117.366 26.0134 117.413 26.1856 117.412H30.7279L30.7275 129.575C30.7275 129.697 30.7517 129.819 30.7988 129.933C30.846 130.046 30.9151 130.149 31.0022 130.236C31.0893 130.323 31.1927 130.392 31.3066 130.439C31.4204 130.486 31.5424 130.51 31.6656 130.51L40.0698 130.509C40.193 130.509 40.315 130.485 40.4288 130.438C40.5427 130.391 40.6461 130.322 40.7332 130.235C40.8203 130.149 40.8894 130.045 40.9366 129.932C40.9837 129.818 41.0079 129.697 41.0079 129.574V117.413H45.5513C45.9018 117.413 46.2235 117.216 46.3853 116.904C46.4644 116.752 46.4996 116.58 46.487 116.408C46.4743 116.237 46.4144 116.072 46.3138 115.932Z" fill="#4CD681"/>
<path fill-rule="evenodd" clip-rule="evenodd" d="M126.716 102.246C129.05 102.246 130.943 104.133 130.943 106.461V112.04H136.537C138.871 112.04 140.763 113.927 140.763 116.255C140.763 118.583 138.871 120.47 136.537 120.47H130.943V126.049C130.943 128.376 129.05 130.263 126.716 130.263C124.382 130.263 122.49 128.376 122.49 126.049V120.47H116.896C114.562 120.47 112.67 118.583 112.67 116.255C112.67 113.927 114.562 112.04 116.896 112.04H122.49V106.461C122.49 104.133 124.382 102.246 126.716 102.246Z" fill="#4CD681"/>
<path d="M162.129 128.372C162.129 129.489 161.219 130.392 160.094 130.392H151.955C150.829 130.392 149.92 129.489 149.92 128.372C149.92 127.255 150.829 126.353 151.955 126.353H158.059V120.294C158.059 119.177 158.968 118.274 160.094 118.274H166.198V112.216C166.198 111.099 167.108 110.196 168.233 110.196H174.338V104.137C174.338 103.02 175.247 102.118 176.373 102.118H184.512C185.638 102.118 186.547 103.02 186.547 104.137C186.547 105.254 185.638 106.157 184.512 106.157H178.408V112.216C178.408 113.333 177.498 114.235 176.373 114.235H170.268V120.294C170.268 121.411 169.359 122.314 168.233 122.314H162.129V128.372Z" fill="#4CD681"/>
<path d="M217.217 106.399C213.901 101.775 207.005 101.779 203.697 106.409C202.587 107.962 202.048 109.849 202.172 111.752C202.295 113.655 203.073 115.457 204.375 116.854L216.925 130.331C217.029 130.443 217.155 130.532 217.295 130.593C217.435 130.654 217.587 130.685 217.74 130.685C217.892 130.685 218.044 130.654 218.184 130.593C218.324 130.532 218.45 130.443 218.555 130.332L231.097 116.902C232.412 115.494 233.196 113.674 233.314 111.754C233.433 109.833 232.879 107.931 231.747 106.373C228.397 101.76 221.489 101.806 218.199 106.463L217.735 107.121L217.218 106.399H217.217Z" fill="#4CD681"/>
<path fill-rule="evenodd" clip-rule="evenodd" d="M258.753 102.246C261.087 102.246 262.979 104.133 262.979 106.461V112.04H268.573C270.907 112.04 272.799 113.927 272.799 116.255C272.799 118.583 270.907 120.47 268.573 120.47H262.979V126.049C262.979 128.376 261.087 130.263 258.753 130.263C256.419 130.263 254.527 128.376 254.527 126.049V120.47H248.933C246.598 120.47 244.706 118.583 244.706 116.255C244.706 113.927 246.598 112.04 248.933 112.04H254.527V106.461C254.527 104.133 256.419 102.246 258.753 102.246Z" fill="#4CD681"/>
<path d="M311.044 115.932L301.329 102.391C301.243 102.27 301.128 102.172 300.996 102.104C300.864 102.036 300.717 102 300.568 102H300.566C300.416 102 300.269 102.036 300.136 102.105C300.003 102.173 299.889 102.272 299.802 102.394L290.15 115.935C290.05 116.075 289.991 116.24 289.979 116.411C289.967 116.582 290.003 116.754 290.082 116.906C290.161 117.059 290.28 117.187 290.427 117.276C290.574 117.366 290.743 117.413 290.916 117.412H295.458L295.458 129.575C295.458 129.697 295.482 129.819 295.529 129.933C295.576 130.046 295.645 130.149 295.732 130.236C295.819 130.323 295.923 130.392 296.037 130.439C296.151 130.486 296.272 130.51 296.396 130.51L304.8 130.509C304.923 130.509 305.045 130.485 305.159 130.438C305.273 130.391 305.376 130.322 305.463 130.235C305.55 130.149 305.62 130.045 305.667 129.932C305.714 129.818 305.738 129.697 305.738 129.574V117.413H310.281C310.632 117.413 310.954 117.216 311.115 116.904C311.195 116.752 311.23 116.58 311.217 116.408C311.204 116.237 311.144 116.072 311.044 115.932Z" fill="#4CD681"/>
<path d="M344.832 128.372C344.832 129.489 343.923 130.392 342.798 130.392H334.658C333.533 130.392 332.623 129.489 332.623 128.372C332.623 127.255 333.533 126.353 334.658 126.353H340.763V120.294C340.763 119.177 341.672 118.274 342.798 118.274H348.902V112.216C348.902 111.099 349.811 110.196 350.937 110.196H357.042V104.137C357.042 103.02 357.951 102.118 359.076 102.118H367.216C368.341 102.118 369.251 103.02 369.251 104.137C369.251 105.254 368.341 106.157 367.216 106.157H361.111V112.216C361.111 113.333 360.202 114.235 359.076 114.235H352.972V120.294C352.972 121.411 352.063 122.314 350.937 122.314H344.832V128.372Z" fill="#4CD681"/>
<path fill-rule="evenodd" clip-rule="evenodd" d="M27.0466 148.561C24.7125 148.561 22.8204 150.448 22.8204 152.776V158.355H17.2262C14.8921 158.355 13 160.242 13 162.57C13 164.898 14.8921 166.785 17.2262 166.785H22.8204V172.364C22.8204 174.691 24.7125 176.578 27.0466 176.578C29.3807 176.578 31.2728 174.691 31.2728 172.364V166.785H36.8669C39.201 166.785 41.0932 164.898 41.0932 162.57C41.0932 160.242 39.201 158.355 36.8669 158.355H31.2728V152.776C31.2728 150.448 29.3807 148.561 27.0466 148.561Z" fill="#4CD681"/>
<path d="M58.4465 162.247L68.1609 148.706C68.2476 148.585 68.3619 148.487 68.4944 148.419C68.6268 148.351 68.7736 148.315 68.9226 148.315H68.9248C69.0743 148.315 69.2216 148.351 69.3544 148.42C69.4872 148.488 69.6017 148.587 69.6884 148.709L79.3401 162.25C79.4399 162.39 79.499 162.555 79.5111 162.726C79.5231 162.897 79.4876 163.069 79.4083 163.221C79.3296 163.374 79.2101 163.502 79.063 163.591C78.9158 163.681 78.7469 163.728 78.5747 163.727H74.0323L74.0327 175.889C74.0328 176.012 74.0085 176.134 73.9614 176.248C73.9143 176.361 73.8452 176.464 73.7581 176.551C73.6709 176.638 73.5675 176.707 73.4537 176.754C73.3398 176.801 73.2178 176.825 73.0947 176.825L64.6905 176.824C64.5673 176.824 64.4452 176.8 64.3314 176.753C64.2176 176.706 64.1141 176.637 64.027 176.55C63.9399 176.463 63.8708 176.36 63.8237 176.247C63.7766 176.133 63.7523 176.012 63.7524 175.889V163.728H59.209C58.8585 163.728 58.5367 163.531 58.3749 163.219C58.2958 163.066 58.2606 162.895 58.2733 162.723C58.2859 162.552 58.3458 162.387 58.4465 162.247Z" fill="#4CD681"/>
<path d="M113.126 174.687C113.126 175.804 112.217 176.707 111.091 176.707H102.952C101.826 176.707 100.917 175.804 100.917 174.687C100.917 173.57 101.826 172.668 102.952 172.668H109.056V166.609C109.056 165.492 109.966 164.589 111.091 164.589H117.196V158.531C117.196 157.414 118.105 156.511 119.231 156.511H125.335V150.452C125.335 149.335 126.245 148.433 127.37 148.433H135.509C136.635 148.433 137.544 149.335 137.544 150.452C137.544 151.569 136.635 152.472 135.509 152.472H129.405V158.531C129.405 159.648 128.496 160.55 127.37 160.55H121.266V166.609C121.266 167.726 120.356 168.629 119.231 168.629H113.126V174.687Z" fill="#4CD681"/>
<path d="M169.26 152.714C172.576 148.09 179.472 148.094 182.78 152.724C183.89 154.277 184.428 156.164 184.305 158.067C184.181 159.97 183.403 161.772 182.102 163.169L169.552 176.646C169.448 176.757 169.322 176.847 169.182 176.908C169.041 176.969 168.89 177 168.737 177C168.584 177 168.433 176.969 168.293 176.908C168.153 176.847 168.027 176.758 167.922 176.647L155.38 163.217C154.065 161.809 153.281 159.989 153.163 158.069C153.044 156.148 153.598 154.246 154.73 152.688C158.08 148.075 164.988 148.121 168.277 152.778L168.742 153.436L169.259 152.714H169.26Z" fill="#4CD681"/>
<path d="M208.126 162.247L217.841 148.706C217.928 148.585 218.042 148.487 218.174 148.419C218.307 148.351 218.454 148.315 218.603 148.315H218.605C218.754 148.315 218.902 148.351 219.034 148.42C219.167 148.488 219.282 148.587 219.368 148.709L229.02 162.25C229.12 162.39 229.179 162.555 229.191 162.726C229.203 162.897 229.168 163.069 229.088 163.221C229.01 163.374 228.89 163.502 228.743 163.591C228.596 163.681 228.427 163.728 228.255 163.727H223.712L223.713 175.889C223.713 176.012 223.689 176.134 223.641 176.248C223.594 176.361 223.525 176.464 223.438 176.551C223.351 176.638 223.247 176.707 223.134 176.754C223.02 176.801 222.898 176.825 222.775 176.825L214.37 176.824C214.247 176.824 214.125 176.8 214.011 176.753C213.898 176.706 213.794 176.637 213.707 176.55C213.62 176.463 213.551 176.36 213.504 176.247C213.457 176.133 213.432 176.012 213.432 175.889V163.728H208.889C208.538 163.728 208.217 163.531 208.055 163.219C207.976 163.066 207.941 162.895 207.953 162.723C207.966 162.552 208.026 162.387 208.126 162.247Z" fill="#4CD681"/>
<path fill-rule="evenodd" clip-rule="evenodd" d="M260.417 148.561C258.083 148.561 256.191 150.448 256.191 152.776V158.355H250.597C248.263 158.355 246.371 160.242 246.371 162.57C246.371 164.898 248.263 166.785 250.597 166.785H256.191V172.364C256.191 174.691 258.083 176.578 260.417 176.578C262.751 176.578 264.644 174.691 264.644 172.364V166.785H270.238C272.572 166.785 274.464 164.898 274.464 162.57C274.464 160.242 272.572 158.355 270.238 158.355H264.644V152.776C264.644 150.448 262.751 148.561 260.417 148.561Z" fill="#4CD681"/>
<path d="M295.83 174.687C295.83 175.804 294.921 176.707 293.795 176.707H285.656C284.53 176.707 283.621 175.804 283.621 174.687C283.621 173.57 284.53 172.668 285.656 172.668H291.76V166.609C291.76 165.492 292.67 164.589 293.795 164.589H299.9V158.531C299.9 157.414 300.809 156.511 301.934 156.511H308.039V150.452C308.039 149.335 308.948 148.433 310.074 148.433H318.213C319.339 148.433 320.248 149.335 320.248 150.452C320.248 151.569 319.339 152.472 318.213 152.472H312.109V158.531C312.109 159.648 311.199 160.55 310.074 160.55H303.969V166.609C303.969 167.726 303.06 168.629 301.934 168.629H295.83V174.687Z" fill="#4CD681"/>
<path d="M351.964 152.714C355.28 148.09 362.176 148.094 365.484 152.724C366.594 154.277 367.132 156.164 367.009 158.067C366.885 159.97 366.107 161.772 364.806 163.169L352.256 176.646C352.152 176.757 352.026 176.847 351.885 176.908C351.745 176.969 351.594 177 351.441 177C351.288 177 351.137 176.969 350.997 176.908C350.856 176.847 350.73 176.758 350.626 176.647L338.084 163.217C336.769 161.809 335.985 159.989 335.866 158.069C335.748 156.148 336.302 154.246 337.433 152.688C340.784 148.075 347.692 148.121 350.981 152.778L351.445 153.436L351.963 152.714H351.964Z" fill="#4CD681"/>
</g>
</g>
<path d="M1113.92 140.482H1112.15V172.596H1113.92V140.482Z" fill="#F3F5FD"/>
<path d="M1112.04 118.812C1117.74 118.812 1122.36 114.186 1122.36 108.48C1122.36 102.773 1117.74 98.1475 1112.04 98.1475C1106.34 98.1475 1101.72 102.773 1101.72 108.48C1101.72 114.186 1106.34 118.812 1112.04 118.812Z" fill="#F3F5FD"/>
<path d="M1118.07 147.628C1123.16 147.628 1127.29 143.497 1127.29 138.401C1127.29 133.305 1123.16 129.174 1118.07 129.174C1112.98 129.174 1108.86 133.305 1108.86 138.401C1108.86 143.497 1112.98 147.628 1118.07 147.628Z" fill="#F3F5FD"/>
<path d="M1107.09 148.251C1112.52 148.251 1116.93 143.841 1116.93 138.4C1116.93 132.96 1112.52 128.549 1107.09 128.549C1101.66 128.549 1097.25 132.96 1097.25 138.4C1097.25 143.841 1101.66 148.251 1107.09 148.251Z" fill="#F3F5FD"/>
<path d="M1119.35 127.093C1123.92 127.093 1127.62 123.385 1127.62 118.812C1127.62 114.238 1123.92 110.531 1119.35 110.531C1114.78 110.531 1111.08 114.238 1111.08 118.812C1111.08 123.385 1114.78 127.093 1119.35 127.093Z" fill="#F3F5FD"/>
<path d="M1113.04 132.068C1117.61 132.068 1121.31 128.36 1121.31 123.787C1121.31 119.213 1117.61 115.506 1113.04 115.506C1108.47 115.506 1104.77 119.213 1104.77 123.787C1104.77 128.36 1108.47 132.068 1113.04 132.068Z" fill="#F3F5FD"/>
<path d="M1122.89 135.374C1127.46 135.374 1131.16 131.666 1131.16 127.093C1131.16 122.52 1127.46 118.812 1122.89 118.812C1118.32 118.812 1114.62 122.52 1114.62 127.093C1114.62 131.666 1118.32 135.374 1122.89 135.374Z" fill="#F3F5FD"/>
<path d="M1102.81 126.798C1107.38 126.798 1111.08 123.091 1111.08 118.517C1111.08 113.944 1107.38 110.236 1102.81 110.236C1098.24 110.236 1094.54 113.944 1094.54 118.517C1094.54 123.091 1098.24 126.798 1102.81 126.798Z" fill="#F3F5FD"/>
<path d="M1102.81 137.073C1107.38 137.073 1111.08 133.365 1111.08 128.792C1111.08 124.218 1107.38 120.511 1102.81 120.511C1098.24 120.511 1094.54 124.218 1094.54 128.792C1094.54 133.365 1098.24 137.073 1102.81 137.073Z" fill="#F3F5FD"/>
<path d="M984.457 151.039H982.688V183.153H984.457V151.039Z" fill="#F3F5FD"/>
<path d="M982.579 129.368C988.279 129.368 992.899 124.743 992.899 119.036C992.899 113.33 988.279 108.704 982.579 108.704C976.879 108.704 972.258 113.33 972.258 119.036C972.258 124.743 976.879 129.368 982.579 129.368Z" fill="#F3F5FD"/>
<path d="M988.607 158.185C993.698 158.185 997.824 154.054 997.824 148.958C997.824 143.862 993.698 139.731 988.607 139.731C983.517 139.731 979.391 143.862 979.391 148.958C979.391 154.054 983.517 158.185 988.607 158.185Z" fill="#F3F5FD"/>
<path d="M977.621 158.809C983.056 158.809 987.461 154.398 987.461 148.958C987.461 143.517 983.056 139.107 977.621 139.107C972.187 139.107 967.781 143.517 967.781 148.958C967.781 154.398 972.187 158.809 977.621 158.809Z" fill="#F3F5FD"/>
<path d="M989.885 137.649C994.454 137.649 998.157 133.942 998.157 129.368C998.157 124.795 994.454 121.087 989.885 121.087C985.317 121.087 981.613 124.795 981.613 129.368C981.613 133.942 985.317 137.649 989.885 137.649Z" fill="#F3F5FD"/>
<path d="M983.573 142.624C988.141 142.624 991.845 138.917 991.845 134.343C991.845 129.77 988.141 126.062 983.573 126.062C979.004 126.062 975.301 129.77 975.301 134.343C975.301 138.917 979.004 142.624 983.573 142.624Z" fill="#F3F5FD"/>
<path d="M993.424 145.931C997.993 145.931 1001.7 142.223 1001.7 137.65C1001.7 133.076 997.993 129.369 993.424 129.369C988.856 129.369 985.152 133.076 985.152 137.65C985.152 142.223 988.856 145.931 993.424 145.931Z" fill="#F3F5FD"/>
<path d="M973.342 137.355C977.911 137.355 981.614 133.647 981.614 129.074C981.614 124.5 977.911 120.793 973.342 120.793C968.774 120.793 965.07 124.5 965.07 129.074C965.07 133.647 968.774 137.355 973.342 137.355Z" fill="#F3F5FD"/>
<path d="M973.342 147.629C977.911 147.629 981.614 143.922 981.614 139.348C981.614 134.775 977.911 131.067 973.342 131.067C968.774 131.067 965.07 134.775 965.07 139.348C965.07 143.922 968.774 147.629 973.342 147.629Z" fill="#F3F5FD"/>
<path d="M1046.52 128.934H1043.72V179.707H1046.52V128.934Z" fill="#DEE8F5"/>
<path d="M1043.55 94.6712C1052.56 94.6712 1059.87 87.3575 1059.87 78.3356C1059.87 69.3137 1052.56 62 1043.55 62C1034.54 62 1027.23 69.3137 1027.23 78.3356C1027.23 87.3575 1034.54 94.6712 1043.55 94.6712Z" fill="#00A82D"/>
<path d="M1053.08 140.231C1061.13 140.231 1067.65 133.699 1067.65 125.643C1067.65 117.586 1061.13 111.055 1053.08 111.055C1045.03 111.055 1038.51 117.586 1038.51 125.643C1038.51 133.699 1045.03 140.231 1053.08 140.231Z" fill="#00A82D"/>
<path d="M1035.71 141.217C1044.31 141.217 1051.27 134.244 1051.27 125.643C1051.27 117.041 1044.31 110.068 1035.71 110.068C1027.12 110.068 1020.16 117.041 1020.16 125.643C1020.16 134.244 1027.12 141.217 1035.71 141.217Z" fill="#00A82D"/>
<path d="M1055.1 107.764C1062.33 107.764 1068.18 101.902 1068.18 94.6712C1068.18 87.4401 1062.33 81.5781 1055.1 81.5781C1047.88 81.5781 1042.02 87.4401 1042.02 94.6712C1042.02 101.902 1047.88 107.764 1055.1 107.764Z" fill="#00A82D"/>
<path d="M1045.12 115.629C1052.34 115.629 1058.2 109.767 1058.2 102.536C1058.2 95.3053 1052.34 89.4434 1045.12 89.4434C1037.89 89.4434 1032.04 95.3053 1032.04 102.536C1032.04 109.767 1037.89 115.629 1045.12 115.629Z" fill="#00A82D"/>
<path d="M1060.7 120.857C1067.92 120.857 1073.77 114.995 1073.77 107.764C1073.77 100.533 1067.92 94.6709 1060.7 94.6709C1053.47 94.6709 1047.62 100.533 1047.62 107.764C1047.62 114.995 1053.47 120.857 1060.7 120.857Z" fill="#00A82D"/>
<path d="M1028.95 107.299C1036.17 107.299 1042.02 101.437 1042.02 94.2058C1042.02 86.9748 1036.17 81.1128 1028.95 81.1128C1021.72 81.1128 1015.87 86.9748 1015.87 94.2058C1015.87 101.437 1021.72 107.299 1028.95 107.299Z" fill="#00A82D"/>
<path d="M1028.95 123.544C1036.17 123.544 1042.02 117.682 1042.02 110.45C1042.02 103.219 1036.17 97.3574 1028.95 97.3574C1021.72 97.3574 1015.87 103.219 1015.87 110.45C1015.87 117.682 1021.72 123.544 1028.95 123.544Z" fill="#00A82D"/>
<path d="M884.404 126.908H882.309V164.95H884.404V126.908Z" fill="#DEE8F5"/>
<path d="M882.183 101.237C888.935 101.237 894.409 95.7571 894.409 88.9975C894.409 82.238 888.935 76.7583 882.183 76.7583C875.431 76.7583 869.957 82.238 869.957 88.9975C869.957 95.7571 875.431 101.237 882.183 101.237Z" fill="#00A82D"/>
<path d="M889.324 135.372C895.354 135.372 900.243 130.478 900.243 124.442C900.243 118.405 895.354 113.512 889.324 113.512C883.294 113.512 878.406 118.405 878.406 124.442C878.406 130.478 883.294 135.372 889.324 135.372Z" fill="#00A82D"/>
<path d="M876.313 136.112C882.751 136.112 887.969 130.887 887.969 124.442C887.969 117.997 882.751 112.773 876.313 112.773C869.875 112.773 864.656 117.997 864.656 124.442C864.656 130.887 869.875 136.112 876.313 136.112Z" fill="#00A82D"/>
<path d="M890.838 111.047C896.25 111.047 900.638 106.655 900.638 101.237C900.638 95.8188 896.25 91.4268 890.838 91.4268C885.426 91.4268 881.039 95.8188 881.039 101.237C881.039 106.655 885.426 111.047 890.838 111.047Z" fill="#00A82D"/>
<path d="M883.358 116.94C888.77 116.94 893.157 112.548 893.157 107.13C893.157 101.712 888.77 97.3203 883.358 97.3203C877.946 97.3203 873.559 101.712 873.559 107.13C873.559 112.548 877.946 116.94 883.358 116.94Z" fill="#00A82D"/>
<path d="M895.03 120.857C900.442 120.857 904.829 116.465 904.829 111.047C904.829 105.629 900.442 101.237 895.03 101.237C889.618 101.237 885.23 105.629 885.23 111.047C885.23 116.465 889.618 120.857 895.03 120.857Z" fill="#00A82D"/>
<path d="M871.241 110.698C876.653 110.698 881.04 106.306 881.04 100.888C881.04 95.4702 876.653 91.0781 871.241 91.0781C865.829 91.0781 861.441 95.4702 861.441 100.888C861.441 106.306 865.829 110.698 871.241 110.698Z" fill="#00A82D"/>
<path d="M871.241 122.869C876.653 122.869 881.04 118.477 881.04 113.059C881.04 107.642 876.653 103.25 871.241 103.25C865.829 103.25 861.441 107.642 861.441 113.059C861.441 118.477 865.829 122.869 871.241 122.869Z" fill="#00A82D"/>
<path d="M1031.41 190H1131.84C1142.36 181.137 1126.87 166.237 1121.25 176.55C1124.6 170.398 1125.5 162.601 1118.53 157.582C1111.24 153.603 1102.45 158.152 1101.11 165.349C1102.89 155.765 1094.37 146.214 1084.89 144.042C1060.55 138.472 1055.12 163.433 1057.33 167.358C1050.9 155.921 1024.32 170.035 1031.41 190Z" fill="#C1D8ED"/>
<path d="M838 190H946.45C952.332 174.086 934.655 166.237 929.035 176.551C932.387 170.399 933.279 162.601 926.316 157.582C919.019 153.603 910.234 158.152 908.89 165.35C910.678 155.766 902.157 146.214 892.674 144.042C868.333 138.473 862.906 163.434 865.112 167.359C851.281 160.098 838 169.521 838 190Z" fill="#C1D8ED"/>
<path d="M993.355 190H1058.26C1063.02 186.196 1063.35 177.626 1058.42 173.799C1054.61 170.849 1048.86 171.638 1045.29 174.706C1045.95 172.422 1045.97 169.996 1045.32 167.705C1044.16 163.579 1041.58 159.387 1037.63 157.718C1027.56 153.465 1020.41 162.376 1018.97 167.359C1016.4 163.566 1010.63 161.558 1007.01 164.113C1002.42 167.349 1002.63 172.45 1006.29 176.112C1001.42 175.203 997.746 175.904 994.368 179.536C991.792 182.301 991.399 187.013 993.355 190Z" fill="#C1D8ED"/>
<path d="M998.918 190H933.248C929.646 180.256 940.468 175.451 943.909 181.766C941.857 177.999 941.312 173.225 945.573 170.151C950.041 167.715 955.42 170.5 956.243 174.907C955.148 169.039 960.365 163.191 966.172 161.863C981.074 158.453 984.396 173.735 983.047 176.138C986.983 169.135 1003.26 177.776 998.918 190Z" fill="#C1D8ED"/>
</svg>
