<svg width="422" height="139" viewBox="0 0 422 139" fill="none" xmlns="http://www.w3.org/2000/svg">
<mask id="mask0_297_2775" style="mask-type:alpha" maskUnits="userSpaceOnUse" x="0" y="0" width="422" height="139">
<rect width="421.031" height="138.976" transform="matrix(-1 0 0 1 421.031 0)" fill="#D9D9D9"/>
</mask>
<g mask="url(#mask0_297_2775)">
<path d="M400.089 60.5898C390.6 46.7293 375.012 36.9577 358.101 34.2647C341.19 31.5717 323.203 36.0004 309.657 46.1858C296.555 56.0376 288.052 70.4417 276.865 82.3133C269.608 90.0156 260.386 95.5191 251.946 101.739C242.807 108.472 231.174 112.054 219.701 111.406C207.992 110.745 197.009 106.013 185.866 102.449C173.203 98.3974 160.044 95.7909 146.758 94.7099C139.902 94.154 132.874 94.012 126.286 95.9329C112.472 99.9601 102.671 112.783 99.5545 126.464C98.963 129.059 98.5941 131.844 99.6371 134.296C100.674 136.736 102.938 138.46 105.228 139.874C118.456 148.046 134.802 148.46 149.703 145.112C158.976 143.03 168.541 144.957 178.037 145.316C200.125 146.15 222.232 144.883 244.238 143.086C288.332 139.485 338.003 143 376.933 137.311C382.669 137.799 389.659 137.897 392.737 133.172C393.977 131.264 398.628 121.016 398.87 118.774C400.962 99.6573 397.832 88.3664 398.181 69.1446" fill="#E9F9E6"/>
<path d="M256.01 76.1463C250.534 77.6719 253.435 88.6788 253.791 92.4837C254.096 95.7264 254.611 98.9568 255.336 102.132C255.495 102.836 257.499 109.63 257.944 110.989C257.988 111.143 258.026 111.23 258.033 111.23C258.173 111.162 258.319 111.094 258.465 111.026C266.441 107.209 274.632 103.867 282.671 100.279C284.37 99.5189 286.564 98.5986 287.543 96.9618C288.573 95.2385 288.802 92.9284 286.316 92.5578C284.808 92.3354 283.276 92.6443 281.775 92.9469C282.213 92.1748 284.904 91.3224 285.737 90.8901C287.244 90.1056 288.847 89.3953 290.303 88.5182C292.65 87.0976 295.226 86.0043 297.579 84.5342C299.748 83.1815 304.556 79.247 302.75 76.276C301.65 74.4724 298.463 75.0159 296.67 75.1395C293.687 75.3495 290.819 76.3007 288.014 77.2334C291.276 75.4977 294.552 73.7435 297.477 71.5261C300.409 69.3025 303.004 66.5601 304.531 63.2617C305.262 61.699 305.631 59.6174 304.327 58.4562C303.214 57.4618 301.465 57.6965 300.015 58.1103C295.868 59.3024 292.04 61.4951 288.974 64.4476C294.336 58.7836 299.875 52.8231 301.993 45.411C302.254 44.5092 302.451 43.5642 302.311 42.6315C302.171 41.705 301.631 40.7847 300.746 40.4079C299.315 39.7964 297.719 40.76 296.549 41.7668C290.978 46.5475 288.046 52.9219 284.211 58.9195C285.05 55.6149 285.489 52.2054 285.502 48.7958C285.514 45.9113 285.12 42.7921 283.085 40.692C282.837 40.4388 282.538 40.1855 282.175 40.1361C281.622 40.062 281.132 40.4758 280.763 40.8835C278.27 43.5951 277.132 47.227 276.318 50.7724C275.376 54.849 274.76 58.9936 274.492 63.1629C274.626 60.8157 274.69 58.623 273.901 56.14C273.271 54.1758 272.012 50.6983 269.265 51.4086C268.533 51.5939 267.929 52.0695 267.433 52.7181C265.881 54.7317 265.321 58.4068 264.889 60.2907C264.005 64.0955 263.636 67.9869 263.331 71.8658C263.172 73.8794 263.044 75.893 262.873 77.9067C262.739 79.5126 262.046 81.73 262.294 83.2989C262.008 81.5324 261.709 79.7103 260.698 78.2155C259.693 76.7269 257.772 75.646 256.01 76.1463Z" fill="#008855"/>
<path d="M269.996 88.8951C269.996 88.9445 270.015 88.9939 270.04 89.0371C267.286 93.6758 264.475 98.4443 261.906 103.293C261.098 96.0045 259.8 88.7036 258.032 81.5819C258.001 81.4583 257.873 81.378 257.733 81.4089C257.606 81.4398 257.524 81.5633 257.555 81.6992C259.374 89.031 260.704 96.5542 261.499 104.059C260.29 106.35 259.101 108.667 257.937 110.995C257.981 111.15 258.02 111.236 258.026 111.236C258.166 111.168 258.312 111.1 258.458 111.032C259.552 108.846 260.678 106.665 261.81 104.51C261.848 104.51 261.887 104.497 261.912 104.479C268.132 100.266 275.37 97.3572 282.836 96.0848C282.976 96.0662 283.059 95.9365 283.04 95.8068C283.014 95.6771 282.894 95.5906 282.754 95.6092C275.459 96.863 268.386 99.6487 262.249 103.688C264.939 98.5987 267.903 93.5832 270.797 88.716C273.748 86.0414 277.761 84.664 281.959 83.3793C286.487 81.9957 290.933 80.7295 295.531 80.3218C295.664 80.3095 295.76 80.1921 295.753 80.0624C295.741 79.9327 295.62 79.84 295.486 79.8462C290.837 80.2539 286.366 81.5386 281.812 82.9222C278.035 84.0773 274.403 85.3126 271.522 87.493C272.838 85.2632 274.18 83.0025 275.503 80.711C282.938 73.688 291.352 67.7275 300.517 62.9962C300.632 62.9344 300.676 62.7923 300.612 62.6812C300.549 62.5576 300.403 62.5144 300.282 62.5761C291.543 67.0913 283.491 72.7183 276.305 79.315C277.011 78.0859 277.704 76.8567 278.384 75.6213C283.218 66.8504 289.203 56.6403 296.93 47.437C297.013 47.3382 297 47.1838 296.898 47.1035C296.79 47.0232 296.638 47.0356 296.555 47.1344C288.796 56.3747 282.805 66.6034 277.958 75.399C277.443 76.3317 276.922 77.2644 276.394 78.197C278.365 72.218 283.014 56.628 281.412 46.7391C281.393 46.6156 281.265 46.5229 281.138 46.5414C280.998 46.56 280.909 46.6835 280.935 46.8132C282.881 58.8269 275.478 79.4262 275.115 80.4268C273.665 82.9407 272.183 85.4423 270.727 87.8883C270.657 88.018 270.574 88.1415 270.504 88.2712C270.733 79.105 270.911 69.6546 268.145 60.6861C268.107 60.5564 267.967 60.4822 267.839 60.5255C267.706 60.5625 267.636 60.6984 267.674 60.822C270.473 69.9202 270.237 79.5683 269.996 88.8951Z" fill="#95BC8F"/>
<path d="M313.259 49.3211C313.921 49.5311 314.322 50.1426 314.283 50.7849C315.536 50.9085 316.821 50.6182 317.826 50.2784C318.456 50.0684 319.085 49.8152 319.689 49.5681C320.605 49.1975 321.546 48.8269 322.526 48.5737C322.252 48.4934 321.973 48.4069 321.699 48.3266C320.612 48.0178 319.486 47.7028 318.436 47.2271C317.215 46.6774 316.23 45.9486 315.543 45.1147C315.206 45.2753 314.805 45.3124 314.423 45.1888C313.635 44.9418 313.209 44.1141 313.463 43.3482C313.717 42.5823 314.57 42.1684 315.358 42.4155C316.147 42.6626 316.573 43.4902 316.319 44.2562C316.249 44.4723 316.121 44.6576 315.969 44.8121C316.611 45.5841 317.521 46.2512 318.665 46.7639C319.365 47.0789 320.103 47.3198 320.847 47.5422C320.592 46.0536 319.785 44.6885 318.945 43.4532C318.767 43.4594 318.589 43.4408 318.411 43.3852C317.622 43.1382 317.196 42.3105 317.451 41.5446C317.705 40.7787 318.557 40.3648 319.34 40.6119C320.122 40.859 320.554 41.6867 320.3 42.4526C320.16 42.8602 319.855 43.1629 319.486 43.3235C320.364 44.6268 321.197 46.0783 321.407 47.7028C321.553 47.746 321.705 47.7892 321.852 47.8325C322.405 47.9869 322.952 48.1475 323.499 48.3204C325.095 48.8393 326.297 49.4508 327.201 50.2105C327.099 49.9943 326.997 49.7781 326.895 49.5681C325.623 46.906 324.319 44.1573 323.346 41.3593C323.168 41.3655 322.984 41.3469 322.806 41.2913C322.017 41.0443 321.591 40.2166 321.845 39.4507C322.1 38.6848 322.952 38.2709 323.734 38.518C324.523 38.7651 324.949 39.5927 324.695 40.3587C324.555 40.7725 324.237 41.0813 323.855 41.2419C324.822 44.0029 326.113 46.7145 327.372 49.3519C328.498 51.7114 329.636 54.108 330.565 56.5787C330.489 54.8677 330.679 53.0271 331.163 51.0629C331.335 50.3711 331.557 49.6978 331.812 49.0431C331.589 48.1413 330.94 46.1153 329.42 44.3735C329.058 44.5959 328.606 44.6638 328.167 44.5279C327.379 44.2809 326.952 43.4532 327.207 42.6934C327.461 41.9337 328.314 41.5137 329.096 41.7608C329.884 42.0078 330.311 42.8355 330.056 43.6014C330.005 43.762 329.916 43.9041 329.821 44.0276C331.112 45.5039 331.799 47.1716 332.142 48.2648C332.492 47.4557 332.874 46.6651 333.255 45.893C333.605 45.1827 333.955 44.4538 334.279 43.7188C334.101 42.8664 333.63 42.1128 333.122 41.3222C332.931 41.0196 332.74 40.7231 332.562 40.4142C332.174 39.7348 331.875 39.0121 331.653 38.2709C331.468 38.2833 331.271 38.2648 331.086 38.203C330.298 37.9559 329.872 37.1282 330.126 36.3623C330.381 35.5964 331.233 35.1826 332.021 35.4296C332.81 35.6767 333.236 36.5044 332.982 37.2703C332.848 37.678 332.543 37.9806 332.168 38.1412C332.378 38.8392 332.657 39.5186 333.026 40.161C333.198 40.4575 333.382 40.754 333.573 41.0443C333.961 41.6496 334.349 42.2673 334.604 42.9405C334.839 42.3414 335.055 41.7361 335.22 41.1122C335.558 39.8522 335.812 38.0486 335.309 36.2203C335.189 36.2141 335.061 36.1956 334.941 36.1585C334.152 35.9114 333.726 35.0838 333.98 34.3178C334.235 33.5519 335.087 33.1381 335.876 33.3852C336.664 33.6322 337.09 34.4599 336.836 35.2196C336.677 35.6891 336.295 36.0288 335.837 36.1647C336.333 38.0733 336.079 39.9325 335.729 41.2419C335.494 42.119 335.176 42.9652 334.82 43.7867C334.813 43.83 334.794 43.867 334.769 43.8979C334.623 44.2376 334.464 44.5773 334.305 44.9109C334.527 44.7812 334.756 44.6762 334.96 44.5959C335.386 44.4353 335.831 44.3303 336.257 44.2253C336.518 44.1635 336.785 44.1017 337.039 44.0276C337.148 43.9967 337.249 43.9597 337.351 43.9226C336.893 42.4526 337.211 41.106 337.548 40.0869C337.561 40.0436 337.586 39.9695 337.637 39.8892C337.243 39.5124 337.071 38.9442 337.256 38.3945C337.51 37.6286 338.362 37.2147 339.151 37.4618C339.94 37.7088 340.366 38.5365 340.111 39.2963C339.857 40.0622 339.005 40.476 338.222 40.229C338.171 40.2166 338.133 40.1919 338.089 40.1734C338.082 40.1857 338.076 40.2042 338.063 40.2413C337.599 41.6434 337.535 42.6935 337.853 43.7373C338.807 43.342 339.679 42.7676 340.404 42.0511C340.308 41.7669 340.296 41.4519 340.397 41.1493C340.652 40.3834 341.504 39.9695 342.286 40.2166C343.075 40.4637 343.501 41.2913 343.247 42.0572C342.992 42.8232 342.14 43.237 341.351 42.9899C341.065 42.8973 340.836 42.7367 340.658 42.5267C339.685 43.447 338.489 44.1388 337.186 44.5217C336.919 44.602 336.645 44.6638 336.378 44.7256C335.945 44.8306 335.538 44.9232 335.144 45.0715C334.642 45.263 333.98 45.615 333.681 46.2389C333.662 46.2759 333.637 46.3006 333.611 46.3254C332.956 47.6719 332.295 49.0554 331.856 50.5255C331.983 50.3773 332.123 50.2414 332.269 50.1117C332.848 49.6237 333.548 49.3025 334.216 48.9937C334.413 48.901 334.61 48.8084 334.801 48.7157C334.508 48.3451 334.406 47.851 334.565 47.3754C334.82 46.6095 335.672 46.1956 336.454 46.4427C337.243 46.6898 337.669 47.5175 337.415 48.2772C337.16 49.0431 336.308 49.4569 335.526 49.2099C335.418 49.1728 335.316 49.1296 335.22 49.074C334.96 49.2037 334.699 49.3272 334.438 49.4508C333.77 49.7596 333.134 50.0437 332.613 50.4884C331.862 51.1246 331.392 52.082 331.347 53.0456C331.347 53.1074 331.315 53.1568 331.277 53.2C330.864 55.9487 331.067 58.4255 331.901 60.5688C331.932 60.643 331.92 60.7171 331.881 60.785C332.225 62.2242 332.467 63.6881 332.556 65.189C332.562 65.3311 332.454 65.4484 332.308 65.4608C332.276 65.4608 332.244 65.4608 332.212 65.4484C332.11 65.4175 332.04 65.3311 332.034 65.2199C331.748 60.365 329.853 55.8436 327.805 51.4705C327.576 52.3229 327.309 53.163 326.984 53.9845C327.525 54.3365 327.786 55.0098 327.576 55.6398C327.321 56.4057 326.469 56.8196 325.687 56.5725C325.649 56.5602 325.623 56.5416 325.585 56.5293C325.579 56.5293 325.572 56.5293 325.572 56.5293C325.56 56.5231 325.547 56.5169 325.534 56.5107C325.528 56.5107 325.521 56.5046 325.521 56.4984C324.847 56.1896 324.491 55.4422 324.733 54.7318C324.981 54.003 325.757 53.5953 326.514 53.7745C326.857 52.8912 327.15 51.9894 327.379 51.0752C326.533 50.1673 325.318 49.4631 323.582 48.8763C323.474 49.1234 323.448 49.4261 323.442 49.7164C323.435 50.0375 323.435 50.3587 323.429 50.6861C323.429 51.4335 323.423 52.2056 323.327 52.9715C323.276 53.3483 323.206 53.7003 323.117 54.0339C323.607 54.3983 323.836 55.0345 323.633 55.6398C323.378 56.4057 322.526 56.8196 321.744 56.5725C320.955 56.3254 320.529 55.4978 320.783 54.738C321.038 53.9845 321.864 53.5706 322.64 53.7992C322.71 53.5212 322.768 53.2247 322.806 52.9159C322.901 52.1809 322.901 51.4273 322.901 50.6923C322.901 50.3649 322.901 50.0376 322.914 49.7102C322.92 49.4693 322.939 49.2222 322.997 48.9813C321.934 49.216 320.904 49.6237 319.906 50.0252C319.289 50.2723 318.653 50.5317 318.01 50.7479C316.598 51.2235 315.301 51.3964 314.169 51.2729C313.864 51.9523 313.075 52.3106 312.337 52.0759C311.549 51.8288 311.122 51.0011 311.377 50.2352C311.625 49.4878 312.471 49.074 313.259 49.3211Z" fill="#95BC8F"/>
<path d="M81.6739 37.6716C82.4944 37.5728 83.2449 38.141 83.3466 38.944C83.4293 39.6111 83.0286 40.2288 82.4117 40.4696C82.8251 41.6185 83.6455 42.6315 84.3833 43.3727C84.8476 43.836 85.35 44.2807 85.8334 44.7131C86.5648 45.3616 87.3089 46.0349 87.9576 46.7884C87.9195 46.5105 87.8813 46.2325 87.8368 45.9546C87.6651 44.8675 87.487 43.7433 87.4806 42.6191C87.4743 41.3159 87.735 40.1361 88.2247 39.1726C87.9322 38.944 87.7287 38.6105 87.6778 38.2213C87.576 37.4245 88.1611 36.6957 88.9879 36.5969C89.8084 36.498 90.5589 37.0663 90.6606 37.8693C90.7624 38.6661 90.1773 39.3949 89.3505 39.4937C89.1151 39.5184 88.8925 39.4876 88.6827 39.4196C88.2375 40.3091 87.9958 41.3961 88.0021 42.613C88.0021 43.3603 88.0912 44.1139 88.1993 44.8613C89.484 44.0089 90.4126 42.718 91.2076 41.4579C91.1249 41.3097 91.0677 41.1429 91.0422 40.9638C90.9405 40.167 91.5256 39.4381 92.3524 39.3393C93.1728 39.2405 93.9233 39.8087 94.0251 40.6117C94.1268 41.4085 93.5417 42.1374 92.7149 42.2362C92.2761 42.2856 91.8627 42.1497 91.5574 41.8841C90.7115 43.2059 89.713 44.5525 88.2883 45.4234C88.3138 45.5716 88.3329 45.7199 88.3583 45.8681C88.4473 46.4178 88.53 46.9737 88.6 47.5296C88.7971 49.1541 88.7335 50.4697 88.4028 51.5877C88.5618 51.4086 88.7208 51.2233 88.8735 51.0442C90.8196 48.802 92.8294 46.4919 95.0299 44.4474C94.9472 44.293 94.8837 44.1263 94.8646 43.9471C94.7628 43.1503 95.3479 42.4215 96.1747 42.3227C96.9952 42.2238 97.7456 42.7921 97.8474 43.5951C97.9492 44.3918 97.364 45.1207 96.5372 45.2195C96.092 45.2751 95.6723 45.1269 95.3607 44.8551C93.8979 46.2202 92.5368 47.6779 91.2139 49.1665C90.5652 49.9015 89.961 50.7477 89.2487 51.4148C88.6318 51.9892 88.4219 52.5327 88.2947 53.3666C87.9004 55.9732 87.5061 58.5798 87.1117 61.1925C87.0799 61.4149 86.94 61.7051 86.7174 61.6434C86.5457 61.594 86.5203 61.3716 86.533 61.1987C86.6029 59.7904 86.7238 58.3821 86.8891 56.98C87.0545 55.5902 87.3979 54.1943 87.5061 52.8107C87.2008 52.8478 84.8349 52.7304 84.7903 52.996C84.6886 53.626 84.1798 54.1387 83.4929 54.219C82.6725 54.3178 81.922 53.7496 81.8202 52.9466C81.8139 52.9095 81.8202 52.8786 81.8139 52.8292C81.8139 52.8169 81.8139 52.8045 81.8139 52.786C81.8139 52.7798 81.8202 52.7736 81.8202 52.7675C81.8202 52.0448 82.3736 51.4148 83.1304 51.3221C83.9127 51.2295 84.625 51.7421 84.7776 52.4833C85.7443 52.4154 86.7111 52.2857 87.6651 52.1004C88.1548 50.9762 88.2947 49.605 88.1103 47.8323C87.8304 47.8446 87.5442 47.9496 87.2707 48.067C86.9655 48.1967 86.6665 48.3326 86.3613 48.4685C85.6617 48.7835 84.9366 49.1109 84.1862 49.3456C83.8109 49.4629 83.4547 49.5494 83.1049 49.6112C82.9714 50.198 82.4753 50.6674 81.8266 50.7415C81.0062 50.8403 80.2557 50.2721 80.1539 49.4691C80.0522 48.6723 80.6373 47.9435 81.4641 47.8446C82.2782 47.7458 83.0095 48.3017 83.124 49.08C83.4166 49.0244 83.7155 48.9503 84.0208 48.8514C84.7458 48.6229 85.4518 48.3017 86.1387 47.9929C86.444 47.857 86.7492 47.7149 87.0545 47.5852C87.2835 47.4864 87.5188 47.3999 87.7668 47.3443C87.099 46.5105 86.2786 45.7754 85.4836 45.0651C84.9939 44.6266 84.4787 44.1757 84.0081 43.7001C82.9714 42.6562 82.2591 41.5938 81.8966 40.5438C81.1334 40.5623 80.4656 40.0187 80.3702 39.2714C80.262 38.4993 80.8471 37.7704 81.6739 37.6716Z" fill="#95BC8F"/>
<path d="M182.736 51.0385C183.55 51.1744 184.104 51.9217 183.964 52.7185C183.906 53.0335 183.747 53.3115 183.525 53.5153C183.83 54.4789 184.326 55.3807 184.981 56.159C185.763 55.3807 186.209 54.4171 186.469 52.9718C186.476 52.9409 186.476 52.9162 186.476 52.9038C186.425 52.8977 186.374 52.9038 186.33 52.8915C185.515 52.7556 184.962 52.0082 185.102 51.2114C185.242 50.4208 186.012 49.8834 186.832 50.0193C187.646 50.1552 188.199 50.9026 188.059 51.6994C187.964 52.2676 187.538 52.6938 187.004 52.8482C187.01 52.9347 186.997 53.015 186.985 53.0582C186.8 54.1083 186.438 55.4486 185.331 56.5419C185.407 56.6222 185.477 56.7025 185.56 56.7766C185.751 56.9619 185.954 57.1349 186.158 57.3078C186.489 57.592 186.832 57.8884 187.131 58.222C187.277 58.3826 187.43 58.5741 187.563 58.7964C187.582 58.432 187.608 58.0614 187.64 57.6908C187.633 57.6475 187.633 57.6105 187.652 57.5673C187.729 56.6778 187.85 55.7822 188.066 54.8989C188.377 53.5833 189.039 51.8167 190.394 50.3528C190.05 50.0317 189.872 49.5561 189.961 49.0681C190.101 48.2775 190.871 47.7401 191.691 47.876C192.505 48.0119 193.058 48.7593 192.918 49.5561C192.779 50.3467 192.009 50.8841 191.189 50.7482C191.061 50.7296 190.947 50.6864 190.832 50.637C189.516 52.0329 188.88 53.7439 188.575 55.0101C188.422 55.6339 188.32 56.2701 188.244 56.9063C188.791 56.4246 189.433 56.054 190.063 55.6957C190.368 55.5228 190.673 55.3436 190.972 55.1583C191.608 54.7568 192.181 54.2812 192.696 53.7562C192.441 53.4474 192.321 53.0397 192.391 52.6197C192.531 51.8291 193.3 51.2917 194.121 51.4276C194.935 51.5635 195.488 52.3109 195.348 53.1077C195.208 53.8983 194.439 54.4357 193.618 54.2998C193.421 54.2689 193.243 54.2009 193.084 54.1021C192.531 54.658 191.926 55.1583 191.259 55.5907C190.96 55.7822 190.642 55.9613 190.33 56.1404C189.503 56.616 188.721 57.0669 188.161 57.7402C188.098 58.5432 188.059 59.34 188.028 60.1306C187.996 60.9891 187.958 61.8601 187.881 62.7372C188.702 61.928 190.114 60.7544 191.958 60.0318C191.933 59.8773 191.92 59.7106 191.952 59.5438C192.092 58.7532 192.861 58.2158 193.682 58.3517C194.496 58.4876 195.049 59.235 194.909 60.0318C194.769 60.8224 194 61.3597 193.179 61.2239C192.721 61.1497 192.359 60.878 192.143 60.5197C189.961 61.3783 188.416 62.8792 187.792 63.5772C187.703 64.269 187.582 64.9669 187.404 65.6587C187.201 66.4493 186.953 67.2276 186.66 67.9874C186.527 68.3394 186.393 68.7038 186.209 69.0374C186.031 69.3586 185.903 69.6736 185.617 69.9268C185.554 69.9824 185.471 70.038 185.395 70.0071C185.032 69.8836 185.566 69.0312 185.636 68.8706C185.897 68.2591 186.164 67.66 186.419 67.0423C186.743 66.2517 186.711 65.2881 186.393 64.5037C186.139 63.8737 185.719 63.3301 185.274 62.7618C185.102 62.5395 184.924 62.311 184.759 62.0762C184.65 62.0824 184.536 62.0762 184.422 62.0577C183.607 61.9218 183.054 61.1744 183.194 60.3776C183.334 59.587 184.104 59.0497 184.924 59.1855C185.738 59.3214 186.291 60.0688 186.151 60.8656C186.069 61.3597 185.738 61.7489 185.306 61.9465C185.433 62.1133 185.56 62.2801 185.694 62.453C186.145 63.0274 186.609 63.6266 186.883 64.3184C186.953 64.4975 187.01 64.6828 187.055 64.8681C187.366 63.3672 187.443 61.8415 187.506 60.3529C187.493 60.3221 187.481 60.285 187.487 60.2479C187.519 59.5623 187.105 58.9447 186.749 58.5493C186.469 58.2405 186.158 57.9687 185.821 57.6846C185.611 57.5055 185.401 57.3264 185.204 57.1349C184.231 56.2145 183.506 55.0595 183.08 53.8056C182.825 53.9106 182.539 53.9539 182.246 53.9045C181.432 53.7686 180.879 53.0212 181.019 52.2244C181.146 51.4399 181.922 50.9088 182.736 51.0385Z" fill="#95BC8F"/>
<path d="M178.644 75.7511C177.213 79.9451 174.936 81.6746 172.379 84.9173C169.523 88.5369 168.003 93.6512 167.539 98.1231C167.024 103.04 167.781 108.031 167.138 112.935C165.835 122.867 159.029 131.181 152.485 138.92C154.425 130.921 157.745 120.68 154.8 112.675C151.194 102.854 156.657 92.91 162.515 85.1953C168.296 77.5856 163.214 66.9431 168.983 59.5681C169.492 58.9134 170.121 58.3019 170.916 58.0425C171.705 57.7831 172.576 57.8942 173.371 58.1413C176.201 59.0184 178.268 61.557 179.063 64.3365C180.259 68.4873 179.852 72.2118 178.644 75.7511Z" fill="#00A82D"/>
<path d="M154.844 130.859C154.99 130.859 155.123 130.778 155.187 130.643C157.445 125.961 159.773 121.112 160.701 115.893C161.242 112.841 161.286 109.691 161.331 106.646C161.388 102.792 161.445 98.8078 162.52 95.0647C163.531 91.5502 165.439 88.2827 167.277 85.1202C169.166 81.8775 171.119 78.5235 172.143 74.8731C172.944 72.0256 173.224 68.8817 173.008 65.2621C172.995 65.0583 172.811 64.8915 172.607 64.9163C172.397 64.9286 172.238 65.1016 172.251 65.3054C172.461 68.8446 172.187 71.9083 171.411 74.6816C170.413 78.2456 168.479 81.5563 166.616 84.762C164.752 87.9615 162.825 91.2722 161.789 94.8733C160.688 98.7028 160.625 102.736 160.568 106.64C160.523 109.66 160.479 112.78 159.944 115.775C159.035 120.896 156.726 125.695 154.494 130.34C154.405 130.525 154.487 130.748 154.678 130.834C154.735 130.846 154.793 130.859 154.844 130.859Z" fill="#95BC8F"/>
<path d="M128.033 54.7871C127.048 59.2405 127.9 64.4784 128.389 68.4623C129.337 76.1894 131.404 83.8979 135.608 90.5935C138.489 95.1766 142.286 99.1667 145.104 103.781C152.774 116.35 152.373 132.033 149.937 146.449C150.281 144.399 152.494 141.749 153.403 139.803C154.542 137.37 155.566 134.88 156.469 132.354C158.008 128.061 159.407 123.818 161.054 119.605C164.444 110.927 160.59 98.197 156.38 90.3773C152.322 82.8417 147.966 76.0164 147.012 67.3258C146.655 64.046 146.706 60.7229 146.102 57.4802C145.498 54.2374 144.143 50.9761 141.523 48.876C138.903 46.7821 134.819 46.1891 132.104 48.1719C129.82 49.8334 128.612 52.1744 128.033 54.7871Z" fill="#95BC8F"/>
<path d="M142.625 121.638C146.11 124.553 146.861 127.66 148.368 131.724C149.589 135.004 152.197 140.748 151.599 144.275C153.469 133.139 152.794 119.834 145.239 110.779C142.644 107.672 139.483 105.053 136.71 102.101C132.137 97.2334 128.614 91.4396 126.439 85.195C125.93 83.7249 125.472 82.2055 124.537 80.9516C123.596 79.6977 122.038 78.7465 120.46 78.9936C119.144 79.1974 118.094 80.1795 117.337 81.2481C113.763 86.3006 115.245 93.2679 118.094 98.7405C121.109 104.528 125.497 109.63 130.821 113.546C134.662 116.375 138.974 118.58 142.625 121.638Z" fill="#95BC8F"/>
<path d="M150.979 142.743C151.119 142.743 151.253 142.669 151.316 142.546C153.135 139.142 153.975 135.591 154.611 132.261C154.903 130.723 155.323 129.173 155.73 127.672C156.213 125.887 156.71 124.04 157.015 122.169C158.255 114.479 157.46 107.412 154.712 101.73C153.574 99.3766 151.965 97.3074 150.413 95.3061C149.109 93.6261 147.761 91.8904 146.724 90.0189C144.759 86.4735 143.411 82.2609 142.826 77.8261C142.66 76.566 142.527 75.2751 142.4 74.0212C142.139 71.4332 141.865 68.7587 141.248 66.1706C140.008 60.9637 138.323 55.5529 134.45 51.3095C134.31 51.1551 134.068 51.1427 133.909 51.2786C133.75 51.4145 133.737 51.6492 133.877 51.8036C137.636 55.9297 139.283 61.2293 140.504 66.3436C141.108 68.8822 141.376 71.532 141.636 74.1015C141.764 75.3554 141.897 76.6525 142.062 77.9249C142.667 82.4462 144.04 86.7514 146.05 90.3771C147.119 92.2981 148.48 94.0585 149.803 95.7632C151.329 97.7336 152.913 99.7657 154.019 102.051C156.703 107.598 157.479 114.516 156.258 122.057C155.959 123.892 155.469 125.72 154.992 127.487C154.585 129 154.159 130.563 153.86 132.125C153.237 135.399 152.41 138.889 150.636 142.206C150.54 142.385 150.61 142.614 150.801 142.706C150.858 142.731 150.916 142.743 150.979 142.743Z" fill="#00A82D"/>
<path d="M151.342 142.712C151.52 142.712 151.685 142.589 151.717 142.41C153.059 135.35 152.111 128.506 149.039 123.145C146.266 118.308 141.84 114.67 137.56 111.143C135.054 109.08 132.459 106.949 130.22 104.596C125.081 99.1913 121.488 92.1313 120.095 84.7193C120.057 84.5155 119.853 84.3858 119.65 84.4228C119.44 84.4599 119.306 84.6514 119.345 84.8552C120.763 92.4031 124.426 99.5928 129.66 105.102C131.925 107.487 134.539 109.636 137.063 111.711C141.293 115.189 145.669 118.784 148.372 123.503C151.361 128.71 152.277 135.374 150.966 142.268C150.928 142.471 151.062 142.663 151.272 142.7C151.297 142.712 151.316 142.712 151.342 142.712Z" fill="#00A82D"/>
<path d="M127.179 40.4881C127.173 40.4943 127.173 40.5005 127.173 40.5066C126.753 41.254 126.428 42.0694 126.11 42.86C125.665 43.9718 125.207 45.1206 124.482 46.1275C123.032 48.1472 120.959 49.0861 118.949 49.9941C117.925 50.4573 116.863 50.9391 115.903 51.563C115.775 51.6433 115.591 51.7483 115.375 51.8656C114.993 52.0756 114.351 52.4339 114.065 52.7056C113.848 53.0948 113.632 53.4839 113.41 53.8792C113.41 53.8854 113.41 53.8977 113.403 53.9039C113.39 53.9966 113.34 54.0769 113.263 54.1325C112.265 55.9299 111.279 57.7644 110.325 59.6297C111.552 58.5797 113.155 57.7458 115.209 57.0973C116.151 56.8008 117.124 56.5537 118.059 56.3129C119.967 55.8249 121.945 55.3246 123.675 54.3981C123.795 54.3363 123.942 54.3425 124.056 54.4166C124.171 54.4907 124.228 54.6204 124.209 54.7563C123.923 56.8626 122.193 58.3573 120.444 59.6977C117.811 61.7236 115.184 63.5581 112.048 63.7187C111.177 63.762 110.299 63.7434 109.454 63.7187C109.072 63.7064 108.69 63.7002 108.315 63.7002C107.005 66.4859 105.797 69.3333 104.773 72.224C105.294 71.3161 105.867 70.4328 106.623 69.6978C107.908 68.4501 109.479 67.4124 111.285 66.6156C114.599 65.1579 118.307 64.639 121.531 64.2684C121.728 64.2499 121.913 64.3858 121.932 64.5773C121.951 64.7379 121.856 64.8861 121.709 64.9479C121.531 65.1085 121.042 65.8806 120.806 66.2573C120.577 66.6218 120.444 66.8256 120.361 66.9306C119.808 67.5977 119.197 68.2339 118.542 68.8268C117.213 70.0375 115.705 71.069 114.077 71.8905C112.436 72.7182 110.7 73.3173 108.926 73.6694C108.506 73.7558 108.105 73.8176 107.717 73.8856C106.369 74.1079 105.205 74.2994 103.952 75.1209C103.908 75.1518 103.857 75.1642 103.806 75.1703C103.335 76.7021 102.928 78.2401 102.585 79.7905C104.391 79.4261 106.248 79.3952 108.398 79.7164C110.427 80.019 112.341 80.8035 113.944 81.9709C114.974 82.7244 116.679 84.2995 116.564 86.3872C116.558 86.4984 116.5 86.6034 116.405 86.6652C116.329 86.7146 116.074 86.7084 115.712 86.6652C114.205 86.4737 110.846 85.6337 110.808 85.6213C109.008 85.0777 107.253 84.3674 105.593 83.515C104.257 82.8232 103.195 81.94 102.311 81.1061C101.027 87.6473 100.969 94.3675 102.96 101.131C103.017 101.316 102.903 101.514 102.712 101.57C102.661 101.582 102.617 101.588 102.566 101.582C102.426 101.563 102.305 101.471 102.26 101.329C99.6338 92.3724 100.505 83.5336 103.087 75.0591C102.496 75.8868 101.822 76.7516 100.938 77.3878C100.117 77.9807 99.0805 78.4069 97.6876 78.7343C95.5443 79.2346 93.3247 79.3458 91.175 79.457C91.1559 79.457 91.1305 79.457 91.1114 79.457C90.9969 79.4446 90.8888 79.3767 90.8379 79.2716C90.7743 79.1481 90.787 78.9999 90.8697 78.8949C92.5551 76.7639 94.5522 74.8986 96.8227 73.3544C97.7385 72.7305 98.8261 72.0943 100.028 71.977C98.5462 70.5996 97.2997 69.0245 96.581 66.8874C95.716 64.3302 95.6397 61.316 96.3393 57.6841C96.3584 57.5853 96.4156 57.4988 96.5047 57.4494C96.5937 57.3999 96.6955 57.3814 96.7972 57.4123C98.171 57.8014 99.0614 58.9626 99.8564 60.1239C101.084 61.9213 102.356 63.8608 103.176 66.0226C103.997 68.1907 103.952 70.4513 103.882 72.644C105.027 69.3271 106.407 66.072 107.921 62.891C107.628 62.854 107.336 62.7119 107.107 62.5822C106.083 62.0078 105.237 61.2233 104.474 60.4574C103.469 59.4506 102.222 58.0794 101.446 56.4364C100.855 55.1825 100.562 53.8545 100.308 52.2424C99.9772 50.1979 99.7546 48.1102 99.6465 46.041C99.6402 45.8866 99.7356 45.7445 99.8818 45.6951C100.028 45.6395 100.193 45.6827 100.295 45.8063L104.194 50.5314C105.161 51.6988 106.153 52.9095 106.935 54.2498C108.093 56.2325 108.754 58.4994 108.849 60.8033L108.856 60.9639C110.071 58.5179 111.355 56.1152 112.653 53.7742C112.309 52.4092 111.559 51.3653 110.77 50.272C110.528 49.9385 110.28 49.5988 110.039 49.2405C108.894 47.5481 108.169 45.658 107.946 43.7741C107.622 41.0564 108.353 38.2892 108.996 35.8432C109.034 35.6888 109.18 35.5777 109.345 35.5777C109.504 35.5715 109.657 35.6888 109.695 35.8432C110.064 37.2145 110.77 38.5054 111.451 39.7593C111.953 40.6858 112.475 41.637 112.875 42.6376C113.537 44.3115 113.893 46.1769 113.963 48.3511C113.995 49.4258 113.887 50.5067 113.747 51.563C114.205 50.6117 114.694 49.6667 115.222 48.7464C115.674 47.579 116.017 46.4363 116.361 45.2565C116.52 44.7068 116.691 44.1447 116.869 43.5765C116.869 42.9403 116.888 42.3103 116.92 41.6988C116.984 40.377 117.041 39.1354 116.844 37.8198C116.742 37.1218 116.558 36.4177 116.38 35.7321C116.157 34.8735 115.928 33.9902 115.839 33.0823C115.744 32.1558 115.795 31.2848 115.985 30.4139C116.246 29.2342 116.672 28.0112 117.289 26.6708C117.544 26.1149 117.836 25.5343 118.186 24.8919C118.243 24.7931 118.345 24.6449 118.459 24.4719C118.612 24.2557 118.924 23.811 118.936 23.6628C118.924 23.4713 119.076 23.3045 119.273 23.2922C119.477 23.286 119.649 23.4342 119.661 23.6257C119.757 24.9846 120.081 26.3497 120.393 27.6653C120.615 28.6042 120.844 29.5739 120.997 30.5436C121.614 34.5585 121.169 37.7642 119.585 40.624C119.394 40.9761 119.184 41.322 118.975 41.6617C118.396 42.6191 117.849 43.5271 117.601 44.54C117.563 44.6945 117.423 44.7995 117.257 44.8056C117.194 45.0157 117.13 45.238 117.067 45.448C117.009 45.6518 116.946 45.8557 116.888 46.0595C117.245 45.5345 117.613 45.0465 118.033 44.5833C118.765 43.7741 119.547 43.1441 120.425 42.6623C121.334 42.162 122.269 41.9026 123.178 41.6555C123.56 41.5505 123.948 41.4455 124.336 41.3158C124.985 41.1058 126.384 40.4264 126.537 40.1731C126.632 40.0002 126.855 39.9384 127.033 40.031C127.192 40.1175 127.262 40.3213 127.179 40.4881ZM108.29 80.4267C106.426 80.1426 104.798 80.1488 103.227 80.402C105.841 80.6799 108.252 81.835 110.579 82.9591C111.794 83.5459 113.053 84.1574 114.325 84.6269C114.465 84.6763 114.535 84.8307 114.484 84.9666C114.44 85.0839 114.319 85.1519 114.192 85.1333C114.173 85.1333 114.147 85.1272 114.128 85.1148C112.831 84.633 111.565 84.0215 110.331 83.4286C108.048 82.3229 105.682 81.1988 103.164 80.927C103.94 81.6311 104.843 82.3353 105.93 82.8974C107.552 83.7312 109.263 84.423 111.018 84.9542C111.47 85.0901 114.745 85.8128 115.833 85.9981C115.712 84.3427 114.185 83.0456 113.505 82.5453C112.01 81.4459 110.204 80.7108 108.29 80.4267ZM117.556 37.7086C117.753 39.0181 117.703 40.2905 117.645 41.5196C118.262 39.4751 118.625 37.511 118.701 35.6765C118.733 34.8303 118.58 33.9717 118.428 33.1378C118.18 31.7975 117.925 30.4139 118.415 28.9871C118.459 28.845 118.618 28.7709 118.758 28.8203C118.905 28.8636 118.981 29.018 118.93 29.1539C118.485 30.4572 118.714 31.7172 118.962 33.0452C119.121 33.9038 119.286 34.7994 119.248 35.7012C119.172 37.5233 118.828 39.4628 118.237 41.4764C118.269 41.4208 118.307 41.359 118.339 41.2973C118.542 40.9575 118.746 40.624 118.936 40.2781C120.444 37.5604 120.87 34.4967 120.272 30.6363C120.126 29.6913 119.897 28.7339 119.68 27.8135C119.452 26.8438 119.216 25.8493 119.064 24.8425C119.064 24.8487 119.057 24.8487 119.057 24.8549C118.962 24.9969 118.873 25.1205 118.822 25.207C118.485 25.837 118.192 26.4052 117.944 26.9488C117.353 28.2459 116.939 29.4195 116.691 30.5498C116.513 31.3466 116.469 32.1496 116.558 33.002C116.64 33.8543 116.863 34.7191 117.079 35.5468C117.264 36.2509 117.448 36.9736 117.556 37.7086ZM111.362 49.8644C111.686 50.3091 111.991 50.7415 112.284 51.1924C111.998 49.2467 111.54 47.5975 110.834 45.9977C110.064 44.2559 109.352 42.3967 109.727 40.5561C109.759 40.414 109.905 40.3214 110.045 40.3461C110.191 40.3769 110.287 40.5128 110.261 40.6549C109.912 42.3473 110.573 44.0459 111.336 45.7816C112.169 47.684 112.672 49.642 112.945 52.0509C113.123 50.8341 113.276 49.5864 113.238 48.3573C113.168 46.2633 112.831 44.4721 112.195 42.8723C111.813 41.9149 111.304 40.9761 110.808 40.0681C110.299 39.1416 109.784 38.1904 109.384 37.1836C108.862 39.2528 108.404 41.5011 108.659 43.6691C108.868 45.4419 109.555 47.2269 110.637 48.8267C110.878 49.1973 111.12 49.5308 111.362 49.8644ZM107.463 61.9645C107.571 62.0263 107.654 62.0634 107.724 62.0942C107.418 61.5136 107.132 60.9207 106.865 60.3462C106.401 59.3456 105.924 58.3079 105.288 57.3629L104.887 56.7699C103.971 55.4358 103.024 54.0583 102.712 52.4215C102.687 52.2795 102.782 52.1374 102.935 52.1127C103.081 52.088 103.227 52.1806 103.253 52.3227C103.539 53.8483 104.455 55.1825 105.345 56.4734L105.752 57.0664C106.414 58.0423 106.903 59.0985 107.374 60.1239C107.622 60.6612 107.883 61.2048 108.163 61.7422C108.169 61.526 108.156 61.2789 108.143 61.0936L108.131 60.8218C108.035 58.6291 107.406 56.4734 106.305 54.5895C105.555 53.2986 104.575 52.1127 103.628 50.9638L100.448 47.1095C100.569 48.7896 100.766 50.4759 101.033 52.1312C101.281 53.6816 101.561 54.954 102.114 56.1399C102.839 57.6841 104.035 58.9935 105.002 59.9633C105.72 60.6921 106.515 61.4395 107.463 61.9645ZM102.623 73.2C101.135 70.1734 99.8755 67.0232 98.9024 63.8114C98.8579 63.6693 98.9406 63.5272 99.0868 63.484C99.2331 63.4408 99.3858 63.5211 99.4239 63.6631C100.391 66.8688 101.65 70.0066 103.138 73.027C103.138 72.9776 103.138 72.9282 103.145 72.8788C103.221 70.5687 103.291 68.3883 102.496 66.2697C101.707 64.1758 100.461 62.2795 99.2585 60.5192C98.6225 59.5927 97.923 58.66 96.9817 58.2338C96.3902 61.5569 96.4856 64.324 97.2742 66.6712C98.2537 69.5804 100.321 71.4272 102.623 73.2ZM102.712 74.3488C100.276 74.6268 97.9357 75.4545 95.8878 76.7701C95.8305 76.8072 95.7669 76.8195 95.7033 76.8133C95.627 76.801 95.557 76.7639 95.5125 76.696C95.4298 76.5724 95.4616 76.4118 95.5888 76.3315C97.6177 75.0344 99.92 74.1944 102.324 73.8732C101.885 73.5335 101.453 73.1938 101.027 72.8479C100.893 72.8602 100.753 72.8046 100.677 72.6873C100.664 72.6811 100.613 72.6564 100.48 72.6564C99.2967 72.6379 98.1774 73.2864 97.2361 73.9288C95.2518 75.2815 93.471 76.8936 91.9382 78.7157C93.8017 78.6169 95.697 78.4749 97.5159 78.0548C98.8134 77.7522 99.761 77.3631 100.505 76.8319C101.408 76.1771 102.076 75.2568 102.712 74.3488ZM105.11 73.132C107.946 70.9454 111.215 69.253 114.662 68.203C114.802 68.1598 114.961 68.2339 115.006 68.376C115.05 68.518 114.968 68.6662 114.828 68.7095C111.343 69.7657 108.048 71.5014 105.205 73.7435C106 73.4717 106.795 73.3297 107.609 73.1938C107.991 73.132 108.379 73.0641 108.792 72.9838C110.503 72.6441 112.176 72.0634 113.753 71.2666C115.33 70.4699 116.774 69.4754 118.059 68.308C118.688 67.7397 119.273 67.1221 119.808 66.4859C119.865 66.4118 120.037 66.1462 120.202 65.8867C120.412 65.5532 120.584 65.2876 120.724 65.0776C117.779 65.4358 114.516 65.9732 111.597 67.258C109.867 68.0177 108.372 69.006 107.145 70.1981C106.312 71.0196 105.689 72.0696 105.11 73.132ZM110.166 60.7662C109.848 61.0998 109.6 61.4827 109.365 61.878C109.886 61.5877 110.458 61.3716 111.037 61.1863C111.737 60.9639 112.449 60.7662 113.161 60.5686C115.508 59.9077 117.931 59.2282 119.839 57.7767C119.96 57.6841 120.132 57.7088 120.221 57.8199C120.316 57.9373 120.291 58.1041 120.177 58.1906C118.186 59.7038 115.705 60.4018 113.314 61.0689C112.608 61.2666 111.902 61.4642 111.209 61.6866C110.357 61.9583 109.409 62.3104 108.779 62.9899C109.015 62.996 109.256 63.0022 109.492 63.0084C110.325 63.0269 111.19 63.0516 112.029 63.0084C114.949 62.854 117.474 61.0936 120.011 59.1418C121.429 58.0485 122.835 56.8626 123.344 55.3616C121.722 56.109 119.967 56.5599 118.262 56.9923C117.334 57.227 116.373 57.4741 115.451 57.7644C113.098 58.5117 111.374 59.4877 110.166 60.7662ZM125.926 41.3961C125.315 41.7049 124.692 41.9397 124.552 41.9829C124.152 42.1126 123.757 42.2238 123.363 42.3288C122.46 42.582 121.601 42.8167 120.768 43.2738C119.96 43.7185 119.242 44.2991 118.567 45.0465C117.734 45.973 117.079 47.0169 116.316 48.2893C116.163 48.5487 116.017 48.8143 115.864 49.0738C115.712 49.4629 115.546 49.8582 115.362 50.2535C115.871 49.7841 116.437 49.364 116.99 48.9502L117.232 48.7649C119.223 47.2763 121.118 45.6333 122.86 43.8853C122.969 43.7803 123.14 43.7803 123.248 43.8791C123.357 43.9841 123.357 44.1509 123.255 44.2559C121.487 46.0224 119.579 47.684 117.569 49.1849L117.327 49.3641C116.609 49.9014 115.877 50.445 115.292 51.0935C115.368 51.0503 115.438 51.007 115.496 50.97C116.5 50.3214 117.588 49.8273 118.637 49.3517C120.647 48.4437 122.542 47.579 123.878 45.7198C124.552 44.7809 124.978 43.7185 125.424 42.6006C125.589 42.2052 125.754 41.7976 125.926 41.3961Z" fill="#95BC8F"/>
<path d="M316.526 73.6012C315.941 76.8687 316.087 79.7717 316.1 83.0577C316.774 82.1868 317.168 81.18 317.862 80.34C318.663 79.3579 319.604 78.4931 320.393 77.4925C321.945 75.5036 323.236 73.3109 324.133 70.9637C325.684 66.9056 326.041 62.3719 324.781 58.2212C321.347 62.9896 317.836 67.9186 316.526 73.6012Z" fill="#6F9969"/>
<path d="M310.448 86.4058C310.492 86.517 310.53 86.6282 310.575 86.7394C311.605 89.3645 312.788 92.0513 312.648 94.8617C313.405 92.8543 314.276 91.1557 314.524 89.0186C314.779 86.8073 314.836 84.5713 314.455 82.3724C314.117 80.4206 313.501 78.512 312.623 76.7207C312.292 76.0413 309.443 72.5576 309.551 72.1438C308.324 76.9616 308.692 81.7548 310.448 86.4058Z" fill="#6F9969"/>
<path d="M319.951 84.2373C323.029 81.6245 326.953 79.8148 329.179 76.4917C327.608 82.0013 324.002 87.1774 318.672 89.6048C315.671 90.9699 313.495 92.4523 311.975 95.4604C313.565 91.2849 316.491 87.1712 319.951 84.2373Z" fill="#6F9969"/>
<path d="M324.69 88.8025C324.557 90.1428 323.654 91.7364 323.126 92.9779C322.496 94.4542 322.185 96.091 321.192 97.4005C320.079 98.8829 318.286 99.692 316.632 100.575C311.92 103.089 306.965 106.295 304.949 111.446C308.975 102.119 316.149 94.4974 324.69 88.8025Z" fill="#6F9969"/>
<path d="M302.842 89.9141C300.89 93.6942 300.33 98.1044 301.131 102.255C301.462 103.972 301.926 105.671 302.282 107.376C302.486 108.364 302.963 109.309 303.338 110.242C303.567 110.81 304.636 112.545 304.489 113.101C305.774 109.105 306.181 104.923 305.819 100.754C305.66 98.9197 305.221 97.1408 304.693 95.3681C304.432 94.4972 302.48 90.612 302.842 89.9141Z" fill="#6F9969"/>
<path d="M333.527 92.1868C332.795 94.8551 332.668 97.684 331.651 100.26C330.773 102.49 329.208 104.454 327.25 105.887C326.257 106.616 325.443 106.844 324.311 107.165C322.861 107.585 321.634 108.407 320.324 109.099C323.904 102.965 329.565 98.0917 333.527 92.1868Z" fill="#6F9969"/>
<path d="M317.223 81.0202C316.046 85.628 314.863 90.2667 312.822 94.5965C311.772 96.8202 310.507 98.9388 309.413 101.138C308.363 103.25 307.473 105.431 306.691 107.648C305.082 112.188 303.568 116.851 303.269 121.669C302.977 126.369 303.466 131.07 303.301 135.77C303.136 140.527 302.296 145.388 299.568 149.433C299.275 149.872 298.594 149.396 298.887 148.958C304.083 141.243 302.067 131.478 302.372 122.824C302.455 120.409 302.722 118.006 303.333 115.659C303.931 113.361 304.649 111.076 305.4 108.821C306.144 106.592 306.977 104.387 307.956 102.249C308.955 100.075 310.157 98.0061 311.257 95.8813C313.738 91.0882 315.118 85.9183 316.441 80.7299C316.568 80.2234 317.35 80.5198 317.223 81.0202Z" fill="#6F9969"/>
<path d="M302.271 124.75C301.025 122.805 299.416 121.106 297.978 119.296C297.234 118.358 296.522 117.382 295.905 116.356C295.224 115.232 294.684 114.034 294.175 112.829C292.083 107.9 291.11 102.644 290.206 97.4123C289.704 94.4907 289.208 91.563 288.502 88.6723C288.375 88.1596 289.208 88.0237 289.329 88.5364C290.575 93.6507 291.167 98.8885 292.312 104.028C293.431 109.049 295.065 114.17 298.271 118.327C299.842 120.365 301.642 122.243 303.035 124.411C303.321 124.855 302.558 125.195 302.271 124.75Z" fill="#6F9969"/>
<path d="M302.615 132.026C303.061 129.778 303.512 127.499 304.434 125.38C305.382 123.212 306.908 121.464 308.479 119.71C310.037 117.968 311.608 116.233 313.364 114.676C315.189 113.058 317.301 111.798 319.17 110.241C321.117 108.623 322.745 106.652 323.96 104.46C324.214 104.003 324.996 104.287 324.742 104.75C323.692 106.646 322.382 108.37 320.805 109.883C319.088 111.532 317.033 112.761 315.17 114.231C313.313 115.695 311.678 117.394 310.101 119.136C308.53 120.871 306.813 122.601 305.706 124.658C304.466 126.974 303.951 129.568 303.449 132.107C303.353 132.613 302.514 132.539 302.615 132.026Z" fill="#6F9969"/>
<path d="M326.168 112.243C325.234 113.268 324.305 114.294 323.37 115.319C322.219 116.585 320.972 117.907 319.3 118.364C318.581 118.562 317.831 118.58 317.08 118.574C315.935 118.562 314.752 118.241 313.646 118.234C312.374 118.228 310.924 118.852 309.696 119.167C310.898 118.858 311.992 116.486 312.984 115.739C313.856 115.078 314.988 114.874 316.005 114.497C319.293 113.287 322.632 112.441 326.168 112.243Z" fill="#6F9969"/>
<path d="M309.277 112.379C308.374 113.843 307.274 115.535 306.981 117.228C306.727 118.691 307.356 121.014 306.746 122.354C308.069 119.464 309.716 116.715 311.649 114.164C312.718 112.749 313.92 111.323 314.537 109.655C314.836 108.846 314.912 108.043 314.975 107.197C315.001 106.857 314.855 105.239 315.02 105.072C312.839 107.295 310.905 109.748 309.277 112.379Z" fill="#6F9969"/>
<path d="M287.194 75.9238C287.569 76.3994 286.724 80.1054 286.717 80.8961C286.711 82.6502 286.87 84.4044 287.194 86.1339C287.811 89.4385 289.223 92.4589 289.802 95.7819C290.171 90.7479 292.556 86.2142 290.533 81.1246C289.776 79.2098 288.473 77.5545 287.194 75.9238Z" fill="#6F9969"/>
<path d="M297.812 97.1344C297.482 98.9256 296.839 101.168 295.523 102.533C294.187 103.923 293.15 104.769 292.324 106.647C292.025 99.6668 294.473 92.8848 296.897 86.3066C296.648 86.9737 297.265 87.7952 297.456 88.3697C297.742 89.2282 297.863 90.1238 297.959 91.0318C298.181 93.0578 298.188 95.1208 297.812 97.1344Z" fill="#6F9969"/>
<path d="M282.24 97.4187C283.175 100.754 284.823 103.892 287.01 106.61C288.117 107.981 289.376 109.167 290.693 110.347C291.252 110.853 291.615 111.446 292.245 111.885C292.664 112.175 293.097 112.447 293.542 112.706C293.739 112.823 294.706 113.2 294.763 113.379C293.186 108.351 290.356 104.176 286.489 100.495C285.217 99.2902 283.9 98.0487 282.24 97.4187Z" fill="#6F9969"/>
<path d="M238.377 146.172C248.591 148.772 258.856 151.169 267.34 157.099C267.69 149.989 272.523 143.64 275.862 137.518C279.271 131.249 282.515 124.825 284.308 117.92C285.39 113.775 285.701 108.784 282.534 105.813C280.817 104.207 278.241 103.522 275.92 104.059C273.605 104.597 271.62 106.338 270.838 108.525C271.538 104.442 272.746 100.217 272.428 96.0727C272.364 95.2141 272.224 94.3 271.652 93.6452C270.819 92.694 269.28 92.6014 268.09 93.0893C266.907 93.5773 265.992 94.5162 265.114 95.4303C267.9 90.6681 269.63 84.9608 268.097 79.6859C266.933 75.6834 262.684 70.9891 258.01 71.1374C252.884 71.298 248.756 75.356 246.893 79.6983C246.238 71.6006 241.824 63.855 235.101 59.0248C232.5 57.1533 229.046 55.6771 226.089 56.9618C223.284 58.1848 222.07 61.3967 221.618 64.3491C220.511 71.5759 222.349 79.1856 226.649 85.177C224.391 83.1449 217.656 79.8712 216.059 84.0281C215.551 85.3438 215.735 86.82 216.098 88.1789C217.866 94.8497 223.424 99.8343 228.722 104.417C227.425 103.664 226.064 102.898 224.556 102.793C223.049 102.688 221.357 103.472 220.995 104.899C220.785 105.715 221.033 106.567 221.313 107.364C223.151 112.54 226.585 117.172 231.056 120.508C228.748 118.784 221.306 115.387 221.179 120.31C221.071 124.51 225.37 129.631 228.576 131.959C226.916 131.651 225.199 131.336 223.539 131.657C216.765 132.966 221.281 139.087 224.505 141.49C228.264 144.3 233.899 145.029 238.377 146.172Z" fill="#00A82D"/>
<path d="M221.634 90.1677C230.996 94.6829 239.563 100.693 246.902 107.92C248.276 109.272 249.599 110.668 250.884 112.101C248.594 106.851 246.19 101.644 243.716 96.4741C241.306 91.4401 238.832 86.4431 236.338 81.4524C236.218 81.4709 236.078 81.44 235.957 81.3288C232.071 77.9564 228.643 74.1083 225.787 69.8711C225.412 69.309 226.264 68.679 226.639 69.241C229.107 72.8976 231.995 76.2701 235.251 79.2843C234.437 77.6599 233.616 76.0354 232.796 74.4109C232.491 73.8056 233.489 73.4165 233.788 74.0156C236.3 79.0002 238.812 83.991 241.274 89.0003C240.275 82.0639 238.475 75.2571 235.9 68.7037C235.652 68.0798 236.644 67.6845 236.892 68.3083C239.887 75.9242 241.853 83.8922 242.737 92.0022C245.249 97.1721 247.704 102.373 250.057 107.611C250.661 103.75 251.443 99.9207 252.404 96.1344C252.506 92.6569 251.863 89.1856 250.528 85.9552C250.273 85.3313 251.265 84.936 251.52 85.5599C252.467 87.8453 253.065 90.2418 253.326 92.6693C254.687 87.8638 256.328 83.1263 258.249 78.4999C258.509 77.8761 259.489 78.2899 259.234 78.9138C256.888 84.5716 254.967 90.3839 253.466 96.3012C253.46 96.4185 253.466 96.5359 253.46 96.6532C253.453 96.8138 253.383 96.9312 253.281 96.9991C252.575 99.8404 251.984 102.713 251.482 105.597C253.879 100.897 257.594 96.9003 261.225 93.0461C261.689 92.5519 262.535 93.1943 262.071 93.6884C257.689 98.3333 253.192 103.163 251.081 109.241C251.043 109.359 250.973 109.427 250.896 109.476C251.558 110.958 252.207 112.447 252.849 113.942C256.531 122.521 259.883 131.249 262.701 140.137C263.254 137.444 264.049 134.819 265.009 132.243C265.995 126.968 266.103 121.589 265.334 116.283C265.238 115.616 266.3 115.492 266.402 116.159C266.981 120.156 267.064 124.201 266.669 128.21C268.87 123.275 271.573 118.525 274.288 113.88C274.626 113.306 275.611 113.713 275.274 114.294C272.768 118.587 270.256 122.972 268.157 127.506C271.267 124.899 274.568 122.527 278.066 120.44C278.651 120.094 279.3 120.922 278.715 121.267C274.6 123.726 270.74 126.548 267.178 129.711C267.178 129.711 267.172 129.711 267.172 129.717C265.435 133.781 264.081 137.982 263.394 142.355C264.659 146.505 265.823 150.687 266.822 154.912C268.711 162.898 270.053 171.002 270.733 179.174C270.79 179.841 269.722 179.971 269.665 179.298C268.628 166.802 266.008 154.504 262.338 142.503C262.338 142.497 262.332 142.491 262.332 142.491C261.34 140.02 259.501 137.944 257.702 135.986C255.813 133.936 253.854 131.953 251.806 130.051C251.621 129.878 251.431 129.717 251.246 129.55C250.826 129.674 250.515 130.02 250.152 130.248C249.79 130.477 249.395 130.656 249.02 130.872C248.143 131.366 247.278 131.873 246.419 132.392C244.67 133.448 242.953 134.547 241.261 135.69C240.695 136.073 240.046 135.245 240.612 134.862C242.419 133.646 244.257 132.472 246.126 131.354C247.017 130.823 247.914 130.285 248.829 129.791C249.141 129.624 249.44 129.414 249.739 129.217C244.867 128.679 240.046 130.322 235.194 130.607C234.507 130.65 234.373 129.612 235.066 129.575C239.951 129.285 244.784 127.673 249.694 128.167C246.241 125.122 242.603 122.274 238.781 119.68C236.084 117.852 233.305 116.147 230.455 114.559C229.864 114.232 230.284 113.269 230.882 113.602C241 119.223 250.159 126.363 257.988 134.745C258.999 135.826 260.023 136.938 260.945 138.117C260.812 137.704 260.678 137.29 260.538 136.876C258.071 129.495 255.234 122.243 252.181 115.078C252.105 115.047 252.029 115.004 251.965 114.924C250.07 112.682 248.06 110.538 245.955 108.482C245.859 108.5 245.758 108.494 245.649 108.438C243.608 107.401 241.299 107.339 239.041 107.29C236.345 107.234 233.655 107.185 230.958 107.129C230.271 107.117 230.436 106.085 231.117 106.097C233.89 106.153 236.663 106.202 239.442 106.258C241.038 106.295 242.66 106.375 244.199 106.777C239.544 102.459 234.437 98.6051 228.961 95.3005C226.455 93.7873 223.866 92.3975 221.221 91.1189C220.591 90.8286 221.017 89.8712 221.634 90.1677Z" fill="#008855"/>
<path d="M205.279 72.5208C204.09 74.3614 202.697 76.0662 201.107 77.598C200.866 77.8327 200.389 77.7401 200.312 77.3942C199.619 74.2502 198.576 70.9951 199.581 67.8017C199.759 67.2335 200.681 67.4744 200.503 68.0488C199.549 71.0754 200.579 74.1761 201.234 77.1471C200.967 77.0792 200.7 77.0112 200.439 76.9433C201.972 75.4609 203.314 73.8302 204.459 72.0513C204.777 71.5448 205.604 72.0081 205.279 72.5208Z" fill="white"/>
<path d="M204.562 95.8444C208.269 91.5393 210.89 85.727 209.885 80.1741C209.223 76.5052 208.454 72.8671 207.932 69.1178C207.633 66.9498 207.335 64.7756 207.036 62.6076C206.889 61.539 205.814 58.1851 206.304 57.2771C201.687 65.8442 191.905 70.2852 186.874 78.7164C181.977 86.9191 183.008 99.5381 182.791 108.859C189.794 106.024 196.961 103.084 202.463 98.0124C203.188 97.3454 203.894 96.6227 204.562 95.8444Z" fill="#6F9969"/>
<path d="M204.22 66.4182C203.228 68.9877 202.427 71.619 201.753 74.2873C201.091 76.8754 200.659 79.5376 199.921 82.1009C199.253 84.4233 198.172 86.5975 196.938 88.6852C196.086 90.1368 195.164 91.545 194.273 92.9719C193.828 93.6884 193.37 94.3925 192.874 95.072C187.443 102.527 180.733 109.007 175.359 116.505C172.306 120.767 169.724 125.363 168.172 130.347C168.057 130.712 167.466 130.588 167.574 130.224C170.347 121.323 176.255 113.929 182.316 106.9C185.382 103.343 188.511 99.8342 191.354 96.1035C192.314 94.8434 193.192 93.534 194.032 92.206C195.793 89.4079 197.669 86.5852 198.827 83.4597C199.349 82.0638 199.654 80.6185 199.972 79.167C200.296 77.7031 200.627 76.2454 200.983 74.7938C201.708 71.8661 202.573 68.9692 203.667 66.1465C203.82 65.7944 204.36 66.0662 204.22 66.4182Z" fill="#008855"/>
<path d="M195.276 100.038C191.657 101.632 188.032 103.219 184.413 104.813C184.21 104.906 183.955 104.677 184.019 104.473C185.603 99.3714 186.652 94.1273 187.135 88.8215C187.167 88.4448 187.765 88.5683 187.733 88.9451C187.25 94.2509 186.201 99.4949 184.617 104.597C184.483 104.486 184.356 104.368 184.223 104.257C187.841 102.67 191.467 101.076 195.085 99.4887C195.442 99.3158 195.632 99.8779 195.276 100.038Z" fill="#008855"/>
<path d="M201.974 90.495C198.858 93.0584 195.264 95.0411 191.404 96.332C191.194 96.4 190.946 96.2085 191.01 95.9923C192.555 90.6495 193.197 85.0904 192.905 79.5437C192.886 79.1608 193.49 79.1299 193.515 79.5067C193.814 85.1028 193.166 90.7174 191.607 96.1097C191.474 95.9985 191.347 95.8811 191.213 95.7699C195.029 94.4914 198.559 92.5272 201.644 89.9947C201.942 89.7538 202.273 90.248 201.974 90.495Z" fill="#008855"/>
<path d="M206.488 77.5243C205.935 79.4638 204.879 81.2798 203.391 82.6942C202.005 84.0099 200.09 84.6028 198.322 85.2576C198.125 85.3317 197.921 85.1896 197.921 84.992C197.934 80.5262 197.508 76.0666 196.624 71.6874C196.548 71.3168 197.126 71.1315 197.203 71.5021C198.1 75.9369 198.545 80.4397 198.532 84.9611C198.398 84.8746 198.265 84.7881 198.131 84.6955C199.798 84.084 201.636 83.5343 202.946 82.2989C204.358 80.9648 205.375 79.2476 205.897 77.407C205.992 77.0364 206.59 77.1537 206.488 77.5243Z" fill="#008855"/>
<path d="M219.124 113.342C212.846 119.124 202.632 123.546 193.823 122.354C190.758 121.94 187.851 120.841 184.989 119.748C182.369 118.747 179.768 117.567 177.014 117.079C177.478 117.16 178.547 115.387 178.788 115.072C179.437 114.226 180.048 113.342 180.722 112.515C182.051 110.878 183.552 109.34 185.282 108.098C188.449 105.819 193.843 105.535 197.671 105.788C205.322 106.289 212.407 109.735 219.124 113.342Z" fill="#6F9969"/>
<path d="M172.999 118.686C177.089 116.518 181.369 114.652 185.853 113.404C188.155 112.762 190.54 112.249 192.912 111.916C195.304 111.576 197.727 111.545 200.137 111.601C202.942 111.663 205.74 111.836 208.545 111.811C208.933 111.811 208.971 112.398 208.583 112.404C203.731 112.441 198.865 111.873 194.025 112.379C191.691 112.626 189.344 113.114 187.08 113.695C184.816 114.275 182.596 115.017 180.428 115.881C177.998 116.845 175.645 117.969 173.343 119.186C172.987 119.365 172.656 118.871 172.999 118.686Z" fill="#008855"/>
<path d="M207.001 109.847C204.514 110.372 202.078 111.1 199.712 112.021C199.725 111.842 199.744 111.656 199.757 111.477C202.937 112.842 205.951 114.528 208.775 116.493C209.093 116.715 208.68 117.147 208.368 116.931C205.589 114.998 202.606 113.349 199.477 112.002C199.223 111.891 199.299 111.545 199.521 111.459C201.881 110.538 204.317 109.809 206.81 109.284C207.185 109.204 207.382 109.766 207.001 109.847Z" fill="#008855"/>
<path d="M200.356 118C197.863 115.616 194.855 113.787 191.548 112.669C191.338 112.601 191.217 112.36 191.389 112.181C193.151 110.304 195.294 108.815 197.679 107.777C198.035 107.623 198.226 108.185 197.87 108.339C195.574 109.334 193.526 110.779 191.834 112.577C191.783 112.416 191.726 112.249 191.675 112.089C195.084 113.238 198.194 115.097 200.77 117.561C201.043 117.827 200.636 118.265 200.356 118Z" fill="#008855"/>
<path d="M194.889 120.001C193.045 118.438 190.908 117.345 188.574 116.641C186.481 116.017 184.262 115.356 182.048 115.708C181.762 115.752 181.661 115.393 181.807 115.214C183.174 113.479 184.745 111.805 186.386 110.31C187.817 109 189.521 108.018 191.379 107.413C191.747 107.296 191.938 107.845 191.582 107.969C189.986 108.537 188.428 109.192 187.213 110.341C185.477 111.984 183.747 113.726 182.258 115.61C182.176 115.443 182.099 115.282 182.017 115.115C184.325 114.751 186.666 115.449 188.854 116.11C191.232 116.826 193.42 117.969 195.296 119.563C195.595 119.816 195.188 120.254 194.889 120.001Z" fill="#008855"/>
<path d="M175.474 101.386C175.08 103.171 176.256 104.931 178.094 105.314C179.932 105.697 181.745 104.554 182.139 102.769C182.534 100.984 181.357 99.2238 179.519 98.8408C177.674 98.4579 175.862 99.5944 175.474 101.386Z" fill="#00A82D"/>
<path d="M178.661 110.811C178.267 112.596 179.444 114.357 181.282 114.74C183.12 115.123 184.932 113.98 185.327 112.195C185.721 110.41 184.544 108.649 182.706 108.266C180.862 107.877 179.056 109.02 178.661 110.811Z" fill="#00A82D"/>
<path d="M165.83 104.77C165.436 106.555 166.613 108.316 168.451 108.699C170.289 109.082 172.101 107.939 172.496 106.154C172.89 104.369 171.713 102.609 169.875 102.226C168.031 101.843 166.225 102.985 165.83 104.77Z" fill="#00A82D"/>
<path d="M168.896 115.487C168.501 117.272 169.678 119.032 171.516 119.415C173.354 119.798 175.167 118.655 175.561 116.87C175.955 115.085 174.779 113.325 172.941 112.942C171.103 112.559 169.29 113.702 168.896 115.487Z" fill="#00A82D"/>
<path d="M380.019 89.124C381.031 91.8912 382.303 95.1834 382.5 98.142C382.684 100.909 380.14 101.941 377.946 102.873C376.858 103.337 374.314 104.695 373.825 105.869C373.297 107.148 375.135 107.524 376.248 107.345C376.884 107.24 381.056 106.326 381.094 105.585C380.694 112.83 378.658 119.933 375.268 126.376C373.907 128.964 372.158 128.982 369.64 128.253C366.702 127.401 363.859 126.407 361.245 124.825C357.861 122.781 354.643 120.477 351.648 117.926C349.848 116.388 335.404 101.786 338.311 100.205C338.858 99.9085 339.538 100.038 340.155 100.162C341.503 100.427 342.877 100.594 344.257 100.662C344.715 100.687 345.192 100.693 345.618 100.514C346.038 100.335 346.394 99.9271 346.35 99.4823C346.311 99.1241 346.032 98.8338 345.739 98.6053C343.462 96.8387 339.837 97.2587 337.859 95.1772C337.185 94.4669 336.803 93.5465 336.485 92.6262C335.302 89.1981 334.902 85.5724 334.507 81.9838C334.297 80.069 334.088 78.1542 333.878 76.2394C333.852 76.0109 333.827 75.7762 333.884 75.5476C334.037 74.9238 334.787 74.5841 335.449 74.6458C336.11 74.7076 336.689 75.0658 337.248 75.4117C338.813 76.3876 340.378 77.3636 341.936 78.3395C342.419 78.6421 342.934 78.951 343.507 78.9942C344.079 79.0375 344.728 78.7163 344.83 78.1604C344.893 77.8145 344.728 77.4686 344.55 77.1659C342.063 73.0646 336.415 71.1807 336.326 65.8255C336.288 63.5833 337.217 61.4339 338.26 59.4388C339.118 57.8081 340.066 56.2207 341.077 54.6765C341.745 53.6512 342.744 51.3844 344.009 50.9396C345.256 50.5011 346.769 51.86 347.73 52.4591C352.856 55.6833 357.912 58.9755 362.237 63.2189C362.479 63.4598 362.733 63.7192 362.784 64.0528C362.841 64.4172 362.644 64.7631 362.453 65.0781C361.264 67.067 360.214 69.2474 358.624 70.9398C358.065 71.5328 357.524 71.9528 357.537 72.8731C357.556 74.0776 358.338 74.3061 359.178 73.4352C360.901 71.644 362.402 69.1424 364.444 67.7094C364.711 67.5179 365.029 67.3511 365.36 67.3758C365.786 67.4129 366.104 67.765 366.371 68.0923C368.253 70.4271 369.996 72.8669 371.586 75.3932C371.847 75.8132 372.114 76.2703 372.063 76.7582C371.993 77.3821 371.44 77.8268 370.95 78.2283C368.743 80.0443 366.613 82.3976 365.334 84.9239C365.016 85.5539 364.755 86.2704 364.972 86.9375C365.048 87.1722 365.194 87.3945 365.411 87.5243C365.83 87.7775 366.377 87.6231 366.816 87.4131C368.991 86.3815 370.39 84.3 372.025 82.5644C372.4 82.1691 372.826 81.7676 373.373 81.6811C374.563 81.502 376.127 83.1203 376.846 83.9232C378.175 85.4427 379.326 87.2278 380.019 89.124Z" fill="#00A82D"/>
<path d="M352.988 64.5714C351.9 67.178 350.73 69.7413 349.502 72.2861C348.466 67.8945 347.562 63.4719 346.755 59.0371C346.64 58.3947 345.642 58.6912 345.756 59.3212C346.596 63.9229 347.543 68.506 348.631 73.0644C347.359 72.5394 346.265 71.5202 345.203 70.7111C343.746 69.5992 342.284 68.4874 340.827 67.3756C340.306 66.9803 339.587 67.7092 340.115 68.1106C341.686 69.3089 343.263 70.5072 344.834 71.7055C346.087 72.6567 347.346 73.7932 348.911 74.2256C350.132 79.2164 351.525 84.1701 353.147 89.0558C349.801 87.104 346.602 84.9175 343.6 82.49C343.091 82.0762 342.373 82.8112 342.888 83.225C346.233 85.9243 349.801 88.3517 353.566 90.4827C353.592 90.495 353.617 90.495 353.643 90.5012C353.789 90.9212 353.922 91.3412 354.069 91.7551C355.131 94.7755 356.288 97.765 357.548 100.711C357.497 100.816 357.446 100.921 357.395 101.026C354.101 99.6304 350.806 98.2344 347.518 96.8385C346.907 96.5791 346.418 97.4685 347.035 97.7279C350.494 99.1918 353.954 100.662 357.414 102.126C357.649 102.225 357.948 102.175 358.088 101.953C359.666 105.56 361.395 109.105 363.297 112.564C362.985 112.453 362.623 112.293 362.515 112.256C361.796 112.021 361.077 111.78 360.365 111.527C358.673 110.94 356.994 110.31 355.334 109.649C352.231 108.407 349.178 107.042 346.189 105.56C345.597 105.264 345.108 106.153 345.705 106.449C350.762 108.957 355.996 111.125 361.364 112.929C362.025 113.151 362.693 113.386 363.367 113.584C363.558 113.639 363.749 113.689 363.933 113.689C365.25 116.03 366.649 118.333 368.131 120.588C368.105 120.588 368.08 120.594 368.054 120.588C367.628 120.576 367.164 120.433 366.744 120.359C365.867 120.211 364.995 120.057 364.118 119.908C362.26 119.587 360.397 119.266 358.54 118.951C357.885 118.84 357.643 119.822 358.304 119.933C360.435 120.298 362.572 120.668 364.703 121.033C365.739 121.212 366.776 121.409 367.819 121.57C368.162 121.619 368.493 121.638 368.792 121.576C368.913 121.749 369.027 121.928 369.142 122.101C372.735 127.37 376.793 132.33 381.321 136.87C381.786 137.339 382.498 136.598 382.034 136.135C377.404 131.496 373.289 126.406 369.651 121.008C370.147 120.403 370.484 119.593 370.834 118.908C371.253 118.08 371.654 117.24 372.017 116.388C372.767 114.64 373.39 112.849 373.899 111.02C374.071 110.396 373.06 110.168 372.888 110.792C372.01 113.942 370.77 116.993 369.155 119.853C369.11 119.927 369.072 119.995 369.027 120.063C367.526 117.784 366.108 115.449 364.766 113.071C364.868 112.836 364.932 112.577 364.995 112.342C365.192 111.613 365.39 110.884 365.587 110.155C366.318 107.395 366.992 104.621 367.616 101.835C368.321 98.6792 368.957 95.5105 369.53 92.3357C369.644 91.6995 368.633 91.4648 368.519 92.1071C367.336 98.6792 365.867 105.202 364.111 111.65C364.098 111.7 364.086 111.761 364.073 111.823C363.494 110.761 362.922 109.692 362.375 108.611C361.058 106.023 359.837 103.392 358.692 100.736C360.48 96.9682 361.917 93.0522 362.973 89.0312C363.138 88.4011 362.127 88.1726 361.961 88.8026C361.001 92.453 359.729 96.0046 358.158 99.4389C356.816 96.2208 355.582 92.9657 354.469 89.6674C355.595 85.6278 356.269 81.4832 356.479 77.3016C356.511 76.653 355.474 76.6839 355.442 77.3325C355.264 80.8841 354.73 84.4048 353.878 87.8576C352.746 84.3863 351.716 80.8779 350.793 77.351C350.488 76.196 350.208 75.0347 349.922 73.8735C351.353 70.9643 352.695 68.018 353.935 65.0347C354.151 64.4479 353.236 63.9661 352.988 64.5714Z" fill="#008855"/>
<path d="M47.5944 69.408C47.2446 71.6069 46.7803 74.232 47.0665 76.4556C47.3337 78.5371 49.3752 78.951 51.1496 79.3463C52.0273 79.5378 54.1198 80.1987 54.654 81.0016C55.2328 81.8787 53.9226 82.4161 53.064 82.4346C52.5743 82.447 49.3434 82.342 49.2035 81.7984C50.5645 87.1289 53.1149 92.1321 56.5811 96.4557C57.9739 98.1914 59.2777 97.969 61.0458 97.0734C63.1064 96.0357 65.0717 94.8992 66.7889 93.3612C69.0021 91.3723 71.0628 89.2167 72.9135 86.9066C74.0265 85.5168 82.6316 72.6631 80.2402 71.8848C79.7887 71.7366 79.3053 71.9342 78.8601 72.1072C77.8934 72.4901 76.9012 72.8052 75.8836 73.046C75.5466 73.1263 75.1904 73.2005 74.8533 73.1263C74.5163 73.0522 74.1919 72.799 74.1601 72.4593C74.1347 72.1875 74.3 71.9342 74.4844 71.7242C75.9154 70.0998 78.6757 69.9083 79.8396 68.0862C80.2339 67.4623 80.3865 66.7273 80.4883 65.9984C80.8635 63.2869 80.6346 60.5382 80.4056 57.8081C80.2848 56.3566 80.1576 54.9051 80.0367 53.4474C80.024 53.2744 80.0049 53.0953 79.9286 52.9347C79.7251 52.49 79.1145 52.3417 78.6375 52.4776C78.1542 52.6135 77.7726 52.9594 77.4101 53.2929C76.3925 54.2318 75.3685 55.1768 74.3509 56.1157C74.0329 56.406 73.7022 56.7087 73.2761 56.8198C72.8563 56.931 72.3284 56.7828 72.1694 56.3813C72.074 56.1342 72.144 55.8563 72.233 55.603C73.4796 52.212 77.4037 50.0255 76.685 46.0353C76.3861 44.3614 75.3812 42.8914 74.3127 41.551C73.4351 40.4577 72.5001 39.4077 71.5207 38.3947C70.872 37.7277 69.7972 36.1773 68.7923 36.0229C67.8001 35.8685 66.8716 37.0915 66.2483 37.6659C62.9029 40.7728 59.6275 43.9167 57.0326 47.6721C56.8864 47.8821 56.7401 48.1107 56.7465 48.3639C56.7592 48.6419 56.9563 48.8704 57.1408 49.0804C58.3174 50.3961 59.4176 51.8723 60.8486 52.91C61.3511 53.2744 61.8154 53.5091 61.9426 54.1947C62.1079 55.0965 61.5546 55.3683 60.8041 54.8371C59.2587 53.7438 57.7768 52.0885 56.0532 51.304C55.8242 51.199 55.5635 51.1187 55.3218 51.1867C55.0102 51.2732 54.8257 51.582 54.6795 51.8599C53.6173 53.855 52.6824 55.9119 51.8683 58.012C51.7348 58.3578 51.6012 58.7408 51.7157 59.0929C51.8556 59.5438 52.339 59.8032 52.7587 60.0317C54.6667 61.0756 56.5938 62.5333 57.9167 64.2381C58.2474 64.6643 58.5463 65.1584 58.4827 65.6896C58.4573 65.8749 58.3873 66.0602 58.241 66.1899C57.9676 66.437 57.5351 66.3937 57.1789 66.3011C55.4109 65.8316 54.0625 64.479 52.5934 63.4104C52.2563 63.1695 51.8811 62.9286 51.4613 62.9409C50.5518 62.9718 49.6233 64.3925 49.2099 65.0843C48.4212 66.4184 47.8298 67.9008 47.5944 69.408Z" fill="#00A82D"/>
<path d="M64.0896 47.4127C65.2789 49.1978 66.5255 50.9458 67.8102 52.6691C67.9374 49.2596 67.9628 45.85 67.9183 42.4343C67.912 41.9402 68.6943 42.0205 68.7006 42.5084C68.7515 46.0477 68.7133 49.5869 68.5734 53.1262C69.4447 52.5579 70.1062 51.65 70.7803 50.9026C71.7025 49.8772 72.6247 48.8457 73.5469 47.8204C73.8776 47.4498 74.52 47.8945 74.1829 48.2651C73.1908 49.3708 72.1922 50.4826 71.2001 51.5882C70.4115 52.4715 69.6355 53.4906 68.5353 54.028C68.3572 57.907 68.0455 61.7859 67.5558 65.6402C69.7627 63.7254 71.817 61.6624 73.6932 59.4388C74.0112 59.062 74.6536 59.5067 74.3292 59.8835C72.2368 62.3542 69.9344 64.6519 67.454 66.752C67.4413 66.7644 67.4222 66.7643 67.4032 66.7767C67.3586 67.1102 67.3205 67.4376 67.2696 67.7712C66.9198 70.1615 66.5001 72.5457 65.9976 74.9114C66.0485 74.9855 66.1057 75.0535 66.1566 75.1276C68.4017 73.6328 70.6468 72.1443 72.8918 70.6495C73.3052 70.3715 73.8013 70.9645 73.3816 71.2486C71.022 72.8175 68.6625 74.3864 66.3093 75.9491C66.1503 76.0541 65.9213 76.0603 65.7814 75.912C65.139 78.8151 64.3695 81.6873 63.46 84.5224C63.6762 84.3988 63.9243 84.2259 63.9942 84.1888C64.4967 83.9171 64.9927 83.6329 65.4888 83.355C66.659 82.6817 67.8166 81.9837 68.955 81.2611C71.0856 79.9084 73.1526 78.4692 75.1624 76.9559C75.563 76.6533 76.0528 77.2524 75.6521 77.555C72.2558 80.1184 68.6815 82.4532 64.9546 84.5347C64.4903 84.7941 64.0324 85.0536 63.5617 85.3006C63.4282 85.3686 63.2946 85.4304 63.1547 85.4551C62.5187 87.3822 61.8127 89.2846 61.0432 91.1623C61.0622 91.1562 61.0813 91.1561 61.1004 91.1561C61.4184 91.0882 61.7428 90.9214 62.0417 90.8041C62.6713 90.5694 63.301 90.3408 63.9306 90.1061C65.2662 89.612 66.6018 89.1179 67.9374 88.6237C68.4081 88.4508 68.7324 89.1487 68.2554 89.3217C66.7227 89.8899 65.1899 90.4582 63.6572 91.0203C62.913 91.2982 62.1689 91.5885 61.4184 91.848C61.1704 91.9344 60.9287 91.99 60.6934 91.9838C60.6298 92.1321 60.5726 92.2803 60.509 92.4224C58.6073 96.8326 56.3177 101.088 53.6083 105.085C53.3285 105.498 52.6925 105.048 52.9723 104.64C55.7389 100.551 58.054 96.1963 59.9683 91.6812C59.5104 91.3044 59.1415 90.7423 58.779 90.2852C58.3465 89.7293 57.9268 89.1549 57.5325 88.5743C56.7184 87.376 55.9934 86.1283 55.3446 84.8436C55.122 84.3988 55.8407 84.09 56.0633 84.5347C57.1763 86.7583 58.5437 88.8522 60.1655 90.7608C60.21 90.8103 60.2482 90.8535 60.2927 90.8967C61.075 88.9943 61.7873 87.061 62.436 85.1092C62.3215 84.9486 62.2452 84.7633 62.1625 84.5965C61.9081 84.0838 61.6537 83.5712 61.4057 83.0523C60.4581 81.1005 59.5486 79.1301 58.6773 77.1412C57.6915 74.8929 56.7502 72.626 55.8598 70.3407C55.6817 69.8836 56.4004 69.5686 56.5785 70.0318C58.4229 74.757 60.4644 79.4019 62.7158 83.9541C62.7349 83.985 62.7477 84.0344 62.7667 84.0777C63.0466 83.2067 63.3073 82.3296 63.5617 81.4525C64.1659 79.3463 64.6874 77.2215 65.1454 75.0844C63.2628 72.5272 61.6219 69.8157 60.2482 66.9682C60.0319 66.5235 60.7506 66.2146 60.9669 66.6594C62.2134 69.2412 63.6826 71.7057 65.3489 74.0467C65.8768 71.471 66.3156 68.8768 66.6654 66.2702C65.2344 63.4228 64.1341 60.4332 63.3646 57.3511C63.2437 56.8755 64.0196 56.7519 64.1405 57.2275C64.7956 59.8403 65.705 62.3851 66.8435 64.8372C67.1742 62.1009 67.4286 59.3461 67.6003 56.5975C67.6576 55.6957 67.6957 54.7939 67.7403 53.8921C66.252 51.9279 64.821 49.9205 63.46 47.876C63.2056 47.4869 63.8161 46.9989 64.0896 47.4127Z" fill="#008855"/>
<path d="M62.1737 115.257C56.3098 116.888 59.4135 128.679 59.7951 132.762C60.1194 136.24 60.6727 139.692 61.4487 143.102C61.6204 143.862 63.7637 151.132 64.2407 152.589C64.2916 152.756 64.3298 152.843 64.3361 152.849C64.4888 152.775 64.6414 152.701 64.8004 152.633C73.3482 148.544 82.1186 144.967 90.7301 141.119C92.549 140.304 94.9022 139.322 95.9516 137.561C97.0519 135.715 97.2999 133.244 94.6351 132.842C93.026 132.602 91.3724 132.935 89.7697 133.256C90.2404 132.429 93.1214 131.521 94.0182 131.057C95.6336 130.217 97.3508 129.458 98.909 128.519C101.421 126.999 104.181 125.826 106.7 124.251C109.021 122.799 114.173 118.587 112.233 115.406C111.057 113.478 107.641 114.059 105.721 114.189C102.528 114.417 99.456 115.436 96.4477 116.437C99.9393 114.578 103.45 112.7 106.586 110.322C109.727 107.938 112.507 105.004 114.148 101.471C114.93 99.7971 115.324 97.5673 113.931 96.3257C112.736 95.2633 110.866 95.5104 109.314 95.9551C104.875 97.2275 100.772 99.587 97.4844 102.743C103.227 96.6778 109.161 90.2911 111.432 82.3479C111.705 81.3781 111.922 80.3713 111.775 79.3707C111.629 78.3762 111.044 77.3941 110.096 76.9865C108.563 76.3317 106.853 77.3632 105.6 78.4442C99.634 83.5647 96.4859 90.3961 92.3837 96.8199C93.2868 93.2806 93.7511 89.6302 93.7638 85.9798C93.7829 82.8852 93.3567 79.5436 91.1753 77.2953C90.9081 77.0235 90.5901 76.7518 90.2022 76.7023C89.6043 76.6282 89.0828 77.0668 88.6885 77.4991C86.0173 80.4084 84.7962 84.2935 83.9249 88.0984C82.9136 92.4653 82.2586 96.9063 81.966 101.372C82.1123 98.8582 82.1759 96.511 81.33 93.8489C80.6558 91.7426 79.3075 88.0181 76.3628 88.784C75.5806 88.9878 74.9318 89.4943 74.3976 90.1861C72.7376 92.3479 72.1335 96.2825 71.6692 98.2961C70.7215 102.373 70.3272 106.542 70.0029 110.699C69.8375 112.855 69.6912 115.016 69.5131 117.172C69.3668 118.895 68.6291 121.267 68.8962 122.954C68.5909 121.063 68.2666 119.105 67.1854 117.506C66.1169 115.881 64.0626 114.72 62.1737 115.257Z" fill="#008855"/>
<path d="M77.1577 128.914C77.1577 128.97 77.1768 129.019 77.2086 129.062C74.2576 134.028 71.243 139.143 68.4954 144.331C67.6305 136.524 66.2376 128.704 64.3423 121.076C64.3042 120.94 64.1706 120.86 64.0243 120.89C63.8844 120.928 63.8018 121.057 63.8336 121.199C65.7861 129.056 67.2044 137.111 68.0566 145.159C66.7655 147.617 65.4872 150.1 64.2406 152.589C64.2915 152.756 64.3297 152.843 64.336 152.849C64.4887 152.775 64.6413 152.701 64.8003 152.633C65.9705 150.292 67.1789 147.957 68.3937 145.641C68.4319 145.641 68.47 145.628 68.5018 145.603C75.1671 141.088 82.9199 137.975 90.9144 136.61C91.0607 136.585 91.1561 136.45 91.1306 136.314C91.1052 136.178 90.9716 136.085 90.8253 136.104C83.0089 137.444 75.4342 140.434 68.858 144.757C71.739 139.303 74.919 133.93 78.0163 128.716C81.1773 125.85 85.4766 124.38 89.9731 123.003C94.8258 121.521 99.5831 120.162 104.512 119.729C104.652 119.717 104.76 119.587 104.747 119.451C104.728 119.309 104.601 119.21 104.461 119.223C99.4813 119.661 94.6922 121.033 89.8141 122.515C85.7628 123.75 81.8769 125.078 78.7923 127.413C80.2042 125.029 81.6415 122.601 83.0598 120.149C91.0289 112.626 100.041 106.239 109.861 101.168C109.988 101.1 110.033 100.952 109.963 100.829C109.893 100.699 109.734 100.656 109.613 100.717C100.251 105.554 91.6204 111.582 83.9248 118.648C84.6816 117.327 85.4257 116.011 86.1571 114.689C91.3342 105.288 97.745 94.3554 106.026 84.4912C106.115 84.3862 106.102 84.2194 105.988 84.1329C105.873 84.0526 105.708 84.0588 105.619 84.17C97.3062 94.0712 90.8826 105.029 85.6929 114.454C85.1459 115.455 84.5798 116.449 84.0138 117.45C86.1253 111.045 91.1115 94.343 89.3944 83.75C89.3753 83.6141 89.2354 83.5214 89.1018 83.54C88.9555 83.5647 88.8538 83.6944 88.8792 83.8303C90.9653 96.7025 83.0344 118.772 82.64 119.84C81.0819 122.54 79.4982 125.208 77.9337 127.833C77.8573 127.969 77.7747 128.105 77.692 128.247C77.94 118.426 78.1244 108.302 75.1607 98.6914C75.1162 98.5555 74.9699 98.4752 74.8363 98.5185C74.6964 98.5617 74.6201 98.7038 74.6583 98.8335C77.6729 108.586 77.4121 118.92 77.1577 128.914Z" fill="#95BC8F"/>
<path d="M341.199 24.7069C341.346 24.571 341.575 24.5772 341.715 24.7192C341.931 24.9293 343.464 25.2319 344.144 25.269C344.551 25.2937 344.958 25.2999 345.353 25.306C346.294 25.3184 347.273 25.3308 348.278 25.584C349.258 25.8311 350.18 26.2387 351.102 26.8379C351.63 27.1776 352.113 27.5605 352.603 27.9744C352.488 27.7953 352.38 27.61 352.266 27.4308C352.151 27.2455 352.024 27.0479 351.91 26.8626C351.751 26.8996 351.585 26.8317 351.509 26.6896C351 25.7693 350.231 25.0343 349.417 24.2498C349.124 23.9719 348.831 23.6877 348.552 23.3974C346.256 21.0318 344.965 18.0546 344.494 14.0212C344.379 13.0453 344.341 12.0508 344.303 11.0873C344.252 9.73458 344.201 8.33863 343.928 7.00446C343.89 6.81299 344.011 6.62769 344.214 6.58445C344.411 6.54739 344.602 6.66475 344.64 6.85623C344.691 6.99212 345.117 7.34419 345.314 7.51714C345.473 7.64685 345.613 7.77037 345.69 7.85067C346.198 8.38187 346.637 8.87601 347.032 9.34544C347.986 10.4881 348.723 11.5567 349.289 12.6315C349.709 13.4221 349.989 14.2497 350.148 15.1701C350.301 16.0719 350.32 16.986 350.332 17.8693C350.345 18.5734 350.358 19.3023 350.441 20.0064C350.606 21.3283 350.994 22.5142 351.407 23.7742C351.598 24.361 351.782 24.9601 351.954 25.5778C352.279 26.0843 352.59 26.5846 352.895 27.0726C353.544 28.1226 354.18 29.1418 354.931 30.1548C355.688 30.9083 356.413 31.6928 357.106 32.5019C356.686 31.5136 356.292 30.5068 356.037 29.4568C355.522 27.3382 355.37 25.4419 355.56 23.663C355.675 22.6006 355.923 21.5444 356.165 20.5253C356.489 19.1479 356.826 17.7149 356.813 16.3004C356.813 16.1398 356.928 15.9916 357.08 15.9545C357.239 15.9113 357.411 15.9854 357.494 16.1213C358.766 18.314 360.209 20.8032 360.629 23.5148C360.915 25.3863 360.725 27.3938 360.07 29.3209C359.93 29.7286 359.783 30.1177 359.637 30.5068C359.16 31.7607 358.721 32.9528 358.753 34.3611C360.629 36.2944 362.512 38.2895 364.337 40.3463L364.299 40.1919C363.777 37.9436 363.809 35.5841 364.401 33.379C364.795 31.8842 365.437 30.4698 366.054 29.0985L368.554 23.5519C368.617 23.4098 368.77 23.3295 368.923 23.3419C369.082 23.3542 369.209 23.4654 369.241 23.6198C369.692 25.6458 370.036 27.715 370.265 29.778C370.443 31.3963 370.519 32.7552 370.284 34.114C369.978 35.8929 369.139 37.5297 368.439 38.7589C367.911 39.6916 367.301 40.6613 366.468 41.4705C366.277 41.6558 366.035 41.8658 365.762 41.9708C368.07 44.6577 370.277 47.4557 372.268 50.3711C371.613 48.271 370.964 46.0968 371.174 43.7991C371.384 41.5014 372.09 39.3086 372.802 37.2641C373.26 35.9423 373.807 34.5958 375.028 33.8731C375.117 33.8237 375.219 33.8114 375.321 33.8361C375.416 33.867 375.499 33.9349 375.543 34.0214C377.191 37.3506 377.916 40.2784 377.769 42.9652C377.642 45.2136 376.866 47.048 375.804 48.7528C377 48.5675 378.215 48.901 379.27 49.2778C381.872 50.1982 384.301 51.4953 386.502 53.1321C386.616 53.2186 386.667 53.3545 386.635 53.4903C386.61 53.6015 386.527 53.6942 386.419 53.7374C386.4 53.7436 386.381 53.7498 386.355 53.7559C384.25 54.1883 382.075 54.6392 379.875 54.701C378.437 54.738 377.324 54.5898 376.377 54.2192C375.353 53.8239 374.475 53.1568 373.68 52.5083C378.437 60.0377 381.643 68.3577 381.496 77.6721C381.496 77.8204 381.401 77.9439 381.274 77.9933C381.229 78.0118 381.178 78.018 381.127 78.018C380.924 78.018 380.765 77.8574 380.771 77.6598C380.879 70.6245 379.035 64.1575 376.046 58.1599C375.416 59.1853 374.634 60.3094 373.521 61.3101C372.147 62.5577 370.64 63.6819 369.05 64.6578C369.012 64.6825 365.997 66.3379 364.591 66.9C364.254 67.0359 364.006 67.1038 363.924 67.0791C363.816 67.042 363.733 66.9556 363.695 66.8506C363.027 64.8617 364.254 62.9098 365.043 61.9215C366.271 60.3897 367.918 59.1544 369.794 58.3514C371.778 57.499 373.585 57.0605 375.429 56.9555C374.678 55.541 373.871 54.1574 373.012 52.7986C372.961 52.8047 372.91 52.8047 372.853 52.7862C371.422 52.3168 370.246 52.4218 368.884 52.5453C368.49 52.5824 368.089 52.6194 367.663 52.6441C365.851 52.7491 364.019 52.6071 362.213 52.2241C360.413 51.8412 358.689 51.2235 357.08 50.3896C356.292 49.982 355.535 49.5187 354.816 49.0184C354.708 48.9381 354.524 48.7713 354.206 48.481C353.875 48.1784 353.194 47.5545 352.985 47.4433C352.826 47.4248 352.692 47.3013 352.673 47.1407C352.641 46.9492 352.787 46.7701 352.978 46.7392C356.184 46.2821 359.911 45.8498 363.498 46.4242C365.456 46.7392 367.25 47.3445 368.827 48.2216C369.749 48.7405 370.544 49.4446 371.289 50.192C369.527 47.6534 367.6 45.2136 365.59 42.8541C365.221 42.9529 364.859 43.0579 364.496 43.1629C363.682 43.3976 362.843 43.6385 361.99 43.8176C358.918 44.4477 355.897 43.342 352.813 42.0511C350.765 41.1925 348.692 40.1919 347.852 38.2277C347.801 38.1042 347.82 37.9621 347.909 37.8633C347.998 37.7583 348.138 37.715 348.272 37.7521C350.192 38.2092 352.234 38.1968 354.212 38.1845C355.185 38.1783 356.19 38.1721 357.176 38.2215C359.332 38.3265 361.106 38.728 362.569 39.4322C361.151 37.8756 359.707 36.35 358.263 34.8676C358.181 34.8305 358.104 34.7687 358.066 34.6823C358.06 34.6761 358.06 34.6637 358.053 34.6576C357.742 34.3364 357.424 34.009 357.112 33.694C356.762 33.5025 356.044 33.3172 355.624 33.2122C355.389 33.1504 355.179 33.101 355.032 33.0516C353.939 32.6934 352.787 32.4957 351.674 32.3042C349.493 31.9336 347.241 31.5445 345.295 29.9633C344.329 29.1727 343.578 28.1782 342.847 27.2146C342.332 26.529 341.797 25.8249 341.193 25.2072C341.187 25.201 341.187 25.201 341.18 25.1949C341.053 25.0528 341.06 24.8366 341.199 24.7069ZM365.615 62.3601C365.088 63.021 363.962 64.6516 364.286 66.2823C365.285 65.8376 368.255 64.3119 368.656 64.0649C370.214 63.1075 371.683 62.008 373.018 60.7974C373.922 59.9821 374.596 59.0679 375.162 58.197C372.802 59.0926 370.818 60.7789 368.91 62.4219C367.88 63.3051 366.817 64.2193 365.698 65.0099C365.679 65.0222 365.66 65.0346 365.641 65.0408C365.526 65.084 365.393 65.0531 365.317 64.9543C365.227 64.8369 365.253 64.6702 365.38 64.5837C366.48 63.8054 367.536 62.9036 368.554 62.0266C370.5 60.3527 372.522 58.6355 374.971 57.709C373.387 57.8573 371.816 58.2649 370.093 59.0061C368.318 59.7597 366.773 60.9209 365.615 62.3601ZM349.607 17.8755C349.595 17.0169 349.576 16.1336 349.429 15.2812C349.283 14.435 349.029 13.6691 348.641 12.9465C348.1 11.9211 347.388 10.8834 346.466 9.78398C346.084 9.32691 345.651 8.84513 345.155 8.32629C345.092 8.25834 344.971 8.15951 344.837 8.04833C344.831 8.04833 344.831 8.04215 344.825 8.04215C344.952 9.05513 344.99 10.0743 345.022 11.0687C345.06 12.0138 345.092 12.9959 345.206 13.9471C345.664 17.8199 346.892 20.6735 349.073 22.9218C349.347 23.206 349.633 23.4777 349.919 23.7557C349.97 23.8051 350.014 23.8545 350.065 23.8978C348.952 22.1003 348.1 20.3153 347.54 18.5734C347.261 17.7087 347.184 16.8131 347.108 15.936C346.987 14.5895 346.873 13.3171 346.097 12.1682C346.014 12.0447 346.046 11.8841 346.173 11.8038C346.294 11.7235 346.466 11.7544 346.548 11.8779C347.4 13.1379 347.528 14.5339 347.648 15.8928C347.725 16.739 347.801 17.6099 348.062 18.4128C348.628 20.167 349.499 21.9706 350.644 23.7927C350.262 22.6192 349.874 21.4024 349.715 20.0867C349.633 19.3455 349.62 18.5981 349.607 17.8755ZM359.383 29.0985C360 27.2764 360.184 25.3802 359.917 23.6198C359.586 21.4579 358.543 19.4073 357.481 17.5358C357.367 18.6043 357.119 19.6544 356.877 20.6797C356.642 21.6803 356.4 22.7118 356.285 23.7372C356.101 25.4357 356.254 27.2579 356.743 29.2962C357.036 30.4883 357.519 31.6557 358.015 32.786C357.634 30.3895 357.596 28.3697 357.894 26.3252C358.168 24.4537 358.346 22.6501 357.557 21.1059C357.494 20.9762 357.545 20.8156 357.678 20.7538C357.812 20.692 357.977 20.7415 358.041 20.8712C358.893 22.5512 358.702 24.5278 358.429 26.4055C358.174 28.1288 358.174 29.8397 358.416 31.7916C358.575 31.2851 358.759 30.7848 358.95 30.2783C359.096 29.883 359.243 29.4938 359.383 29.0985ZM367.803 38.4068C368.471 37.2271 369.279 35.6644 369.571 33.9905C369.788 32.7057 369.718 31.4086 369.546 29.8459C369.361 28.1782 369.101 26.4982 368.764 24.849L366.722 29.3765C366.112 30.723 365.488 32.1128 365.107 33.5519C364.547 35.652 364.515 37.888 365.011 40.0313L365.068 40.2969C365.107 40.4822 365.164 40.7231 365.221 40.9331C365.348 40.3463 365.456 39.7534 365.552 39.1728C365.736 38.0671 365.927 36.9244 366.302 35.8126L366.538 35.1332C367.046 33.6631 367.581 32.1498 367.447 30.5995C367.434 30.4512 367.549 30.3277 367.695 30.3153C367.848 30.303 367.975 30.4142 367.988 30.5562C368.128 32.2116 367.581 33.7805 367.053 35.2999L366.824 35.9732C366.461 37.0418 366.277 38.1659 366.099 39.2469C365.997 39.8707 365.876 40.5131 365.736 41.1555C365.8 41.1061 365.87 41.0443 365.953 40.964C366.728 40.2166 367.301 39.2963 367.803 38.4068ZM377.051 42.9282C377.184 40.4637 376.542 37.7706 375.079 34.707C374.284 35.3555 373.858 36.4303 373.495 37.4865C372.802 39.4939 372.109 41.6373 371.905 43.8609C371.702 46.1154 372.351 48.1969 373.044 50.4082C373.057 50.4576 373.076 50.507 373.088 50.5502C373.718 47.2642 374.093 43.9103 374.17 40.5749C374.17 40.4266 374.297 40.3154 374.449 40.3154C374.602 40.3216 374.717 40.439 374.717 40.5872C374.634 43.935 374.265 47.2951 373.635 50.5935C375.384 48.2957 376.879 45.998 377.051 42.9282ZM376.644 53.5645C377.502 53.8918 378.52 54.0339 379.855 53.9968C381.725 53.9474 383.595 53.6015 385.414 53.2309C383.449 51.8535 381.299 50.7541 379.022 49.9449C377.941 49.5619 376.688 49.2161 375.55 49.5311C375.423 49.562 375.384 49.599 375.372 49.6114C375.327 49.7411 375.213 49.8337 375.079 49.8523C374.767 50.297 374.437 50.7355 374.106 51.1679C376.51 50.8776 378.959 51.1 381.267 51.8412C381.407 51.8906 381.49 52.0388 381.439 52.1747C381.414 52.2488 381.356 52.3106 381.286 52.3353C381.229 52.36 381.159 52.36 381.096 52.3415C378.762 51.5879 376.281 51.3841 373.858 51.7238C374.71 52.4403 375.601 53.163 376.644 53.5645ZM368.458 48.8393C366.957 47.9993 365.247 47.4248 363.377 47.1222C360.216 46.6157 356.921 46.9245 353.983 47.3136C354.18 47.4804 354.416 47.6966 354.702 47.9622C354.931 48.1722 355.166 48.3884 355.242 48.444C355.929 48.9258 356.661 49.3705 357.417 49.7658C358.969 50.5688 360.636 51.1617 362.366 51.5323C364.108 51.9029 365.876 52.0388 367.619 51.94C368.039 51.9153 368.433 51.8782 368.821 51.8412C369.648 51.767 370.443 51.6991 371.289 51.767C367.95 50.3155 364.299 49.4755 360.655 49.3334C360.502 49.3272 360.388 49.2037 360.394 49.0555C360.4 48.9072 360.527 48.7961 360.68 48.8022C364.286 48.9443 367.899 49.7534 371.225 51.1556C370.373 50.2785 369.489 49.4137 368.458 48.8393ZM357.125 38.9257C356.158 38.8763 355.166 38.8824 354.199 38.8886C352.438 38.901 350.625 38.9072 348.857 38.5921C349.747 39.914 351.426 40.7046 353.086 41.4025C356.056 42.6502 358.963 43.7188 361.825 43.1258C362.645 42.9591 363.472 42.7182 364.273 42.4896C364.502 42.4217 364.731 42.3599 364.96 42.292C364.172 41.7917 363.16 41.6867 362.264 41.6434C361.539 41.6064 360.801 41.594 360.063 41.5817C357.57 41.5384 354.994 41.489 352.667 40.5316C352.527 40.476 352.463 40.3216 352.52 40.1857C352.577 40.0498 352.736 39.9881 352.876 40.0436C355.109 40.964 357.634 41.0072 360.07 41.0566C360.814 41.069 361.551 41.0813 362.289 41.1184C362.893 41.1493 363.51 41.211 364.089 41.3593C363.752 41.0319 363.409 40.7293 363.014 40.4884C361.513 39.5619 359.586 39.0492 357.125 38.9257ZM343.425 26.7946C344.157 27.7644 344.85 28.6847 345.753 29.4197C347.547 30.8836 349.607 31.2357 351.789 31.6063C352.927 31.8039 354.11 32.0016 355.255 32.3784C355.319 32.3969 355.401 32.4216 355.484 32.4463C354.74 31.9707 353.894 31.6248 353.054 31.2913L352.768 31.1801C350.428 30.2351 348.132 29.1171 345.957 27.8508C345.83 27.7767 345.785 27.6161 345.861 27.4864C345.938 27.3629 346.103 27.3197 346.237 27.3938C348.393 28.6415 350.657 29.7471 352.978 30.6859L353.264 30.8033C353.913 31.0627 354.568 31.3283 355.185 31.6557C354.899 31.316 354.638 30.9762 354.39 30.6427C354.174 30.4265 353.964 30.2103 353.748 30.0003C352.673 28.9688 351.763 28.1226 350.708 27.437C349.855 26.8811 349.003 26.5043 348.106 26.282C347.178 26.0534 346.287 26.0349 345.346 26.0225C344.939 26.0164 344.526 26.0102 344.106 25.9855C343.96 25.9793 343.292 25.9052 342.624 25.7631C342.904 26.0967 343.165 26.4487 343.425 26.7946Z" fill="#6F9969"/>
<path d="M249.337 64.7073C252.428 66.0291 255.417 67.2212 255.461 66.9927C255.951 64.3182 256.803 61.6746 257.751 59.1112C258.622 56.7517 260.276 54.3922 259.144 51.8165C258.985 51.4521 258.743 51.0939 258.374 50.9086C257.885 50.6677 257.261 50.7974 256.816 51.1186C256.371 51.4398 256.072 51.9092 255.824 52.391C255.213 53.5645 254.825 54.8493 254.685 56.1588C254.743 54.2625 254.8 52.3663 254.698 50.47C254.654 49.63 254.571 48.7714 254.17 48.024C253.827 47.3878 253.083 46.8258 252.383 47.0667C251.804 47.2643 251.531 47.8943 251.353 48.4626C250.908 49.9018 250.653 51.4027 250.596 52.9036C250.609 50.4144 249.865 47.9252 248.478 45.8313C247.95 45.0345 247.289 44.2562 246.379 43.9104C245.451 43.5521 244.261 43.62 243.721 44.5836C243.231 45.4545 243.67 46.9431 243.893 47.8573C244.529 50.4268 245.947 52.7863 247.734 54.7628C246.589 54.1143 245.368 53.6078 244.096 53.2495C243.301 53.0272 242.258 52.9469 241.826 53.6325C241.565 54.0463 241.654 54.596 241.921 55.0037C242.188 55.4114 242.601 55.7079 243.009 55.9796C244.401 56.9061 245.864 57.7215 247.397 58.4133C246.424 58.16 245.432 57.9006 244.42 57.9253C243.409 57.9438 242.36 58.2836 241.711 59.0309C241.501 59.278 241.329 59.5683 241.298 59.8895C241.215 60.6677 241.927 61.304 242.627 61.6993C243.168 61.9958 246.303 63.4102 249.337 64.7073Z" fill="#6F9969"/>
<path d="M120.375 131.7C117.004 131.897 113.773 132.015 113.818 131.78C114.314 129.112 114.46 126.344 114.479 123.614C114.498 121.107 113.792 118.339 115.777 116.301C116.057 116.011 116.413 115.758 116.82 115.708C117.367 115.646 117.907 115.98 118.206 116.431C118.512 116.882 118.62 117.425 118.683 117.956C118.836 119.266 118.74 120.6 118.41 121.879C119.033 120.081 119.656 118.284 120.426 116.536C120.769 115.764 121.151 114.985 121.793 114.423C122.347 113.942 123.237 113.664 123.809 114.127C124.28 114.504 124.312 115.189 124.274 115.782C124.172 117.283 123.879 118.772 123.396 120.205C124.274 117.864 125.857 115.782 127.899 114.288C128.681 113.713 129.578 113.213 130.557 113.188C131.556 113.17 132.65 113.627 132.815 114.714C132.968 115.696 132.02 116.943 131.486 117.722C129.972 119.921 127.803 121.65 125.425 122.904C126.729 122.682 128.058 122.614 129.374 122.706C130.201 122.762 131.206 123.04 131.365 123.83C131.46 124.306 131.181 124.794 130.786 125.084C130.392 125.375 129.896 125.511 129.419 125.634C127.784 126.036 126.118 126.307 124.439 126.443C125.444 126.53 126.468 126.629 127.409 126.987C128.35 127.345 129.215 128.012 129.559 128.939C129.673 129.241 129.724 129.575 129.641 129.884C129.438 130.643 128.548 131.002 127.753 131.131C127.129 131.23 123.689 131.502 120.375 131.7Z" fill="#6F9969"/>
<path d="M160.518 59.5624C160.868 59.1856 161.338 58.9756 161.872 58.9447C162.394 58.92 162.896 59.093 163.284 59.4389C164.086 60.143 164.143 61.3474 163.418 62.1257C163.081 62.484 162.623 62.7063 162.127 62.7434C162.108 62.7434 162.082 62.7434 162.063 62.7496C161.542 62.7743 161.039 62.6013 160.651 62.2554C160.263 61.9157 160.034 61.4463 160.015 60.9398C159.984 60.4209 160.162 59.9392 160.518 59.5624Z" fill="#6F9969"/>
<path d="M152.226 60.5634C152.576 60.1866 153.053 59.9704 153.581 59.9457C154.102 59.921 154.605 60.0939 154.993 60.4398C155.794 61.144 155.851 62.3546 155.126 63.1267C154.789 63.4849 154.331 63.7073 153.835 63.7444C153.816 63.7444 153.791 63.7444 153.772 63.7505C153.25 63.7752 152.748 63.6023 152.36 63.2564C151.972 62.9167 151.743 62.4473 151.724 61.9408C151.692 61.4281 151.87 60.9401 152.226 60.5634Z" fill="#6F9969"/>
<path d="M158.663 66.1776C159.185 66.1529 159.687 66.3258 160.075 66.6717C160.877 67.3759 160.934 68.5803 160.209 69.3586C159.872 69.7169 159.414 69.9392 158.918 69.9763C158.899 69.9763 158.873 69.9763 158.854 69.9824C158.333 70.0072 157.83 69.8342 157.442 69.4883C157.054 69.1486 156.832 68.6792 156.806 68.1727C156.781 67.6662 156.959 67.1782 157.315 66.8014C157.659 66.4185 158.136 66.2085 158.663 66.1776Z" fill="#6F9969"/>
<path d="M340.908 111.02C341.43 111.013 341.913 111.205 342.295 111.569C342.67 111.928 342.873 112.403 342.88 112.91C342.886 113.96 342.015 114.818 340.934 114.825C340.431 114.831 339.961 114.652 339.592 114.318C339.579 114.306 339.56 114.287 339.547 114.275C339.172 113.917 338.968 113.441 338.962 112.934C338.956 112.428 339.159 111.946 339.528 111.588C339.891 111.223 340.38 111.026 340.908 111.02Z" fill="#6F9969"/>
<path d="M334.526 105.782C335.047 105.776 335.537 105.967 335.912 106.332C336.288 106.69 336.491 107.165 336.498 107.672C336.504 108.722 335.633 109.581 334.551 109.587C334.049 109.593 333.578 109.414 333.209 109.08C333.197 109.068 333.178 109.049 333.165 109.037C332.79 108.679 332.586 108.203 332.58 107.697C332.573 107.19 332.777 106.708 333.146 106.35C333.515 105.992 333.998 105.788 334.526 105.782Z" fill="#6F9969"/>
<path d="M334.649 114.188C335.024 114.547 335.228 115.022 335.234 115.529C335.241 116.579 334.369 117.437 333.288 117.444C332.786 117.45 332.315 117.271 331.946 116.937C331.934 116.925 331.914 116.906 331.902 116.894C331.526 116.536 331.323 116.06 331.317 115.553C331.31 115.047 331.514 114.565 331.883 114.207C332.252 113.843 332.741 113.645 333.263 113.639C333.784 113.639 334.261 113.836 334.649 114.188Z" fill="#6F9969"/>
</g>
</svg>
