<svg width="180" height="149" viewBox="0 0 180 149" fill="none" xmlns="http://www.w3.org/2000/svg">
<path d="M155.258 148.447H30.5501L0.483398 30.7632H155.6V148.447H155.258Z" fill="url(#paint0_linear_297_2905)"/>
<path d="M11.4165 148.447C11.4165 148.447 12.7832 104.316 54.8082 116.973C97.1749 129.631 90.3415 103.631 118.7 97.1313C147.058 90.6313 181.908 120.052 179.175 148.447H11.4165Z" fill="url(#paint1_linear_297_2905)"/>
<path fill-rule="evenodd" clip-rule="evenodd" d="M77.7001 4.07875C54.1251 13.3156 42.8501 39.9998 52.0751 63.6051C61.3001 87.2103 87.9501 98.4998 111.525 89.263C135.1 80.0261 146.375 53.3419 137.15 29.7366C127.925 6.13138 101.275 -5.1581 77.7001 4.07875Z" fill="#00A82D"/>
<path d="M107.083 81.7366C126.558 74.8945 136.808 53.684 129.975 34.184C123.142 14.684 101.958 4.42084 82.4834 11.2629C63.0084 18.1051 52.7584 39.3156 59.5918 58.8156C66.4251 78.6577 87.6084 88.9208 107.083 81.7366Z" fill="white"/>
<path d="M76.6753 40H114.6V44.7895H76.6753V40Z" fill="#1D465C"/>
<path d="M76.6753 50.605H103.325V55.3945H76.6753V50.605Z" fill="#1D465C"/>
<path d="M53.1002 148.447H38.0669L63.3502 99.1841L74.2836 104.316L53.1002 148.447Z" fill="#00A82D"/>
<path d="M70.8666 85.8418C73.5999 87.5523 76.3332 88.9207 79.4082 89.947C77.6999 91.6576 75.6499 93.7102 75.3082 94.3944C74.9666 95.0786 73.2582 99.526 72.2332 103.289L65.3999 99.8681C67.7916 95.7628 70.8666 90.6313 70.8666 90.6313V85.8418Z" fill="#FFBD24"/>
<defs>
<linearGradient id="paint0_linear_297_2905" x1="59.4808" y1="827.018" x2="69.5636" y2="18.634" gradientUnits="userSpaceOnUse">
<stop stop-color="#00A82D" stop-opacity="0.57"/>
<stop offset="1" stop-color="#F3F5FD" stop-opacity="0.56"/>
</linearGradient>
<linearGradient id="paint1_linear_297_2905" x1="15.7219" y1="96.2197" x2="184.837" y2="123.808" gradientUnits="userSpaceOnUse">
<stop stop-color="#00A82D"/>
<stop offset="0.5" stop-color="#1FB247"/>
<stop offset="1" stop-color="#0CBC8B"/>
</linearGradient>
</defs>
</svg>
