<svg width="752" height="590" viewBox="0 0 752 590" fill="none" xmlns="http://www.w3.org/2000/svg">
<path d="M297.858 252.28C297.503 252.419 297.121 252.478 296.74 252.452C295.856 252.285 295.005 251.973 294.222 251.53C292.18 247.158 290.142 242.787 288.107 238.416C279.139 218.993 270.18 199.571 261.425 180.047L248.312 150.756C244.046 140.949 239.679 131.182 235.494 121.324C240.309 130.888 244.94 140.533 249.673 150.128L263.558 179.064C272.811 198.354 281.84 217.746 290.88 237.138C292.414 240.465 293.947 243.791 295.481 247.118C294.709 247.138 294.201 247.29 294.13 247.524C294.018 247.879 295.065 248.264 297.076 250.586C297.34 251.154 297.594 251.712 297.858 252.28Z" fill="black"/>
<path d="M343.493 354.23C338.689 344.676 334.048 335.03 329.324 325.436L315.44 296.5C311.113 287.484 306.834 278.45 302.602 269.4C303.81 269.593 304.948 269.755 305.933 269.887C305.943 269.877 305.943 269.877 305.943 269.887C309.843 278.416 313.713 286.96 317.553 295.516L330.665 324.807C334.941 334.614 339.309 344.382 343.493 354.23Z" fill="black"/>
<path d="M344.621 246.656L358.102 248.701C362.568 249.365 366.983 250.086 371.404 250.783L370.835 251.138L371.829 247.591C371.863 247.468 371.94 247.362 372.045 247.291C372.15 247.219 372.277 247.188 372.404 247.201L372.416 247.202L376.072 247.592C377.36 247.664 378.625 247.958 379.812 248.461C382.234 249.522 384.151 251.478 385.16 253.92C385.41 254.523 385.604 255.148 385.738 255.786C385.806 256.105 385.857 256.428 385.896 256.751C385.94 257.058 385.963 257.331 386.024 257.617C386.208 258.733 386.631 259.797 387.265 260.735C387.953 261.628 388.832 262.356 389.838 262.866C390.844 263.376 391.951 263.655 393.078 263.683L392.506 263.889C395.863 260.864 399.539 258.214 403.469 255.983C407.343 253.72 411.365 251.722 415.509 250.001C417.593 249.177 419.664 248.325 421.79 247.622C423.891 246.848 426.038 246.215 428.179 245.571C430.314 244.902 432.501 244.423 434.658 243.841C436.833 243.331 439.028 242.906 441.206 242.417L440.99 242.574C441.521 241.585 441.948 240.543 442.263 239.466C442.599 238.401 442.752 237.287 442.716 236.172C442.688 235.079 442.323 234.02 441.671 233.142C440.951 232.308 440.019 231.684 438.974 231.335L438.951 231.325C438.924 231.313 438.899 231.297 438.878 231.276C435.782 228.261 432.627 225.306 429.496 222.327C426.361 219.352 423.209 216.396 420.038 213.459L410.493 204.687C407.293 201.807 404.095 198.833 400.773 196.202L400.763 196.194C400.638 196.095 400.557 195.95 400.539 195.792C400.52 195.634 400.566 195.475 400.665 195.35C400.695 195.313 400.729 195.279 400.767 195.249L408.829 188.988L408.581 189.709L401.511 163.514L402.777 163.984C399.268 166.408 395.792 168.896 392.319 171.376C388.844 173.857 385.398 176.375 381.979 178.929C378.57 181.492 375.192 184.097 371.913 186.807C370.276 188.164 368.672 189.556 367.123 190.989C366.351 191.706 365.594 192.44 364.899 193.206C364.21 193.898 363.629 194.69 363.176 195.556L363.226 195.302C363.132 197.14 362.925 198.972 362.606 200.785C362.298 202.603 361.849 204.394 361.263 206.143C360.685 207.93 359.837 209.619 358.748 211.15C357.619 212.766 355.951 213.928 354.042 214.429L354.195 214.369C353.027 215.151 351.998 216.124 351.153 217.246C350.697 217.801 350.302 218.409 349.895 219.004C349.541 219.635 349.129 220.235 348.82 220.892C347.495 223.499 346.522 226.271 345.928 229.133C345.553 230.552 345.387 232.016 345.127 233.463C344.944 234.92 344.815 236.388 344.686 237.855C344.641 239.325 344.561 240.808 344.546 242.27L344.621 246.656ZM344.5 246.766L344.228 242.288C344.191 240.794 344.221 239.321 344.214 237.834C344.293 236.353 344.371 234.868 344.506 233.388C344.722 231.917 344.823 230.425 345.176 228.973C345.717 226.023 346.648 223.158 347.944 220.452C348.249 219.764 348.662 219.127 349.017 218.461C349.427 217.826 349.827 217.18 350.295 216.58C351.203 215.312 352.326 214.211 353.614 213.329C353.647 213.307 353.683 213.291 353.722 213.281L353.768 213.269C355.379 212.798 356.775 211.779 357.713 210.388C358.698 208.952 359.458 207.374 359.967 205.709C360.505 204.023 360.911 202.297 361.181 200.547C361.461 198.797 361.635 197.032 361.702 195.261L361.703 195.232C361.706 195.154 361.723 195.078 361.753 195.007C362.253 193.957 362.921 192.995 363.729 192.158C364.459 191.33 365.227 190.564 366.01 189.816C367.571 188.316 369.208 186.919 370.853 185.537C374.156 182.789 377.542 180.162 380.958 177.577C387.797 172.415 394.759 167.43 401.844 162.622L401.849 162.619C402.029 162.496 402.251 162.45 402.466 162.491C402.68 162.532 402.87 162.656 402.993 162.836C403.046 162.915 403.085 163.001 403.109 163.093L409.912 189.359L409.914 189.368C409.948 189.498 409.942 189.635 409.897 189.762C409.853 189.889 409.771 190 409.664 190.08L401.492 196.197L401.486 195.244C404.895 198.043 407.976 201.025 411.149 203.981L420.535 212.934L439.236 230.905L439.14 230.847C440.286 231.218 441.309 231.894 442.1 232.8C442.834 233.765 443.252 234.932 443.296 236.142C443.346 237.323 443.196 238.503 442.852 239.634C442.534 240.762 442.098 241.853 441.552 242.89C441.531 242.928 441.504 242.962 441.47 242.988C441.436 243.014 441.396 243.033 441.354 243.043L441.335 243.048C439.17 243.556 437.002 244.052 434.85 244.603C432.719 245.232 430.558 245.758 428.455 246.472C426.344 247.162 424.23 247.838 422.166 248.652C420.074 249.396 418.043 250.287 416.001 251.147C411.952 252.937 408.009 254.957 404.191 257.197C402.298 258.336 400.43 259.52 398.646 260.814C396.854 262.068 395.141 263.433 393.519 264.9L393.496 264.923C393.423 264.991 393.336 265.042 393.241 265.074C393.147 265.106 393.046 265.117 392.947 265.107C391.639 264.992 390.361 264.651 389.17 264.099C387.95 263.516 386.906 262.623 386.141 261.51C385.406 260.408 384.918 259.159 384.71 257.851C384.646 257.536 384.619 257.198 384.578 256.899C384.547 256.615 384.504 256.332 384.447 256.052C384.335 255.491 384.17 254.942 383.956 254.412C383.09 252.265 381.426 250.536 379.311 249.589C378.241 249.124 377.1 248.841 375.935 248.752L372.288 248.283L372.875 247.895L371.803 251.42L371.8 251.432C371.764 251.549 371.687 251.648 371.583 251.712C371.478 251.775 371.354 251.798 371.234 251.776C366.735 250.95 362.231 250.148 357.777 249.29L344.5 246.766Z" fill="black"/>
<path d="M401.129 195.724C399.83 195.035 398.576 194.286 397.323 193.535C396.065 192.793 394.837 192.007 393.598 191.241L389.909 188.905C389.298 188.51 388.674 188.139 388.045 187.777C387.44 187.377 386.776 187.075 386.076 186.882C387.542 187.095 388.95 187.596 390.22 188.358C391.534 189.02 392.793 189.774 394.035 190.549C395.27 191.337 396.491 192.143 397.669 193.013C398.853 193.874 400.022 194.756 401.129 195.724Z" fill="black"/>
<path d="M408.947 188.631C409.002 188.557 409.078 188.501 409.165 188.471C409.252 188.44 409.346 188.436 409.435 188.458C409.59 188.481 409.741 188.52 409.888 188.572C410.172 188.676 410.449 188.797 410.717 188.936C411.251 189.208 411.76 189.519 412.263 189.834C413.268 190.47 414.244 191.145 415.21 191.833C417.137 193.214 418.994 194.683 420.851 196.15C424.574 199.076 428.134 202.186 431.71 205.288C431.79 205.357 431.853 205.444 431.893 205.542C431.934 205.639 431.951 205.745 431.944 205.851L431.943 205.872C431.826 207.484 431.757 209.096 431.72 210.694C431.65 212.255 431.785 213.819 432.121 215.345C432.33 216.067 432.651 216.752 433.073 217.376L433.372 217.897C433.42 217.975 433.489 218.038 433.572 218.078C433.864 218.217 434.18 218.295 434.503 218.309C436.07 218.344 437.633 218.146 439.141 217.722L439.153 217.719C439.255 217.695 439.363 217.702 439.46 217.741C439.558 217.779 439.641 217.847 439.698 217.935L440.075 218.508C440.208 218.687 440.356 218.845 440.498 219.01C440.615 219.143 440.759 219.25 440.922 219.321C441.084 219.393 441.261 219.428 441.438 219.424C441.815 219.322 442.141 219.083 442.351 218.754C442.622 218.389 442.843 217.989 443.008 217.565L443.011 217.557C443.037 217.492 443.082 217.436 443.14 217.396C443.198 217.356 443.267 217.335 443.338 217.335C443.408 217.335 443.477 217.356 443.536 217.395C443.594 217.434 443.639 217.49 443.666 217.555L443.921 218.187C444.021 218.382 444.131 218.572 444.25 218.755C444.341 218.913 444.473 219.044 444.632 219.134C444.791 219.224 444.971 219.269 445.154 219.264C445.552 219.158 445.903 218.923 446.152 218.596C446.451 218.254 446.71 217.879 446.924 217.478C446.942 217.445 446.965 217.416 446.994 217.392C447.023 217.368 447.056 217.35 447.092 217.339C447.127 217.328 447.165 217.324 447.202 217.328C447.239 217.331 447.275 217.342 447.308 217.359C447.353 217.383 447.39 217.418 447.417 217.461C447.638 217.835 447.893 218.188 448.178 218.517C448.298 218.664 448.447 218.786 448.615 218.874C448.783 218.963 448.967 219.016 449.157 219.032C449.345 218.997 449.523 218.922 449.679 218.81C449.835 218.699 449.964 218.555 450.057 218.388C450.298 218.031 450.486 217.642 450.618 217.232C450.632 217.187 450.659 217.147 450.696 217.115C450.732 217.084 450.776 217.064 450.823 217.056C450.87 217.048 450.919 217.054 450.963 217.071C451.007 217.089 451.046 217.119 451.075 217.157C451.39 217.67 451.878 218.053 452.451 218.238C452.97 218.329 453.465 217.901 453.807 217.392C454.149 216.871 454.364 216.277 454.435 215.657C454.506 215.038 454.484 214.349 454.504 213.7C454.512 212.4 454.359 211.103 454.05 209.841C453.907 209.244 453.649 208.682 453.288 208.186C453.152 207.979 452.97 207.808 452.755 207.685C452.54 207.563 452.299 207.493 452.051 207.481L451.998 207.488C451.976 207.49 451.955 207.489 451.934 207.486C451.731 207.455 451.542 207.366 451.39 207.228C451.297 207.151 451.209 207.068 451.127 206.98C450.97 206.817 450.835 206.655 450.703 206.491C450.442 206.165 450.199 205.835 449.964 205.502C449.494 204.837 449.05 204.162 448.613 203.484C447.747 202.123 446.926 200.741 446.113 199.354C445.332 197.937 444.461 196.647 443.591 195.289L441.009 191.256C439.261 188.576 437.522 185.891 435.734 183.24C433.976 180.569 432.214 177.901 430.388 175.282C428.593 172.638 426.68 170.087 424.796 167.52C422.936 164.965 420.851 162.581 418.565 160.397C417.483 159.339 416.179 158.533 414.748 158.038C414.045 157.931 413.327 158.014 412.668 158.276C411.934 158.533 411.222 158.849 410.54 159.221C407.759 160.782 405.138 162.61 402.712 164.678C402.704 164.685 402.694 164.691 402.684 164.694C402.674 164.698 402.663 164.7 402.652 164.699C402.642 164.698 402.631 164.696 402.621 164.691C402.612 164.686 402.603 164.68 402.596 164.672C402.582 164.655 402.575 164.635 402.576 164.614C402.577 164.593 402.586 164.573 402.601 164.558C404.892 162.282 407.419 160.255 410.138 158.51C410.844 158.08 411.584 157.708 412.35 157.398C413.173 157.03 414.082 156.896 414.976 157.01C416.619 157.46 418.133 158.292 419.392 159.439C421.812 161.61 424.032 163.995 426.024 166.564C428.038 169.081 429.934 171.685 431.77 174.321C432.7 175.631 433.612 176.953 434.505 178.287C435.408 179.615 436.316 180.939 437.18 182.291C438.93 184.982 440.627 187.703 442.334 190.418L444.865 194.522C445.698 195.878 446.565 197.279 447.292 198.691C448.055 200.092 448.838 201.481 449.642 202.857C450.042 203.544 450.448 204.227 450.873 204.89C451.086 205.221 451.304 205.547 451.529 205.856C451.642 206.009 451.758 206.161 451.873 206.291C451.924 206.352 451.979 206.41 452.038 206.464C452.079 206.516 452.146 206.514 452.01 206.501L451.892 206.506C452.315 206.495 452.732 206.595 453.104 206.796C453.475 206.996 453.788 207.291 454.01 207.65C454.416 208.249 454.7 208.923 454.844 209.632C455.121 210.972 455.23 212.341 455.17 213.707C455.123 214.388 455.115 215.036 455.033 215.74C454.94 216.45 454.682 217.127 454.279 217.719C454.072 218.024 453.812 218.29 453.512 218.504C453.179 218.74 452.767 218.837 452.364 218.776C451.65 218.566 451.041 218.097 450.655 217.461L451.112 217.386C450.959 217.844 450.741 218.279 450.464 218.675C450.327 218.902 450.142 219.096 449.923 219.245C449.704 219.394 449.455 219.494 449.194 219.539C448.928 219.535 448.666 219.475 448.425 219.363C448.184 219.251 447.969 219.09 447.795 218.89C447.473 218.537 447.184 218.154 446.934 217.747L447.427 217.729C447.199 218.178 446.92 218.599 446.596 218.983C446.263 219.425 445.789 219.739 445.252 219.873C444.956 219.9 444.659 219.847 444.392 219.718C444.125 219.589 443.898 219.39 443.736 219.143C443.588 218.928 443.452 218.705 443.327 218.483L443.011 217.799L443.669 217.789C443.503 218.29 443.27 218.766 442.975 219.204C442.666 219.716 442.171 220.091 441.593 220.25C441.283 220.291 440.968 220.261 440.671 220.163C440.374 220.064 440.104 219.899 439.88 219.681C439.69 219.487 439.493 219.292 439.324 219.087L438.862 218.451L439.418 218.664C437.807 219.201 436.124 219.489 434.426 219.517C433.931 219.514 433.442 219.408 432.991 219.205C432.704 219.071 432.458 218.861 432.28 218.598L431.946 218.076C431.434 217.361 431.045 216.566 430.795 215.723C430.397 214.074 430.22 212.38 430.268 210.684C430.258 209.028 430.389 207.389 430.531 205.757L430.764 206.341C429.022 204.757 427.265 203.186 425.492 201.626L420.177 196.958C418.401 195.406 416.602 193.885 414.778 192.394C413.869 191.646 412.951 190.909 412.005 190.213C411.532 189.865 411.049 189.532 410.556 189.222C410.312 189.065 410.059 188.925 409.797 188.801C409.558 188.692 409.214 188.563 409.09 188.711L409.079 188.724C409.066 188.74 409.048 188.75 409.028 188.752C409.007 188.755 408.987 188.75 408.97 188.738C408.954 188.727 408.942 188.709 408.938 188.689C408.933 188.669 408.937 188.649 408.947 188.631V188.631Z" fill="black"/>
<path d="M408.924 188.313C410.069 187.026 411.323 185.839 412.671 184.765C413.34 184.229 414.014 183.7 414.714 183.203C415.405 182.694 416.136 182.237 416.871 181.773C415.785 183.117 414.55 184.333 413.189 185.399C411.861 186.501 410.433 187.476 408.924 188.313Z" fill="black"/>
<path d="M451.97 206.997C451.477 206.937 451.341 207.487 451.25 207.873C451.167 208.305 451.113 208.742 451.087 209.181C451.027 210.065 451.03 210.966 451.023 211.863L451.004 214.573C450.982 215.48 450.964 216.392 450.863 217.312C450.417 215.529 450.195 213.697 450.203 211.858C450.202 210.931 450.286 210.006 450.456 209.095C450.545 208.629 450.685 208.175 450.873 207.74C450.984 207.52 451.124 207.316 451.291 207.135C451.37 207.036 451.481 206.967 451.605 206.942C451.73 206.917 451.859 206.936 451.97 206.997Z" fill="black"/>
<path d="M446.805 208.204C447.155 209.743 447.354 211.312 447.399 212.89C447.48 214.466 447.404 216.046 447.174 217.607C446.822 216.069 446.623 214.499 446.58 212.922C446.501 211.346 446.576 209.766 446.805 208.204Z" fill="black"/>
<path d="M439.08 215.018C439.192 214.998 439.334 214.977 439.476 214.947C439.436 216.022 439.395 217.107 439.334 218.192C439.332 218.207 439.325 218.221 439.314 218.23C439.302 218.24 439.288 218.244 439.273 218.243C439.261 218.242 439.25 218.235 439.242 218.226C439.235 218.217 439.231 218.205 439.232 218.192C439.172 217.138 439.121 216.083 439.08 215.018Z" fill="black"/>
<path d="M450.985 208.172C450.988 208.178 450.989 208.185 450.989 208.193C450.989 208.2 450.988 208.207 450.985 208.214C450.982 208.22 450.978 208.226 450.973 208.231C450.967 208.236 450.961 208.24 450.954 208.243C450.946 208.246 450.936 208.247 450.927 208.246C450.918 208.244 450.91 208.239 450.903 208.232C450.596 207.924 450.259 207.645 449.898 207.401C449.6 207.196 449.243 207.096 448.882 207.117C448.546 207.183 448.238 207.349 447.998 207.593C447.72 207.851 447.478 208.144 447.277 208.466L447.247 208.506C447.212 208.565 447.166 208.616 447.111 208.656C447.056 208.696 446.994 208.725 446.928 208.741C446.861 208.757 446.793 208.76 446.725 208.749C446.658 208.739 446.594 208.715 446.536 208.679C446.47 208.642 446.415 208.589 446.373 208.526C446.193 208.197 445.946 207.908 445.649 207.678C445.352 207.448 445.011 207.281 444.647 207.188C444.246 207.182 443.852 207.287 443.508 207.491C443.164 207.695 442.883 207.99 442.697 208.344C442.677 208.375 442.649 208.4 442.615 208.415C442.6 208.424 442.582 208.428 442.564 208.425C442.557 208.424 442.55 208.42 442.544 208.415C442.527 208.418 442.509 208.414 442.493 208.405C442.468 208.39 442.447 208.369 442.432 208.344C442.18 207.816 441.758 207.388 441.234 207.127C441.026 207.055 440.801 207.052 440.592 207.12C440.383 207.188 440.201 207.322 440.076 207.502C439.92 207.683 439.802 207.893 439.731 208.121C439.695 208.24 439.668 208.362 439.649 208.486V208.942L439.609 210.656C439.467 210.666 439.335 210.677 439.203 210.677C439.111 210.677 439.02 210.687 438.928 210.687L438.878 208.942L438.867 208.476C438.865 208.292 438.879 208.109 438.908 207.928C438.982 207.553 439.146 207.202 439.385 206.904C439.647 206.595 440.005 206.384 440.401 206.305C440.602 206.272 440.808 206.282 441.006 206.332C441.203 206.383 441.388 206.474 441.549 206.599C441.977 206.986 442.322 207.455 442.564 207.979C442.769 207.651 443.011 207.348 443.286 207.076C443.644 206.692 444.133 206.453 444.657 206.407C445.199 206.381 445.733 206.542 446.17 206.863C446.373 207.015 446.566 207.178 446.749 207.34C446.922 207.134 447.116 206.947 447.328 206.782C447.761 206.424 448.31 206.236 448.872 206.255C449.14 206.274 449.401 206.346 449.64 206.468C449.879 206.59 450.091 206.759 450.264 206.965C450.582 207.315 450.828 207.725 450.985 208.172Z" fill="black"/>
<path d="M443.153 210.565C442.899 210.555 442.645 210.545 442.371 210.545C442.378 209.832 442.436 209.12 442.544 208.415C442.545 208.364 442.552 208.313 442.564 208.263C442.584 208.314 442.595 208.364 442.615 208.415C442.843 209.119 443.023 209.837 443.153 210.565Z" fill="black"/>
<path d="M443.336 217.675C442.951 216.516 442.692 215.319 442.564 214.105C442.89 213.983 443.204 213.851 443.499 213.709C443.597 215.033 443.542 216.364 443.336 217.675Z" fill="black"/>
<path d="M393.699 267.636L393.008 264.39C393.008 264.39 404.363 251.438 439.283 243.041L441.274 242.736C442.652 243.624 443.981 244.586 445.255 245.617C442.929 246.002 440.593 246.448 438.267 246.864C435.962 247.402 433.636 247.909 431.34 248.487L427.917 249.45L426.201 249.937L424.515 250.495L422.463 251.175C422.357 251.129 422.24 251.118 422.128 251.144C422.059 251.161 421.995 251.193 421.939 251.237C421.883 251.28 421.836 251.335 421.803 251.398L421.132 251.621C420.015 252.016 418.918 252.452 417.801 252.868C414.906 254.035 412.042 255.302 409.249 256.702C408.964 255.81 408.71 254.907 408.507 253.984C408.576 254.952 408.712 255.915 408.914 256.864C407.583 257.544 406.252 258.254 404.962 259.015L401.936 260.891C400.971 261.58 399.955 262.199 399.021 262.929C397.096 264.32 395.314 265.896 393.699 267.636Z" fill="black"/>
<path d="M544.875 325.304C544.875 325.304 544.479 317.84 478.357 346.136C478.357 346.136 461.507 330.314 460.654 290.405C460.593 287.606 460.684 284.806 460.826 282.017C461.014 277.788 460.645 273.553 459.73 269.42C459.465 269.694 459.201 269.988 458.917 270.262C458.626 270.522 458.321 270.766 458.003 270.993C457.364 271.459 456.668 271.841 455.931 272.129C455.167 272.389 454.37 272.539 453.564 272.575C452.738 272.612 451.912 272.499 451.126 272.24C451.068 272.218 451.015 272.181 450.975 272.133C450.934 272.085 450.906 272.028 450.893 271.966L450.883 271.926C450.585 270.397 450.199 268.886 449.725 267.402C449.278 265.911 448.76 264.431 448.252 262.95L446.637 258.518L444.971 254.116L444.961 254.086C444.933 254.01 444.936 253.927 444.968 253.853C445 253.779 445.059 253.721 445.134 253.69H445.144C446.16 253.325 447.175 252.96 448.201 252.635C449.227 252.29 450.253 251.945 451.289 251.631C449.491 249.424 447.47 247.408 445.256 245.617L438.349 247.25C436.074 247.868 433.778 248.436 431.503 249.095C428.598 249.978 425.694 250.87 422.829 251.864C422.921 252.24 423.093 252.909 423.337 253.842C423.367 253.972 423.346 254.109 423.278 254.224C423.21 254.34 423.1 254.424 422.971 254.461C422.928 254.472 422.884 254.479 422.839 254.481C422.726 254.481 422.617 254.444 422.528 254.374C422.439 254.304 422.377 254.206 422.352 254.096C422.128 253.223 421.966 252.585 421.864 252.199C420.605 252.645 419.345 253.122 418.106 253.629C415.181 254.765 412.303 256.019 409.473 257.392C409.524 257.534 409.564 257.686 409.615 257.828C410.045 259.079 410.561 260.299 411.159 261.479C412.329 263.829 413.861 265.982 415.699 267.859C416.617 268.787 417.613 269.635 418.675 270.394C419.769 271.116 420.921 271.747 422.118 272.281C424.555 273.337 427.125 274.053 429.756 274.411C429.452 274.4 429.137 274.38 428.832 274.36C428.876 274.418 428.91 274.483 428.934 274.552L429.584 276.845C429.603 276.908 429.61 276.974 429.603 277.04C429.596 277.106 429.576 277.17 429.543 277.228C429.511 277.286 429.467 277.336 429.415 277.377C429.363 277.417 429.302 277.447 429.238 277.463C429.193 277.48 429.144 277.487 429.096 277.484C428.987 277.482 428.88 277.446 428.793 277.38C428.705 277.315 428.641 277.223 428.608 277.118L427.959 274.826C427.933 274.737 427.932 274.642 427.958 274.553C427.983 274.463 428.032 274.382 428.101 274.319C427.989 274.309 427.867 274.309 427.745 274.299C427.07 274.289 426.397 274.217 425.734 274.086C424.394 273.855 423.081 273.492 421.814 273.001C420.53 272.527 419.301 271.919 418.147 271.185C414.72 268.877 412.046 265.615 410.458 261.804C409.879 260.441 409.414 259.034 409.067 257.595C407.787 258.223 406.527 258.873 405.278 259.562L402.221 261.337C401.236 261.976 400.21 262.565 399.255 263.264C397.277 264.554 395.417 266.016 393.699 267.636C395.69 271.459 397.579 275.323 399.448 279.208C401.307 283.092 403.094 287.007 404.892 290.922C405.227 291.673 405.562 292.423 405.898 293.174C405.979 293.184 408.833 299.786 410.092 302.748C411.778 306.704 413.434 310.679 414.998 314.695C414.998 314.695 439.791 384.646 475.209 386.218C475.209 386.218 494.101 384.646 544.875 364.605C544.875 364.605 550.776 330.02 544.875 325.304ZM423.55 258.73C423.327 257.889 423.124 257.118 422.941 256.418C422.911 256.288 422.932 256.151 423 256.036C423.068 255.921 423.178 255.836 423.307 255.799C423.371 255.782 423.439 255.778 423.505 255.788C423.571 255.797 423.635 255.819 423.693 255.853C423.751 255.887 423.801 255.932 423.841 255.985C423.881 256.039 423.91 256.1 423.926 256.165C424.109 256.864 424.312 257.635 424.536 258.467C424.553 258.532 424.557 258.599 424.548 258.665C424.539 258.731 424.516 258.795 424.482 258.853C424.448 258.91 424.403 258.96 424.35 259C424.296 259.04 424.235 259.069 424.17 259.086C424.127 259.097 424.083 259.104 424.038 259.106C423.927 259.105 423.819 259.068 423.731 259C423.643 258.932 423.579 258.838 423.55 258.73ZM424.779 263.345L424.16 261.033C424.126 260.902 424.146 260.764 424.215 260.648C424.283 260.532 424.395 260.448 424.526 260.415C424.656 260.381 424.795 260.401 424.911 260.469C425.027 260.537 425.111 260.649 425.145 260.779L425.755 263.072C425.774 263.136 425.78 263.204 425.772 263.271C425.765 263.338 425.744 263.403 425.71 263.461C425.677 263.52 425.633 263.571 425.579 263.612C425.526 263.654 425.464 263.683 425.399 263.7C425.356 263.709 425.311 263.713 425.267 263.71C425.157 263.712 425.049 263.677 424.961 263.611C424.873 263.545 424.809 263.451 424.779 263.345H424.779ZM425.399 265.637C425.366 265.508 425.385 265.372 425.451 265.256C425.517 265.14 425.626 265.055 425.755 265.019C425.885 264.986 426.023 265.004 426.141 265.07C426.258 265.136 426.345 265.245 426.384 265.374L427.004 267.636L426.029 267.94L425.399 265.637ZM427.938 272.889C427.892 272.901 427.844 272.908 427.796 272.91C427.685 272.909 427.577 272.872 427.489 272.804C427.401 272.736 427.338 272.641 427.308 272.534L426.669 270.242C426.65 270.177 426.644 270.11 426.652 270.043C426.66 269.976 426.681 269.912 426.714 269.853C426.747 269.795 426.792 269.743 426.845 269.702C426.898 269.661 426.959 269.631 427.024 269.613C427.088 269.595 427.155 269.59 427.221 269.598C427.287 269.606 427.351 269.628 427.409 269.661C427.466 269.694 427.517 269.738 427.557 269.791C427.598 269.843 427.627 269.904 427.644 269.968L428.284 272.26C428.321 272.389 428.306 272.528 428.241 272.646C428.176 272.764 428.067 272.851 427.938 272.889H427.938ZM430.427 282.058C430.316 282.059 430.209 282.024 430.121 281.958C430.033 281.892 429.969 281.799 429.939 281.693L429.269 279.411C429.234 279.281 429.25 279.144 429.314 279.027C429.379 278.909 429.486 278.821 429.614 278.782C429.678 278.761 429.745 278.754 429.812 278.761C429.879 278.767 429.944 278.787 430.003 278.82C430.062 278.852 430.113 278.896 430.155 278.948C430.196 279.001 430.227 279.062 430.244 279.127L430.914 281.409C430.933 281.472 430.94 281.54 430.933 281.606C430.926 281.672 430.905 281.737 430.873 281.795C430.841 281.854 430.798 281.905 430.745 281.947C430.693 281.988 430.633 282.019 430.569 282.037C430.523 282.053 430.475 282.06 430.427 282.058ZM431.778 286.622C431.67 286.62 431.565 286.585 431.477 286.522C431.39 286.458 431.325 286.369 431.29 286.267L430.609 283.985C430.59 283.921 430.583 283.853 430.589 283.786C430.595 283.72 430.615 283.655 430.646 283.596C430.678 283.536 430.721 283.484 430.773 283.441C430.824 283.399 430.884 283.367 430.949 283.347C431.013 283.328 431.081 283.321 431.147 283.328C431.214 283.335 431.279 283.355 431.338 283.387C431.397 283.419 431.449 283.462 431.492 283.514C431.534 283.566 431.566 283.626 431.585 283.691L432.265 285.973C432.303 286.1 432.29 286.238 432.227 286.356C432.164 286.473 432.057 286.562 431.93 286.601C431.881 286.618 431.829 286.625 431.778 286.622L431.778 286.622ZM433.159 291.176C433.051 291.177 432.946 291.143 432.86 291.079C432.773 291.015 432.711 290.924 432.681 290.821L431.981 288.549C431.96 288.485 431.953 288.417 431.959 288.35C431.964 288.283 431.983 288.218 432.015 288.159C432.046 288.099 432.088 288.046 432.14 288.003C432.191 287.96 432.251 287.928 432.315 287.908C432.379 287.887 432.447 287.88 432.514 287.886C432.581 287.892 432.646 287.912 432.706 287.943C432.765 287.974 432.818 288.017 432.861 288.069C432.904 288.121 432.936 288.18 432.956 288.244L433.646 290.526C433.685 290.654 433.671 290.792 433.608 290.91C433.546 291.027 433.439 291.116 433.311 291.155C433.262 291.172 433.211 291.179 433.159 291.176V291.176ZM434.571 295.729C434.464 295.729 434.359 295.695 434.273 295.631C434.187 295.567 434.124 295.477 434.093 295.374L433.382 293.103C433.361 293.039 433.352 292.971 433.357 292.904C433.362 292.837 433.381 292.771 433.413 292.711C433.444 292.652 433.487 292.599 433.54 292.556C433.592 292.514 433.653 292.482 433.718 292.464C433.845 292.425 433.983 292.439 434.101 292.502C434.219 292.564 434.308 292.671 434.347 292.798L435.058 295.07C435.078 295.133 435.086 295.2 435.08 295.266C435.073 295.332 435.054 295.396 435.023 295.455C434.992 295.513 434.949 295.565 434.898 295.607C434.846 295.649 434.787 295.68 434.723 295.699C434.675 295.719 434.623 295.729 434.571 295.729L434.571 295.729ZM436.023 300.263C435.915 300.263 435.809 300.229 435.721 300.165C435.634 300.101 435.569 300.011 435.536 299.908C435.292 299.157 435.048 298.397 434.804 297.646C434.784 297.582 434.776 297.515 434.782 297.448C434.787 297.381 434.806 297.316 434.838 297.257C434.869 297.197 434.912 297.144 434.963 297.102C435.015 297.059 435.075 297.027 435.14 297.007C435.268 296.968 435.406 296.98 435.525 297.041C435.644 297.101 435.736 297.206 435.779 297.332C436.013 298.092 436.257 298.843 436.501 299.593C436.522 299.657 436.531 299.724 436.526 299.79C436.522 299.857 436.504 299.922 436.473 299.982C436.443 300.041 436.401 300.094 436.35 300.137C436.299 300.18 436.239 300.213 436.176 300.233C436.127 300.252 436.075 300.263 436.023 300.263V300.263ZM437.496 304.776C437.389 304.777 437.284 304.744 437.197 304.682C437.109 304.62 437.043 304.533 437.008 304.431L436.267 302.17C436.226 302.042 436.237 301.903 436.298 301.784C436.359 301.665 436.465 301.574 436.593 301.533C436.72 301.491 436.859 301.502 436.979 301.562C437.099 301.623 437.19 301.728 437.232 301.855L437.973 304.107C437.995 304.17 438.005 304.237 438 304.304C437.996 304.371 437.978 304.436 437.947 304.496C437.917 304.555 437.875 304.608 437.824 304.651C437.772 304.694 437.713 304.726 437.648 304.746C437.6 304.766 437.548 304.776 437.496 304.776V304.776ZM439.019 309.3C438.912 309.3 438.808 309.267 438.72 309.206C438.633 309.144 438.567 309.056 438.532 308.955C438.278 308.204 438.024 307.444 437.77 306.693C437.747 306.63 437.737 306.563 437.741 306.496C437.744 306.429 437.761 306.364 437.79 306.304C437.819 306.243 437.86 306.189 437.91 306.145C437.96 306.1 438.018 306.066 438.082 306.045C438.145 306.023 438.213 306.015 438.279 306.019C438.346 306.024 438.412 306.042 438.472 306.072C438.531 306.102 438.585 306.144 438.628 306.195C438.672 306.246 438.705 306.305 438.725 306.369C438.979 307.119 439.243 307.87 439.497 308.63C439.521 308.706 439.527 308.787 439.515 308.866C439.503 308.944 439.472 309.019 439.426 309.084C439.379 309.149 439.319 309.203 439.248 309.24C439.178 309.277 439.099 309.298 439.019 309.3ZM440.573 313.793C440.469 313.792 440.368 313.759 440.283 313.7C440.197 313.64 440.132 313.556 440.096 313.458C439.832 312.708 439.568 311.957 439.314 311.207C439.291 311.144 439.28 311.077 439.283 311.01C439.286 310.943 439.302 310.877 439.331 310.817C439.359 310.756 439.4 310.702 439.45 310.657C439.5 310.612 439.558 310.577 439.621 310.555C439.684 310.533 439.752 310.523 439.819 310.527C439.886 310.531 439.951 310.548 440.011 310.578C440.072 310.607 440.125 310.649 440.17 310.699C440.214 310.749 440.247 310.808 440.269 310.872C440.533 311.622 440.787 312.373 441.051 313.113C441.074 313.176 441.085 313.242 441.083 313.309C441.08 313.376 441.064 313.441 441.036 313.502C441.007 313.563 440.967 313.617 440.917 313.661C440.868 313.706 440.809 313.741 440.746 313.762C440.691 313.782 440.632 313.792 440.573 313.793V313.793ZM442.178 318.276C442.074 318.273 441.974 318.24 441.889 318.181C441.804 318.121 441.738 318.038 441.701 317.941C441.437 317.2 441.163 316.45 440.899 315.699C440.875 315.637 440.865 315.57 440.868 315.504C440.871 315.437 440.887 315.372 440.915 315.311C440.943 315.251 440.983 315.197 441.033 315.152C441.082 315.107 441.14 315.073 441.203 315.05C441.33 315.008 441.468 315.016 441.589 315.073C441.71 315.13 441.805 315.23 441.853 315.355C442.117 316.105 442.392 316.856 442.656 317.596C442.679 317.658 442.689 317.725 442.686 317.792C442.684 317.858 442.668 317.924 442.639 317.984C442.611 318.045 442.571 318.099 442.521 318.144C442.472 318.188 442.414 318.223 442.351 318.245C442.296 318.266 442.237 318.276 442.178 318.276V318.276ZM443.844 322.738C443.741 322.738 443.64 322.707 443.555 322.649C443.47 322.591 443.404 322.509 443.367 322.413C443.092 321.673 442.808 320.923 442.534 320.182C442.51 320.12 442.498 320.053 442.5 319.986C442.502 319.919 442.517 319.853 442.544 319.792C442.571 319.73 442.611 319.675 442.659 319.629C442.708 319.583 442.766 319.547 442.828 319.523C442.891 319.499 442.958 319.489 443.025 319.491C443.091 319.494 443.157 319.51 443.218 319.538C443.278 319.566 443.333 319.607 443.377 319.656C443.422 319.706 443.457 319.764 443.478 319.827C443.763 320.568 444.037 321.308 444.321 322.048C444.365 322.175 444.36 322.314 444.305 322.436C444.25 322.559 444.151 322.656 444.027 322.708C443.968 322.728 443.906 322.738 443.844 322.738V322.738ZM445.754 327.14C445.695 327.16 445.633 327.17 445.571 327.17C445.469 327.172 445.368 327.143 445.283 327.087C445.198 327.031 445.132 326.95 445.093 326.856C444.799 326.126 444.514 325.385 444.22 324.635C444.196 324.572 444.184 324.505 444.186 324.438C444.187 324.371 444.202 324.305 444.229 324.243C444.257 324.182 444.296 324.127 444.345 324.08C444.393 324.034 444.451 323.998 444.514 323.974C444.577 323.95 444.644 323.939 444.711 323.94C444.778 323.942 444.844 323.957 444.906 323.985C444.967 324.012 445.022 324.052 445.068 324.1C445.115 324.149 445.151 324.207 445.175 324.27C445.459 325.01 445.743 325.75 446.038 326.481C446.063 326.543 446.075 326.609 446.075 326.676C446.074 326.742 446.06 326.808 446.034 326.87C446.007 326.931 445.969 326.986 445.921 327.033C445.873 327.079 445.816 327.116 445.754 327.14L445.754 327.14ZM447.561 331.541C447.497 331.569 447.428 331.583 447.358 331.582C447.258 331.582 447.16 331.553 447.076 331.497C446.993 331.441 446.928 331.361 446.891 331.268C446.586 330.548 446.282 329.807 445.987 329.067C445.937 328.943 445.937 328.805 445.989 328.681C446.04 328.558 446.139 328.46 446.262 328.409C446.386 328.358 446.525 328.359 446.648 328.41C446.772 328.461 446.87 328.558 446.922 328.682C447.226 329.422 447.531 330.152 447.836 330.882C447.885 331.006 447.884 331.144 447.833 331.267C447.781 331.391 447.684 331.489 447.561 331.541V331.541ZM449.451 335.913C449.387 335.941 449.317 335.955 449.248 335.953C449.15 335.954 449.054 335.926 448.971 335.874C448.888 335.822 448.822 335.748 448.78 335.659C448.465 334.939 448.14 334.209 447.826 333.469C447.772 333.345 447.77 333.205 447.819 333.08C447.869 332.954 447.966 332.854 448.09 332.8C448.214 332.746 448.354 332.744 448.479 332.793C448.605 332.842 448.706 332.939 448.76 333.063C449.075 333.803 449.39 334.523 449.705 335.244C449.733 335.304 449.748 335.369 449.751 335.436C449.753 335.503 449.742 335.569 449.719 335.632C449.695 335.694 449.659 335.751 449.613 335.799C449.567 335.847 449.512 335.886 449.451 335.913H449.451ZM451.452 340.233C451.381 340.266 451.305 340.283 451.228 340.284C451.132 340.282 451.039 340.253 450.958 340.201C450.878 340.149 450.813 340.076 450.771 339.99C450.436 339.29 450.101 338.56 449.766 337.83C449.737 337.77 449.72 337.705 449.716 337.639C449.713 337.572 449.723 337.506 449.746 337.444C449.769 337.381 449.804 337.324 449.849 337.275C449.894 337.227 449.949 337.188 450.009 337.16C450.07 337.132 450.137 337.115 450.204 337.112C450.272 337.11 450.34 337.12 450.403 337.144C450.466 337.168 450.524 337.204 450.574 337.25C450.623 337.296 450.662 337.352 450.69 337.414C451.015 338.134 451.35 338.854 451.695 339.554C451.753 339.676 451.76 339.817 451.714 339.944C451.668 340.071 451.574 340.175 451.452 340.233ZM453.595 344.493C453.517 344.524 453.435 344.542 453.351 344.544C453.258 344.544 453.167 344.519 453.089 344.47C453.01 344.422 452.946 344.353 452.904 344.27C452.538 343.58 452.183 342.87 451.817 342.14C451.788 342.08 451.771 342.015 451.767 341.949C451.762 341.882 451.771 341.815 451.793 341.752C451.815 341.689 451.849 341.631 451.893 341.581C451.937 341.531 451.991 341.49 452.051 341.461C452.111 341.432 452.176 341.414 452.243 341.41C452.309 341.406 452.376 341.415 452.439 341.437C452.503 341.458 452.561 341.492 452.611 341.536C452.661 341.581 452.702 341.634 452.731 341.694C453.087 342.414 453.453 343.114 453.808 343.803C453.87 343.923 453.883 344.063 453.843 344.192C453.803 344.321 453.714 344.429 453.595 344.493ZM455.911 348.652C455.832 348.691 455.745 348.712 455.657 348.712C455.569 348.714 455.482 348.693 455.405 348.65C455.328 348.607 455.264 348.545 455.22 348.469C454.824 347.789 454.428 347.1 454.031 346.38C453.967 346.261 453.953 346.122 453.991 345.993C454.029 345.864 454.117 345.756 454.235 345.691C454.354 345.627 454.493 345.612 454.622 345.65C454.751 345.687 454.86 345.775 454.925 345.893C455.311 346.603 455.707 347.292 456.093 347.952C456.162 348.069 456.181 348.208 456.147 348.339C456.112 348.471 456.028 348.583 455.911 348.652L455.911 348.652ZM458.49 352.647C458.406 352.705 458.308 352.737 458.206 352.739C458.123 352.739 458.042 352.719 457.97 352.68C457.897 352.641 457.835 352.584 457.789 352.516C457.342 351.887 456.906 351.217 456.459 350.517C456.387 350.403 456.364 350.265 456.393 350.134C456.423 350.002 456.504 349.888 456.618 349.815C456.732 349.743 456.87 349.719 457.002 349.748C457.134 349.777 457.249 349.857 457.322 349.97C457.749 350.66 458.186 351.319 458.622 351.948C458.697 352.058 458.725 352.194 458.7 352.325C458.676 352.456 458.6 352.572 458.49 352.648L458.49 352.647ZM461.477 356.349C461.376 356.439 461.245 356.486 461.11 356.481C460.975 356.475 460.848 356.417 460.755 356.319C460.248 355.751 459.719 355.133 459.212 354.463C459.17 354.41 459.139 354.35 459.121 354.286C459.103 354.221 459.098 354.154 459.106 354.087C459.114 354.021 459.135 353.957 459.168 353.898C459.201 353.84 459.246 353.789 459.299 353.748C459.352 353.707 459.413 353.677 459.478 353.66C459.542 353.642 459.61 353.638 459.677 353.647C459.743 353.656 459.807 353.678 459.865 353.712C459.923 353.746 459.974 353.791 460.014 353.844C460.512 354.483 461.019 355.092 461.507 355.64C461.552 355.688 461.587 355.745 461.61 355.807C461.633 355.869 461.643 355.935 461.64 356.001C461.638 356.067 461.622 356.132 461.593 356.192C461.565 356.251 461.526 356.305 461.477 356.349L461.477 356.349ZM465.143 359.321C465.072 359.435 464.959 359.517 464.828 359.55C464.697 359.582 464.559 359.562 464.442 359.493C463.745 359.064 463.089 358.572 462.482 358.023C462.432 357.98 462.39 357.927 462.361 357.868C462.331 357.809 462.313 357.745 462.308 357.679C462.303 357.613 462.312 357.546 462.333 357.483C462.354 357.421 462.387 357.363 462.431 357.313C462.52 357.211 462.646 357.149 462.781 357.139C462.916 357.13 463.05 357.174 463.152 357.262C463.716 357.769 464.325 358.224 464.97 358.621C465.028 358.656 465.078 358.701 465.118 358.755C465.157 358.809 465.186 358.871 465.202 358.936C465.218 359.001 465.221 359.068 465.211 359.134C465.201 359.2 465.178 359.264 465.143 359.321H465.143ZM469.186 361.106C469.155 361.106 469.125 361.096 469.094 361.096C468.29 360.949 467.496 360.749 466.717 360.498C466.59 360.456 466.484 360.365 466.423 360.245C466.362 360.125 466.351 359.986 466.392 359.859C466.436 359.732 466.527 359.628 466.647 359.567C466.766 359.507 466.904 359.495 467.032 359.534C467.767 359.771 468.517 359.958 469.277 360.092C469.402 360.116 469.513 360.185 469.589 360.287C469.666 360.388 469.702 360.514 469.69 360.64C469.679 360.767 469.621 360.884 469.528 360.97C469.434 361.056 469.313 361.105 469.186 361.106ZM473.919 361.532H473.909C473.066 361.522 472.263 361.481 471.501 361.41C471.434 361.406 471.369 361.388 471.309 361.358C471.249 361.327 471.196 361.285 471.153 361.234C471.109 361.183 471.076 361.124 471.056 361.061C471.036 360.997 471.028 360.929 471.034 360.863C471.039 360.796 471.057 360.732 471.088 360.672C471.118 360.613 471.16 360.561 471.211 360.518C471.262 360.476 471.322 360.444 471.386 360.424C471.449 360.405 471.516 360.399 471.583 360.406C472.324 360.467 473.106 360.508 473.929 360.518C474.062 360.524 474.188 360.582 474.281 360.678C474.373 360.774 474.425 360.902 474.427 361.035C474.424 361.168 474.37 361.294 474.275 361.387C474.18 361.48 474.052 361.532 473.919 361.532L473.919 361.532ZM478.723 361.37C477.9 361.431 477.098 361.481 476.316 361.512H476.295C476.162 361.512 476.035 361.46 475.94 361.367C475.845 361.274 475.79 361.147 475.788 361.015C475.785 360.882 475.834 360.753 475.926 360.657C476.017 360.56 476.142 360.503 476.275 360.498C477.047 360.467 477.829 360.417 478.642 360.356C478.775 360.348 478.906 360.392 479.006 360.48C479.107 360.567 479.169 360.69 479.18 360.823C479.191 360.956 479.149 361.087 479.063 361.19C478.978 361.292 478.856 361.357 478.723 361.37ZM483.487 360.822C482.684 360.944 481.892 361.045 481.11 361.137H481.049C480.925 361.136 480.805 361.091 480.711 361.009C480.618 360.927 480.557 360.813 480.541 360.69C480.527 360.556 480.566 360.422 480.649 360.316C480.733 360.21 480.854 360.141 480.988 360.122C481.76 360.041 482.542 359.94 483.334 359.818C483.469 359.801 483.604 359.837 483.712 359.919C483.82 360 483.892 360.12 483.913 360.254C483.932 360.386 483.898 360.52 483.818 360.626C483.738 360.733 483.619 360.803 483.487 360.822L483.487 360.822ZM488.21 360.021C487.417 360.173 486.625 360.315 485.853 360.447C485.823 360.455 485.793 360.459 485.762 360.457C485.643 360.456 485.529 360.414 485.438 360.338C485.347 360.262 485.286 360.157 485.264 360.041C485.243 359.908 485.274 359.772 485.352 359.662C485.43 359.552 485.548 359.477 485.68 359.453C486.452 359.321 487.234 359.179 488.016 359.027C488.15 359.004 488.286 359.034 488.398 359.109C488.51 359.185 488.588 359.301 488.616 359.432C488.64 359.564 488.611 359.7 488.535 359.811C488.458 359.921 488.342 359.997 488.21 360.021L488.21 360.021ZM492.892 359.037C492.11 359.209 491.328 359.382 490.556 359.544C490.519 359.553 490.482 359.556 490.444 359.554C490.319 359.556 490.197 359.511 490.103 359.427C490.01 359.344 489.95 359.229 489.938 359.104C489.925 358.979 489.959 358.854 490.034 358.754C490.109 358.653 490.219 358.584 490.342 358.56C491.114 358.398 491.886 358.226 492.658 358.043C492.79 358.014 492.927 358.038 493.041 358.109C493.155 358.181 493.236 358.294 493.266 358.425C493.297 358.556 493.275 358.693 493.205 358.808C493.135 358.922 493.022 359.005 492.892 359.037ZM497.534 357.891C496.752 358.094 495.98 358.287 495.218 358.479C495.178 358.491 495.137 358.498 495.096 358.499C494.971 358.5 494.851 358.454 494.757 358.372C494.664 358.289 494.604 358.175 494.589 358.051C494.574 357.928 494.605 357.803 494.676 357.7C494.747 357.598 494.853 357.525 494.974 357.495C495.736 357.303 496.508 357.11 497.28 356.917C497.344 356.899 497.411 356.894 497.477 356.902C497.543 356.91 497.607 356.932 497.664 356.965C497.722 356.998 497.772 357.042 497.813 357.095C497.853 357.148 497.883 357.208 497.899 357.272C497.916 357.337 497.92 357.404 497.911 357.47C497.902 357.537 497.88 357.6 497.846 357.658C497.812 357.715 497.767 357.766 497.713 357.806C497.66 357.846 497.599 357.875 497.534 357.891L497.534 357.891ZM502.135 356.633C501.373 356.856 500.601 357.07 499.839 357.282C499.796 357.291 499.751 357.294 499.707 357.293C499.584 357.293 499.465 357.248 499.373 357.168C499.28 357.087 499.22 356.975 499.204 356.854C499.188 356.732 499.217 356.608 499.285 356.506C499.353 356.404 499.457 356.33 499.575 356.299C500.337 356.096 501.099 355.883 501.861 355.66C501.925 355.641 501.992 355.635 502.058 355.643C502.125 355.65 502.189 355.671 502.248 355.703C502.306 355.736 502.357 355.78 502.399 355.832C502.44 355.884 502.471 355.944 502.489 356.009C502.507 356.073 502.512 356.14 502.504 356.206C502.496 356.273 502.475 356.337 502.442 356.395C502.409 356.453 502.365 356.504 502.312 356.545C502.26 356.586 502.199 356.616 502.135 356.633L502.135 356.633ZM506.716 355.284C505.954 355.518 505.192 355.751 504.43 355.974C504.384 355.986 504.336 355.993 504.288 355.994C504.178 355.996 504.07 355.961 503.982 355.895C503.894 355.828 503.83 355.735 503.8 355.629C503.781 355.565 503.775 355.498 503.782 355.432C503.789 355.366 503.81 355.301 503.842 355.243C503.874 355.184 503.917 355.133 503.969 355.091C504.022 355.05 504.082 355.019 504.146 355C504.908 354.777 505.659 354.544 506.421 354.321C506.549 354.282 506.687 354.295 506.805 354.358C506.923 354.421 507.012 354.528 507.051 354.656C507.09 354.783 507.077 354.921 507.014 355.039C506.951 355.157 506.844 355.245 506.716 355.284ZM511.276 353.844C510.524 354.088 509.763 354.331 509.011 354.574C508.962 354.591 508.91 354.598 508.859 354.595C508.738 354.596 508.621 354.554 508.529 354.477C508.436 354.399 508.375 354.291 508.355 354.172C508.336 354.054 508.359 353.932 508.422 353.829C508.484 353.726 508.582 353.649 508.696 353.611C509.458 353.367 510.21 353.124 510.971 352.881C511.099 352.841 511.237 352.853 511.357 352.914C511.476 352.975 511.567 353.079 511.611 353.205C511.632 353.269 511.64 353.337 511.634 353.403C511.628 353.47 511.609 353.536 511.578 353.595C511.547 353.655 511.504 353.707 511.452 353.75C511.4 353.793 511.341 353.825 511.276 353.844L511.276 353.844ZM515.806 352.343L513.551 353.104C513.499 353.12 513.444 353.127 513.389 353.124C513.267 353.126 513.15 353.085 513.057 353.007C512.964 352.93 512.902 352.822 512.882 352.702C512.862 352.583 512.886 352.46 512.949 352.357C513.013 352.254 513.111 352.177 513.226 352.14L515.481 351.38C515.609 351.336 515.749 351.345 515.871 351.404C515.992 351.463 516.086 351.567 516.131 351.694C516.17 351.823 516.158 351.963 516.098 352.083C516.038 352.204 515.933 352.297 515.806 352.343L515.806 352.343ZM520.316 350.771C519.574 351.035 518.823 351.299 518.061 351.562C518.009 351.582 517.954 351.592 517.898 351.593C517.792 351.593 517.689 351.56 517.603 351.498C517.518 351.436 517.454 351.348 517.421 351.248C517.398 351.185 517.387 351.119 517.39 351.052C517.393 350.986 517.409 350.92 517.437 350.86C517.466 350.799 517.506 350.745 517.555 350.7C517.605 350.656 517.663 350.621 517.726 350.599C518.487 350.345 519.229 350.071 519.97 349.808C520.098 349.764 520.237 349.772 520.359 349.83C520.48 349.889 520.574 349.992 520.619 350.119C520.665 350.246 520.658 350.385 520.602 350.507C520.545 350.629 520.442 350.724 520.316 350.771ZM524.805 349.138C524.064 349.412 523.322 349.686 522.56 349.96C522.505 349.98 522.447 349.99 522.388 349.99C522.283 349.991 522.181 349.96 522.095 349.9C522.009 349.84 521.945 349.754 521.91 349.655C521.866 349.529 521.873 349.39 521.93 349.269C521.987 349.148 522.089 349.053 522.215 349.007C522.967 348.733 523.718 348.459 524.45 348.185C524.576 348.139 524.716 348.146 524.837 348.203C524.959 348.26 525.053 348.363 525.1 348.489C525.124 348.551 525.136 348.617 525.135 348.683C525.133 348.75 525.118 348.816 525.091 348.876C525.063 348.937 525.024 348.991 524.975 349.036C524.926 349.081 524.868 349.116 524.805 349.138L524.805 349.138ZM529.264 347.455C528.543 347.739 527.791 348.022 527.04 348.306C526.981 348.326 526.919 348.337 526.857 348.337C526.754 348.337 526.653 348.306 526.568 348.248C526.483 348.19 526.417 348.108 526.379 348.013C526.335 347.886 526.341 347.747 526.396 347.625C526.451 347.502 526.55 347.405 526.674 347.353C527.436 347.069 528.177 346.785 528.908 346.511C528.97 346.488 529.036 346.477 529.103 346.479C529.169 346.482 529.234 346.497 529.294 346.524C529.355 346.551 529.409 346.59 529.455 346.639C529.5 346.687 529.535 346.744 529.559 346.806C529.582 346.867 529.593 346.933 529.591 347C529.588 347.066 529.573 347.131 529.546 347.191C529.519 347.251 529.48 347.306 529.431 347.351C529.383 347.396 529.326 347.431 529.264 347.455V347.455ZM533.713 345.72C532.992 346.004 532.26 346.298 531.499 346.593C531.438 346.621 531.372 346.635 531.306 346.633C531.204 346.633 531.105 346.602 531.021 346.544C530.938 346.486 530.874 346.404 530.838 346.309C530.79 346.183 530.793 346.044 530.846 345.921C530.899 345.798 530.998 345.7 531.123 345.649C531.884 345.355 532.626 345.061 533.347 344.777C533.471 344.73 533.609 344.733 533.73 344.786C533.852 344.839 533.948 344.938 533.997 345.061C534.023 345.123 534.037 345.189 534.037 345.256C534.036 345.323 534.023 345.39 533.996 345.451C533.969 345.513 533.931 345.569 533.882 345.615C533.833 345.661 533.776 345.697 533.713 345.72L533.713 345.72ZM538.151 343.945C537.44 344.23 536.699 344.534 535.937 344.838C535.876 344.865 535.811 344.879 535.744 344.879C535.627 344.878 535.514 344.837 535.423 344.763C535.333 344.688 535.271 344.585 535.249 344.471C535.226 344.356 535.244 344.237 535.299 344.134C535.354 344.031 535.443 343.95 535.551 343.905C536.323 343.59 537.054 343.296 537.765 343.002C537.89 342.954 538.028 342.957 538.151 343.009C538.274 343.062 538.371 343.161 538.422 343.285C538.472 343.408 538.472 343.547 538.422 343.67C538.371 343.794 538.274 343.892 538.151 343.945H538.151ZM542.559 342.11C541.889 342.394 541.148 342.708 540.355 343.033C540.295 343.061 540.229 343.074 540.162 343.073C540.062 343.073 539.964 343.043 539.881 342.987C539.798 342.931 539.733 342.851 539.695 342.759C539.669 342.698 539.655 342.632 539.655 342.565C539.655 342.499 539.668 342.433 539.693 342.371C539.719 342.31 539.756 342.254 539.804 342.208C539.851 342.161 539.908 342.124 539.969 342.1C540.762 341.775 541.493 341.461 542.163 341.176C542.289 341.125 542.429 341.125 542.555 341.176C542.68 341.228 542.78 341.326 542.834 341.45C542.86 341.511 542.874 341.577 542.875 341.644C542.876 341.711 542.863 341.777 542.837 341.838C542.811 341.9 542.774 341.956 542.726 342.002C542.678 342.049 542.622 342.086 542.559 342.11L542.559 342.11ZM546.957 340.223C546.521 340.416 545.769 340.74 544.764 341.176C544.7 341.205 544.63 341.219 544.56 341.217C544.443 341.218 544.328 341.178 544.237 341.103C544.146 341.029 544.084 340.925 544.061 340.81C544.038 340.695 544.056 340.575 544.112 340.472C544.168 340.368 544.258 340.288 544.367 340.243C545.363 339.818 546.114 339.493 546.551 339.3C546.612 339.273 546.678 339.257 546.744 339.255C546.811 339.253 546.878 339.265 546.94 339.288C547.003 339.312 547.06 339.348 547.108 339.394C547.156 339.44 547.195 339.495 547.222 339.556C547.249 339.618 547.263 339.683 547.265 339.75C547.266 339.817 547.254 339.883 547.229 339.945C547.205 340.007 547.168 340.064 547.121 340.111C547.075 340.159 547.019 340.197 546.957 340.223ZM451.289 251.631C450.314 252.108 449.329 252.544 448.344 252.99C447.46 253.396 446.576 253.771 445.682 254.146C446.302 255.485 446.922 256.824 447.47 258.193C448.09 259.654 448.658 261.124 449.187 262.615C449.735 264.096 450.223 265.607 450.669 267.129C451.095 268.576 451.424 270.05 451.655 271.54C452.268 271.761 452.913 271.884 453.564 271.905C454.308 271.921 455.051 271.829 455.768 271.632C456.495 271.426 457.194 271.133 457.85 270.759C458.514 270.368 459.143 269.92 459.73 269.42C458.348 262.913 455.457 256.82 451.289 251.631ZM409.514 303.001L405.501 294.218C405.461 294.198 404.151 291.257 404.151 291.257L398.869 279.471C397.132 275.536 395.385 271.601 393.699 267.636C393.699 267.636 318.192 355.173 277.26 423.552C277.26 423.552 286.442 430.489 295.969 436.96V436.95L297.289 434.972C297.327 434.916 297.376 434.869 297.432 434.832C297.488 434.795 297.551 434.77 297.617 434.758C297.683 434.746 297.751 434.747 297.817 434.761C297.883 434.775 297.945 434.802 298 434.84C298.056 434.877 298.104 434.924 298.141 434.979C298.178 435.034 298.203 435.097 298.215 435.162C298.228 435.227 298.227 435.294 298.212 435.359C298.198 435.424 298.171 435.486 298.132 435.54L296.812 437.518L296.802 437.528C304.866 442.964 312.982 447.914 315.826 447.914C315.826 447.914 357.155 380.711 364.234 370.498C371.323 360.275 410.671 323.337 414.998 314.695C413.129 310.821 411.321 306.906 409.514 303.001ZM300.783 431.595L299.463 433.562C299.417 433.633 299.353 433.692 299.279 433.732C299.205 433.773 299.121 433.795 299.036 433.795C298.938 433.795 298.842 433.763 298.762 433.704C298.706 433.668 298.657 433.621 298.62 433.566C298.582 433.512 298.556 433.45 298.542 433.384C298.529 433.319 298.529 433.252 298.542 433.186C298.556 433.121 298.582 433.059 298.62 433.004L299.94 431.027C300.017 430.915 300.134 430.838 300.267 430.812C300.4 430.785 300.538 430.811 300.651 430.885C300.707 430.922 300.754 430.971 300.791 431.027C300.828 431.083 300.853 431.146 300.866 431.212C300.878 431.278 300.877 431.346 300.863 431.412C300.849 431.477 300.822 431.54 300.783 431.595ZM303.444 427.649L302.114 429.617C302.069 429.686 302.007 429.743 301.935 429.782C301.862 429.821 301.78 429.841 301.697 429.84C301.596 429.845 301.497 429.816 301.413 429.759C301.301 429.685 301.224 429.57 301.197 429.438C301.17 429.307 301.197 429.171 301.271 429.059L302.601 427.081C302.676 426.97 302.791 426.892 302.922 426.866C303.054 426.839 303.19 426.865 303.302 426.939C303.414 427.016 303.491 427.133 303.518 427.266C303.544 427.398 303.518 427.536 303.444 427.649H303.444ZM306.096 423.704L304.765 425.671C304.719 425.74 304.658 425.797 304.585 425.835C304.512 425.874 304.431 425.895 304.348 425.895C304.247 425.899 304.148 425.871 304.064 425.814C303.953 425.737 303.875 425.62 303.849 425.487C303.822 425.355 303.848 425.217 303.922 425.103L305.252 423.136C305.327 423.025 305.442 422.948 305.574 422.921C305.705 422.894 305.841 422.921 305.953 422.994C306.065 423.071 306.142 423.188 306.169 423.32C306.195 423.453 306.169 423.59 306.095 423.704L306.096 423.704ZM308.746 419.749L307.416 421.726C307.37 421.795 307.308 421.851 307.236 421.89C307.163 421.929 307.082 421.949 306.999 421.949C306.899 421.949 306.8 421.921 306.715 421.868C306.603 421.792 306.526 421.675 306.5 421.542C306.473 421.409 306.499 421.272 306.573 421.158L307.903 419.191C307.94 419.135 307.987 419.087 308.042 419.049C308.097 419.012 308.159 418.985 308.225 418.972C308.29 418.958 308.357 418.958 308.423 418.97C308.488 418.983 308.551 419.008 308.606 419.045C308.662 419.082 308.71 419.13 308.747 419.185C308.784 419.24 308.81 419.302 308.823 419.368C308.836 419.433 308.836 419.5 308.823 419.566C308.81 419.631 308.784 419.693 308.746 419.749L308.746 419.749ZM311.397 415.803L310.067 417.781C310.03 417.836 309.983 417.884 309.927 417.921C309.872 417.958 309.81 417.983 309.744 417.995C309.679 418.008 309.612 418.007 309.547 417.992C309.482 417.978 309.42 417.951 309.366 417.913C309.254 417.839 309.177 417.723 309.15 417.592C309.123 417.461 309.15 417.325 309.224 417.213L310.554 415.245C310.591 415.189 310.638 415.141 310.693 415.104C310.748 415.067 310.81 415.041 310.875 415.027C310.94 415.014 311.007 415.014 311.073 415.027C311.138 415.04 311.2 415.066 311.255 415.103C311.367 415.177 311.445 415.293 311.471 415.424C311.498 415.555 311.471 415.691 311.397 415.803L311.397 415.803ZM314.048 411.858L312.728 413.836C312.68 413.904 312.616 413.96 312.541 413.998C312.467 414.037 312.385 414.058 312.301 414.059C312.21 414.058 312.12 414.032 312.042 413.984C311.964 413.936 311.9 413.868 311.857 413.787C311.815 413.706 311.795 413.615 311.8 413.523C311.805 413.432 311.834 413.344 311.885 413.268L313.205 411.29C313.282 411.18 313.398 411.105 313.529 411.08C313.661 411.056 313.797 411.084 313.908 411.159C314.018 411.233 314.095 411.349 314.122 411.479C314.148 411.61 314.122 411.746 314.048 411.858V411.858ZM316.699 407.912L315.379 409.88C315.333 409.951 315.269 410.01 315.195 410.05C315.121 410.091 315.037 410.113 314.952 410.113C314.851 410.111 314.752 410.08 314.668 410.022C314.612 409.986 314.565 409.938 314.528 409.883C314.491 409.828 314.465 409.766 314.453 409.7C314.441 409.635 314.442 409.568 314.456 409.503C314.47 409.438 314.497 409.376 314.536 409.322L315.856 407.345C315.933 407.233 316.05 407.156 316.183 407.129C316.316 407.103 316.454 407.129 316.567 407.202C316.623 407.24 316.671 407.289 316.707 407.345C316.744 407.401 316.769 407.464 316.782 407.53C316.794 407.596 316.793 407.664 316.779 407.729C316.765 407.795 316.738 407.857 316.699 407.912V407.912ZM319.35 403.967L318.03 405.935C317.994 405.991 317.947 406.039 317.891 406.077C317.836 406.115 317.774 406.142 317.709 406.156C317.643 406.17 317.575 406.17 317.51 406.158C317.444 406.145 317.381 406.12 317.325 406.083C317.269 406.046 317.221 405.998 317.184 405.942C317.147 405.887 317.121 405.824 317.108 405.759C317.095 405.693 317.096 405.625 317.109 405.56C317.123 405.494 317.149 405.432 317.187 405.377L318.507 403.399C318.584 403.288 318.701 403.211 318.834 403.184C318.967 403.158 319.105 403.184 319.218 403.257C319.274 403.295 319.322 403.343 319.358 403.399C319.395 403.456 319.42 403.519 319.433 403.585C319.445 403.651 319.444 403.719 319.43 403.784C319.416 403.85 319.389 403.912 319.35 403.967L319.35 403.967ZM322.011 400.012L320.681 401.989C320.632 402.057 320.569 402.113 320.494 402.152C320.42 402.191 320.338 402.212 320.254 402.213C320.156 402.216 320.06 402.187 319.98 402.131C319.868 402.055 319.791 401.938 319.765 401.805C319.738 401.673 319.764 401.535 319.838 401.421L321.168 399.454C321.242 399.342 321.358 399.264 321.489 399.238C321.621 399.211 321.758 399.238 321.869 399.312C321.981 399.386 322.059 399.501 322.086 399.632C322.112 399.764 322.086 399.9 322.011 400.012H322.011ZM324.662 396.066L323.332 398.044C323.285 398.112 323.223 398.168 323.151 398.206C323.078 398.245 322.998 398.266 322.915 398.267C322.815 398.267 322.716 398.239 322.631 398.186C322.519 398.109 322.442 397.992 322.416 397.86C322.389 397.727 322.415 397.59 322.489 397.476L323.819 395.508C323.894 395.397 324.009 395.32 324.14 395.294C324.271 395.267 324.408 395.294 324.519 395.368C324.631 395.441 324.709 395.556 324.736 395.687C324.762 395.818 324.736 395.955 324.662 396.066V396.066ZM327.313 392.121L325.983 394.099C325.937 394.167 325.875 394.224 325.803 394.263C325.73 394.302 325.649 394.322 325.566 394.322C325.464 394.323 325.364 394.291 325.282 394.23C325.17 394.156 325.092 394.041 325.066 393.91C325.039 393.779 325.066 393.642 325.14 393.531L326.47 391.553C326.547 391.444 326.663 391.368 326.794 391.344C326.926 391.319 327.061 391.347 327.172 391.422C327.283 391.497 327.36 391.612 327.386 391.742C327.413 391.873 327.386 392.009 327.313 392.121V392.121ZM329.964 388.176L328.634 390.153C328.597 390.209 328.55 390.257 328.495 390.293C328.439 390.33 328.377 390.356 328.311 390.368C328.246 390.38 328.179 390.379 328.114 390.365C328.049 390.351 327.987 390.324 327.933 390.285C327.821 390.211 327.744 390.096 327.717 389.965C327.69 389.833 327.717 389.697 327.791 389.585L329.121 387.608C329.158 387.552 329.206 387.505 329.261 387.468C329.316 387.432 329.379 387.407 329.444 387.394C329.509 387.382 329.576 387.383 329.641 387.397C329.706 387.411 329.768 387.438 329.822 387.476C329.934 387.55 330.012 387.665 330.038 387.796C330.065 387.928 330.038 388.064 329.964 388.176L329.964 388.176ZM332.615 384.23L331.295 386.198C331.249 386.269 331.185 386.327 331.111 386.368C331.036 386.409 330.953 386.43 330.868 386.431C330.766 386.43 330.667 386.399 330.584 386.34C330.472 386.266 330.394 386.15 330.368 386.019C330.341 385.888 330.368 385.752 330.442 385.64L331.772 383.662C331.847 383.552 331.962 383.475 332.094 383.448C332.225 383.421 332.361 383.447 332.473 383.52C332.585 383.597 332.662 383.714 332.689 383.847C332.715 383.979 332.689 384.117 332.615 384.231L332.615 384.23ZM335.266 380.285L333.946 382.252C333.899 382.322 333.836 382.379 333.761 382.418C333.687 382.457 333.603 382.477 333.519 382.476C333.418 382.479 333.319 382.45 333.235 382.395C333.179 382.358 333.132 382.311 333.095 382.255C333.058 382.2 333.033 382.138 333.021 382.073C333.008 382.007 333.009 381.94 333.023 381.875C333.037 381.81 333.064 381.749 333.103 381.695L334.423 379.717C334.46 379.661 334.508 379.612 334.564 379.574C334.619 379.537 334.682 379.511 334.748 379.497C334.814 379.484 334.882 379.484 334.948 379.497C335.014 379.51 335.077 379.537 335.133 379.574C335.189 379.612 335.237 379.66 335.274 379.716C335.311 379.773 335.336 379.836 335.349 379.902C335.361 379.968 335.36 380.036 335.346 380.102C335.332 380.167 335.305 380.23 335.266 380.285H335.266ZM337.917 376.33L336.597 378.307C336.548 378.375 336.484 378.431 336.41 378.47C336.336 378.509 336.254 378.529 336.17 378.53C336.07 378.527 335.972 378.499 335.886 378.449C335.83 378.411 335.783 378.363 335.746 378.307C335.709 378.251 335.684 378.188 335.671 378.122C335.659 378.056 335.66 377.988 335.674 377.922C335.688 377.857 335.715 377.794 335.754 377.739L337.074 375.772C337.151 375.66 337.268 375.583 337.401 375.557C337.534 375.53 337.671 375.556 337.785 375.63C337.841 375.666 337.889 375.714 337.926 375.769C337.963 375.824 337.988 375.886 338 375.952C338.013 376.017 338.012 376.084 337.997 376.149C337.983 376.214 337.956 376.276 337.917 376.33L337.917 376.33ZM340.568 372.384L339.248 374.362C339.199 374.43 339.135 374.486 339.061 374.525C338.987 374.563 338.905 374.584 338.821 374.585C338.724 374.583 338.629 374.555 338.547 374.504C338.491 374.467 338.442 374.419 338.405 374.363C338.367 374.307 338.341 374.244 338.328 374.178C338.315 374.112 338.315 374.045 338.328 373.979C338.341 373.913 338.367 373.85 338.405 373.794L339.725 371.826C339.802 371.715 339.919 371.638 340.052 371.611C340.184 371.585 340.322 371.611 340.436 371.684C340.492 371.721 340.54 371.768 340.576 371.823C340.613 371.879 340.639 371.941 340.651 372.006C340.664 372.072 340.663 372.139 340.648 372.204C340.634 372.269 340.607 372.33 340.568 372.384V372.384ZM343.229 368.439L341.899 370.416C341.852 370.484 341.79 370.54 341.718 370.579C341.645 370.618 341.564 370.639 341.482 370.64C341.38 370.64 341.28 370.608 341.198 370.548C341.086 370.474 341.009 370.359 340.982 370.228C340.955 370.097 340.982 369.96 341.056 369.848L342.386 367.871C342.463 367.761 342.579 367.686 342.71 367.662C342.842 367.637 342.977 367.666 343.088 367.74C343.199 367.815 343.276 367.93 343.302 368.061C343.328 368.191 343.302 368.327 343.229 368.439V368.439ZM345.88 364.494L344.55 366.471C344.503 366.539 344.441 366.595 344.369 366.634C344.296 366.673 344.216 366.693 344.133 366.694C344.031 366.695 343.931 366.663 343.849 366.603C343.737 366.529 343.659 366.414 343.633 366.283C343.606 366.151 343.633 366.015 343.707 365.903L345.037 363.926C345.074 363.87 345.121 363.823 345.177 363.786C345.232 363.749 345.294 363.724 345.36 363.712C345.425 363.699 345.492 363.7 345.557 363.714C345.622 363.728 345.684 363.755 345.738 363.794C345.85 363.868 345.928 363.983 345.954 364.114C345.981 364.246 345.954 364.382 345.88 364.494L345.88 364.494ZM348.531 360.548L347.201 362.516C347.157 362.586 347.095 362.644 347.022 362.683C346.949 362.722 346.867 362.741 346.784 362.739C346.683 362.743 346.583 362.715 346.5 362.658C346.389 362.583 346.311 362.468 346.285 362.337C346.258 362.206 346.284 362.07 346.358 361.958L347.688 359.98C347.763 359.869 347.878 359.792 348.009 359.765C348.141 359.739 348.277 359.765 348.389 359.838C348.501 359.915 348.578 360.032 348.604 360.164C348.631 360.297 348.605 360.435 348.531 360.548L348.531 360.548ZM351.538 356.948L349.974 358.743C349.929 358.799 349.872 358.844 349.806 358.874C349.741 358.904 349.67 358.918 349.598 358.915C349.501 358.917 349.405 358.89 349.323 358.838C349.241 358.787 349.176 358.712 349.135 358.624C349.094 358.536 349.079 358.439 349.093 358.343C349.107 358.247 349.148 358.157 349.212 358.084L350.766 356.288C350.853 356.187 350.978 356.124 351.112 356.113C351.246 356.103 351.379 356.146 351.481 356.234C351.583 356.321 351.647 356.445 351.657 356.579C351.668 356.713 351.625 356.845 351.538 356.948ZM354.656 353.357L353.092 355.152C353.046 355.207 352.988 355.251 352.923 355.28C352.858 355.31 352.787 355.325 352.716 355.325C352.593 355.326 352.474 355.283 352.381 355.203C352.279 355.114 352.216 354.988 352.207 354.854C352.197 354.719 352.241 354.585 352.33 354.483L353.884 352.688C353.974 352.588 354.1 352.528 354.234 352.518C354.369 352.509 354.501 352.551 354.605 352.637C354.707 352.726 354.77 352.852 354.779 352.987C354.789 353.122 354.744 353.255 354.656 353.358L354.656 353.357ZM357.774 349.767L356.21 351.562C356.164 351.617 356.106 351.66 356.041 351.69C355.976 351.72 355.906 351.735 355.834 351.735C355.711 351.736 355.592 351.693 355.499 351.613C355.397 351.524 355.334 351.398 355.325 351.263C355.315 351.128 355.36 350.995 355.448 350.893L357.002 349.097C357.091 348.995 357.217 348.932 357.352 348.923C357.487 348.913 357.621 348.958 357.723 349.047C357.826 349.136 357.888 349.261 357.898 349.396C357.907 349.532 357.863 349.665 357.774 349.767ZM360.892 346.177L359.328 347.972C359.282 348.026 359.224 348.07 359.159 348.1C359.094 348.129 359.024 348.145 358.952 348.144C358.829 348.146 358.71 348.102 358.617 348.022C358.515 347.933 358.453 347.808 358.443 347.673C358.434 347.538 358.478 347.405 358.566 347.302L360.12 345.507C360.209 345.405 360.335 345.342 360.47 345.333C360.606 345.323 360.739 345.368 360.841 345.456C360.944 345.545 361.007 345.671 361.016 345.806C361.026 345.941 360.981 346.074 360.892 346.177H360.892ZM364.01 342.586L362.446 344.381C362.4 344.436 362.342 344.479 362.278 344.509C362.213 344.539 362.142 344.554 362.07 344.554C361.947 344.555 361.828 344.512 361.735 344.432C361.633 344.343 361.571 344.217 361.561 344.082C361.552 343.947 361.596 343.814 361.684 343.712L363.238 341.917C363.327 341.814 363.453 341.752 363.589 341.742C363.724 341.733 363.857 341.777 363.96 341.866C364.062 341.955 364.125 342.081 364.134 342.216C364.144 342.351 364.099 342.484 364.01 342.586H364.01ZM367.128 338.986L365.564 340.781C365.523 340.833 365.471 340.876 365.411 340.908C365.352 340.939 365.287 340.957 365.22 340.962C365.153 340.967 365.086 340.958 365.023 340.935C364.96 340.913 364.902 340.877 364.853 340.832C364.803 340.789 364.762 340.736 364.732 340.677C364.702 340.618 364.684 340.553 364.679 340.487C364.675 340.421 364.683 340.355 364.704 340.292C364.725 340.229 364.759 340.171 364.803 340.121L366.357 338.327C366.446 338.225 366.572 338.162 366.707 338.153C366.842 338.143 366.975 338.187 367.078 338.276C367.128 338.319 367.17 338.371 367.199 338.431C367.229 338.49 367.247 338.554 367.252 338.62C367.256 338.686 367.248 338.753 367.227 338.815C367.206 338.878 367.172 338.936 367.128 338.986V338.986ZM370.247 335.395L368.683 337.19C368.641 337.243 368.589 337.286 368.53 337.317C368.47 337.348 368.405 337.367 368.338 337.372C368.271 337.376 368.204 337.367 368.141 337.345C368.078 337.322 368.02 337.287 367.972 337.241C367.921 337.198 367.88 337.146 367.85 337.086C367.82 337.027 367.802 336.963 367.798 336.897C367.793 336.831 367.801 336.764 367.823 336.702C367.844 336.639 367.877 336.581 367.921 336.531L369.475 334.736C369.564 334.634 369.69 334.572 369.825 334.562C369.96 334.553 370.093 334.597 370.196 334.685C370.246 334.728 370.288 334.781 370.318 334.84C370.348 334.899 370.365 334.964 370.37 335.03C370.375 335.096 370.366 335.162 370.345 335.225C370.324 335.288 370.291 335.346 370.247 335.396L370.247 335.395ZM373.365 331.805L371.801 333.6C371.756 333.656 371.699 333.701 371.634 333.731C371.568 333.761 371.497 333.775 371.425 333.773C371.328 333.774 371.233 333.747 371.15 333.696C371.068 333.644 371.003 333.57 370.962 333.482C370.921 333.394 370.907 333.296 370.92 333.2C370.934 333.104 370.975 333.014 371.039 332.941L372.593 331.146C372.682 331.044 372.808 330.981 372.943 330.972C373.078 330.962 373.212 331.007 373.314 331.095C373.365 331.138 373.406 331.191 373.436 331.25C373.466 331.309 373.484 331.373 373.488 331.44C373.493 331.506 373.485 331.572 373.463 331.635C373.442 331.698 373.409 331.756 373.365 331.805L373.365 331.805ZM376.483 328.215L374.919 330.01C374.874 330.066 374.817 330.111 374.752 330.141C374.686 330.171 374.615 330.185 374.543 330.182C374.446 330.183 374.351 330.157 374.269 330.105C374.186 330.053 374.121 329.979 374.08 329.891C374.039 329.803 374.025 329.705 374.039 329.609C374.052 329.513 374.094 329.424 374.157 329.35L375.711 327.555C375.755 327.505 375.807 327.463 375.867 327.433C375.926 327.403 375.991 327.384 376.058 327.379C376.124 327.374 376.191 327.382 376.255 327.403C376.318 327.423 376.377 327.456 376.427 327.5C376.478 327.543 376.52 327.596 376.55 327.655C376.58 327.714 376.598 327.779 376.604 327.846C376.609 327.912 376.601 327.979 376.58 328.042C376.559 328.105 376.526 328.164 376.483 328.215ZM379.601 324.624L378.037 326.419C377.949 326.52 377.825 326.581 377.692 326.591C377.559 326.6 377.427 326.557 377.326 326.47C377.224 326.381 377.162 326.255 377.152 326.12C377.143 325.985 377.187 325.852 377.275 325.75L378.829 323.955C378.918 323.852 379.044 323.79 379.179 323.78C379.315 323.771 379.448 323.815 379.551 323.904C379.653 323.993 379.716 324.119 379.725 324.254C379.735 324.389 379.69 324.522 379.601 324.624ZM382.72 321.034L381.155 322.829C381.109 322.883 381.052 322.927 380.987 322.957C380.922 322.987 380.851 323.002 380.779 323.001C380.657 323.003 380.537 322.96 380.444 322.88C380.342 322.791 380.28 322.665 380.27 322.53C380.261 322.395 380.305 322.262 380.393 322.159L381.948 320.364C382.036 320.262 382.162 320.199 382.298 320.19C382.433 320.18 382.566 320.225 382.669 320.314C382.771 320.402 382.834 320.528 382.843 320.663C382.853 320.798 382.808 320.932 382.719 321.034H382.72ZM385.838 317.443L384.274 319.239C384.226 319.291 384.168 319.334 384.103 319.364C384.039 319.393 383.969 319.409 383.898 319.411C383.775 319.412 383.656 319.369 383.563 319.289C383.461 319.2 383.398 319.075 383.389 318.94C383.379 318.805 383.423 318.671 383.512 318.569L385.066 316.774C385.155 316.673 385.281 316.61 385.416 316.601C385.55 316.592 385.684 316.636 385.786 316.725C385.888 316.813 385.951 316.939 385.96 317.073C385.97 317.208 385.926 317.341 385.838 317.443ZM388.956 313.853L387.392 315.648C387.304 315.748 387.18 315.81 387.047 315.819C386.914 315.829 386.782 315.786 386.681 315.699C386.579 315.61 386.516 315.484 386.507 315.349C386.497 315.214 386.541 315.081 386.63 314.979L388.184 313.184C388.228 313.133 388.281 313.091 388.342 313.061C388.402 313.031 388.467 313.013 388.534 313.008C388.601 313.003 388.669 313.011 388.733 313.033C388.797 313.054 388.856 313.087 388.906 313.131C388.957 313.175 388.999 313.229 389.029 313.289C389.059 313.349 389.077 313.415 389.081 313.482C389.086 313.549 389.077 313.616 389.056 313.68C389.034 313.744 389 313.802 388.956 313.853H388.956ZM392.074 310.253L390.51 312.058C390.461 312.112 390.401 312.155 390.335 312.185C390.269 312.214 390.197 312.23 390.124 312.23C390.004 312.23 389.889 312.187 389.799 312.109C389.697 312.02 389.634 311.894 389.625 311.759C389.615 311.624 389.66 311.491 389.748 311.389L391.302 309.593C391.391 309.492 391.517 309.429 391.652 309.42C391.787 309.41 391.921 309.454 392.023 309.543C392.074 309.586 392.115 309.638 392.145 309.698C392.175 309.757 392.193 309.821 392.197 309.887C392.202 309.953 392.194 310.02 392.172 310.083C392.151 310.145 392.118 310.203 392.074 310.253V310.253ZM395.192 306.662L393.628 308.457C393.583 308.513 393.525 308.559 393.46 308.59C393.395 308.622 393.324 308.639 393.252 308.64C393.19 308.641 393.129 308.63 393.071 308.608C393.014 308.585 392.961 308.551 392.917 308.508C392.867 308.465 392.825 308.412 392.796 308.353C392.766 308.294 392.748 308.23 392.743 308.164C392.738 308.098 392.747 308.031 392.768 307.969C392.789 307.906 392.823 307.848 392.866 307.798L394.42 306.003C394.509 305.901 394.635 305.839 394.77 305.829C394.905 305.82 395.039 305.864 395.141 305.952C395.192 305.995 395.233 306.048 395.263 306.107C395.293 306.166 395.311 306.231 395.316 306.297C395.32 306.363 395.312 306.429 395.291 306.492C395.27 306.555 395.236 306.613 395.192 306.663L395.192 306.662ZM398.31 303.072L396.746 304.867C396.7 304.922 396.643 304.965 396.578 304.995C396.513 305.025 396.442 305.04 396.37 305.039C396.273 305.041 396.178 305.014 396.096 304.962C396.014 304.911 395.948 304.836 395.907 304.748C395.867 304.66 395.852 304.563 395.866 304.467C395.88 304.371 395.921 304.281 395.985 304.208L397.538 302.412C397.628 302.311 397.754 302.248 397.889 302.239C398.024 302.229 398.157 302.273 398.26 302.362C398.31 302.405 398.352 302.457 398.381 302.517C398.411 302.576 398.429 302.64 398.434 302.706C398.439 302.773 398.43 302.839 398.409 302.902C398.388 302.965 398.354 303.023 398.31 303.072L398.31 303.072ZM401.429 299.481L399.864 301.277C399.817 301.332 399.758 301.377 399.691 301.406C399.624 301.436 399.552 301.451 399.478 301.449C399.382 301.448 399.288 301.42 399.208 301.368C399.127 301.315 399.063 301.241 399.024 301.154C398.984 301.066 398.97 300.969 398.984 300.874C398.998 300.779 399.039 300.69 399.103 300.617L400.657 298.822C400.746 298.72 400.872 298.658 401.007 298.648C401.142 298.639 401.275 298.683 401.378 298.772C401.428 298.815 401.47 298.867 401.5 298.926C401.53 298.986 401.547 299.05 401.552 299.116C401.557 299.182 401.548 299.249 401.527 299.312C401.506 299.374 401.472 299.432 401.429 299.482L401.429 299.481ZM404.547 295.891L402.983 297.686C402.934 297.74 402.874 297.783 402.808 297.813C402.741 297.843 402.669 297.858 402.597 297.859C402.501 297.858 402.406 297.83 402.326 297.778C402.245 297.725 402.181 297.651 402.142 297.563C402.102 297.476 402.088 297.379 402.102 297.284C402.117 297.189 402.158 297.099 402.221 297.027L403.775 295.222C403.865 295.122 403.991 295.061 404.125 295.052C404.26 295.042 404.392 295.085 404.496 295.171C404.598 295.26 404.661 295.386 404.67 295.521C404.68 295.656 404.635 295.789 404.547 295.892V295.891Z" fill="black"/>
<path d="M366.399 214.908C366.322 214.908 366.247 214.886 366.182 214.846C364.572 213.783 362.723 213.136 360.8 212.961C358.878 212.786 356.942 213.09 355.166 213.845C355.07 213.894 354.958 213.904 354.854 213.871C354.751 213.839 354.665 213.767 354.615 213.671C354.565 213.575 354.555 213.463 354.587 213.36C354.619 213.257 354.691 213.17 354.787 213.12C356.685 212.279 358.766 211.933 360.834 212.113C362.903 212.294 364.892 212.995 366.616 214.151C366.692 214.198 366.75 214.268 366.782 214.351C366.814 214.434 366.818 214.525 366.793 214.611C366.769 214.697 366.717 214.772 366.646 214.825C366.575 214.879 366.488 214.908 366.399 214.908Z" fill="black"/>
<path d="M372.352 247.743C372.529 245.609 372.789 243.524 373.001 241.428C373.243 239.334 373.406 237.246 373.68 235.119C374.024 237.234 374.07 239.387 373.816 241.515C373.612 243.648 373.12 245.743 372.352 247.743Z" fill="black"/>
<path d="M375.338 226.26C375.304 226.26 375.27 226.256 375.237 226.248C375.131 226.221 375.041 226.154 374.985 226.061C374.93 225.968 374.914 225.856 374.94 225.751C376.256 220.56 370.98 216.137 370.927 216.093C370.843 216.024 370.79 215.924 370.78 215.816C370.77 215.709 370.803 215.601 370.872 215.517C370.941 215.433 371.041 215.381 371.149 215.37C371.257 215.36 371.365 215.392 371.449 215.461C371.683 215.655 377.177 220.264 375.735 225.951C375.712 226.039 375.661 226.118 375.589 226.174C375.518 226.23 375.429 226.26 375.338 226.26Z" fill="black"/>
<path d="M319.277 178.121C319.736 177.744 320.315 177.544 320.91 177.558C321.504 177.571 322.073 177.798 322.514 178.196C322.514 178.196 324.347 173.86 336.296 174.682C336.296 174.682 335.427 177.837 334.367 178.067C333.306 178.297 337.44 182.501 340.258 181.669C340.258 181.669 346.678 187.707 344.462 195.394C342.278 202.971 340.118 205.695 335.533 202.081C335.392 201.969 335.241 201.87 335.081 201.787C333.851 201.153 328.454 198.582 327.396 201.601C327.176 202.268 327.23 202.995 327.545 203.623C328.972 206.587 334.968 217.341 344.092 210.554C344.092 210.554 354.928 203.581 349.872 193.719C349.343 192.719 348.689 191.791 347.926 190.955C347.179 190.094 346.616 189.091 346.27 188.005C345.925 186.919 345.806 185.774 345.919 184.641C346.018 183.039 346.697 181.527 347.829 180.388C348.934 179.316 350.541 178.595 352.301 180.544C353.03 181.355 353.536 182.342 353.769 183.407C353.933 183.897 353.983 184.418 353.916 184.93C353.849 185.443 353.666 185.934 353.381 186.365L354.779 188.058C355.078 186.855 355.544 185.699 356.162 184.624C357.225 182.951 357.713 180.977 357.551 179.002C357.249 175.879 355.827 171.426 351.042 166.914C351.042 166.914 344.047 158.229 334.973 160.417C325.899 162.605 318.581 166.741 319.277 178.121Z" fill="black"/>
<path d="M337.31 187.519C335.708 187.951 334.115 188.304 332.551 188.748C331.765 188.954 330.998 189.211 330.24 189.485C329.471 189.747 328.748 190.132 328.102 190.623C328.609 189.948 329.279 189.411 330.05 189.063C330.797 188.685 331.581 188.385 332.389 188.169C333.19 187.948 334.005 187.782 334.829 187.674C335.65 187.555 336.48 187.504 337.31 187.519Z" fill="black"/>
<path d="M322.006 190.677C322.649 190.612 323.298 190.702 323.9 190.939C324.217 191.067 324.503 191.261 324.738 191.509C324.973 191.757 325.152 192.053 325.262 192.376C325.416 193.025 325.427 193.699 325.294 194.352L325.002 196.217C324.748 197.416 324.67 198.646 324.77 199.867C324.795 200.154 324.884 200.432 325.03 200.68C325.176 200.929 325.377 201.141 325.616 201.301C326.167 201.575 326.786 201.679 327.396 201.601C326.771 201.8 326.097 201.787 325.48 201.563C325.178 201.4 324.917 201.172 324.716 200.894C324.514 200.617 324.378 200.298 324.317 199.962C324.108 198.687 324.139 197.384 324.407 196.121L324.731 194.268C324.868 193.692 324.898 193.095 324.819 192.508C324.569 191.355 323.222 190.794 322.006 190.677Z" fill="black"/>
<path d="M319.277 178.121L320.75 185.33C321.028 186.52 321.297 187.711 321.615 188.885C321.788 189.467 321.96 190.05 322.181 190.609C322.372 191.171 322.632 191.706 322.955 192.204L322.92 192.171C323.374 192.527 323.795 192.922 324.179 193.352C324.371 193.568 324.545 193.799 324.7 194.043C324.87 194.281 324.95 194.572 324.924 194.864C324.901 194.584 324.786 194.321 324.597 194.114C324.42 193.898 324.226 193.697 324.016 193.512C323.596 193.143 323.155 192.798 322.696 192.478C322.683 192.469 322.671 192.458 322.661 192.445C321.931 191.417 321.395 190.263 321.082 189.042C320.721 187.86 320.427 186.658 320.2 185.443C319.72 183.027 319.411 180.581 319.277 178.121Z" fill="black"/>
<path d="M330.15 197.497C330.404 197.625 330.622 197.814 330.783 198.048C330.944 198.281 331.044 198.551 331.074 198.834C331.083 199.129 330.992 199.419 330.814 199.656C330.729 199.767 330.633 199.87 330.527 199.962C330.412 200.041 330.291 200.109 330.178 200.179C330.539 199.827 330.751 199.351 330.773 198.848C330.762 198.605 330.695 198.367 330.576 198.154C330.456 197.922 330.313 197.702 330.15 197.497Z" fill="black"/>
<path d="M353.381 186.365C353.353 186.962 353.307 187.543 353.308 188.114C353.309 188.393 353.326 188.671 353.36 188.948C353.376 189.078 353.401 189.207 353.435 189.334C353.494 189.51 353.516 189.696 353.499 189.88C353.463 190.061 353.391 190.233 353.287 190.387C353.184 190.54 353.051 190.671 352.897 190.773C352.638 190.957 352.351 191.099 352.047 191.195C351.472 191.402 350.853 191.462 350.249 191.368C350.811 191.235 351.354 191.034 351.867 190.768C352.339 190.514 352.864 190.159 352.902 189.8C352.941 189.691 352.8 189.315 352.793 189.001C352.776 188.693 352.794 188.383 352.848 188.078C352.938 187.483 353.117 186.906 353.381 186.365Z" fill="black"/>
<path d="M354.779 188.058C355.392 188.725 356.009 189.372 356.649 189.99C357.282 190.608 357.95 191.187 358.652 191.725C359.342 192.264 360.088 192.726 360.878 193.104C361.683 193.47 362.548 193.692 363.43 193.76C362.518 193.922 361.579 193.844 360.706 193.534C359.833 193.224 359.016 192.775 358.287 192.203C357.559 191.646 356.896 191.01 356.312 190.304C355.718 189.616 355.203 188.862 354.779 188.058Z" fill="black"/>
<path d="M352.394 214.52C351.62 214.602 350.838 214.513 350.102 214.261C349.362 214.026 348.655 213.698 347.997 213.286C347.341 212.88 346.728 212.409 346.166 211.881L345.36 211.062C345.122 210.759 344.871 210.472 344.649 210.16L346.462 211.525C347.079 211.95 347.673 212.399 348.313 212.774C348.941 213.167 349.592 213.519 350.265 213.83C350.944 214.144 351.659 214.375 352.394 214.52Z" fill="black"/>
<path d="M332.251 192.734C332.485 192.726 332.707 192.627 332.87 192.459C333.033 192.29 333.124 192.065 333.124 191.831C333.124 191.597 333.033 191.372 332.87 191.203C332.707 191.035 332.485 190.936 332.251 190.928C332.016 190.936 331.794 191.035 331.631 191.203C331.468 191.372 331.377 191.597 331.377 191.831C331.377 192.065 331.468 192.29 331.631 192.459C331.794 192.627 332.016 192.726 332.251 192.734Z" fill="black"/>
<path d="M304.095 456.93C302.002 453.968 297.493 454.83 294.415 455.895C292.895 456.451 291.271 456.664 289.659 456.518C288.046 456.373 286.487 455.873 285.091 455.053C279.098 451.362 279.434 444.769 279.942 441.828C280.205 440.43 280.005 438.985 279.373 437.71C276.234 431.787 268.728 439.09 268.728 439.09C269.88 439.715 270.901 440.555 271.735 441.564C272.6 442.568 273.278 443.719 273.736 444.962C274.208 446.204 274.459 447.518 274.477 448.847C274.519 450.16 274.266 451.467 273.736 452.67C273.607 450.226 273.111 447.816 272.263 445.52C271.843 444.394 271.33 443.305 270.729 442.264C270.15 441.199 269.419 440.205 268.728 439.09C268.728 439.09 265.041 438.37 259.871 437.335C260.744 438.273 261.491 439.32 262.096 440.449C262.718 441.571 263.225 442.754 263.609 443.978C264.01 445.233 264.199 446.546 264.168 447.863C264.155 448.538 264.028 449.207 263.792 449.841C263.556 450.477 263.131 451.025 262.573 451.413C263.067 450.316 263.199 449.09 262.949 447.914C262.744 446.737 262.462 445.575 262.106 444.435C261.405 442.112 260.531 439.82 259.871 437.335C257.088 436.777 253.869 436.128 250.568 435.459C251.565 436.316 252.415 437.33 253.086 438.461C253.78 439.586 254.323 440.796 254.701 442.061C255.073 443.355 255.214 444.705 255.118 446.047C255.006 447.39 254.517 448.673 253.706 449.749C253.914 448.523 253.979 447.278 253.899 446.037C253.763 444.839 253.525 443.655 253.188 442.498C252.848 441.312 252.448 440.144 251.99 438.999L250.568 435.459C245.042 434.323 239.283 433.136 234.936 432.173C223.184 429.586 222.311 434.779 222.311 434.779C222.767 434.283 223.316 433.88 223.926 433.593C224.558 433.273 225.29 433.211 225.967 433.42C226.637 433.662 227.213 434.11 227.613 434.698C228.054 435.243 228.382 435.871 228.578 436.544C228.776 437.219 228.869 437.92 228.852 438.623C228.807 439.301 228.715 439.976 228.578 440.641C228.413 441.914 228.479 443.205 228.771 444.455C229.456 446.944 230.804 449.201 232.671 450.986C234.545 452.771 236.641 454.308 238.907 455.561L238.948 455.581C243.326 457.508 247.612 459.597 251.857 461.808C253.98 462.944 256.073 464.121 258.134 465.389L259.658 466.362L261.151 467.417C261.639 467.782 262.116 468.188 262.593 468.573C263.04 468.989 263.538 469.486 263.924 469.892C265.577 471.543 267.387 473.031 269.327 474.334C271.28 475.68 273.301 476.926 275.381 478.066C277.463 479.206 279.606 480.232 281.8 481.139C282.896 481.588 284.023 481.958 285.172 482.245C286.316 482.575 287.51 482.695 288.697 482.6C286.296 482.84 283.873 482.506 281.627 481.626C279.341 480.868 277.114 479.943 274.964 478.857C272.808 477.785 270.709 476.601 268.677 475.307C266.588 474.04 264.649 472.539 262.898 470.835C261.235 469.206 259.363 467.805 257.332 466.666C255.311 465.449 253.229 464.303 251.126 463.187C246.921 460.977 242.625 458.887 238.308 456.889L238.288 456.879L238.247 456.859C235.867 455.502 233.686 453.823 231.767 451.869C229.821 449.869 228.461 447.375 227.836 444.658C227.566 443.29 227.548 441.884 227.786 440.51C227.943 439.874 228.069 439.231 228.161 438.582C228.219 437.947 228.174 437.307 228.029 436.686C227.885 436.064 227.623 435.475 227.257 434.951C226.931 434.406 226.446 433.975 225.866 433.714C225.232 433.557 224.568 433.573 223.942 433.761C223.317 433.948 222.754 434.3 222.311 434.779C213.789 446.99 234.611 459.648 251.99 466.697C269.368 473.736 273.309 480.612 273.309 480.612C279.505 489.933 285.162 489.334 289.103 486.738C290.608 485.681 291.849 484.293 292.73 482.68C293.611 481.067 294.108 479.273 294.182 477.437C294.496 472.782 298.844 468.086 298.844 468.086C298.844 468.086 307.447 461.676 304.095 456.93ZM287.427 468.888C286.594 471.088 283.527 469.598 278.337 470.023C273.868 470.399 271.42 465.389 272.243 463.188C273.075 460.977 277.148 460.47 281.343 462.042C285.528 463.614 288.26 466.677 287.427 468.888V468.888Z" fill="#00A82D"/>
<path d="M279.938 441.828C280.068 441.872 280.207 441.885 280.344 441.867C280.48 441.848 280.611 441.799 280.726 441.723C280.972 441.593 281.204 441.437 281.418 441.259C281.858 440.908 282.277 440.533 282.673 440.135C283.462 439.324 284.238 438.497 284.983 437.634C286.502 435.935 287.96 434.173 289.601 432.531C288.473 434.551 287.13 436.444 285.596 438.177C284.829 439.053 283.994 439.866 283.097 440.61C282.641 440.983 282.15 441.313 281.632 441.596C281.367 441.735 281.087 441.846 280.799 441.926C280.659 441.983 280.506 442.005 280.356 441.988C280.205 441.971 280.061 441.916 279.938 441.828Z" fill="black"/>
<path d="M299.602 454.903C300.83 453.02 302.153 451.201 303.565 449.452C304.964 447.7 306.383 445.984 307.88 444.286C306.876 446.311 305.644 448.214 304.208 449.96C302.818 451.737 301.277 453.391 299.602 454.903Z" fill="black"/>
<path d="M602.77 350.051C594.431 333.276 596.036 325.517 596.036 325.517C597.58 314.442 592.948 311.146 588.276 310.486C586.448 310.28 584.597 310.497 582.867 311.122C581.137 311.746 579.575 312.761 578.302 314.087C574.981 317.363 568.602 318.012 568.602 318.012C568.602 318.012 557.907 317.109 557.267 322.89C556.871 326.501 560.812 328.823 563.828 330.071C565.336 330.66 566.694 331.574 567.805 332.749C568.917 333.924 569.754 335.33 570.258 336.866C572.299 343.601 567.668 348.317 565.342 350.183C564.214 351.052 563.404 352.267 563.036 353.641C561.452 360.163 571.913 359.645 571.913 359.645C571.472 358.417 571.265 357.116 571.304 355.812C571.328 354.486 571.586 353.174 572.066 351.937C572.532 350.694 573.216 349.544 574.087 348.54C574.927 347.526 575.986 346.714 577.185 346.167C575.652 348.079 574.419 350.213 573.528 352.495C573.104 353.617 572.768 354.77 572.523 355.944C572.248 357.14 572.137 358.357 571.913 359.645C571.913 359.645 574.199 362.627 577.388 366.816C577.354 365.539 577.491 364.264 577.794 363.023C578.062 361.765 578.467 360.541 579.003 359.372C579.534 358.168 580.262 357.061 581.156 356.096C581.613 355.596 582.152 355.177 582.751 354.859C583.351 354.54 584.036 354.412 584.711 354.493C583.613 354.987 582.702 355.819 582.111 356.867C581.479 357.883 580.915 358.94 580.425 360.031C579.409 362.232 578.546 364.524 577.388 366.816V366.826C579.104 369.088 581.075 371.694 583.106 374.372C582.935 373.076 582.973 371.761 583.218 370.477C583.44 369.173 583.836 367.904 584.396 366.705C584.977 365.49 585.764 364.386 586.722 363.439C587.702 362.509 588.923 361.873 590.247 361.603C589.271 362.38 588.395 363.272 587.636 364.26C586.939 365.246 586.33 366.291 585.818 367.384C585.27 368.469 584.853 369.625 584.396 370.792L583.106 374.372V374.382C586.499 378.885 590.023 383.591 592.643 387.182C599.723 396.908 603.826 393.581 603.826 393.581C618.31 390.082 611.109 366.826 602.77 350.051ZM585.27 339.28C583.188 340.375 579.795 338.073 577.703 334.118C575.61 330.162 575.6 326.065 577.682 324.959C579.765 323.864 581.075 327.008 585.249 330.122C588.835 332.799 587.352 338.174 585.27 339.28ZM606.244 382.536C605.538 383.74 604.619 384.805 603.532 385.681C602.985 386.046 602.463 386.446 601.968 386.877C601.504 387.313 601.114 387.82 600.81 388.378C600.501 388.937 600.304 389.55 600.231 390.184C600.114 390.807 600.192 391.452 600.454 392.03C600.813 392.557 601.306 392.979 601.883 393.252C602.46 393.525 603.099 393.639 603.735 393.581C603.093 393.656 602.443 393.597 601.825 393.409C601.138 393.229 600.548 392.789 600.18 392.182C599.848 391.557 599.713 390.846 599.794 390.143C599.835 389.444 600.008 388.76 600.302 388.125C600.599 387.487 600.997 386.902 601.48 386.39C601.958 385.907 602.471 385.46 603.014 385.052C603.987 384.213 604.796 383.202 605.401 382.07C606.551 379.756 607.04 377.169 606.813 374.595C606.6 371.994 606.043 369.433 605.157 366.978C603.166 362.648 601.324 358.253 599.632 353.793C598.799 351.542 598.006 349.27 597.306 346.968L596.808 345.223L596.392 343.448C596.259 342.85 596.178 342.231 596.077 341.623C596.016 341.014 595.975 340.314 595.955 339.757C595.812 337.427 595.441 335.117 594.848 332.86C594.291 330.559 593.606 328.29 592.796 326.065C591.995 323.832 591.073 321.645 590.033 319.513C589.508 318.447 588.907 317.42 588.236 316.44C587.592 315.439 586.778 314.56 585.828 313.843C587.785 315.257 589.38 317.112 590.48 319.259C591.689 321.34 592.745 323.506 593.639 325.74C594.544 327.968 595.327 330.243 595.985 332.556C596.714 334.889 597.171 337.298 597.346 339.736C597.514 342.053 597.986 344.337 598.748 346.532C599.459 348.783 600.251 351.024 601.094 353.246C602.78 357.688 604.609 362.09 606.518 366.441V366.461L606.538 366.512C607.418 369.103 607.938 371.802 608.082 374.534C608.212 377.319 607.576 380.087 606.244 382.536Z" fill="#00A82D"/>
<path d="M566.53 351.641C564.791 351.481 563.046 351.409 561.3 351.425C559.562 351.435 557.826 351.495 556.093 351.605C554.358 351.695 552.627 351.867 550.89 352.023C549.155 352.198 547.416 352.384 545.658 352.54C546.495 352.261 547.346 352.039 548.195 351.796C549.053 351.602 549.911 351.39 550.779 351.239C552.516 350.919 554.27 350.704 556.032 350.593C557.798 350.486 559.569 350.501 561.332 350.638C563.1 350.756 564.846 351.093 566.53 351.641Z" fill="black"/>
<path d="M559.285 327.382C557.133 328.046 554.939 328.566 552.717 328.938C550.507 329.321 548.308 329.651 546.04 329.857C547.067 329.369 548.137 328.977 549.237 328.687C550.325 328.375 551.431 328.147 552.539 327.94C554.762 327.524 557.023 327.337 559.285 327.382Z" fill="black"/>
<path d="M433.199 206.042C433.698 205.997 434.201 206.061 434.673 206.228C435.145 206.395 435.576 206.663 435.935 207.011C436.294 207.39 436.539 207.863 436.64 208.375C436.744 208.876 436.772 209.39 436.724 209.899L436.71 209.772C436.903 209.977 437.153 210.119 437.428 210.181C437.757 210.269 438.095 210.317 438.436 210.323C439.128 210.364 439.852 210.265 440.597 210.247C441.34 210.222 442.066 210.142 442.823 210.164C443.213 210.16 443.602 210.195 443.985 210.268C444.42 210.331 444.83 210.512 445.171 210.79C445.357 210.959 445.497 211.172 445.577 211.41C445.658 211.648 445.676 211.903 445.63 212.15C445.526 212.598 445.267 212.996 444.899 213.272C444.283 213.745 443.594 214.115 442.859 214.366C442.16 214.635 441.44 214.845 440.706 214.994C440.342 215.072 439.973 215.142 439.607 215.196C439.423 215.222 439.243 215.255 439.041 215.275L438.755 215.291L438.6 215.291L438.507 215.284L438.439 215.271C438.407 215.247 438.368 215.285 438.262 215.133L438.278 215.16C438.293 215.231 438.456 215.257 438.432 215.249C438.443 215.251 438.455 215.249 438.465 215.245L438.433 215.255C438.397 215.27 438.362 215.287 438.329 215.306L438.102 215.439L437.643 215.74L436.731 216.373L434.926 217.685C435.456 217.161 436.005 216.658 436.563 216.163L437.412 215.43C437.556 215.309 437.704 215.194 437.86 215.082L438.103 214.917C438.149 214.888 438.197 214.861 438.245 214.837L438.344 214.798C438.377 214.79 438.411 214.785 438.445 214.784C438.487 214.786 438.529 214.797 438.566 214.816C438.604 214.835 438.637 214.862 438.664 214.895L438.68 214.922C438.586 214.791 438.572 214.834 438.561 214.817C438.554 214.815 438.555 214.816 438.56 214.815L438.605 214.815L438.725 214.807L438.987 214.775L439.506 214.667C439.862 214.591 440.209 214.501 440.557 214.402C441.249 214.204 441.93 213.972 442.598 213.704C443.25 213.467 443.859 213.128 444.403 212.698C444.627 212.531 444.787 212.293 444.858 212.023C444.879 211.908 444.87 211.789 444.832 211.679C444.793 211.569 444.726 211.471 444.637 211.394C444.079 211.074 443.441 210.919 442.798 210.948C442.088 210.912 441.349 210.976 440.625 210.985C439.904 210.986 439.162 211.074 438.388 211.013C437.994 210.982 437.607 210.902 437.234 210.774C437.014 210.713 436.809 210.61 436.63 210.47C436.45 210.33 436.301 210.156 436.189 209.959C436.173 209.929 436.167 209.894 436.171 209.861L436.175 209.831C436.247 209.379 436.252 208.918 436.189 208.464C436.125 208.017 435.949 207.593 435.678 207.232C435.367 206.876 434.987 206.587 434.561 206.383C434.135 206.178 433.672 206.062 433.199 206.042Z" fill="black"/>
<path d="M498.638 167.975C505.604 165.783 512.602 163.717 519.633 161.775C526.657 159.806 533.71 157.952 540.769 156.12C547.837 154.324 554.912 152.554 562.016 150.898C569.113 149.214 576.243 147.657 583.405 146.228C576.439 148.422 569.441 150.489 562.41 152.431C555.387 154.4 548.333 156.254 541.274 158.083C534.205 159.876 527.13 161.646 520.026 163.302C512.929 164.985 505.799 166.543 498.638 167.975Z" fill="#FFBD24"/>
<path d="M469.457 195.856C476.423 193.664 483.422 191.597 490.452 189.656C497.476 187.687 504.529 185.832 511.588 184.001C518.656 182.205 525.731 180.435 532.835 178.779C539.932 177.095 547.062 175.538 554.224 174.108C547.259 176.303 540.26 178.37 533.23 180.312C526.206 182.28 519.153 184.135 512.093 185.964C505.024 187.757 497.95 189.527 490.845 191.183C483.748 192.866 476.619 194.424 469.457 195.856Z" fill="#FFBD24"/>
<path d="M522.832 198.238C526.658 196.692 530.54 195.339 534.441 194.053C538.339 192.754 542.27 191.57 546.208 190.408C550.156 189.282 554.111 188.181 558.099 187.193C562.084 186.193 566.089 185.262 570.15 184.525C566.324 186.073 562.443 187.428 558.541 188.713C554.643 190.011 550.712 191.195 546.774 192.355C542.825 193.478 538.87 194.58 534.881 195.567C530.897 196.566 526.892 197.498 522.832 198.238Z" fill="#FFBD24"/>
<path d="M160.04 166.491C160.04 166.491 155.886 137.025 141.321 117.234C126.756 97.4427 227.162 102.072 227.162 102.072L242.585 136.624C242.585 136.624 169.324 139.452 160.04 166.491Z" fill="#FFBD24"/>
<path d="M342.987 262.291C343.277 261.058 343.584 259.831 343.895 258.604C344.21 257.379 344.501 256.147 344.835 254.927L346.791 247.595L346.793 247.589C346.823 247.476 346.891 247.376 346.985 247.306C347.08 247.237 347.195 247.201 347.312 247.205C349.23 247.273 351.009 247.486 352.844 247.7C354.664 247.929 356.477 248.185 358.289 248.451C360.097 248.737 361.904 249.024 363.703 249.357C365.506 249.671 367.297 250.049 369.092 250.399L369.115 250.404C369.234 250.427 369.339 250.495 369.409 250.593C369.479 250.69 369.51 250.811 369.494 250.931C369 254.64 368.335 258.304 367.657 261.969C366.969 265.631 366.263 269.292 365.322 272.905C364.867 274.716 364.358 276.516 363.744 278.29C363.155 280.092 362.385 281.829 361.445 283.475C360.951 284.322 360.35 285.103 359.655 285.796C358.894 286.535 357.923 287.022 356.875 287.191C354.939 287.298 352.999 287.11 351.12 286.633C343.844 284.846 336.72 282.49 329.814 279.587C326.36 278.17 322.926 276.713 319.511 275.214C316.113 273.675 312.714 272.143 309.37 270.487L309.436 270.505L305.934 269.958C305.925 269.957 305.916 269.954 305.908 269.949C305.899 269.944 305.892 269.937 305.887 269.93C305.881 269.922 305.877 269.914 305.875 269.904C305.873 269.895 305.872 269.886 305.874 269.876C305.877 269.859 305.887 269.842 305.901 269.831C305.916 269.82 305.934 269.815 305.952 269.816L309.478 270.081C309.496 270.083 309.513 270.086 309.53 270.093L309.545 270.099C313.005 271.476 316.452 272.887 319.926 274.227C323.381 275.609 326.851 276.951 330.336 278.253C333.811 279.575 337.302 280.848 340.807 282.072C344.314 283.273 347.835 284.464 351.416 285.306C353.147 285.77 354.934 285.992 356.727 285.964C357.531 285.854 358.282 285.5 358.878 284.95C359.517 284.342 360.08 283.658 360.552 282.913C362.427 279.74 363.851 276.323 364.785 272.76C365.784 269.182 366.588 265.553 367.192 261.888C367.789 258.222 368.198 254.518 368.52 250.831L368.923 251.362L363.503 250.56L358.092 249.727C356.29 249.444 354.488 249.163 352.684 248.914C350.894 248.671 349.047 248.395 347.312 248.289L347.833 247.899L345.534 255.131C345.158 256.338 344.74 257.534 344.345 258.736C343.948 259.937 343.545 261.137 343.125 262.331C343.119 262.349 343.107 262.363 343.09 262.371C343.074 262.38 343.055 262.382 343.037 262.377C343.019 262.371 343.004 262.36 342.995 262.344C342.986 262.328 342.983 262.309 342.987 262.291Z" fill="#020202"/>
<path d="M306.015 269.877L306.015 269.887L305.87 269.889C305.871 269.903 305.875 269.917 305.884 269.928C305.893 269.939 305.906 269.947 305.919 269.951C305.933 269.956 305.948 269.956 305.961 269.952C305.983 269.943 305.984 269.939 305.984 269.939L305.923 269.959C303.731 269.761 301.544 269.522 299.361 269.199C297.165 268.872 294.995 268.393 292.866 267.764C291.702 267.466 290.647 266.842 289.824 265.967C289.04 265.017 288.59 263.836 288.544 262.605C288.499 261.445 288.626 260.284 288.92 259.161C289.192 258.049 289.578 256.969 290.07 255.936L290.207 256.697C288.089 254.724 285.989 252.732 283.928 250.699L283.988 250.747C283.138 250.151 282.457 249.346 282.012 248.41C281.889 248.132 281.836 247.827 281.857 247.523C281.879 247.22 281.974 246.926 282.135 246.667C282.297 246.425 282.506 246.219 282.75 246.061C282.995 245.904 283.269 245.798 283.556 245.751C284.109 245.659 284.676 245.765 285.159 246.051L286.358 246.806C287.149 247.309 287.953 247.791 288.756 248.272C290.363 249.236 291.997 250.157 293.662 251.005C294.484 251.431 295.335 251.798 296.209 252.102C296.405 252.174 296.612 252.208 296.82 252.203C297.041 252.199 297.261 252.178 297.479 252.141C297.568 252.127 297.653 252.098 297.733 252.057C297.798 252.009 297.771 252.029 297.779 252.005C297.727 251.831 297.637 251.67 297.518 251.533C296.936 250.816 296.307 250.138 295.634 249.505C295.299 249.187 294.953 248.885 294.595 248.589C294.415 248.437 294.235 248.299 294.039 248.111C293.954 248.042 293.885 247.956 293.836 247.858C293.788 247.76 293.762 247.653 293.76 247.544C293.773 247.421 293.819 247.304 293.894 247.205C293.968 247.106 294.068 247.029 294.182 246.982C294.675 246.788 295.203 246.695 295.733 246.71C296.221 246.705 296.709 246.731 297.194 246.789C300.12 247.12 302.865 248.371 305.034 250.36C306.513 251.624 307.783 253.113 308.797 254.773L308.436 254.482C312.244 255.741 316.08 256.934 319.904 258.142C323.731 259.313 327.566 260.579 331.404 261.497C331.861 261.608 332.323 261.692 332.79 261.746C333.237 261.742 333.683 261.686 334.117 261.579C335.135 261.393 336.166 261.286 337.201 261.258C339.285 261.174 341.364 261.523 343.307 262.282C345.206 263.063 346.976 264.124 348.558 265.431C350.129 266.709 351.598 268.07 353.173 269.311C353.181 269.317 353.187 269.324 353.192 269.332C353.197 269.34 353.2 269.349 353.201 269.359C353.202 269.368 353.201 269.378 353.199 269.387C353.196 269.396 353.192 269.404 353.186 269.412C353.175 269.426 353.159 269.435 353.142 269.438C353.124 269.441 353.106 269.438 353.091 269.428C351.391 268.341 349.831 267.053 348.191 265.919C346.6 264.753 344.847 263.826 342.988 263.167C341.138 262.562 339.19 262.317 337.248 262.446C336.275 262.504 335.308 262.637 334.356 262.844L333.639 262.992C333.498 263.025 333.356 263.05 333.213 263.068C333.046 263.09 332.876 263.094 332.708 263.079C332.175 263.038 331.644 262.963 331.12 262.853C329.102 262.459 327.17 261.897 325.225 261.355C323.284 260.807 321.36 260.211 319.442 259.602C315.603 258.39 311.804 257.075 308 255.758L307.992 255.756C307.844 255.704 307.719 255.602 307.639 255.467C306.715 253.908 305.566 252.493 304.23 251.268C302.92 250.017 301.379 249.033 299.694 248.37C298.846 248.045 297.968 247.806 297.073 247.657C296.629 247.582 296.18 247.536 295.73 247.519C295.32 247.488 294.909 247.532 294.515 247.65C294.442 247.67 294.455 247.729 294.491 247.587C294.46 247.44 294.481 247.555 294.553 247.611C294.689 247.753 294.874 247.912 295.046 248.069C295.398 248.386 295.745 248.716 296.077 249.058C296.737 249.744 297.36 250.466 297.942 251.219C298.13 251.439 298.252 251.706 298.296 251.992C298.296 252.097 298.267 252.2 298.213 252.29C298.158 252.379 298.08 252.453 297.986 252.501C297.857 252.569 297.718 252.615 297.575 252.638C297.329 252.677 297.082 252.697 296.833 252.698C296.571 252.7 296.311 252.655 296.065 252.564C295.17 252.239 294.301 251.849 293.463 251.398C291.784 250.543 290.146 249.623 288.499 248.717L286.04 247.34L284.82 246.658C284.477 246.477 284.081 246.423 283.702 246.505C283.526 246.543 283.36 246.616 283.213 246.721C283.066 246.825 282.943 246.959 282.85 247.113C282.772 247.26 282.731 247.424 282.733 247.591C282.735 247.757 282.778 247.921 282.86 248.066C283.278 248.803 283.872 249.425 284.589 249.878L284.635 249.915L284.649 249.926C286.826 251.835 288.965 253.785 291.086 255.754C291.185 255.846 291.253 255.968 291.279 256.1C291.306 256.233 291.289 256.371 291.233 256.494L291.223 256.515C290.283 258.385 289.783 260.444 289.76 262.536C289.762 263.517 290.089 264.47 290.69 265.246C291.369 265.984 292.234 266.526 293.195 266.815C295.25 267.53 297.352 268.102 299.487 268.526C301.62 269.025 303.788 269.374 305.942 269.815L305.881 269.835C305.891 269.825 305.903 269.818 305.916 269.814C305.931 269.809 305.946 269.809 305.961 269.814C305.976 269.818 305.989 269.827 305.999 269.839C306.01 269.852 306.015 269.868 306.015 269.885C306.017 269.894 306.016 269.904 306.013 269.913C306.011 269.922 306.007 269.931 306.001 269.938C305.995 269.946 305.988 269.952 305.979 269.957C305.971 269.962 305.962 269.965 305.952 269.966C305.943 269.967 305.933 269.967 305.924 269.964C305.915 269.962 305.906 269.957 305.899 269.952C305.891 269.946 305.885 269.939 305.88 269.93C305.875 269.922 305.872 269.913 305.871 269.903L305.871 269.887L305.871 269.877C305.872 269.858 305.88 269.841 305.893 269.828C305.907 269.816 305.924 269.808 305.943 269.808C305.961 269.808 305.979 269.816 305.993 269.828C306.006 269.841 306.014 269.858 306.015 269.877L306.015 269.877Z" fill="#020202"/>
</svg>
