<svg width="244" height="230" viewBox="0 0 244 230" fill="none" xmlns="http://www.w3.org/2000/svg">
<g filter="url(#filter0_f_74_8906)">
<ellipse cx="118.126" cy="189.268" rx="96.3218" ry="18.5818" fill="#1F88F8" fill-opacity="0.35"/>
</g>
<path d="M121.692 211.966C176.858 211.966 221.579 167.245 221.579 112.079C221.579 56.9129 176.858 12.1919 121.692 12.1919C66.5257 12.1919 21.8047 56.9129 21.8047 112.079C21.8047 167.245 66.5257 211.966 121.692 211.966Z" fill="url(#paint0_linear_74_8906)"/>
<path d="M198.964 52.5695H72.0898V115.18H198.964V52.5695Z" fill="url(#paint1_linear_74_8906)"/>
<path d="M198.965 52.5695H211.699C220.001 52.5695 227.963 55.8673 233.833 61.7375C239.703 67.6078 243.001 75.5695 243.001 83.8713C243.001 92.173 239.703 100.135 233.833 106.005C227.963 111.875 220.001 115.173 211.699 115.173H198.965V52.5695Z" fill="url(#paint2_linear_74_8906)"/>
<path d="M207.199 61.7794H214.485C220.087 61.7794 225.461 64.0052 229.423 67.9671C233.385 71.929 235.611 77.3024 235.611 82.9054V84.8447C235.611 90.4476 233.385 95.8211 229.423 99.783C225.461 103.745 220.087 105.971 214.485 105.971H207.199V61.7794Z" fill="url(#paint3_linear_74_8906)"/>
<path d="M198.963 63.0771H82.7441V115.18H198.963V63.0771Z" fill="url(#paint4_linear_74_8906)"/>
<rect x="41.7754" y="125.604" width="47.1193" height="60.3457" fill="url(#paint5_linear_74_8906)"/>
<rect x="99.6426" y="125.604" width="47.1193" height="60.3457" fill="url(#paint6_linear_74_8906)"/>
<rect x="157.51" y="125.604" width="30.5862" height="60.3457" fill="url(#paint7_linear_74_8906)"/>
<path d="M198.963 52.5695H188.131V115.18H198.963V52.5695Z" fill="url(#paint8_linear_74_8906)"/>
<path d="M99.641 114.857L88.8945 114.857L88.8945 196.696L99.641 196.696L99.641 114.857Z" fill="url(#paint9_linear_74_8906)"/>
<path fill-rule="evenodd" clip-rule="evenodd" d="M151.722 125.604V114.857H42.2376L35.7775 114.857C33.1562 114.857 31.0313 116.982 31.0313 119.603L31.0313 191.95C31.0312 194.571 33.1562 196.696 35.7775 196.696L42.2376 196.696V196.696H151.722V185.95H42.2383L42.2383 125.604H151.722Z" fill="url(#paint10_linear_74_8906)"/>
<path fill-rule="evenodd" clip-rule="evenodd" d="M157.51 114.857H188.097L198.843 114.857L198.843 191.95C198.843 194.571 196.718 196.696 194.097 196.696H188.097L188.097 196.696H157.51V185.95H188.097V125.604H157.51V114.857ZM157.51 114.857L151.51 114.857C148.889 114.857 146.764 116.982 146.764 119.603L146.764 196.696L157.51 196.696L157.51 114.857Z" fill="url(#paint11_linear_74_8906)"/>
<path d="M80.5918 115.313V115.431V119.155V146.283H110.074C110.599 146.283 111.024 145.858 111.024 145.334V119.155V116.262C111.024 115.738 110.599 115.313 110.074 115.313H80.5918Z" fill="url(#paint12_linear_74_8906)"/>
<path d="M78.9239 115.313C78.3996 115.313 77.9746 115.738 77.9746 116.262V145.334C77.9746 145.858 78.3996 146.283 78.9239 146.283H108.406V115.313H78.9239Z" fill="url(#paint13_linear_74_8906)"/>
<path d="M103.085 118.277H83.3008C82.2523 118.277 81.4023 119.127 81.4023 120.176V141.17C81.4023 142.218 82.2523 143.068 83.3008 143.068H103.085C104.134 143.068 104.984 142.218 104.984 141.17V120.176C104.984 119.127 104.134 118.277 103.085 118.277Z" fill="url(#paint14_linear_74_8906)"/>
<g filter="url(#filter1_d_74_8906)">
<path d="M24.416 94.3541L35.8602 122.5C36.0165 122.886 36.2474 123.237 36.5397 123.533C36.832 123.83 37.18 124.066 37.5636 124.227C37.9472 124.389 38.359 124.473 38.7753 124.475C39.1915 124.478 39.6042 124.398 39.9895 124.24L65.6356 113.821C66.4154 113.504 67.0375 112.89 67.3651 112.114C67.6928 111.338 67.6993 110.465 67.3832 109.684L54.1546 77.151C53.8373 76.373 53.2242 75.7528 52.45 75.4265C51.6757 75.1002 50.8037 75.0945 50.0253 75.4108L28.7149 84.075L24.416 94.3541Z" fill="url(#paint15_linear_74_8906)"/>
</g>
<g filter="url(#filter2_d_74_8906)">
<path d="M205.67 77.821L194.226 105.967C194.069 106.353 193.839 106.704 193.546 107C193.254 107.297 192.906 107.532 192.522 107.694C192.139 107.856 191.727 107.94 191.311 107.942C190.894 107.945 190.482 107.865 190.096 107.707L164.45 97.2878C163.671 96.9704 163.048 96.3566 162.721 95.581C162.393 94.8054 162.387 93.9315 162.703 93.1511L175.931 60.6179C176.249 59.8399 176.862 59.2197 177.636 58.8934C178.41 58.5671 179.282 58.5615 180.061 58.8777L201.371 67.5419L205.67 77.821Z" fill="url(#paint16_linear_74_8906)"/>
</g>
<path d="M24.416 94.354L31.694 91.3971L28.7223 84.075L24.416 94.354Z" fill="url(#paint17_linear_74_8906)"/>
<path d="M205.67 77.8208L198.392 74.8639L201.364 67.5417L205.67 77.8208Z" fill="url(#paint18_linear_74_8906)"/>
<path d="M96.2995 131.712C97.2379 131.053 97.9416 130.111 98.3088 129.024C98.6759 127.938 98.6874 126.762 98.3414 125.669C97.9954 124.575 97.3101 123.62 96.3847 122.942C95.4594 122.265 94.3422 121.899 93.1951 121.899C92.0481 121.899 90.9309 122.265 90.0055 122.942C89.0802 123.62 88.3948 124.575 88.0489 125.669C87.7029 126.762 87.7143 127.938 88.0815 129.024C88.4486 130.111 89.1524 131.053 90.0908 131.712L87.7754 139.683H98.6075L96.2995 131.712Z" fill="url(#paint19_linear_74_8906)"/>
<path d="M163.017 48.0642C163.017 49.224 162.843 50.3773 162.501 51.4856C161.946 53.2626 160.967 54.8775 159.647 56.1901C159.259 56.5823 158.843 56.9446 158.401 57.274C158.11 57.5006 157.805 57.7075 157.486 57.8934C157.169 58.0879 156.842 58.2651 156.506 58.4244C156.004 58.6718 155.484 58.879 154.95 59.0438C153.842 59.3858 152.688 59.5598 151.528 59.5599H149.39V114.974H89.6621V46.8622C89.6718 44.1371 90.7587 41.5263 92.6857 39.5993C94.6127 37.6724 97.2234 36.5855 99.9486 36.5758H151.499C152.935 36.5702 154.359 36.838 155.695 37.3648C156.065 37.5084 156.427 37.6734 156.779 37.8588C156.955 37.9473 157.125 38.0432 157.295 38.1464C157.434 38.2229 157.569 38.3066 157.7 38.3971C158.397 38.8377 159.043 39.3546 159.625 39.9382C160.407 40.7217 161.072 41.6131 161.601 42.5854C161.958 43.2407 162.25 43.9298 162.471 44.6427L162.626 45.1957C162.721 45.5652 162.798 45.9393 162.855 46.3166C162.954 46.894 163.008 47.4783 163.017 48.0642Z" fill="url(#paint20_linear_74_8906)"/>
<path d="M163.017 48.064C163.017 49.2239 162.843 50.3772 162.501 51.4855C162.275 52.1965 161.984 52.8852 161.631 53.5428C161.097 54.5137 160.429 55.4048 159.648 56.19C159.26 56.5822 158.844 56.9445 158.401 57.2739C158.106 57.4951 157.804 57.6942 157.487 57.8933C157.17 58.0877 156.843 58.265 156.506 58.4242C156.004 58.6686 155.484 58.8756 154.95 59.0436C153.842 59.3857 152.689 59.5597 151.529 59.5598H149.391V46.8621C149.395 44.8315 149.999 42.8475 151.125 41.1582C152.252 39.4688 153.852 38.1493 155.725 37.3646C156.093 37.5121 156.462 37.6743 156.809 37.8587C156.986 37.9472 157.155 38.043 157.325 38.1462C157.464 38.2228 157.6 38.3065 157.73 38.397C158.427 38.8376 159.073 39.3545 159.655 39.9381C160.437 40.7215 161.102 41.613 161.631 42.5853C161.986 43.242 162.277 43.9308 162.501 44.6426L162.656 45.1956C162.752 45.5649 162.828 45.939 162.885 46.3164C162.974 46.8947 163.018 47.4789 163.017 48.064Z" fill="url(#paint21_linear_74_8906)"/>
<path d="M137.465 94.7992H99.7484C99.1172 94.7992 98.6055 95.3093 98.6055 95.9384C98.6055 96.5676 99.1172 97.0777 99.7484 97.0777H137.465C138.097 97.0777 138.608 96.5676 138.608 95.9384C138.608 95.3093 138.097 94.7992 137.465 94.7992Z" fill="#A5C4F1"/>
<path d="M137.465 83.1118H99.7484C99.1172 83.1118 98.6055 83.6219 98.6055 84.2511C98.6055 84.8803 99.1172 85.3903 99.7484 85.3903H137.465C138.097 85.3903 138.608 84.8803 138.608 84.2511C138.608 83.6219 138.097 83.1118 137.465 83.1118Z" fill="#A5C4F1"/>
<path d="M137.467 71.4167H113.178C112.547 71.4167 112.035 71.9268 112.035 72.556C112.035 73.1852 112.547 73.6953 113.178 73.6953H137.467C138.099 73.6953 138.61 73.1852 138.61 72.556C138.61 71.9268 138.099 71.4167 137.467 71.4167Z" fill="#A5C4F1"/>
<path d="M121.531 59.722H99.483C98.9983 59.722 98.6055 60.1149 98.6055 60.5995V61.1231C98.6055 61.6077 98.9983 62.0006 99.483 62.0006H121.531C122.015 62.0006 122.408 61.6077 122.408 61.1231V60.5995C122.408 60.1149 122.015 59.722 121.531 59.722Z" fill="#A5C4F1"/>
<path d="M107.86 71.4167H99.7484C99.1172 71.4167 98.6055 71.9268 98.6055 72.556C98.6055 73.1852 99.1172 73.6953 99.7484 73.6953H107.86C108.491 73.6953 109.003 73.1852 109.003 72.556C109.003 71.9268 108.491 71.4167 107.86 71.4167Z" fill="#A5C4F1"/>
<path d="M42.1895 125.604H45.9094V185.949H42.1895V125.604Z" fill="url(#paint22_linear_74_8906)"/>
<path d="M99.6426 146.27H102.949V185.949H99.6426V146.27Z" fill="url(#paint23_linear_74_8906)"/>
<path d="M157.51 125.604H161.23V185.949H157.51V125.604Z" fill="url(#paint24_linear_74_8906)"/>
<g filter="url(#filter3_f_74_8906)">
<ellipse cx="56.2705" cy="74.6817" rx="31.8544" ry="10.2389" fill="#FE5E0A"/>
</g>
<path d="M26.4002 59.7613C27.0146 64.3478 28.7807 68.704 31.5337 72.4235C34.2867 76.143 37.9369 79.1046 42.1439 81.0321C46.3509 82.9595 50.9775 83.7899 55.5922 83.446C60.2069 83.102 64.6593 81.5947 68.534 79.0649L79.0908 82.6537C79.4092 82.7586 79.7511 82.7702 80.0759 82.687C80.4007 82.6038 80.6949 82.4293 80.9237 82.1842C81.1525 81.9391 81.3063 81.6335 81.3669 81.3038C81.4275 80.974 81.3925 80.6338 81.2658 80.3233L77.0322 70.2248C79.2839 66.4738 80.6042 62.238 80.8828 57.872C81.1613 53.506 80.39 49.1367 78.6333 45.13C76.8766 41.1233 74.1857 37.5956 70.7858 34.8423C67.3859 32.089 63.3759 30.1902 59.0915 29.3048C54.8071 28.4194 50.373 28.5732 46.1602 29.7533C41.9475 30.9333 38.0787 33.1053 34.8777 36.0875C31.6767 39.0697 29.2366 42.7753 27.7617 46.8941C26.2868 51.0129 25.8199 55.4251 26.4002 59.7613Z" fill="#FE5E0A"/>
<path d="M52.8324 70.1425C55.8066 70.1425 57.9253 68.1053 57.9253 65.2533C57.9253 62.4013 55.8066 60.3641 52.8324 60.3641C49.8988 60.3641 47.7395 62.4013 47.7395 65.2533C47.7395 68.1053 49.8988 70.1425 52.8324 70.1425ZM56.9067 59.5492C56.9067 56.8602 58.4549 55.8823 60.5736 54.9045C63.3849 53.6007 65.4628 50.9524 65.4628 47.6929C65.4628 42.5593 60.4106 38.9739 53.5657 38.9739C46.2319 38.9739 41.0576 43.089 40.6094 48.8338L49.9803 50.545C50.2248 48.3041 51.4063 46.7151 53.0768 46.7151C54.3399 46.7151 55.277 47.5707 55.277 48.7523C55.277 50.1375 53.8917 50.9932 52.7916 51.645C49.8581 53.56 48.758 55.6786 48.758 59.5492H56.9067Z" fill="white"/>
<path d="M189.611 40.1431C189.611 42.3537 187.819 44.1458 185.608 44.1458C183.397 44.1458 181.605 42.3537 181.605 40.1431C181.605 37.9324 183.397 36.1404 185.608 36.1404C187.819 36.1404 189.611 37.9324 189.611 40.1431Z" stroke="url(#paint25_linear_74_8906)" stroke-width="2.61276"/>
<circle cx="161.225" cy="206.475" r="4.00269" stroke="url(#paint26_linear_74_8906)" stroke-width="2.61276"/>
<path d="M20.5756 152.666C21.8996 152.454 22.9566 153.754 22.4782 155.007L19.9443 161.642C19.4659 162.895 17.8109 163.16 16.9653 162.119L12.486 156.607C11.6403 155.566 12.2383 154.001 13.5623 153.789L20.5756 152.666Z" fill="url(#paint27_linear_74_8906)"/>
<path d="M213.468 146.686C213.137 145.386 214.336 144.216 215.627 144.578L222.465 146.5C223.756 146.863 224.17 148.487 223.21 149.423L218.127 154.384C217.168 155.321 215.554 154.867 215.223 153.568L213.468 146.686Z" fill="url(#paint28_linear_74_8906)"/>
<path d="M111.997 8.41712C112.512 6.28414 115.546 6.28414 116.061 8.41712L117.269 13.4213C117.453 14.1836 118.048 14.7787 118.81 14.9627L123.814 16.1707C125.947 16.6856 125.947 19.7195 123.814 20.2344L118.81 21.4424C118.048 21.6264 117.453 22.2215 117.269 22.9837L116.061 27.988C115.546 30.1209 112.512 30.1209 111.997 27.988L110.789 22.9837C110.605 22.2215 110.01 21.6264 109.248 21.4424L104.243 20.2344C102.11 19.7195 102.11 16.6856 104.243 16.1707L109.248 14.9627C110.01 14.7787 110.605 14.1836 110.789 13.4213L111.997 8.41712Z" fill="url(#paint29_linear_74_8906)"/>
<path d="M65.8426 201.745C66.3575 199.613 69.3914 199.613 69.9063 201.745L71.1143 206.75C71.2983 207.512 71.8934 208.107 72.6556 208.291L77.6598 209.499C79.7928 210.014 79.7928 213.048 77.6598 213.563L72.6556 214.771C71.8934 214.955 71.2983 215.55 71.1143 216.312L69.9063 221.316C69.3914 223.449 66.3575 223.449 65.8426 221.316L64.6346 216.312C64.4506 215.55 63.8554 214.955 63.0932 214.771L58.089 213.563C55.956 213.048 55.956 210.014 58.089 209.499L63.0932 208.291C63.8554 208.107 64.4506 207.512 64.6346 206.75L65.8426 201.745Z" fill="url(#paint30_linear_74_8906)"/>
<defs>
<filter id="filter0_f_74_8906" x="0.0316925" y="148.913" width="236.191" height="80.7096" filterUnits="userSpaceOnUse" color-interpolation-filters="sRGB">
<feFlood flood-opacity="0" result="BackgroundImageFix"/>
<feBlend mode="normal" in="SourceGraphic" in2="BackgroundImageFix" result="shape"/>
<feGaussianBlur stdDeviation="10.8865" result="effect1_foregroundBlur_74_8906"/>
</filter>
<filter id="filter1_d_74_8906" x="21.5683" y="75.1776" width="62.1842" height="69.2321" filterUnits="userSpaceOnUse" color-interpolation-filters="sRGB">
<feFlood flood-opacity="0" result="BackgroundImageFix"/>
<feColorMatrix in="SourceAlpha" type="matrix" values="0 0 0 0 0 0 0 0 0 0 0 0 0 0 0 0 0 0 127 0" result="hardAlpha"/>
<feOffset dx="6.64476" dy="10.4418"/>
<feGaussianBlur stdDeviation="4.74626"/>
<feComposite in2="hardAlpha" operator="out"/>
<feColorMatrix type="matrix" values="0 0 0 0 0.184314 0 0 0 0 0.254902 0 0 0 0 0.443137 0 0 0 0.15 0"/>
<feBlend mode="normal" in2="BackgroundImageFix" result="effect1_dropShadow_74_8906"/>
<feBlend mode="normal" in="SourceGraphic" in2="effect1_dropShadow_74_8906" result="shape"/>
</filter>
<filter id="filter2_d_74_8906" x="159.623" y="58.6445" width="62.1842" height="69.2321" filterUnits="userSpaceOnUse" color-interpolation-filters="sRGB">
<feFlood flood-opacity="0" result="BackgroundImageFix"/>
<feColorMatrix in="SourceAlpha" type="matrix" values="0 0 0 0 0 0 0 0 0 0 0 0 0 0 0 0 0 0 127 0" result="hardAlpha"/>
<feOffset dx="6.64476" dy="10.4418"/>
<feGaussianBlur stdDeviation="4.74626"/>
<feComposite in2="hardAlpha" operator="out"/>
<feColorMatrix type="matrix" values="0 0 0 0 0.184314 0 0 0 0 0.254902 0 0 0 0 0.443137 0 0 0 0.15 0"/>
<feBlend mode="normal" in2="BackgroundImageFix" result="effect1_dropShadow_74_8906"/>
<feBlend mode="normal" in="SourceGraphic" in2="effect1_dropShadow_74_8906" result="shape"/>
</filter>
<filter id="filter3_f_74_8906" x="2.64302" y="42.6698" width="107.255" height="64.0239" filterUnits="userSpaceOnUse" color-interpolation-filters="sRGB">
<feFlood flood-opacity="0" result="BackgroundImageFix"/>
<feBlend mode="normal" in="SourceGraphic" in2="BackgroundImageFix" result="shape"/>
<feGaussianBlur stdDeviation="10.8865" result="effect1_foregroundBlur_74_8906"/>
</filter>
<linearGradient id="paint0_linear_74_8906" x1="120.922" y1="-20.3338" x2="122.968" y2="330.455" gradientUnits="userSpaceOnUse">
<stop stop-color="#CAE0FF" stop-opacity="0"/>
<stop offset="1" stop-color="#BCD8FF"/>
</linearGradient>
<linearGradient id="paint1_linear_74_8906" x1="135.527" y1="52.5695" x2="135.527" y2="115.18" gradientUnits="userSpaceOnUse">
<stop stop-color="#ABCCFF"/>
<stop offset="1" stop-color="#70A8FF"/>
</linearGradient>
<linearGradient id="paint2_linear_74_8906" x1="220.983" y1="52.5695" x2="220.983" y2="115.173" gradientUnits="userSpaceOnUse">
<stop stop-color="#70A8FF"/>
<stop offset="1" stop-color="#5597FD"/>
</linearGradient>
<linearGradient id="paint3_linear_74_8906" x1="239.76" y1="107.417" x2="211.653" y2="70.2178" gradientUnits="userSpaceOnUse">
<stop stop-color="#EDF4FF"/>
<stop offset="1" stop-color="#ABCCFF"/>
</linearGradient>
<linearGradient id="paint4_linear_74_8906" x1="140.853" y1="63.0771" x2="140.853" y2="115.18" gradientUnits="userSpaceOnUse">
<stop stop-color="#2A64BE"/>
<stop offset="1" stop-color="#6095E7"/>
</linearGradient>
<linearGradient id="paint5_linear_74_8906" x1="101.708" y1="208.269" x2="43.842" y2="153.71" gradientUnits="userSpaceOnUse">
<stop stop-color="#EDF4FF"/>
<stop offset="1" stop-color="#ABCCFF"/>
</linearGradient>
<linearGradient id="paint6_linear_74_8906" x1="149.242" y1="191.323" x2="91.376" y2="167.35" gradientUnits="userSpaceOnUse">
<stop stop-color="#EDF4FF"/>
<stop offset="1" stop-color="#ABCCFF"/>
</linearGradient>
<linearGradient id="paint7_linear_74_8906" x1="200.496" y1="192.562" x2="146.763" y2="141.723" gradientUnits="userSpaceOnUse">
<stop stop-color="#EDF4FF"/>
<stop offset="1" stop-color="#ABCCFF"/>
</linearGradient>
<linearGradient id="paint8_linear_74_8906" x1="193.547" y1="52.5695" x2="193.547" y2="115.18" gradientUnits="userSpaceOnUse">
<stop stop-color="#ABCCFF"/>
<stop offset="1" stop-color="#70A8FF"/>
</linearGradient>
<linearGradient id="paint9_linear_74_8906" x1="75.6681" y1="140.07" x2="68.2282" y2="212.402" gradientUnits="userSpaceOnUse">
<stop stop-color="#ABCCFF"/>
<stop offset="1" stop-color="#70A8FF"/>
</linearGradient>
<linearGradient id="paint10_linear_74_8906" x1="28.9646" y1="129.324" x2="147.176" y2="183.882" gradientUnits="userSpaceOnUse">
<stop stop-color="#ABCCFF"/>
<stop offset="1" stop-color="#70A8FF"/>
</linearGradient>
<linearGradient id="paint11_linear_74_8906" x1="239.763" y1="165.696" x2="165.777" y2="168.176" gradientUnits="userSpaceOnUse">
<stop stop-color="#70A8FF"/>
<stop offset="1" stop-color="#5597FD"/>
</linearGradient>
<linearGradient id="paint12_linear_74_8906" x1="95.8077" y1="115.313" x2="95.8077" y2="146.283" gradientUnits="userSpaceOnUse">
<stop stop-color="#70A8FF"/>
<stop offset="1" stop-color="#5597FD"/>
</linearGradient>
<linearGradient id="paint13_linear_74_8906" x1="93.1905" y1="115.313" x2="93.1905" y2="146.283" gradientUnits="userSpaceOnUse">
<stop stop-color="#ABCCFF"/>
<stop offset="1" stop-color="#70A8FF"/>
</linearGradient>
<linearGradient id="paint14_linear_74_8906" x1="93.1931" y1="118.277" x2="93.1931" y2="143.068" gradientUnits="userSpaceOnUse">
<stop stop-color="#70A8FF"/>
<stop offset="1" stop-color="#5597FD"/>
</linearGradient>
<linearGradient id="paint15_linear_74_8906" x1="62.9273" y1="97.1175" x2="33.8409" y2="94.2133" gradientUnits="userSpaceOnUse">
<stop stop-color="#C6DDFF"/>
<stop offset="1" stop-color="white"/>
</linearGradient>
<linearGradient id="paint16_linear_74_8906" x1="167.159" y1="80.5844" x2="196.245" y2="77.6802" gradientUnits="userSpaceOnUse">
<stop stop-color="#C6DDFF"/>
<stop offset="1" stop-color="white"/>
</linearGradient>
<linearGradient id="paint17_linear_74_8906" x1="28.055" y1="84.075" x2="28.055" y2="94.354" gradientUnits="userSpaceOnUse">
<stop stop-color="#EDF4FF"/>
<stop offset="1" stop-color="#ABCCFF"/>
</linearGradient>
<linearGradient id="paint18_linear_74_8906" x1="202.031" y1="67.5417" x2="202.031" y2="77.8208" gradientUnits="userSpaceOnUse">
<stop stop-color="#EDF4FF"/>
<stop offset="1" stop-color="#ABCCFF"/>
</linearGradient>
<linearGradient id="paint19_linear_74_8906" x1="90.5508" y1="134.697" x2="101.297" y2="135.11" gradientUnits="userSpaceOnUse">
<stop stop-color="#2A64BE"/>
<stop offset="1" stop-color="#4B80D1"/>
</linearGradient>
<linearGradient id="paint20_linear_74_8906" x1="126.339" y1="36.5757" x2="126.339" y2="114.974" gradientUnits="userSpaceOnUse">
<stop stop-color="#EDF4FF"/>
<stop offset="1" stop-color="#ABCCFF"/>
</linearGradient>
<linearGradient id="paint21_linear_74_8906" x1="157.923" y1="56.5779" x2="141.803" y2="44.1781" gradientUnits="userSpaceOnUse">
<stop stop-color="#EDF4FF"/>
<stop offset="1" stop-color="#ABCCFF"/>
</linearGradient>
<linearGradient id="paint22_linear_74_8906" x1="16.1499" y1="183.056" x2="94.4001" y2="174.265" gradientUnits="userSpaceOnUse">
<stop offset="0.09375" stop-color="#2A64BE"/>
<stop offset="1" stop-color="#2A64BE" stop-opacity="0"/>
</linearGradient>
<linearGradient id="paint23_linear_74_8906" x1="76.4963" y1="184.047" x2="145.342" y2="173.591" gradientUnits="userSpaceOnUse">
<stop offset="0.09375" stop-color="#2A64BE"/>
<stop offset="1" stop-color="#2A64BE" stop-opacity="0"/>
</linearGradient>
<linearGradient id="paint24_linear_74_8906" x1="131.47" y1="183.056" x2="195.6" y2="188.683" gradientUnits="userSpaceOnUse">
<stop offset="0.09375" stop-color="#265FB8"/>
<stop offset="1" stop-color="#84B4FF"/>
</linearGradient>
<linearGradient id="paint25_linear_74_8906" x1="179.082" y1="36.8249" x2="195.673" y2="51.2036" gradientUnits="userSpaceOnUse">
<stop stop-color="#94BFFF"/>
<stop offset="1" stop-color="#4C94FE"/>
</linearGradient>
<linearGradient id="paint26_linear_74_8906" x1="154.699" y1="203.157" x2="171.29" y2="217.536" gradientUnits="userSpaceOnUse">
<stop stop-color="#94BFFF"/>
<stop offset="1" stop-color="#4C94FE"/>
</linearGradient>
<linearGradient id="paint27_linear_74_8906" x1="23.5546" y1="152.188" x2="11.7826" y2="161.755" gradientUnits="userSpaceOnUse">
<stop stop-color="#70A8FF"/>
<stop offset="1" stop-color="#5597FD"/>
</linearGradient>
<linearGradient id="paint28_linear_74_8906" x1="212.723" y1="143.762" x2="223.317" y2="154.618" gradientUnits="userSpaceOnUse">
<stop stop-color="#70A8FF"/>
<stop offset="1" stop-color="#5597FD"/>
</linearGradient>
<linearGradient id="paint29_linear_74_8906" x1="114.029" y1="0" x2="114.029" y2="36.4051" gradientUnits="userSpaceOnUse">
<stop stop-color="#70A8FF"/>
<stop offset="1" stop-color="#5597FD"/>
</linearGradient>
<linearGradient id="paint30_linear_74_8906" x1="67.8744" y1="193.328" x2="67.8744" y2="229.733" gradientUnits="userSpaceOnUse">
<stop stop-color="#70A8FF"/>
<stop offset="1" stop-color="#5597FD"/>
</linearGradient>
</defs>
</svg>
