<svg width="66" height="66" viewBox="0 0 66 66" fill="none" xmlns="http://www.w3.org/2000/svg">
<path d="M54.45 19.2505H11.55C9.72746 19.2505 8.25 20.7279 8.25 22.5505V48.9505C8.25 50.773 9.72746 52.2505 11.55 52.2505H54.45C56.2725 52.2505 57.75 50.773 57.75 48.9505V22.5505C57.75 20.7279 56.2725 19.2505 54.45 19.2505Z" stroke="#00A82D" stroke-width="4" stroke-linecap="round" stroke-linejoin="round"/>
<path d="M42.3494 8.25H23.65C22.7387 8.25 22 8.98873 22 9.9V50.6005C22 51.5118 22.7387 52.2505 23.65 52.2505H42.3494C43.2607 52.2505 43.9995 51.5118 43.9995 50.6005V9.9C43.9995 8.98873 43.2607 8.25 42.3494 8.25Z" stroke="#00A82D" stroke-width="4" stroke-linecap="round" stroke-linejoin="round"/>
</svg>
