<svg width="51" height="55" viewBox="0 0 51 55" fill="none" xmlns="http://www.w3.org/2000/svg">
<path d="M25.5 0C24.1889 0 22.8862 0.444231 21.7639 1.25654L18.2901 3.70192L14.2876 4.23077H14.2226L14.1576 4.29635C12.8449 4.59528 11.6431 5.26326 10.6915 6.22285C9.73994 7.18244 9.07754 8.39434 8.7811 9.71808L8.71816 9.78365V9.84923L8.19373 13.9488L5.76876 17.1219L5.70163 17.1875V17.2531C4.23532 19.616 4.17029 22.6663 5.76876 24.9213L8.25876 28.4244L8.91535 32.0629L2.16276 42.4388L0 45.6796H10.0292L12.4542 51.3637L13.9625 55L16.1252 51.6937L22.7457 41.6456C24.5246 42.3817 26.5321 42.4494 28.2543 41.6456L34.8748 51.6937L37.0375 55L38.5458 51.3637L40.9708 45.6796H51L48.8372 42.4388L42.2818 32.3929L42.8063 28.4265L45.2312 24.9235L45.2984 24.8579V24.7923C46.7647 22.4294 46.8297 19.4446 45.2312 17.1896L42.8063 13.6844L42.0196 9.71808H42.0846C42.0763 9.66731 42.028 9.63346 42.0196 9.58481C41.642 6.81788 39.4709 4.57135 36.7103 4.23077H36.6431L32.7099 3.70192L29.2361 1.25654C28.1511 0.455058 26.8448 0.0157143 25.5 0ZM25.5 4.29635C25.9825 4.29635 26.4587 4.44442 26.8111 4.69404L30.5471 7.40385L31.0065 7.73385L31.531 7.80154L36.1208 8.46154H36.1837C37.1277 8.56731 37.7822 9.22942 37.8892 10.1813V10.3125L38.743 15.0065L38.8059 15.4698L39.1352 15.8654L41.8224 19.6329C42.3238 20.3352 42.3888 21.5262 41.7574 22.5415L38.808 26.7067L38.7409 27.2356L38.0864 31.864V31.9275C38.0515 32.2581 37.9393 32.5756 37.7591 32.854L37.627 32.9217V32.9852C37.3152 33.3628 36.8681 33.6008 36.383 33.6473H36.2509L31.4659 34.5083L30.9415 34.5717L30.5471 34.9038L26.8111 37.6137C26.1146 38.1192 24.8686 38.1848 23.8617 37.5481L20.4529 34.9038L20.0585 34.5738L19.469 34.5062L14.8792 33.8462H14.8163C14.5196 33.8198 14.2337 33.7218 13.9825 33.5605C13.7313 33.3993 13.5223 33.1795 13.373 32.9196C13.2336 32.6757 13.1444 32.4059 13.1108 32.1263V31.9952L12.2591 27.17L12.192 26.6412L11.8648 26.2435L9.17757 22.476C8.67621 21.7737 8.61118 20.5171 9.2426 19.5017L11.8648 16.0642L12.192 15.6665L12.257 15.0721L12.8486 10.6425C12.857 10.6108 12.9052 10.6108 12.9136 10.5769C13.0444 10.0677 13.3079 9.60302 13.6767 9.23106C14.0456 8.85911 14.5064 8.59341 15.0114 8.46154C15.0449 8.45308 15.0449 8.40442 15.0764 8.39596L19.469 7.79942L19.9935 7.73596L20.4529 7.40385L24.1889 4.69404C24.5413 4.44654 25.0175 4.29635 25.5 4.29635ZM39.9869 36.4904L43.2006 41.4488H38.1493L37.6249 42.771L36.1837 46.1408L31.7261 39.2658L32.7078 38.5402L36.8403 37.8125V37.8781C36.8886 37.8696 36.92 37.821 36.9704 37.8125C38.0745 37.6519 39.1176 37.1953 39.9869 36.4904ZM11.0131 36.556C11.924 37.391 13.0683 37.9222 14.2897 38.0769H14.3548L18.3551 38.6058L19.2718 39.3335L14.8142 46.1408L13.373 42.771L12.8486 41.4488H7.80146L11.0131 36.556Z" fill="#00A82D"/>
</svg>
