<svg width="20" height="20" viewBox="0 0 20 20" fill="none" xmlns="http://www.w3.org/2000/svg">
<path fill-rule="evenodd" clip-rule="evenodd" d="M13.3602 7.486C13.4964 7.71321 13.5369 7.9852 13.4728 8.24225C13.4087 8.49929 13.2452 8.72039 13.0182 8.857L11.0032 10.067V19C11.0032 19.2652 10.8979 19.5196 10.7103 19.7071C10.5228 19.8946 10.2684 20 10.0032 20C9.73799 20 9.48364 19.8946 9.2961 19.7071C9.10856 19.5196 9.00321 19.2652 9.00321 19V12.566L6.98821 11.357C6.76603 11.218 6.60732 10.9973 6.54623 10.7424C6.48514 10.4875 6.52655 10.2189 6.66154 9.99422C6.79654 9.76957 7.01434 9.6069 7.26806 9.54121C7.52179 9.47553 7.79116 9.51208 8.01821 9.643L9.00321 10.233V6C9.00321 5.73478 9.10856 5.48043 9.2961 5.29289C9.48364 5.10536 9.73799 5 10.0032 5C10.2684 5 10.5228 5.10536 10.7103 5.29289C10.8979 5.48043 11.0032 5.73478 11.0032 6V7.734L11.9892 7.143C12.2165 7.00686 12.4886 6.96652 12.7457 7.03083C13.0027 7.09514 13.2238 7.25885 13.3602 7.486ZM9.90321 2C9.25921 2 8.66221 2.256 8.19321 2.7C7.93121 2.95 7.71121 3.26 7.55221 3.611C7.44307 3.85274 7.24237 4.04123 6.99426 4.135C6.74615 4.22877 6.47095 4.22014 6.22921 4.111C5.98746 4.00186 5.79897 3.80116 5.70521 3.55305C5.61144 3.30494 5.62007 3.02974 5.72921 2.788C5.98884 2.21025 6.35798 1.68829 6.81621 1.251C7.6455 0.451695 8.75143 0.00352039 9.90321 0C11.0982 0 12.1802 0.48 12.9902 1.251C13.4442 1.682 13.8142 2.205 14.0772 2.788C14.1312 2.9077 14.1612 3.03687 14.1653 3.16814C14.1694 3.29941 14.1476 3.4302 14.1012 3.55305C14.0548 3.67591 13.9846 3.78841 13.8947 3.88414C13.8048 3.97987 13.6969 4.05696 13.5772 4.111C13.4575 4.16504 13.3283 4.19497 13.1971 4.19909C13.0658 4.20321 12.935 4.18143 12.8122 4.135C12.564 4.04123 12.3633 3.85274 12.2542 3.611C12.101 3.26906 11.883 2.96004 11.6122 2.701C11.1547 2.25501 10.5421 2.00374 9.90321 2Z" fill="black"/>
<path fill-rule="evenodd" clip-rule="evenodd" d="M12.1844 3.29413C12.1588 3.02881 12.2381 2.76401 12.4054 2.55651C12.5727 2.34901 12.8147 2.21533 13.0794 2.18413C15.6854 1.88513 17.9014 3.90913 18.1614 6.53413C18.3374 8.30613 17.5984 9.98713 16.3074 11.0031C16.2051 11.085 16.0876 11.1458 15.9616 11.182C15.8357 11.2181 15.7038 11.229 15.5736 11.214C15.4435 11.1989 15.3176 11.1582 15.2032 11.0942C15.0889 11.0302 14.9883 10.9442 14.9074 10.8411C14.7463 10.6298 14.6752 10.3635 14.7094 10.1C14.7437 9.83649 14.8806 9.59719 15.0904 9.43413C15.8204 8.85913 16.2834 7.86413 16.1744 6.76213C16.0094 5.09913 14.6524 4.01713 13.2764 4.17513C13.1467 4.19051 13.0152 4.17983 12.8897 4.14371C12.7641 4.10759 12.647 4.04677 12.5453 3.9648C12.4436 3.88283 12.3593 3.78137 12.2973 3.66637C12.2353 3.55137 12.197 3.42516 12.1844 3.29513V3.29413Z" fill="black"/>
<path fill-rule="evenodd" clip-rule="evenodd" d="M15.4235 9.35294C15.6825 9.29218 15.955 9.33573 16.1821 9.47419C16.4093 9.61265 16.5728 9.8349 16.6375 10.0929C16.7685 10.6099 16.8165 11.1619 16.7675 11.7249C16.5525 14.1879 14.2615 15.8819 12.0855 15.6619C11.4955 15.6019 10.8605 15.4879 10.2945 15.1599C9.68948 14.8099 9.26248 14.2739 8.97948 13.5599C8.9304 13.4385 8.90589 13.3086 8.90736 13.1777C8.90884 13.0468 8.93627 12.9174 8.98808 12.7972C9.03988 12.6769 9.11502 12.5681 9.20916 12.4771C9.30329 12.3861 9.41455 12.3147 9.53648 12.2669C9.7851 12.1728 10.0608 12.1805 10.3038 12.2883C10.5468 12.3961 10.7375 12.5954 10.8345 12.8429C10.9775 13.2049 11.1315 13.3459 11.2765 13.4299C11.4605 13.5369 11.7465 13.6169 12.2595 13.6699C13.3795 13.7829 14.6625 12.8449 14.7775 11.5239C14.8075 11.1839 14.7775 10.8599 14.7025 10.5609C14.6694 10.4343 14.6619 10.3024 14.6803 10.1728C14.6987 10.0433 14.7426 9.91865 14.8096 9.80623C14.8766 9.69382 14.9653 9.59586 15.0705 9.51804C15.1757 9.44022 15.2964 9.3841 15.4235 9.35294ZM7.62748 3.29394C7.65286 3.02868 7.57342 2.76402 7.40616 2.55658C7.23889 2.34913 6.99709 2.21539 6.73248 2.18394C4.12648 1.88594 1.91148 3.90994 1.65048 6.53494C1.47548 8.30694 2.21348 9.98794 3.50548 11.0039C3.6078 11.0858 3.72533 11.1466 3.85127 11.1828C3.97722 11.219 4.10908 11.2298 4.23925 11.2148C4.36942 11.1997 4.49532 11.159 4.60967 11.095C4.72402 11.031 4.82456 10.945 4.90548 10.8419C5.06658 10.6306 5.13773 10.3643 5.10346 10.1008C5.06919 9.8373 4.93227 9.598 4.72248 9.43494C3.99148 8.85994 3.52848 7.86494 3.63748 6.76294C3.80248 5.09994 5.15948 4.01694 6.53648 4.17494C6.66621 4.19033 6.7977 4.17965 6.92324 4.14353C7.04878 4.10741 7.16585 4.04658 7.26756 3.96461C7.36928 3.88264 7.4536 3.78118 7.51558 3.66618C7.57756 3.55119 7.61594 3.42497 7.62848 3.29494L7.62748 3.29394Z" fill="black"/>
<path fill-rule="evenodd" clip-rule="evenodd" d="M4.38746 9.35318C4.12833 9.29212 3.85558 9.33553 3.62821 9.47401C3.40083 9.61249 3.23711 9.83492 3.17246 10.0932C3.03806 10.6261 2.99412 11.1777 3.04246 11.7252C3.25846 14.1882 5.54946 15.8822 7.72446 15.6622C8.31546 15.6022 8.95046 15.4882 9.51646 15.1602C10.1215 14.8102 10.5485 14.2742 10.8315 13.5602C10.8805 13.4388 10.9051 13.3089 10.9036 13.1779C10.9021 13.047 10.8747 12.9177 10.8229 12.7974C10.7711 12.6771 10.6959 12.5684 10.6018 12.4773C10.5077 12.3863 10.3964 12.3149 10.2745 12.2672C10.0258 12.173 9.75014 12.1807 9.50715 12.2885C9.26415 12.3964 9.07347 12.5957 8.97646 12.8432C8.83346 13.2052 8.67946 13.3462 8.53346 13.4302C8.34946 13.5372 8.06446 13.6172 7.55146 13.6702C6.43146 13.7832 5.14846 12.8452 5.03346 11.5242C5.00346 11.1842 5.03346 10.8602 5.10846 10.5612C5.14151 10.4345 5.14903 10.3025 5.13057 10.1729C5.11211 10.0433 5.06805 9.91861 5.00095 9.80618C4.93385 9.69376 4.84505 9.59581 4.73972 9.51803C4.6344 9.44026 4.51466 9.38422 4.38746 9.35318Z" fill="black"/>
<path d="M1.29634 2.70692C1.11418 2.51832 1.01338 2.26571 1.01566 2.00352C1.01794 1.74132 1.12311 1.49051 1.30852 1.3051C1.49393 1.11969 1.74474 1.01452 2.00694 1.01224C2.26913 1.00997 2.52173 1.11076 2.71034 1.29292L18.7103 17.2929C18.8925 17.4815 18.9933 17.7341 18.991 17.9963C18.9887 18.2585 18.8836 18.5093 18.6982 18.6947C18.5127 18.8801 18.2619 18.9853 17.9997 18.9876C17.7375 18.9899 17.4849 18.8891 17.2963 18.7069L1.29634 2.70692Z" fill="black"/>
</svg>
