<svg width="24" height="24" viewBox="0 0 24 24" fill="none" xmlns="http://www.w3.org/2000/svg">
<path fill-rule="evenodd" clip-rule="evenodd" d="M18.83 17C18.6234 17.5855 18.2403 18.0926 17.7334 18.4512C17.2265 18.8099 16.6209 19.0025 16 19.0025C15.3791 19.0025 14.7735 18.8099 14.2666 18.4512C13.7597 18.0926 13.3766 17.5855 13.17 17H3C2.73478 17 2.48043 16.8947 2.29289 16.7071C2.10536 16.5196 2 16.2652 2 16C2 15.7348 2.10536 15.4804 2.29289 15.2929C2.48043 15.1054 2.73478 15 3 15H13.17C13.3766 14.4145 13.7597 13.9074 14.2666 13.5488C14.7735 13.1902 15.3791 12.9976 16 12.9976C16.6209 12.9976 17.2265 13.1902 17.7334 13.5488C18.2403 13.9074 18.6234 14.4145 18.83 15H21C21.2652 15 21.5196 15.1054 21.7071 15.2929C21.8946 15.4804 22 15.7348 22 16C22 16.2652 21.8946 16.5196 21.7071 16.7071C21.5196 16.8947 21.2652 17 21 17H18.83ZM16 17C16.2652 17 16.5196 16.8947 16.7071 16.7071C16.8946 16.5196 17 16.2652 17 16C17 15.7348 16.8946 15.4804 16.7071 15.2929C16.5196 15.1054 16.2652 15 16 15C15.7348 15 15.4804 15.1054 15.2929 15.2929C15.1054 15.4804 15 15.7348 15 16C15 16.2652 15.1054 16.5196 15.2929 16.7071C15.4804 16.8947 15.7348 17 16 17ZM10.83 9.00001C10.6234 9.58554 10.2403 10.0926 9.7334 10.4512C9.22654 10.8099 8.62091 11.0025 8 11.0025C7.37909 11.0025 6.77346 10.8099 6.2666 10.4512C5.75974 10.0926 5.3766 9.58554 5.17 9.00001H3C2.73478 9.00001 2.48043 8.89465 2.29289 8.70712C2.10536 8.51958 2 8.26523 2 8.00001C2 7.73479 2.10536 7.48044 2.29289 7.2929C2.48043 7.10537 2.73478 7.00001 3 7.00001H5.17C5.3766 6.41448 5.75974 5.90744 6.2666 5.5488C6.77346 5.19015 7.37909 4.99756 8 4.99756C8.62091 4.99756 9.22654 5.19015 9.7334 5.5488C10.2403 5.90744 10.6234 6.41448 10.83 7.00001H21C21.2652 7.00001 21.5196 7.10537 21.7071 7.2929C21.8946 7.48044 22 7.73479 22 8.00001C22 8.26523 21.8946 8.51958 21.7071 8.70712C21.5196 8.89465 21.2652 9.00001 21 9.00001H10.83ZM8 9.00001C8.26522 9.00001 8.51957 8.89465 8.70711 8.70712C8.89464 8.51958 9 8.26523 9 8.00001C9 7.73479 8.89464 7.48044 8.70711 7.2929C8.51957 7.10537 8.26522 7.00001 8 7.00001C7.73478 7.00001 7.48043 7.10537 7.29289 7.2929C7.10536 7.48044 7 7.73479 7 8.00001C7 8.26523 7.10536 8.51958 7.29289 8.70712C7.48043 8.89465 7.73478 9.00001 8 9.00001Z" fill="black"/>
</svg>
