<svg width="16" height="16" viewBox="0 0 16 16" fill="none" xmlns="http://www.w3.org/2000/svg">
<path d="M8.16954 0.663116C7.67454 0.672178 6.94438 0.82521 6.69391 1.43165C7.22254 2.34546 7.54641 3.18487 7.66854 4.12009C7.09854 3.76259 6.48479 3.51118 5.85019 3.38377C5.49154 3.3118 5.14269 3.27396 4.81988 3.28518C2.51644 3.36527 0.552538 5.36805 0.590382 8.24905C0.633819 11.5583 3.07507 14.7386 5.90382 15.3066C6.26266 15.3787 6.70363 15.4164 7.09819 15.3799C7.49276 15.3433 7.82994 15.2274 8.01226 15.0527L8.19976 14.8731L8.39994 15.0381C8.57426 15.1815 8.93244 15.2964 9.33651 15.334C9.74057 15.3716 10.1878 15.3412 10.5357 15.2646C13.3449 14.6466 15.4456 11.4441 15.4019 8.12012C15.3802 6.46449 14.7816 5.11699 13.8551 4.26268C13.1601 3.62196 12.282 3.25112 11.2935 3.2363C10.964 3.23137 10.6226 3.2664 10.271 3.34374C9.71491 3.46608 9.17682 3.68462 8.67341 3.98634C8.70641 2.89124 8.61347 1.88696 8.36579 0.66696C8.30042 0.663081 8.23492 0.661788 8.16944 0.663085L8.16954 0.663116ZM8.08847 5.57421C8.42644 5.9589 8.54222 6.29546 8.51722 6.61327C8.49294 6.92118 8.31526 7.25046 7.98494 7.59571C7.26182 6.97115 7.42985 5.96384 8.08851 5.57421H8.08847ZM10.1842 6.7139C10.2896 6.71327 10.3994 6.72571 10.5123 6.75096C10.4318 7.22212 10.2735 7.56074 10.0406 7.76368C9.80019 7.97321 9.46041 8.08143 8.94979 8.03909C8.88091 7.38315 9.39797 6.74527 10.1393 6.71487C10.1541 6.71424 10.1691 6.71393 10.1841 6.71393L10.1842 6.7139ZM5.78379 6.79296C6.40847 6.77765 6.93704 7.22718 7.02401 7.80565C6.54073 7.9744 6.18516 7.95502 5.90001 7.81252C5.62369 7.6744 5.3851 7.38612 5.18907 6.95021C5.3686 6.85818 5.54913 6.80852 5.72326 6.79593C5.74357 6.79443 5.76366 6.79343 5.78382 6.79296H5.78379ZM5.55429 8.5879C5.99429 8.58696 6.4096 8.82033 6.61679 9.20508C6.21847 9.52759 5.87685 9.63065 5.56013 9.59277C5.25348 9.55605 4.93179 9.36549 4.60019 9.02143C4.88032 8.72215 5.22376 8.58852 5.55426 8.58784L5.55429 8.5879ZM9.93616 8.70215C9.95972 8.70205 9.98372 8.70277 10.0074 8.70402C10.3882 8.72496 10.773 8.92209 11.0299 9.32615C10.6402 9.60262 10.2892 9.73084 9.98104 9.7099C9.66291 9.68834 9.34657 9.52427 9.01522 9.13374C9.24032 8.85583 9.5821 8.70302 9.93616 8.70218V8.70215ZM6.35022 10.372C6.4861 10.3741 6.62179 10.4012 6.75157 10.4521C6.6561 10.9556 6.46201 11.2538 6.19588 11.4296C5.93829 11.5998 5.56951 11.6622 5.09432 11.6142C5.13223 10.8588 5.70194 10.3946 6.29163 10.3729C6.31101 10.3723 6.33079 10.3717 6.35022 10.372V10.372ZM9.06797 10.3769C9.65797 10.3849 10.2392 10.8354 10.2945 11.5898C9.82016 11.649 9.44973 11.5959 9.18807 11.4316C8.91807 11.2621 8.71713 10.9675 8.60994 10.4667C8.7548 10.4055 8.91076 10.3749 9.06801 10.3769H9.06797ZM7.69391 10.8916C8.35276 11.2813 8.52023 12.2885 7.79647 12.9131C7.46635 12.5678 7.28848 12.2384 7.26429 11.9306C7.23922 11.6127 7.35598 11.2762 7.69397 10.8915L7.69391 10.8916Z" fill="black"/>
</svg>
