<svg width="29" height="29" viewBox="0 0 29 29" fill="none" xmlns="http://www.w3.org/2000/svg">
<path d="M10.5599 4.9129C10.0477 4.9129 9.47742 5.24538 9.04565 6.10881L8.6601 6.88025C8.80057 6.86876 8.94149 6.8627 9.08236 6.8627C10.103 6.8627 11.1217 7.16646 12.0203 7.76764V6.01269C11.5955 5.22442 11.0516 4.91284 10.56 4.91284L10.5599 4.9129ZM18.4402 4.9129C17.9486 4.9129 17.4048 5.22442 16.98 6.01275V7.76827C18.0032 7.08518 19.1831 6.78952 20.3414 6.88252L19.9545 6.10881C19.5227 5.24532 18.9524 4.9129 18.4402 4.9129H18.4402ZM9.0823 7.85402C8.0033 7.85402 6.92542 8.28976 6.03843 9.15675L3.92121 12.8621C4.74204 12.4801 5.65628 12.2663 6.61956 12.2663C8.88292 12.2663 10.8767 13.444 12.0202 15.2187V9.05378C11.154 8.2543 10.1183 7.85402 9.0823 7.85402ZM19.9818 7.85589C18.9248 7.83856 17.864 8.23765 16.98 9.05355V15.2186C18.1236 13.4441 20.1174 12.2663 22.3806 12.2663C23.3441 12.2663 24.2582 12.4801 25.0791 12.8621L22.9619 9.15675C22.0925 8.30697 21.039 7.87328 19.9819 7.85589H19.9818ZM14.5001 8.60694C14.2105 8.60694 13.8271 8.76412 13.0397 9.15222V16.6862C13.4501 16.3852 13.9553 16.2066 14.5001 16.2066C15.045 16.2066 15.55 16.3853 15.9605 16.6863V9.15222C15.1731 8.76412 14.7897 8.60694 14.5001 8.60694ZM6.61968 13.2859C3.63092 13.2859 1.21899 15.6977 1.21899 18.6864C1.21899 21.6751 3.63092 24.0871 6.61968 24.0871C9.60832 24.0871 12.0202 21.6751 12.0202 18.6864C12.0202 15.6977 9.60832 13.2859 6.61962 13.2859H6.61968ZM22.3805 13.2859C19.3919 13.2859 16.98 15.6977 16.98 18.6864C16.98 21.6751 19.3919 24.0871 22.3806 24.0871C25.3693 24.0871 27.7812 21.6751 27.7812 18.6864C27.7812 15.6977 25.3693 13.2859 22.3806 13.2859H22.3805ZM6.53092 14.3623C6.60029 14.3612 6.66968 14.3618 6.73902 14.364C7.15499 14.3767 7.5713 14.4468 7.97209 14.5801C10.0588 15.2226 11.3561 17.5064 10.8393 19.6273C10.4059 21.7651 8.26475 23.2812 6.10448 22.9788C3.90976 22.7598 2.17497 20.737 2.30049 18.5334C2.30995 17.8872 2.47795 17.2683 2.76494 16.7139C2.86634 17.0023 3.05467 17.2521 3.30397 17.4289C3.55327 17.6058 3.85129 17.7009 4.15694 17.7013C4.35098 17.7014 4.54313 17.6632 4.7224 17.5889C4.90168 17.5147 5.06458 17.4059 5.2018 17.2687C5.33903 17.1315 5.44788 16.9686 5.52216 16.7894C5.59643 16.6101 5.63468 16.418 5.6347 16.2239C5.63434 15.9181 5.53909 15.6199 5.36209 15.3705C5.18509 15.1211 4.93506 14.9328 4.64649 14.8315C5.15954 14.5656 5.72815 14.4013 6.32339 14.37C6.39249 14.3659 6.46166 14.3633 6.53087 14.3623H6.53092ZM22.2917 14.3623C22.3611 14.3612 22.4305 14.3618 22.4998 14.364C22.9158 14.3767 23.3322 14.4468 23.7331 14.5801C25.8197 15.2226 27.1169 17.5064 26.6002 19.6273C26.1668 21.7651 24.0257 23.2812 21.8656 22.9789C19.6708 22.76 17.9359 20.737 18.0615 18.5333C18.0709 17.8871 18.2389 17.2683 18.5259 16.7139C18.6273 17.0023 18.8156 17.2521 19.0649 17.4289C19.3142 17.6057 19.6122 17.7009 19.9179 17.7013C20.3097 17.7013 20.6855 17.5457 20.9626 17.2686C21.2397 16.9915 21.3954 16.6158 21.3954 16.2239C21.3951 15.9181 21.2998 15.62 21.1229 15.3705C20.9459 15.1211 20.696 14.9328 20.4074 14.8315C20.9204 14.5656 21.489 14.4013 22.0842 14.37C22.1533 14.3659 22.2224 14.3633 22.2917 14.3623ZM14.5001 17.2261C13.6875 17.2261 13.0397 17.8739 13.0397 18.6864C13.0397 19.499 13.6875 20.1468 14.5001 20.1468C15.3127 20.1468 15.9605 19.499 15.9605 18.6864C15.9605 17.8739 15.3127 17.2262 14.5001 17.2262V17.2261Z" fill="#00A82D"/>
</svg>
