<svg width="26" height="24" viewBox="0 0 26 24" fill="none" xmlns="http://www.w3.org/2000/svg">
<path d="M0.5 23.5V21C0.5 21 6.75 18.5 13 18.5C19.25 18.5 25.5 21 25.5 21V23.5H0.5ZM12.125 7.37504C10.625 2.50004 3 3.62504 3 3.62504C3 3.62504 3.25 13.375 10.375 11.875C9.875 8.25004 8 7.25004 8 7.25004C11.5 7.25004 11.75 11.5 11.75 11.5V17.25H14.25V12C14.25 12 14.25 7.12504 18 5.87504C18 5.87504 15.5 9.62504 15.5 12.125C24.25 13 24.25 1.00004 24.25 1.00004C24.25 1.00004 13.125 -0.249964 12.125 7.37504Z" fill="white"/>
</svg>
