<svg width="31" height="31" viewBox="0 0 31 31" fill="none" xmlns="http://www.w3.org/2000/svg">
<path d="M15.6211 1.3252C15.5908 1.3252 15.5484 1.3252 15.5121 1.33246C15.2336 1.38393 14.9006 1.64125 14.6826 2.22916C14.4525 2.81646 14.4041 3.65383 14.6039 4.55053C14.8098 5.43633 15.2336 6.19982 15.7059 6.66604C16.166 7.13225 16.5838 7.25939 16.8623 7.21096C17.1529 7.16857 17.4738 6.90217 17.6918 6.32092C17.9219 5.73725 17.9824 4.88838 17.7766 3.99895C17.5646 3.10285 17.1469 2.34662 16.6746 1.88344C16.275 1.47172 15.9057 1.3252 15.6211 1.3252ZM22.6082 9.16662C21.9422 9.18478 21.1006 9.36037 20.2832 9.70549C19.3387 10.1172 18.6121 10.6682 18.2125 11.1889C17.8129 11.6914 17.7766 12.0729 17.9037 12.2969C18.0369 12.5209 18.4062 12.7328 19.1146 12.7631C19.823 12.8055 20.7797 12.6299 21.7182 12.2303C22.6566 11.8246 23.3953 11.2676 23.7949 10.759C24.1945 10.2565 24.2248 9.86291 24.0977 9.63889C23.9705 9.40881 23.5951 9.209 22.8867 9.18478C22.7898 9.16662 22.7051 9.16662 22.6082 9.16662ZM14.3557 14.7914C13.9561 14.7975 13.5928 14.8459 13.2658 14.9307C12.5514 15.1123 12.1396 15.4393 12.0064 15.8328C11.8551 16.2264 12.0064 16.6987 12.4787 17.2072C12.9752 17.7037 13.7926 18.1821 14.8098 18.4485C15.8209 18.7149 16.7957 18.7088 17.5223 18.5151C18.2549 18.3274 18.6666 17.9944 18.7998 17.6069C18.9391 17.2133 18.7998 16.7471 18.3094 16.2324C17.8311 15.736 17.0137 15.2576 15.9965 14.9973C15.4213 14.8459 14.8582 14.7854 14.3557 14.7914ZM24.0855 18.3092L20.3438 20.0832C20.598 20.0953 21.2338 20.1135 21.2338 20.1135L21.6334 20.6403L24.9453 18.9147L24.0855 18.3092ZM20.7857 18.3153L17.3104 19.9621C17.6434 19.9803 18.4305 19.9924 18.7453 20.0106L21.7605 18.5817L20.7857 18.3153ZM26.3924 18.9692L22.1238 21.2336L23.0018 22.3658L27.5125 19.6654L26.3924 18.9692ZM9.51191 19.5201C9.32858 19.5198 9.14578 19.5401 8.96699 19.5807C4.63789 20.5797 2.08281 20.6645 1.32598 20.6645H1.08984V27.1733C1.08984 27.1733 1.79219 27.0703 2.96074 27.0643C5.21914 27.0643 9.19707 27.4518 13.0721 29.7162C13.2779 29.8434 13.7199 29.8918 14.2709 29.8918C15.7422 29.8918 17.9764 29.5406 18.491 29.3469C23.6738 27.4033 29.9102 22.0692 29.9102 22.0692L27.9424 20.3496C27.9424 20.3496 23.1107 23.4315 22.4992 23.7281C16.9834 26.4346 12.515 24.7453 12.515 24.7453C12.515 24.7453 19.7746 24.927 22.1057 23.0924L20.7373 21.0338C20.7373 21.0338 15.724 20.8946 13.9379 20.6584C13.0055 20.5373 10.9893 19.5201 9.51191 19.5201Z" fill="white"/>
</svg>
