<svg width="347" height="270" viewBox="0 0 347 270" fill="none" xmlns="http://www.w3.org/2000/svg">
<g opacity="0.4">
<path d="M332.44 9.07899C324.999 13.2428 318.303 18.6867 310.541 22.2825C301.937 26.268 292.73 28.9624 283.714 31.8295C274.907 34.6305 266.262 37.6502 257.923 41.6669C250.119 45.4264 242.655 49.8006 235.322 54.4009C228.059 58.958 220.198 63.9525 215.381 71.2407C215.279 70.8281 215.177 70.4155 215.075 70.0029C218.12 72.0365 222.929 71.2288 226.334 70.8557C229.729 70.4844 233.11 69.8476 236.527 69.7217C247.389 69.321 258.076 68.4094 268.613 65.5717C288.156 60.307 304.831 48.9956 318.541 34.2886C325.973 26.3176 332.504 17.5655 338.476 8.46145C339.07 7.55352 340.327 8.79044 339.82 9.56144C328.971 26.1026 316.14 41.7441 299.781 53.1143C281.758 65.6415 260.379 70.8924 238.638 71.4392C234.222 71.5504 229.911 72.3214 225.52 72.7349C221.905 73.074 217.521 73.5004 214.342 71.3776C214.003 71.1516 213.8 70.4954 214.036 70.1407C218.073 64.0334 224.153 59.5636 230.174 55.5615C237.258 50.8537 244.594 46.4538 252.137 42.5262C260.567 38.1381 269.286 34.6011 278.317 31.6641C287.513 28.6738 296.811 25.9547 305.786 22.3285C315.144 18.5488 322.909 12.3266 331.649 7.4359C332.484 6.96907 333.283 8.60757 332.44 9.07899Z" fill="#00A82D"/>
<path d="M214.729 70.3683C232.644 62.7318 252.117 59.7287 270.051 52.1574C279.234 48.2813 287.738 42.8797 296.192 37.6435C300.634 34.8921 305.018 32.0434 309.25 28.9777C313.193 26.1216 316.874 22.9411 320.776 20.0336C328.983 13.9179 338.014 8.56133 344.838 0.810874C345.503 0.0554955 346.563 1.53042 345.95 2.22698C339.866 9.1366 331.99 14.1467 324.578 19.484C316.72 25.1411 309.387 31.3615 301.223 36.6133C292.72 42.0839 283.983 47.7207 274.823 52.0278C266.154 56.1043 256.97 58.9145 247.78 61.5445C236.904 64.657 225.949 67.5655 215.52 72.0114C214.633 72.3891 213.846 70.7451 214.729 70.3683Z" fill="#00A82D"/>
<path d="M308.735 131.19C287.258 122.026 263.429 125.436 240.768 123.56C229.44 122.623 218.831 119.807 208.038 116.415C199.707 113.796 191.063 111.536 182.384 110.461C172.221 109.201 161.215 111.93 151.799 115.644C151.746 115.238 151.694 114.83 151.64 114.424C157.093 117.192 162.986 119.005 168.654 121.27C174.805 123.726 180.506 127.731 187.148 128.763C191.885 129.499 196.917 129.198 201.686 128.989C206.379 128.783 210.647 128.021 215.206 126.966C222.282 125.328 229.459 124.002 236.418 121.9C237.108 121.691 237.688 122.927 237.012 123.132C230.973 124.956 224.771 126.202 218.619 127.576C213.626 128.693 208.888 129.915 203.765 130.214C198.94 130.495 194.028 130.638 189.201 130.289C182.546 129.808 177.12 126.247 171.172 123.638C164.652 120.779 157.722 118.857 151.364 115.631C150.99 115.441 150.669 114.623 151.206 114.411C159.607 111.099 169.406 108.479 178.497 108.823C187.182 109.152 195.983 111.599 204.291 113.991C208.657 115.248 212.923 116.82 217.295 118.053C223.372 119.768 229.582 121.011 235.852 121.765C247.748 123.195 259.753 122.841 271.705 123.225C284.424 123.633 297.2 124.944 309.011 129.983C309.661 130.261 309.528 131.528 308.735 131.19Z" fill="#00A82D"/>
<path d="M151.64 114.425C156.651 116.572 163.087 116.025 168.406 116.016C170.943 116.011 173.487 115.949 176.023 116.05C179.747 116.198 183.335 117.085 186.935 117.986C197.684 120.68 208.944 121.209 219.977 121.723C225.476 121.981 231.059 122.268 236.56 121.859C237.253 121.808 237.628 123.117 236.871 123.173C226.285 123.961 215.35 122.938 204.806 122.017C199.803 121.579 194.756 121.131 189.854 120C185.571 119.012 181.338 117.668 176.924 117.394C174.392 117.236 171.839 117.321 169.304 117.328C163.592 117.345 156.738 117.934 151.364 115.632C150.714 115.353 150.848 114.086 151.64 114.425Z" fill="#00A82D"/>
<path d="M299.515 127.627C293.176 131.729 286.232 134.743 279.761 138.614C274.917 141.513 270.344 144.878 266.04 148.527C257.343 155.902 247.576 165.713 245.973 177.554C245.735 177.245 245.497 176.936 245.26 176.629C248.43 175.849 250.855 173.714 253.34 171.72C255.678 169.845 258.205 168.323 260.835 166.892C266.754 163.671 272.3 160.293 277.269 155.691C281.848 151.449 286.141 146.637 289.626 141.452C292.866 136.631 295.555 131.469 298.714 126.599C299.157 125.915 300.1 126.843 299.723 127.423C296.444 132.479 293.679 137.857 290.262 142.825C286.643 148.088 282.261 152.989 277.534 157.275C272.53 161.813 266.965 165.097 261.069 168.32C258.014 169.991 255.279 171.915 252.566 174.083C250.433 175.787 248.255 177.283 245.571 177.943C245.077 178.064 244.808 177.385 244.858 177.017C246.457 165.199 256.054 155.321 264.695 147.901C268.964 144.235 273.511 140.855 278.306 137.906C285.017 133.778 292.3 130.679 298.922 126.395C299.518 126.009 300.122 127.235 299.515 127.627Z" fill="#00A82D"/>
<path d="M244.998 176.754C252.056 168.247 259.233 159.232 268.35 152.855C278.703 145.615 287.207 136.263 297.352 128.783C297.967 128.33 298.742 129.436 298.186 129.845C288.389 137.069 280.246 146.237 270.231 153.192C260.675 159.831 253.218 168.913 245.832 177.817C245.353 178.395 244.556 177.289 244.998 176.754Z" fill="#00A82D"/>
<path d="M248.96 123.451C243.532 113.045 236.911 103.893 228.222 95.9846C220.119 88.6099 210.903 80.9477 199.927 78.5952L200.411 77.7075C202.586 82.9758 207.053 86.7334 210.831 90.832C215.027 95.3836 218.591 100.301 223.207 104.49C227.05 107.978 231.095 111.283 235.268 114.367C239.677 117.625 244.365 120.823 249.59 122.611C250.261 122.841 250.127 124.096 249.314 123.818C244.219 122.074 239.622 118.978 235.3 115.826C230.704 112.473 226.249 108.843 222.068 104.983C217.528 100.791 213.987 95.8623 209.805 91.3622C205.996 87.2637 201.609 83.4666 199.427 78.1807C199.279 77.8233 199.377 77.1772 199.912 77.2921C211.097 79.6887 220.515 87.4383 228.772 94.9535C237.632 103.017 244.411 112.369 249.944 122.978C250.342 123.74 249.356 124.21 248.96 123.451Z" fill="#00A82D"/>
<path d="M201.962 78.7064C210.353 84.8928 217.453 92.521 225.012 99.6503C233.208 107.38 241.634 114.86 249.727 122.699C250.252 123.208 249.816 124.349 249.176 123.73C241.083 115.891 232.657 108.411 224.462 100.681C216.904 93.5521 209.803 85.9239 201.412 79.7375C200.81 79.2936 201.245 78.1771 201.962 78.7064Z" fill="#00A82D"/>
<path d="M287.051 124.545C283.058 121.498 279.765 117.737 276.566 113.891C273.329 110.001 269.822 106.314 266.718 102.319C263.761 98.5154 261.389 94.4298 259.361 90.0684C257.439 85.9331 255.102 81.7583 255.168 77.0689C255.175 76.5616 255.629 76.3962 256.018 76.6599C257.924 77.9529 259.364 79.6557 260.84 81.4027C262.884 83.8241 265.104 85.5095 267.763 87.1994C271.937 89.8534 275.686 93.2553 278.808 97.091C284.919 104.598 287.359 114.633 287.901 124.136C287.952 125.025 286.794 124.66 286.752 123.923C286.195 114.151 283.542 104.127 276.978 96.6463C273.693 92.9043 269.913 90.0096 265.76 87.3171C263.879 86.0967 262.238 84.7228 260.766 83.0311C259.099 81.116 257.594 79.1338 255.468 77.691C255.751 77.555 256.034 77.4181 256.317 77.2821C256.25 82.0505 258.849 86.3871 260.801 90.5894C262.831 94.9591 265.426 98.9979 268.463 102.735C271.333 106.268 274.444 109.606 277.357 113.107C280.484 116.866 283.698 120.535 287.602 123.514C288.195 123.967 287.761 125.086 287.051 124.545Z" fill="#00A82D"/>
<path d="M256.515 77.5491C256.176 79.1425 257.882 81.4105 258.676 82.6428C259.728 84.2721 260.884 85.8334 262.068 87.3672C265.273 91.5135 268.506 95.6525 271.817 99.7133C277.908 107.182 284.635 114.724 287.88 123.965C288.176 124.807 287.033 124.834 286.773 124.093C283.051 113.492 274.589 105.11 267.794 96.4363C264.944 92.7982 261.96 89.2308 259.276 85.4649C257.762 83.3412 254.794 79.8593 255.399 77.0124C255.579 76.1716 256.661 76.8617 256.515 77.5491Z" fill="#00A82D"/>
<path d="M269.617 124.341C265.388 129.619 260.185 133.911 254.895 138.076C249.579 142.261 244.525 146.813 239.09 150.837C233.822 154.735 228.197 157.878 222.186 160.469C216.489 162.927 210.702 166.043 204.318 165.73C203.896 165.708 203.566 165.007 203.806 164.665C205.669 162.016 208.15 160.081 210.655 158.075C213.468 155.823 215.689 153.373 217.702 150.378C221.663 144.485 226.286 139.206 231.887 134.8C242.292 126.615 256.02 123.523 269.046 123.153C269.738 123.132 270.11 124.446 269.355 124.467C256.226 124.84 242.467 127.966 232.085 136.369C226.601 140.808 222.243 146.038 218.284 151.837C216.505 154.443 214.508 156.688 212.056 158.683C209.466 160.79 206.759 162.726 204.815 165.491C204.644 165.136 204.474 164.781 204.303 164.427C210.994 164.755 217.403 161.092 223.359 158.482C229.362 155.853 234.945 152.389 240.11 148.365C245.042 144.523 249.764 140.408 254.673 136.531C259.755 132.518 264.719 128.352 268.784 123.279C269.252 122.695 270.051 123.8 269.617 124.341Z" fill="#00A82D"/>
<path d="M204.454 164.138C206.468 164.673 209.044 162.976 210.708 162.032C213.162 160.64 215.5 159.038 217.786 157.388C223.332 153.386 228.813 149.265 234.254 145.123C245.03 136.923 255.761 127.372 268.904 123.193C269.59 122.976 270.173 124.211 269.497 124.426C255.321 128.933 243.958 139.592 232.265 148.309C227.136 152.133 222.065 156.075 216.813 159.733C214.477 161.359 212.081 162.956 209.521 164.214C208.062 164.931 206.146 165.886 204.47 165.441C203.81 165.267 203.677 163.932 204.454 164.138Z" fill="#00A82D"/>
<path d="M255.462 219.644C255.194 219.868 254.935 220.092 254.681 220.31C253.781 221.087 252.93 221.82 251.835 222.449C250.325 223.317 248.564 224.314 246.771 225.171C243.585 226.691 240.185 227.706 237.279 228.499C234.172 229.346 230.785 230.146 227.09 230.27C225.485 230.323 223.858 230.304 222.284 230.285C220.221 230.26 218.086 230.233 215.994 230.374C215.959 230.377 215.924 230.377 215.89 230.375C213.361 235.641 211.629 240.673 210.6 245.748C209.032 253.467 208.888 261.299 210.156 269.065C209.637 269.127 209.118 269.182 208.599 269.229C208.22 266.82 207.97 264.352 207.859 261.861C206.297 260.927 204.892 259.743 203.533 258.597C201.741 257.086 199.889 255.523 197.698 254.575C196.8 254.187 195.902 253.804 195.004 253.421C191.297 251.841 187.465 250.208 183.839 248.241C179.409 245.839 175.69 243.388 172.469 240.749C168.619 237.594 165.479 233.809 162.838 230.508C161.088 228.321 159.231 226.388 157.163 224.599C155.355 223.036 153.652 221.449 152.678 219.228C152.58 219.003 152.6 218.748 152.735 218.53C152.88 218.298 153.144 218.143 153.403 218.134C162.508 217.715 171.216 223.372 176.975 227.664C180.515 230.302 183.924 233.275 187.108 236.5C190.325 239.758 193.167 243.408 195.917 246.938L197.122 248.485C198.988 250.885 200.917 253.367 203.218 255.347C203.746 255.801 204.294 256.239 204.843 256.676C205.702 257.362 206.585 258.066 207.395 258.844C206.171 247.94 201.18 237.951 196.35 228.282C195.481 226.545 194.615 224.811 193.772 223.077C191.673 218.758 190.004 214.914 188.673 211.328C185.815 208.397 183.052 205.291 180.379 202.287L180.094 201.966C179.49 201.287 178.867 200.613 178.241 199.934C176.054 197.565 173.793 195.115 172.173 192.302C169.92 188.389 169.718 183.855 169.705 179.914C169.694 176.49 169.697 173.065 169.701 169.64L169.706 164.665C169.707 164.378 169.892 164.114 170.192 163.978C170.292 163.933 170.394 163.905 170.494 163.897C170.693 163.879 170.883 163.934 171.026 164.058C176.346 168.648 180.925 172.952 183.087 179.169C184.47 183.14 185.019 187.389 185.551 191.499C185.901 194.206 186.263 197.004 186.86 199.679C188.319 206.226 190.735 213.005 194.245 220.403C194.41 220.749 194.575 221.095 194.742 221.441C194.743 218.795 195.117 216.187 195.535 213.731C196.178 209.944 197.008 206.271 198.003 202.815C198.701 200.389 199.694 198.073 200.653 195.833C201.285 194.36 201.937 192.837 202.499 191.301C202.697 190.758 202.888 190.21 203.08 189.662C204.085 186.79 205.124 183.82 207.202 181.426C207.388 181.212 207.704 181.114 207.993 181.18C208.246 181.239 208.433 181.42 208.497 181.663C210.414 189.052 208.599 196.837 206.747 203.554C204.691 211.011 201.302 217.959 196.385 224.794C196.851 225.733 197.319 226.67 197.788 227.609C199.571 231.172 201.413 234.858 203.056 238.569C205.447 243.961 207.058 248.677 208.044 253.191C208.792 244.673 211.212 236.225 215.098 228.603L215.226 228.363C217.378 224.175 219.924 220.077 222.387 216.115C223.47 214.372 224.588 212.572 225.661 210.785C221.876 201.55 220.8 193.055 222.464 185.533C223.351 181.517 225.13 177.826 227.747 174.564C228.435 173.706 229.172 172.859 229.885 172.04C232.137 169.454 234.464 166.778 235.527 163.418C235.645 163.042 236.136 162.81 236.498 162.855C236.799 162.891 237.005 163.113 237.026 163.46C237.5 171.246 237.989 179.296 236.77 187.145C235.812 193.317 233.513 199.669 229.74 206.565C227.861 210.001 225.764 213.379 223.737 216.646C222.133 219.231 220.474 221.905 218.935 224.586C218.685 225.022 218.439 225.459 218.196 225.898C222.161 223.425 227.287 222.437 231.483 221.629C238.948 220.19 246.91 218.757 254.986 218.416C255.302 218.403 255.576 218.576 255.686 218.857C255.792 219.132 255.705 219.442 255.462 219.644Z" fill="#00A82D"/>
<path d="M26.3664 163.453C31.5006 163.209 36.4004 162.077 41.3968 160.972C47.0383 159.725 53.2256 158.654 58.6189 161.354C58.7016 161.396 58.7843 161.405 58.8661 161.411C65.4146 168.026 71.9015 174.701 78.2386 181.528C75.5506 181.919 72.8958 182.39 70.2795 183.136C68.5574 179.923 64.6133 180.192 61.7452 181.686C59.4919 182.861 56.2756 185.324 56.4502 188.215C56.4585 188.341 56.4851 188.454 56.5053 188.572C56.4511 188.578 56.4052 188.571 56.3436 188.591C48.1006 191.255 39.399 192.261 30.7939 192.92C22.9856 193.52 14.703 194.475 7.42216 190.936C7.38908 190.921 7.35599 190.925 7.32199 190.915C5.82593 187.7 4.79211 184.306 4.57707 181.029C14.8032 182.196 24.4155 186.747 34.7803 187.085C39.4404 187.237 43.6299 186.236 47.8515 184.324C50.7564 183.009 54.7207 181.315 55.8768 178.046C57.1771 174.372 53.7567 171.736 50.6975 170.666C46.7773 169.294 42.3599 169.147 38.2512 169.482C27.8432 170.33 17.3147 174.391 7.35048 169.241C1.17235 166.047 -0.263975 160.093 0.0374414 153.791C5.87923 162.038 16.7688 163.911 26.3664 163.453Z" fill="#00A82D"/>
<path d="M18.8763 117.929C25.3622 126.787 32.5163 134.956 40.2557 142.737C45.5011 148.01 50.7695 153.259 56.0121 158.532C47.5954 156.408 38.37 160.602 29.9956 161.502C19.6831 162.61 6.56964 161.435 0.633194 151.639C0.524758 151.46 0.384157 151.379 0.236205 151.339C0.642383 147.653 1.50069 143.956 2.23033 140.718C5.44116 142.186 8.03629 144.963 10.5432 147.351C13.255 149.934 16.0542 152.65 19.4304 154.352C24.514 156.914 33.0649 156.161 35.49 150.106C37.5843 144.878 32.3059 139.677 28.5657 136.848C22.0448 131.916 13.0602 131.627 7.7946 124.832C1.65874 116.913 4.0471 107.117 5.05703 97.8744C6.43822 101.011 8.62533 103.816 10.67 106.515C13.5004 110.252 16.1075 114.146 18.8763 117.929Z" fill="#00A82D"/>
<path d="M29.8939 194.656C38.8877 193.993 47.9725 192.957 56.5868 190.172C56.7844 190.108 56.9277 189.969 57.0288 189.806C58.4247 191.616 61.9838 191.643 63.8998 190.978C66.4508 190.092 70.417 187.766 70.5723 184.705C73.3044 183.932 76.0714 183.484 78.8824 183.089C79.092 183.06 79.2657 182.938 79.3998 182.775C79.6663 183.064 79.9374 183.35 80.2039 183.64C86.0374 189.989 91.2359 196.882 96.995 203.295C98.4249 204.888 99.8952 206.424 101.398 207.918C97.7146 207.766 94.2924 209.63 91.2552 212.039C89.3438 213.556 87.5941 215.259 85.7388 216.842C82.8101 219.339 79.5423 221.402 76.0557 223.029C69.8666 225.917 63.0424 227.71 56.2946 228.691C50.711 229.504 45.1045 229.369 39.6247 227.965C36.5334 227.173 33.7131 226.008 30.9498 224.417C29.5466 223.609 28.1544 222.797 26.7088 222.101C31.2246 221.87 35.812 222.433 40.3103 221.87C46.209 220.942 51.3772 218.113 56.528 215.244C59.9952 213.313 64.2977 212.082 67.3505 209.505C69.5404 207.656 70.3123 204.865 68.6683 202.351C66.6328 199.236 62.2558 199.115 58.9393 199.424C50.7147 200.191 43.0019 203.839 34.9978 205.654C30.9737 206.567 26.7281 207.168 22.6268 206.431C18.9216 205.764 16.1795 203.649 13.758 200.843C11.8999 198.692 10.0776 196.108 8.5448 193.318C15.3349 195.876 22.7371 195.185 29.8939 194.656Z" fill="#00A82D"/>
<path d="M32.4484 104.015C31.9145 107.394 31.6121 110.743 32.5504 114.073C34.46 120.842 38.4924 129.15 36.4376 136.314C30.0554 129.587 24.2284 122.445 18.8047 114.92C16.4099 111.598 14.1088 108.22 11.6396 104.953C9.39184 101.977 7.0191 98.9024 5.82446 95.3277C9.6565 98.0386 14.5224 98.261 19.2201 97.943C24.4563 97.5874 29.6732 97.2428 34.9121 97.0057C33.3839 98.9695 32.8316 101.587 32.4484 104.015Z" fill="#00A82D"/>
<path d="M105.385 209.384C105.408 209.324 105.427 209.26 105.437 209.192C106.011 205.209 108.884 203.304 111.978 201.215C115.336 198.949 118.864 196.981 122.384 194.985C128.845 191.322 135.086 187.462 139.553 181.396C143.334 176.261 146.168 170.109 147.323 163.82C148.523 157.28 147.751 150.578 148.825 144.028C153.436 152.404 155.134 161.864 154.059 171.41C153.027 180.59 150.058 190.976 144.009 198.125C140.48 202.296 135.938 205.47 131.042 207.84C128.62 209.013 126.116 210.005 123.57 210.871C122.336 211.291 121.09 211.68 119.839 212.045C118.908 212.316 117.67 212.45 116.865 213C115.834 213.703 115.329 215.036 115.733 216.227C116.307 217.922 118.82 218.839 120.234 219.69C124.997 222.555 129.899 225.179 134.865 227.672C139.977 230.238 145.159 232.661 150.353 235.056C154.594 237.012 158.832 239.361 163.307 240.759C162.897 241.271 162.486 241.783 162.071 242.292C146.485 236.287 131.085 229.226 117.476 219.444C113.195 216.367 109.183 212.991 105.385 209.384Z" fill="#00A82D"/>
<path d="M32.5124 227.294C35.2582 228.673 38.2999 229.533 41.3049 230.133C52.4408 232.357 64.9597 229.595 75.2079 225.103C80.9284 222.596 85.4524 218.93 90.1161 214.885C93.8682 211.631 98.4923 208.26 103.626 210.084C119.908 225.448 139.967 235.617 160.898 243.713C160.372 244.346 159.844 244.977 159.31 245.604C152.889 242.781 146.371 239.868 140.141 236.663C133.185 233.083 126.613 228.812 120.193 224.356C116.621 221.878 113.056 218.659 109.08 216.821C107.121 215.915 103.721 215.579 103.605 218.482C103.547 219.95 103.953 221.418 103.902 222.906C103.854 224.348 103.698 225.795 103.467 227.218C103.011 230.013 102.163 232.762 100.82 235.261C98.2433 240.059 93.9545 243.525 89.0326 245.732C83.5364 248.195 77.3904 249.582 71.3621 248.927C65.6811 248.308 60.3374 246.121 55.3576 243.403C44.8502 237.668 34.3751 231.143 25.2168 223.343C27.7366 224.47 30.0358 226.05 32.5124 227.294Z" fill="#00A82D"/>
<path d="M124.412 177.222C128.659 174.955 132.377 171.608 135.503 167.977C140.645 162.005 143.888 154.709 146.923 147.446C146.461 152.954 146.854 158.532 145.822 163.987C144.454 171.212 140.792 178.41 135.749 183.757C130.231 189.608 122.568 192.986 115.759 197.045C111.078 199.836 105.585 202.687 104.166 208.208C101.272 205.386 98.5003 202.435 95.8464 199.362C93.4819 196.623 91.3472 193.383 89.0222 190.621C92.6567 187.438 94.6343 181.405 96.3454 178.11C96.3481 178.111 96.35 178.111 96.3527 178.112C99.5543 179.231 102.468 174.747 103.563 172.152C104.759 170.43 106.115 167.105 105.218 164.793C110.72 157.344 115.355 149.436 117.588 140.375C119.615 132.15 119.803 123.724 120.008 115.295C121.398 117.03 122.533 118.996 123.363 121.155C125.237 126.035 125.375 131.408 124.788 136.548C123.723 145.866 120.622 155.576 116.824 164.138C115.513 167.095 108.86 176.686 113.701 179.193C116.76 180.776 121.715 178.662 124.412 177.222Z" fill="#00A82D"/>
<path d="M116.298 139.513C114.202 148.49 109.695 156.45 104.272 163.815C103.991 163.571 103.662 163.359 103.252 163.204C98.8835 161.543 96.4327 166.401 95.1682 169.644C94.4349 171.522 92.7946 176.528 94.7335 178.401C92.824 182.384 91.4823 187.008 87.9847 189.926C87.959 189.947 87.9452 189.978 87.9223 190.001C84.7142 186.201 81.474 182.428 78.0481 178.801C76.2359 176.882 74.421 174.966 72.6024 173.054C72.6492 172.884 72.664 172.71 72.6005 172.544C71.5833 169.898 72.7044 166.533 73.5976 163.994C74.648 161.007 76.2258 158.23 77.641 155.405C80.861 148.983 83.7043 142.481 85.1158 135.401C86.4979 128.462 86.8875 121.304 86.4262 114.25C86.2038 110.844 86.1082 107.478 85.4769 104.117C84.9595 101.363 84.3393 98.6014 84.5644 95.8004C86.077 96.2535 87.5896 96.7065 89.1022 97.1586C89.9476 97.4123 91.7763 97.7008 92.2854 98.2136C93.0564 98.9919 93.6841 101.154 94.1096 102.26C94.6536 103.672 95.0818 105.126 95.3851 106.608C95.9539 109.387 96.1037 112.233 95.9291 115.062C95.5634 120.994 93.8872 126.754 91.9886 132.355C90.0956 137.942 87.9057 143.43 86.2047 149.08C85.4135 151.707 82.5831 158.879 86.8214 160.112C90.3125 161.126 94.5672 157.326 96.452 154.828C98.6575 151.902 100.309 148.364 102.085 145.166C108.165 134.219 112.582 122.422 113.92 109.902C115.623 111.027 117.19 112.306 118.574 113.746C118.549 113.823 118.523 113.899 118.521 113.987C118.308 122.517 118.248 131.161 116.298 139.513Z" fill="#00A82D"/>
<path d="M53.992 118.475C53.8625 115.545 51.9033 113.583 49.3614 112.449C49.1418 112.35 48.9231 112.365 48.7319 112.451C43.6262 111.868 42.3801 118.166 42.5088 122.143C42.6071 125.201 44.0885 128.236 47.3903 127.122C47.5713 127.166 47.7817 127.135 47.9821 127.016C51.0266 125.201 54.163 122.338 53.992 118.475ZM84.879 113.991C85.4258 122.063 84.9838 130.321 83.0181 138.194C81.1223 145.784 77.4033 152.626 73.9572 159.589C72.3674 162.8 70.4165 167.173 70.6959 171.057C66.3455 166.494 61.9722 161.953 57.5429 157.466C50.9246 150.762 44.0903 144.269 37.5538 137.485C37.5768 137.441 37.608 137.407 37.6255 137.358C39.8466 131.085 37.2597 124.139 35.5137 118.058C34.4532 114.364 33.2044 111.214 33.5444 107.297C33.81 104.243 33.9699 99.574 36.452 97.3777C36.5907 97.2555 36.6725 97.0937 36.7267 96.9255C37.0217 96.9136 37.3149 96.898 37.6098 96.887C43.7099 96.66 50.0304 96.909 55.4688 100.003C61.2591 103.298 63.9912 108.973 64.5389 115.442C65.0516 121.488 64.0665 127.544 63.5639 133.557C63.2533 137.271 61.7122 144.04 65.229 146.734C69.3615 149.899 73.8699 144.827 76.0138 141.733C79.1245 137.243 80.4671 131.788 80.5342 126.373C80.6105 120.237 78.7762 114.639 77.8343 108.662C77.0045 103.393 76.999 97.692 74.6556 92.8353C77.259 93.6146 79.8615 94.3929 82.464 95.1722C82.6845 95.2383 82.906 95.3045 83.1265 95.3707C82.7553 98.293 83.3186 101.186 83.8645 104.057C84.493 107.369 84.6511 110.634 84.879 113.991Z" fill="#00A82D"/>
<path d="M326.217 174.867C315.551 181.725 308.754 192.633 301.526 202.736C297.939 207.751 294.163 212.622 289.775 216.968C284.99 221.706 279.484 225.323 274.251 229.496C271.297 231.851 268.693 234.541 266.983 237.945C265.176 241.543 264.309 245.52 263.448 249.426C263.163 249.131 262.879 248.837 262.594 248.542C266.616 246.371 270.641 244.208 274.659 242.031C278.325 240.044 281.943 237.985 284.188 234.336C286.272 230.947 287.357 226.929 288.706 223.214C290.024 219.582 291.34 215.946 292.496 212.259C292.753 211.437 293.823 212.118 293.611 212.794C292.339 216.855 290.875 220.852 289.422 224.849C288.082 228.534 286.989 232.524 284.784 235.808C282.747 238.841 279.704 240.812 276.562 242.551C272.13 245.004 267.645 247.368 263.187 249.774C262.686 250.044 262.239 249.315 262.333 248.889C263.718 242.611 265.328 236.366 269.899 231.592C274.634 226.646 280.852 223.294 285.946 218.727C295.892 209.811 302.474 198.325 310.627 187.909C314.916 182.428 319.743 177.417 325.625 173.635C326.222 173.251 326.826 174.476 326.217 174.867Z" fill="#00A82D"/>
<path d="M264.343 246.499C267.388 244.493 268.817 241.134 270.888 238.275C272.948 235.43 275.731 233.317 278.254 230.915C283.31 226.1 287.566 220.243 291.055 214.215C291.462 213.512 292.41 214.442 292.063 215.041C288.533 221.141 284.205 227.105 279.088 231.977C276.089 234.832 273.014 237.283 270.747 240.816C269.083 243.41 267.569 245.997 264.937 247.732C264.344 248.121 263.739 246.897 264.343 246.499Z" fill="#00A82D"/>
<path d="M313.792 186.879C311.957 192.322 309.291 197.417 307.249 202.776C305.714 206.804 304.569 210.99 303.71 215.211C301.942 223.899 300.7 234.627 305.441 242.623C305.137 242.526 304.835 242.427 304.532 242.329C306.088 240.258 306.483 237.772 307.053 235.315C307.554 233.161 308.327 231.12 309.182 229.086C311.273 224.112 313.036 219.238 313.807 213.873C314.489 209.122 314.71 204.179 314.282 199.393C313.896 195.078 313.088 190.814 312.66 186.504C312.572 185.619 313.737 185.99 313.808 186.717C314.26 191.251 315.137 195.735 315.487 200.28C315.869 205.231 315.573 210.338 314.796 215.239C313.976 220.416 312.21 225.107 310.191 229.911C309.076 232.562 308.36 235.184 307.699 237.968C307.227 239.954 306.598 241.75 305.365 243.391C305.084 243.765 304.602 243.343 304.456 243.097C299.849 235.324 300.705 225.114 302.229 216.588C303.028 212.115 304.174 207.683 305.702 203.403C307.771 197.61 310.71 192.175 312.676 186.343C312.952 185.527 314.019 186.207 313.792 186.879Z" fill="#00A82D"/>
<path d="M304.374 242.754C304.54 234.328 304.493 225.468 306.869 217.323C309.639 207.825 310.365 197.969 312.91 188.432C313.132 187.599 314.207 188.285 314.025 188.968C311.549 198.247 310.951 207.873 308.209 217.099C305.736 225.427 305.693 234.334 305.522 242.967C305.505 243.859 304.359 243.501 304.374 242.754Z" fill="#00A82D"/>
<path d="M301.589 201.673C293.9 200.684 286.532 200.922 278.987 202.69C272.61 204.185 265.848 206.197 260.923 210.729C260.782 210.334 260.64 209.94 260.498 209.546C264.309 210.331 268.017 209.207 271.799 208.806C275.643 208.399 279.395 208.194 283.177 207.295C289.23 205.855 296.039 204.177 301.164 200.491C301.784 200.045 302.557 201.15 301.998 201.553C296.901 205.22 290.353 206.898 284.334 208.401C280.257 209.419 276.259 209.681 272.109 210.12C268.228 210.532 264.421 211.653 260.514 210.849C260.057 210.755 259.697 210.028 260.09 209.666C265.01 205.14 271.658 203.064 278.031 201.529C285.889 199.636 293.554 199.339 301.573 200.37C302.258 200.458 302.397 201.777 301.589 201.673Z" fill="#00A82D"/>
<path d="M261.502 209.131C267.78 207.041 274.313 206.098 280.772 204.76C287.665 203.332 294.514 201.703 301.426 200.364C302.107 200.231 302.489 201.532 301.736 201.678C295.116 202.961 288.55 204.497 281.953 205.891C275.309 207.295 268.558 208.211 262.095 210.364C261.411 210.592 260.827 209.356 261.502 209.131Z" fill="#00A82D"/>
<path d="M314.381 185.277C310.17 186.665 305.813 187.203 301.415 187.624C296.731 188.072 292.056 188.881 287.353 189.072C283.144 189.242 279.086 188.735 274.938 188.091C271.445 187.549 267.907 187.01 264.95 184.943C264.636 184.723 264.477 183.987 264.929 183.811C266.759 183.1 268.63 182.868 270.573 182.667C273.052 182.411 275.242 181.814 277.531 180.831C281.573 179.093 285.796 177.921 290.185 177.494C298.633 176.675 307.061 179.77 314.223 184.058C314.816 184.413 314.678 185.702 313.946 185.264C306.682 180.914 298.255 177.879 289.7 178.895C285.377 179.409 281.406 180.705 277.411 182.373C273.551 183.984 269.36 183.551 265.522 185.044C265.514 184.666 265.507 184.289 265.5 183.911C268.622 186.094 272.577 186.397 276.23 186.993C280.399 187.673 284.537 187.959 288.756 187.662C292.744 187.381 296.703 186.731 300.684 186.349C305.12 185.926 309.533 185.446 313.788 184.045C314.472 183.819 315.056 185.055 314.381 185.277Z" fill="#00A82D"/>
<path d="M265.68 183.811C266.605 184.756 268.533 184.723 269.763 184.784C271.542 184.873 273.331 184.807 275.108 184.709C279.62 184.459 284.139 184.142 288.641 183.765C297.027 183.062 305.802 181.823 314.076 184.01C314.736 184.185 314.87 185.519 314.091 185.313C304.753 182.845 294.825 184.702 285.371 185.344C281.298 185.621 277.209 186.018 273.125 186.117C270.871 186.172 266.883 186.633 265.13 184.842C264.622 184.323 265.059 183.176 265.68 183.811Z" fill="#00A82D"/>
</g>
</svg>
