<svg width="16" height="16" viewBox="0 0 16 16" fill="none" xmlns="http://www.w3.org/2000/svg">
<path d="M2.92425 13.8593C2.69 13.8593 2.5 14.065 2.5 14.3177V15.0418C2.5 15.295 2.69 15.5 2.92425 15.5L13.0758 15.5C13.3103 15.5 13.5 15.295 13.5 15.0418V14.3177C13.5 14.065 13.3103 13.8595 13.0758 13.8595H12.8125L12.8125 2.14075H13.0758C13.3103 2.14075 13.5 1.93575 13.5 1.6825V0.95875C13.5 0.7055 13.3103 0.5 13.0758 0.5L2.9245 0.5C2.69 0.5 2.5 0.7055 2.5 0.95875V1.6825C2.5 1.93575 2.69 2.14075 2.92425 2.14075H3.1875L3.1875 13.8593H2.92425ZM12.3542 2.1405L12.3542 13.8593H11.923C12.0345 13.8593 12.125 13.7755 12.125 13.672V13.1095C12.125 13.006 12.0355 12.9227 11.9245 12.922C11.9245 10.8498 11.5928 8.83575 9.19175 8.14175L9.073 8.10425C8.969 8.07125 8.845 8.03225 8.7815 8C8.845 7.96825 8.96775 7.92925 9.07075 7.89675L9.18425 7.8605C11.5925 7.164 11.9243 5.15025 11.9243 3.078C12.035 3.07725 12.1247 2.99375 12.1247 2.89075V2.32825C12.1247 2.22475 12.0345 2.1405 11.9227 2.1405H12.3542ZM4.98775 3.3125C5.20275 5.2425 8 6.41575 8 6.41575C8 6.41575 10.7973 5.2425 11.0128 3.3125H11.4645C11.4265 5.79775 10.7612 6.9175 9.05325 7.41175L8.936 7.4485C8.60775 7.552 8.29775 7.65 8.29775 7.99975C8.29775 8.35 8.60875 8.44825 8.9385 8.55175L9.06025 8.5905C10.7617 9.0825 11.4262 10.2015 11.4643 12.6872H4.5355C4.57375 10.2015 5.23875 9.08175 6.94625 8.58825L7.0605 8.552C7.3905 8.4485 7.7025 8.35025 7.7025 7.99975C7.7025 7.65 7.392 7.552 7.06325 7.4485L6.93975 7.4095C5.2385 6.9175 4.57375 5.79825 4.5355 3.31225L4.98775 3.3125ZM3.646 2.1405H4.07675C3.96575 2.1405 3.875 2.22475 3.875 2.32825V2.89075C3.875 2.994 3.965 3.07725 4.07575 3.07775C4.07575 5.15025 4.4075 7.1645 6.80875 7.8585L6.92875 7.8965C7.03175 7.929 7.155 7.968 7.21825 7.99975C7.15475 8.032 7.03025 8.071 6.92625 8.104L6.81525 8.13925C4.4075 8.83525 4.07575 10.8492 4.07575 12.9218C3.96525 12.9223 3.875 13.0057 3.875 13.1095V13.672C3.875 13.7755 3.9655 13.8593 4.07675 13.8593H3.646L3.646 2.1405Z" fill="#00A82D"/>
</svg>
