<svg width="16" height="16" viewBox="0 0 16 16" fill="none" xmlns="http://www.w3.org/2000/svg">
<path d="M13.0758 2.14075C13.31 2.14075 13.5 1.935 13.5 1.68225V0.95825C13.5 0.705 13.31 0.5 13.0758 0.5H2.92425C2.68975 0.5 2.5 0.705 2.5 0.95825V1.68225C2.5 1.935 2.68975 2.1405 2.92425 2.1405H3.1875V13.8593H2.92425C2.68975 13.8593 2.5 14.0642 2.5 14.3175V15.0413C2.5 15.2945 2.68975 15.5 2.92425 15.5H13.0755C13.31 15.5 13.5 15.2945 13.5 15.0413V14.3175C13.5 14.0642 13.31 13.8593 13.0758 13.8593H12.8125V2.14075H13.0758ZM3.64575 13.8595V2.14075H4.077C3.9655 2.14075 3.875 2.2245 3.875 2.328V2.8905C3.875 2.994 3.9645 3.07725 4.0755 3.078C4.0755 5.15025 4.40725 7.16425 6.80825 7.85825L6.927 7.89575C7.031 7.92875 7.155 7.96775 7.2185 8C7.155 8.03175 7.03225 8.07075 6.92925 8.10325L6.81575 8.1395C4.4075 8.836 4.07575 10.8498 4.07575 12.922C3.965 12.9227 3.87525 13.0063 3.87525 13.1093V13.6718C3.87525 13.7753 3.9655 13.8595 4.07725 13.8595H3.64575ZM11.0122 12.6875C10.7972 10.7575 8 9.58425 8 9.58425C8 9.58425 5.20275 10.7575 4.98725 12.6875H4.5355C4.5735 10.2022 5.23875 9.0825 6.94675 8.58825L7.064 8.5515C7.39225 8.448 7.70225 8.35 7.70225 8.00025C7.70225 7.65 7.39125 7.55175 7.0615 7.44825L6.93975 7.4095C5.23825 6.9175 4.57375 5.7985 4.53575 3.31275H11.4645C11.4263 5.7985 10.7612 6.91825 9.05375 7.41175L8.9395 7.448C8.6095 7.5515 8.2975 7.64975 8.2975 8.00025C8.2975 8.35 8.608 8.448 8.93675 8.5515L9.06025 8.5905C10.7615 9.0825 11.4263 10.2017 11.4645 12.6877L11.0122 12.6875ZM12.354 13.8595H11.9233C12.0343 13.8595 12.125 13.7753 12.125 13.6718V13.1093C12.125 13.006 12.035 12.9227 11.9242 12.9222C11.9242 10.8497 11.5925 8.8355 9.19125 8.1415L9.07125 8.1035C8.96825 8.071 8.845 8.032 8.78175 8.00025C8.84525 7.968 8.96975 7.929 9.07375 7.896L9.18475 7.86075C11.5925 7.16475 11.9242 5.15075 11.9242 3.07825C12.0347 3.07775 12.125 2.99425 12.125 2.8905V2.328C12.125 2.2245 12.0345 2.14075 11.9233 2.14075H12.354V13.8595Z" fill="#00A82D"/>
</svg>
