<svg width="29" height="29" viewBox="0 0 29 29" fill="none" xmlns="http://www.w3.org/2000/svg">
<g clip-path="url(#clip0_911_1129)">
<path fill-rule="evenodd" clip-rule="evenodd" d="M15.3544 16.0625L19.4373 20.1454C19.9648 20.6728 20.324 21.3448 20.4696 22.0764C20.6151 22.808 20.5404 23.5663 20.255 24.2554C19.9695 24.9446 19.4861 25.5336 18.8659 25.9479C18.2456 26.3623 17.5165 26.5835 16.7705 26.5834H16.5277C15.815 26.5847 15.1149 26.3953 14.5001 26.0348C13.8853 26.3953 13.1852 26.5847 12.4725 26.5834H12.2308C11.4848 26.5837 10.7555 26.3627 10.1351 25.9485C9.51464 25.5342 9.03105 24.9452 8.74544 24.256C8.45983 23.5668 8.38505 22.8084 8.53055 22.0767C8.67604 21.345 9.03529 20.6729 9.56283 20.1454L13.6458 16.0613C13.8724 15.8347 14.1797 15.7075 14.5001 15.7075C14.8205 15.7075 15.1278 15.8347 15.3544 16.0613M22.8134 8.45842C23.7766 8.45841 24.7033 8.82693 25.4034 9.4884C26.1035 10.1499 26.524 11.0541 26.5786 12.0158L26.5846 12.2296V12.4725C26.5863 13.1852 26.3968 13.8854 26.036 14.5001C26.3405 15.0185 26.5315 15.613 26.575 16.2522L26.5846 16.5277V16.7693C26.585 17.4943 26.3765 18.204 25.984 18.8134C25.5915 19.4229 25.0316 19.9063 24.3714 20.2058C23.7112 20.5053 22.9787 20.6082 22.2616 20.5021C21.5444 20.396 20.8731 20.0855 20.3279 19.6077L20.1466 19.4373L16.0625 15.3544C15.8546 15.1462 15.7298 14.8692 15.7116 14.5756C15.6933 14.2819 15.7829 13.9917 15.9634 13.7594L16.0637 13.6458L20.1466 9.56284C20.8536 8.85591 21.8136 8.45866 22.8134 8.45842ZM6.18675 8.45842C7.10508 8.45842 7.98717 8.79192 8.67229 9.39246L8.85354 9.56284L12.9377 13.6458C13.1456 13.854 13.2703 14.1309 13.2886 14.4246C13.3068 14.7182 13.2173 15.0084 13.0368 15.2408L12.9365 15.3544L8.85354 19.4373C8.3388 19.9514 7.6864 20.3057 6.97493 20.4575C6.26347 20.6093 5.52329 20.5521 4.84356 20.2929C4.16384 20.0337 3.57356 19.5834 3.14384 18.9964C2.71413 18.4094 2.4633 17.7107 2.42158 16.9844L2.41675 16.7705V16.5277C2.41675 15.7845 2.61854 15.0922 2.96533 14.5001C2.65207 13.9658 2.46755 13.366 2.42642 12.748L2.41675 12.4737V12.232C2.41643 11.7366 2.51374 11.2459 2.70312 10.7881C2.8925 10.3303 3.17023 9.91428 3.52046 9.56383C3.87068 9.21339 4.28652 8.93539 4.74422 8.74572C5.20192 8.55604 5.6913 8.45842 6.18675 8.45842ZM12.4725 2.41675C13.1852 2.41571 13.8852 2.6051 14.5001 2.96534C15.0343 2.65207 15.6342 2.46756 16.2522 2.42642L16.5265 2.41675H16.7681C17.4931 2.41634 18.2028 2.62487 18.8122 3.0174C19.4217 3.40992 19.9051 3.96979 20.2046 4.62997C20.5041 5.29015 20.607 6.02267 20.5009 6.7398C20.3948 7.45694 20.0843 8.1283 19.6065 8.6735L19.4361 8.85475L15.3532 12.9389C15.1449 13.1468 14.868 13.2715 14.5744 13.2898C14.2807 13.308 13.9905 13.2185 13.7582 13.038L13.6446 12.9377L9.56162 8.85475C9.04703 8.34022 8.69229 7.68779 8.5402 6.97616C8.3881 6.26453 8.44515 5.52409 8.70445 4.84415C8.96375 4.16421 9.41424 3.57382 10.0016 3.14418C10.5889 2.71454 11.288 2.46401 12.0145 2.42279L12.2296 2.41675H12.4725Z" fill="#00A82D"/>
</g>
<defs>
<clipPath id="clip0_911_1129">
<rect width="29" height="29" fill="white"/>
</clipPath>
</defs>
</svg>
