<svg width="24" height="24" viewBox="0 0 24 24" fill="none" xmlns="http://www.w3.org/2000/svg">
<path d="M8.55 21.9999C8.08334 21.9999 7.675 21.8582 7.325 21.5749C6.975 21.2916 6.74167 20.9249 6.625 20.4749L5.5 15.9999H18.5L17.375 20.4749C17.2583 20.9249 17.025 21.2916 16.675 21.5749C16.325 21.8582 15.9167 21.9999 15.45 21.9999H8.55ZM12 7.99989C12 6.49989 12.5083 5.19989 13.525 4.09989C14.5417 2.99989 15.8083 2.33322 17.325 2.09989C17.4083 2.08322 17.4833 2.09155 17.55 2.12489C17.6167 2.15822 17.6833 2.19989 17.75 2.24989C17.8167 2.29989 17.8627 2.36222 17.888 2.43689C17.9133 2.51155 17.9173 2.59089 17.9 2.67489C17.7167 3.99155 17.179 5.13722 16.287 6.11189C15.395 7.08655 14.2993 7.68255 13 7.89989V9.99989H20C20.2833 9.99989 20.521 10.0959 20.713 10.2879C20.905 10.4799 21.0007 10.7172 21 10.9999V12.9999C21 13.5499 20.804 14.0209 20.412 14.4129C20.02 14.8049 19.5493 15.0006 19 14.9999H5C4.45 14.9999 3.979 14.8039 3.587 14.4119C3.195 14.0199 2.99934 13.5492 3 12.9999V10.9999C3 10.7166 3.096 10.4789 3.288 10.2869C3.48 10.0949 3.71733 9.99922 4 9.99989H11V7.89989C9.7 7.68322 8.604 7.08722 7.712 6.11189C6.82 5.13655 6.28267 3.99122 6.1 2.67589C6.08333 2.59255 6.08767 2.51355 6.113 2.43889C6.13833 2.36422 6.184 2.30155 6.25 2.25089C6.31667 2.20089 6.38333 2.15922 6.45 2.12589C6.51667 2.09255 6.59167 2.08422 6.675 2.10089C8.19167 2.33422 9.45834 3.00089 10.475 4.10089C11.4917 5.20089 12 6.50055 12 7.99989Z" fill="#00A82D"/>
</svg>
