<svg width="23" height="23" viewBox="0 0 23 23" fill="none" xmlns="http://www.w3.org/2000/svg">
<path d="M20.125 15.4194V10.6354C20.125 6.52417 20.125 4.47046 18.8619 3.193C17.5988 1.9165 15.5652 1.9165 11.5 1.9165C7.43379 1.9165 5.40117 1.9165 4.13808 3.193C2.875 4.47046 2.875 6.52609 2.875 10.6354V15.4204C2.875 18.3874 2.875 19.8718 3.57842 20.5197C3.91383 20.8292 4.33742 21.0238 4.78879 21.0755C5.73467 21.1838 6.83963 20.2063 9.04858 18.2523C10.0261 17.3888 10.5139 16.9566 11.0783 16.8435C11.3563 16.786 11.6437 16.786 11.9217 16.8435C12.4871 16.9566 12.9749 17.3888 13.9514 18.2523C16.1604 20.2063 17.2653 21.1838 18.2112 21.0745C18.6616 21.0238 19.0862 20.8292 19.4216 20.5197C20.125 19.8718 20.125 18.3874 20.125 15.4194Z" stroke="#727272" stroke-width="1.5"/>
<path d="M14.375 5.75H8.625" stroke="#727272" stroke-width="1.5" stroke-linecap="round"/>
</svg>
