<svg width="20" height="20" viewBox="0 0 20 20" fill="none" xmlns="http://www.w3.org/2000/svg">
<path d="M13.9016 16.5L19.9016 18.1L19.5016 20L10.1016 17.5L0.701563 20L0.201563 18.1L6.20156 16.5L0.101562 14.9L0.601562 13L10.0016 15.5L19.4016 13L19.9016 14.9L13.9016 16.5ZM14.0716 5.92C13.9116 5.7 13.7116 5.5 13.5016 5.33C13.0516 4.9 12.5016 4.59 12.0616 4.13C11.0016 3.08 10.7916 1.34 11.4416 0C10.7916 0.17 10.1816 0.54 9.67156 0.95C7.84156 2.46 7.11156 5.1 8.00156 7.38C8.00156 7.45 8.04156 7.53 8.04156 7.62C8.04156 7.78 7.93156 7.92 7.79156 8C7.68446 8.02852 7.57099 8.02152 7.46821 7.98005C7.36543 7.93857 7.27888 7.86487 7.22156 7.77C6.42156 6.74 6.29156 5.26 6.84156 4.07C5.65156 5.06 5.00156 6.72 5.11156 8.29C5.13156 8.65 5.18156 9 5.30156 9.36C5.41156 9.8 5.59156 10.23 5.82156 10.61C6.57156 11.86 7.90156 12.76 9.32156 12.94C10.8416 13.14 12.4616 12.85 13.6316 11.79C14.9316 10.59 15.4016 8.67 14.7116 7L14.6116 6.83C14.4716 6.5 14.2816 6.2 14.0416 5.93L14.0716 5.92ZM11.8316 10.47C11.6316 10.65 11.3116 10.83 11.0516 10.91C10.2616 11.19 9.46156 10.79 9.00156 10.31C9.84156 10.11 10.3416 9.47 10.5016 8.83C10.6116 8.25 10.3916 7.78 10.2916 7.22C10.2116 6.69 10.2216 6.23 10.4216 5.73C10.5516 6 10.6916 6.28 10.8616 6.5C11.4116 7.22 12.2716 7.54 12.4516 8.5C12.4716 8.63 12.5016 8.72 12.5016 8.83C12.5016 9.43 12.2616 10.07 11.8216 10.47" fill="black"/>
</svg>
