<svg width="17" height="21" viewBox="0 0 17 21" fill="none" xmlns="http://www.w3.org/2000/svg">
<path d="M14.2422 0.0537109C13.6403 0.153887 13.0608 0.188477 12.5846 0.292246C11.9198 0.435098 11.4975 0.633203 11.246 1.29895C11.1831 1.47324 11.201 1.56848 11.2639 1.68572C11.3268 1.80342 11.4661 1.93369 11.6458 2.03611C11.8254 2.13898 12.0411 2.21266 12.2253 2.24365C12.4049 2.27465 12.5622 2.24365 12.5622 2.24365H12.5667C13.3708 1.87709 13.9233 0.993477 14.2422 0.0537109ZM10.9764 2.55945C10.8237 3.46238 10.37 4.29164 9.84439 5.08676C9.82642 5.18559 9.80396 5.27992 9.77701 5.37426C9.65572 5.79203 9.4401 6.19184 9.13463 6.53324L9.13912 6.53773C9.48502 6.2727 9.83541 6.11098 10.1813 6.03012C10.8237 5.1227 11.4751 4.11195 11.7266 2.95207C11.5604 2.89861 11.3987 2.82809 11.2415 2.73869C11.1516 2.68613 11.0618 2.62639 10.9764 2.55945ZM7.12662 2.94623C6.59205 2.94174 5.98111 3.04775 5.31178 3.21576C4.25611 3.48035 3.11061 3.87836 2.01002 4.11195C2.8276 4.86664 3.461 5.66176 4.13033 6.19633C4.97936 6.87016 5.82838 7.20258 7.43658 6.69945C8.25865 6.4434 8.81119 5.81449 8.99986 5.14965C9.19303 4.4848 9.04928 3.81098 8.44732 3.33391C8.10592 3.06393 7.6567 2.95072 7.12662 2.94623ZM10.7743 6.73539C10.3835 6.7309 9.99263 6.87016 9.52545 7.26547C8.46529 8.15941 8.95494 9.09379 9.42662 9.30492H9.43111C9.53892 9.35434 9.81744 9.3723 10.1723 9.29594C10.5317 9.21957 10.9629 9.05785 11.4077 8.84223C12.059 8.52777 12.7284 8.09203 13.245 7.65629C12.652 7.43168 12.1174 7.10824 11.6098 6.92406C11.3448 6.82523 11.0977 6.75336 10.8506 6.73988C10.8237 6.73988 10.7967 6.73539 10.7743 6.73539ZM7.98463 9.64633C5.82838 9.66879 3.88326 9.85297 2.47271 10.1225C1.71354 10.2663 1.10215 10.4414 0.71627 10.6166C0.523106 10.702 0.387891 10.7918 0.323203 10.8547C0.299844 10.8772 0.295352 10.8817 0.289062 10.8907C0.295352 10.8996 0.299844 10.9041 0.323203 10.9266C0.387891 10.9895 0.523106 11.0793 0.71627 11.1647C1.10215 11.3399 1.71354 11.5151 2.47271 11.6588C3.99557 11.9508 6.13385 12.135 8.49674 12.135C10.8596 12.135 12.9979 11.9508 14.5208 11.6588C15.2799 11.5151 15.8909 11.3399 16.2772 11.1647C16.4704 11.0793 16.6051 10.9895 16.6725 10.9266C16.695 10.9041 16.6995 10.8996 16.704 10.8907C16.6995 10.8817 16.695 10.8772 16.6725 10.8547C16.6051 10.7918 16.4704 10.702 16.2772 10.6166C15.8909 10.4414 15.2799 10.2663 14.5208 10.1225C13.6538 9.95629 12.5846 9.82602 11.3897 9.74066C11.0303 9.8934 10.6799 10.0147 10.343 10.0866C9.8983 10.1809 9.48053 10.2123 9.09869 10.0416C8.99986 9.99672 8.90553 9.94281 8.82018 9.87992C8.86061 10.2752 8.91002 10.6705 8.96392 11.0704L8.16432 11.1871C8.08795 10.675 8.02506 10.1674 7.98463 9.64633ZM0.605313 11.9957L0.959746 13.7657C1.41795 14.1565 2.44127 14.5473 3.744 14.7989C5.12311 15.0594 6.81217 15.1942 8.49674 15.1942C10.1813 15.1942 11.8704 15.0594 13.2495 14.7989C14.5522 14.5473 15.5764 14.1565 16.0346 13.7657L16.3895 11.9957C15.9313 12.1709 15.3518 12.3237 14.6735 12.4539C13.0743 12.7594 10.9001 12.9436 8.49674 12.9436C6.09342 12.9436 3.9192 12.7594 2.31998 12.4539C1.64166 12.3237 1.06307 12.1709 0.605313 11.9957ZM2.60748 15.3739L3.13307 19.5696C3.42506 19.9334 4.11686 20.3108 5.05123 20.5534C6.03951 20.8094 7.26588 20.9442 8.49674 20.9442C9.7276 20.9442 10.954 20.8094 11.9422 20.5534C12.8766 20.3108 13.5684 19.9334 13.8604 19.5696L14.386 15.3739C14.076 15.4547 13.7481 15.5221 13.4022 15.5895C11.9512 15.868 10.2262 16.0028 8.49674 16.0028C6.76725 16.0028 5.04225 15.868 3.59127 15.5895C3.24537 15.5266 2.91744 15.4547 2.60748 15.3739Z" fill="black"/>
</svg>
