<svg width="15" height="15" viewBox="0 0 15 15" fill="none" xmlns="http://www.w3.org/2000/svg">
<path fill-rule="evenodd" clip-rule="evenodd" d="M6.61313 1.40647H6.60063C6.52938 1.40647 6.47438 1.40647 6.42188 1.4096C6.09715 1.42934 5.78469 1.54084 5.52082 1.73113C5.25695 1.92143 5.05251 2.18271 4.93125 2.4846C4.90462 2.55547 4.87961 2.62695 4.85625 2.69897L4.85375 2.70647C4.78928 2.87689 4.68029 3.02689 4.53813 3.14085C4.39625 3.14585 4.26063 3.15147 4.13063 3.1596C3.10313 3.2196 2.45125 3.38835 1.98188 3.85772C1.82938 4.01022 1.70813 4.18272 1.61313 4.38147C1.64967 4.39401 1.68451 4.41101 1.71688 4.4321C3.02938 5.28522 3.85438 5.8196 4.53938 6.16147C4.56105 6.04657 4.62488 5.94392 4.71835 5.87366C4.81182 5.8034 4.92817 5.77061 5.04457 5.78172C5.16097 5.79284 5.26901 5.84706 5.34749 5.93374C5.42597 6.02042 5.46922 6.1333 5.46875 6.25022V6.53647C6.79375 6.93647 8.20625 6.93647 9.53125 6.53647V6.25022C9.5316 6.13386 9.57521 6.02179 9.65361 5.9358C9.732 5.84981 9.83958 5.79606 9.95541 5.78499C10.0712 5.77392 10.1871 5.80633 10.2803 5.87591C10.3736 5.9455 10.4376 6.04728 10.46 6.16147C11.1456 5.81897 11.9706 5.28522 13.2831 4.4321C13.3157 4.41099 13.3508 4.39399 13.3875 4.38147C13.2949 4.18708 13.1698 4.00994 13.0175 3.85772C12.5488 3.38897 11.8969 3.22022 10.8694 3.15897C10.7463 3.1521 10.6175 3.14647 10.4831 3.14147C10.3259 3.01334 10.2044 2.84669 10.1306 2.65772L10.1281 2.6521C10.1056 2.58522 10.0881 2.53272 10.0688 2.48397C9.94741 2.1822 9.74293 1.92105 9.47906 1.73087C9.2152 1.54069 8.90279 1.42929 8.57813 1.4096C8.51859 1.40679 8.45898 1.40575 8.39938 1.40647H6.61313ZM9.26125 3.01022L9.25813 3.00335L9.255 2.99585L9.25188 2.98835L9.25 2.9821L9.24875 2.97897L9.24625 2.97147L9.24375 2.96397L9.2425 2.96022L9.24063 2.95522L9.23938 2.95085L9.23813 2.9471C9.22596 2.90906 9.21283 2.87134 9.19875 2.83397C9.14366 2.69674 9.05075 2.57796 8.93082 2.49144C8.81089 2.40492 8.66886 2.35422 8.52125 2.34522C8.47648 2.34366 8.43167 2.34324 8.38688 2.34397H6.61313C6.52375 2.34397 6.49875 2.34397 6.47875 2.34522C6.33115 2.35422 6.18912 2.40492 6.06919 2.49144C5.94926 2.57796 5.85635 2.69674 5.80125 2.83397L5.79938 2.83835L5.79438 2.85147C5.77708 2.89903 5.76082 2.94696 5.74563 2.99522L5.745 2.99897L5.74313 3.00335L5.74188 3.00835L5.74063 3.0121L5.73813 3.0196L5.735 3.0271L5.73438 3.03022L5.73188 3.03647L5.72875 3.04397L5.72625 3.05147L5.72313 3.05772C5.71442 3.08041 5.70525 3.10354 5.69563 3.12585L6.25 3.12522H9.31C9.29228 3.08745 9.27644 3.04909 9.26125 3.01022Z" fill="#00A82D"/>
<path opacity="0.5" d="M1.35125 5.3125C1.25 6.00188 1.25 6.90625 1.25 8.125C1.25 10.4819 1.25 11.6606 1.9825 12.3925C2.71438 13.125 3.89313 13.125 6.25 13.125H8.75C11.1069 13.125 12.2856 13.125 13.0175 12.3925C13.75 11.6606 13.75 10.4819 13.75 8.125C13.75 6.90625 13.75 6.00188 13.6487 5.3125C12.2256 6.2375 11.3138 6.82688 10.4688 7.19063V7.5C10.4694 7.56156 10.4579 7.62264 10.435 7.67976C10.412 7.73689 10.3781 7.78893 10.335 7.83292C10.248 7.92177 10.1293 7.97242 10.005 7.97375C9.88068 7.97508 9.76092 7.92696 9.67208 7.83999C9.58323 7.75302 9.53258 7.63432 9.53125 7.51C8.19983 7.86098 6.80017 7.86098 5.46875 7.51C5.46742 7.63432 5.41677 7.75302 5.32792 7.83999C5.23908 7.92696 5.11932 7.97508 4.995 7.97375C4.87068 7.97242 4.75198 7.92177 4.66501 7.83292C4.57804 7.74408 4.52992 7.62432 4.53125 7.5V7.19C3.68625 6.8275 2.775 6.2375 1.35125 5.3125Z" fill="#00A82D"/>
</svg>
