<?xml version="1.0" encoding="UTF-8" standalone="no" ?>
<!DOCTYPE svg PUBLIC "-//W3C//DTD SVG 1.1//EN" "http://www.w3.org/Graphics/SVG/1.1/DTD/svg11.dtd">
<svg xmlns="http://www.w3.org/2000/svg" xmlns:xlink="http://www.w3.org/1999/xlink" version="1.1" width="1080" height="1080" viewBox="0 0 1080 1080" xml:space="preserve">
<desc>Created with Fabric.js 5.2.4</desc>
<defs>
</defs>
<g transform="matrix(1 0 0 1 540 540)" id="d1dbca96-8744-4fc5-87db-a2046f5cc129"  >
<rect style="stroke: none; stroke-width: 1; stroke-dasharray: none; stroke-linecap: butt; stroke-dashoffset: 0; stroke-linejoin: miter; stroke-miterlimit: 4; fill: rgb(255,255,255); fill-rule: nonzero; opacity: 1; visibility: hidden;" vector-effect="non-scaling-stroke"  x="-540" y="-540" rx="0" ry="0" width="1080" height="1080" />
</g>
<g transform="matrix(1 0 0 1 540 540)" id="dae80451-055a-4dd1-8943-501c78a09f55"  >
</g>
<g transform="matrix(1 0 0 1 540 540)"  >
<g style="" vector-effect="non-scaling-stroke"   >
		<g transform="matrix(1 0 0 1 66.16 -1.86)"  >
<path style="stroke: none; stroke-width: 1; stroke-dasharray: none; stroke-linecap: butt; stroke-dashoffset: 0; stroke-linejoin: miter; stroke-miterlimit: 4; fill: rgb(0,168,45); fill-rule: nonzero; opacity: 1;" vector-effect="non-scaling-stroke"  transform=" translate(-396.16, -257.66)" d="M 389.307 247.215 L 413.878 257.501 C 412.605 257.85 411.352 258.246 410.088 258.614 L 406.345 259.822 C 403.846 260.624 401.367 261.502 398.896 262.38 C 396.426 263.276 393.956 264.172 391.514 265.144 C 389.11 266.088 386.696 267.051 384.329 268.098 C 383.009 259.624 381.029 250.575 378.437 248.47 L 389.307 247.215 Z" stroke-linecap="round" />
</g>
		<g transform="matrix(1 0 0 1 69.1 11.36)"  >
<path style="stroke: none; stroke-width: 1; stroke-dasharray: none; stroke-linecap: butt; stroke-dashoffset: 0; stroke-linejoin: miter; stroke-miterlimit: 4; fill: rgb(0,168,45); fill-rule: nonzero; opacity: 1;" vector-effect="non-scaling-stroke"  transform=" translate(-399.1, -270.88)" d="M 413.879 257.501 L 413.879 274.977 C 409.335 277.091 399.152 280.431 386.301 284.262 C 386.301 284.262 385.631 276.468 384.33 268.117 C 386.829 267.419 389.308 266.635 391.76 265.824 C 394.258 265.022 396.738 264.144 399.208 263.267 C 401.679 262.37 404.149 261.474 406.591 260.502 L 410.249 259.049 C 411.456 258.53 412.682 258.048 413.879 257.501 Z" stroke-linecap="round" />
</g>
		<g transform="matrix(1 0 0 1 -92.26 8.75)"  >
<path style="stroke: none; stroke-width: 1; stroke-dasharray: none; stroke-linecap: butt; stroke-dashoffset: 0; stroke-linejoin: miter; stroke-miterlimit: 4; fill: rgb(0,0,0); fill-rule: nonzero; opacity: 1;" vector-effect="non-scaling-stroke"  transform=" translate(-237.74, -268.27)" d="M 237.556 266.739 C 238.489 266.456 239.404 266.144 240.309 265.776 L 239.055 270.759 C 237.835 269.556 236.541 268.43 235.18 267.39 C 235.972 267.192 236.773 266.984 237.556 266.739 Z" stroke-linecap="round" />
</g>
		<g transform="matrix(1 0 0 1 -58.07 -27.39)"  >
<path style="stroke: none; stroke-width: 1; stroke-dasharray: none; stroke-linecap: butt; stroke-dashoffset: 0; stroke-linejoin: miter; stroke-miterlimit: 4; fill: rgb(0,168,45); fill-rule: nonzero; opacity: 1;" vector-effect="non-scaling-stroke"  transform=" translate(-271.93, -232.13)" d="M 321.007 285.819 C 307.892 283.706 272.017 272.023 265.558 267.107 C 260.806 263.483 255.366 257.548 254.658 243.393 C 253.622 249.838 252.556 256.284 251.463 262.729 L 251.425 262.955 C 252.227 262.502 253.091 262.168 253.989 261.964 C 254.999 261.707 256.045 261.624 257.082 261.719 C 256.198 262.269 255.225 262.662 254.206 262.88 C 253.288 263.111 252.341 263.2 251.396 263.144 L 248.822 278.1 C 251.17 279.695 253.499 281.299 255.799 282.951 L 259.42 285.536 L 263.013 288.169 C 265.407 289.924 267.812 291.661 270.169 293.472 C 272.526 295.275 274.911 297.03 277.249 298.87 L 277.259 298.879 C 277.311 298.927 277.347 298.99 277.363 299.059 C 279.173 298.54 281.002 298.058 282.822 297.558 L 288.639 296.067 C 292.524 295.086 296.418 294.18 300.302 293.236 C 304.215 292.359 308.109 291.443 312.022 290.613 C 315.935 289.773 319.848 288.952 323.789 288.235 C 319.942 289.33 316.057 290.33 312.182 291.311 C 308.307 292.302 304.404 293.199 300.519 294.152 C 296.616 295.02 292.722 295.935 288.809 296.775 L 282.935 298.011 C 281.077 298.37 279.229 298.747 277.372 299.087 C 277.372 299.096 277.391 299.106 277.391 299.115 C 277.73 302.918 278.051 306.721 278.277 310.533 C 277.683 306.815 277.183 303.088 276.703 299.351 C 274.317 297.662 271.988 295.907 269.631 294.189 C 267.227 292.453 264.87 290.641 262.503 288.858 L 258.949 286.169 L 255.441 283.432 C 253.206 281.705 251 279.931 248.813 278.138 L 248.058 282.536 C 248.039 282.642 247.979 282.736 247.891 282.798 C 247.803 282.86 247.693 282.884 247.587 282.866 C 247.564 282.864 247.542 282.858 247.521 282.847 L 237.301 279.289 C 237.198 279.25 237.112 279.175 237.06 279.078 C 237.008 278.981 236.993 278.868 237.018 278.761 L 239.017 270.891 C 237.27 269.935 235.594 268.857 234.001 267.664 C 232.747 268.57 231.511 269.485 230.248 270.382 C 228.872 271.335 227.514 272.316 226.118 273.26 C 227.401 272.174 228.702 271.118 230.003 270.051 C 231.21 269.06 232.435 268.098 233.661 267.126 C 233.67 267.056 233.693 266.989 233.727 266.928 C 233.001 264.135 232.36 261.323 231.691 258.511 C 230.983 255.604 230.333 252.679 229.701 249.754 C 229.041 246.828 228.409 243.903 227.825 240.959 C 227.212 238.024 226.646 235.09 226.118 232.136 C 226.929 235.024 227.702 237.921 228.419 240.827 C 229.173 243.724 229.871 246.64 230.55 249.556 C 231.247 252.471 231.926 255.387 232.549 258.312 C 233.161 261.087 233.784 263.861 234.349 266.645 C 235.358 266.409 236.367 266.192 237.385 266.013 C 238.366 265.843 239.347 265.711 240.346 265.626 L 241.449 261.294 L 245.937 243.828 L 245.947 243.799 L 245.947 243.79 C 246.51 242.263 246.954 240.695 247.276 239.1 C 247.644 237.548 247.634 235.93 247.248 234.382 C 247.011 233.646 246.581 232.988 246.003 232.476 C 245.7 232.221 245.378 231.987 245.042 231.777 L 244.514 231.428 L 244.24 231.202 C 244.202 231.192 244.174 231.164 244.07 231.126 C 242.488 230.766 240.88 230.529 239.262 230.419 C 232.699 229.824 226.109 229.475 219.528 229.116 C 222.818 229.164 226.118 229.258 229.418 229.381 C 232.718 229.503 236.009 229.635 239.309 229.89 C 240.129 229.956 240.959 230.032 241.779 230.126 C 242.627 230.192 243.467 230.337 244.287 230.56 C 244.424 230.604 244.551 230.671 244.665 230.758 L 244.872 230.928 L 245.381 231.249 C 245.748 231.467 246.098 231.714 246.427 231.985 C 247.103 232.563 247.612 233.313 247.898 234.155 C 248.349 235.812 248.398 237.553 248.04 239.232 C 247.734 240.87 247.293 242.48 246.72 244.045 L 242.326 261.511 L 237.97 278.591 L 247.342 281.913 L 250.934 262.634 C 252.151 256.199 253.392 249.766 254.658 243.337 C 254.449 237.143 254.885 230.945 255.96 224.842 L 238.696 223.03 C 236.957 222.87 235.31 222.175 233.982 221.039 C 232.569 220.832 231.168 220.549 229.786 220.19 C 229.428 220.105 229.07 220.01 228.711 219.897 C 228.532 219.84 228.353 219.784 228.165 219.718 C 228.143 219.708 228.121 219.702 228.098 219.699 L 228.07 219.699 C 228.006 219.706 227.943 219.718 227.881 219.737 C 227.216 219.945 226.572 220.217 225.958 220.548 C 224.657 221.18 223.375 221.879 222.074 222.539 C 220.782 223.228 219.462 223.879 218.123 224.502 C 220.422 222.646 222.909 221.036 225.543 219.699 C 226.231 219.35 226.951 219.068 227.693 218.859 C 227.814 218.835 227.937 218.823 228.061 218.821 C 228.209 218.83 228.356 218.862 228.494 218.916 C 228.645 218.991 228.815 219.048 228.975 219.114 L 230.003 219.491 C 231.314 219.954 232.624 220.444 233.925 220.982 C 232.558 219.68 231.577 217.576 232.153 214.141 L 233.029 190.842 L 229.494 190.116 C 229.494 190.116 226.892 190.701 232.03 175.848 L 240.242 152.21 C 240.242 152.21 207.987 156.192 206.818 157.362 C 205.649 158.532 213.597 237.383 224.591 275.053 C 224.591 275.053 274.619 310.854 277.655 312.024 C 279.135 312.581 306.865 305.928 337.159 297.936 C 337.158 297.936 334.113 287.933 321.007 285.819 Z M 215.275 175.065 C 214.512 170.422 213.776 165.779 213.135 161.118 C 214.153 165.713 215.077 170.328 215.982 174.942 C 216.888 179.556 217.718 184.19 218.585 188.814 C 219.377 193.447 220.216 198.08 220.97 202.723 L 222.092 209.687 C 222.432 212.018 222.799 214.339 223.111 216.67 C 222.592 214.377 222.13 212.074 221.63 209.772 L 220.254 202.845 C 219.349 198.231 218.528 193.598 217.661 188.974 C 216.869 184.341 216.03 179.717 215.275 175.065 Z" stroke-linecap="round" />
</g>
		<g transform="matrix(1 0 0 1 -34.28 -139.25)"  >
<path style="stroke: none; stroke-width: 1; stroke-dasharray: none; stroke-linecap: butt; stroke-dashoffset: 0; stroke-linejoin: miter; stroke-miterlimit: 4; fill: rgb(0,0,0); fill-rule: nonzero; opacity: 1;" vector-effect="non-scaling-stroke"  transform=" translate(-295.72, -120.27)" d="M 302.442 120.391 C 300.727 120.391 298.539 121.325 296.361 121.797 C 294.183 122.268 289.195 121.325 288.724 119.928 C 288.253 118.522 285.311 106.934 284.83 107.482 C 284.358 108.029 283.425 109.001 283.425 109.001 C 283.425 109.001 283.265 123.118 283.576 124.637 C 283.897 126.166 289.657 133.809 298.228 133.026 C 306.799 132.243 308.053 122.108 308.053 122.108 C 308.053 122.108 304.149 120.391 302.442 120.391 Z M 303.857 124.58 C 303.227 124.968 302.491 125.147 301.754 125.09 C 301.038 125.035 300.344 124.816 299.727 124.448 C 299.127 124.1 298.614 123.619 298.228 123.042 C 299.347 123.622 300.56 123.999 301.811 124.156 C 302.396 124.2 302.984 124.119 303.536 123.92 C 304.134 123.688 304.706 123.394 305.243 123.042 C 304.943 123.681 304.46 124.216 303.857 124.58 Z" stroke-linecap="round" />
</g>
		<g transform="matrix(1 0 0 1 -35.76 -162.81)"  >
<path style="stroke: none; stroke-width: 1; stroke-dasharray: none; stroke-linecap: butt; stroke-dashoffset: 0; stroke-linejoin: miter; stroke-miterlimit: 4; fill: rgb(0,0,0); fill-rule: nonzero; opacity: 1;" vector-effect="non-scaling-stroke"  transform=" translate(-294.24, -96.7)" d="M 283.425 109.005 C 283.425 109.005 291.218 101.673 290.594 92.6263 C 290.594 92.6263 292.62 90.7545 295.893 93.8742 C 295.893 93.8742 298.699 94.6541 301.972 91.2224 C 305.245 87.7908 306.959 92.7823 306.959 92.7823 C 306.959 92.7823 308.674 98.0858 309.141 96.6819 C 309.609 95.278 310.388 88.5707 303.375 86.3869 C 297.921 84.7609 292.22 84.1269 286.542 84.5151 C 284.672 84.827 280.775 87.9467 280.775 92.3143 C 280.775 96.6819 278.905 102.141 279.061 103.857 C 279.217 105.573 283.425 109.005 283.425 109.005 Z" stroke-linecap="round" />
</g>
		<g transform="matrix(1 0 0 1 -34.96 -152.19)"  >
<path style="stroke: none; stroke-width: 1; stroke-dasharray: none; stroke-linecap: butt; stroke-dashoffset: 0; stroke-linejoin: miter; stroke-miterlimit: 4; fill: rgb(0,0,0); fill-rule: nonzero; opacity: 1;" vector-effect="non-scaling-stroke"  transform=" translate(-295.04, -107.33)" d="M 290.438 107.133 C 291.95 106.555 293.573 106.327 295.185 106.467 C 295.996 106.537 296.794 106.711 297.561 106.986 C 298.323 107.266 299.026 107.687 299.634 108.225 C 298.915 107.913 298.172 107.661 297.412 107.471 C 296.661 107.298 295.898 107.179 295.13 107.115 C 293.568 107.008 292 107.014 290.438 107.133 Z" stroke-linecap="round" />
</g>
		<g transform="matrix(1 0 0 1 -23.82 -153.03)"  >
<path style="stroke: none; stroke-width: 1; stroke-dasharray: none; stroke-linecap: butt; stroke-dashoffset: 0; stroke-linejoin: miter; stroke-miterlimit: 4; fill: rgb(0,0,0); fill-rule: nonzero; opacity: 1;" vector-effect="non-scaling-stroke"  transform=" translate(-306.18, -106.48)" d="M 303.686 107.482 C 304.311 106.797 305.08 106.259 305.939 105.909 C 306.79 105.506 307.749 105.388 308.673 105.573 C 307.83 105.842 307.001 106.154 306.19 106.508 C 305.377 106.842 304.577 107.205 303.686 107.482 Z" stroke-linecap="round" />
</g>
		<g transform="matrix(1 0 0 1 -33.64 -150.05)"  >
<path style="stroke: none; stroke-width: 1; stroke-dasharray: none; stroke-linecap: butt; stroke-dashoffset: 0; stroke-linejoin: miter; stroke-miterlimit: 4; fill: rgb(0,0,0); fill-rule: nonzero; opacity: 1;" vector-effect="non-scaling-stroke"  transform=" translate(-296.36, -109.47)" d="M 296.361 110.448 C 296.614 110.439 296.853 110.333 297.028 110.151 C 297.204 109.969 297.302 109.726 297.302 109.473 C 297.302 109.22 297.204 108.977 297.028 108.795 C 296.853 108.613 296.614 108.507 296.361 108.498 C 296.108 108.507 295.869 108.613 295.694 108.795 C 295.518 108.977 295.42 109.22 295.42 109.473 C 295.42 109.726 295.518 109.969 295.694 110.151 C 295.869 110.333 296.108 110.439 296.361 110.448 Z" stroke-linecap="round" />
</g>
		<g transform="matrix(1 0 0 1 -23.66 -150.67)"  >
<path style="stroke: none; stroke-width: 1; stroke-dasharray: none; stroke-linecap: butt; stroke-dashoffset: 0; stroke-linejoin: miter; stroke-miterlimit: 4; fill: rgb(0,0,0); fill-rule: nonzero; opacity: 1;" vector-effect="non-scaling-stroke"  transform=" translate(-306.34, -108.85)" d="M 306.336 109.824 C 306.588 109.815 306.827 109.709 307.003 109.527 C 307.179 109.345 307.277 109.102 307.277 108.849 C 307.277 108.596 307.179 108.353 307.003 108.171 C 306.827 107.989 306.588 107.883 306.336 107.874 C 306.083 107.883 305.844 107.989 305.668 108.171 C 305.493 108.353 305.395 108.596 305.395 108.849 C 305.395 109.102 305.493 109.345 305.668 109.527 C 305.844 109.709 306.083 109.815 306.336 109.824 Z" stroke-linecap="round" />
</g>
		<g transform="matrix(1 0 0 1 -49.67 -148.2)"  >
<path style="stroke: none; stroke-width: 1; stroke-dasharray: none; stroke-linecap: butt; stroke-dashoffset: 0; stroke-linejoin: miter; stroke-miterlimit: 4; fill: rgb(0,0,0); fill-rule: nonzero; opacity: 1;" vector-effect="non-scaling-stroke"  transform=" translate(-280.33, -111.32)" d="M 279.06 103.857 C 278.72 103.999 278.415 104.216 278.169 104.491 C 277.923 104.766 277.742 105.093 277.64 105.448 C 277.443 106.149 277.445 106.891 277.644 107.591 C 278.097 109.023 278.632 110.429 279.246 111.8 C 279.794 113.234 280.226 114.709 280.539 116.212 C 280.665 116.918 281.014 117.564 281.534 118.057 C 281.812 118.299 282.138 118.48 282.491 118.586 C 282.843 118.693 283.215 118.723 283.58 118.676 C 283.202 118.787 282.804 118.811 282.415 118.746 C 282.026 118.682 281.656 118.531 281.333 118.305 C 280.698 117.797 280.246 117.094 280.048 116.304 C 279.667 114.851 279.196 113.423 278.638 112.028 C 278.379 111.32 278.114 110.612 277.831 109.911 C 277.519 109.197 277.293 108.45 277.155 107.684 C 276.998 106.9 277.063 106.087 277.343 105.338 C 277.492 104.973 277.726 104.649 278.024 104.391 C 278.323 104.134 278.678 103.951 279.06 103.857 Z" stroke-linecap="round" />
</g>
		<g transform="matrix(1 0 0 1 -26.76 -142.85)"  >
<path style="stroke: none; stroke-width: 1; stroke-dasharray: none; stroke-linecap: butt; stroke-dashoffset: 0; stroke-linejoin: miter; stroke-miterlimit: 4; fill: rgb(0,0,0); fill-rule: nonzero; opacity: 1;" vector-effect="non-scaling-stroke"  transform=" translate(-303.24, -116.67)" d="M 304.465 114.464 C 304.837 115.451 304.825 116.542 304.433 117.521 C 304.216 118.045 303.814 118.47 303.304 118.715 C 302.802 118.916 302.243 118.921 301.737 118.729 C 302.206 118.669 302.657 118.512 303.062 118.269 C 303.409 118.01 303.677 117.66 303.839 117.258 C 304.164 116.357 304.374 115.418 304.465 114.464 Z" stroke-linecap="round" />
</g>
		<g transform="matrix(1 0 0 1 -20.76 -150.12)"  >
<path style="stroke: none; stroke-width: 1; stroke-dasharray: none; stroke-linecap: butt; stroke-dashoffset: 0; stroke-linejoin: miter; stroke-miterlimit: 4; fill: rgb(0,0,0); fill-rule: nonzero; opacity: 1;" vector-effect="non-scaling-stroke"  transform=" translate(-309.24, -109.4)" d="M 309.141 96.6821 C 309.009 98.824 309.004 100.972 309.128 103.114 C 309.193 104.177 309.315 105.235 309.494 106.284 C 309.684 107.313 309.983 108.368 310.164 109.443 C 310.53 111.602 310.506 113.81 310.094 115.961 C 309.646 118.08 308.96 120.142 308.05 122.108 C 308.721 120.072 309.239 117.989 309.602 115.876 C 309.929 113.778 309.902 111.64 309.524 109.55 C 309.368 108.499 309.095 107.474 308.913 106.384 C 308.736 105.31 308.642 104.224 308.631 103.136 C 308.59 100.973 308.761 98.8115 309.141 96.6821 Z" stroke-linecap="round" />
</g>
		<g transform="matrix(1 0 0 1 -48.68 -132.25)"  >
<path style="stroke: none; stroke-width: 1; stroke-dasharray: none; stroke-linecap: butt; stroke-dashoffset: 0; stroke-linejoin: miter; stroke-miterlimit: 4; fill: rgb(0,0,0); fill-rule: nonzero; opacity: 1;" vector-effect="non-scaling-stroke"  transform=" translate(-281.32, -127.27)" d="M 283.581 124.638 C 283.452 125.886 282.987 127.076 282.236 128.081 C 281.853 128.591 281.384 129.03 280.85 129.378 C 280.309 129.713 279.688 129.896 279.052 129.907 C 279.592 129.662 280.096 129.347 280.552 128.968 C 280.982 128.581 281.372 128.153 281.718 127.69 C 282.07 127.219 282.394 126.728 282.689 126.219 C 282.985 125.704 283.29 125.184 283.581 124.638 Z" stroke-linecap="round" />
</g>
		<g transform="matrix(1 0 0 1 -74.22 -98.12)"  >
<path style="stroke: none; stroke-width: 1; stroke-dasharray: none; stroke-linecap: butt; stroke-dashoffset: 0; stroke-linejoin: miter; stroke-miterlimit: 4; fill: rgb(0,0,0); fill-rule: nonzero; opacity: 1;" vector-effect="non-scaling-stroke"  transform=" translate(-255.78, -161.4)" d="M 282.969 126.305 C 278.233 127.268 273.598 128.676 269.126 130.512 C 266.808 131.354 264.384 131.87 261.924 132.044 C 259.534 132.184 257.153 132.457 254.793 132.864 C 254.261 132.98 253.75 133.179 253.279 133.454 C 252.738 133.789 252.168 134.075 251.575 134.307 C 250.497 134.707 249.504 135.307 248.648 136.075 C 247.013 137.778 245.669 139.737 244.67 141.876 C 244.104 142.931 243.651 144.049 243.154 145.145 C 242.704 146.262 242.251 147.381 241.829 148.512 C 241.431 149.652 241.009 150.785 240.629 151.934 L 239.547 155.398 L 239.545 155.407 L 239.54 155.42 C 237.286 161.064 235.238 166.787 233.395 172.589 C 232.482 175.487 231.62 178.402 230.884 181.339 C 230.52 182.808 230.178 184.282 229.921 185.758 C 229.791 186.487 229.701 187.222 229.653 187.96 C 229.632 188.31 229.637 188.661 229.67 189.01 C 229.677 189.255 229.75 189.492 229.882 189.698 L 229.614 189.561 C 234.969 190.615 240.329 191.665 245.695 192.657 L 253.738 194.158 L 257.763 194.839 C 259.07 195.066 260.387 195.227 261.71 195.322 L 262.101 195.327 C 262.102 195.305 262.091 195.329 262.115 195.314 C 262.141 195.287 262.171 195.263 262.204 195.244 C 262.383 195.036 262.532 194.805 262.647 194.556 C 262.921 193.971 263.148 193.364 263.325 192.743 C 263.687 191.449 263.976 190.136 264.192 188.81 C 264.646 186.142 264.888 183.431 265.076 180.719 C 265.247 178.004 265.302 175.283 265.242 172.555 C 265.203 169.83 265.041 167.103 264.736 164.389 C 264.734 164.372 264.739 164.355 264.749 164.342 C 264.76 164.329 264.775 164.32 264.791 164.318 C 264.808 164.316 264.825 164.32 264.838 164.329 C 264.852 164.339 264.861 164.354 264.864 164.37 C 265.321 167.069 265.636 169.794 265.829 172.53 C 265.996 175.267 266.046 178.01 265.978 180.759 C 265.91 183.512 265.685 186.258 265.302 188.984 C 265.111 190.361 264.842 191.727 264.499 193.074 C 264.318 193.771 264.079 194.453 263.787 195.111 C 263.621 195.486 263.401 195.835 263.132 196.144 C 263.036 196.233 262.931 196.319 262.826 196.401 C 262.685 196.486 262.534 196.552 262.376 196.598 C 262.155 196.62 261.956 196.619 261.745 196.626 C 260.343 196.543 258.946 196.384 257.562 196.148 L 253.506 195.483 C 250.811 195.006 248.119 194.528 245.438 193.999 C 240.077 192.928 234.725 191.819 229.383 190.673 L 229.338 190.663 C 229.253 190.645 229.174 190.6 229.115 190.535 C 228.771 190.143 228.577 189.642 228.566 189.121 C 228.537 188.711 228.539 188.3 228.573 187.891 C 228.641 187.113 228.753 186.339 228.909 185.573 C 229.205 184.057 229.589 182.574 230.014 181.105 C 230.862 178.168 231.83 175.278 232.827 172.4 C 233.841 169.528 234.862 166.661 235.913 163.804 L 239.095 155.245 L 239.088 155.266 C 240.302 150.548 241.879 145.93 243.806 141.455 C 244.773 139.154 246.158 137.051 247.889 135.253 C 248.831 134.387 249.927 133.704 251.118 133.238 C 251.652 133.023 252.169 132.769 252.665 132.478 C 253.244 132.144 253.872 131.905 254.526 131.769 C 256.944 131.381 259.382 131.132 261.829 131.026 C 263.025 130.92 264.217 130.793 265.388 130.578 C 266.56 130.397 267.714 130.111 268.835 129.723 C 273.388 128.001 278.124 126.811 282.949 126.176 C 282.966 126.174 282.983 126.178 282.997 126.189 C 283.011 126.199 283.02 126.215 283.022 126.232 C 283.024 126.248 283.02 126.265 283.01 126.278 C 283 126.292 282.986 126.301 282.969 126.305 Z" stroke-linecap="round" />
</g>
		<g transform="matrix(1 0 0 1 -45.95 -114.85)"  >
<path style="stroke: none; stroke-width: 1; stroke-dasharray: none; stroke-linecap: butt; stroke-dashoffset: 0; stroke-linejoin: miter; stroke-miterlimit: 4; fill: rgb(0,0,0); fill-rule: nonzero; opacity: 1;" vector-effect="non-scaling-stroke"  transform=" translate(-284.05, -144.67)" d="M 298.26 139.828 C 298.153 140.395 298.126 140.975 298.179 141.55 C 298.214 142.132 298.252 142.713 298.307 143.294 L 298.663 146.776 C 298.919 149.096 299.223 151.411 299.507 153.729 L 299.957 157.202 C 300.242 158.423 300.055 159.707 299.435 160.797 C 299.231 161.056 298.978 161.272 298.69 161.433 C 298.402 161.594 298.086 161.696 297.759 161.734 C 297.431 161.772 297.099 161.746 296.783 161.655 C 296.466 161.565 296.17 161.413 295.911 161.208 C 295.653 161.005 295.438 160.752 295.281 160.463 C 295.124 160.174 295.028 159.856 294.999 159.529 L 294.811 157.789 C 294.55 155.469 294.272 153.151 293.919 150.845 C 293.75 149.693 293.521 148.552 293.231 147.424 C 293.16 147.15 293.063 146.883 292.94 146.627 C 292.915 146.571 292.878 146.52 292.831 146.48 C 292.784 146.44 292.728 146.412 292.668 146.397 L 292.268 146.224 C 291.733 145.993 291.191 145.775 290.647 145.565 C 288.474 144.717 286.285 143.907 284.076 143.164 C 282.981 142.817 281.843 142.322 280.79 142.669 C 280.301 142.904 279.895 143.282 279.625 143.754 C 279.356 144.226 279.236 144.768 279.281 145.309 C 279.28 145.37 279.255 145.429 279.211 145.471 C 279.167 145.514 279.108 145.538 279.047 145.537 C 279.006 145.536 278.967 145.524 278.933 145.504 C 278.898 145.483 278.87 145.454 278.849 145.42 C 278.237 144.355 277.549 143.335 276.79 142.37 C 276.055 141.401 275.196 140.534 274.234 139.792 C 273.764 139.437 273.238 139.163 272.679 138.98 C 272.064 138.786 271.474 138.524 270.917 138.199 C 269.783 137.55 268.825 136.633 268.125 135.529 C 268.116 135.514 268.108 135.497 268.103 135.48 L 268.097 135.46 C 267.922 134.811 268.007 134.118 268.333 133.53 C 268.634 132.988 269.028 132.502 269.498 132.097 C 270.4 131.325 271.393 130.668 272.456 130.14 C 274.54 129.083 276.721 128.231 278.97 127.596 C 279.027 127.58 279.088 127.581 279.144 127.599 C 279.201 127.618 279.25 127.654 279.286 127.701 C 279.322 127.749 279.343 127.806 279.346 127.865 C 279.348 127.925 279.333 127.983 279.302 128.034 L 279.293 128.048 C 278.933 128.656 278.7 129.33 278.608 130.031 C 278.555 130.388 278.526 130.747 278.521 131.108 C 278.552 131.468 278.55 131.833 278.614 132.191 C 278.856 133.644 279.4 135.03 280.209 136.261 C 280.605 136.887 281.033 137.492 281.492 138.073 C 281.994 138.621 282.465 139.199 282.988 139.728 C 283.529 140.239 284.043 140.783 284.608 141.271 L 286.328 142.711 C 286.331 142.713 286.334 142.717 286.336 142.72 C 286.339 142.724 286.34 142.728 286.341 142.732 C 286.341 142.736 286.341 142.741 286.34 142.745 C 286.339 142.749 286.337 142.753 286.335 142.756 C 286.329 142.763 286.322 142.767 286.313 142.769 C 286.305 142.77 286.296 142.768 286.289 142.763 L 284.503 141.395 C 283.914 140.93 283.374 140.406 282.806 139.913 C 282.249 139.407 281.763 138.827 281.241 138.284 C 280.758 137.702 280.307 137.094 279.888 136.464 C 279.018 135.203 278.421 133.773 278.135 132.267 C 278.059 131.89 278.051 131.501 278.011 131.117 C 278.006 130.729 278.028 130.34 278.076 129.955 C 278.162 129.164 278.412 128.4 278.81 127.711 L 279.133 128.163 C 276.943 128.84 274.813 129.7 272.765 130.732 C 271.755 131.237 270.811 131.865 269.955 132.601 C 269.529 132.894 269.192 133.297 268.979 133.768 C 268.767 134.24 268.688 134.76 268.75 135.273 L 268.722 135.204 C 269.356 136.208 270.22 137.045 271.243 137.646 C 271.756 137.953 272.302 138.202 272.869 138.388 C 273.489 138.597 274.071 138.907 274.591 139.305 C 275.592 140.086 276.477 141.006 277.219 142.038 C 277.973 143.042 278.653 144.099 279.254 145.201 L 278.822 145.312 C 278.838 144.691 278.992 144.08 279.273 143.526 C 279.412 143.239 279.607 142.983 279.848 142.773 C 280.088 142.563 280.368 142.405 280.671 142.306 C 281.932 141.942 283.101 142.514 284.18 142.863 C 286.384 143.642 288.562 144.488 290.725 145.37 L 292.347 146.035 L 292.752 146.205 C 292.832 146.23 292.907 146.27 292.971 146.325 C 293.036 146.379 293.089 146.446 293.127 146.521 C 293.262 146.79 293.369 147.072 293.448 147.362 C 293.772 148.496 293.974 149.649 294.191 150.799 C 294.614 153.1 294.96 155.413 295.286 157.729 L 295.524 159.466 C 295.549 159.722 295.626 159.97 295.751 160.195 C 295.876 160.42 296.045 160.617 296.248 160.774 C 296.652 161.091 297.165 161.235 297.674 161.175 C 298.184 161.115 298.649 160.855 298.967 160.453 C 299.25 159.997 299.422 159.482 299.471 158.949 C 299.529 158.39 299.509 157.825 299.411 157.272 L 298.999 153.79 C 298.724 151.469 298.505 149.141 298.308 146.811 C 298.208 145.646 298.126 144.479 298.08 143.309 C 298.052 142.725 298.041 142.139 298.033 141.554 C 298.005 140.963 298.062 140.371 298.203 139.797 C 298.205 139.789 298.211 139.782 298.218 139.778 C 298.226 139.775 298.234 139.774 298.242 139.776 C 298.25 139.779 298.257 139.784 298.261 139.792 C 298.265 139.799 298.266 139.808 298.263 139.816 L 298.26 139.828 Z" stroke-linecap="round" />
</g>
		<g transform="matrix(1 0 0 1 -30.89 -121)"  >
<path style="stroke: none; stroke-width: 1; stroke-dasharray: none; stroke-linecap: butt; stroke-dashoffset: 0; stroke-linejoin: miter; stroke-miterlimit: 4; fill: rgb(0,0,0); fill-rule: nonzero; opacity: 1;" vector-effect="non-scaling-stroke"  transform=" translate(-299.11, -138.52)" d="M 301.181 132.299 C 301.638 132.946 302.041 133.629 302.386 134.342 C 302.559 134.7 302.684 135.082 302.835 135.454 C 302.959 135.84 303.05 136.235 303.108 136.636 C 303.252 137.457 303.185 138.302 302.911 139.09 C 302.605 139.897 302.022 140.569 301.266 140.986 C 301.237 141.002 301.204 141.011 301.171 141.015 C 301.138 141.018 301.104 141.015 301.072 141.005 C 301.04 140.996 301.011 140.98 300.985 140.959 C 300.959 140.937 300.937 140.911 300.921 140.882 C 300.906 140.853 300.896 140.822 300.893 140.79 L 300.892 140.781 C 300.787 139.649 300.546 138.533 300.174 137.459 C 299.988 136.928 299.695 136.441 299.312 136.03 C 299.125 135.843 298.885 135.72 298.625 135.677 C 298.497 135.693 298.374 135.734 298.263 135.798 C 298.152 135.863 298.054 135.949 297.977 136.051 C 297.331 136.983 296.864 138.027 296.599 139.129 C 296.271 140.222 295.995 141.339 295.755 142.449 L 295.76 142.343 L 296.054 144.369 C 296.066 144.456 296.045 144.545 295.993 144.616 C 295.942 144.688 295.865 144.736 295.778 144.752 C 295.691 144.767 295.602 144.749 295.529 144.7 C 295.456 144.651 295.405 144.575 295.387 144.489 L 295.385 144.481 C 295.206 143.528 295.102 142.562 295.075 141.592 C 295.024 140.63 295.047 139.671 295.091 138.714 C 295.173 136.804 295.371 134.9 295.685 133.014 C 295.687 133.006 295.691 132.998 295.698 132.993 C 295.705 132.988 295.714 132.986 295.723 132.987 C 295.73 132.989 295.737 132.993 295.742 132.999 C 295.747 133.005 295.75 133.013 295.75 133.021 C 295.687 134.927 295.656 136.828 295.657 138.725 C 295.632 140.606 295.763 142.486 296.05 144.345 L 295.381 144.457 L 295.146 142.424 L 295.144 142.413 C 295.141 142.381 295.143 142.348 295.15 142.317 C 295.42 141.186 295.757 140.072 296.159 138.981 C 296.528 137.864 297.085 136.819 297.805 135.891 C 297.906 135.767 298.031 135.665 298.173 135.592 C 298.315 135.518 298.47 135.474 298.629 135.463 C 298.939 135.513 299.226 135.661 299.447 135.885 C 299.866 136.305 300.193 136.807 300.409 137.36 C 300.874 138.435 301.212 139.561 301.414 140.714 L 301.04 140.51 C 301.648 140.125 302.116 139.555 302.374 138.882 C 302.638 138.186 302.719 137.434 302.61 136.698 C 302.591 136.322 302.473 135.953 302.417 135.575 C 302.299 135.211 302.208 134.835 302.067 134.475 C 301.912 134.12 301.792 133.749 301.627 133.395 L 301.125 132.333 C 301.123 132.329 301.122 132.325 301.121 132.321 C 301.121 132.316 301.121 132.312 301.123 132.308 C 301.124 132.304 301.126 132.3 301.129 132.297 C 301.131 132.293 301.135 132.291 301.139 132.289 C 301.146 132.285 301.154 132.284 301.161 132.286 C 301.169 132.288 301.176 132.293 301.181 132.299 Z" stroke-linecap="round" />
</g>
		<g transform="matrix(1 0 0 1 -33.52 -112.69)"  >
<path style="stroke: none; stroke-width: 1; stroke-dasharray: none; stroke-linecap: butt; stroke-dashoffset: 0; stroke-linejoin: miter; stroke-miterlimit: 4; fill: rgb(255,189,36); fill-rule: nonzero; opacity: 1;" vector-effect="non-scaling-stroke"  transform=" translate(-296.48, -146.83)" d="M 296.477 147.806 C 296.73 147.798 296.969 147.691 297.144 147.509 C 297.32 147.327 297.418 147.084 297.418 146.831 C 297.418 146.578 297.32 146.335 297.144 146.154 C 296.969 145.972 296.73 145.865 296.477 145.856 C 296.225 145.865 295.985 145.972 295.81 146.154 C 295.634 146.335 295.536 146.578 295.536 146.831 C 295.536 147.084 295.634 147.327 295.81 147.509 C 295.985 147.691 296.225 147.798 296.477 147.806 Z" stroke-linecap="round" />
</g>
		<g transform="matrix(1 0 0 1 -32.82 -107.31)"  >
<path style="stroke: none; stroke-width: 1; stroke-dasharray: none; stroke-linecap: butt; stroke-dashoffset: 0; stroke-linejoin: miter; stroke-miterlimit: 4; fill: rgb(255,189,36); fill-rule: nonzero; opacity: 1;" vector-effect="non-scaling-stroke"  transform=" translate(-297.18, -152.21)" d="M 297.179 153.188 C 297.432 153.179 297.671 153.072 297.847 152.89 C 298.022 152.709 298.12 152.466 298.12 152.213 C 298.12 151.96 298.022 151.717 297.847 151.535 C 297.671 151.353 297.432 151.247 297.179 151.238 C 296.927 151.247 296.687 151.353 296.512 151.535 C 296.336 151.717 296.238 151.96 296.238 152.213 C 296.238 152.466 296.336 152.709 296.512 152.89 C 296.687 153.072 296.927 153.179 297.179 153.188 Z" stroke-linecap="round" />
</g>
		<g transform="matrix(1 0 0 1 -32.24 -102.16)"  >
<path style="stroke: none; stroke-width: 1; stroke-dasharray: none; stroke-linecap: butt; stroke-dashoffset: 0; stroke-linejoin: miter; stroke-miterlimit: 4; fill: rgb(255,189,36); fill-rule: nonzero; opacity: 1;" vector-effect="non-scaling-stroke"  transform=" translate(-297.76, -157.36)" d="M 297.763 158.335 C 298.016 158.326 298.255 158.22 298.431 158.038 C 298.606 157.856 298.704 157.613 298.704 157.36 C 298.704 157.107 298.606 156.864 298.431 156.682 C 298.255 156.501 298.016 156.394 297.763 156.385 C 297.511 156.394 297.272 156.501 297.096 156.682 C 296.92 156.864 296.822 157.107 296.822 157.36 C 296.822 157.613 296.92 157.856 297.096 158.038 C 297.272 158.22 297.511 158.326 297.763 158.335 Z" stroke-linecap="round" />
</g>
		<g transform="matrix(1 0 0 1 -10.25 -116.89)"  >
<path style="stroke: none; stroke-width: 1; stroke-dasharray: none; stroke-linecap: butt; stroke-dashoffset: 0; stroke-linejoin: miter; stroke-miterlimit: 4; fill: rgb(0,0,0); fill-rule: nonzero; opacity: 1;" vector-effect="non-scaling-stroke"  transform=" translate(-319.75, -142.63)" d="M 303.976 130.47 C 307.87 130.567 311.759 130.826 315.637 131.225 C 317.578 131.413 319.511 131.685 321.439 132.014 C 323.4 132.287 325.318 132.81 327.147 133.569 C 327.387 133.688 327.611 133.835 327.816 134.007 C 328.005 134.178 328.184 134.36 328.352 134.552 C 328.674 134.9 329.024 135.233 329.372 135.577 C 330.093 136.261 330.743 137.015 331.313 137.828 C 332.403 139.483 333.212 141.306 333.709 143.225 C 334.687 147.011 335.294 150.883 335.52 154.787 C 335.048 150.928 334.283 147.111 333.23 143.369 C 332.699 141.523 331.888 139.769 330.828 138.167 C 330.272 137.39 329.639 136.672 328.939 136.022 C 328.591 135.685 328.232 135.351 327.89 134.988 C 327.606 134.635 327.25 134.347 326.846 134.144 C 325.081 133.399 323.229 132.879 321.334 132.595 C 319.429 132.241 317.504 131.984 315.579 131.719 C 311.725 131.218 307.852 130.835 303.976 130.47 Z" stroke-linecap="round" />
</g>
		<g transform="matrix(1 0 0 1 -73.15 -113.68)"  >
<path style="stroke: none; stroke-width: 1; stroke-dasharray: none; stroke-linecap: butt; stroke-dashoffset: 0; stroke-linejoin: miter; stroke-miterlimit: 4; fill: rgb(0,0,0); fill-rule: nonzero; opacity: 1;" vector-effect="non-scaling-stroke"  transform=" translate(-256.85, -145.84)" d="M 250.539 138.716 C 252.334 138.335 254.204 138.552 255.864 139.332 C 257.529 140.132 258.952 141.361 259.985 142.893 C 260.501 143.647 260.951 144.444 261.329 145.276 C 261.687 146.109 262 146.961 262.267 147.828 C 262.462 148.712 262.704 149.583 262.858 150.47 C 262.96 151.366 263.083 152.257 263.163 153.149 C 262.937 152.277 262.753 151.403 262.547 150.536 C 262.331 149.672 262.039 148.829 261.791 147.979 C 261.459 147.159 261.165 146.323 260.793 145.526 C 260.412 144.736 259.964 143.98 259.454 143.267 C 258.498 141.802 257.188 140.603 255.646 139.779 C 254.076 138.954 252.307 138.585 250.539 138.716 Z" stroke-linecap="round" />
</g>
		<g transform="matrix(1 0 0 1 -47.12 -68.08)"  >
<path style="stroke: none; stroke-width: 1; stroke-dasharray: none; stroke-linecap: butt; stroke-dashoffset: 0; stroke-linejoin: miter; stroke-miterlimit: 4; fill: rgb(0,0,0); fill-rule: nonzero; opacity: 1;" vector-effect="non-scaling-stroke"  transform=" translate(-282.88, -191.44)" d="M 273.605 179.822 C 274.053 181.015 274.525 182.195 275.073 183.341 C 275.592 184.499 276.162 185.633 276.765 186.747 C 277.96 188.977 279.325 191.111 280.848 193.13 C 282.35 195.161 284.058 197.03 285.945 198.709 L 287.386 199.939 C 287.88 200.333 288.413 200.674 288.924 201.048 L 289.693 201.608 C 289.959 201.778 290.238 201.929 290.51 202.092 L 292.152 203.064 C 289.796 202.059 287.596 200.72 285.621 199.089 C 283.652 197.44 281.877 195.572 280.331 193.521 C 278.806 191.461 277.465 189.27 276.323 186.975 C 275.18 184.688 274.269 182.292 273.605 179.822 Z" stroke-linecap="round" />
</g>
		<g transform="matrix(1 0 0 1 -56.92 -51.36)"  >
<path style="stroke: none; stroke-width: 1; stroke-dasharray: none; stroke-linecap: butt; stroke-dashoffset: 0; stroke-linejoin: miter; stroke-miterlimit: 4; fill: rgb(0,0,0); fill-rule: nonzero; opacity: 1;" vector-effect="non-scaling-stroke"  transform=" translate(-273.08, -208.15)" d="M 233.031 190.842 C 233.002 194.729 232.917 198.615 232.853 202.5 C 232.801 206.387 232.669 210.27 232.581 214.155 L 232.578 214.188 L 232.573 214.224 C 232.335 215.776 232.534 217.364 233.145 218.811 C 233.793 220.209 234.958 221.301 236.393 221.859 C 236.762 221.978 237.123 222.117 237.496 222.226 L 238.653 222.45 C 239.454 222.568 240.281 222.655 241.098 222.744 C 242.737 222.918 244.379 223.074 246.025 223.21 C 252.605 223.763 259.206 224.047 265.804 224.195 C 272.399 224.347 278.997 224.129 285.567 223.541 C 292.096 222.91 298.728 221.909 304.659 219.066 C 304.717 219.038 304.783 219.033 304.845 219.051 C 304.907 219.069 304.96 219.109 304.994 219.163 C 305.461 219.892 306.109 220.488 306.874 220.893 C 307.654 221.305 308.517 221.539 309.398 221.579 C 310.292 221.613 311.186 221.518 312.054 221.299 C 312.484 221.172 312.915 221.04 313.343 220.898 L 314.596 220.378 L 313.371 220.968 C 312.95 221.134 312.523 221.291 312.094 221.443 C 311.218 221.717 310.306 221.856 309.388 221.854 C 308.446 221.867 307.515 221.651 306.674 221.225 C 305.833 220.799 305.108 220.177 304.56 219.41 L 304.894 219.507 C 301.93 221.052 298.775 222.2 295.511 222.921 C 292.268 223.666 288.984 224.225 285.677 224.594 C 279.069 225.269 272.428 225.553 265.786 225.445 C 259.15 225.402 252.526 224.981 245.921 224.391 C 244.27 224.241 242.619 224.071 240.971 223.881 C 240.144 223.784 239.325 223.691 238.491 223.562 L 237.213 223.303 C 236.794 223.178 236.381 223.019 235.967 222.876 C 234.293 222.188 232.954 220.873 232.237 219.211 C 231.585 217.574 231.406 215.787 231.723 214.054 L 231.714 214.122 C 231.92 210.242 232.083 206.36 232.325 202.48 C 232.556 198.601 232.764 194.721 233.031 190.842 Z" stroke-linecap="round" />
</g>
		<g transform="matrix(1 0 0 1 -43.66 -58.13)"  >
<path style="stroke: none; stroke-width: 1; stroke-dasharray: none; stroke-linecap: butt; stroke-dashoffset: 0; stroke-linejoin: miter; stroke-miterlimit: 4; fill: rgb(0,0,0); fill-rule: nonzero; opacity: 1;" vector-effect="non-scaling-stroke"  transform=" translate(-286.34, -201.38)" d="M 257.087 195.406 C 257.195 197.543 257.256 199.68 257.33 201.816 L 257.184 201.593 C 264.695 204.288 272.58 205.794 280.555 206.056 C 284.519 206.176 288.485 205.865 292.382 205.128 L 295.284 204.5 C 296.243 204.257 297.172 203.912 298.119 203.623 L 299.537 203.18 C 299.999 203.004 300.448 202.794 300.905 202.603 L 303.64 201.431 L 303.408 201.782 C 303.516 201.133 303.77 200.517 304.152 199.982 C 304.507 199.463 304.95 199.011 305.46 198.644 C 306.456 197.937 307.601 197.469 308.807 197.275 C 309.393 197.173 309.984 197.101 310.577 197.06 C 311.169 197.06 311.76 197.009 312.348 197.052 C 312.935 197.101 313.524 197.101 314.104 197.19 L 315.843 197.449 L 314.092 197.35 C 313.51 197.321 312.927 197.348 312.347 197.344 C 311.766 197.34 311.19 197.431 310.615 197.469 C 310.046 197.548 309.481 197.656 308.924 197.793 C 307.829 198.054 306.8 198.538 305.901 199.217 C 305.047 199.858 304.466 200.799 304.275 201.85 L 304.271 201.879 C 304.262 201.948 304.236 202.012 304.196 202.068 C 304.156 202.125 304.104 202.17 304.043 202.202 C 300.45 204.112 296.606 205.506 292.625 206.343 C 288.642 207.149 284.578 207.48 280.518 207.327 C 276.471 207.179 272.448 206.655 268.498 205.762 C 266.531 205.302 264.58 204.781 262.659 204.164 C 260.727 203.575 258.834 202.865 256.991 202.039 L 256.979 202.034 C 256.938 202.015 256.903 201.985 256.879 201.946 C 256.854 201.907 256.842 201.862 256.844 201.816 C 256.918 199.68 256.979 197.543 257.087 195.406 Z" stroke-linecap="round" />
</g>
		<g transform="matrix(1 0 0 1 -82.34 -55.7)"  >
<path style="stroke: none; stroke-width: 1; stroke-dasharray: none; stroke-linecap: butt; stroke-dashoffset: 0; stroke-linejoin: miter; stroke-miterlimit: 4; fill: rgb(0,0,0); fill-rule: nonzero; opacity: 1;" vector-effect="non-scaling-stroke"  transform=" translate(-247.66, -203.81)" d="M 238.227 206.738 C 239.244 205.335 240.542 204.158 242.039 203.283 C 243.536 202.396 245.157 201.737 246.848 201.327 C 247.699 201.154 248.559 201.034 249.424 200.967 C 250.286 200.883 251.153 200.869 252.017 200.925 C 252.881 200.944 253.732 201.119 254.585 201.211 C 255.427 201.392 256.262 201.597 257.087 201.816 C 256.23 201.741 255.39 201.599 254.544 201.527 C 253.694 201.5 252.851 201.383 252.004 201.425 C 250.319 201.417 248.638 201.596 246.992 201.96 C 245.353 202.333 243.77 202.924 242.286 203.715 C 240.78 204.5 239.41 205.521 238.227 206.738 Z" stroke-linecap="round" />
</g>
		<g transform="matrix(1 0 0 1 -24.52 -48.97)"  >
<path style="stroke: none; stroke-width: 1; stroke-dasharray: none; stroke-linecap: butt; stroke-dashoffset: 0; stroke-linejoin: miter; stroke-miterlimit: 4; fill: rgb(0,0,0); fill-rule: nonzero; opacity: 1;" vector-effect="non-scaling-stroke"  transform=" translate(-305.48, -210.55)" d="M 303.842 201.816 C 304.101 202.382 304.407 202.925 304.758 203.438 C 305.089 203.941 305.515 204.375 306.012 204.714 C 306.135 204.788 306.264 204.85 306.397 204.902 C 306.578 204.97 306.742 205.077 306.877 205.217 C 306.997 205.373 307.076 205.556 307.107 205.751 C 307.139 205.945 307.121 206.144 307.057 206.33 C 306.844 206.966 306.499 207.549 306.044 208.04 L 306.041 208.044 L 306.022 208.062 C 305.537 208.52 305.172 209.089 304.958 209.721 C 304.859 210.019 304.829 210.335 304.868 210.647 C 304.907 210.958 305.015 211.257 305.185 211.521 C 305.5 212.034 306.191 212.533 306.456 213.32 C 306.538 213.523 306.575 213.742 306.564 213.961 C 306.552 214.179 306.494 214.393 306.391 214.587 C 306.169 214.945 305.834 215.22 305.439 215.368 L 305.526 215.308 C 305.015 215.848 304.624 216.491 304.379 217.194 C 304.26 217.545 304.224 217.918 304.273 218.285 C 304.354 218.656 304.528 219 304.777 219.286 C 304.472 219.033 304.244 218.698 304.12 218.321 C 304.022 217.928 304.015 217.518 304.102 217.122 C 304.184 216.729 304.326 216.351 304.523 216 C 304.711 215.645 304.932 215.31 305.185 214.998 C 305.2 214.979 305.219 214.964 305.241 214.953 L 305.272 214.938 C 305.547 214.81 305.774 214.598 305.92 214.333 C 305.978 214.204 306.008 214.065 306.009 213.924 C 306.009 213.783 305.979 213.644 305.922 213.515 C 305.711 212.908 305.14 212.531 304.665 211.855 C 304.436 211.518 304.287 211.133 304.228 210.729 C 304.181 210.325 304.225 209.916 304.355 209.53 C 304.616 208.798 305.057 208.142 305.636 207.624 L 305.614 207.645 C 306.016 207.221 306.333 206.725 306.551 206.183 C 306.601 206.077 306.625 205.961 306.62 205.844 C 306.615 205.727 306.581 205.613 306.521 205.513 C 306.441 205.423 306.344 205.351 306.235 205.301 C 306.081 205.23 305.934 205.145 305.795 205.049 C 305.274 204.655 304.851 204.147 304.558 203.563 C 304.255 203.009 304.015 202.423 303.842 201.816 Z" stroke-linecap="round" />
</g>
		<g transform="matrix(1 0 0 1 -17.13 -56.46)"  >
<path style="stroke: none; stroke-width: 1; stroke-dasharray: none; stroke-linecap: butt; stroke-dashoffset: 0; stroke-linejoin: miter; stroke-miterlimit: 4; fill: rgb(0,0,0); fill-rule: nonzero; opacity: 1;" vector-effect="non-scaling-stroke"  transform=" translate(-312.87, -203.06)" d="M 315.453 202.473 C 315.433 202.869 315.414 203.259 315.394 203.649 C 314.608 203.643 313.816 203.61 313.03 203.525 C 312.105 203.45 311.189 203.296 310.29 203.064 C 311.189 202.832 312.105 202.678 313.03 202.603 C 313.836 202.518 314.647 202.486 315.453 202.473 Z" stroke-linecap="round" />
</g>
		<g transform="matrix(1 0 0 1 -17.23 -52.09)"  >
<path style="stroke: none; stroke-width: 1; stroke-dasharray: none; stroke-linecap: butt; stroke-dashoffset: 0; stroke-linejoin: miter; stroke-miterlimit: 4; fill: rgb(0,0,0); fill-rule: nonzero; opacity: 1;" vector-effect="non-scaling-stroke"  transform=" translate(-312.77, -207.43)" d="M 315.245 206.847 C 315.219 207.243 315.206 207.633 315.186 208.017 C 314.466 208.004 313.751 207.971 313.03 207.893 C 312.105 207.818 311.189 207.664 310.29 207.432 C 311.189 207.2 312.105 207.045 313.03 206.97 C 313.771 206.892 314.504 206.86 315.245 206.847 Z" stroke-linecap="round" />
</g>
		<g transform="matrix(1 0 0 1 -17.33 -47.88)"  >
<path style="stroke: none; stroke-width: 1; stroke-dasharray: none; stroke-linecap: butt; stroke-dashoffset: 0; stroke-linejoin: miter; stroke-miterlimit: 4; fill: rgb(0,0,0); fill-rule: nonzero; opacity: 1;" vector-effect="non-scaling-stroke"  transform=" translate(-312.67, -211.64)" d="M 315.05 211.058 C 315.037 211.455 315.018 211.844 315.005 212.228 C 314.349 212.208 313.686 212.176 313.03 212.105 C 312.105 212.029 311.189 211.875 310.29 211.643 C 311.189 211.411 312.105 211.257 313.03 211.182 C 313.706 211.11 314.381 211.078 315.05 211.058 Z" stroke-linecap="round" />
</g>
		<g transform="matrix(1 0 0 1 -17.43 -42.85)"  >
<path style="stroke: none; stroke-width: 1; stroke-dasharray: none; stroke-linecap: butt; stroke-dashoffset: 0; stroke-linejoin: miter; stroke-miterlimit: 4; fill: rgb(0,0,0); fill-rule: nonzero; opacity: 1;" vector-effect="non-scaling-stroke"  transform=" translate(-312.57, -216.67)" d="M 313.03 216.212 C 313.641 216.147 314.251 216.115 314.855 216.095 C 314.836 216.492 314.823 216.875 314.81 217.246 C 314.219 217.233 313.621 217.2 313.03 217.135 C 312.105 217.06 311.189 216.906 310.29 216.674 C 311.189 216.442 312.105 216.287 313.03 216.212 Z" stroke-linecap="round" />
</g>
		<g transform="matrix(1 0 0 1 -30.77 -18.66)"  >
<path style="stroke: none; stroke-width: 1; stroke-dasharray: none; stroke-linecap: butt; stroke-dashoffset: 0; stroke-linejoin: miter; stroke-miterlimit: 4; fill: rgb(0,0,0); fill-rule: nonzero; opacity: 1;" vector-effect="non-scaling-stroke"  transform=" translate(-299.23, -240.86)" d="M 293.013 225.886 C 293.013 225.886 281.313 214.313 276.945 221.818 C 272.577 229.323 275.58 234.829 278.825 238.543 C 282.779 243.069 282.978 244.425 284.151 245.765 C 285.324 247.106 298.567 263.31 315.073 262.399 C 324.702 261.868 324.538 256.733 322.73 252.545 C 321.415 249.58 319.303 247.038 316.629 245.204 C 311.357 241.516 299.574 232.974 293.013 225.886 Z" stroke-linecap="round" />
</g>
		<g transform="matrix(1 0 0 1 -25.93 -35.95)"  >
<path style="stroke: none; stroke-width: 1; stroke-dasharray: none; stroke-linecap: butt; stroke-dashoffset: 0; stroke-linejoin: miter; stroke-miterlimit: 4; fill: rgb(0,0,0); fill-rule: nonzero; opacity: 1;" vector-effect="non-scaling-stroke"  transform=" translate(-304.07, -223.57)" d="M 289.023 222.579 C 291.539 222.698 294.049 222.867 296.558 223.031 L 304.082 223.542 C 306.588 223.741 309.096 223.886 311.603 224.02 C 312.857 224.097 314.111 224.143 315.365 224.163 C 315.99 224.162 316.622 224.208 317.245 224.162 L 318.184 224.117 L 319.114 223.971 C 316.638 224.474 314.109 224.658 311.587 224.519 C 309.066 224.489 306.551 224.338 304.038 224.19 C 301.528 223.993 299.019 223.796 296.516 223.527 C 294.013 223.259 291.513 222.965 289.023 222.579 Z" stroke-linecap="round" />
</g>
		<g transform="matrix(1 0 0 1 -7.58 -19.15)"  >
<path style="stroke: none; stroke-width: 1; stroke-dasharray: none; stroke-linecap: butt; stroke-dashoffset: 0; stroke-linejoin: miter; stroke-miterlimit: 4; fill: rgb(0,0,0); fill-rule: nonzero; opacity: 1;" vector-effect="non-scaling-stroke"  transform=" translate(-322.42, -240.37)" d="M 314.062 243.71 C 313.991 243.71 313.922 243.686 313.865 243.643 C 313.809 243.6 313.768 243.539 313.749 243.47 C 313.73 243.401 313.734 243.328 313.761 243.262 C 313.788 243.196 313.835 243.141 313.896 243.104 C 314.405 242.805 326.396 235.758 330.884 237.223 C 330.965 237.25 331.032 237.309 331.071 237.385 C 331.109 237.462 331.116 237.551 331.089 237.633 C 331.062 237.714 331.004 237.782 330.928 237.821 C 330.851 237.86 330.763 237.867 330.681 237.841 C 326.474 236.461 314.349 243.592 314.227 243.665 C 314.177 243.694 314.12 243.71 314.062 243.71 Z" stroke-linecap="round" />
</g>
		<g transform="matrix(1 0 0 1 31.09 -57)"  >
<path style="stroke: none; stroke-width: 1; stroke-dasharray: none; stroke-linecap: butt; stroke-dashoffset: 0; stroke-linejoin: miter; stroke-miterlimit: 4; fill: rgb(0,0,0); fill-rule: nonzero; opacity: 1;" vector-effect="non-scaling-stroke"  transform=" translate(-361.09, -202.51)" d="M 385.757 195.928 L 385.764 195.928 L 385.787 195.932 L 414.073 206.423 L 414.098 206.434 C 416.91 207.75 419.585 209.34 422.085 211.182 C 424.61 213.027 426.834 215.251 428.678 217.778 C 429.627 219.051 430.373 220.465 430.888 221.968 C 431.385 223.449 431.774 224.964 432.052 226.501 C 432.683 229.625 432.465 232.862 431.422 235.873 C 430.836 237.372 429.977 238.748 428.886 239.93 C 427.788 241.095 426.505 242.071 425.089 242.817 C 423.684 243.56 422.185 244.111 420.633 244.456 C 419.861 244.618 419.08 244.734 418.295 244.803 L 415.999 245.053 C 409.878 245.709 403.759 246.374 397.632 246.971 C 385.38 248.171 373.125 249.347 360.842 250.252 C 357.772 250.48 354.7 250.695 351.624 250.871 C 348.542 251.026 345.484 251.241 342.351 251.102 C 340.742 250.97 339.213 250.347 337.968 249.318 C 336.746 248.331 335.672 247.174 334.777 245.882 C 333.011 243.324 331.588 240.543 330.547 237.612 C 330.533 237.574 330.529 237.532 330.535 237.491 C 330.541 237.45 330.557 237.412 330.582 237.379 C 330.607 237.346 330.64 237.32 330.678 237.304 C 330.715 237.287 330.757 237.28 330.798 237.284 L 330.806 237.284 C 332.121 237.454 333.453 237.45 334.767 237.272 C 335.385 237.153 336.039 236.905 336.218 236.381 C 336.329 235.773 336.209 235.146 335.882 234.622 C 335.236 233.455 334.48 232.353 333.625 231.329 C 332.789 230.277 331.923 229.244 331.065 228.203 C 330.205 227.162 329.352 226.114 328.526 225.044 C 327.743 223.968 326.796 223.022 325.72 222.24 C 325.216 221.838 324.624 221.561 323.992 221.431 C 323.361 221.302 322.708 221.324 322.086 221.496 C 320.878 221.983 319.892 222.901 319.317 224.071 L 319.31 224.084 C 319.289 224.123 319.257 224.154 319.218 224.175 C 319.179 224.196 319.135 224.205 319.091 224.2 C 319.047 224.196 319.005 224.179 318.971 224.151 C 318.937 224.123 318.912 224.086 318.898 224.044 C 318.474 222.735 318.252 221.368 318.24 219.992 C 318.237 219.291 318.348 218.593 318.569 217.927 C 318.797 217.235 319.231 216.629 319.812 216.19 L 319.78 216.219 C 320.312 215.752 320.923 215.385 321.584 215.133 C 322.212 214.87 322.854 214.641 323.507 214.446 C 324.803 214.049 326.116 213.727 327.432 213.435 C 330.067 212.856 332.722 212.393 335.38 211.971 C 340.7 211.135 346.041 210.475 351.387 209.874 C 362.081 208.674 372.796 207.72 383.529 206.93 L 383.063 207.374 C 383.74 203.095 384.617 198.966 385.446 194.774 L 388.025 182.256 L 393.209 157.224 L 393.449 157.879 C 392.869 157.556 392.241 157.33 391.589 157.207 C 390.879 157.045 390.152 156.911 389.415 156.803 C 387.944 156.58 386.45 156.428 384.955 156.295 C 381.963 156.031 378.953 155.876 375.942 155.739 C 369.919 155.472 363.884 155.348 357.848 155.277 C 345.776 155.137 333.695 155.242 321.622 155.41 L 322.059 155.218 C 321.656 155.723 321.345 156.294 321.14 156.907 C 320.893 157.558 320.685 158.238 320.499 158.927 C 320.128 160.307 319.838 161.723 319.576 163.143 C 319.059 165.988 318.665 168.866 318.318 171.748 C 317.632 177.516 317.133 183.313 316.703 189.114 C 316.277 194.918 315.921 200.726 315.633 206.54 C 315.312 212.345 315.099 218.168 314.882 223.98 L 314.881 223.986 C 314.878 224.06 314.846 224.131 314.792 224.182 C 314.738 224.233 314.665 224.26 314.591 224.259 L 289.839 223.615 C 289.822 223.615 289.806 223.607 289.794 223.595 C 289.783 223.583 289.776 223.566 289.776 223.549 C 289.777 223.532 289.784 223.516 289.796 223.504 C 289.808 223.492 289.825 223.485 289.842 223.485 L 314.6 223.686 L 314.31 223.965 C 314.458 218.139 314.625 212.324 314.888 206.5 C 315.123 200.686 315.424 194.87 315.792 189.051 C 316.168 183.237 316.612 177.426 317.246 171.625 C 317.567 168.725 317.935 165.827 318.431 162.939 C 318.683 161.495 318.964 160.054 319.335 158.619 C 319.522 157.901 319.731 157.185 319.994 156.473 C 320.247 155.7 320.643 154.982 321.159 154.355 C 321.211 154.297 321.274 154.25 321.345 154.217 C 321.415 154.184 321.492 154.166 321.569 154.164 L 321.596 154.163 C 327.642 154.007 333.683 153.951 339.728 153.907 C 345.772 153.868 351.817 153.875 357.862 153.927 C 363.908 153.988 369.955 154.103 376.003 154.362 C 379.027 154.497 382.051 154.676 385.076 154.952 C 386.589 155.094 388.101 155.254 389.616 155.49 C 390.373 155.604 391.132 155.746 391.894 155.924 C 392.728 156.083 393.527 156.394 394.249 156.842 C 394.346 156.908 394.422 157.001 394.467 157.11 C 394.511 157.22 394.522 157.34 394.498 157.455 L 394.489 157.497 L 389.201 182.5 L 386.545 194.999 C 385.681 199.156 384.755 203.359 384.061 207.489 L 384.057 207.516 C 384.038 207.628 383.982 207.729 383.898 207.805 C 383.815 207.881 383.708 207.926 383.595 207.933 C 372.873 208.625 362.153 209.48 351.464 210.581 C 346.121 211.146 340.783 211.772 335.473 212.571 C 332.819 212.975 330.171 213.419 327.55 213.977 C 326.241 214.259 324.938 214.57 323.661 214.952 C 323.024 215.138 322.398 215.357 321.784 215.609 C 321.185 215.832 320.629 216.157 320.14 216.57 L 320.131 216.578 L 320.107 216.598 C 319.604 216.975 319.229 217.496 319.031 218.092 C 318.824 218.707 318.719 219.351 318.719 219.999 C 318.724 221.322 318.929 222.637 319.328 223.898 L 318.91 223.871 C 319.543 222.597 320.627 221.605 321.952 221.089 C 322.636 220.901 323.353 220.877 324.048 221.019 C 324.742 221.161 325.392 221.466 325.947 221.907 C 327.049 222.723 328.024 223.698 328.841 224.799 C 329.668 225.86 330.524 226.9 331.387 227.935 C 332.25 228.971 333.121 230 333.968 231.056 C 334.849 232.1 335.627 233.226 336.292 234.418 C 336.684 235.051 336.815 235.812 336.658 236.54 C 336.514 236.911 336.237 237.216 335.882 237.395 C 335.56 237.559 335.216 237.676 334.86 237.741 C 333.501 237.935 332.121 237.948 330.759 237.779 L 331.017 237.452 C 332.049 240.33 333.47 243.053 335.242 245.544 C 336.118 246.778 337.165 247.88 338.352 248.817 C 339.505 249.755 340.92 250.313 342.402 250.417 C 345.421 250.514 348.516 250.266 351.574 250.074 C 354.64 249.863 357.706 249.612 360.77 249.348 C 373.024 248.26 385.274 247.085 397.517 245.822 L 415.883 243.957 C 417.402 243.771 418.977 243.7 420.403 243.399 C 421.861 243.082 423.27 242.571 424.593 241.88 C 427.263 240.541 429.353 238.274 430.474 235.503 C 431.464 232.665 431.677 229.613 431.091 226.664 C 430.831 225.168 430.467 223.691 430.002 222.246 C 429.53 220.827 428.841 219.489 427.96 218.281 C 426.193 215.805 424.053 213.618 421.618 211.798 C 419.178 209.958 416.563 208.364 413.811 207.038 L 413.835 207.049 L 385.741 196.054 L 385.764 196.058 L 385.757 196.058 C 385.74 196.058 385.723 196.051 385.711 196.039 C 385.699 196.027 385.692 196.01 385.692 195.993 C 385.692 195.976 385.699 195.959 385.711 195.947 C 385.723 195.935 385.74 195.928 385.757 195.928 L 385.757 195.928 Z" stroke-linecap="round" />
</g>
		<g transform="matrix(1 0 0 1 24.22 -70.26)"  >
<path style="stroke: none; stroke-width: 1; stroke-dasharray: none; stroke-linecap: butt; stroke-dashoffset: 0; stroke-linejoin: miter; stroke-miterlimit: 4; fill: rgb(0,0,0); fill-rule: nonzero; opacity: 1;" vector-effect="non-scaling-stroke"  transform=" translate(-354.22, -189.26)" d="M 321.609 154.787 C 316.856 160.168 314.596 223.973 314.596 223.973 L 319.116 223.973 C 319.116 223.973 317.226 218.37 319.96 216.394 C 324.928 211.273 383.562 207.432 383.562 207.432 C 383.692 206.307 384.569 201.836 385.763 195.993 C 388.79 181.116 393.849 157.361 393.849 157.361 C 388.705 153.383 321.609 154.787 321.609 154.787 Z M 354.807 184.034 C 349.124 184.034 344.52 182.669 344.52 180.992 C 344.52 179.315 349.124 177.951 354.807 177.951 C 360.489 177.951 365.093 179.315 365.093 180.992 C 365.093 182.669 360.489 184.034 354.807 184.034 L 354.807 184.034 Z" stroke-linecap="round" />
</g>
		<g transform="matrix(1 0 0 1 -6.02 47.37)"  >
<path style="stroke: none; stroke-width: 1; stroke-dasharray: none; stroke-linecap: butt; stroke-dashoffset: 0; stroke-linejoin: miter; stroke-miterlimit: 4; fill: rgb(0,0,0); fill-rule: nonzero; opacity: 1;" vector-effect="non-scaling-stroke"  transform=" translate(-323.98, -306.89)" d="M 256.089 224.511 C 255.336 228.992 254.942 233.526 254.91 238.07 C 254.839 242.6 255.272 247.124 256.201 251.557 C 257.195 255.932 258.918 260.253 261.947 263.53 C 263.493 265.136 265.286 266.483 267.258 267.521 L 268.73 268.341 C 269.224 268.61 269.743 268.837 270.249 269.087 C 271.262 269.582 272.279 270.071 273.327 270.5 C 277.476 272.299 281.741 273.854 286.046 275.283 C 290.347 276.724 294.69 278.047 299.047 279.323 C 307.756 281.908 316.549 284.159 325.367 286.411 C 327.625 287.012 329.739 288.059 331.587 289.491 C 333.434 290.922 334.977 292.709 336.124 294.746 C 336.69 295.76 337.159 296.826 337.524 297.929 C 337.858 299.034 338.11 300.162 338.278 301.304 L 339.397 308.036 C 340.936 317.005 342.425 325.982 344.024 334.939 L 353.633 388.684 L 353.183 388.294 C 359.891 388.391 366.616 388.303 373.311 387.944 C 376.658 387.765 380.002 387.513 383.31 387.077 C 384.956 386.866 386.589 386.57 388.205 386.191 C 388.996 386.004 389.774 385.767 390.535 385.481 C 391.238 385.236 391.885 384.855 392.44 384.358 L 392.275 384.81 C 391.797 373.301 391.225 361.79 390.629 350.284 C 390.026 338.777 389.28 327.28 388.527 315.783 C 387.739 304.29 386.835 292.802 385.593 281.352 C 384.971 275.627 384.24 269.914 383.325 264.233 C 382.858 261.394 382.341 258.561 381.647 255.772 C 381.312 254.376 380.893 253.002 380.392 251.656 C 380.142 250.987 379.835 250.34 379.475 249.723 C 379.324 249.407 379.112 249.124 378.851 248.891 C 378.59 248.657 378.286 248.478 377.956 248.362 L 377.951 248.361 C 377.934 248.357 377.919 248.347 377.909 248.333 C 377.9 248.319 377.897 248.301 377.9 248.285 C 377.903 248.268 377.913 248.253 377.927 248.243 C 377.941 248.234 377.959 248.23 377.976 248.233 C 378.33 248.344 378.658 248.525 378.941 248.764 C 379.224 249.004 379.457 249.297 379.626 249.628 C 380.007 250.246 380.334 250.897 380.603 251.572 C 381.138 252.916 381.591 254.291 381.96 255.69 C 382.722 258.478 383.304 261.307 383.836 264.143 C 384.886 269.82 385.641 275.541 386.347 281.265 C 387.729 292.716 388.772 304.203 389.699 315.696 C 390.645 327.189 391.324 338.7 391.976 350.211 C 392.627 361.722 393.152 373.24 393.552 384.764 L 393.553 384.784 C 393.555 384.863 393.542 384.943 393.514 385.017 C 393.485 385.091 393.442 385.159 393.387 385.216 C 392.701 385.861 391.885 386.354 390.994 386.66 C 390.18 386.963 389.347 387.212 388.5 387.408 C 386.84 387.789 385.16 388.084 383.469 388.292 C 380.107 388.717 376.738 388.952 373.369 389.114 C 366.629 389.401 359.897 389.409 353.158 389.235 C 353.049 389.232 352.945 389.192 352.863 389.121 C 352.781 389.049 352.726 388.952 352.707 388.845 L 343.601 335.013 C 342.081 326.041 340.451 317.089 338.871 308.128 L 337.65 301.413 C 337.471 300.306 337.21 299.214 336.869 298.146 C 336.503 297.094 336.037 296.079 335.48 295.114 C 334.36 293.192 332.868 291.512 331.091 290.175 C 329.314 288.838 327.287 287.869 325.131 287.327 C 316.288 285.25 307.464 282.968 298.723 280.435 C 294.347 279.18 290.008 277.792 285.692 276.33 C 281.377 274.869 277.098 273.282 272.915 271.439 C 271.861 271.001 270.832 270.499 269.805 269.99 C 269.293 269.733 268.771 269.5 268.267 269.224 L 266.766 268.376 C 264.714 267.279 262.858 265.848 261.274 264.143 C 258.14 260.648 256.451 256.173 255.502 251.711 C 254.61 247.22 254.258 242.637 254.452 238.062 C 254.594 233.503 255.098 228.963 255.962 224.485 C 255.965 224.468 255.975 224.453 255.989 224.444 C 256.003 224.434 256.021 224.431 256.038 224.434 C 256.055 224.438 256.069 224.448 256.079 224.462 C 256.088 224.477 256.092 224.494 256.089 224.511 Z" stroke-linecap="round" />
</g>
		<g transform="matrix(1 0 0 1 75.69 155.57)"  >
<path style="stroke: none; stroke-width: 1; stroke-dasharray: none; stroke-linecap: butt; stroke-dashoffset: 0; stroke-linejoin: miter; stroke-miterlimit: 4; fill: rgb(0,0,0); fill-rule: nonzero; opacity: 1;" vector-effect="non-scaling-stroke"  transform=" translate(-405.69, -415.09)" d="M 363.691 397.071 C 363.691 397.071 358.08 396.486 358.08 399.176 C 358.08 401.867 358.548 421.521 360.885 422.106 C 363.223 422.691 431.722 446.323 449.957 427.137 C 449.957 427.137 462.582 420.117 438.736 411.928 C 414.89 403.739 399.928 395.55 399.928 395.55 C 399.928 395.55 377.25 396.252 376.783 398.592 C 376.315 400.931 379.822 409.354 379.822 409.354 C 379.822 409.354 364.86 412.864 363.691 397.071 Z" stroke-linecap="round" />
</g>
		<g transform="matrix(1 0 0 1 33.13 133.43)"  >
<path style="stroke: none; stroke-width: 1; stroke-dasharray: none; stroke-linecap: butt; stroke-dashoffset: 0; stroke-linejoin: miter; stroke-miterlimit: 4; fill: rgb(0,0,0); fill-rule: nonzero; opacity: 1;" vector-effect="non-scaling-stroke"  transform=" translate(-363.13, -392.95)" d="M 363.69 397.396 C 363.663 397.396 363.636 397.392 363.61 397.386 C 363.526 397.364 363.455 397.31 363.411 397.236 C 363.367 397.162 363.355 397.073 363.376 396.99 C 363.684 395.638 363.724 394.238 363.491 392.871 C 363.259 391.503 362.759 390.195 362.021 389.021 C 361.997 388.986 361.98 388.947 361.971 388.905 C 361.961 388.864 361.96 388.82 361.968 388.778 C 361.975 388.736 361.991 388.696 362.014 388.66 C 362.037 388.624 362.067 388.593 362.102 388.569 C 362.137 388.544 362.176 388.527 362.218 388.518 C 362.259 388.509 362.302 388.508 362.344 388.515 C 362.386 388.523 362.426 388.538 362.462 388.561 C 362.498 388.584 362.529 388.614 362.554 388.649 C 363.354 389.896 363.896 391.291 364.145 392.752 C 364.394 394.213 364.347 395.71 364.005 397.152 C 363.987 397.222 363.946 397.284 363.889 397.328 C 363.832 397.372 363.762 397.396 363.69 397.396 Z" stroke-linecap="round" />
</g>
		<g transform="matrix(1 0 0 1 60.1 132.12)"  >
<path style="stroke: none; stroke-width: 1; stroke-dasharray: none; stroke-linecap: butt; stroke-dashoffset: 0; stroke-linejoin: miter; stroke-miterlimit: 4; fill: rgb(0,0,0); fill-rule: nonzero; opacity: 1;" vector-effect="non-scaling-stroke"  transform=" translate(-390.1, -391.64)" d="M 397.122 395.874 L 397.111 395.873 C 390.043 395.638 383.134 388.259 382.844 387.946 C 382.815 387.914 382.792 387.878 382.777 387.838 C 382.762 387.798 382.755 387.755 382.757 387.712 C 382.759 387.67 382.769 387.628 382.786 387.589 C 382.804 387.55 382.829 387.515 382.861 387.486 C 382.892 387.457 382.929 387.435 382.969 387.42 C 383.009 387.405 383.051 387.398 383.094 387.4 C 383.136 387.401 383.178 387.411 383.217 387.429 C 383.256 387.447 383.291 387.472 383.32 387.503 C 383.389 387.579 390.338 394.997 397.133 395.225 C 397.218 395.228 397.299 395.264 397.357 395.326 C 397.416 395.387 397.448 395.47 397.446 395.555 C 397.445 395.64 397.41 395.721 397.349 395.781 C 397.289 395.841 397.207 395.874 397.122 395.874 L 397.122 395.874 Z" stroke-linecap="round" />
</g>
		<g transform="matrix(1 0 0 1 -95.98 -38.5)"  >
<path style="stroke: none; stroke-width: 1; stroke-dasharray: none; stroke-linecap: butt; stroke-dashoffset: 0; stroke-linejoin: miter; stroke-miterlimit: 4; fill: rgb(255,255,255); fill-rule: nonzero; opacity: 1;" vector-effect="non-scaling-stroke"  transform=" translate(-234.02, -221.02)" d="M 234.123 221.057 C 234.075 221.048 234.028 221.048 233.981 221.039 L 233.925 220.982 C 233.992 221.003 234.058 221.028 234.123 221.057 Z" stroke-linecap="round" />
</g>
		<g transform="matrix(1 0 0 1 -75.3 -16.38)"  >
<path style="stroke: none; stroke-width: 1; stroke-dasharray: none; stroke-linecap: butt; stroke-dashoffset: 0; stroke-linejoin: miter; stroke-miterlimit: 4; fill: rgb(255,255,255); fill-rule: nonzero; opacity: 1;" vector-effect="non-scaling-stroke"  transform=" translate(-254.7, -243.14)" d="M 254.658 243.337 L 254.658 243.393 C 254.687 243.223 254.715 243.063 254.743 242.893 C 254.715 243.044 254.687 243.186 254.658 243.337 Z" stroke-linecap="round" />
</g>
		<g transform="matrix(1 0 0 1 54.28 8.6)"  >
<path style="stroke: none; stroke-width: 1; stroke-dasharray: none; stroke-linecap: butt; stroke-dashoffset: 0; stroke-linejoin: miter; stroke-miterlimit: 4; fill: rgb(255,255,255); fill-rule: nonzero; opacity: 1;" vector-effect="non-scaling-stroke"  transform=" translate(-384.28, -268.12)" d="M 384.331 268.098 L 384.331 268.117 C 384.293 268.126 384.264 268.136 384.226 268.145 C 384.264 268.126 384.292 268.117 384.331 268.098 Z" stroke-linecap="round" />
</g>
		<g transform="matrix(1 0 0 1 -103.85 54.64)"  >
<path style="stroke: none; stroke-width: 1; stroke-dasharray: none; stroke-linecap: butt; stroke-dashoffset: 0; stroke-linejoin: miter; stroke-miterlimit: 4; fill: rgb(0,0,0); fill-rule: nonzero; opacity: 1;" vector-effect="non-scaling-stroke"  transform=" translate(-226.15, -314.16)" d="M 224.686 275.047 L 225.796 294.59 L 226.809 314.136 C 227.155 320.65 227.612 327.161 227.725 333.685 C 227.775 336.947 227.824 340.209 227.79 343.474 L 227.736 348.372 C 227.679 350.006 227.659 351.639 227.569 353.274 C 227.568 353.298 227.558 353.321 227.54 353.338 C 227.523 353.356 227.5 353.366 227.475 353.366 C 227.451 353.367 227.427 353.359 227.408 353.343 C 227.39 353.328 227.378 353.305 227.375 353.281 C 227.165 351.657 227.025 350.03 226.848 348.405 L 226.433 343.524 C 226.158 340.271 225.968 337.014 225.778 333.757 C 225.41 327.243 225.387 320.716 225.252 314.193 L 224.823 294.626 L 224.491 275.055 C 224.491 275.029 224.5 275.004 224.518 274.986 C 224.536 274.967 224.56 274.957 224.585 274.956 C 224.611 274.955 224.635 274.964 224.654 274.981 C 224.673 274.998 224.684 275.022 224.686 275.047 L 224.686 275.047 Z" stroke-linecap="round" />
</g>
		<g transform="matrix(1 0 0 1 -51.91 92.31)"  >
<path style="stroke: none; stroke-width: 1; stroke-dasharray: none; stroke-linecap: butt; stroke-dashoffset: 0; stroke-linejoin: miter; stroke-miterlimit: 4; fill: rgb(0,0,0); fill-rule: nonzero; opacity: 1;" vector-effect="non-scaling-stroke"  transform=" translate(-278.09, -351.83)" d="M 277.756 312.019 L 278.301 331.92 L 278.749 351.822 C 278.907 358.456 279.176 365.089 279.1 371.725 C 279.056 375.043 279.011 378.361 278.883 381.68 L 278.687 386.658 C 278.583 388.317 278.516 389.977 278.379 391.636 C 278.377 391.661 278.366 391.684 278.348 391.7 C 278.33 391.717 278.307 391.726 278.282 391.726 C 278.258 391.727 278.234 391.718 278.216 391.701 C 278.198 391.685 278.187 391.662 278.184 391.638 C 278.022 389.981 277.928 388.322 277.798 386.665 L 277.525 381.69 C 277.344 378.374 277.248 375.057 277.152 371.741 C 276.972 365.107 277.138 358.47 277.191 351.835 L 277.327 331.928 L 277.561 312.021 C 277.561 311.995 277.572 311.971 277.59 311.953 C 277.608 311.935 277.632 311.925 277.658 311.924 C 277.683 311.924 277.708 311.934 277.726 311.952 C 277.744 311.969 277.755 311.994 277.756 312.019 L 277.756 312.019 Z" stroke-linecap="round" />
</g>
		<g transform="matrix(1 0 0 1 -102.53 92.31)"  >
<path style="stroke: none; stroke-width: 1; stroke-dasharray: none; stroke-linecap: butt; stroke-dashoffset: 0; stroke-linejoin: miter; stroke-miterlimit: 4; fill: rgb(0,0,0); fill-rule: nonzero; opacity: 1;" vector-effect="non-scaling-stroke"  transform=" translate(-227.47, -351.83)" d="M 227.472 353.388 C 232.034 353.388 235.733 352.69 235.733 351.828 C 235.733 350.967 232.034 350.269 227.472 350.269 C 222.91 350.269 219.212 350.967 219.212 351.828 C 219.212 352.69 222.91 353.388 227.472 353.388 Z" stroke-linecap="round" />
</g>
		<g transform="matrix(1 0 0 1 -52.03 130.88)"  >
<path style="stroke: none; stroke-width: 1; stroke-dasharray: none; stroke-linecap: butt; stroke-dashoffset: 0; stroke-linejoin: miter; stroke-miterlimit: 4; fill: rgb(0,0,0); fill-rule: nonzero; opacity: 1;" vector-effect="non-scaling-stroke"  transform=" translate(-277.97, -390.39)" d="M 277.969 391.955 C 282.531 391.955 286.23 391.257 286.23 390.395 C 286.23 389.534 282.531 388.835 277.969 388.835 C 273.407 388.835 269.709 389.534 269.709 390.395 C 269.709 391.257 273.407 391.955 277.969 391.955 Z" stroke-linecap="round" />
</g>
		<g transform="matrix(1 0 0 1 3.73 57.92)"  >
<path style="stroke: none; stroke-width: 1; stroke-dasharray: none; stroke-linecap: butt; stroke-dashoffset: 0; stroke-linejoin: miter; stroke-miterlimit: 4; fill: rgb(0,0,0); fill-rule: nonzero; opacity: 1;" vector-effect="non-scaling-stroke"  transform=" translate(-333.73, -317.43)" d="M 332.905 299.147 L 333.632 308.278 L 334.261 317.412 C 334.458 320.457 334.823 323.496 334.793 326.549 C 334.815 329.617 334.634 332.682 334.253 335.726 C 334.25 335.749 334.239 335.77 334.222 335.786 C 334.205 335.801 334.182 335.811 334.159 335.811 C 334.136 335.812 334.113 335.805 334.095 335.791 C 334.076 335.776 334.064 335.756 334.059 335.733 C 333.454 332.726 333.049 329.682 332.846 326.621 C 332.59 323.578 332.731 320.52 332.703 317.469 L 332.658 308.314 L 332.71 299.155 C 332.711 299.129 332.72 299.105 332.738 299.087 C 332.755 299.069 332.779 299.059 332.804 299.058 C 332.83 299.057 332.854 299.066 332.873 299.082 C 332.892 299.099 332.903 299.122 332.905 299.147 Z" stroke-linecap="round" />
</g>
		<g transform="matrix(1 0 0 1 75.81 58.06)"  >
<path style="stroke: none; stroke-width: 1; stroke-dasharray: none; stroke-linecap: butt; stroke-dashoffset: 0; stroke-linejoin: miter; stroke-miterlimit: 4; fill: rgb(0,0,0); fill-rule: nonzero; opacity: 1;" vector-effect="non-scaling-stroke"  transform=" translate(-405.81, -317.58)" d="M 405.481 278.239 L 406.025 297.908 L 406.471 317.577 C 406.628 324.134 406.896 330.69 406.82 337.248 C 406.776 340.527 406.731 343.807 406.602 347.086 L 406.406 352.006 C 406.302 353.647 406.234 355.287 406.097 356.927 C 406.095 356.951 406.084 356.974 406.067 356.991 C 406.049 357.007 406.025 357.017 406.001 357.017 C 405.976 357.017 405.953 357.008 405.935 356.992 C 405.916 356.975 405.905 356.953 405.903 356.929 C 405.74 355.29 405.647 353.652 405.517 352.013 L 405.244 347.097 C 405.064 343.82 404.968 340.541 404.872 337.263 C 404.693 330.707 404.859 324.148 404.913 317.59 L 405.051 297.915 L 405.286 278.24 C 405.287 278.215 405.297 278.19 405.315 278.172 C 405.333 278.154 405.358 278.144 405.383 278.144 C 405.409 278.143 405.433 278.153 405.452 278.171 C 405.47 278.189 405.481 278.213 405.481 278.239 L 405.481 278.239 Z" stroke-linecap="round" />
</g>
		<g transform="matrix(1 0 0 1 4.16 74.76)"  >
<path style="stroke: none; stroke-width: 1; stroke-dasharray: none; stroke-linecap: butt; stroke-dashoffset: 0; stroke-linejoin: miter; stroke-miterlimit: 4; fill: rgb(0,0,0); fill-rule: nonzero; opacity: 1;" vector-effect="non-scaling-stroke"  transform=" translate(-334.16, -334.28)" d="M 334.156 335.84 C 338.718 335.84 342.416 335.142 342.416 334.28 C 342.416 333.419 338.718 332.72 334.156 332.72 C 329.594 332.72 325.896 333.419 325.896 334.28 C 325.896 335.142 329.594 335.84 334.156 335.84 Z" stroke-linecap="round" />
</g>
		<g transform="matrix(1 0 0 1 75.69 96.17)"  >
<path style="stroke: none; stroke-width: 1; stroke-dasharray: none; stroke-linecap: butt; stroke-dashoffset: 0; stroke-linejoin: miter; stroke-miterlimit: 4; fill: rgb(0,0,0); fill-rule: nonzero; opacity: 1;" vector-effect="non-scaling-stroke"  transform=" translate(-405.69, -355.69)" d="M 405.688 357.246 C 410.25 357.246 413.949 356.547 413.949 355.686 C 413.949 354.824 410.25 354.126 405.688 354.126 C 401.126 354.126 397.428 354.824 397.428 355.686 C 397.428 356.547 401.126 357.246 405.688 357.246 Z" stroke-linecap="round" />
</g>
		<g transform="matrix(1 0 0 1 -13.15 -35.55)"  >
<path style="stroke: none; stroke-width: 1; stroke-dasharray: none; stroke-linecap: butt; stroke-dashoffset: 0; stroke-linejoin: miter; stroke-miterlimit: 4; fill: rgb(0,0,0); fill-rule: nonzero; opacity: 1;" vector-effect="non-scaling-stroke"  transform=" translate(-316.85, -223.97)" d="M 319.113 224.296 L 314.596 224.296 C 314.51 224.296 314.428 224.261 314.367 224.2 C 314.306 224.139 314.272 224.057 314.272 223.971 C 314.272 223.885 314.306 223.802 314.367 223.741 C 314.428 223.68 314.51 223.646 314.596 223.646 L 319.113 223.646 C 319.199 223.646 319.282 223.68 319.342 223.741 C 319.403 223.802 319.437 223.885 319.437 223.971 C 319.437 224.057 319.403 224.139 319.342 224.2 C 319.282 224.261 319.199 224.296 319.113 224.296 Z" stroke-linecap="round" />
</g>
</g>
</g>
</svg>